M48
; DRILL file {KiCad 9.0.2} date 2025-11-14T17:37:18-0800
; FORMAT={-:-/ absolute / metric / decimal}
; #@! TF.CreationDate,2025-11-14T17:37:18-08:00
; #@! TF.GenerationSoftware,Kicad,Pcbnew,9.0.2
; #@! TF.FileFunction,Plated,1,4,PTH
FMAT,2
METRIC
; #@! TA.AperFunction,Plated,PTH,ViaDrill
T1C0.203
; #@! TA.AperFunction,Plated,PTH,ViaDrill
T2C0.300
; #@! TA.AperFunction,Plated,PTH,ViaDrill
T3C0.305
; #@! TA.AperFunction,Plated,PTH,ComponentDrill
T4C0.600
; #@! TA.AperFunction,Plated,PTH,ComponentDrill
T5C1.000
; #@! TA.AperFunction,Plated,PTH,ComponentDrill
T6C3.000
%
G90
G05
T1
X116.79Y-126.975
X117.45Y-98.775
X117.47Y-126.475
X117.64Y-125.475
X118.14Y-99.275
X118.24Y-100.275
X118.801Y-100.775
X118.801Y-124.975
X119.45Y-90.775
X119.45Y-98.275
X119.45Y-99.775
X119.45Y-125.975
X119.45Y-127.475
X119.45Y-134.975
X136.1Y-107.1
X136.1Y-108.275
X136.1Y-109.5
X136.5Y-111.9
X136.5Y-113.1
X136.5Y-114.3
X136.5Y-115.5
X136.5Y-116.7
X137.3Y-114.7
X137.6Y-111.5
X137.6Y-112.9
X137.6Y-113.5
X137.6Y-114.1
X137.6Y-115.3
X139.95Y-95.345
X164.89Y-122.59
X165.28Y-132.07
X166.75Y-96.705
X168.5Y-137.1
X168.5Y-137.7
X168.5Y-138.3
X168.5Y-138.9
X170.25Y-135.375
X171.45Y-135.375
X172.45Y-98.115
X172.57Y-102.305
X172.75Y-135.375
X174.05Y-135.375
X176.163Y-135.663
X176.9Y-134.025
X177.15Y-136.775
T2
X167.98Y-103.215
X168.17Y-98.165
X173.15Y-99.375
T3
X119.45Y-92.275
X119.45Y-93.775
X119.45Y-95.275
X119.45Y-96.775
X119.45Y-128.975
X119.45Y-130.475
X119.45Y-131.975
X119.45Y-133.475
X121.65Y-124.075
X121.75Y-101.775
X129.8Y-97.2
X130.1Y-98.0
X136.5Y-110.7
X136.5Y-117.9
X137.1Y-107.5
X137.35Y-108.475
X137.55Y-109.275
X139.35Y-109.45
X140.002Y-107.127
X140.247Y-107.872
X146.748Y-105.008
X165.9Y-136.0
X166.05Y-107.9
X166.05Y-109.1
X166.05Y-110.3
X166.05Y-111.5
X166.05Y-112.7
X166.05Y-113.9
X166.05Y-115.1
X166.05Y-116.3
X166.05Y-117.5
X166.05Y-118.7
X167.22Y-133.57
X167.7Y-125.65
X168.17Y-105.865
X170.234Y-98.775
X170.34Y-102.839
X170.75Y-99.675
X170.85Y-103.755
X173.05Y-103.775
X173.176Y-100.375
X173.9Y-139.175
X174.66Y-102.975
X176.2Y-134.475
T5
X116.205Y-111.76
X116.205Y-114.3
X118.745Y-111.76
X118.745Y-114.3
X121.285Y-111.76
X121.285Y-114.3
X123.825Y-111.76
X123.825Y-114.3
X126.365Y-111.76
X126.365Y-114.3
X128.27Y-87.63
X128.27Y-90.17
X128.27Y-135.255
X128.27Y-137.795
X128.905Y-111.76
X128.905Y-114.3
X130.81Y-87.63
X130.81Y-90.17
X130.81Y-135.255
X130.81Y-137.795
X133.35Y-87.63
X133.35Y-90.17
X133.35Y-135.255
X133.35Y-137.795
X135.89Y-87.63
X135.89Y-90.17
X135.89Y-135.255
X135.89Y-137.795
X138.43Y-87.63
X138.43Y-90.17
X138.43Y-135.255
X138.43Y-137.795
X140.97Y-87.63
X140.97Y-90.17
X140.97Y-135.255
X140.97Y-137.795
X143.51Y-87.63
X143.51Y-90.17
X143.51Y-135.255
X143.51Y-137.795
X146.05Y-87.63
X146.05Y-90.17
X146.05Y-135.255
X146.05Y-137.795
X148.59Y-87.63
X148.59Y-90.17
X148.59Y-135.255
X148.59Y-137.795
X151.13Y-87.63
X151.13Y-90.17
X151.13Y-135.255
X151.13Y-137.795
X153.67Y-87.63
X153.67Y-90.17
X153.67Y-135.255
X153.67Y-137.795
X156.21Y-87.63
X156.21Y-90.17
X156.21Y-135.255
X156.21Y-137.795
X158.75Y-87.63
X158.75Y-90.17
X158.75Y-135.255
X158.75Y-137.795
X161.29Y-87.63
X161.29Y-90.17
X161.29Y-135.255
X161.29Y-137.795
X163.83Y-87.63
X163.83Y-90.17
X163.83Y-135.255
X163.83Y-137.795
X179.705Y-94.615
X179.705Y-97.155
X179.705Y-99.695
X179.705Y-102.235
X179.705Y-104.775
X179.705Y-107.315
X179.705Y-109.855
X179.705Y-112.395
X179.705Y-114.935
X179.705Y-117.475
X179.705Y-120.015
X179.705Y-122.555
X179.705Y-125.095
X179.705Y-127.635
X179.705Y-130.175
X182.245Y-94.615
X182.245Y-97.155
X182.245Y-99.695
X182.245Y-102.235
X182.245Y-104.775
X182.245Y-107.315
X182.245Y-109.855
X182.245Y-112.395
X182.245Y-114.935
X182.245Y-117.475
X182.245Y-120.015
X182.245Y-122.555
X182.245Y-125.095
X182.245Y-127.635
X182.245Y-130.175
T6
X150.8Y-126.4
T4
G00X168.14Y-89.035
M15
G01X168.14Y-88.435
M16
G05
G00X168.14Y-93.465
M15
G01X168.14Y-92.365
M16
G05
G00X176.78Y-89.035
M15
G01X176.78Y-88.435
M16
G05
G00X176.78Y-93.465
M15
G01X176.78Y-92.365
M16
G05
M30
