%TF.GenerationSoftware,KiCad,Pcbnew,9.0.2*%
%TF.CreationDate,2025-11-14T17:37:25-08:00*%
%TF.ProjectId,nx-module-breakout,6e782d6d-6f64-4756-9c65-2d627265616b,rev?*%
%TF.SameCoordinates,Original*%
%TF.FileFunction,AssemblyDrawing,Bot*%
%FSLAX46Y46*%
G04 Gerber Fmt 4.6, Leading zero omitted, Abs format (unit mm)*
G04 Created by KiCad (PCBNEW 9.0.2) date 2025-11-14 17:37:25*
%MOMM*%
%LPD*%
G01*
G04 APERTURE LIST*
%ADD10C,0.060000*%
%ADD11C,0.150000*%
%ADD12C,0.100000*%
G04 APERTURE END LIST*
D10*
X178842142Y-137768627D02*
X178968808Y-137768627D01*
X178968808Y-137967675D02*
X178968808Y-137587675D01*
X178968808Y-137587675D02*
X178787856Y-137587675D01*
X178643094Y-137967675D02*
X178643094Y-137587675D01*
X178462142Y-137967675D02*
X178462142Y-137587675D01*
X178462142Y-137587675D02*
X178371666Y-137587675D01*
X178371666Y-137587675D02*
X178317380Y-137605770D01*
X178317380Y-137605770D02*
X178281190Y-137641960D01*
X178281190Y-137641960D02*
X178263095Y-137678151D01*
X178263095Y-137678151D02*
X178244999Y-137750532D01*
X178244999Y-137750532D02*
X178244999Y-137804818D01*
X178244999Y-137804818D02*
X178263095Y-137877199D01*
X178263095Y-137877199D02*
X178281190Y-137913389D01*
X178281190Y-137913389D02*
X178317380Y-137949580D01*
X178317380Y-137949580D02*
X178371666Y-137967675D01*
X178371666Y-137967675D02*
X178462142Y-137967675D01*
X177919285Y-137587675D02*
X177991666Y-137587675D01*
X177991666Y-137587675D02*
X178027857Y-137605770D01*
X178027857Y-137605770D02*
X178045952Y-137623865D01*
X178045952Y-137623865D02*
X178082142Y-137678151D01*
X178082142Y-137678151D02*
X178100238Y-137750532D01*
X178100238Y-137750532D02*
X178100238Y-137895294D01*
X178100238Y-137895294D02*
X178082142Y-137931484D01*
X178082142Y-137931484D02*
X178064047Y-137949580D01*
X178064047Y-137949580D02*
X178027857Y-137967675D01*
X178027857Y-137967675D02*
X177955476Y-137967675D01*
X177955476Y-137967675D02*
X177919285Y-137949580D01*
X177919285Y-137949580D02*
X177901190Y-137931484D01*
X177901190Y-137931484D02*
X177883095Y-137895294D01*
X177883095Y-137895294D02*
X177883095Y-137804818D01*
X177883095Y-137804818D02*
X177901190Y-137768627D01*
X177901190Y-137768627D02*
X177919285Y-137750532D01*
X177919285Y-137750532D02*
X177955476Y-137732437D01*
X177955476Y-137732437D02*
X178027857Y-137732437D01*
X178027857Y-137732437D02*
X178064047Y-137750532D01*
X178064047Y-137750532D02*
X178082142Y-137768627D01*
X178082142Y-137768627D02*
X178100238Y-137804818D01*
D11*
X157392381Y-106272202D02*
X157249524Y-106319821D01*
X157249524Y-106319821D02*
X157011429Y-106319821D01*
X157011429Y-106319821D02*
X156916191Y-106272202D01*
X156916191Y-106272202D02*
X156868572Y-106224582D01*
X156868572Y-106224582D02*
X156820953Y-106129344D01*
X156820953Y-106129344D02*
X156820953Y-106034106D01*
X156820953Y-106034106D02*
X156868572Y-105938868D01*
X156868572Y-105938868D02*
X156916191Y-105891249D01*
X156916191Y-105891249D02*
X157011429Y-105843630D01*
X157011429Y-105843630D02*
X157201905Y-105796011D01*
X157201905Y-105796011D02*
X157297143Y-105748392D01*
X157297143Y-105748392D02*
X157344762Y-105700773D01*
X157344762Y-105700773D02*
X157392381Y-105605535D01*
X157392381Y-105605535D02*
X157392381Y-105510297D01*
X157392381Y-105510297D02*
X157344762Y-105415059D01*
X157344762Y-105415059D02*
X157297143Y-105367440D01*
X157297143Y-105367440D02*
X157201905Y-105319821D01*
X157201905Y-105319821D02*
X156963810Y-105319821D01*
X156963810Y-105319821D02*
X156820953Y-105367440D01*
X156249524Y-106319821D02*
X156344762Y-106272202D01*
X156344762Y-106272202D02*
X156392381Y-106224582D01*
X156392381Y-106224582D02*
X156440000Y-106129344D01*
X156440000Y-106129344D02*
X156440000Y-105843630D01*
X156440000Y-105843630D02*
X156392381Y-105748392D01*
X156392381Y-105748392D02*
X156344762Y-105700773D01*
X156344762Y-105700773D02*
X156249524Y-105653154D01*
X156249524Y-105653154D02*
X156106667Y-105653154D01*
X156106667Y-105653154D02*
X156011429Y-105700773D01*
X156011429Y-105700773D02*
X155963810Y-105748392D01*
X155963810Y-105748392D02*
X155916191Y-105843630D01*
X155916191Y-105843630D02*
X155916191Y-106129344D01*
X155916191Y-106129344D02*
X155963810Y-106224582D01*
X155963810Y-106224582D02*
X156011429Y-106272202D01*
X156011429Y-106272202D02*
X156106667Y-106319821D01*
X156106667Y-106319821D02*
X156249524Y-106319821D01*
X155344762Y-106319821D02*
X155440000Y-106272202D01*
X155440000Y-106272202D02*
X155487619Y-106176963D01*
X155487619Y-106176963D02*
X155487619Y-105319821D01*
X154535238Y-106319821D02*
X154535238Y-105319821D01*
X154535238Y-106272202D02*
X154630476Y-106319821D01*
X154630476Y-106319821D02*
X154820952Y-106319821D01*
X154820952Y-106319821D02*
X154916190Y-106272202D01*
X154916190Y-106272202D02*
X154963809Y-106224582D01*
X154963809Y-106224582D02*
X155011428Y-106129344D01*
X155011428Y-106129344D02*
X155011428Y-105843630D01*
X155011428Y-105843630D02*
X154963809Y-105748392D01*
X154963809Y-105748392D02*
X154916190Y-105700773D01*
X154916190Y-105700773D02*
X154820952Y-105653154D01*
X154820952Y-105653154D02*
X154630476Y-105653154D01*
X154630476Y-105653154D02*
X154535238Y-105700773D01*
X153678095Y-106272202D02*
X153773333Y-106319821D01*
X153773333Y-106319821D02*
X153963809Y-106319821D01*
X153963809Y-106319821D02*
X154059047Y-106272202D01*
X154059047Y-106272202D02*
X154106666Y-106176963D01*
X154106666Y-106176963D02*
X154106666Y-105796011D01*
X154106666Y-105796011D02*
X154059047Y-105700773D01*
X154059047Y-105700773D02*
X153963809Y-105653154D01*
X153963809Y-105653154D02*
X153773333Y-105653154D01*
X153773333Y-105653154D02*
X153678095Y-105700773D01*
X153678095Y-105700773D02*
X153630476Y-105796011D01*
X153630476Y-105796011D02*
X153630476Y-105891249D01*
X153630476Y-105891249D02*
X154106666Y-105986487D01*
X153201904Y-106319821D02*
X153201904Y-105653154D01*
X153201904Y-105843630D02*
X153154285Y-105748392D01*
X153154285Y-105748392D02*
X153106666Y-105700773D01*
X153106666Y-105700773D02*
X153011428Y-105653154D01*
X153011428Y-105653154D02*
X152916190Y-105653154D01*
X152297142Y-105319821D02*
X152297142Y-106034106D01*
X152297142Y-106034106D02*
X152344761Y-106176963D01*
X152344761Y-106176963D02*
X152439999Y-106272202D01*
X152439999Y-106272202D02*
X152582856Y-106319821D01*
X152582856Y-106319821D02*
X152678094Y-106319821D01*
X151392380Y-105653154D02*
X151392380Y-106319821D01*
X151820951Y-105653154D02*
X151820951Y-106176963D01*
X151820951Y-106176963D02*
X151773332Y-106272202D01*
X151773332Y-106272202D02*
X151678094Y-106319821D01*
X151678094Y-106319821D02*
X151535237Y-106319821D01*
X151535237Y-106319821D02*
X151439999Y-106272202D01*
X151439999Y-106272202D02*
X151392380Y-106224582D01*
X150916189Y-106319821D02*
X150916189Y-105653154D01*
X150916189Y-105748392D02*
X150868570Y-105700773D01*
X150868570Y-105700773D02*
X150773332Y-105653154D01*
X150773332Y-105653154D02*
X150630475Y-105653154D01*
X150630475Y-105653154D02*
X150535237Y-105700773D01*
X150535237Y-105700773D02*
X150487618Y-105796011D01*
X150487618Y-105796011D02*
X150487618Y-106319821D01*
X150487618Y-105796011D02*
X150439999Y-105700773D01*
X150439999Y-105700773D02*
X150344761Y-105653154D01*
X150344761Y-105653154D02*
X150201904Y-105653154D01*
X150201904Y-105653154D02*
X150106665Y-105700773D01*
X150106665Y-105700773D02*
X150059046Y-105796011D01*
X150059046Y-105796011D02*
X150059046Y-106319821D01*
X149582856Y-105653154D02*
X149582856Y-106653154D01*
X149582856Y-105700773D02*
X149487618Y-105653154D01*
X149487618Y-105653154D02*
X149297142Y-105653154D01*
X149297142Y-105653154D02*
X149201904Y-105700773D01*
X149201904Y-105700773D02*
X149154285Y-105748392D01*
X149154285Y-105748392D02*
X149106666Y-105843630D01*
X149106666Y-105843630D02*
X149106666Y-106129344D01*
X149106666Y-106129344D02*
X149154285Y-106224582D01*
X149154285Y-106224582D02*
X149201904Y-106272202D01*
X149201904Y-106272202D02*
X149297142Y-106319821D01*
X149297142Y-106319821D02*
X149487618Y-106319821D01*
X149487618Y-106319821D02*
X149582856Y-106272202D01*
X148297142Y-106272202D02*
X148392380Y-106319821D01*
X148392380Y-106319821D02*
X148582856Y-106319821D01*
X148582856Y-106319821D02*
X148678094Y-106272202D01*
X148678094Y-106272202D02*
X148725713Y-106176963D01*
X148725713Y-106176963D02*
X148725713Y-105796011D01*
X148725713Y-105796011D02*
X148678094Y-105700773D01*
X148678094Y-105700773D02*
X148582856Y-105653154D01*
X148582856Y-105653154D02*
X148392380Y-105653154D01*
X148392380Y-105653154D02*
X148297142Y-105700773D01*
X148297142Y-105700773D02*
X148249523Y-105796011D01*
X148249523Y-105796011D02*
X148249523Y-105891249D01*
X148249523Y-105891249D02*
X148725713Y-105986487D01*
X147820951Y-106319821D02*
X147820951Y-105653154D01*
X147820951Y-105843630D02*
X147773332Y-105748392D01*
X147773332Y-105748392D02*
X147725713Y-105700773D01*
X147725713Y-105700773D02*
X147630475Y-105653154D01*
X147630475Y-105653154D02*
X147535237Y-105653154D01*
X147439999Y-106415059D02*
X146678094Y-106415059D01*
X146487617Y-105415059D02*
X146439998Y-105367440D01*
X146439998Y-105367440D02*
X146344760Y-105319821D01*
X146344760Y-105319821D02*
X146106665Y-105319821D01*
X146106665Y-105319821D02*
X146011427Y-105367440D01*
X146011427Y-105367440D02*
X145963808Y-105415059D01*
X145963808Y-105415059D02*
X145916189Y-105510297D01*
X145916189Y-105510297D02*
X145916189Y-105605535D01*
X145916189Y-105605535D02*
X145963808Y-105748392D01*
X145963808Y-105748392D02*
X146535236Y-106319821D01*
X146535236Y-106319821D02*
X145916189Y-106319821D01*
X145725713Y-106415059D02*
X144963808Y-106415059D01*
X144392379Y-105796011D02*
X144249522Y-105843630D01*
X144249522Y-105843630D02*
X144201903Y-105891249D01*
X144201903Y-105891249D02*
X144154284Y-105986487D01*
X144154284Y-105986487D02*
X144154284Y-106129344D01*
X144154284Y-106129344D02*
X144201903Y-106224582D01*
X144201903Y-106224582D02*
X144249522Y-106272202D01*
X144249522Y-106272202D02*
X144344760Y-106319821D01*
X144344760Y-106319821D02*
X144725712Y-106319821D01*
X144725712Y-106319821D02*
X144725712Y-105319821D01*
X144725712Y-105319821D02*
X144392379Y-105319821D01*
X144392379Y-105319821D02*
X144297141Y-105367440D01*
X144297141Y-105367440D02*
X144249522Y-105415059D01*
X144249522Y-105415059D02*
X144201903Y-105510297D01*
X144201903Y-105510297D02*
X144201903Y-105605535D01*
X144201903Y-105605535D02*
X144249522Y-105700773D01*
X144249522Y-105700773D02*
X144297141Y-105748392D01*
X144297141Y-105748392D02*
X144392379Y-105796011D01*
X144392379Y-105796011D02*
X144725712Y-105796011D01*
X143725712Y-106319821D02*
X143725712Y-105653154D01*
X143725712Y-105843630D02*
X143678093Y-105748392D01*
X143678093Y-105748392D02*
X143630474Y-105700773D01*
X143630474Y-105700773D02*
X143535236Y-105653154D01*
X143535236Y-105653154D02*
X143439998Y-105653154D01*
X143106664Y-106319821D02*
X143106664Y-105653154D01*
X143106664Y-105319821D02*
X143154283Y-105367440D01*
X143154283Y-105367440D02*
X143106664Y-105415059D01*
X143106664Y-105415059D02*
X143059045Y-105367440D01*
X143059045Y-105367440D02*
X143106664Y-105319821D01*
X143106664Y-105319821D02*
X143106664Y-105415059D01*
X142201903Y-106319821D02*
X142201903Y-105319821D01*
X142201903Y-106272202D02*
X142297141Y-106319821D01*
X142297141Y-106319821D02*
X142487617Y-106319821D01*
X142487617Y-106319821D02*
X142582855Y-106272202D01*
X142582855Y-106272202D02*
X142630474Y-106224582D01*
X142630474Y-106224582D02*
X142678093Y-106129344D01*
X142678093Y-106129344D02*
X142678093Y-105843630D01*
X142678093Y-105843630D02*
X142630474Y-105748392D01*
X142630474Y-105748392D02*
X142582855Y-105700773D01*
X142582855Y-105700773D02*
X142487617Y-105653154D01*
X142487617Y-105653154D02*
X142297141Y-105653154D01*
X142297141Y-105653154D02*
X142201903Y-105700773D01*
X141297141Y-105653154D02*
X141297141Y-106462678D01*
X141297141Y-106462678D02*
X141344760Y-106557916D01*
X141344760Y-106557916D02*
X141392379Y-106605535D01*
X141392379Y-106605535D02*
X141487617Y-106653154D01*
X141487617Y-106653154D02*
X141630474Y-106653154D01*
X141630474Y-106653154D02*
X141725712Y-106605535D01*
X141297141Y-106272202D02*
X141392379Y-106319821D01*
X141392379Y-106319821D02*
X141582855Y-106319821D01*
X141582855Y-106319821D02*
X141678093Y-106272202D01*
X141678093Y-106272202D02*
X141725712Y-106224582D01*
X141725712Y-106224582D02*
X141773331Y-106129344D01*
X141773331Y-106129344D02*
X141773331Y-105843630D01*
X141773331Y-105843630D02*
X141725712Y-105748392D01*
X141725712Y-105748392D02*
X141678093Y-105700773D01*
X141678093Y-105700773D02*
X141582855Y-105653154D01*
X141582855Y-105653154D02*
X141392379Y-105653154D01*
X141392379Y-105653154D02*
X141297141Y-105700773D01*
X140439998Y-106272202D02*
X140535236Y-106319821D01*
X140535236Y-106319821D02*
X140725712Y-106319821D01*
X140725712Y-106319821D02*
X140820950Y-106272202D01*
X140820950Y-106272202D02*
X140868569Y-106176963D01*
X140868569Y-106176963D02*
X140868569Y-105796011D01*
X140868569Y-105796011D02*
X140820950Y-105700773D01*
X140820950Y-105700773D02*
X140725712Y-105653154D01*
X140725712Y-105653154D02*
X140535236Y-105653154D01*
X140535236Y-105653154D02*
X140439998Y-105700773D01*
X140439998Y-105700773D02*
X140392379Y-105796011D01*
X140392379Y-105796011D02*
X140392379Y-105891249D01*
X140392379Y-105891249D02*
X140868569Y-105986487D01*
X139535236Y-106319821D02*
X139535236Y-105319821D01*
X139535236Y-106272202D02*
X139630474Y-106319821D01*
X139630474Y-106319821D02*
X139820950Y-106319821D01*
X139820950Y-106319821D02*
X139916188Y-106272202D01*
X139916188Y-106272202D02*
X139963807Y-106224582D01*
X139963807Y-106224582D02*
X140011426Y-106129344D01*
X140011426Y-106129344D02*
X140011426Y-105843630D01*
X140011426Y-105843630D02*
X139963807Y-105748392D01*
X139963807Y-105748392D02*
X139916188Y-105700773D01*
X139916188Y-105700773D02*
X139820950Y-105653154D01*
X139820950Y-105653154D02*
X139630474Y-105653154D01*
X139630474Y-105653154D02*
X139535236Y-105700773D01*
X157392381Y-108782202D02*
X157249524Y-108829821D01*
X157249524Y-108829821D02*
X157011429Y-108829821D01*
X157011429Y-108829821D02*
X156916191Y-108782202D01*
X156916191Y-108782202D02*
X156868572Y-108734582D01*
X156868572Y-108734582D02*
X156820953Y-108639344D01*
X156820953Y-108639344D02*
X156820953Y-108544106D01*
X156820953Y-108544106D02*
X156868572Y-108448868D01*
X156868572Y-108448868D02*
X156916191Y-108401249D01*
X156916191Y-108401249D02*
X157011429Y-108353630D01*
X157011429Y-108353630D02*
X157201905Y-108306011D01*
X157201905Y-108306011D02*
X157297143Y-108258392D01*
X157297143Y-108258392D02*
X157344762Y-108210773D01*
X157344762Y-108210773D02*
X157392381Y-108115535D01*
X157392381Y-108115535D02*
X157392381Y-108020297D01*
X157392381Y-108020297D02*
X157344762Y-107925059D01*
X157344762Y-107925059D02*
X157297143Y-107877440D01*
X157297143Y-107877440D02*
X157201905Y-107829821D01*
X157201905Y-107829821D02*
X156963810Y-107829821D01*
X156963810Y-107829821D02*
X156820953Y-107877440D01*
X156249524Y-108829821D02*
X156344762Y-108782202D01*
X156344762Y-108782202D02*
X156392381Y-108734582D01*
X156392381Y-108734582D02*
X156440000Y-108639344D01*
X156440000Y-108639344D02*
X156440000Y-108353630D01*
X156440000Y-108353630D02*
X156392381Y-108258392D01*
X156392381Y-108258392D02*
X156344762Y-108210773D01*
X156344762Y-108210773D02*
X156249524Y-108163154D01*
X156249524Y-108163154D02*
X156106667Y-108163154D01*
X156106667Y-108163154D02*
X156011429Y-108210773D01*
X156011429Y-108210773D02*
X155963810Y-108258392D01*
X155963810Y-108258392D02*
X155916191Y-108353630D01*
X155916191Y-108353630D02*
X155916191Y-108639344D01*
X155916191Y-108639344D02*
X155963810Y-108734582D01*
X155963810Y-108734582D02*
X156011429Y-108782202D01*
X156011429Y-108782202D02*
X156106667Y-108829821D01*
X156106667Y-108829821D02*
X156249524Y-108829821D01*
X155344762Y-108829821D02*
X155440000Y-108782202D01*
X155440000Y-108782202D02*
X155487619Y-108686963D01*
X155487619Y-108686963D02*
X155487619Y-107829821D01*
X154535238Y-108829821D02*
X154535238Y-107829821D01*
X154535238Y-108782202D02*
X154630476Y-108829821D01*
X154630476Y-108829821D02*
X154820952Y-108829821D01*
X154820952Y-108829821D02*
X154916190Y-108782202D01*
X154916190Y-108782202D02*
X154963809Y-108734582D01*
X154963809Y-108734582D02*
X155011428Y-108639344D01*
X155011428Y-108639344D02*
X155011428Y-108353630D01*
X155011428Y-108353630D02*
X154963809Y-108258392D01*
X154963809Y-108258392D02*
X154916190Y-108210773D01*
X154916190Y-108210773D02*
X154820952Y-108163154D01*
X154820952Y-108163154D02*
X154630476Y-108163154D01*
X154630476Y-108163154D02*
X154535238Y-108210773D01*
X153678095Y-108782202D02*
X153773333Y-108829821D01*
X153773333Y-108829821D02*
X153963809Y-108829821D01*
X153963809Y-108829821D02*
X154059047Y-108782202D01*
X154059047Y-108782202D02*
X154106666Y-108686963D01*
X154106666Y-108686963D02*
X154106666Y-108306011D01*
X154106666Y-108306011D02*
X154059047Y-108210773D01*
X154059047Y-108210773D02*
X153963809Y-108163154D01*
X153963809Y-108163154D02*
X153773333Y-108163154D01*
X153773333Y-108163154D02*
X153678095Y-108210773D01*
X153678095Y-108210773D02*
X153630476Y-108306011D01*
X153630476Y-108306011D02*
X153630476Y-108401249D01*
X153630476Y-108401249D02*
X154106666Y-108496487D01*
X153201904Y-108829821D02*
X153201904Y-108163154D01*
X153201904Y-108353630D02*
X153154285Y-108258392D01*
X153154285Y-108258392D02*
X153106666Y-108210773D01*
X153106666Y-108210773D02*
X153011428Y-108163154D01*
X153011428Y-108163154D02*
X152916190Y-108163154D01*
X152297142Y-107829821D02*
X152297142Y-108544106D01*
X152297142Y-108544106D02*
X152344761Y-108686963D01*
X152344761Y-108686963D02*
X152439999Y-108782202D01*
X152439999Y-108782202D02*
X152582856Y-108829821D01*
X152582856Y-108829821D02*
X152678094Y-108829821D01*
X151392380Y-108163154D02*
X151392380Y-108829821D01*
X151820951Y-108163154D02*
X151820951Y-108686963D01*
X151820951Y-108686963D02*
X151773332Y-108782202D01*
X151773332Y-108782202D02*
X151678094Y-108829821D01*
X151678094Y-108829821D02*
X151535237Y-108829821D01*
X151535237Y-108829821D02*
X151439999Y-108782202D01*
X151439999Y-108782202D02*
X151392380Y-108734582D01*
X150916189Y-108829821D02*
X150916189Y-108163154D01*
X150916189Y-108258392D02*
X150868570Y-108210773D01*
X150868570Y-108210773D02*
X150773332Y-108163154D01*
X150773332Y-108163154D02*
X150630475Y-108163154D01*
X150630475Y-108163154D02*
X150535237Y-108210773D01*
X150535237Y-108210773D02*
X150487618Y-108306011D01*
X150487618Y-108306011D02*
X150487618Y-108829821D01*
X150487618Y-108306011D02*
X150439999Y-108210773D01*
X150439999Y-108210773D02*
X150344761Y-108163154D01*
X150344761Y-108163154D02*
X150201904Y-108163154D01*
X150201904Y-108163154D02*
X150106665Y-108210773D01*
X150106665Y-108210773D02*
X150059046Y-108306011D01*
X150059046Y-108306011D02*
X150059046Y-108829821D01*
X149582856Y-108163154D02*
X149582856Y-109163154D01*
X149582856Y-108210773D02*
X149487618Y-108163154D01*
X149487618Y-108163154D02*
X149297142Y-108163154D01*
X149297142Y-108163154D02*
X149201904Y-108210773D01*
X149201904Y-108210773D02*
X149154285Y-108258392D01*
X149154285Y-108258392D02*
X149106666Y-108353630D01*
X149106666Y-108353630D02*
X149106666Y-108639344D01*
X149106666Y-108639344D02*
X149154285Y-108734582D01*
X149154285Y-108734582D02*
X149201904Y-108782202D01*
X149201904Y-108782202D02*
X149297142Y-108829821D01*
X149297142Y-108829821D02*
X149487618Y-108829821D01*
X149487618Y-108829821D02*
X149582856Y-108782202D01*
X148297142Y-108782202D02*
X148392380Y-108829821D01*
X148392380Y-108829821D02*
X148582856Y-108829821D01*
X148582856Y-108829821D02*
X148678094Y-108782202D01*
X148678094Y-108782202D02*
X148725713Y-108686963D01*
X148725713Y-108686963D02*
X148725713Y-108306011D01*
X148725713Y-108306011D02*
X148678094Y-108210773D01*
X148678094Y-108210773D02*
X148582856Y-108163154D01*
X148582856Y-108163154D02*
X148392380Y-108163154D01*
X148392380Y-108163154D02*
X148297142Y-108210773D01*
X148297142Y-108210773D02*
X148249523Y-108306011D01*
X148249523Y-108306011D02*
X148249523Y-108401249D01*
X148249523Y-108401249D02*
X148725713Y-108496487D01*
X147820951Y-108829821D02*
X147820951Y-108163154D01*
X147820951Y-108353630D02*
X147773332Y-108258392D01*
X147773332Y-108258392D02*
X147725713Y-108210773D01*
X147725713Y-108210773D02*
X147630475Y-108163154D01*
X147630475Y-108163154D02*
X147535237Y-108163154D01*
X147439999Y-108925059D02*
X146678094Y-108925059D01*
X146487617Y-107925059D02*
X146439998Y-107877440D01*
X146439998Y-107877440D02*
X146344760Y-107829821D01*
X146344760Y-107829821D02*
X146106665Y-107829821D01*
X146106665Y-107829821D02*
X146011427Y-107877440D01*
X146011427Y-107877440D02*
X145963808Y-107925059D01*
X145963808Y-107925059D02*
X145916189Y-108020297D01*
X145916189Y-108020297D02*
X145916189Y-108115535D01*
X145916189Y-108115535D02*
X145963808Y-108258392D01*
X145963808Y-108258392D02*
X146535236Y-108829821D01*
X146535236Y-108829821D02*
X145916189Y-108829821D01*
X145725713Y-108925059D02*
X144963808Y-108925059D01*
X144392379Y-108306011D02*
X144249522Y-108353630D01*
X144249522Y-108353630D02*
X144201903Y-108401249D01*
X144201903Y-108401249D02*
X144154284Y-108496487D01*
X144154284Y-108496487D02*
X144154284Y-108639344D01*
X144154284Y-108639344D02*
X144201903Y-108734582D01*
X144201903Y-108734582D02*
X144249522Y-108782202D01*
X144249522Y-108782202D02*
X144344760Y-108829821D01*
X144344760Y-108829821D02*
X144725712Y-108829821D01*
X144725712Y-108829821D02*
X144725712Y-107829821D01*
X144725712Y-107829821D02*
X144392379Y-107829821D01*
X144392379Y-107829821D02*
X144297141Y-107877440D01*
X144297141Y-107877440D02*
X144249522Y-107925059D01*
X144249522Y-107925059D02*
X144201903Y-108020297D01*
X144201903Y-108020297D02*
X144201903Y-108115535D01*
X144201903Y-108115535D02*
X144249522Y-108210773D01*
X144249522Y-108210773D02*
X144297141Y-108258392D01*
X144297141Y-108258392D02*
X144392379Y-108306011D01*
X144392379Y-108306011D02*
X144725712Y-108306011D01*
X143725712Y-108829821D02*
X143725712Y-108163154D01*
X143725712Y-108353630D02*
X143678093Y-108258392D01*
X143678093Y-108258392D02*
X143630474Y-108210773D01*
X143630474Y-108210773D02*
X143535236Y-108163154D01*
X143535236Y-108163154D02*
X143439998Y-108163154D01*
X143106664Y-108829821D02*
X143106664Y-108163154D01*
X143106664Y-107829821D02*
X143154283Y-107877440D01*
X143154283Y-107877440D02*
X143106664Y-107925059D01*
X143106664Y-107925059D02*
X143059045Y-107877440D01*
X143059045Y-107877440D02*
X143106664Y-107829821D01*
X143106664Y-107829821D02*
X143106664Y-107925059D01*
X142201903Y-108829821D02*
X142201903Y-107829821D01*
X142201903Y-108782202D02*
X142297141Y-108829821D01*
X142297141Y-108829821D02*
X142487617Y-108829821D01*
X142487617Y-108829821D02*
X142582855Y-108782202D01*
X142582855Y-108782202D02*
X142630474Y-108734582D01*
X142630474Y-108734582D02*
X142678093Y-108639344D01*
X142678093Y-108639344D02*
X142678093Y-108353630D01*
X142678093Y-108353630D02*
X142630474Y-108258392D01*
X142630474Y-108258392D02*
X142582855Y-108210773D01*
X142582855Y-108210773D02*
X142487617Y-108163154D01*
X142487617Y-108163154D02*
X142297141Y-108163154D01*
X142297141Y-108163154D02*
X142201903Y-108210773D01*
X141297141Y-108163154D02*
X141297141Y-108972678D01*
X141297141Y-108972678D02*
X141344760Y-109067916D01*
X141344760Y-109067916D02*
X141392379Y-109115535D01*
X141392379Y-109115535D02*
X141487617Y-109163154D01*
X141487617Y-109163154D02*
X141630474Y-109163154D01*
X141630474Y-109163154D02*
X141725712Y-109115535D01*
X141297141Y-108782202D02*
X141392379Y-108829821D01*
X141392379Y-108829821D02*
X141582855Y-108829821D01*
X141582855Y-108829821D02*
X141678093Y-108782202D01*
X141678093Y-108782202D02*
X141725712Y-108734582D01*
X141725712Y-108734582D02*
X141773331Y-108639344D01*
X141773331Y-108639344D02*
X141773331Y-108353630D01*
X141773331Y-108353630D02*
X141725712Y-108258392D01*
X141725712Y-108258392D02*
X141678093Y-108210773D01*
X141678093Y-108210773D02*
X141582855Y-108163154D01*
X141582855Y-108163154D02*
X141392379Y-108163154D01*
X141392379Y-108163154D02*
X141297141Y-108210773D01*
X140439998Y-108782202D02*
X140535236Y-108829821D01*
X140535236Y-108829821D02*
X140725712Y-108829821D01*
X140725712Y-108829821D02*
X140820950Y-108782202D01*
X140820950Y-108782202D02*
X140868569Y-108686963D01*
X140868569Y-108686963D02*
X140868569Y-108306011D01*
X140868569Y-108306011D02*
X140820950Y-108210773D01*
X140820950Y-108210773D02*
X140725712Y-108163154D01*
X140725712Y-108163154D02*
X140535236Y-108163154D01*
X140535236Y-108163154D02*
X140439998Y-108210773D01*
X140439998Y-108210773D02*
X140392379Y-108306011D01*
X140392379Y-108306011D02*
X140392379Y-108401249D01*
X140392379Y-108401249D02*
X140868569Y-108496487D01*
X139535236Y-108829821D02*
X139535236Y-107829821D01*
X139535236Y-108782202D02*
X139630474Y-108829821D01*
X139630474Y-108829821D02*
X139820950Y-108829821D01*
X139820950Y-108829821D02*
X139916188Y-108782202D01*
X139916188Y-108782202D02*
X139963807Y-108734582D01*
X139963807Y-108734582D02*
X140011426Y-108639344D01*
X140011426Y-108639344D02*
X140011426Y-108353630D01*
X140011426Y-108353630D02*
X139963807Y-108258392D01*
X139963807Y-108258392D02*
X139916188Y-108210773D01*
X139916188Y-108210773D02*
X139820950Y-108163154D01*
X139820950Y-108163154D02*
X139630474Y-108163154D01*
X139630474Y-108163154D02*
X139535236Y-108210773D01*
X141402381Y-93507200D02*
X141259524Y-93554819D01*
X141259524Y-93554819D02*
X141021429Y-93554819D01*
X141021429Y-93554819D02*
X140926191Y-93507200D01*
X140926191Y-93507200D02*
X140878572Y-93459580D01*
X140878572Y-93459580D02*
X140830953Y-93364342D01*
X140830953Y-93364342D02*
X140830953Y-93269104D01*
X140830953Y-93269104D02*
X140878572Y-93173866D01*
X140878572Y-93173866D02*
X140926191Y-93126247D01*
X140926191Y-93126247D02*
X141021429Y-93078628D01*
X141021429Y-93078628D02*
X141211905Y-93031009D01*
X141211905Y-93031009D02*
X141307143Y-92983390D01*
X141307143Y-92983390D02*
X141354762Y-92935771D01*
X141354762Y-92935771D02*
X141402381Y-92840533D01*
X141402381Y-92840533D02*
X141402381Y-92745295D01*
X141402381Y-92745295D02*
X141354762Y-92650057D01*
X141354762Y-92650057D02*
X141307143Y-92602438D01*
X141307143Y-92602438D02*
X141211905Y-92554819D01*
X141211905Y-92554819D02*
X140973810Y-92554819D01*
X140973810Y-92554819D02*
X140830953Y-92602438D01*
X140259524Y-93554819D02*
X140354762Y-93507200D01*
X140354762Y-93507200D02*
X140402381Y-93459580D01*
X140402381Y-93459580D02*
X140450000Y-93364342D01*
X140450000Y-93364342D02*
X140450000Y-93078628D01*
X140450000Y-93078628D02*
X140402381Y-92983390D01*
X140402381Y-92983390D02*
X140354762Y-92935771D01*
X140354762Y-92935771D02*
X140259524Y-92888152D01*
X140259524Y-92888152D02*
X140116667Y-92888152D01*
X140116667Y-92888152D02*
X140021429Y-92935771D01*
X140021429Y-92935771D02*
X139973810Y-92983390D01*
X139973810Y-92983390D02*
X139926191Y-93078628D01*
X139926191Y-93078628D02*
X139926191Y-93364342D01*
X139926191Y-93364342D02*
X139973810Y-93459580D01*
X139973810Y-93459580D02*
X140021429Y-93507200D01*
X140021429Y-93507200D02*
X140116667Y-93554819D01*
X140116667Y-93554819D02*
X140259524Y-93554819D01*
X139354762Y-93554819D02*
X139450000Y-93507200D01*
X139450000Y-93507200D02*
X139497619Y-93411961D01*
X139497619Y-93411961D02*
X139497619Y-92554819D01*
X138545238Y-93554819D02*
X138545238Y-92554819D01*
X138545238Y-93507200D02*
X138640476Y-93554819D01*
X138640476Y-93554819D02*
X138830952Y-93554819D01*
X138830952Y-93554819D02*
X138926190Y-93507200D01*
X138926190Y-93507200D02*
X138973809Y-93459580D01*
X138973809Y-93459580D02*
X139021428Y-93364342D01*
X139021428Y-93364342D02*
X139021428Y-93078628D01*
X139021428Y-93078628D02*
X138973809Y-92983390D01*
X138973809Y-92983390D02*
X138926190Y-92935771D01*
X138926190Y-92935771D02*
X138830952Y-92888152D01*
X138830952Y-92888152D02*
X138640476Y-92888152D01*
X138640476Y-92888152D02*
X138545238Y-92935771D01*
X137688095Y-93507200D02*
X137783333Y-93554819D01*
X137783333Y-93554819D02*
X137973809Y-93554819D01*
X137973809Y-93554819D02*
X138069047Y-93507200D01*
X138069047Y-93507200D02*
X138116666Y-93411961D01*
X138116666Y-93411961D02*
X138116666Y-93031009D01*
X138116666Y-93031009D02*
X138069047Y-92935771D01*
X138069047Y-92935771D02*
X137973809Y-92888152D01*
X137973809Y-92888152D02*
X137783333Y-92888152D01*
X137783333Y-92888152D02*
X137688095Y-92935771D01*
X137688095Y-92935771D02*
X137640476Y-93031009D01*
X137640476Y-93031009D02*
X137640476Y-93126247D01*
X137640476Y-93126247D02*
X138116666Y-93221485D01*
X137211904Y-93554819D02*
X137211904Y-92888152D01*
X137211904Y-93078628D02*
X137164285Y-92983390D01*
X137164285Y-92983390D02*
X137116666Y-92935771D01*
X137116666Y-92935771D02*
X137021428Y-92888152D01*
X137021428Y-92888152D02*
X136926190Y-92888152D01*
X136307142Y-92554819D02*
X136307142Y-93269104D01*
X136307142Y-93269104D02*
X136354761Y-93411961D01*
X136354761Y-93411961D02*
X136449999Y-93507200D01*
X136449999Y-93507200D02*
X136592856Y-93554819D01*
X136592856Y-93554819D02*
X136688094Y-93554819D01*
X135402380Y-92888152D02*
X135402380Y-93554819D01*
X135830951Y-92888152D02*
X135830951Y-93411961D01*
X135830951Y-93411961D02*
X135783332Y-93507200D01*
X135783332Y-93507200D02*
X135688094Y-93554819D01*
X135688094Y-93554819D02*
X135545237Y-93554819D01*
X135545237Y-93554819D02*
X135449999Y-93507200D01*
X135449999Y-93507200D02*
X135402380Y-93459580D01*
X134926189Y-93554819D02*
X134926189Y-92888152D01*
X134926189Y-92983390D02*
X134878570Y-92935771D01*
X134878570Y-92935771D02*
X134783332Y-92888152D01*
X134783332Y-92888152D02*
X134640475Y-92888152D01*
X134640475Y-92888152D02*
X134545237Y-92935771D01*
X134545237Y-92935771D02*
X134497618Y-93031009D01*
X134497618Y-93031009D02*
X134497618Y-93554819D01*
X134497618Y-93031009D02*
X134449999Y-92935771D01*
X134449999Y-92935771D02*
X134354761Y-92888152D01*
X134354761Y-92888152D02*
X134211904Y-92888152D01*
X134211904Y-92888152D02*
X134116665Y-92935771D01*
X134116665Y-92935771D02*
X134069046Y-93031009D01*
X134069046Y-93031009D02*
X134069046Y-93554819D01*
X133592856Y-92888152D02*
X133592856Y-93888152D01*
X133592856Y-92935771D02*
X133497618Y-92888152D01*
X133497618Y-92888152D02*
X133307142Y-92888152D01*
X133307142Y-92888152D02*
X133211904Y-92935771D01*
X133211904Y-92935771D02*
X133164285Y-92983390D01*
X133164285Y-92983390D02*
X133116666Y-93078628D01*
X133116666Y-93078628D02*
X133116666Y-93364342D01*
X133116666Y-93364342D02*
X133164285Y-93459580D01*
X133164285Y-93459580D02*
X133211904Y-93507200D01*
X133211904Y-93507200D02*
X133307142Y-93554819D01*
X133307142Y-93554819D02*
X133497618Y-93554819D01*
X133497618Y-93554819D02*
X133592856Y-93507200D01*
X132307142Y-93507200D02*
X132402380Y-93554819D01*
X132402380Y-93554819D02*
X132592856Y-93554819D01*
X132592856Y-93554819D02*
X132688094Y-93507200D01*
X132688094Y-93507200D02*
X132735713Y-93411961D01*
X132735713Y-93411961D02*
X132735713Y-93031009D01*
X132735713Y-93031009D02*
X132688094Y-92935771D01*
X132688094Y-92935771D02*
X132592856Y-92888152D01*
X132592856Y-92888152D02*
X132402380Y-92888152D01*
X132402380Y-92888152D02*
X132307142Y-92935771D01*
X132307142Y-92935771D02*
X132259523Y-93031009D01*
X132259523Y-93031009D02*
X132259523Y-93126247D01*
X132259523Y-93126247D02*
X132735713Y-93221485D01*
X131830951Y-93554819D02*
X131830951Y-92888152D01*
X131830951Y-93078628D02*
X131783332Y-92983390D01*
X131783332Y-92983390D02*
X131735713Y-92935771D01*
X131735713Y-92935771D02*
X131640475Y-92888152D01*
X131640475Y-92888152D02*
X131545237Y-92888152D01*
X131449999Y-93650057D02*
X130688094Y-93650057D01*
X130497617Y-92650057D02*
X130449998Y-92602438D01*
X130449998Y-92602438D02*
X130354760Y-92554819D01*
X130354760Y-92554819D02*
X130116665Y-92554819D01*
X130116665Y-92554819D02*
X130021427Y-92602438D01*
X130021427Y-92602438D02*
X129973808Y-92650057D01*
X129973808Y-92650057D02*
X129926189Y-92745295D01*
X129926189Y-92745295D02*
X129926189Y-92840533D01*
X129926189Y-92840533D02*
X129973808Y-92983390D01*
X129973808Y-92983390D02*
X130545236Y-93554819D01*
X130545236Y-93554819D02*
X129926189Y-93554819D01*
X129735713Y-93650057D02*
X128973808Y-93650057D01*
X128402379Y-93031009D02*
X128259522Y-93078628D01*
X128259522Y-93078628D02*
X128211903Y-93126247D01*
X128211903Y-93126247D02*
X128164284Y-93221485D01*
X128164284Y-93221485D02*
X128164284Y-93364342D01*
X128164284Y-93364342D02*
X128211903Y-93459580D01*
X128211903Y-93459580D02*
X128259522Y-93507200D01*
X128259522Y-93507200D02*
X128354760Y-93554819D01*
X128354760Y-93554819D02*
X128735712Y-93554819D01*
X128735712Y-93554819D02*
X128735712Y-92554819D01*
X128735712Y-92554819D02*
X128402379Y-92554819D01*
X128402379Y-92554819D02*
X128307141Y-92602438D01*
X128307141Y-92602438D02*
X128259522Y-92650057D01*
X128259522Y-92650057D02*
X128211903Y-92745295D01*
X128211903Y-92745295D02*
X128211903Y-92840533D01*
X128211903Y-92840533D02*
X128259522Y-92935771D01*
X128259522Y-92935771D02*
X128307141Y-92983390D01*
X128307141Y-92983390D02*
X128402379Y-93031009D01*
X128402379Y-93031009D02*
X128735712Y-93031009D01*
X127735712Y-93554819D02*
X127735712Y-92888152D01*
X127735712Y-93078628D02*
X127688093Y-92983390D01*
X127688093Y-92983390D02*
X127640474Y-92935771D01*
X127640474Y-92935771D02*
X127545236Y-92888152D01*
X127545236Y-92888152D02*
X127449998Y-92888152D01*
X127116664Y-93554819D02*
X127116664Y-92888152D01*
X127116664Y-92554819D02*
X127164283Y-92602438D01*
X127164283Y-92602438D02*
X127116664Y-92650057D01*
X127116664Y-92650057D02*
X127069045Y-92602438D01*
X127069045Y-92602438D02*
X127116664Y-92554819D01*
X127116664Y-92554819D02*
X127116664Y-92650057D01*
X126211903Y-93554819D02*
X126211903Y-92554819D01*
X126211903Y-93507200D02*
X126307141Y-93554819D01*
X126307141Y-93554819D02*
X126497617Y-93554819D01*
X126497617Y-93554819D02*
X126592855Y-93507200D01*
X126592855Y-93507200D02*
X126640474Y-93459580D01*
X126640474Y-93459580D02*
X126688093Y-93364342D01*
X126688093Y-93364342D02*
X126688093Y-93078628D01*
X126688093Y-93078628D02*
X126640474Y-92983390D01*
X126640474Y-92983390D02*
X126592855Y-92935771D01*
X126592855Y-92935771D02*
X126497617Y-92888152D01*
X126497617Y-92888152D02*
X126307141Y-92888152D01*
X126307141Y-92888152D02*
X126211903Y-92935771D01*
X125307141Y-92888152D02*
X125307141Y-93697676D01*
X125307141Y-93697676D02*
X125354760Y-93792914D01*
X125354760Y-93792914D02*
X125402379Y-93840533D01*
X125402379Y-93840533D02*
X125497617Y-93888152D01*
X125497617Y-93888152D02*
X125640474Y-93888152D01*
X125640474Y-93888152D02*
X125735712Y-93840533D01*
X125307141Y-93507200D02*
X125402379Y-93554819D01*
X125402379Y-93554819D02*
X125592855Y-93554819D01*
X125592855Y-93554819D02*
X125688093Y-93507200D01*
X125688093Y-93507200D02*
X125735712Y-93459580D01*
X125735712Y-93459580D02*
X125783331Y-93364342D01*
X125783331Y-93364342D02*
X125783331Y-93078628D01*
X125783331Y-93078628D02*
X125735712Y-92983390D01*
X125735712Y-92983390D02*
X125688093Y-92935771D01*
X125688093Y-92935771D02*
X125592855Y-92888152D01*
X125592855Y-92888152D02*
X125402379Y-92888152D01*
X125402379Y-92888152D02*
X125307141Y-92935771D01*
X124449998Y-93507200D02*
X124545236Y-93554819D01*
X124545236Y-93554819D02*
X124735712Y-93554819D01*
X124735712Y-93554819D02*
X124830950Y-93507200D01*
X124830950Y-93507200D02*
X124878569Y-93411961D01*
X124878569Y-93411961D02*
X124878569Y-93031009D01*
X124878569Y-93031009D02*
X124830950Y-92935771D01*
X124830950Y-92935771D02*
X124735712Y-92888152D01*
X124735712Y-92888152D02*
X124545236Y-92888152D01*
X124545236Y-92888152D02*
X124449998Y-92935771D01*
X124449998Y-92935771D02*
X124402379Y-93031009D01*
X124402379Y-93031009D02*
X124402379Y-93126247D01*
X124402379Y-93126247D02*
X124878569Y-93221485D01*
X123545236Y-93554819D02*
X123545236Y-92554819D01*
X123545236Y-93507200D02*
X123640474Y-93554819D01*
X123640474Y-93554819D02*
X123830950Y-93554819D01*
X123830950Y-93554819D02*
X123926188Y-93507200D01*
X123926188Y-93507200D02*
X123973807Y-93459580D01*
X123973807Y-93459580D02*
X124021426Y-93364342D01*
X124021426Y-93364342D02*
X124021426Y-93078628D01*
X124021426Y-93078628D02*
X123973807Y-92983390D01*
X123973807Y-92983390D02*
X123926188Y-92935771D01*
X123926188Y-92935771D02*
X123830950Y-92888152D01*
X123830950Y-92888152D02*
X123640474Y-92888152D01*
X123640474Y-92888152D02*
X123545236Y-92935771D01*
X175632381Y-125367200D02*
X175489524Y-125414819D01*
X175489524Y-125414819D02*
X175251429Y-125414819D01*
X175251429Y-125414819D02*
X175156191Y-125367200D01*
X175156191Y-125367200D02*
X175108572Y-125319580D01*
X175108572Y-125319580D02*
X175060953Y-125224342D01*
X175060953Y-125224342D02*
X175060953Y-125129104D01*
X175060953Y-125129104D02*
X175108572Y-125033866D01*
X175108572Y-125033866D02*
X175156191Y-124986247D01*
X175156191Y-124986247D02*
X175251429Y-124938628D01*
X175251429Y-124938628D02*
X175441905Y-124891009D01*
X175441905Y-124891009D02*
X175537143Y-124843390D01*
X175537143Y-124843390D02*
X175584762Y-124795771D01*
X175584762Y-124795771D02*
X175632381Y-124700533D01*
X175632381Y-124700533D02*
X175632381Y-124605295D01*
X175632381Y-124605295D02*
X175584762Y-124510057D01*
X175584762Y-124510057D02*
X175537143Y-124462438D01*
X175537143Y-124462438D02*
X175441905Y-124414819D01*
X175441905Y-124414819D02*
X175203810Y-124414819D01*
X175203810Y-124414819D02*
X175060953Y-124462438D01*
X174489524Y-125414819D02*
X174584762Y-125367200D01*
X174584762Y-125367200D02*
X174632381Y-125319580D01*
X174632381Y-125319580D02*
X174680000Y-125224342D01*
X174680000Y-125224342D02*
X174680000Y-124938628D01*
X174680000Y-124938628D02*
X174632381Y-124843390D01*
X174632381Y-124843390D02*
X174584762Y-124795771D01*
X174584762Y-124795771D02*
X174489524Y-124748152D01*
X174489524Y-124748152D02*
X174346667Y-124748152D01*
X174346667Y-124748152D02*
X174251429Y-124795771D01*
X174251429Y-124795771D02*
X174203810Y-124843390D01*
X174203810Y-124843390D02*
X174156191Y-124938628D01*
X174156191Y-124938628D02*
X174156191Y-125224342D01*
X174156191Y-125224342D02*
X174203810Y-125319580D01*
X174203810Y-125319580D02*
X174251429Y-125367200D01*
X174251429Y-125367200D02*
X174346667Y-125414819D01*
X174346667Y-125414819D02*
X174489524Y-125414819D01*
X173584762Y-125414819D02*
X173680000Y-125367200D01*
X173680000Y-125367200D02*
X173727619Y-125271961D01*
X173727619Y-125271961D02*
X173727619Y-124414819D01*
X172775238Y-125414819D02*
X172775238Y-124414819D01*
X172775238Y-125367200D02*
X172870476Y-125414819D01*
X172870476Y-125414819D02*
X173060952Y-125414819D01*
X173060952Y-125414819D02*
X173156190Y-125367200D01*
X173156190Y-125367200D02*
X173203809Y-125319580D01*
X173203809Y-125319580D02*
X173251428Y-125224342D01*
X173251428Y-125224342D02*
X173251428Y-124938628D01*
X173251428Y-124938628D02*
X173203809Y-124843390D01*
X173203809Y-124843390D02*
X173156190Y-124795771D01*
X173156190Y-124795771D02*
X173060952Y-124748152D01*
X173060952Y-124748152D02*
X172870476Y-124748152D01*
X172870476Y-124748152D02*
X172775238Y-124795771D01*
X171918095Y-125367200D02*
X172013333Y-125414819D01*
X172013333Y-125414819D02*
X172203809Y-125414819D01*
X172203809Y-125414819D02*
X172299047Y-125367200D01*
X172299047Y-125367200D02*
X172346666Y-125271961D01*
X172346666Y-125271961D02*
X172346666Y-124891009D01*
X172346666Y-124891009D02*
X172299047Y-124795771D01*
X172299047Y-124795771D02*
X172203809Y-124748152D01*
X172203809Y-124748152D02*
X172013333Y-124748152D01*
X172013333Y-124748152D02*
X171918095Y-124795771D01*
X171918095Y-124795771D02*
X171870476Y-124891009D01*
X171870476Y-124891009D02*
X171870476Y-124986247D01*
X171870476Y-124986247D02*
X172346666Y-125081485D01*
X171441904Y-125414819D02*
X171441904Y-124748152D01*
X171441904Y-124938628D02*
X171394285Y-124843390D01*
X171394285Y-124843390D02*
X171346666Y-124795771D01*
X171346666Y-124795771D02*
X171251428Y-124748152D01*
X171251428Y-124748152D02*
X171156190Y-124748152D01*
X170537142Y-124414819D02*
X170537142Y-125129104D01*
X170537142Y-125129104D02*
X170584761Y-125271961D01*
X170584761Y-125271961D02*
X170679999Y-125367200D01*
X170679999Y-125367200D02*
X170822856Y-125414819D01*
X170822856Y-125414819D02*
X170918094Y-125414819D01*
X169632380Y-124748152D02*
X169632380Y-125414819D01*
X170060951Y-124748152D02*
X170060951Y-125271961D01*
X170060951Y-125271961D02*
X170013332Y-125367200D01*
X170013332Y-125367200D02*
X169918094Y-125414819D01*
X169918094Y-125414819D02*
X169775237Y-125414819D01*
X169775237Y-125414819D02*
X169679999Y-125367200D01*
X169679999Y-125367200D02*
X169632380Y-125319580D01*
X169156189Y-125414819D02*
X169156189Y-124748152D01*
X169156189Y-124843390D02*
X169108570Y-124795771D01*
X169108570Y-124795771D02*
X169013332Y-124748152D01*
X169013332Y-124748152D02*
X168870475Y-124748152D01*
X168870475Y-124748152D02*
X168775237Y-124795771D01*
X168775237Y-124795771D02*
X168727618Y-124891009D01*
X168727618Y-124891009D02*
X168727618Y-125414819D01*
X168727618Y-124891009D02*
X168679999Y-124795771D01*
X168679999Y-124795771D02*
X168584761Y-124748152D01*
X168584761Y-124748152D02*
X168441904Y-124748152D01*
X168441904Y-124748152D02*
X168346665Y-124795771D01*
X168346665Y-124795771D02*
X168299046Y-124891009D01*
X168299046Y-124891009D02*
X168299046Y-125414819D01*
X167822856Y-124748152D02*
X167822856Y-125748152D01*
X167822856Y-124795771D02*
X167727618Y-124748152D01*
X167727618Y-124748152D02*
X167537142Y-124748152D01*
X167537142Y-124748152D02*
X167441904Y-124795771D01*
X167441904Y-124795771D02*
X167394285Y-124843390D01*
X167394285Y-124843390D02*
X167346666Y-124938628D01*
X167346666Y-124938628D02*
X167346666Y-125224342D01*
X167346666Y-125224342D02*
X167394285Y-125319580D01*
X167394285Y-125319580D02*
X167441904Y-125367200D01*
X167441904Y-125367200D02*
X167537142Y-125414819D01*
X167537142Y-125414819D02*
X167727618Y-125414819D01*
X167727618Y-125414819D02*
X167822856Y-125367200D01*
X166537142Y-125367200D02*
X166632380Y-125414819D01*
X166632380Y-125414819D02*
X166822856Y-125414819D01*
X166822856Y-125414819D02*
X166918094Y-125367200D01*
X166918094Y-125367200D02*
X166965713Y-125271961D01*
X166965713Y-125271961D02*
X166965713Y-124891009D01*
X166965713Y-124891009D02*
X166918094Y-124795771D01*
X166918094Y-124795771D02*
X166822856Y-124748152D01*
X166822856Y-124748152D02*
X166632380Y-124748152D01*
X166632380Y-124748152D02*
X166537142Y-124795771D01*
X166537142Y-124795771D02*
X166489523Y-124891009D01*
X166489523Y-124891009D02*
X166489523Y-124986247D01*
X166489523Y-124986247D02*
X166965713Y-125081485D01*
X166060951Y-125414819D02*
X166060951Y-124748152D01*
X166060951Y-124938628D02*
X166013332Y-124843390D01*
X166013332Y-124843390D02*
X165965713Y-124795771D01*
X165965713Y-124795771D02*
X165870475Y-124748152D01*
X165870475Y-124748152D02*
X165775237Y-124748152D01*
X165679999Y-125510057D02*
X164918094Y-125510057D01*
X164727617Y-124510057D02*
X164679998Y-124462438D01*
X164679998Y-124462438D02*
X164584760Y-124414819D01*
X164584760Y-124414819D02*
X164346665Y-124414819D01*
X164346665Y-124414819D02*
X164251427Y-124462438D01*
X164251427Y-124462438D02*
X164203808Y-124510057D01*
X164203808Y-124510057D02*
X164156189Y-124605295D01*
X164156189Y-124605295D02*
X164156189Y-124700533D01*
X164156189Y-124700533D02*
X164203808Y-124843390D01*
X164203808Y-124843390D02*
X164775236Y-125414819D01*
X164775236Y-125414819D02*
X164156189Y-125414819D01*
X163965713Y-125510057D02*
X163203808Y-125510057D01*
X162632379Y-124891009D02*
X162489522Y-124938628D01*
X162489522Y-124938628D02*
X162441903Y-124986247D01*
X162441903Y-124986247D02*
X162394284Y-125081485D01*
X162394284Y-125081485D02*
X162394284Y-125224342D01*
X162394284Y-125224342D02*
X162441903Y-125319580D01*
X162441903Y-125319580D02*
X162489522Y-125367200D01*
X162489522Y-125367200D02*
X162584760Y-125414819D01*
X162584760Y-125414819D02*
X162965712Y-125414819D01*
X162965712Y-125414819D02*
X162965712Y-124414819D01*
X162965712Y-124414819D02*
X162632379Y-124414819D01*
X162632379Y-124414819D02*
X162537141Y-124462438D01*
X162537141Y-124462438D02*
X162489522Y-124510057D01*
X162489522Y-124510057D02*
X162441903Y-124605295D01*
X162441903Y-124605295D02*
X162441903Y-124700533D01*
X162441903Y-124700533D02*
X162489522Y-124795771D01*
X162489522Y-124795771D02*
X162537141Y-124843390D01*
X162537141Y-124843390D02*
X162632379Y-124891009D01*
X162632379Y-124891009D02*
X162965712Y-124891009D01*
X161965712Y-125414819D02*
X161965712Y-124748152D01*
X161965712Y-124938628D02*
X161918093Y-124843390D01*
X161918093Y-124843390D02*
X161870474Y-124795771D01*
X161870474Y-124795771D02*
X161775236Y-124748152D01*
X161775236Y-124748152D02*
X161679998Y-124748152D01*
X161346664Y-125414819D02*
X161346664Y-124748152D01*
X161346664Y-124414819D02*
X161394283Y-124462438D01*
X161394283Y-124462438D02*
X161346664Y-124510057D01*
X161346664Y-124510057D02*
X161299045Y-124462438D01*
X161299045Y-124462438D02*
X161346664Y-124414819D01*
X161346664Y-124414819D02*
X161346664Y-124510057D01*
X160441903Y-125414819D02*
X160441903Y-124414819D01*
X160441903Y-125367200D02*
X160537141Y-125414819D01*
X160537141Y-125414819D02*
X160727617Y-125414819D01*
X160727617Y-125414819D02*
X160822855Y-125367200D01*
X160822855Y-125367200D02*
X160870474Y-125319580D01*
X160870474Y-125319580D02*
X160918093Y-125224342D01*
X160918093Y-125224342D02*
X160918093Y-124938628D01*
X160918093Y-124938628D02*
X160870474Y-124843390D01*
X160870474Y-124843390D02*
X160822855Y-124795771D01*
X160822855Y-124795771D02*
X160727617Y-124748152D01*
X160727617Y-124748152D02*
X160537141Y-124748152D01*
X160537141Y-124748152D02*
X160441903Y-124795771D01*
X159537141Y-124748152D02*
X159537141Y-125557676D01*
X159537141Y-125557676D02*
X159584760Y-125652914D01*
X159584760Y-125652914D02*
X159632379Y-125700533D01*
X159632379Y-125700533D02*
X159727617Y-125748152D01*
X159727617Y-125748152D02*
X159870474Y-125748152D01*
X159870474Y-125748152D02*
X159965712Y-125700533D01*
X159537141Y-125367200D02*
X159632379Y-125414819D01*
X159632379Y-125414819D02*
X159822855Y-125414819D01*
X159822855Y-125414819D02*
X159918093Y-125367200D01*
X159918093Y-125367200D02*
X159965712Y-125319580D01*
X159965712Y-125319580D02*
X160013331Y-125224342D01*
X160013331Y-125224342D02*
X160013331Y-124938628D01*
X160013331Y-124938628D02*
X159965712Y-124843390D01*
X159965712Y-124843390D02*
X159918093Y-124795771D01*
X159918093Y-124795771D02*
X159822855Y-124748152D01*
X159822855Y-124748152D02*
X159632379Y-124748152D01*
X159632379Y-124748152D02*
X159537141Y-124795771D01*
X158679998Y-125367200D02*
X158775236Y-125414819D01*
X158775236Y-125414819D02*
X158965712Y-125414819D01*
X158965712Y-125414819D02*
X159060950Y-125367200D01*
X159060950Y-125367200D02*
X159108569Y-125271961D01*
X159108569Y-125271961D02*
X159108569Y-124891009D01*
X159108569Y-124891009D02*
X159060950Y-124795771D01*
X159060950Y-124795771D02*
X158965712Y-124748152D01*
X158965712Y-124748152D02*
X158775236Y-124748152D01*
X158775236Y-124748152D02*
X158679998Y-124795771D01*
X158679998Y-124795771D02*
X158632379Y-124891009D01*
X158632379Y-124891009D02*
X158632379Y-124986247D01*
X158632379Y-124986247D02*
X159108569Y-125081485D01*
X157775236Y-125414819D02*
X157775236Y-124414819D01*
X157775236Y-125367200D02*
X157870474Y-125414819D01*
X157870474Y-125414819D02*
X158060950Y-125414819D01*
X158060950Y-125414819D02*
X158156188Y-125367200D01*
X158156188Y-125367200D02*
X158203807Y-125319580D01*
X158203807Y-125319580D02*
X158251426Y-125224342D01*
X158251426Y-125224342D02*
X158251426Y-124938628D01*
X158251426Y-124938628D02*
X158203807Y-124843390D01*
X158203807Y-124843390D02*
X158156188Y-124795771D01*
X158156188Y-124795771D02*
X158060950Y-124748152D01*
X158060950Y-124748152D02*
X157870474Y-124748152D01*
X157870474Y-124748152D02*
X157775236Y-124795771D01*
X183002381Y-103982202D02*
X182859524Y-104029821D01*
X182859524Y-104029821D02*
X182621429Y-104029821D01*
X182621429Y-104029821D02*
X182526191Y-103982202D01*
X182526191Y-103982202D02*
X182478572Y-103934582D01*
X182478572Y-103934582D02*
X182430953Y-103839344D01*
X182430953Y-103839344D02*
X182430953Y-103744106D01*
X182430953Y-103744106D02*
X182478572Y-103648868D01*
X182478572Y-103648868D02*
X182526191Y-103601249D01*
X182526191Y-103601249D02*
X182621429Y-103553630D01*
X182621429Y-103553630D02*
X182811905Y-103506011D01*
X182811905Y-103506011D02*
X182907143Y-103458392D01*
X182907143Y-103458392D02*
X182954762Y-103410773D01*
X182954762Y-103410773D02*
X183002381Y-103315535D01*
X183002381Y-103315535D02*
X183002381Y-103220297D01*
X183002381Y-103220297D02*
X182954762Y-103125059D01*
X182954762Y-103125059D02*
X182907143Y-103077440D01*
X182907143Y-103077440D02*
X182811905Y-103029821D01*
X182811905Y-103029821D02*
X182573810Y-103029821D01*
X182573810Y-103029821D02*
X182430953Y-103077440D01*
X181859524Y-104029821D02*
X181954762Y-103982202D01*
X181954762Y-103982202D02*
X182002381Y-103934582D01*
X182002381Y-103934582D02*
X182050000Y-103839344D01*
X182050000Y-103839344D02*
X182050000Y-103553630D01*
X182050000Y-103553630D02*
X182002381Y-103458392D01*
X182002381Y-103458392D02*
X181954762Y-103410773D01*
X181954762Y-103410773D02*
X181859524Y-103363154D01*
X181859524Y-103363154D02*
X181716667Y-103363154D01*
X181716667Y-103363154D02*
X181621429Y-103410773D01*
X181621429Y-103410773D02*
X181573810Y-103458392D01*
X181573810Y-103458392D02*
X181526191Y-103553630D01*
X181526191Y-103553630D02*
X181526191Y-103839344D01*
X181526191Y-103839344D02*
X181573810Y-103934582D01*
X181573810Y-103934582D02*
X181621429Y-103982202D01*
X181621429Y-103982202D02*
X181716667Y-104029821D01*
X181716667Y-104029821D02*
X181859524Y-104029821D01*
X180954762Y-104029821D02*
X181050000Y-103982202D01*
X181050000Y-103982202D02*
X181097619Y-103886963D01*
X181097619Y-103886963D02*
X181097619Y-103029821D01*
X180145238Y-104029821D02*
X180145238Y-103029821D01*
X180145238Y-103982202D02*
X180240476Y-104029821D01*
X180240476Y-104029821D02*
X180430952Y-104029821D01*
X180430952Y-104029821D02*
X180526190Y-103982202D01*
X180526190Y-103982202D02*
X180573809Y-103934582D01*
X180573809Y-103934582D02*
X180621428Y-103839344D01*
X180621428Y-103839344D02*
X180621428Y-103553630D01*
X180621428Y-103553630D02*
X180573809Y-103458392D01*
X180573809Y-103458392D02*
X180526190Y-103410773D01*
X180526190Y-103410773D02*
X180430952Y-103363154D01*
X180430952Y-103363154D02*
X180240476Y-103363154D01*
X180240476Y-103363154D02*
X180145238Y-103410773D01*
X179288095Y-103982202D02*
X179383333Y-104029821D01*
X179383333Y-104029821D02*
X179573809Y-104029821D01*
X179573809Y-104029821D02*
X179669047Y-103982202D01*
X179669047Y-103982202D02*
X179716666Y-103886963D01*
X179716666Y-103886963D02*
X179716666Y-103506011D01*
X179716666Y-103506011D02*
X179669047Y-103410773D01*
X179669047Y-103410773D02*
X179573809Y-103363154D01*
X179573809Y-103363154D02*
X179383333Y-103363154D01*
X179383333Y-103363154D02*
X179288095Y-103410773D01*
X179288095Y-103410773D02*
X179240476Y-103506011D01*
X179240476Y-103506011D02*
X179240476Y-103601249D01*
X179240476Y-103601249D02*
X179716666Y-103696487D01*
X178811904Y-104029821D02*
X178811904Y-103363154D01*
X178811904Y-103553630D02*
X178764285Y-103458392D01*
X178764285Y-103458392D02*
X178716666Y-103410773D01*
X178716666Y-103410773D02*
X178621428Y-103363154D01*
X178621428Y-103363154D02*
X178526190Y-103363154D01*
X177907142Y-103029821D02*
X177907142Y-103744106D01*
X177907142Y-103744106D02*
X177954761Y-103886963D01*
X177954761Y-103886963D02*
X178049999Y-103982202D01*
X178049999Y-103982202D02*
X178192856Y-104029821D01*
X178192856Y-104029821D02*
X178288094Y-104029821D01*
X177002380Y-103363154D02*
X177002380Y-104029821D01*
X177430951Y-103363154D02*
X177430951Y-103886963D01*
X177430951Y-103886963D02*
X177383332Y-103982202D01*
X177383332Y-103982202D02*
X177288094Y-104029821D01*
X177288094Y-104029821D02*
X177145237Y-104029821D01*
X177145237Y-104029821D02*
X177049999Y-103982202D01*
X177049999Y-103982202D02*
X177002380Y-103934582D01*
X176526189Y-104029821D02*
X176526189Y-103363154D01*
X176526189Y-103458392D02*
X176478570Y-103410773D01*
X176478570Y-103410773D02*
X176383332Y-103363154D01*
X176383332Y-103363154D02*
X176240475Y-103363154D01*
X176240475Y-103363154D02*
X176145237Y-103410773D01*
X176145237Y-103410773D02*
X176097618Y-103506011D01*
X176097618Y-103506011D02*
X176097618Y-104029821D01*
X176097618Y-103506011D02*
X176049999Y-103410773D01*
X176049999Y-103410773D02*
X175954761Y-103363154D01*
X175954761Y-103363154D02*
X175811904Y-103363154D01*
X175811904Y-103363154D02*
X175716665Y-103410773D01*
X175716665Y-103410773D02*
X175669046Y-103506011D01*
X175669046Y-103506011D02*
X175669046Y-104029821D01*
X175192856Y-103363154D02*
X175192856Y-104363154D01*
X175192856Y-103410773D02*
X175097618Y-103363154D01*
X175097618Y-103363154D02*
X174907142Y-103363154D01*
X174907142Y-103363154D02*
X174811904Y-103410773D01*
X174811904Y-103410773D02*
X174764285Y-103458392D01*
X174764285Y-103458392D02*
X174716666Y-103553630D01*
X174716666Y-103553630D02*
X174716666Y-103839344D01*
X174716666Y-103839344D02*
X174764285Y-103934582D01*
X174764285Y-103934582D02*
X174811904Y-103982202D01*
X174811904Y-103982202D02*
X174907142Y-104029821D01*
X174907142Y-104029821D02*
X175097618Y-104029821D01*
X175097618Y-104029821D02*
X175192856Y-103982202D01*
X173907142Y-103982202D02*
X174002380Y-104029821D01*
X174002380Y-104029821D02*
X174192856Y-104029821D01*
X174192856Y-104029821D02*
X174288094Y-103982202D01*
X174288094Y-103982202D02*
X174335713Y-103886963D01*
X174335713Y-103886963D02*
X174335713Y-103506011D01*
X174335713Y-103506011D02*
X174288094Y-103410773D01*
X174288094Y-103410773D02*
X174192856Y-103363154D01*
X174192856Y-103363154D02*
X174002380Y-103363154D01*
X174002380Y-103363154D02*
X173907142Y-103410773D01*
X173907142Y-103410773D02*
X173859523Y-103506011D01*
X173859523Y-103506011D02*
X173859523Y-103601249D01*
X173859523Y-103601249D02*
X174335713Y-103696487D01*
X173430951Y-104029821D02*
X173430951Y-103363154D01*
X173430951Y-103553630D02*
X173383332Y-103458392D01*
X173383332Y-103458392D02*
X173335713Y-103410773D01*
X173335713Y-103410773D02*
X173240475Y-103363154D01*
X173240475Y-103363154D02*
X173145237Y-103363154D01*
X173049999Y-104125059D02*
X172288094Y-104125059D01*
X172097617Y-103125059D02*
X172049998Y-103077440D01*
X172049998Y-103077440D02*
X171954760Y-103029821D01*
X171954760Y-103029821D02*
X171716665Y-103029821D01*
X171716665Y-103029821D02*
X171621427Y-103077440D01*
X171621427Y-103077440D02*
X171573808Y-103125059D01*
X171573808Y-103125059D02*
X171526189Y-103220297D01*
X171526189Y-103220297D02*
X171526189Y-103315535D01*
X171526189Y-103315535D02*
X171573808Y-103458392D01*
X171573808Y-103458392D02*
X172145236Y-104029821D01*
X172145236Y-104029821D02*
X171526189Y-104029821D01*
X171335713Y-104125059D02*
X170573808Y-104125059D01*
X170002379Y-103506011D02*
X169859522Y-103553630D01*
X169859522Y-103553630D02*
X169811903Y-103601249D01*
X169811903Y-103601249D02*
X169764284Y-103696487D01*
X169764284Y-103696487D02*
X169764284Y-103839344D01*
X169764284Y-103839344D02*
X169811903Y-103934582D01*
X169811903Y-103934582D02*
X169859522Y-103982202D01*
X169859522Y-103982202D02*
X169954760Y-104029821D01*
X169954760Y-104029821D02*
X170335712Y-104029821D01*
X170335712Y-104029821D02*
X170335712Y-103029821D01*
X170335712Y-103029821D02*
X170002379Y-103029821D01*
X170002379Y-103029821D02*
X169907141Y-103077440D01*
X169907141Y-103077440D02*
X169859522Y-103125059D01*
X169859522Y-103125059D02*
X169811903Y-103220297D01*
X169811903Y-103220297D02*
X169811903Y-103315535D01*
X169811903Y-103315535D02*
X169859522Y-103410773D01*
X169859522Y-103410773D02*
X169907141Y-103458392D01*
X169907141Y-103458392D02*
X170002379Y-103506011D01*
X170002379Y-103506011D02*
X170335712Y-103506011D01*
X169335712Y-104029821D02*
X169335712Y-103363154D01*
X169335712Y-103553630D02*
X169288093Y-103458392D01*
X169288093Y-103458392D02*
X169240474Y-103410773D01*
X169240474Y-103410773D02*
X169145236Y-103363154D01*
X169145236Y-103363154D02*
X169049998Y-103363154D01*
X168716664Y-104029821D02*
X168716664Y-103363154D01*
X168716664Y-103029821D02*
X168764283Y-103077440D01*
X168764283Y-103077440D02*
X168716664Y-103125059D01*
X168716664Y-103125059D02*
X168669045Y-103077440D01*
X168669045Y-103077440D02*
X168716664Y-103029821D01*
X168716664Y-103029821D02*
X168716664Y-103125059D01*
X167811903Y-104029821D02*
X167811903Y-103029821D01*
X167811903Y-103982202D02*
X167907141Y-104029821D01*
X167907141Y-104029821D02*
X168097617Y-104029821D01*
X168097617Y-104029821D02*
X168192855Y-103982202D01*
X168192855Y-103982202D02*
X168240474Y-103934582D01*
X168240474Y-103934582D02*
X168288093Y-103839344D01*
X168288093Y-103839344D02*
X168288093Y-103553630D01*
X168288093Y-103553630D02*
X168240474Y-103458392D01*
X168240474Y-103458392D02*
X168192855Y-103410773D01*
X168192855Y-103410773D02*
X168097617Y-103363154D01*
X168097617Y-103363154D02*
X167907141Y-103363154D01*
X167907141Y-103363154D02*
X167811903Y-103410773D01*
X166907141Y-103363154D02*
X166907141Y-104172678D01*
X166907141Y-104172678D02*
X166954760Y-104267916D01*
X166954760Y-104267916D02*
X167002379Y-104315535D01*
X167002379Y-104315535D02*
X167097617Y-104363154D01*
X167097617Y-104363154D02*
X167240474Y-104363154D01*
X167240474Y-104363154D02*
X167335712Y-104315535D01*
X166907141Y-103982202D02*
X167002379Y-104029821D01*
X167002379Y-104029821D02*
X167192855Y-104029821D01*
X167192855Y-104029821D02*
X167288093Y-103982202D01*
X167288093Y-103982202D02*
X167335712Y-103934582D01*
X167335712Y-103934582D02*
X167383331Y-103839344D01*
X167383331Y-103839344D02*
X167383331Y-103553630D01*
X167383331Y-103553630D02*
X167335712Y-103458392D01*
X167335712Y-103458392D02*
X167288093Y-103410773D01*
X167288093Y-103410773D02*
X167192855Y-103363154D01*
X167192855Y-103363154D02*
X167002379Y-103363154D01*
X167002379Y-103363154D02*
X166907141Y-103410773D01*
X166049998Y-103982202D02*
X166145236Y-104029821D01*
X166145236Y-104029821D02*
X166335712Y-104029821D01*
X166335712Y-104029821D02*
X166430950Y-103982202D01*
X166430950Y-103982202D02*
X166478569Y-103886963D01*
X166478569Y-103886963D02*
X166478569Y-103506011D01*
X166478569Y-103506011D02*
X166430950Y-103410773D01*
X166430950Y-103410773D02*
X166335712Y-103363154D01*
X166335712Y-103363154D02*
X166145236Y-103363154D01*
X166145236Y-103363154D02*
X166049998Y-103410773D01*
X166049998Y-103410773D02*
X166002379Y-103506011D01*
X166002379Y-103506011D02*
X166002379Y-103601249D01*
X166002379Y-103601249D02*
X166478569Y-103696487D01*
X165145236Y-104029821D02*
X165145236Y-103029821D01*
X165145236Y-103982202D02*
X165240474Y-104029821D01*
X165240474Y-104029821D02*
X165430950Y-104029821D01*
X165430950Y-104029821D02*
X165526188Y-103982202D01*
X165526188Y-103982202D02*
X165573807Y-103934582D01*
X165573807Y-103934582D02*
X165621426Y-103839344D01*
X165621426Y-103839344D02*
X165621426Y-103553630D01*
X165621426Y-103553630D02*
X165573807Y-103458392D01*
X165573807Y-103458392D02*
X165526188Y-103410773D01*
X165526188Y-103410773D02*
X165430950Y-103363154D01*
X165430950Y-103363154D02*
X165240474Y-103363154D01*
X165240474Y-103363154D02*
X165145236Y-103410773D01*
D10*
X125502142Y-92048627D02*
X125628808Y-92048627D01*
X125628808Y-92247675D02*
X125628808Y-91867675D01*
X125628808Y-91867675D02*
X125447856Y-91867675D01*
X125303094Y-92247675D02*
X125303094Y-91867675D01*
X125122142Y-92247675D02*
X125122142Y-91867675D01*
X125122142Y-91867675D02*
X125031666Y-91867675D01*
X125031666Y-91867675D02*
X124977380Y-91885770D01*
X124977380Y-91885770D02*
X124941190Y-91921960D01*
X124941190Y-91921960D02*
X124923095Y-91958151D01*
X124923095Y-91958151D02*
X124904999Y-92030532D01*
X124904999Y-92030532D02*
X124904999Y-92084818D01*
X124904999Y-92084818D02*
X124923095Y-92157199D01*
X124923095Y-92157199D02*
X124941190Y-92193389D01*
X124941190Y-92193389D02*
X124977380Y-92229580D01*
X124977380Y-92229580D02*
X125031666Y-92247675D01*
X125031666Y-92247675D02*
X125122142Y-92247675D01*
X124579285Y-91994341D02*
X124579285Y-92247675D01*
X124669761Y-91849580D02*
X124760238Y-92121008D01*
X124760238Y-92121008D02*
X124524999Y-92121008D01*
D11*
X180457200Y-126122620D02*
X180504819Y-126265477D01*
X180504819Y-126265477D02*
X180504819Y-126503572D01*
X180504819Y-126503572D02*
X180457200Y-126598810D01*
X180457200Y-126598810D02*
X180409580Y-126646429D01*
X180409580Y-126646429D02*
X180314342Y-126694048D01*
X180314342Y-126694048D02*
X180219104Y-126694048D01*
X180219104Y-126694048D02*
X180123866Y-126646429D01*
X180123866Y-126646429D02*
X180076247Y-126598810D01*
X180076247Y-126598810D02*
X180028628Y-126503572D01*
X180028628Y-126503572D02*
X179981009Y-126313096D01*
X179981009Y-126313096D02*
X179933390Y-126217858D01*
X179933390Y-126217858D02*
X179885771Y-126170239D01*
X179885771Y-126170239D02*
X179790533Y-126122620D01*
X179790533Y-126122620D02*
X179695295Y-126122620D01*
X179695295Y-126122620D02*
X179600057Y-126170239D01*
X179600057Y-126170239D02*
X179552438Y-126217858D01*
X179552438Y-126217858D02*
X179504819Y-126313096D01*
X179504819Y-126313096D02*
X179504819Y-126551191D01*
X179504819Y-126551191D02*
X179552438Y-126694048D01*
X180504819Y-127265477D02*
X180457200Y-127170239D01*
X180457200Y-127170239D02*
X180409580Y-127122620D01*
X180409580Y-127122620D02*
X180314342Y-127075001D01*
X180314342Y-127075001D02*
X180028628Y-127075001D01*
X180028628Y-127075001D02*
X179933390Y-127122620D01*
X179933390Y-127122620D02*
X179885771Y-127170239D01*
X179885771Y-127170239D02*
X179838152Y-127265477D01*
X179838152Y-127265477D02*
X179838152Y-127408334D01*
X179838152Y-127408334D02*
X179885771Y-127503572D01*
X179885771Y-127503572D02*
X179933390Y-127551191D01*
X179933390Y-127551191D02*
X180028628Y-127598810D01*
X180028628Y-127598810D02*
X180314342Y-127598810D01*
X180314342Y-127598810D02*
X180409580Y-127551191D01*
X180409580Y-127551191D02*
X180457200Y-127503572D01*
X180457200Y-127503572D02*
X180504819Y-127408334D01*
X180504819Y-127408334D02*
X180504819Y-127265477D01*
X180504819Y-128170239D02*
X180457200Y-128075001D01*
X180457200Y-128075001D02*
X180361961Y-128027382D01*
X180361961Y-128027382D02*
X179504819Y-128027382D01*
X180504819Y-128979763D02*
X179504819Y-128979763D01*
X180457200Y-128979763D02*
X180504819Y-128884525D01*
X180504819Y-128884525D02*
X180504819Y-128694049D01*
X180504819Y-128694049D02*
X180457200Y-128598811D01*
X180457200Y-128598811D02*
X180409580Y-128551192D01*
X180409580Y-128551192D02*
X180314342Y-128503573D01*
X180314342Y-128503573D02*
X180028628Y-128503573D01*
X180028628Y-128503573D02*
X179933390Y-128551192D01*
X179933390Y-128551192D02*
X179885771Y-128598811D01*
X179885771Y-128598811D02*
X179838152Y-128694049D01*
X179838152Y-128694049D02*
X179838152Y-128884525D01*
X179838152Y-128884525D02*
X179885771Y-128979763D01*
X180457200Y-129836906D02*
X180504819Y-129741668D01*
X180504819Y-129741668D02*
X180504819Y-129551192D01*
X180504819Y-129551192D02*
X180457200Y-129455954D01*
X180457200Y-129455954D02*
X180361961Y-129408335D01*
X180361961Y-129408335D02*
X179981009Y-129408335D01*
X179981009Y-129408335D02*
X179885771Y-129455954D01*
X179885771Y-129455954D02*
X179838152Y-129551192D01*
X179838152Y-129551192D02*
X179838152Y-129741668D01*
X179838152Y-129741668D02*
X179885771Y-129836906D01*
X179885771Y-129836906D02*
X179981009Y-129884525D01*
X179981009Y-129884525D02*
X180076247Y-129884525D01*
X180076247Y-129884525D02*
X180171485Y-129408335D01*
X180504819Y-130313097D02*
X179838152Y-130313097D01*
X180028628Y-130313097D02*
X179933390Y-130360716D01*
X179933390Y-130360716D02*
X179885771Y-130408335D01*
X179885771Y-130408335D02*
X179838152Y-130503573D01*
X179838152Y-130503573D02*
X179838152Y-130598811D01*
X179504819Y-131217859D02*
X180219104Y-131217859D01*
X180219104Y-131217859D02*
X180361961Y-131170240D01*
X180361961Y-131170240D02*
X180457200Y-131075002D01*
X180457200Y-131075002D02*
X180504819Y-130932145D01*
X180504819Y-130932145D02*
X180504819Y-130836907D01*
X179838152Y-132122621D02*
X180504819Y-132122621D01*
X179838152Y-131694050D02*
X180361961Y-131694050D01*
X180361961Y-131694050D02*
X180457200Y-131741669D01*
X180457200Y-131741669D02*
X180504819Y-131836907D01*
X180504819Y-131836907D02*
X180504819Y-131979764D01*
X180504819Y-131979764D02*
X180457200Y-132075002D01*
X180457200Y-132075002D02*
X180409580Y-132122621D01*
X180504819Y-132598812D02*
X179838152Y-132598812D01*
X179933390Y-132598812D02*
X179885771Y-132646431D01*
X179885771Y-132646431D02*
X179838152Y-132741669D01*
X179838152Y-132741669D02*
X179838152Y-132884526D01*
X179838152Y-132884526D02*
X179885771Y-132979764D01*
X179885771Y-132979764D02*
X179981009Y-133027383D01*
X179981009Y-133027383D02*
X180504819Y-133027383D01*
X179981009Y-133027383D02*
X179885771Y-133075002D01*
X179885771Y-133075002D02*
X179838152Y-133170240D01*
X179838152Y-133170240D02*
X179838152Y-133313097D01*
X179838152Y-133313097D02*
X179885771Y-133408336D01*
X179885771Y-133408336D02*
X179981009Y-133455955D01*
X179981009Y-133455955D02*
X180504819Y-133455955D01*
X179838152Y-133932145D02*
X180838152Y-133932145D01*
X179885771Y-133932145D02*
X179838152Y-134027383D01*
X179838152Y-134027383D02*
X179838152Y-134217859D01*
X179838152Y-134217859D02*
X179885771Y-134313097D01*
X179885771Y-134313097D02*
X179933390Y-134360716D01*
X179933390Y-134360716D02*
X180028628Y-134408335D01*
X180028628Y-134408335D02*
X180314342Y-134408335D01*
X180314342Y-134408335D02*
X180409580Y-134360716D01*
X180409580Y-134360716D02*
X180457200Y-134313097D01*
X180457200Y-134313097D02*
X180504819Y-134217859D01*
X180504819Y-134217859D02*
X180504819Y-134027383D01*
X180504819Y-134027383D02*
X180457200Y-133932145D01*
X180457200Y-135217859D02*
X180504819Y-135122621D01*
X180504819Y-135122621D02*
X180504819Y-134932145D01*
X180504819Y-134932145D02*
X180457200Y-134836907D01*
X180457200Y-134836907D02*
X180361961Y-134789288D01*
X180361961Y-134789288D02*
X179981009Y-134789288D01*
X179981009Y-134789288D02*
X179885771Y-134836907D01*
X179885771Y-134836907D02*
X179838152Y-134932145D01*
X179838152Y-134932145D02*
X179838152Y-135122621D01*
X179838152Y-135122621D02*
X179885771Y-135217859D01*
X179885771Y-135217859D02*
X179981009Y-135265478D01*
X179981009Y-135265478D02*
X180076247Y-135265478D01*
X180076247Y-135265478D02*
X180171485Y-134789288D01*
X180504819Y-135694050D02*
X179838152Y-135694050D01*
X180028628Y-135694050D02*
X179933390Y-135741669D01*
X179933390Y-135741669D02*
X179885771Y-135789288D01*
X179885771Y-135789288D02*
X179838152Y-135884526D01*
X179838152Y-135884526D02*
X179838152Y-135979764D01*
X180600057Y-136075003D02*
X180600057Y-136836907D01*
X179600057Y-137027384D02*
X179552438Y-137075003D01*
X179552438Y-137075003D02*
X179504819Y-137170241D01*
X179504819Y-137170241D02*
X179504819Y-137408336D01*
X179504819Y-137408336D02*
X179552438Y-137503574D01*
X179552438Y-137503574D02*
X179600057Y-137551193D01*
X179600057Y-137551193D02*
X179695295Y-137598812D01*
X179695295Y-137598812D02*
X179790533Y-137598812D01*
X179790533Y-137598812D02*
X179933390Y-137551193D01*
X179933390Y-137551193D02*
X180504819Y-136979765D01*
X180504819Y-136979765D02*
X180504819Y-137598812D01*
X180600057Y-137789289D02*
X180600057Y-138551193D01*
X179981009Y-139122622D02*
X180028628Y-139265479D01*
X180028628Y-139265479D02*
X180076247Y-139313098D01*
X180076247Y-139313098D02*
X180171485Y-139360717D01*
X180171485Y-139360717D02*
X180314342Y-139360717D01*
X180314342Y-139360717D02*
X180409580Y-139313098D01*
X180409580Y-139313098D02*
X180457200Y-139265479D01*
X180457200Y-139265479D02*
X180504819Y-139170241D01*
X180504819Y-139170241D02*
X180504819Y-138789289D01*
X180504819Y-138789289D02*
X179504819Y-138789289D01*
X179504819Y-138789289D02*
X179504819Y-139122622D01*
X179504819Y-139122622D02*
X179552438Y-139217860D01*
X179552438Y-139217860D02*
X179600057Y-139265479D01*
X179600057Y-139265479D02*
X179695295Y-139313098D01*
X179695295Y-139313098D02*
X179790533Y-139313098D01*
X179790533Y-139313098D02*
X179885771Y-139265479D01*
X179885771Y-139265479D02*
X179933390Y-139217860D01*
X179933390Y-139217860D02*
X179981009Y-139122622D01*
X179981009Y-139122622D02*
X179981009Y-138789289D01*
X180504819Y-139789289D02*
X179838152Y-139789289D01*
X180028628Y-139789289D02*
X179933390Y-139836908D01*
X179933390Y-139836908D02*
X179885771Y-139884527D01*
X179885771Y-139884527D02*
X179838152Y-139979765D01*
X179838152Y-139979765D02*
X179838152Y-140075003D01*
X180504819Y-140408337D02*
X179838152Y-140408337D01*
X179504819Y-140408337D02*
X179552438Y-140360718D01*
X179552438Y-140360718D02*
X179600057Y-140408337D01*
X179600057Y-140408337D02*
X179552438Y-140455956D01*
X179552438Y-140455956D02*
X179504819Y-140408337D01*
X179504819Y-140408337D02*
X179600057Y-140408337D01*
X180504819Y-141313098D02*
X179504819Y-141313098D01*
X180457200Y-141313098D02*
X180504819Y-141217860D01*
X180504819Y-141217860D02*
X180504819Y-141027384D01*
X180504819Y-141027384D02*
X180457200Y-140932146D01*
X180457200Y-140932146D02*
X180409580Y-140884527D01*
X180409580Y-140884527D02*
X180314342Y-140836908D01*
X180314342Y-140836908D02*
X180028628Y-140836908D01*
X180028628Y-140836908D02*
X179933390Y-140884527D01*
X179933390Y-140884527D02*
X179885771Y-140932146D01*
X179885771Y-140932146D02*
X179838152Y-141027384D01*
X179838152Y-141027384D02*
X179838152Y-141217860D01*
X179838152Y-141217860D02*
X179885771Y-141313098D01*
X179838152Y-142217860D02*
X180647676Y-142217860D01*
X180647676Y-142217860D02*
X180742914Y-142170241D01*
X180742914Y-142170241D02*
X180790533Y-142122622D01*
X180790533Y-142122622D02*
X180838152Y-142027384D01*
X180838152Y-142027384D02*
X180838152Y-141884527D01*
X180838152Y-141884527D02*
X180790533Y-141789289D01*
X180457200Y-142217860D02*
X180504819Y-142122622D01*
X180504819Y-142122622D02*
X180504819Y-141932146D01*
X180504819Y-141932146D02*
X180457200Y-141836908D01*
X180457200Y-141836908D02*
X180409580Y-141789289D01*
X180409580Y-141789289D02*
X180314342Y-141741670D01*
X180314342Y-141741670D02*
X180028628Y-141741670D01*
X180028628Y-141741670D02*
X179933390Y-141789289D01*
X179933390Y-141789289D02*
X179885771Y-141836908D01*
X179885771Y-141836908D02*
X179838152Y-141932146D01*
X179838152Y-141932146D02*
X179838152Y-142122622D01*
X179838152Y-142122622D02*
X179885771Y-142217860D01*
X180457200Y-143075003D02*
X180504819Y-142979765D01*
X180504819Y-142979765D02*
X180504819Y-142789289D01*
X180504819Y-142789289D02*
X180457200Y-142694051D01*
X180457200Y-142694051D02*
X180361961Y-142646432D01*
X180361961Y-142646432D02*
X179981009Y-142646432D01*
X179981009Y-142646432D02*
X179885771Y-142694051D01*
X179885771Y-142694051D02*
X179838152Y-142789289D01*
X179838152Y-142789289D02*
X179838152Y-142979765D01*
X179838152Y-142979765D02*
X179885771Y-143075003D01*
X179885771Y-143075003D02*
X179981009Y-143122622D01*
X179981009Y-143122622D02*
X180076247Y-143122622D01*
X180076247Y-143122622D02*
X180171485Y-142646432D01*
X180504819Y-143979765D02*
X179504819Y-143979765D01*
X180457200Y-143979765D02*
X180504819Y-143884527D01*
X180504819Y-143884527D02*
X180504819Y-143694051D01*
X180504819Y-143694051D02*
X180457200Y-143598813D01*
X180457200Y-143598813D02*
X180409580Y-143551194D01*
X180409580Y-143551194D02*
X180314342Y-143503575D01*
X180314342Y-143503575D02*
X180028628Y-143503575D01*
X180028628Y-143503575D02*
X179933390Y-143551194D01*
X179933390Y-143551194D02*
X179885771Y-143598813D01*
X179885771Y-143598813D02*
X179838152Y-143694051D01*
X179838152Y-143694051D02*
X179838152Y-143884527D01*
X179838152Y-143884527D02*
X179885771Y-143979765D01*
X157402381Y-114082202D02*
X157259524Y-114129821D01*
X157259524Y-114129821D02*
X157021429Y-114129821D01*
X157021429Y-114129821D02*
X156926191Y-114082202D01*
X156926191Y-114082202D02*
X156878572Y-114034582D01*
X156878572Y-114034582D02*
X156830953Y-113939344D01*
X156830953Y-113939344D02*
X156830953Y-113844106D01*
X156830953Y-113844106D02*
X156878572Y-113748868D01*
X156878572Y-113748868D02*
X156926191Y-113701249D01*
X156926191Y-113701249D02*
X157021429Y-113653630D01*
X157021429Y-113653630D02*
X157211905Y-113606011D01*
X157211905Y-113606011D02*
X157307143Y-113558392D01*
X157307143Y-113558392D02*
X157354762Y-113510773D01*
X157354762Y-113510773D02*
X157402381Y-113415535D01*
X157402381Y-113415535D02*
X157402381Y-113320297D01*
X157402381Y-113320297D02*
X157354762Y-113225059D01*
X157354762Y-113225059D02*
X157307143Y-113177440D01*
X157307143Y-113177440D02*
X157211905Y-113129821D01*
X157211905Y-113129821D02*
X156973810Y-113129821D01*
X156973810Y-113129821D02*
X156830953Y-113177440D01*
X156259524Y-114129821D02*
X156354762Y-114082202D01*
X156354762Y-114082202D02*
X156402381Y-114034582D01*
X156402381Y-114034582D02*
X156450000Y-113939344D01*
X156450000Y-113939344D02*
X156450000Y-113653630D01*
X156450000Y-113653630D02*
X156402381Y-113558392D01*
X156402381Y-113558392D02*
X156354762Y-113510773D01*
X156354762Y-113510773D02*
X156259524Y-113463154D01*
X156259524Y-113463154D02*
X156116667Y-113463154D01*
X156116667Y-113463154D02*
X156021429Y-113510773D01*
X156021429Y-113510773D02*
X155973810Y-113558392D01*
X155973810Y-113558392D02*
X155926191Y-113653630D01*
X155926191Y-113653630D02*
X155926191Y-113939344D01*
X155926191Y-113939344D02*
X155973810Y-114034582D01*
X155973810Y-114034582D02*
X156021429Y-114082202D01*
X156021429Y-114082202D02*
X156116667Y-114129821D01*
X156116667Y-114129821D02*
X156259524Y-114129821D01*
X155354762Y-114129821D02*
X155450000Y-114082202D01*
X155450000Y-114082202D02*
X155497619Y-113986963D01*
X155497619Y-113986963D02*
X155497619Y-113129821D01*
X154545238Y-114129821D02*
X154545238Y-113129821D01*
X154545238Y-114082202D02*
X154640476Y-114129821D01*
X154640476Y-114129821D02*
X154830952Y-114129821D01*
X154830952Y-114129821D02*
X154926190Y-114082202D01*
X154926190Y-114082202D02*
X154973809Y-114034582D01*
X154973809Y-114034582D02*
X155021428Y-113939344D01*
X155021428Y-113939344D02*
X155021428Y-113653630D01*
X155021428Y-113653630D02*
X154973809Y-113558392D01*
X154973809Y-113558392D02*
X154926190Y-113510773D01*
X154926190Y-113510773D02*
X154830952Y-113463154D01*
X154830952Y-113463154D02*
X154640476Y-113463154D01*
X154640476Y-113463154D02*
X154545238Y-113510773D01*
X153688095Y-114082202D02*
X153783333Y-114129821D01*
X153783333Y-114129821D02*
X153973809Y-114129821D01*
X153973809Y-114129821D02*
X154069047Y-114082202D01*
X154069047Y-114082202D02*
X154116666Y-113986963D01*
X154116666Y-113986963D02*
X154116666Y-113606011D01*
X154116666Y-113606011D02*
X154069047Y-113510773D01*
X154069047Y-113510773D02*
X153973809Y-113463154D01*
X153973809Y-113463154D02*
X153783333Y-113463154D01*
X153783333Y-113463154D02*
X153688095Y-113510773D01*
X153688095Y-113510773D02*
X153640476Y-113606011D01*
X153640476Y-113606011D02*
X153640476Y-113701249D01*
X153640476Y-113701249D02*
X154116666Y-113796487D01*
X153211904Y-114129821D02*
X153211904Y-113463154D01*
X153211904Y-113653630D02*
X153164285Y-113558392D01*
X153164285Y-113558392D02*
X153116666Y-113510773D01*
X153116666Y-113510773D02*
X153021428Y-113463154D01*
X153021428Y-113463154D02*
X152926190Y-113463154D01*
X152307142Y-113129821D02*
X152307142Y-113844106D01*
X152307142Y-113844106D02*
X152354761Y-113986963D01*
X152354761Y-113986963D02*
X152449999Y-114082202D01*
X152449999Y-114082202D02*
X152592856Y-114129821D01*
X152592856Y-114129821D02*
X152688094Y-114129821D01*
X151402380Y-113463154D02*
X151402380Y-114129821D01*
X151830951Y-113463154D02*
X151830951Y-113986963D01*
X151830951Y-113986963D02*
X151783332Y-114082202D01*
X151783332Y-114082202D02*
X151688094Y-114129821D01*
X151688094Y-114129821D02*
X151545237Y-114129821D01*
X151545237Y-114129821D02*
X151449999Y-114082202D01*
X151449999Y-114082202D02*
X151402380Y-114034582D01*
X150926189Y-114129821D02*
X150926189Y-113463154D01*
X150926189Y-113558392D02*
X150878570Y-113510773D01*
X150878570Y-113510773D02*
X150783332Y-113463154D01*
X150783332Y-113463154D02*
X150640475Y-113463154D01*
X150640475Y-113463154D02*
X150545237Y-113510773D01*
X150545237Y-113510773D02*
X150497618Y-113606011D01*
X150497618Y-113606011D02*
X150497618Y-114129821D01*
X150497618Y-113606011D02*
X150449999Y-113510773D01*
X150449999Y-113510773D02*
X150354761Y-113463154D01*
X150354761Y-113463154D02*
X150211904Y-113463154D01*
X150211904Y-113463154D02*
X150116665Y-113510773D01*
X150116665Y-113510773D02*
X150069046Y-113606011D01*
X150069046Y-113606011D02*
X150069046Y-114129821D01*
X149592856Y-113463154D02*
X149592856Y-114463154D01*
X149592856Y-113510773D02*
X149497618Y-113463154D01*
X149497618Y-113463154D02*
X149307142Y-113463154D01*
X149307142Y-113463154D02*
X149211904Y-113510773D01*
X149211904Y-113510773D02*
X149164285Y-113558392D01*
X149164285Y-113558392D02*
X149116666Y-113653630D01*
X149116666Y-113653630D02*
X149116666Y-113939344D01*
X149116666Y-113939344D02*
X149164285Y-114034582D01*
X149164285Y-114034582D02*
X149211904Y-114082202D01*
X149211904Y-114082202D02*
X149307142Y-114129821D01*
X149307142Y-114129821D02*
X149497618Y-114129821D01*
X149497618Y-114129821D02*
X149592856Y-114082202D01*
X148307142Y-114082202D02*
X148402380Y-114129821D01*
X148402380Y-114129821D02*
X148592856Y-114129821D01*
X148592856Y-114129821D02*
X148688094Y-114082202D01*
X148688094Y-114082202D02*
X148735713Y-113986963D01*
X148735713Y-113986963D02*
X148735713Y-113606011D01*
X148735713Y-113606011D02*
X148688094Y-113510773D01*
X148688094Y-113510773D02*
X148592856Y-113463154D01*
X148592856Y-113463154D02*
X148402380Y-113463154D01*
X148402380Y-113463154D02*
X148307142Y-113510773D01*
X148307142Y-113510773D02*
X148259523Y-113606011D01*
X148259523Y-113606011D02*
X148259523Y-113701249D01*
X148259523Y-113701249D02*
X148735713Y-113796487D01*
X147830951Y-114129821D02*
X147830951Y-113463154D01*
X147830951Y-113653630D02*
X147783332Y-113558392D01*
X147783332Y-113558392D02*
X147735713Y-113510773D01*
X147735713Y-113510773D02*
X147640475Y-113463154D01*
X147640475Y-113463154D02*
X147545237Y-113463154D01*
X147449999Y-114225059D02*
X146688094Y-114225059D01*
X146497617Y-113225059D02*
X146449998Y-113177440D01*
X146449998Y-113177440D02*
X146354760Y-113129821D01*
X146354760Y-113129821D02*
X146116665Y-113129821D01*
X146116665Y-113129821D02*
X146021427Y-113177440D01*
X146021427Y-113177440D02*
X145973808Y-113225059D01*
X145973808Y-113225059D02*
X145926189Y-113320297D01*
X145926189Y-113320297D02*
X145926189Y-113415535D01*
X145926189Y-113415535D02*
X145973808Y-113558392D01*
X145973808Y-113558392D02*
X146545236Y-114129821D01*
X146545236Y-114129821D02*
X145926189Y-114129821D01*
X145735713Y-114225059D02*
X144973808Y-114225059D01*
X144402379Y-113606011D02*
X144259522Y-113653630D01*
X144259522Y-113653630D02*
X144211903Y-113701249D01*
X144211903Y-113701249D02*
X144164284Y-113796487D01*
X144164284Y-113796487D02*
X144164284Y-113939344D01*
X144164284Y-113939344D02*
X144211903Y-114034582D01*
X144211903Y-114034582D02*
X144259522Y-114082202D01*
X144259522Y-114082202D02*
X144354760Y-114129821D01*
X144354760Y-114129821D02*
X144735712Y-114129821D01*
X144735712Y-114129821D02*
X144735712Y-113129821D01*
X144735712Y-113129821D02*
X144402379Y-113129821D01*
X144402379Y-113129821D02*
X144307141Y-113177440D01*
X144307141Y-113177440D02*
X144259522Y-113225059D01*
X144259522Y-113225059D02*
X144211903Y-113320297D01*
X144211903Y-113320297D02*
X144211903Y-113415535D01*
X144211903Y-113415535D02*
X144259522Y-113510773D01*
X144259522Y-113510773D02*
X144307141Y-113558392D01*
X144307141Y-113558392D02*
X144402379Y-113606011D01*
X144402379Y-113606011D02*
X144735712Y-113606011D01*
X143735712Y-114129821D02*
X143735712Y-113463154D01*
X143735712Y-113653630D02*
X143688093Y-113558392D01*
X143688093Y-113558392D02*
X143640474Y-113510773D01*
X143640474Y-113510773D02*
X143545236Y-113463154D01*
X143545236Y-113463154D02*
X143449998Y-113463154D01*
X143116664Y-114129821D02*
X143116664Y-113463154D01*
X143116664Y-113129821D02*
X143164283Y-113177440D01*
X143164283Y-113177440D02*
X143116664Y-113225059D01*
X143116664Y-113225059D02*
X143069045Y-113177440D01*
X143069045Y-113177440D02*
X143116664Y-113129821D01*
X143116664Y-113129821D02*
X143116664Y-113225059D01*
X142211903Y-114129821D02*
X142211903Y-113129821D01*
X142211903Y-114082202D02*
X142307141Y-114129821D01*
X142307141Y-114129821D02*
X142497617Y-114129821D01*
X142497617Y-114129821D02*
X142592855Y-114082202D01*
X142592855Y-114082202D02*
X142640474Y-114034582D01*
X142640474Y-114034582D02*
X142688093Y-113939344D01*
X142688093Y-113939344D02*
X142688093Y-113653630D01*
X142688093Y-113653630D02*
X142640474Y-113558392D01*
X142640474Y-113558392D02*
X142592855Y-113510773D01*
X142592855Y-113510773D02*
X142497617Y-113463154D01*
X142497617Y-113463154D02*
X142307141Y-113463154D01*
X142307141Y-113463154D02*
X142211903Y-113510773D01*
X141307141Y-113463154D02*
X141307141Y-114272678D01*
X141307141Y-114272678D02*
X141354760Y-114367916D01*
X141354760Y-114367916D02*
X141402379Y-114415535D01*
X141402379Y-114415535D02*
X141497617Y-114463154D01*
X141497617Y-114463154D02*
X141640474Y-114463154D01*
X141640474Y-114463154D02*
X141735712Y-114415535D01*
X141307141Y-114082202D02*
X141402379Y-114129821D01*
X141402379Y-114129821D02*
X141592855Y-114129821D01*
X141592855Y-114129821D02*
X141688093Y-114082202D01*
X141688093Y-114082202D02*
X141735712Y-114034582D01*
X141735712Y-114034582D02*
X141783331Y-113939344D01*
X141783331Y-113939344D02*
X141783331Y-113653630D01*
X141783331Y-113653630D02*
X141735712Y-113558392D01*
X141735712Y-113558392D02*
X141688093Y-113510773D01*
X141688093Y-113510773D02*
X141592855Y-113463154D01*
X141592855Y-113463154D02*
X141402379Y-113463154D01*
X141402379Y-113463154D02*
X141307141Y-113510773D01*
X140449998Y-114082202D02*
X140545236Y-114129821D01*
X140545236Y-114129821D02*
X140735712Y-114129821D01*
X140735712Y-114129821D02*
X140830950Y-114082202D01*
X140830950Y-114082202D02*
X140878569Y-113986963D01*
X140878569Y-113986963D02*
X140878569Y-113606011D01*
X140878569Y-113606011D02*
X140830950Y-113510773D01*
X140830950Y-113510773D02*
X140735712Y-113463154D01*
X140735712Y-113463154D02*
X140545236Y-113463154D01*
X140545236Y-113463154D02*
X140449998Y-113510773D01*
X140449998Y-113510773D02*
X140402379Y-113606011D01*
X140402379Y-113606011D02*
X140402379Y-113701249D01*
X140402379Y-113701249D02*
X140878569Y-113796487D01*
X139545236Y-114129821D02*
X139545236Y-113129821D01*
X139545236Y-114082202D02*
X139640474Y-114129821D01*
X139640474Y-114129821D02*
X139830950Y-114129821D01*
X139830950Y-114129821D02*
X139926188Y-114082202D01*
X139926188Y-114082202D02*
X139973807Y-114034582D01*
X139973807Y-114034582D02*
X140021426Y-113939344D01*
X140021426Y-113939344D02*
X140021426Y-113653630D01*
X140021426Y-113653630D02*
X139973807Y-113558392D01*
X139973807Y-113558392D02*
X139926188Y-113510773D01*
X139926188Y-113510773D02*
X139830950Y-113463154D01*
X139830950Y-113463154D02*
X139640474Y-113463154D01*
X139640474Y-113463154D02*
X139545236Y-113510773D01*
D10*
X165507142Y-93953627D02*
X165633808Y-93953627D01*
X165633808Y-94152675D02*
X165633808Y-93772675D01*
X165633808Y-93772675D02*
X165452856Y-93772675D01*
X165308094Y-94152675D02*
X165308094Y-93772675D01*
X165127142Y-94152675D02*
X165127142Y-93772675D01*
X165127142Y-93772675D02*
X165036666Y-93772675D01*
X165036666Y-93772675D02*
X164982380Y-93790770D01*
X164982380Y-93790770D02*
X164946190Y-93826960D01*
X164946190Y-93826960D02*
X164928095Y-93863151D01*
X164928095Y-93863151D02*
X164909999Y-93935532D01*
X164909999Y-93935532D02*
X164909999Y-93989818D01*
X164909999Y-93989818D02*
X164928095Y-94062199D01*
X164928095Y-94062199D02*
X164946190Y-94098389D01*
X164946190Y-94098389D02*
X164982380Y-94134580D01*
X164982380Y-94134580D02*
X165036666Y-94152675D01*
X165036666Y-94152675D02*
X165127142Y-94152675D01*
X164566190Y-93772675D02*
X164747142Y-93772675D01*
X164747142Y-93772675D02*
X164765238Y-93953627D01*
X164765238Y-93953627D02*
X164747142Y-93935532D01*
X164747142Y-93935532D02*
X164710952Y-93917437D01*
X164710952Y-93917437D02*
X164620476Y-93917437D01*
X164620476Y-93917437D02*
X164584285Y-93935532D01*
X164584285Y-93935532D02*
X164566190Y-93953627D01*
X164566190Y-93953627D02*
X164548095Y-93989818D01*
X164548095Y-93989818D02*
X164548095Y-94080294D01*
X164548095Y-94080294D02*
X164566190Y-94116484D01*
X164566190Y-94116484D02*
X164584285Y-94134580D01*
X164584285Y-94134580D02*
X164620476Y-94152675D01*
X164620476Y-94152675D02*
X164710952Y-94152675D01*
X164710952Y-94152675D02*
X164747142Y-94134580D01*
X164747142Y-94134580D02*
X164765238Y-94116484D01*
D11*
X157392381Y-103772202D02*
X157249524Y-103819821D01*
X157249524Y-103819821D02*
X157011429Y-103819821D01*
X157011429Y-103819821D02*
X156916191Y-103772202D01*
X156916191Y-103772202D02*
X156868572Y-103724582D01*
X156868572Y-103724582D02*
X156820953Y-103629344D01*
X156820953Y-103629344D02*
X156820953Y-103534106D01*
X156820953Y-103534106D02*
X156868572Y-103438868D01*
X156868572Y-103438868D02*
X156916191Y-103391249D01*
X156916191Y-103391249D02*
X157011429Y-103343630D01*
X157011429Y-103343630D02*
X157201905Y-103296011D01*
X157201905Y-103296011D02*
X157297143Y-103248392D01*
X157297143Y-103248392D02*
X157344762Y-103200773D01*
X157344762Y-103200773D02*
X157392381Y-103105535D01*
X157392381Y-103105535D02*
X157392381Y-103010297D01*
X157392381Y-103010297D02*
X157344762Y-102915059D01*
X157344762Y-102915059D02*
X157297143Y-102867440D01*
X157297143Y-102867440D02*
X157201905Y-102819821D01*
X157201905Y-102819821D02*
X156963810Y-102819821D01*
X156963810Y-102819821D02*
X156820953Y-102867440D01*
X156249524Y-103819821D02*
X156344762Y-103772202D01*
X156344762Y-103772202D02*
X156392381Y-103724582D01*
X156392381Y-103724582D02*
X156440000Y-103629344D01*
X156440000Y-103629344D02*
X156440000Y-103343630D01*
X156440000Y-103343630D02*
X156392381Y-103248392D01*
X156392381Y-103248392D02*
X156344762Y-103200773D01*
X156344762Y-103200773D02*
X156249524Y-103153154D01*
X156249524Y-103153154D02*
X156106667Y-103153154D01*
X156106667Y-103153154D02*
X156011429Y-103200773D01*
X156011429Y-103200773D02*
X155963810Y-103248392D01*
X155963810Y-103248392D02*
X155916191Y-103343630D01*
X155916191Y-103343630D02*
X155916191Y-103629344D01*
X155916191Y-103629344D02*
X155963810Y-103724582D01*
X155963810Y-103724582D02*
X156011429Y-103772202D01*
X156011429Y-103772202D02*
X156106667Y-103819821D01*
X156106667Y-103819821D02*
X156249524Y-103819821D01*
X155344762Y-103819821D02*
X155440000Y-103772202D01*
X155440000Y-103772202D02*
X155487619Y-103676963D01*
X155487619Y-103676963D02*
X155487619Y-102819821D01*
X154535238Y-103819821D02*
X154535238Y-102819821D01*
X154535238Y-103772202D02*
X154630476Y-103819821D01*
X154630476Y-103819821D02*
X154820952Y-103819821D01*
X154820952Y-103819821D02*
X154916190Y-103772202D01*
X154916190Y-103772202D02*
X154963809Y-103724582D01*
X154963809Y-103724582D02*
X155011428Y-103629344D01*
X155011428Y-103629344D02*
X155011428Y-103343630D01*
X155011428Y-103343630D02*
X154963809Y-103248392D01*
X154963809Y-103248392D02*
X154916190Y-103200773D01*
X154916190Y-103200773D02*
X154820952Y-103153154D01*
X154820952Y-103153154D02*
X154630476Y-103153154D01*
X154630476Y-103153154D02*
X154535238Y-103200773D01*
X153678095Y-103772202D02*
X153773333Y-103819821D01*
X153773333Y-103819821D02*
X153963809Y-103819821D01*
X153963809Y-103819821D02*
X154059047Y-103772202D01*
X154059047Y-103772202D02*
X154106666Y-103676963D01*
X154106666Y-103676963D02*
X154106666Y-103296011D01*
X154106666Y-103296011D02*
X154059047Y-103200773D01*
X154059047Y-103200773D02*
X153963809Y-103153154D01*
X153963809Y-103153154D02*
X153773333Y-103153154D01*
X153773333Y-103153154D02*
X153678095Y-103200773D01*
X153678095Y-103200773D02*
X153630476Y-103296011D01*
X153630476Y-103296011D02*
X153630476Y-103391249D01*
X153630476Y-103391249D02*
X154106666Y-103486487D01*
X153201904Y-103819821D02*
X153201904Y-103153154D01*
X153201904Y-103343630D02*
X153154285Y-103248392D01*
X153154285Y-103248392D02*
X153106666Y-103200773D01*
X153106666Y-103200773D02*
X153011428Y-103153154D01*
X153011428Y-103153154D02*
X152916190Y-103153154D01*
X152297142Y-102819821D02*
X152297142Y-103534106D01*
X152297142Y-103534106D02*
X152344761Y-103676963D01*
X152344761Y-103676963D02*
X152439999Y-103772202D01*
X152439999Y-103772202D02*
X152582856Y-103819821D01*
X152582856Y-103819821D02*
X152678094Y-103819821D01*
X151392380Y-103153154D02*
X151392380Y-103819821D01*
X151820951Y-103153154D02*
X151820951Y-103676963D01*
X151820951Y-103676963D02*
X151773332Y-103772202D01*
X151773332Y-103772202D02*
X151678094Y-103819821D01*
X151678094Y-103819821D02*
X151535237Y-103819821D01*
X151535237Y-103819821D02*
X151439999Y-103772202D01*
X151439999Y-103772202D02*
X151392380Y-103724582D01*
X150916189Y-103819821D02*
X150916189Y-103153154D01*
X150916189Y-103248392D02*
X150868570Y-103200773D01*
X150868570Y-103200773D02*
X150773332Y-103153154D01*
X150773332Y-103153154D02*
X150630475Y-103153154D01*
X150630475Y-103153154D02*
X150535237Y-103200773D01*
X150535237Y-103200773D02*
X150487618Y-103296011D01*
X150487618Y-103296011D02*
X150487618Y-103819821D01*
X150487618Y-103296011D02*
X150439999Y-103200773D01*
X150439999Y-103200773D02*
X150344761Y-103153154D01*
X150344761Y-103153154D02*
X150201904Y-103153154D01*
X150201904Y-103153154D02*
X150106665Y-103200773D01*
X150106665Y-103200773D02*
X150059046Y-103296011D01*
X150059046Y-103296011D02*
X150059046Y-103819821D01*
X149582856Y-103153154D02*
X149582856Y-104153154D01*
X149582856Y-103200773D02*
X149487618Y-103153154D01*
X149487618Y-103153154D02*
X149297142Y-103153154D01*
X149297142Y-103153154D02*
X149201904Y-103200773D01*
X149201904Y-103200773D02*
X149154285Y-103248392D01*
X149154285Y-103248392D02*
X149106666Y-103343630D01*
X149106666Y-103343630D02*
X149106666Y-103629344D01*
X149106666Y-103629344D02*
X149154285Y-103724582D01*
X149154285Y-103724582D02*
X149201904Y-103772202D01*
X149201904Y-103772202D02*
X149297142Y-103819821D01*
X149297142Y-103819821D02*
X149487618Y-103819821D01*
X149487618Y-103819821D02*
X149582856Y-103772202D01*
X148297142Y-103772202D02*
X148392380Y-103819821D01*
X148392380Y-103819821D02*
X148582856Y-103819821D01*
X148582856Y-103819821D02*
X148678094Y-103772202D01*
X148678094Y-103772202D02*
X148725713Y-103676963D01*
X148725713Y-103676963D02*
X148725713Y-103296011D01*
X148725713Y-103296011D02*
X148678094Y-103200773D01*
X148678094Y-103200773D02*
X148582856Y-103153154D01*
X148582856Y-103153154D02*
X148392380Y-103153154D01*
X148392380Y-103153154D02*
X148297142Y-103200773D01*
X148297142Y-103200773D02*
X148249523Y-103296011D01*
X148249523Y-103296011D02*
X148249523Y-103391249D01*
X148249523Y-103391249D02*
X148725713Y-103486487D01*
X147820951Y-103819821D02*
X147820951Y-103153154D01*
X147820951Y-103343630D02*
X147773332Y-103248392D01*
X147773332Y-103248392D02*
X147725713Y-103200773D01*
X147725713Y-103200773D02*
X147630475Y-103153154D01*
X147630475Y-103153154D02*
X147535237Y-103153154D01*
X147439999Y-103915059D02*
X146678094Y-103915059D01*
X146487617Y-102915059D02*
X146439998Y-102867440D01*
X146439998Y-102867440D02*
X146344760Y-102819821D01*
X146344760Y-102819821D02*
X146106665Y-102819821D01*
X146106665Y-102819821D02*
X146011427Y-102867440D01*
X146011427Y-102867440D02*
X145963808Y-102915059D01*
X145963808Y-102915059D02*
X145916189Y-103010297D01*
X145916189Y-103010297D02*
X145916189Y-103105535D01*
X145916189Y-103105535D02*
X145963808Y-103248392D01*
X145963808Y-103248392D02*
X146535236Y-103819821D01*
X146535236Y-103819821D02*
X145916189Y-103819821D01*
X145725713Y-103915059D02*
X144963808Y-103915059D01*
X144392379Y-103296011D02*
X144249522Y-103343630D01*
X144249522Y-103343630D02*
X144201903Y-103391249D01*
X144201903Y-103391249D02*
X144154284Y-103486487D01*
X144154284Y-103486487D02*
X144154284Y-103629344D01*
X144154284Y-103629344D02*
X144201903Y-103724582D01*
X144201903Y-103724582D02*
X144249522Y-103772202D01*
X144249522Y-103772202D02*
X144344760Y-103819821D01*
X144344760Y-103819821D02*
X144725712Y-103819821D01*
X144725712Y-103819821D02*
X144725712Y-102819821D01*
X144725712Y-102819821D02*
X144392379Y-102819821D01*
X144392379Y-102819821D02*
X144297141Y-102867440D01*
X144297141Y-102867440D02*
X144249522Y-102915059D01*
X144249522Y-102915059D02*
X144201903Y-103010297D01*
X144201903Y-103010297D02*
X144201903Y-103105535D01*
X144201903Y-103105535D02*
X144249522Y-103200773D01*
X144249522Y-103200773D02*
X144297141Y-103248392D01*
X144297141Y-103248392D02*
X144392379Y-103296011D01*
X144392379Y-103296011D02*
X144725712Y-103296011D01*
X143725712Y-103819821D02*
X143725712Y-103153154D01*
X143725712Y-103343630D02*
X143678093Y-103248392D01*
X143678093Y-103248392D02*
X143630474Y-103200773D01*
X143630474Y-103200773D02*
X143535236Y-103153154D01*
X143535236Y-103153154D02*
X143439998Y-103153154D01*
X143106664Y-103819821D02*
X143106664Y-103153154D01*
X143106664Y-102819821D02*
X143154283Y-102867440D01*
X143154283Y-102867440D02*
X143106664Y-102915059D01*
X143106664Y-102915059D02*
X143059045Y-102867440D01*
X143059045Y-102867440D02*
X143106664Y-102819821D01*
X143106664Y-102819821D02*
X143106664Y-102915059D01*
X142201903Y-103819821D02*
X142201903Y-102819821D01*
X142201903Y-103772202D02*
X142297141Y-103819821D01*
X142297141Y-103819821D02*
X142487617Y-103819821D01*
X142487617Y-103819821D02*
X142582855Y-103772202D01*
X142582855Y-103772202D02*
X142630474Y-103724582D01*
X142630474Y-103724582D02*
X142678093Y-103629344D01*
X142678093Y-103629344D02*
X142678093Y-103343630D01*
X142678093Y-103343630D02*
X142630474Y-103248392D01*
X142630474Y-103248392D02*
X142582855Y-103200773D01*
X142582855Y-103200773D02*
X142487617Y-103153154D01*
X142487617Y-103153154D02*
X142297141Y-103153154D01*
X142297141Y-103153154D02*
X142201903Y-103200773D01*
X141297141Y-103153154D02*
X141297141Y-103962678D01*
X141297141Y-103962678D02*
X141344760Y-104057916D01*
X141344760Y-104057916D02*
X141392379Y-104105535D01*
X141392379Y-104105535D02*
X141487617Y-104153154D01*
X141487617Y-104153154D02*
X141630474Y-104153154D01*
X141630474Y-104153154D02*
X141725712Y-104105535D01*
X141297141Y-103772202D02*
X141392379Y-103819821D01*
X141392379Y-103819821D02*
X141582855Y-103819821D01*
X141582855Y-103819821D02*
X141678093Y-103772202D01*
X141678093Y-103772202D02*
X141725712Y-103724582D01*
X141725712Y-103724582D02*
X141773331Y-103629344D01*
X141773331Y-103629344D02*
X141773331Y-103343630D01*
X141773331Y-103343630D02*
X141725712Y-103248392D01*
X141725712Y-103248392D02*
X141678093Y-103200773D01*
X141678093Y-103200773D02*
X141582855Y-103153154D01*
X141582855Y-103153154D02*
X141392379Y-103153154D01*
X141392379Y-103153154D02*
X141297141Y-103200773D01*
X140439998Y-103772202D02*
X140535236Y-103819821D01*
X140535236Y-103819821D02*
X140725712Y-103819821D01*
X140725712Y-103819821D02*
X140820950Y-103772202D01*
X140820950Y-103772202D02*
X140868569Y-103676963D01*
X140868569Y-103676963D02*
X140868569Y-103296011D01*
X140868569Y-103296011D02*
X140820950Y-103200773D01*
X140820950Y-103200773D02*
X140725712Y-103153154D01*
X140725712Y-103153154D02*
X140535236Y-103153154D01*
X140535236Y-103153154D02*
X140439998Y-103200773D01*
X140439998Y-103200773D02*
X140392379Y-103296011D01*
X140392379Y-103296011D02*
X140392379Y-103391249D01*
X140392379Y-103391249D02*
X140868569Y-103486487D01*
X139535236Y-103819821D02*
X139535236Y-102819821D01*
X139535236Y-103772202D02*
X139630474Y-103819821D01*
X139630474Y-103819821D02*
X139820950Y-103819821D01*
X139820950Y-103819821D02*
X139916188Y-103772202D01*
X139916188Y-103772202D02*
X139963807Y-103724582D01*
X139963807Y-103724582D02*
X140011426Y-103629344D01*
X140011426Y-103629344D02*
X140011426Y-103343630D01*
X140011426Y-103343630D02*
X139963807Y-103248392D01*
X139963807Y-103248392D02*
X139916188Y-103200773D01*
X139916188Y-103200773D02*
X139820950Y-103153154D01*
X139820950Y-103153154D02*
X139630474Y-103153154D01*
X139630474Y-103153154D02*
X139535236Y-103200773D01*
X170692381Y-131007200D02*
X170549524Y-131054819D01*
X170549524Y-131054819D02*
X170311429Y-131054819D01*
X170311429Y-131054819D02*
X170216191Y-131007200D01*
X170216191Y-131007200D02*
X170168572Y-130959580D01*
X170168572Y-130959580D02*
X170120953Y-130864342D01*
X170120953Y-130864342D02*
X170120953Y-130769104D01*
X170120953Y-130769104D02*
X170168572Y-130673866D01*
X170168572Y-130673866D02*
X170216191Y-130626247D01*
X170216191Y-130626247D02*
X170311429Y-130578628D01*
X170311429Y-130578628D02*
X170501905Y-130531009D01*
X170501905Y-130531009D02*
X170597143Y-130483390D01*
X170597143Y-130483390D02*
X170644762Y-130435771D01*
X170644762Y-130435771D02*
X170692381Y-130340533D01*
X170692381Y-130340533D02*
X170692381Y-130245295D01*
X170692381Y-130245295D02*
X170644762Y-130150057D01*
X170644762Y-130150057D02*
X170597143Y-130102438D01*
X170597143Y-130102438D02*
X170501905Y-130054819D01*
X170501905Y-130054819D02*
X170263810Y-130054819D01*
X170263810Y-130054819D02*
X170120953Y-130102438D01*
X169549524Y-131054819D02*
X169644762Y-131007200D01*
X169644762Y-131007200D02*
X169692381Y-130959580D01*
X169692381Y-130959580D02*
X169740000Y-130864342D01*
X169740000Y-130864342D02*
X169740000Y-130578628D01*
X169740000Y-130578628D02*
X169692381Y-130483390D01*
X169692381Y-130483390D02*
X169644762Y-130435771D01*
X169644762Y-130435771D02*
X169549524Y-130388152D01*
X169549524Y-130388152D02*
X169406667Y-130388152D01*
X169406667Y-130388152D02*
X169311429Y-130435771D01*
X169311429Y-130435771D02*
X169263810Y-130483390D01*
X169263810Y-130483390D02*
X169216191Y-130578628D01*
X169216191Y-130578628D02*
X169216191Y-130864342D01*
X169216191Y-130864342D02*
X169263810Y-130959580D01*
X169263810Y-130959580D02*
X169311429Y-131007200D01*
X169311429Y-131007200D02*
X169406667Y-131054819D01*
X169406667Y-131054819D02*
X169549524Y-131054819D01*
X168644762Y-131054819D02*
X168740000Y-131007200D01*
X168740000Y-131007200D02*
X168787619Y-130911961D01*
X168787619Y-130911961D02*
X168787619Y-130054819D01*
X167835238Y-131054819D02*
X167835238Y-130054819D01*
X167835238Y-131007200D02*
X167930476Y-131054819D01*
X167930476Y-131054819D02*
X168120952Y-131054819D01*
X168120952Y-131054819D02*
X168216190Y-131007200D01*
X168216190Y-131007200D02*
X168263809Y-130959580D01*
X168263809Y-130959580D02*
X168311428Y-130864342D01*
X168311428Y-130864342D02*
X168311428Y-130578628D01*
X168311428Y-130578628D02*
X168263809Y-130483390D01*
X168263809Y-130483390D02*
X168216190Y-130435771D01*
X168216190Y-130435771D02*
X168120952Y-130388152D01*
X168120952Y-130388152D02*
X167930476Y-130388152D01*
X167930476Y-130388152D02*
X167835238Y-130435771D01*
X166978095Y-131007200D02*
X167073333Y-131054819D01*
X167073333Y-131054819D02*
X167263809Y-131054819D01*
X167263809Y-131054819D02*
X167359047Y-131007200D01*
X167359047Y-131007200D02*
X167406666Y-130911961D01*
X167406666Y-130911961D02*
X167406666Y-130531009D01*
X167406666Y-130531009D02*
X167359047Y-130435771D01*
X167359047Y-130435771D02*
X167263809Y-130388152D01*
X167263809Y-130388152D02*
X167073333Y-130388152D01*
X167073333Y-130388152D02*
X166978095Y-130435771D01*
X166978095Y-130435771D02*
X166930476Y-130531009D01*
X166930476Y-130531009D02*
X166930476Y-130626247D01*
X166930476Y-130626247D02*
X167406666Y-130721485D01*
X166501904Y-131054819D02*
X166501904Y-130388152D01*
X166501904Y-130578628D02*
X166454285Y-130483390D01*
X166454285Y-130483390D02*
X166406666Y-130435771D01*
X166406666Y-130435771D02*
X166311428Y-130388152D01*
X166311428Y-130388152D02*
X166216190Y-130388152D01*
X165597142Y-130054819D02*
X165597142Y-130769104D01*
X165597142Y-130769104D02*
X165644761Y-130911961D01*
X165644761Y-130911961D02*
X165739999Y-131007200D01*
X165739999Y-131007200D02*
X165882856Y-131054819D01*
X165882856Y-131054819D02*
X165978094Y-131054819D01*
X164692380Y-130388152D02*
X164692380Y-131054819D01*
X165120951Y-130388152D02*
X165120951Y-130911961D01*
X165120951Y-130911961D02*
X165073332Y-131007200D01*
X165073332Y-131007200D02*
X164978094Y-131054819D01*
X164978094Y-131054819D02*
X164835237Y-131054819D01*
X164835237Y-131054819D02*
X164739999Y-131007200D01*
X164739999Y-131007200D02*
X164692380Y-130959580D01*
X164216189Y-131054819D02*
X164216189Y-130388152D01*
X164216189Y-130483390D02*
X164168570Y-130435771D01*
X164168570Y-130435771D02*
X164073332Y-130388152D01*
X164073332Y-130388152D02*
X163930475Y-130388152D01*
X163930475Y-130388152D02*
X163835237Y-130435771D01*
X163835237Y-130435771D02*
X163787618Y-130531009D01*
X163787618Y-130531009D02*
X163787618Y-131054819D01*
X163787618Y-130531009D02*
X163739999Y-130435771D01*
X163739999Y-130435771D02*
X163644761Y-130388152D01*
X163644761Y-130388152D02*
X163501904Y-130388152D01*
X163501904Y-130388152D02*
X163406665Y-130435771D01*
X163406665Y-130435771D02*
X163359046Y-130531009D01*
X163359046Y-130531009D02*
X163359046Y-131054819D01*
X162882856Y-130388152D02*
X162882856Y-131388152D01*
X162882856Y-130435771D02*
X162787618Y-130388152D01*
X162787618Y-130388152D02*
X162597142Y-130388152D01*
X162597142Y-130388152D02*
X162501904Y-130435771D01*
X162501904Y-130435771D02*
X162454285Y-130483390D01*
X162454285Y-130483390D02*
X162406666Y-130578628D01*
X162406666Y-130578628D02*
X162406666Y-130864342D01*
X162406666Y-130864342D02*
X162454285Y-130959580D01*
X162454285Y-130959580D02*
X162501904Y-131007200D01*
X162501904Y-131007200D02*
X162597142Y-131054819D01*
X162597142Y-131054819D02*
X162787618Y-131054819D01*
X162787618Y-131054819D02*
X162882856Y-131007200D01*
X161597142Y-131007200D02*
X161692380Y-131054819D01*
X161692380Y-131054819D02*
X161882856Y-131054819D01*
X161882856Y-131054819D02*
X161978094Y-131007200D01*
X161978094Y-131007200D02*
X162025713Y-130911961D01*
X162025713Y-130911961D02*
X162025713Y-130531009D01*
X162025713Y-130531009D02*
X161978094Y-130435771D01*
X161978094Y-130435771D02*
X161882856Y-130388152D01*
X161882856Y-130388152D02*
X161692380Y-130388152D01*
X161692380Y-130388152D02*
X161597142Y-130435771D01*
X161597142Y-130435771D02*
X161549523Y-130531009D01*
X161549523Y-130531009D02*
X161549523Y-130626247D01*
X161549523Y-130626247D02*
X162025713Y-130721485D01*
X161120951Y-131054819D02*
X161120951Y-130388152D01*
X161120951Y-130578628D02*
X161073332Y-130483390D01*
X161073332Y-130483390D02*
X161025713Y-130435771D01*
X161025713Y-130435771D02*
X160930475Y-130388152D01*
X160930475Y-130388152D02*
X160835237Y-130388152D01*
X160739999Y-131150057D02*
X159978094Y-131150057D01*
X159787617Y-130150057D02*
X159739998Y-130102438D01*
X159739998Y-130102438D02*
X159644760Y-130054819D01*
X159644760Y-130054819D02*
X159406665Y-130054819D01*
X159406665Y-130054819D02*
X159311427Y-130102438D01*
X159311427Y-130102438D02*
X159263808Y-130150057D01*
X159263808Y-130150057D02*
X159216189Y-130245295D01*
X159216189Y-130245295D02*
X159216189Y-130340533D01*
X159216189Y-130340533D02*
X159263808Y-130483390D01*
X159263808Y-130483390D02*
X159835236Y-131054819D01*
X159835236Y-131054819D02*
X159216189Y-131054819D01*
X159025713Y-131150057D02*
X158263808Y-131150057D01*
X157692379Y-130531009D02*
X157549522Y-130578628D01*
X157549522Y-130578628D02*
X157501903Y-130626247D01*
X157501903Y-130626247D02*
X157454284Y-130721485D01*
X157454284Y-130721485D02*
X157454284Y-130864342D01*
X157454284Y-130864342D02*
X157501903Y-130959580D01*
X157501903Y-130959580D02*
X157549522Y-131007200D01*
X157549522Y-131007200D02*
X157644760Y-131054819D01*
X157644760Y-131054819D02*
X158025712Y-131054819D01*
X158025712Y-131054819D02*
X158025712Y-130054819D01*
X158025712Y-130054819D02*
X157692379Y-130054819D01*
X157692379Y-130054819D02*
X157597141Y-130102438D01*
X157597141Y-130102438D02*
X157549522Y-130150057D01*
X157549522Y-130150057D02*
X157501903Y-130245295D01*
X157501903Y-130245295D02*
X157501903Y-130340533D01*
X157501903Y-130340533D02*
X157549522Y-130435771D01*
X157549522Y-130435771D02*
X157597141Y-130483390D01*
X157597141Y-130483390D02*
X157692379Y-130531009D01*
X157692379Y-130531009D02*
X158025712Y-130531009D01*
X157025712Y-131054819D02*
X157025712Y-130388152D01*
X157025712Y-130578628D02*
X156978093Y-130483390D01*
X156978093Y-130483390D02*
X156930474Y-130435771D01*
X156930474Y-130435771D02*
X156835236Y-130388152D01*
X156835236Y-130388152D02*
X156739998Y-130388152D01*
X156406664Y-131054819D02*
X156406664Y-130388152D01*
X156406664Y-130054819D02*
X156454283Y-130102438D01*
X156454283Y-130102438D02*
X156406664Y-130150057D01*
X156406664Y-130150057D02*
X156359045Y-130102438D01*
X156359045Y-130102438D02*
X156406664Y-130054819D01*
X156406664Y-130054819D02*
X156406664Y-130150057D01*
X155501903Y-131054819D02*
X155501903Y-130054819D01*
X155501903Y-131007200D02*
X155597141Y-131054819D01*
X155597141Y-131054819D02*
X155787617Y-131054819D01*
X155787617Y-131054819D02*
X155882855Y-131007200D01*
X155882855Y-131007200D02*
X155930474Y-130959580D01*
X155930474Y-130959580D02*
X155978093Y-130864342D01*
X155978093Y-130864342D02*
X155978093Y-130578628D01*
X155978093Y-130578628D02*
X155930474Y-130483390D01*
X155930474Y-130483390D02*
X155882855Y-130435771D01*
X155882855Y-130435771D02*
X155787617Y-130388152D01*
X155787617Y-130388152D02*
X155597141Y-130388152D01*
X155597141Y-130388152D02*
X155501903Y-130435771D01*
X154597141Y-130388152D02*
X154597141Y-131197676D01*
X154597141Y-131197676D02*
X154644760Y-131292914D01*
X154644760Y-131292914D02*
X154692379Y-131340533D01*
X154692379Y-131340533D02*
X154787617Y-131388152D01*
X154787617Y-131388152D02*
X154930474Y-131388152D01*
X154930474Y-131388152D02*
X155025712Y-131340533D01*
X154597141Y-131007200D02*
X154692379Y-131054819D01*
X154692379Y-131054819D02*
X154882855Y-131054819D01*
X154882855Y-131054819D02*
X154978093Y-131007200D01*
X154978093Y-131007200D02*
X155025712Y-130959580D01*
X155025712Y-130959580D02*
X155073331Y-130864342D01*
X155073331Y-130864342D02*
X155073331Y-130578628D01*
X155073331Y-130578628D02*
X155025712Y-130483390D01*
X155025712Y-130483390D02*
X154978093Y-130435771D01*
X154978093Y-130435771D02*
X154882855Y-130388152D01*
X154882855Y-130388152D02*
X154692379Y-130388152D01*
X154692379Y-130388152D02*
X154597141Y-130435771D01*
X153739998Y-131007200D02*
X153835236Y-131054819D01*
X153835236Y-131054819D02*
X154025712Y-131054819D01*
X154025712Y-131054819D02*
X154120950Y-131007200D01*
X154120950Y-131007200D02*
X154168569Y-130911961D01*
X154168569Y-130911961D02*
X154168569Y-130531009D01*
X154168569Y-130531009D02*
X154120950Y-130435771D01*
X154120950Y-130435771D02*
X154025712Y-130388152D01*
X154025712Y-130388152D02*
X153835236Y-130388152D01*
X153835236Y-130388152D02*
X153739998Y-130435771D01*
X153739998Y-130435771D02*
X153692379Y-130531009D01*
X153692379Y-130531009D02*
X153692379Y-130626247D01*
X153692379Y-130626247D02*
X154168569Y-130721485D01*
X152835236Y-131054819D02*
X152835236Y-130054819D01*
X152835236Y-131007200D02*
X152930474Y-131054819D01*
X152930474Y-131054819D02*
X153120950Y-131054819D01*
X153120950Y-131054819D02*
X153216188Y-131007200D01*
X153216188Y-131007200D02*
X153263807Y-130959580D01*
X153263807Y-130959580D02*
X153311426Y-130864342D01*
X153311426Y-130864342D02*
X153311426Y-130578628D01*
X153311426Y-130578628D02*
X153263807Y-130483390D01*
X153263807Y-130483390D02*
X153216188Y-130435771D01*
X153216188Y-130435771D02*
X153120950Y-130388152D01*
X153120950Y-130388152D02*
X152930474Y-130388152D01*
X152930474Y-130388152D02*
X152835236Y-130435771D01*
X157412381Y-111582202D02*
X157269524Y-111629821D01*
X157269524Y-111629821D02*
X157031429Y-111629821D01*
X157031429Y-111629821D02*
X156936191Y-111582202D01*
X156936191Y-111582202D02*
X156888572Y-111534582D01*
X156888572Y-111534582D02*
X156840953Y-111439344D01*
X156840953Y-111439344D02*
X156840953Y-111344106D01*
X156840953Y-111344106D02*
X156888572Y-111248868D01*
X156888572Y-111248868D02*
X156936191Y-111201249D01*
X156936191Y-111201249D02*
X157031429Y-111153630D01*
X157031429Y-111153630D02*
X157221905Y-111106011D01*
X157221905Y-111106011D02*
X157317143Y-111058392D01*
X157317143Y-111058392D02*
X157364762Y-111010773D01*
X157364762Y-111010773D02*
X157412381Y-110915535D01*
X157412381Y-110915535D02*
X157412381Y-110820297D01*
X157412381Y-110820297D02*
X157364762Y-110725059D01*
X157364762Y-110725059D02*
X157317143Y-110677440D01*
X157317143Y-110677440D02*
X157221905Y-110629821D01*
X157221905Y-110629821D02*
X156983810Y-110629821D01*
X156983810Y-110629821D02*
X156840953Y-110677440D01*
X156269524Y-111629821D02*
X156364762Y-111582202D01*
X156364762Y-111582202D02*
X156412381Y-111534582D01*
X156412381Y-111534582D02*
X156460000Y-111439344D01*
X156460000Y-111439344D02*
X156460000Y-111153630D01*
X156460000Y-111153630D02*
X156412381Y-111058392D01*
X156412381Y-111058392D02*
X156364762Y-111010773D01*
X156364762Y-111010773D02*
X156269524Y-110963154D01*
X156269524Y-110963154D02*
X156126667Y-110963154D01*
X156126667Y-110963154D02*
X156031429Y-111010773D01*
X156031429Y-111010773D02*
X155983810Y-111058392D01*
X155983810Y-111058392D02*
X155936191Y-111153630D01*
X155936191Y-111153630D02*
X155936191Y-111439344D01*
X155936191Y-111439344D02*
X155983810Y-111534582D01*
X155983810Y-111534582D02*
X156031429Y-111582202D01*
X156031429Y-111582202D02*
X156126667Y-111629821D01*
X156126667Y-111629821D02*
X156269524Y-111629821D01*
X155364762Y-111629821D02*
X155460000Y-111582202D01*
X155460000Y-111582202D02*
X155507619Y-111486963D01*
X155507619Y-111486963D02*
X155507619Y-110629821D01*
X154555238Y-111629821D02*
X154555238Y-110629821D01*
X154555238Y-111582202D02*
X154650476Y-111629821D01*
X154650476Y-111629821D02*
X154840952Y-111629821D01*
X154840952Y-111629821D02*
X154936190Y-111582202D01*
X154936190Y-111582202D02*
X154983809Y-111534582D01*
X154983809Y-111534582D02*
X155031428Y-111439344D01*
X155031428Y-111439344D02*
X155031428Y-111153630D01*
X155031428Y-111153630D02*
X154983809Y-111058392D01*
X154983809Y-111058392D02*
X154936190Y-111010773D01*
X154936190Y-111010773D02*
X154840952Y-110963154D01*
X154840952Y-110963154D02*
X154650476Y-110963154D01*
X154650476Y-110963154D02*
X154555238Y-111010773D01*
X153698095Y-111582202D02*
X153793333Y-111629821D01*
X153793333Y-111629821D02*
X153983809Y-111629821D01*
X153983809Y-111629821D02*
X154079047Y-111582202D01*
X154079047Y-111582202D02*
X154126666Y-111486963D01*
X154126666Y-111486963D02*
X154126666Y-111106011D01*
X154126666Y-111106011D02*
X154079047Y-111010773D01*
X154079047Y-111010773D02*
X153983809Y-110963154D01*
X153983809Y-110963154D02*
X153793333Y-110963154D01*
X153793333Y-110963154D02*
X153698095Y-111010773D01*
X153698095Y-111010773D02*
X153650476Y-111106011D01*
X153650476Y-111106011D02*
X153650476Y-111201249D01*
X153650476Y-111201249D02*
X154126666Y-111296487D01*
X153221904Y-111629821D02*
X153221904Y-110963154D01*
X153221904Y-111153630D02*
X153174285Y-111058392D01*
X153174285Y-111058392D02*
X153126666Y-111010773D01*
X153126666Y-111010773D02*
X153031428Y-110963154D01*
X153031428Y-110963154D02*
X152936190Y-110963154D01*
X152317142Y-110629821D02*
X152317142Y-111344106D01*
X152317142Y-111344106D02*
X152364761Y-111486963D01*
X152364761Y-111486963D02*
X152459999Y-111582202D01*
X152459999Y-111582202D02*
X152602856Y-111629821D01*
X152602856Y-111629821D02*
X152698094Y-111629821D01*
X151412380Y-110963154D02*
X151412380Y-111629821D01*
X151840951Y-110963154D02*
X151840951Y-111486963D01*
X151840951Y-111486963D02*
X151793332Y-111582202D01*
X151793332Y-111582202D02*
X151698094Y-111629821D01*
X151698094Y-111629821D02*
X151555237Y-111629821D01*
X151555237Y-111629821D02*
X151459999Y-111582202D01*
X151459999Y-111582202D02*
X151412380Y-111534582D01*
X150936189Y-111629821D02*
X150936189Y-110963154D01*
X150936189Y-111058392D02*
X150888570Y-111010773D01*
X150888570Y-111010773D02*
X150793332Y-110963154D01*
X150793332Y-110963154D02*
X150650475Y-110963154D01*
X150650475Y-110963154D02*
X150555237Y-111010773D01*
X150555237Y-111010773D02*
X150507618Y-111106011D01*
X150507618Y-111106011D02*
X150507618Y-111629821D01*
X150507618Y-111106011D02*
X150459999Y-111010773D01*
X150459999Y-111010773D02*
X150364761Y-110963154D01*
X150364761Y-110963154D02*
X150221904Y-110963154D01*
X150221904Y-110963154D02*
X150126665Y-111010773D01*
X150126665Y-111010773D02*
X150079046Y-111106011D01*
X150079046Y-111106011D02*
X150079046Y-111629821D01*
X149602856Y-110963154D02*
X149602856Y-111963154D01*
X149602856Y-111010773D02*
X149507618Y-110963154D01*
X149507618Y-110963154D02*
X149317142Y-110963154D01*
X149317142Y-110963154D02*
X149221904Y-111010773D01*
X149221904Y-111010773D02*
X149174285Y-111058392D01*
X149174285Y-111058392D02*
X149126666Y-111153630D01*
X149126666Y-111153630D02*
X149126666Y-111439344D01*
X149126666Y-111439344D02*
X149174285Y-111534582D01*
X149174285Y-111534582D02*
X149221904Y-111582202D01*
X149221904Y-111582202D02*
X149317142Y-111629821D01*
X149317142Y-111629821D02*
X149507618Y-111629821D01*
X149507618Y-111629821D02*
X149602856Y-111582202D01*
X148317142Y-111582202D02*
X148412380Y-111629821D01*
X148412380Y-111629821D02*
X148602856Y-111629821D01*
X148602856Y-111629821D02*
X148698094Y-111582202D01*
X148698094Y-111582202D02*
X148745713Y-111486963D01*
X148745713Y-111486963D02*
X148745713Y-111106011D01*
X148745713Y-111106011D02*
X148698094Y-111010773D01*
X148698094Y-111010773D02*
X148602856Y-110963154D01*
X148602856Y-110963154D02*
X148412380Y-110963154D01*
X148412380Y-110963154D02*
X148317142Y-111010773D01*
X148317142Y-111010773D02*
X148269523Y-111106011D01*
X148269523Y-111106011D02*
X148269523Y-111201249D01*
X148269523Y-111201249D02*
X148745713Y-111296487D01*
X147840951Y-111629821D02*
X147840951Y-110963154D01*
X147840951Y-111153630D02*
X147793332Y-111058392D01*
X147793332Y-111058392D02*
X147745713Y-111010773D01*
X147745713Y-111010773D02*
X147650475Y-110963154D01*
X147650475Y-110963154D02*
X147555237Y-110963154D01*
X147459999Y-111725059D02*
X146698094Y-111725059D01*
X146507617Y-110725059D02*
X146459998Y-110677440D01*
X146459998Y-110677440D02*
X146364760Y-110629821D01*
X146364760Y-110629821D02*
X146126665Y-110629821D01*
X146126665Y-110629821D02*
X146031427Y-110677440D01*
X146031427Y-110677440D02*
X145983808Y-110725059D01*
X145983808Y-110725059D02*
X145936189Y-110820297D01*
X145936189Y-110820297D02*
X145936189Y-110915535D01*
X145936189Y-110915535D02*
X145983808Y-111058392D01*
X145983808Y-111058392D02*
X146555236Y-111629821D01*
X146555236Y-111629821D02*
X145936189Y-111629821D01*
X145745713Y-111725059D02*
X144983808Y-111725059D01*
X144412379Y-111106011D02*
X144269522Y-111153630D01*
X144269522Y-111153630D02*
X144221903Y-111201249D01*
X144221903Y-111201249D02*
X144174284Y-111296487D01*
X144174284Y-111296487D02*
X144174284Y-111439344D01*
X144174284Y-111439344D02*
X144221903Y-111534582D01*
X144221903Y-111534582D02*
X144269522Y-111582202D01*
X144269522Y-111582202D02*
X144364760Y-111629821D01*
X144364760Y-111629821D02*
X144745712Y-111629821D01*
X144745712Y-111629821D02*
X144745712Y-110629821D01*
X144745712Y-110629821D02*
X144412379Y-110629821D01*
X144412379Y-110629821D02*
X144317141Y-110677440D01*
X144317141Y-110677440D02*
X144269522Y-110725059D01*
X144269522Y-110725059D02*
X144221903Y-110820297D01*
X144221903Y-110820297D02*
X144221903Y-110915535D01*
X144221903Y-110915535D02*
X144269522Y-111010773D01*
X144269522Y-111010773D02*
X144317141Y-111058392D01*
X144317141Y-111058392D02*
X144412379Y-111106011D01*
X144412379Y-111106011D02*
X144745712Y-111106011D01*
X143745712Y-111629821D02*
X143745712Y-110963154D01*
X143745712Y-111153630D02*
X143698093Y-111058392D01*
X143698093Y-111058392D02*
X143650474Y-111010773D01*
X143650474Y-111010773D02*
X143555236Y-110963154D01*
X143555236Y-110963154D02*
X143459998Y-110963154D01*
X143126664Y-111629821D02*
X143126664Y-110963154D01*
X143126664Y-110629821D02*
X143174283Y-110677440D01*
X143174283Y-110677440D02*
X143126664Y-110725059D01*
X143126664Y-110725059D02*
X143079045Y-110677440D01*
X143079045Y-110677440D02*
X143126664Y-110629821D01*
X143126664Y-110629821D02*
X143126664Y-110725059D01*
X142221903Y-111629821D02*
X142221903Y-110629821D01*
X142221903Y-111582202D02*
X142317141Y-111629821D01*
X142317141Y-111629821D02*
X142507617Y-111629821D01*
X142507617Y-111629821D02*
X142602855Y-111582202D01*
X142602855Y-111582202D02*
X142650474Y-111534582D01*
X142650474Y-111534582D02*
X142698093Y-111439344D01*
X142698093Y-111439344D02*
X142698093Y-111153630D01*
X142698093Y-111153630D02*
X142650474Y-111058392D01*
X142650474Y-111058392D02*
X142602855Y-111010773D01*
X142602855Y-111010773D02*
X142507617Y-110963154D01*
X142507617Y-110963154D02*
X142317141Y-110963154D01*
X142317141Y-110963154D02*
X142221903Y-111010773D01*
X141317141Y-110963154D02*
X141317141Y-111772678D01*
X141317141Y-111772678D02*
X141364760Y-111867916D01*
X141364760Y-111867916D02*
X141412379Y-111915535D01*
X141412379Y-111915535D02*
X141507617Y-111963154D01*
X141507617Y-111963154D02*
X141650474Y-111963154D01*
X141650474Y-111963154D02*
X141745712Y-111915535D01*
X141317141Y-111582202D02*
X141412379Y-111629821D01*
X141412379Y-111629821D02*
X141602855Y-111629821D01*
X141602855Y-111629821D02*
X141698093Y-111582202D01*
X141698093Y-111582202D02*
X141745712Y-111534582D01*
X141745712Y-111534582D02*
X141793331Y-111439344D01*
X141793331Y-111439344D02*
X141793331Y-111153630D01*
X141793331Y-111153630D02*
X141745712Y-111058392D01*
X141745712Y-111058392D02*
X141698093Y-111010773D01*
X141698093Y-111010773D02*
X141602855Y-110963154D01*
X141602855Y-110963154D02*
X141412379Y-110963154D01*
X141412379Y-110963154D02*
X141317141Y-111010773D01*
X140459998Y-111582202D02*
X140555236Y-111629821D01*
X140555236Y-111629821D02*
X140745712Y-111629821D01*
X140745712Y-111629821D02*
X140840950Y-111582202D01*
X140840950Y-111582202D02*
X140888569Y-111486963D01*
X140888569Y-111486963D02*
X140888569Y-111106011D01*
X140888569Y-111106011D02*
X140840950Y-111010773D01*
X140840950Y-111010773D02*
X140745712Y-110963154D01*
X140745712Y-110963154D02*
X140555236Y-110963154D01*
X140555236Y-110963154D02*
X140459998Y-111010773D01*
X140459998Y-111010773D02*
X140412379Y-111106011D01*
X140412379Y-111106011D02*
X140412379Y-111201249D01*
X140412379Y-111201249D02*
X140888569Y-111296487D01*
X139555236Y-111629821D02*
X139555236Y-110629821D01*
X139555236Y-111582202D02*
X139650474Y-111629821D01*
X139650474Y-111629821D02*
X139840950Y-111629821D01*
X139840950Y-111629821D02*
X139936188Y-111582202D01*
X139936188Y-111582202D02*
X139983807Y-111534582D01*
X139983807Y-111534582D02*
X140031426Y-111439344D01*
X140031426Y-111439344D02*
X140031426Y-111153630D01*
X140031426Y-111153630D02*
X139983807Y-111058392D01*
X139983807Y-111058392D02*
X139936188Y-111010773D01*
X139936188Y-111010773D02*
X139840950Y-110963154D01*
X139840950Y-110963154D02*
X139650474Y-110963154D01*
X139650474Y-110963154D02*
X139555236Y-111010773D01*
D12*
%TO.C,FID6*%
X179185000Y-137795000D02*
G75*
G02*
X177685000Y-137795000I-750000J0D01*
G01*
X177685000Y-137795000D02*
G75*
G02*
X179185000Y-137795000I750000J0D01*
G01*
%TO.C,FID4*%
X125845000Y-92075000D02*
G75*
G02*
X124345000Y-92075000I-750000J0D01*
G01*
X124345000Y-92075000D02*
G75*
G02*
X125845000Y-92075000I750000J0D01*
G01*
%TO.C,FID5*%
X165850000Y-93980000D02*
G75*
G02*
X164350000Y-93980000I-750000J0D01*
G01*
X164350000Y-93980000D02*
G75*
G02*
X165850000Y-93980000I750000J0D01*
G01*
%TD*%
M02*
