%TF.GenerationSoftware,KiCad,Pcbnew,9.0.2*%
%TF.CreationDate,2025-11-14T17:37:25-08:00*%
%TF.ProjectId,nx-module-breakout,6e782d6d-6f64-4756-9c65-2d627265616b,rev?*%
%TF.SameCoordinates,Original*%
%TF.FileFunction,Soldermask,Bot*%
%TF.FilePolarity,Negative*%
%FSLAX46Y46*%
G04 Gerber Fmt 4.6, Leading zero omitted, Abs format (unit mm)*
G04 Created by KiCad (PCBNEW 9.0.2) date 2025-11-14 17:37:25*
%MOMM*%
%LPD*%
G01*
G04 APERTURE LIST*
G04 Aperture macros list*
%AMFreePoly0*
4,1,23,0.000000,0.745722,0.065263,0.745722,0.191342,0.711940,0.304381,0.646677,0.396677,0.554381,0.461940,0.441342,0.495722,0.315263,0.495722,0.250000,0.500000,0.250000,0.500000,-0.250000,0.495722,-0.250000,0.495722,-0.315263,0.461940,-0.441342,0.396677,-0.554381,0.304381,-0.646677,0.191342,-0.711940,0.065263,-0.745722,0.000000,-0.745722,0.000000,-0.750000,-0.500000,-0.750000,
-0.500000,0.750000,0.000000,0.750000,0.000000,0.745722,0.000000,0.745722,$1*%
%AMFreePoly1*
4,1,23,0.500000,-0.750000,0.000000,-0.750000,0.000000,-0.745722,-0.065263,-0.745722,-0.191342,-0.711940,-0.304381,-0.646677,-0.396677,-0.554381,-0.461940,-0.441342,-0.495722,-0.315263,-0.495722,-0.250000,-0.500000,-0.250000,-0.500000,0.250000,-0.495722,0.250000,-0.495722,0.315263,-0.461940,0.441342,-0.396677,0.554381,-0.304381,0.646677,-0.191342,0.711940,-0.065263,0.745722,0.000000,0.745722,
0.000000,0.750000,0.500000,0.750000,0.500000,-0.750000,0.500000,-0.750000,$1*%
G04 Aperture macros list end*
%ADD10C,0.080000*%
%ADD11C,0.002540*%
%ADD12C,0.000000*%
%ADD13C,5.300000*%
%ADD14C,2.000000*%
%ADD15C,1.700000*%
%ADD16R,1.700000X1.700000*%
%ADD17O,1.000000X1.600000*%
%ADD18O,1.000000X2.100000*%
%ADD19C,0.650000*%
%ADD20C,1.500000*%
%ADD21FreePoly0,180.000000*%
%ADD22FreePoly1,180.000000*%
%ADD23FreePoly0,0.000000*%
%ADD24FreePoly1,0.000000*%
%ADD25FreePoly0,270.000000*%
%ADD26FreePoly1,270.000000*%
G04 APERTURE END LIST*
D10*
X175617619Y-125933787D02*
X175505238Y-125933787D01*
X175505238Y-125933787D02*
X175449048Y-125961882D01*
X175449048Y-125961882D02*
X175392857Y-126018072D01*
X175392857Y-126018072D02*
X175364762Y-126130453D01*
X175364762Y-126130453D02*
X175364762Y-126327120D01*
X175364762Y-126327120D02*
X175392857Y-126439501D01*
X175392857Y-126439501D02*
X175449048Y-126495692D01*
X175449048Y-126495692D02*
X175505238Y-126523787D01*
X175505238Y-126523787D02*
X175617619Y-126523787D01*
X175617619Y-126523787D02*
X175673810Y-126495692D01*
X175673810Y-126495692D02*
X175730000Y-126439501D01*
X175730000Y-126439501D02*
X175758096Y-126327120D01*
X175758096Y-126327120D02*
X175758096Y-126130453D01*
X175758096Y-126130453D02*
X175730000Y-126018072D01*
X175730000Y-126018072D02*
X175673810Y-125961882D01*
X175673810Y-125961882D02*
X175617619Y-125933787D01*
X175140001Y-126495692D02*
X175055715Y-126523787D01*
X175055715Y-126523787D02*
X174915239Y-126523787D01*
X174915239Y-126523787D02*
X174859048Y-126495692D01*
X174859048Y-126495692D02*
X174830953Y-126467596D01*
X174830953Y-126467596D02*
X174802858Y-126411406D01*
X174802858Y-126411406D02*
X174802858Y-126355215D01*
X174802858Y-126355215D02*
X174830953Y-126299025D01*
X174830953Y-126299025D02*
X174859048Y-126270930D01*
X174859048Y-126270930D02*
X174915239Y-126242834D01*
X174915239Y-126242834D02*
X175027620Y-126214739D01*
X175027620Y-126214739D02*
X175083810Y-126186644D01*
X175083810Y-126186644D02*
X175111905Y-126158549D01*
X175111905Y-126158549D02*
X175140001Y-126102358D01*
X175140001Y-126102358D02*
X175140001Y-126046168D01*
X175140001Y-126046168D02*
X175111905Y-125989977D01*
X175111905Y-125989977D02*
X175083810Y-125961882D01*
X175083810Y-125961882D02*
X175027620Y-125933787D01*
X175027620Y-125933787D02*
X174887143Y-125933787D01*
X174887143Y-125933787D02*
X174802858Y-125961882D01*
X174550000Y-126523787D02*
X174550000Y-125933787D01*
X174550000Y-126214739D02*
X174212857Y-126214739D01*
X174212857Y-126523787D02*
X174212857Y-125933787D01*
X173988096Y-125933787D02*
X173847620Y-126523787D01*
X173847620Y-126523787D02*
X173735239Y-126102358D01*
X173735239Y-126102358D02*
X173622858Y-126523787D01*
X173622858Y-126523787D02*
X173482382Y-125933787D01*
X172527143Y-126523787D02*
X172808095Y-126523787D01*
X172808095Y-126523787D02*
X172808095Y-125933787D01*
X172246191Y-126523787D02*
X172302381Y-126495692D01*
X172302381Y-126495692D02*
X172330476Y-126467596D01*
X172330476Y-126467596D02*
X172358572Y-126411406D01*
X172358572Y-126411406D02*
X172358572Y-126242834D01*
X172358572Y-126242834D02*
X172330476Y-126186644D01*
X172330476Y-126186644D02*
X172302381Y-126158549D01*
X172302381Y-126158549D02*
X172246191Y-126130453D01*
X172246191Y-126130453D02*
X172161905Y-126130453D01*
X172161905Y-126130453D02*
X172105714Y-126158549D01*
X172105714Y-126158549D02*
X172077619Y-126186644D01*
X172077619Y-126186644D02*
X172049524Y-126242834D01*
X172049524Y-126242834D02*
X172049524Y-126411406D01*
X172049524Y-126411406D02*
X172077619Y-126467596D01*
X172077619Y-126467596D02*
X172105714Y-126495692D01*
X172105714Y-126495692D02*
X172161905Y-126523787D01*
X172161905Y-126523787D02*
X172246191Y-126523787D01*
X171543809Y-126130453D02*
X171543809Y-126608072D01*
X171543809Y-126608072D02*
X171571904Y-126664263D01*
X171571904Y-126664263D02*
X171600000Y-126692358D01*
X171600000Y-126692358D02*
X171656190Y-126720453D01*
X171656190Y-126720453D02*
X171740476Y-126720453D01*
X171740476Y-126720453D02*
X171796666Y-126692358D01*
X171543809Y-126495692D02*
X171600000Y-126523787D01*
X171600000Y-126523787D02*
X171712381Y-126523787D01*
X171712381Y-126523787D02*
X171768571Y-126495692D01*
X171768571Y-126495692D02*
X171796666Y-126467596D01*
X171796666Y-126467596D02*
X171824762Y-126411406D01*
X171824762Y-126411406D02*
X171824762Y-126242834D01*
X171824762Y-126242834D02*
X171796666Y-126186644D01*
X171796666Y-126186644D02*
X171768571Y-126158549D01*
X171768571Y-126158549D02*
X171712381Y-126130453D01*
X171712381Y-126130453D02*
X171600000Y-126130453D01*
X171600000Y-126130453D02*
X171543809Y-126158549D01*
X171178571Y-126523787D02*
X171234761Y-126495692D01*
X171234761Y-126495692D02*
X171262856Y-126467596D01*
X171262856Y-126467596D02*
X171290952Y-126411406D01*
X171290952Y-126411406D02*
X171290952Y-126242834D01*
X171290952Y-126242834D02*
X171262856Y-126186644D01*
X171262856Y-126186644D02*
X171234761Y-126158549D01*
X171234761Y-126158549D02*
X171178571Y-126130453D01*
X171178571Y-126130453D02*
X171094285Y-126130453D01*
X171094285Y-126130453D02*
X171038094Y-126158549D01*
X171038094Y-126158549D02*
X171009999Y-126186644D01*
X171009999Y-126186644D02*
X170981904Y-126242834D01*
X170981904Y-126242834D02*
X170981904Y-126411406D01*
X170981904Y-126411406D02*
X171009999Y-126467596D01*
X171009999Y-126467596D02*
X171038094Y-126495692D01*
X171038094Y-126495692D02*
X171094285Y-126523787D01*
X171094285Y-126523787D02*
X171178571Y-126523787D01*
D11*
%TO.C,LOGO2*%
X172038372Y-124907639D02*
X172152143Y-124375827D01*
X172291711Y-124375827D01*
X172404159Y-124906316D01*
X172498747Y-124104629D01*
X172629054Y-124104629D01*
X172481549Y-125092186D01*
X172355211Y-125092186D01*
X172221596Y-124505473D01*
X172087320Y-125092186D01*
X171960982Y-125092186D01*
X171587698Y-123370851D01*
X171718006Y-123370851D01*
X172038372Y-124907639D01*
G36*
X172038372Y-124907639D02*
G01*
X172152143Y-124375827D01*
X172291711Y-124375827D01*
X172404159Y-124906316D01*
X172498747Y-124104629D01*
X172629054Y-124104629D01*
X172481549Y-125092186D01*
X172355211Y-125092186D01*
X172221596Y-124505473D01*
X172087320Y-125092186D01*
X171960982Y-125092186D01*
X171587698Y-123370851D01*
X171718006Y-123370851D01*
X172038372Y-124907639D01*
G37*
%TO.C,JP2*%
G36*
X148590000Y-103215002D02*
G01*
X148290000Y-103215002D01*
X148290000Y-104715002D01*
X148590000Y-104715002D01*
X148590000Y-103215002D01*
G37*
%TO.C,JP3*%
G36*
X148590000Y-105725002D02*
G01*
X148290000Y-105725002D01*
X148290000Y-107225002D01*
X148590000Y-107225002D01*
X148590000Y-105725002D01*
G37*
%TO.C,JP8*%
G36*
X132300000Y-95750000D02*
G01*
X132600000Y-95750000D01*
X132600000Y-94250000D01*
X132300000Y-94250000D01*
X132300000Y-95750000D01*
G37*
D12*
%TO.C,JP10*%
G36*
X166830000Y-123810000D02*
G01*
X166530000Y-123810000D01*
X166530000Y-122310000D01*
X166830000Y-122310000D01*
X166830000Y-123810000D01*
G37*
%TO.C,JP7*%
G36*
X174200000Y-102425002D02*
G01*
X173900000Y-102425002D01*
X173900000Y-100925002D01*
X174200000Y-100925002D01*
X174200000Y-102425002D01*
G37*
%TO.C,JP6*%
G36*
X178900000Y-135225002D02*
G01*
X177400000Y-135225002D01*
X177400000Y-134925002D01*
X178900000Y-134925002D01*
X178900000Y-135225002D01*
G37*
%TO.C,JP5*%
G36*
X148600000Y-111025002D02*
G01*
X148300000Y-111025002D01*
X148300000Y-112525002D01*
X148600000Y-112525002D01*
X148600000Y-111025002D01*
G37*
%TO.C,JP1*%
G36*
X148590000Y-100715002D02*
G01*
X148290000Y-100715002D01*
X148290000Y-102215002D01*
X148590000Y-102215002D01*
X148590000Y-100715002D01*
G37*
%TO.C,JP9*%
G36*
X161890000Y-133250000D02*
G01*
X161590000Y-133250000D01*
X161590000Y-131750000D01*
X161890000Y-131750000D01*
X161890000Y-133250000D01*
G37*
%TO.C,JP4*%
G36*
X148610000Y-108525002D02*
G01*
X148310000Y-108525002D01*
X148310000Y-110025002D01*
X148610000Y-110025002D01*
X148610000Y-108525002D01*
G37*
%TD*%
D13*
%TO.C,H5*%
X150800000Y-126400000D03*
%TD*%
D14*
%TO.C,H3*%
X124006000Y-137160000D03*
%TD*%
%TO.C,H2*%
X181664000Y-88265000D03*
%TD*%
D15*
%TO.C,J3*%
X128270001Y-90170001D03*
X128270001Y-87630001D03*
X130810001Y-90170001D03*
X130810001Y-87630001D03*
X133350001Y-90170001D03*
X133350001Y-87630001D03*
X135890001Y-90170001D03*
X135890001Y-87630001D03*
X138430001Y-90170001D03*
X138430001Y-87630001D03*
X140970001Y-90170001D03*
X140970001Y-87630001D03*
X143510001Y-90170001D03*
X143510001Y-87630001D03*
X146050001Y-90170001D03*
X146050001Y-87630001D03*
X148590001Y-90170001D03*
X148590001Y-87630001D03*
X151130001Y-90170001D03*
X151130001Y-87630001D03*
X153670001Y-90170001D03*
X153670001Y-87630001D03*
X156210001Y-90170001D03*
X156210001Y-87630001D03*
X158750001Y-90170001D03*
X158750001Y-87630001D03*
X161290001Y-90170001D03*
X161290001Y-87630001D03*
X163830001Y-90170001D03*
D16*
X163830001Y-87630001D03*
%TD*%
D15*
%TO.C,J1*%
X182245001Y-130175001D03*
X179705001Y-130175001D03*
X182245001Y-127635001D03*
X179705001Y-127635001D03*
X182245001Y-125095001D03*
X179705001Y-125095001D03*
X182245001Y-122555001D03*
X179705001Y-122555001D03*
X182245001Y-120015001D03*
X179705001Y-120015001D03*
X182245001Y-117475001D03*
X179705001Y-117475001D03*
X182245001Y-114935001D03*
X179705001Y-114935001D03*
X182245001Y-112395001D03*
X179705001Y-112395001D03*
X182245001Y-109855001D03*
X179705001Y-109855001D03*
X182245001Y-107315001D03*
X179705001Y-107315001D03*
X182245001Y-104775001D03*
X179705001Y-104775001D03*
X182245001Y-102235001D03*
X179705001Y-102235001D03*
X182245001Y-99695001D03*
X179705001Y-99695001D03*
X182245001Y-97155001D03*
X179705001Y-97155001D03*
X182245001Y-94615001D03*
D16*
X179705001Y-94615001D03*
%TD*%
D14*
%TO.C,H4*%
X181610000Y-137160000D03*
%TD*%
D15*
%TO.C,J4*%
X128270001Y-137795001D03*
X128270001Y-135255001D03*
X130810001Y-137795001D03*
X130810001Y-135255001D03*
X133350001Y-137795001D03*
X133350001Y-135255001D03*
X135890001Y-137795001D03*
X135890001Y-135255001D03*
X138430001Y-137795001D03*
X138430001Y-135255001D03*
X140970001Y-137795001D03*
X140970001Y-135255001D03*
X143510001Y-137795001D03*
X143510001Y-135255001D03*
X146050001Y-137795001D03*
X146050001Y-135255001D03*
X148590001Y-137795001D03*
X148590001Y-135255001D03*
X151130001Y-137795001D03*
X151130001Y-135255001D03*
X153670001Y-137795001D03*
X153670001Y-135255001D03*
X156210001Y-137795001D03*
X156210001Y-135255001D03*
X158750001Y-137795001D03*
X158750001Y-135255001D03*
X161290001Y-137795001D03*
X161290001Y-135255001D03*
X163830001Y-137795001D03*
D16*
X163830001Y-135255001D03*
%TD*%
D15*
%TO.C,J8*%
X116205000Y-114300000D03*
X116205000Y-111760000D03*
X118745000Y-114300000D03*
X118745000Y-111760000D03*
X121285000Y-114300000D03*
X121285000Y-111760000D03*
X123825000Y-114300000D03*
X123825000Y-111760000D03*
X126365000Y-114300000D03*
X126365000Y-111760000D03*
X128905000Y-114300000D03*
D16*
X128905000Y-111760000D03*
%TD*%
D17*
%TO.C,J9*%
X168140000Y-88735002D03*
D18*
X168140000Y-92915002D03*
D17*
X176780000Y-88735002D03*
D18*
X176780000Y-92915002D03*
D19*
X169570000Y-92385002D03*
X175350000Y-92385002D03*
%TD*%
D14*
%TO.C,H1*%
X124006000Y-88265000D03*
%TD*%
D20*
%TO.C,FID6*%
X178435000Y-137795000D03*
%TD*%
D21*
%TO.C,JP2*%
X147790000Y-103965002D03*
D22*
X149090000Y-103965002D03*
%TD*%
D21*
%TO.C,JP3*%
X147790000Y-106475002D03*
D22*
X149090000Y-106475002D03*
%TD*%
D23*
%TO.C,JP8*%
X133100000Y-95000000D03*
D24*
X131800000Y-95000000D03*
%TD*%
D21*
%TO.C,JP10*%
X166030001Y-123060000D03*
D22*
X167329999Y-123060000D03*
%TD*%
D21*
%TO.C,JP7*%
X173400001Y-101675002D03*
D22*
X174699999Y-101675002D03*
%TD*%
D20*
%TO.C,FID4*%
X125095000Y-92075000D03*
%TD*%
D25*
%TO.C,JP6*%
X178150000Y-135725001D03*
D26*
X178150000Y-134425003D03*
%TD*%
D21*
%TO.C,JP5*%
X147800000Y-111775002D03*
D22*
X149100000Y-111775002D03*
%TD*%
D20*
%TO.C,FID5*%
X165100000Y-93980000D03*
%TD*%
D21*
%TO.C,JP1*%
X147790000Y-101465002D03*
D22*
X149090000Y-101465002D03*
%TD*%
D23*
%TO.C,JP9*%
X162389999Y-132500000D03*
D24*
X161090001Y-132500000D03*
%TD*%
D21*
%TO.C,JP4*%
X147810000Y-109275002D03*
D22*
X149110000Y-109275002D03*
%TD*%
M02*
