%TF.GenerationSoftware,KiCad,Pcbnew,9.0.2*%
%TF.CreationDate,2025-11-14T17:05:06-08:00*%
%TF.ProjectId,pico2-nx-module,7069636f-322d-46e7-982d-6d6f64756c65,rev?*%
%TF.SameCoordinates,Original*%
%TF.FileFunction,Legend,Bot*%
%TF.FilePolarity,Positive*%
%FSLAX46Y46*%
G04 Gerber Fmt 4.6, Leading zero omitted, Abs format (unit mm)*
G04 Created by KiCad (PCBNEW 9.0.2) date 2025-11-14 17:05:06*
%MOMM*%
%LPD*%
G01*
G04 APERTURE LIST*
%ADD10C,0.374500*%
%ADD11C,0.254000*%
%ADD12C,0.120000*%
%ADD13C,0.200000*%
%ADD14C,0.100000*%
G04 APERTURE END LIST*
D10*
X114607810Y-71370000D02*
G75*
G02*
X114233310Y-71370000I-187250J0D01*
G01*
X114233310Y-71370000D02*
G75*
G02*
X114607810Y-71370000I187250J0D01*
G01*
D11*
X130573332Y-84504318D02*
X130573332Y-85411461D01*
X130573332Y-85411461D02*
X130633809Y-85592889D01*
X130633809Y-85592889D02*
X130754761Y-85713842D01*
X130754761Y-85713842D02*
X130936190Y-85774318D01*
X130936190Y-85774318D02*
X131057142Y-85774318D01*
X130029047Y-84625270D02*
X129968571Y-84564794D01*
X129968571Y-84564794D02*
X129847618Y-84504318D01*
X129847618Y-84504318D02*
X129545237Y-84504318D01*
X129545237Y-84504318D02*
X129424285Y-84564794D01*
X129424285Y-84564794D02*
X129363809Y-84625270D01*
X129363809Y-84625270D02*
X129303332Y-84746222D01*
X129303332Y-84746222D02*
X129303332Y-84867175D01*
X129303332Y-84867175D02*
X129363809Y-85048603D01*
X129363809Y-85048603D02*
X130089523Y-85774318D01*
X130089523Y-85774318D02*
X129303332Y-85774318D01*
X107326332Y-84504318D02*
X107326332Y-85411461D01*
X107326332Y-85411461D02*
X107386809Y-85592889D01*
X107386809Y-85592889D02*
X107507761Y-85713842D01*
X107507761Y-85713842D02*
X107689190Y-85774318D01*
X107689190Y-85774318D02*
X107810142Y-85774318D01*
X106842523Y-84504318D02*
X106056332Y-84504318D01*
X106056332Y-84504318D02*
X106479666Y-84988127D01*
X106479666Y-84988127D02*
X106298237Y-84988127D01*
X106298237Y-84988127D02*
X106177285Y-85048603D01*
X106177285Y-85048603D02*
X106116809Y-85109080D01*
X106116809Y-85109080D02*
X106056332Y-85230032D01*
X106056332Y-85230032D02*
X106056332Y-85532413D01*
X106056332Y-85532413D02*
X106116809Y-85653365D01*
X106116809Y-85653365D02*
X106177285Y-85713842D01*
X106177285Y-85713842D02*
X106298237Y-85774318D01*
X106298237Y-85774318D02*
X106661094Y-85774318D01*
X106661094Y-85774318D02*
X106782047Y-85713842D01*
X106782047Y-85713842D02*
X106842523Y-85653365D01*
D12*
%TO.C,FB7*%
X116760957Y-88560074D02*
X116913460Y-88712577D01*
X117270074Y-88050957D02*
X117422577Y-88203460D01*
%TO.C,FB9*%
X119068601Y-80667718D02*
X119221104Y-80820221D01*
X119577718Y-80158601D02*
X119730221Y-80311104D01*
%TO.C,C27*%
X116272282Y-86711399D02*
X116119779Y-86558896D01*
X116781399Y-86202282D02*
X116628896Y-86049779D01*
%TO.C,C41*%
X122148601Y-81832282D02*
X122301104Y-81679779D01*
X122657718Y-82341399D02*
X122810221Y-82188896D01*
%TO.C,FB4*%
X115955896Y-82857259D02*
X115803393Y-83009762D01*
X116465013Y-83366376D02*
X116312510Y-83518879D01*
%TO.C,FB5*%
X118068601Y-89877718D02*
X118221104Y-90030221D01*
X118577718Y-89368601D02*
X118730221Y-89521104D01*
%TO.C,R8*%
X103200001Y-74923639D02*
X103200001Y-74616357D01*
X103960001Y-74923639D02*
X103960001Y-74616357D01*
%TO.C,C7*%
X121458601Y-81142282D02*
X121611104Y-80989779D01*
X121967718Y-81651399D02*
X122120221Y-81498896D01*
%TO.C,C43*%
X123656114Y-88533549D02*
X123503611Y-88686052D01*
X124165231Y-89042666D02*
X124012728Y-89195169D01*
%TO.C,C39*%
X117259463Y-82857893D02*
X117106960Y-82705390D01*
X117768580Y-82348776D02*
X117616077Y-82196273D01*
%TO.C,C29*%
X122839779Y-83518896D02*
X122992282Y-83671399D01*
X123348896Y-83009779D02*
X123501399Y-83162282D01*
%TO.C,FB6*%
X115614378Y-87411960D02*
X115461875Y-87259457D01*
X116123495Y-86902843D02*
X115970992Y-86750340D01*
%TO.C,C42*%
X119861104Y-80140221D02*
X119708601Y-79987718D01*
X120370221Y-79631104D02*
X120217718Y-79478601D01*
%TO.C,U4*%
X124290400Y-98708985D02*
X124290400Y-92708985D01*
X129510400Y-98698985D02*
X129510400Y-92708985D01*
X129210400Y-99418985D02*
X129210400Y-98938985D01*
X129690400Y-98938985D01*
X129210400Y-99418985D01*
G36*
X129210400Y-99418985D02*
G01*
X129210400Y-98938985D01*
X129690400Y-98938985D01*
X129210400Y-99418985D01*
G37*
D13*
%TO.C,J2*%
X132255000Y-78440000D02*
X133855000Y-78440000D01*
X132255000Y-91960000D02*
X133855000Y-91960000D01*
D14*
X135155000Y-79400000D02*
X135155000Y-79400000D01*
X135255000Y-79400000D02*
X135255000Y-79400000D01*
X135155000Y-79400000D02*
G75*
G02*
X135255000Y-79400000I50000J0D01*
G01*
X135255000Y-79400000D02*
G75*
G02*
X135155000Y-79400000I-50000J0D01*
G01*
D12*
%TO.C,FB8*%
X122852913Y-88020060D02*
X123005416Y-87867557D01*
X123362030Y-88529177D02*
X123514533Y-88376674D01*
%TO.C,R12*%
X118143642Y-92170000D02*
X117836360Y-92170000D01*
X118143642Y-92930000D02*
X117836360Y-92930000D01*
%TO.C,R3*%
X124070000Y-91336360D02*
X124070000Y-91643642D01*
X124830000Y-91336360D02*
X124830000Y-91643642D01*
%TO.C,C8*%
X119418601Y-90312282D02*
X119571104Y-90159779D01*
X119927718Y-90821399D02*
X120080221Y-90668896D01*
%TO.C,FB3*%
X114135421Y-85946037D02*
X114287924Y-86098540D01*
X114644538Y-85436920D02*
X114797041Y-85589423D01*
%TO.C,R26*%
X103526364Y-75819998D02*
X103833646Y-75819998D01*
X103526364Y-76579998D02*
X103833646Y-76579998D01*
%TO.C,C30*%
X118389478Y-81686205D02*
X118541981Y-81533702D01*
X118898595Y-82195322D02*
X119051098Y-82042819D01*
D13*
%TO.C,J3*%
X103055000Y-78440000D02*
X104655000Y-78440000D01*
X103055000Y-91960000D02*
X104655000Y-91960000D01*
D14*
X105955000Y-79400000D02*
X105955000Y-79400000D01*
X106055000Y-79400000D02*
X106055000Y-79400000D01*
X105955000Y-79400000D02*
G75*
G02*
X106055000Y-79400000I50000J0D01*
G01*
X106055000Y-79400000D02*
G75*
G02*
X105955000Y-79400000I-50000J0D01*
G01*
D12*
%TO.C,FB2*%
X117890612Y-80822231D02*
X117738109Y-80974734D01*
X118399729Y-81331348D02*
X118247226Y-81483851D01*
%TO.C,C40*%
X124314936Y-89184727D02*
X124162433Y-89337230D01*
X124824053Y-89693844D02*
X124671550Y-89846347D01*
%TO.C,U13*%
X110024689Y-74662893D02*
X115837107Y-80475311D01*
X113715786Y-70971796D02*
X110024689Y-74662893D01*
X115837107Y-80475311D02*
X120235311Y-76077107D01*
X120235311Y-76077107D02*
X115130000Y-70971796D01*
X114422893Y-70264689D02*
X114069340Y-69911136D01*
X114776447Y-69911136D01*
X114422893Y-70264689D01*
G36*
X114422893Y-70264689D02*
G01*
X114069340Y-69911136D01*
X114776447Y-69911136D01*
X114422893Y-70264689D01*
G37*
%TO.C,C24*%
X115041132Y-82409880D02*
X114888629Y-82562383D01*
X115550249Y-82918997D02*
X115397746Y-83071500D01*
%TO.C,C26*%
X116617615Y-83494514D02*
X116465112Y-83647017D01*
X117126732Y-84003631D02*
X116974229Y-84156134D01*
%TO.C,C28*%
X117418601Y-87897718D02*
X117571104Y-88050221D01*
X117927718Y-87388601D02*
X118080221Y-87541104D01*
%TO.C,C11*%
X120779779Y-80461104D02*
X120932282Y-80308601D01*
X121288896Y-80970221D02*
X121441399Y-80817718D01*
%TO.C,R18*%
X104390003Y-74923640D02*
X104390003Y-74616358D01*
X105150003Y-74923640D02*
X105150003Y-74616358D01*
%TO.C,C32*%
X116189779Y-81271104D02*
X116342282Y-81118601D01*
X116698896Y-81780221D02*
X116851399Y-81627718D01*
%TO.C,C10*%
X123861104Y-86029779D02*
X123708601Y-86182282D01*
X124370221Y-86538896D02*
X124217718Y-86691399D01*
%TO.C,C9*%
X120852282Y-88878601D02*
X120699779Y-89031104D01*
X121361399Y-89387718D02*
X121208896Y-89540221D01*
%TO.C,C3*%
X105690000Y-74887834D02*
X105690000Y-74672162D01*
X106410000Y-74887834D02*
X106410000Y-74672162D01*
%TO.C,C25*%
X114815149Y-85258896D02*
X114967652Y-85411399D01*
X115324266Y-84749779D02*
X115476769Y-84902282D01*
%TO.C,C31*%
X118739272Y-89208412D02*
X118891775Y-89360915D01*
X119248389Y-88699295D02*
X119400892Y-88851798D01*
%TD*%
M02*
