%TF.GenerationSoftware,KiCad,Pcbnew,9.0.2*%
%TF.CreationDate,2025-11-05T17:07:52-08:00*%
%TF.ProjectId,pico2-nx-module,7069636f-322d-46e7-982d-6d6f64756c65,rev?*%
%TF.SameCoordinates,Original*%
%TF.FileFunction,Other,User*%
%FSLAX46Y46*%
G04 Gerber Fmt 4.6, Leading zero omitted, Abs format (unit mm)*
G04 Created by KiCad (PCBNEW 9.0.2) date 2025-11-05 17:07:52*
%MOMM*%
%LPD*%
G01*
G04 APERTURE LIST*
%ADD10C,0.050000*%
%ADD11C,0.100000*%
G04 APERTURE END LIST*
D10*
%TO.C,C47*%
X117581264Y-83673761D02*
X118076239Y-84168736D01*
X118076239Y-84168736D02*
X119066188Y-83178787D01*
X118571213Y-82683812D02*
X117581264Y-83673761D01*
X119066188Y-83178787D02*
X118571213Y-82683812D01*
%TO.C,FB7*%
X116123031Y-88063569D02*
X117409965Y-89350503D01*
X116773569Y-87413031D02*
X116123031Y-88063569D01*
X117409965Y-89350503D02*
X118060503Y-88699965D01*
X118060503Y-88699965D02*
X116773569Y-87413031D01*
%TO.C,C33*%
X116673812Y-85168787D02*
X117663761Y-86158736D01*
X117168787Y-84673812D02*
X116673812Y-85168787D01*
X117663761Y-86158736D02*
X118158736Y-85663761D01*
X118158736Y-85663761D02*
X117168787Y-84673812D01*
%TO.C,C36*%
X119573812Y-87498787D02*
X120563761Y-88488736D01*
X120068787Y-87003812D02*
X119573812Y-87498787D01*
X120563761Y-88488736D02*
X121058736Y-87993761D01*
X121058736Y-87993761D02*
X120068787Y-87003812D01*
%TO.C,FB9*%
X118430675Y-80171213D02*
X119717609Y-81458147D01*
X119081213Y-79520675D02*
X118430675Y-80171213D01*
X119717609Y-81458147D02*
X120368147Y-80807609D01*
X120368147Y-80807609D02*
X119081213Y-79520675D01*
%TO.C,C45*%
X121193812Y-83438787D02*
X122183761Y-84428736D01*
X121688787Y-82943812D02*
X121193812Y-83438787D01*
X122183761Y-84428736D02*
X122678736Y-83933761D01*
X122678736Y-83933761D02*
X121688787Y-82943812D01*
%TO.C,C38*%
X118373812Y-87698787D02*
X119363761Y-88688736D01*
X118868787Y-87203812D02*
X118373812Y-87698787D01*
X119363761Y-88688736D02*
X119858736Y-88193761D01*
X119858736Y-88193761D02*
X118868787Y-87203812D01*
%TO.C,C27*%
X115481853Y-86062391D02*
X116768787Y-87349325D01*
X116132391Y-85411853D02*
X115481853Y-86062391D01*
X116768787Y-87349325D02*
X117419325Y-86698787D01*
X117419325Y-86698787D02*
X116132391Y-85411853D01*
%TO.C,C41*%
X121510675Y-82328787D02*
X122161213Y-82979325D01*
X122161213Y-82979325D02*
X123448147Y-81692391D01*
X122797609Y-81041853D02*
X121510675Y-82328787D01*
X123448147Y-81692391D02*
X122797609Y-81041853D01*
%TO.C,FB4*%
X115165467Y-83506267D02*
X115816005Y-84156805D01*
X115816005Y-84156805D02*
X117102939Y-82869871D01*
X116452401Y-82219333D02*
X115165467Y-83506267D01*
X117102939Y-82869871D02*
X116452401Y-82219333D01*
%TO.C,C12*%
X120080705Y-86658018D02*
X121070654Y-87647967D01*
X120575680Y-86163043D02*
X120080705Y-86658018D01*
X121070654Y-87647967D02*
X121565629Y-87152992D01*
X121565629Y-87152992D02*
X120575680Y-86163043D01*
%TO.C,C76*%
X122181264Y-86513761D02*
X122676239Y-87008736D01*
X122676239Y-87008736D02*
X123666188Y-86018787D01*
X123171213Y-85523812D02*
X122181264Y-86513761D01*
X123666188Y-86018787D02*
X123171213Y-85523812D01*
%TO.C,FB5*%
X117430675Y-89381213D02*
X118717609Y-90668147D01*
X118081213Y-88730675D02*
X117430675Y-89381213D01*
X118717609Y-90668147D02*
X119368147Y-90017609D01*
X119368147Y-90017609D02*
X118081213Y-88730675D01*
%TO.C,R8*%
X103110001Y-73839998D02*
X103110001Y-75699998D01*
X103110001Y-75699998D02*
X104050001Y-75699998D01*
X104050001Y-73839998D02*
X103110001Y-73839998D01*
X104050001Y-75699998D02*
X104050001Y-73839998D01*
%TO.C,C15*%
X119801264Y-83613761D02*
X120296239Y-84108736D01*
X120296239Y-84108736D02*
X121286188Y-83118787D01*
X120791213Y-82623812D02*
X119801264Y-83613761D01*
X121286188Y-83118787D02*
X120791213Y-82623812D01*
%TO.C,C83*%
X122023812Y-87711213D02*
X122518787Y-88206188D01*
X122518787Y-88206188D02*
X123508736Y-87216239D01*
X123013761Y-86721264D02*
X122023812Y-87711213D01*
X123508736Y-87216239D02*
X123013761Y-86721264D01*
%TO.C,C13*%
X121223812Y-87541213D02*
X121718787Y-88036188D01*
X121718787Y-88036188D02*
X122708736Y-87046239D01*
X122213761Y-86551264D02*
X121223812Y-87541213D01*
X122708736Y-87046239D02*
X122213761Y-86551264D01*
%TO.C,C7*%
X120820675Y-81638787D02*
X121471213Y-82289325D01*
X121471213Y-82289325D02*
X122758147Y-81002391D01*
X122107609Y-80351853D02*
X120820675Y-81638787D01*
X122758147Y-81002391D02*
X122107609Y-80351853D01*
%TO.C,C46*%
X119391264Y-82383761D02*
X119886239Y-82878736D01*
X119886239Y-82878736D02*
X120876188Y-81888787D01*
X120381213Y-81393812D02*
X119391264Y-82383761D01*
X120876188Y-81888787D02*
X120381213Y-81393812D01*
%TO.C,C43*%
X122865685Y-89182557D02*
X123516223Y-89833095D01*
X123516223Y-89833095D02*
X124803157Y-88546161D01*
X124152619Y-87895623D02*
X122865685Y-89182557D01*
X124803157Y-88546161D02*
X124152619Y-87895623D01*
%TO.C,C39*%
X116469034Y-82208885D02*
X117755968Y-83495819D01*
X117119572Y-81558347D02*
X116469034Y-82208885D01*
X117755968Y-83495819D02*
X118406506Y-82845281D01*
X118406506Y-82845281D02*
X117119572Y-81558347D01*
%TO.C,C29*%
X122201853Y-83022391D02*
X123488787Y-84309325D01*
X122852391Y-82371853D02*
X122201853Y-83022391D01*
X123488787Y-84309325D02*
X124139325Y-83658787D01*
X124139325Y-83658787D02*
X122852391Y-82371853D01*
%TO.C,FB6*%
X114823949Y-86762952D02*
X116110883Y-88049886D01*
X115474487Y-86112414D02*
X114823949Y-86762952D01*
X116110883Y-88049886D02*
X116761421Y-87399348D01*
X116761421Y-87399348D02*
X115474487Y-86112414D01*
%TO.C,C42*%
X119070675Y-79491213D02*
X120357609Y-80778147D01*
X119721213Y-78840675D02*
X119070675Y-79491213D01*
X120357609Y-80778147D02*
X121008147Y-80127609D01*
X121008147Y-80127609D02*
X119721213Y-78840675D01*
%TO.C,C37*%
X118553767Y-82676660D02*
X119543716Y-83666609D01*
X119048742Y-82181685D02*
X118553767Y-82676660D01*
X119543716Y-83666609D02*
X120038691Y-83171634D01*
X120038691Y-83171634D02*
X119048742Y-82181685D01*
%TO.C,U4*%
X124150400Y-92458985D02*
X124150400Y-98958985D01*
X124150400Y-98958985D02*
X124490400Y-98958985D01*
X124490400Y-92378985D02*
X124490400Y-92458985D01*
X124490400Y-92458985D02*
X124150400Y-92458985D01*
X124490400Y-98958985D02*
X124490400Y-99038985D01*
X124490400Y-99038985D02*
X129310400Y-99038985D01*
X129310400Y-92378985D02*
X124490400Y-92378985D01*
X129310400Y-92458985D02*
X129310400Y-92378985D01*
X129310400Y-98958985D02*
X129650400Y-98958985D01*
X129310400Y-99038985D02*
X129310400Y-98958985D01*
X129650400Y-92458985D02*
X129310400Y-92458985D01*
X129650400Y-98958985D02*
X129650400Y-92458985D01*
D11*
%TO.C,J2*%
X130370000Y-77440000D02*
X130370000Y-92960000D01*
X130370000Y-92960000D02*
X135740000Y-92960000D01*
X135740000Y-77440000D02*
X130370000Y-77440000D01*
X135740000Y-92960000D02*
X135740000Y-77440000D01*
D10*
%TO.C,FB8*%
X122214987Y-88516565D02*
X122865525Y-89167103D01*
X122865525Y-89167103D02*
X124152459Y-87880169D01*
X123501921Y-87229631D02*
X122214987Y-88516565D01*
X124152459Y-87880169D02*
X123501921Y-87229631D01*
%TO.C,FID6*%
X133750000Y-73000000D02*
G75*
G02*
X132250000Y-73000000I-750000J0D01*
G01*
X132250000Y-73000000D02*
G75*
G02*
X133750000Y-73000000I750000J0D01*
G01*
%TO.C,C81*%
X119131264Y-84076239D02*
X120121213Y-85066188D01*
X119626239Y-83581264D02*
X119131264Y-84076239D01*
X120121213Y-85066188D02*
X120616188Y-84571213D01*
X120616188Y-84571213D02*
X119626239Y-83581264D01*
%TO.C,R12*%
X117060001Y-92080000D02*
X117060001Y-93020000D01*
X117060001Y-93020000D02*
X118920001Y-93020000D01*
X118920001Y-92080000D02*
X117060001Y-92080000D01*
X118920001Y-93020000D02*
X118920001Y-92080000D01*
%TO.C,R3*%
X123980000Y-90560001D02*
X123980000Y-92420001D01*
X123980000Y-92420001D02*
X124920000Y-92420001D01*
X124920000Y-90560001D02*
X123980000Y-90560001D01*
X124920000Y-92420001D02*
X124920000Y-90560001D01*
%TO.C,FID5*%
X103750000Y-97000000D02*
G75*
G02*
X102250000Y-97000000I-750000J0D01*
G01*
X102250000Y-97000000D02*
G75*
G02*
X103750000Y-97000000I750000J0D01*
G01*
%TO.C,C8*%
X118780675Y-90808787D02*
X119431213Y-91459325D01*
X119431213Y-91459325D02*
X120718147Y-90172391D01*
X120067609Y-89521853D02*
X118780675Y-90808787D01*
X120718147Y-90172391D02*
X120067609Y-89521853D01*
%TO.C,FB3*%
X113497495Y-85449532D02*
X114784429Y-86736466D01*
X114148033Y-84798994D02*
X113497495Y-85449532D01*
X114784429Y-86736466D02*
X115434967Y-86085928D01*
X115434967Y-86085928D02*
X114148033Y-84798994D01*
%TO.C,R26*%
X102750005Y-75729998D02*
X102750005Y-76669998D01*
X102750005Y-76669998D02*
X104610005Y-76669998D01*
X104610005Y-75729998D02*
X102750005Y-75729998D01*
X104610005Y-76669998D02*
X104610005Y-75729998D01*
%TO.C,C30*%
X117751552Y-82182710D02*
X118402090Y-82833248D01*
X118402090Y-82833248D02*
X119689024Y-81546314D01*
X119038486Y-80895776D02*
X117751552Y-82182710D01*
X119689024Y-81546314D02*
X119038486Y-80895776D01*
%TO.C,FID7*%
X133750000Y-97000000D02*
G75*
G02*
X132250000Y-97000000I-750000J0D01*
G01*
X132250000Y-97000000D02*
G75*
G02*
X133750000Y-97000000I750000J0D01*
G01*
%TO.C,C35*%
X118653812Y-85978787D02*
X119643761Y-86968736D01*
X119148787Y-85483812D02*
X118653812Y-85978787D01*
X119643761Y-86968736D02*
X120138736Y-86473761D01*
X120138736Y-86473761D02*
X119148787Y-85483812D01*
D11*
%TO.C,J3*%
X101170000Y-77440000D02*
X101170000Y-92960000D01*
X101170000Y-92960000D02*
X106540000Y-92960000D01*
X106540000Y-77440000D02*
X101170000Y-77440000D01*
X106540000Y-92960000D02*
X106540000Y-77440000D01*
D10*
%TO.C,FB2*%
X117100183Y-81471239D02*
X117750721Y-82121777D01*
X117750721Y-82121777D02*
X119037655Y-80834843D01*
X118387117Y-80184305D02*
X117100183Y-81471239D01*
X119037655Y-80834843D02*
X118387117Y-80184305D01*
%TO.C,C40*%
X123524507Y-89833735D02*
X124175045Y-90484273D01*
X124175045Y-90484273D02*
X125461979Y-89197339D01*
X124811441Y-88546801D02*
X123524507Y-89833735D01*
X125461979Y-89197339D02*
X124811441Y-88546801D01*
%TO.C,U13*%
X108766039Y-74662893D02*
X114422893Y-69006039D01*
X114422893Y-69006039D02*
X121493961Y-76077107D01*
X115837107Y-81733961D02*
X108766039Y-74662893D01*
X121493961Y-76077107D02*
X115837107Y-81733961D01*
%TO.C,C44*%
X120771264Y-85986239D02*
X121761213Y-86976188D01*
X121266239Y-85491264D02*
X120771264Y-85986239D01*
X121761213Y-86976188D02*
X122256188Y-86481213D01*
X122256188Y-86481213D02*
X121266239Y-85491264D01*
%TO.C,C24*%
X114250703Y-83058888D02*
X114901241Y-83709426D01*
X114901241Y-83709426D02*
X116188175Y-82422492D01*
X115537637Y-81771954D02*
X114250703Y-83058888D01*
X116188175Y-82422492D02*
X115537637Y-81771954D01*
%TO.C,C26*%
X115827186Y-84143522D02*
X116477724Y-84794060D01*
X116477724Y-84794060D02*
X117764658Y-83507126D01*
X117114120Y-82856588D02*
X115827186Y-84143522D01*
X117764658Y-83507126D02*
X117114120Y-82856588D01*
%TO.C,C28*%
X116780675Y-87401213D02*
X118067609Y-88688147D01*
X117431213Y-86750675D02*
X116780675Y-87401213D01*
X118067609Y-88688147D02*
X118718147Y-88037609D01*
X118718147Y-88037609D02*
X117431213Y-86750675D01*
%TO.C,C11*%
X120141853Y-80957609D02*
X120792391Y-81608147D01*
X120792391Y-81608147D02*
X122079325Y-80321213D01*
X121428787Y-79670675D02*
X120141853Y-80957609D01*
X122079325Y-80321213D02*
X121428787Y-79670675D01*
%TO.C,R18*%
X104300003Y-73839999D02*
X104300003Y-75699999D01*
X104300003Y-75699999D02*
X105240003Y-75699999D01*
X105240003Y-73839999D02*
X104300003Y-73839999D01*
X105240003Y-75699999D02*
X105240003Y-73839999D01*
%TO.C,C34*%
X117931264Y-85323761D02*
X118426239Y-85818736D01*
X118426239Y-85818736D02*
X119416188Y-84828787D01*
X118921213Y-84333812D02*
X117931264Y-85323761D01*
X119416188Y-84828787D02*
X118921213Y-84333812D01*
%TO.C,C32*%
X115551853Y-81767609D02*
X116202391Y-82418147D01*
X116202391Y-82418147D02*
X117489325Y-81131213D01*
X116838787Y-80480675D02*
X115551853Y-81767609D01*
X117489325Y-81131213D02*
X116838787Y-80480675D01*
%TO.C,C10*%
X123070675Y-86678787D02*
X123721213Y-87329325D01*
X123721213Y-87329325D02*
X125008147Y-86042391D01*
X124357609Y-85391853D02*
X123070675Y-86678787D01*
X125008147Y-86042391D02*
X124357609Y-85391853D01*
%TO.C,C9*%
X120061853Y-89527609D02*
X120712391Y-90178147D01*
X120712391Y-90178147D02*
X121999325Y-88891213D01*
X121348787Y-88240675D02*
X120061853Y-89527609D01*
X121999325Y-88891213D02*
X121348787Y-88240675D01*
%TO.C,C3*%
X105590000Y-73869998D02*
X105590000Y-75689998D01*
X105590000Y-75689998D02*
X106510000Y-75689998D01*
X106510000Y-73869998D02*
X105590000Y-73869998D01*
X106510000Y-75689998D02*
X106510000Y-73869998D01*
%TO.C,C84*%
X120415565Y-84922355D02*
X120910540Y-85417330D01*
X120910540Y-85417330D02*
X121900489Y-84427381D01*
X121405514Y-83932406D02*
X120415565Y-84922355D01*
X121900489Y-84427381D02*
X121405514Y-83932406D01*
%TO.C,C25*%
X114177223Y-84762391D02*
X115464157Y-86049325D01*
X114827761Y-84111853D02*
X114177223Y-84762391D01*
X115464157Y-86049325D02*
X116114695Y-85398787D01*
X116114695Y-85398787D02*
X114827761Y-84111853D01*
%TO.C,C31*%
X118101346Y-88711907D02*
X119388280Y-89998841D01*
X118751884Y-88061369D02*
X118101346Y-88711907D01*
X119388280Y-89998841D02*
X120038818Y-89348303D01*
X120038818Y-89348303D02*
X118751884Y-88061369D01*
%TO.C,C14*%
X122294835Y-85344779D02*
X122789810Y-85839754D01*
X122789810Y-85839754D02*
X123779759Y-84849805D01*
X123284784Y-84354830D02*
X122294835Y-85344779D01*
X123779759Y-84849805D02*
X123284784Y-84354830D01*
%TD*%
M02*
