M48
; DRILL file {KiCad 9.0.2} date 2025-11-14T17:04:58-0800
; FORMAT={-:-/ absolute / metric / decimal}
; #@! TF.CreationDate,2025-11-14T17:04:58-08:00
; #@! TF.GenerationSoftware,Kicad,Pcbnew,9.0.2
; #@! TF.FileFunction,Plated,1,6,PTH
FMAT,2
METRIC
; #@! TA.AperFunction,Plated,PTH,ViaDrill
T1C0.152
; #@! TA.AperFunction,Plated,PTH,ViaDrill
T2C0.305
%
G90
G05
T1
X100.658Y-79.92
X100.66Y-79.11
X100.67Y-77.86
X100.68Y-81.13
X100.974Y-78.889
X100.992Y-80.911
X101.19Y-78.47
X101.19Y-80.58
X101.368Y-78.889
X101.385Y-80.911
X101.75Y-78.89
X101.758Y-90.603
X101.758Y-90.997
X101.769Y-87.003
X101.769Y-87.397
X101.77Y-80.893
X101.779Y-84.603
X101.779Y-84.997
X101.785Y-89.403
X101.785Y-89.797
X101.788Y-84.194
X101.788Y-85.394
X101.788Y-86.594
X101.788Y-87.794
X101.788Y-88.994
X101.788Y-90.194
X101.788Y-91.394
X101.81Y-81.857
X103.084Y-82.238
X103.188Y-84.194
X103.188Y-87.794
X103.188Y-88.994
X103.2Y-85.0
X103.219Y-88.203
X103.219Y-88.597
X103.321Y-81.939
X103.599Y-81.661
X103.836Y-81.362
X104.15Y-75.26
X104.16Y-76.085
X104.417Y-90.163
X104.426Y-90.549
X104.426Y-90.942
X104.43Y-91.39
X105.47Y-75.34
X105.7Y-82.6
X105.7Y-84.2
X105.7Y-85.8
X105.7Y-87.4
X105.7Y-89.0
X106.03Y-78.03
X106.03Y-78.424
X106.04Y-78.81
X106.04Y-77.649
X106.2Y-87.4
X106.6Y-84.2
X106.6Y-85.8
X106.7Y-87.4
X107.4Y-91.32
X107.4Y-91.71
X107.4Y-92.104
X107.4Y-92.507
X107.41Y-92.907
X107.41Y-93.301
X107.41Y-93.7
X107.94Y-81.82
X112.178Y-74.57
X112.759Y-96.47
X112.869Y-73.891
X113.009Y-74.663
X113.267Y-95.911
X113.54Y-83.51
X113.716Y-73.956
X113.716Y-75.37
X113.748Y-95.352
X114.207Y-94.793
X114.423Y-74.663
X114.423Y-77.491
X114.666Y-94.234
X114.85Y-72.56
X115.1Y-93.728
X115.13Y-73.956
X115.13Y-75.37
X115.13Y-76.784
X115.13Y-78.198
X115.14Y-78.71
X115.53Y-77.24
X115.837Y-73.249
X115.837Y-76.077
X115.837Y-77.491
X116.544Y-75.37
X116.61Y-74.65
X116.7Y-78.19
X117.0Y-79.29
X117.251Y-74.663
X117.558Y-90.178
X117.605Y-77.245
X117.958Y-75.37
X118.08Y-90.7
X118.57Y-85.278
X118.91Y-76.61
X118.923Y-83.51
X118.923Y-84.925
X118.923Y-85.632
X119.08Y-89.39
X119.273Y-83.86
X119.277Y-84.571
X119.277Y-85.278
X119.277Y-85.985
X119.63Y-84.218
X119.63Y-84.925
X119.63Y-85.632
X119.63Y-86.339
X119.984Y-83.864
X119.984Y-84.571
X119.984Y-85.278
X119.984Y-85.985
X119.984Y-86.692
X119.984Y-87.4
X119.984Y-88.107
X120.338Y-83.51
X120.338Y-84.218
X120.338Y-85.632
X120.338Y-86.339
X120.338Y-87.046
X120.338Y-84.925
X120.338Y-88.46
X120.621Y-89.516
X120.691Y-83.157
X120.691Y-83.864
X120.691Y-84.571
X120.691Y-85.278
X120.691Y-85.985
X120.691Y-86.692
X120.691Y-88.814
X120.85Y-92.25
X121.045Y-82.803
X121.045Y-83.51
X121.045Y-84.218
X121.045Y-84.925
X121.045Y-85.632
X121.045Y-86.339
X121.045Y-87.046
X121.045Y-88.46
X121.398Y-82.45
X121.398Y-83.157
X121.398Y-84.571
X121.398Y-85.278
X121.398Y-85.985
X121.398Y-87.4
X121.71Y-89.45
X121.752Y-84.218
X121.752Y-84.925
X121.752Y-85.632
X121.752Y-86.339
X122.049Y-88.111
X122.105Y-84.571
X122.105Y-85.278
X122.105Y-85.985
X122.459Y-84.218
X122.459Y-84.925
X122.459Y-85.632
X122.7Y-91.694
X122.812Y-83.864
X122.812Y-84.571
X122.812Y-85.278
X123.166Y-84.925
X123.891Y-82.498
X123.891Y-82.891
X123.9Y-73.7
X123.9Y-74.103
X123.9Y-74.497
X123.9Y-74.9
X123.9Y-75.303
X123.9Y-75.697
X123.9Y-76.1
X123.9Y-76.503
X123.9Y-76.897
X123.9Y-77.3
X123.9Y-77.703
X123.9Y-78.097
X123.9Y-78.5
X123.9Y-78.903
X123.9Y-79.297
X123.9Y-79.7
X123.9Y-80.125
X123.9Y-80.519
X123.9Y-80.9
X123.9Y-81.303
X123.9Y-81.697
X123.9Y-82.1
X123.9Y-83.3
X124.444Y-91.018
X124.5Y-87.39
X124.995Y-93.596
X125.9Y-87.601
X126.245Y-93.646
X126.245Y-97.846
X126.6Y-87.6
X127.3Y-87.6
X127.545Y-93.596
X127.545Y-97.846
X128.0Y-87.6
X128.795Y-97.846
X128.805Y-93.009
X129.452Y-93.015
X133.41Y-79.0
X133.41Y-79.403
X133.41Y-79.797
X133.41Y-80.2
X133.41Y-80.603
X133.41Y-80.997
X133.41Y-81.4
X133.41Y-81.803
X133.41Y-82.197
X133.41Y-82.6
X133.41Y-83.003
X133.41Y-83.397
X133.41Y-83.8
X133.41Y-84.203
X133.41Y-84.597
X133.41Y-85.0
X133.41Y-85.403
X133.41Y-85.797
X133.41Y-86.603
X133.41Y-86.997
X133.41Y-87.803
X133.41Y-88.197
X133.41Y-89.003
X133.41Y-89.397
X133.42Y-86.2
X133.42Y-87.4
X133.42Y-88.6
X133.42Y-89.8
X133.42Y-91.0
X133.422Y-90.203
X133.422Y-90.597
T2
X102.62Y-75.04
X102.64Y-73.15
X103.94Y-95.37
X105.27Y-77.36
X106.06Y-73.51
X106.06Y-76.08
X106.89Y-73.58
X107.111Y-81.801
X107.97Y-73.57
X109.05Y-73.65
X117.27Y-80.5
X121.25Y-73.81
X121.641Y-92.349
X124.189Y-98.197
X125.341Y-91.3
X128.507Y-91.567
X130.259Y-93.498
M30
