%TF.GenerationSoftware,KiCad,Pcbnew,9.0.2*%
%TF.CreationDate,2025-11-14T17:05:06-08:00*%
%TF.ProjectId,pico2-nx-module,7069636f-322d-46e7-982d-6d6f64756c65,rev?*%
%TF.SameCoordinates,Original*%
%TF.FileFunction,Legend,Top*%
%TF.FilePolarity,Positive*%
%FSLAX46Y46*%
G04 Gerber Fmt 4.6, Leading zero omitted, Abs format (unit mm)*
G04 Created by KiCad (PCBNEW 9.0.2) date 2025-11-14 17:05:06*
%MOMM*%
%LPD*%
G01*
G04 APERTURE LIST*
%ADD10C,0.150000*%
%ADD11C,0.120000*%
%ADD12C,0.127000*%
%ADD13C,0.200000*%
G04 APERTURE END LIST*
D10*
X127008207Y-76714819D02*
X126674874Y-76238628D01*
X126436779Y-76714819D02*
X126436779Y-75714819D01*
X126436779Y-75714819D02*
X126817731Y-75714819D01*
X126817731Y-75714819D02*
X126912969Y-75762438D01*
X126912969Y-75762438D02*
X126960588Y-75810057D01*
X126960588Y-75810057D02*
X127008207Y-75905295D01*
X127008207Y-75905295D02*
X127008207Y-76048152D01*
X127008207Y-76048152D02*
X126960588Y-76143390D01*
X126960588Y-76143390D02*
X126912969Y-76191009D01*
X126912969Y-76191009D02*
X126817731Y-76238628D01*
X126817731Y-76238628D02*
X126436779Y-76238628D01*
X127817731Y-76667200D02*
X127722493Y-76714819D01*
X127722493Y-76714819D02*
X127532017Y-76714819D01*
X127532017Y-76714819D02*
X127436779Y-76667200D01*
X127436779Y-76667200D02*
X127389160Y-76571961D01*
X127389160Y-76571961D02*
X127389160Y-76191009D01*
X127389160Y-76191009D02*
X127436779Y-76095771D01*
X127436779Y-76095771D02*
X127532017Y-76048152D01*
X127532017Y-76048152D02*
X127722493Y-76048152D01*
X127722493Y-76048152D02*
X127817731Y-76095771D01*
X127817731Y-76095771D02*
X127865350Y-76191009D01*
X127865350Y-76191009D02*
X127865350Y-76286247D01*
X127865350Y-76286247D02*
X127389160Y-76381485D01*
X128198684Y-76048152D02*
X128436779Y-76714819D01*
X128436779Y-76714819D02*
X128674874Y-76048152D01*
X130341541Y-76714819D02*
X129770113Y-76714819D01*
X130055827Y-76714819D02*
X130055827Y-75714819D01*
X130055827Y-75714819D02*
X129960589Y-75857676D01*
X129960589Y-75857676D02*
X129865351Y-75952914D01*
X129865351Y-75952914D02*
X129770113Y-76000533D01*
D11*
%TO.C,R62*%
X113493283Y-72739316D02*
X113710564Y-72522035D01*
X114030684Y-73276717D02*
X114247965Y-73059436D01*
%TO.C,C48*%
X101570000Y-72777836D02*
X101570000Y-72562164D01*
X102290000Y-72777836D02*
X102290000Y-72562164D01*
%TO.C,R33*%
X125815400Y-95859242D02*
X125815400Y-95551960D01*
X126575400Y-95859242D02*
X126575400Y-95551960D01*
%TO.C,C51*%
X101570002Y-74452162D02*
X101570002Y-74667834D01*
X102290002Y-74452162D02*
X102290002Y-74667834D01*
%TO.C,C20*%
X112198601Y-74052282D02*
X112351104Y-73899779D01*
X112707718Y-74561399D02*
X112860221Y-74408896D01*
%TO.C,R51*%
X127115400Y-95531962D02*
X127115400Y-95839244D01*
X127875400Y-95531962D02*
X127875400Y-95839244D01*
%TO.C,R9*%
X128415400Y-95859242D02*
X128415400Y-95551960D01*
X129175400Y-95859242D02*
X129175400Y-95551960D01*
%TO.C,U5*%
X103725002Y-75372497D02*
X103725002Y-74772497D01*
X103725002Y-75372497D02*
X103725002Y-75972497D01*
X105595002Y-75372497D02*
X105595002Y-74772497D01*
X105595002Y-75372497D02*
X105595002Y-75972497D01*
X104400002Y-77012497D02*
X103920002Y-77012497D01*
X104160002Y-76682496D01*
X104400002Y-77012497D01*
G36*
X104400002Y-77012497D02*
G01*
X103920002Y-77012497D01*
X104160002Y-76682496D01*
X104400002Y-77012497D01*
G37*
%TO.C,R78*%
X111699316Y-73153283D02*
X111482035Y-73370564D01*
X112236717Y-73690684D02*
X112019436Y-73907965D01*
D12*
%TO.C,U3*%
X116448418Y-85278234D02*
X117509078Y-84217574D01*
X116448418Y-85278234D02*
X117509078Y-86338894D01*
X120691059Y-81035593D02*
X119630399Y-82096253D01*
X120691059Y-81035593D02*
X121751719Y-82096253D01*
X120691059Y-89520875D02*
X119630399Y-88460215D01*
X120691059Y-89520875D02*
X121751719Y-88460215D01*
X124933700Y-85278234D02*
X123873040Y-84217574D01*
X124933700Y-85278234D02*
X123873040Y-86338894D01*
D13*
X121498166Y-89520875D02*
G75*
G02*
X121298166Y-89520875I-100000J0D01*
G01*
X121298166Y-89520875D02*
G75*
G02*
X121498166Y-89520875I100000J0D01*
G01*
%TO.C,L3*%
X104270003Y-73659997D02*
X104270003Y-72059999D01*
%TD*%
M02*
