%TF.GenerationSoftware,KiCad,Pcbnew,9.0.2*%
%TF.CreationDate,2025-11-14T17:05:06-08:00*%
%TF.ProjectId,pico2-nx-module,7069636f-322d-46e7-982d-6d6f64756c65,rev?*%
%TF.SameCoordinates,Original*%
%TF.FileFunction,Copper,L1,Top*%
%TF.FilePolarity,Positive*%
%FSLAX46Y46*%
G04 Gerber Fmt 4.6, Leading zero omitted, Abs format (unit mm)*
G04 Created by KiCad (PCBNEW 9.0.2) date 2025-11-14 17:05:06*
%MOMM*%
%LPD*%
G01*
G04 APERTURE LIST*
G04 Aperture macros list*
%AMRoundRect*
0 Rectangle with rounded corners*
0 $1 Rounding radius*
0 $2 $3 $4 $5 $6 $7 $8 $9 X,Y pos of 4 corners*
0 Add a 4 corners polygon primitive as box body*
4,1,4,$2,$3,$4,$5,$6,$7,$8,$9,$2,$3,0*
0 Add four circle primitives for the rounded corners*
1,1,$1+$1,$2,$3*
1,1,$1+$1,$4,$5*
1,1,$1+$1,$6,$7*
1,1,$1+$1,$8,$9*
0 Add four rect primitives between the rounded corners*
20,1,$1+$1,$2,$3,$4,$5,0*
20,1,$1+$1,$4,$5,$6,$7,0*
20,1,$1+$1,$6,$7,$8,$9,0*
20,1,$1+$1,$8,$9,$2,$3,0*%
G04 Aperture macros list end*
%TA.AperFunction,SMDPad,CuDef*%
%ADD10RoundRect,0.135000X0.035355X-0.226274X0.226274X-0.035355X-0.035355X0.226274X-0.226274X0.035355X0*%
%TD*%
%TA.AperFunction,SMDPad,CuDef*%
%ADD11RoundRect,0.140000X0.170000X-0.140000X0.170000X0.140000X-0.170000X0.140000X-0.170000X-0.140000X0*%
%TD*%
%TA.AperFunction,SMDPad,CuDef*%
%ADD12RoundRect,0.135000X0.185000X-0.135000X0.185000X0.135000X-0.185000X0.135000X-0.185000X-0.135000X0*%
%TD*%
%TA.AperFunction,SMDPad,CuDef*%
%ADD13RoundRect,0.140000X-0.170000X0.140000X-0.170000X-0.140000X0.170000X-0.140000X0.170000X0.140000X0*%
%TD*%
%TA.AperFunction,SMDPad,CuDef*%
%ADD14RoundRect,0.140000X0.021213X-0.219203X0.219203X-0.021213X-0.021213X0.219203X-0.219203X0.021213X0*%
%TD*%
%TA.AperFunction,SMDPad,CuDef*%
%ADD15C,0.500000*%
%TD*%
%TA.AperFunction,SMDPad,CuDef*%
%ADD16RoundRect,0.135000X-0.185000X0.135000X-0.185000X-0.135000X0.185000X-0.135000X0.185000X0.135000X0*%
%TD*%
%TA.AperFunction,SMDPad,CuDef*%
%ADD17RoundRect,0.100000X-0.130000X-0.100000X0.130000X-0.100000X0.130000X0.100000X-0.130000X0.100000X0*%
%TD*%
%TA.AperFunction,SMDPad,CuDef*%
%ADD18RoundRect,0.100000X-0.100000X0.130000X-0.100000X-0.130000X0.100000X-0.130000X0.100000X0.130000X0*%
%TD*%
%TA.AperFunction,SMDPad,CuDef*%
%ADD19RoundRect,0.087500X0.087500X-0.250000X0.087500X0.250000X-0.087500X0.250000X-0.087500X-0.250000X0*%
%TD*%
%TA.AperFunction,SMDPad,CuDef*%
%ADD20RoundRect,0.135000X-0.035355X0.226274X-0.226274X0.035355X0.035355X-0.226274X0.226274X-0.035355X0*%
%TD*%
%TA.AperFunction,SMDPad,CuDef*%
%ADD21RoundRect,0.100000X0.021213X0.162635X-0.162635X-0.021213X-0.021213X-0.162635X0.162635X0.021213X0*%
%TD*%
%TA.AperFunction,SMDPad,CuDef*%
%ADD22C,0.266700*%
%TD*%
%TA.AperFunction,SMDPad,CuDef*%
%ADD23RoundRect,0.100000X-0.021213X-0.162635X0.162635X0.021213X0.021213X0.162635X-0.162635X-0.021213X0*%
%TD*%
%TA.AperFunction,SMDPad,CuDef*%
%ADD24R,0.800000X1.800000*%
%TD*%
%TA.AperFunction,SMDPad,CuDef*%
%ADD25RoundRect,0.100000X0.130000X0.100000X-0.130000X0.100000X-0.130000X-0.100000X0.130000X-0.100000X0*%
%TD*%
%TA.AperFunction,ViaPad*%
%ADD26C,0.254000*%
%TD*%
%TA.AperFunction,ViaPad*%
%ADD27C,0.508000*%
%TD*%
%TA.AperFunction,Conductor*%
%ADD28C,0.254000*%
%TD*%
%TA.AperFunction,Conductor*%
%ADD29C,0.127000*%
%TD*%
%TA.AperFunction,Conductor*%
%ADD30C,0.156464*%
%TD*%
%TA.AperFunction,Conductor*%
%ADD31C,0.304800*%
%TD*%
%TA.AperFunction,Conductor*%
%ADD32C,0.203200*%
%TD*%
%TA.AperFunction,Conductor*%
%ADD33C,0.076200*%
%TD*%
%TA.AperFunction,Conductor*%
%ADD34C,0.103378*%
%TD*%
%TA.AperFunction,Conductor*%
%ADD35C,0.106680*%
%TD*%
G04 APERTURE END LIST*
D10*
%TO.P,R62,1*%
%TO.N,/FPGA/SRAM_CEN*%
X113510000Y-73260000D03*
%TO.P,R62,2*%
%TO.N,P1V8D_FPGA*%
X114231248Y-72538752D03*
%TD*%
D11*
%TO.P,C48,1*%
%TO.N,P1VD_FPGA*%
X101930000Y-73150000D03*
%TO.P,C48,2*%
%TO.N,GND*%
X101930000Y-72190000D03*
%TD*%
D12*
%TO.P,R33,1*%
%TO.N,/FPGA/SD2*%
X126195400Y-96215600D03*
%TO.P,R33,2*%
%TO.N,P3V3D_FPGA*%
X126195400Y-95195602D03*
%TD*%
D13*
%TO.P,C51,1*%
%TO.N,P1VD_FPGA*%
X101930002Y-74079998D03*
%TO.P,C51,2*%
%TO.N,GND*%
X101930002Y-75039998D03*
%TD*%
D14*
%TO.P,C20,1*%
%TO.N,P1V8D_FPGA*%
X112190000Y-74570000D03*
%TO.P,C20,2*%
%TO.N,GND*%
X112868822Y-73891178D03*
%TD*%
D15*
%TO.P,FID2,*%
%TO.N,*%
X133000000Y-73000000D03*
%TD*%
D16*
%TO.P,R51,1*%
%TO.N,/FPGA/SD3*%
X127495400Y-95175604D03*
%TO.P,R51,2*%
%TO.N,P3V3D_FPGA*%
X127495400Y-96195602D03*
%TD*%
D17*
%TO.P,C18,1*%
%TO.N,P3V3D_FPGA*%
X128811600Y-93015200D03*
%TO.P,C18,2*%
%TO.N,GND*%
X129451600Y-93015200D03*
%TD*%
D18*
%TO.P,C6,1*%
%TO.N,P1VD_FPGA*%
X103180000Y-75549998D03*
%TO.P,C6,2*%
%TO.N,Net-(U5-FB)*%
X103180000Y-76189998D03*
%TD*%
D12*
%TO.P,R9,1*%
%TO.N,/FPGA/FLASH_CSn*%
X128795400Y-96215600D03*
%TO.P,R9,2*%
%TO.N,P3V3D_FPGA*%
X128795400Y-95195602D03*
%TD*%
D19*
%TO.P,U5,1,FB*%
%TO.N,Net-(U5-FB)*%
X104160002Y-76084997D03*
%TO.P,U5,2,GND*%
%TO.N,GND*%
X104660002Y-76084998D03*
%TO.P,U5,3,VIN*%
%TO.N,P5VD_AON*%
X105160002Y-76084997D03*
%TO.P,U5,4,SW*%
%TO.N,Net-(U5-SW)*%
X105160002Y-74659997D03*
%TO.P,U5,5,EN*%
%TO.N,/FPGA/FPGA_EN*%
X104660002Y-74659996D03*
%TO.P,U5,6,PG*%
%TO.N,Net-(U5-PG)*%
X104160002Y-74659997D03*
%TD*%
D15*
%TO.P,FID3,*%
%TO.N,*%
X133000000Y-97000000D03*
%TD*%
D20*
%TO.P,R78,1*%
%TO.N,/FPGA/SRAM_RSTn*%
X112220000Y-73170000D03*
%TO.P,R78,2*%
%TO.N,P1V8D_FPGA*%
X111498752Y-73891248D03*
%TD*%
D21*
%TO.P,C21,1*%
%TO.N,P1V8D_FPGA*%
X115800226Y-77519774D03*
%TO.P,C21,2*%
%TO.N,GND*%
X115347678Y-77972322D03*
%TD*%
D22*
%TO.P,U3,A1,JTAG_EN*%
%TO.N,/FPGA/JTAG_EN*%
X120691059Y-88813768D03*
%TO.P,U3,A2,PR5B/TDO/SSO*%
%TO.N,/FPGA/TDO*%
X120337506Y-88460215D03*
%TO.P,U3,A3,PR5A/TDI/SSI*%
%TO.N,/FPGA/TDI*%
X119983952Y-88106661D03*
%TO.P,U3,A4,VCCADPHY1*%
%TO.N,Net-(U3G-VCCADPHY1)*%
X119630399Y-87753108D03*
%TO.P,U3,A5,DPHY1_DP3*%
%TO.N,/FPGA/DPHY1.D3+*%
X119276845Y-87399554D03*
%TO.P,U3,A6,DPHY1_DP1*%
%TO.N,/FPGA/DPHY1.D1+*%
X118923292Y-87046001D03*
%TO.P,U3,A7,DPHY1_CKP*%
%TO.N,/FPGA/DPHY1.CLK+*%
X118569739Y-86692448D03*
%TO.P,U3,A8,DPHY1_DP0*%
%TO.N,/FPGA/DPHY1.D0+*%
X118216185Y-86338894D03*
%TO.P,U3,A9,DPHY1_DP2*%
%TO.N,/FPGA/DPHY1.D2+*%
X117862632Y-85985341D03*
%TO.P,U3,A10,DPHY0_DN3*%
%TO.N,/FPGA/DPHY0.D3-*%
X117509078Y-85631787D03*
%TO.P,U3,A11,DPHY0_DP3*%
%TO.N,/FPGA/DPHY0.D3+*%
X117155525Y-85278234D03*
%TO.P,U3,B1,PR3B/TMS/SCSN*%
%TO.N,/FPGA/TMS*%
X121044612Y-88460215D03*
%TO.P,U3,B2,PR7A/SDA*%
%TO.N,/FPGA/PR7P*%
X120691059Y-88106661D03*
%TO.P,U3,B3,PT67A*%
%TO.N,/FPGA/PT67P*%
X120337506Y-87753108D03*
%TO.P,U3,B4,VSSADPHY*%
%TO.N,GND*%
X119983952Y-87399554D03*
%TO.P,U3,B5,DPHY1_DN3*%
%TO.N,/FPGA/DPHY1.D3-*%
X119630399Y-87046001D03*
%TO.P,U3,B6,DPHY1_DN1*%
%TO.N,/FPGA/DPHY1.D1-*%
X119276845Y-86692448D03*
%TO.P,U3,B7,DPHY1_CKN*%
%TO.N,/FPGA/DPHY1.CLK-*%
X118923292Y-86338894D03*
%TO.P,U3,B8,DPHY1_DN0*%
%TO.N,/FPGA/DPHY1.D0-*%
X118569739Y-85985341D03*
%TO.P,U3,B9,DPHY1_DN2*%
%TO.N,/FPGA/DPHY1.D2-*%
X118216185Y-85631787D03*
%TO.P,U3,B10,DPHY0_DN1*%
%TO.N,/FPGA/DPHY0.D1-*%
X117862632Y-85278234D03*
%TO.P,U3,B11,DPHY0_DP1*%
%TO.N,/FPGA/DPHY0.D1+*%
X117509078Y-84924681D03*
%TO.P,U3,C1,PR9A/TCK/SCLK*%
%TO.N,/FPGA/TCK*%
X121398166Y-88106661D03*
%TO.P,U3,C2,PR7B/SCL*%
%TO.N,/FPGA/PR7N*%
X121044612Y-87753108D03*
%TO.P,U3,C3,PT67B*%
%TO.N,/FPGA/PT67N*%
X120691059Y-87399554D03*
%TO.P,U3,C4,VCCDPHY1*%
%TO.N,Net-(U3G-VCCDPHY1)*%
X120337506Y-87046001D03*
%TO.P,U3,C5,VSSADPHY*%
%TO.N,GND*%
X119983952Y-86692448D03*
%TO.P,U3,C6,VCCPLLDPHY1*%
%TO.N,Net-(U3G-VCCPLLDPHY1)*%
X119630399Y-86338894D03*
%TO.P,U3,C7,VSSADPHY*%
%TO.N,GND*%
X119276845Y-85985341D03*
%TO.P,U3,C8,VCCPLLDPHY0*%
%TO.N,Net-(U3F-VCCPLLDPHY0)*%
X118923292Y-85631787D03*
%TO.P,U3,C9,VSSADPHY*%
%TO.N,GND*%
X118569739Y-85278234D03*
%TO.P,U3,C10,DPHY0_CKN*%
%TO.N,/FPGA/DPHY0.CLK-*%
X118216185Y-84924681D03*
%TO.P,U3,C11,DPHY0_CKP*%
%TO.N,/FPGA/DPHY0.CLK+*%
X117862632Y-84571127D03*
%TO.P,U3,D1,PR9B*%
%TO.N,Net-(U3B-PR9B)*%
X121751719Y-87753108D03*
%TO.P,U3,D2,VCCIO1*%
%TO.N,PVIO1_FPGA*%
X121398166Y-87399554D03*
%TO.P,U3,D3,VSS*%
%TO.N,GND*%
X121044612Y-87046001D03*
%TO.P,U3,D4,VCCIO0*%
%TO.N,P3V3D_FPGA*%
X120691059Y-86692448D03*
%TO.P,U3,D5,PT63B/MD2*%
%TO.N,/FPGA/SD2*%
X120337506Y-86338894D03*
%TO.P,U3,D6,PT61B/MOSI/MD0*%
%TO.N,/FPGA/MOSI*%
X119983952Y-85985341D03*
%TO.P,U3,D7,PT59B/DONE*%
%TO.N,/FPGA/DONE*%
X119630399Y-85631787D03*
%TO.P,U3,D8,PT57B/PROGRAMN*%
%TO.N,/FPGA/PROGRAMn*%
X119276845Y-85278234D03*
%TO.P,U3,D9,VCCDPHY0*%
%TO.N,Net-(U3F-VCCDPHY0)*%
X118923292Y-84924681D03*
%TO.P,U3,D10,DPHY0_DN0*%
%TO.N,/FPGA/DPHY0.D0-*%
X118569739Y-84571127D03*
%TO.P,U3,D11,DPHY0_DP0*%
%TO.N,/FPGA/DPHY0.D0+*%
X118216185Y-84217574D03*
%TO.P,U3,E1,PR11B/PCLKT1_2*%
%TO.N,/FPGA/PR11N*%
X122105273Y-87399554D03*
%TO.P,U3,E2,PR11A*%
%TO.N,/FPGA/PR11P*%
X121751719Y-87046001D03*
%TO.P,U3,E3,PT65B/MCSNO/MSDO*%
%TO.N,/FPGA/PT65B*%
X121398166Y-86692448D03*
%TO.P,U3,E4,PT65A/MD3*%
%TO.N,/FPGA/SD3*%
X121044612Y-86338894D03*
%TO.P,U3,E5,PT63A/MISO/MD1*%
%TO.N,/FPGA/MISO*%
X120691059Y-85985341D03*
%TO.P,U3,E6,PT61A/MCSN/PCLKT0_1*%
%TO.N,/FPGA/FLASH_CSn*%
X120337506Y-85631787D03*
%TO.P,U3,E7,PT59A/MCLK/PCLKT0_0*%
%TO.N,Net-(U3A-PT59A{slash}MCLK{slash}PCLKT0_0)*%
X119983952Y-85278234D03*
%TO.P,U3,E8,PT57A/INITN*%
%TO.N,/FPGA/PT57A*%
X119630399Y-84924681D03*
%TO.P,U3,E9,VCC*%
%TO.N,P1VD_FPGA*%
X119276845Y-84571127D03*
%TO.P,U3,E10,DPHY0_DN2*%
%TO.N,/FPGA/DPHY0.D2-*%
X118923292Y-84217574D03*
%TO.P,U3,E11,DPHY0_DP2*%
%TO.N,/FPGA/DPHY0.D2+*%
X118569739Y-83864020D03*
%TO.P,U3,F1,PR13B/PCLKT1_0*%
%TO.N,/FPGA/PR13N*%
X122458826Y-87046001D03*
%TO.P,U3,F2,PR13A/PCLKT1_1*%
%TO.N,/FPGA/PR13P*%
X122105273Y-86692448D03*
%TO.P,U3,F3,VSS*%
%TO.N,GND*%
X121751719Y-86338894D03*
%TO.P,U3,F4,VCC*%
%TO.N,P1VD_FPGA*%
X121398166Y-85985341D03*
%TO.P,U3,F5,PB50A*%
%TO.N,/FPGA/PB50A*%
X121044612Y-85631787D03*
%TO.P,U3,F6,PB48B/PCLKC4_2*%
%TO.N,/FPGA/SRAM_DQ3*%
X120691059Y-85278234D03*
%TO.P,U3,F7,PB48A/PCLKT4_2*%
%TO.N,/FPGA/SRAM_DQ4*%
X120337506Y-84924681D03*
%TO.P,U3,F8,VCCECLK*%
%TO.N,P1VD_FPGA*%
X119983952Y-84571127D03*
%TO.P,U3,F9,VSS*%
%TO.N,GND*%
X119630399Y-84217574D03*
%TO.P,U3,F10,VCCADPHY0*%
%TO.N,Net-(U3F-VCCADPHY0)*%
X119276845Y-83864020D03*
%TO.P,U3,F11,VSSADPHY*%
%TO.N,GND*%
X118923292Y-83510467D03*
%TO.P,U3,G1,PB70B/LRC_GPLL0C_IN/VREF3_2*%
%TO.N,/FPGA/PB70N*%
X122812379Y-86692448D03*
%TO.P,U3,G2,PB70A/LRC_GPLL0T_IN*%
%TO.N,/FPGA/PB70P*%
X122458826Y-86338894D03*
%TO.P,U3,G3,VCCAUX*%
%TO.N,/FPGA/PVCCAUX*%
X122105273Y-85985341D03*
%TO.P,U3,G4,PB60A/PCLKT3_1/ADC_CP6*%
%TO.N,/FPGA/PB60P*%
X121751719Y-85631787D03*
%TO.P,U3,G5,PB50B*%
%TO.N,/FPGA/PB50B*%
X121398166Y-85278234D03*
%TO.P,U3,G6,VCCAUXH4*%
%TO.N,/FPGA/PVCCAUX*%
X121044612Y-84924681D03*
%TO.P,U3,G7,PB46A*%
%TO.N,/FPGA/SRAM_RW*%
X120691059Y-84571127D03*
%TO.P,U3,G8,PB46B*%
%TO.N,/FPGA/SRAM_CEN*%
X120337506Y-84217574D03*
%TO.P,U3,G9,VCCAUXH5*%
%TO.N,Net-(U3H-VCCAUXH5)*%
X119983952Y-83864020D03*
%TO.P,U3,G10,PB16B/CDR_RXN0/ADC_CN0/COMP1N*%
%TO.N,/FPGA/PB16N*%
X119630399Y-83510467D03*
%TO.P,U3,G11,PB16A/CDR_RXP0/VREF5_1/ADC_CP0/COMP1P*%
%TO.N,/FPGA/PB16P*%
X119276845Y-83156914D03*
%TO.P,U3,H1,PB68A/PCLKT3_3/ADC_CP14*%
%TO.N,/FPGA/PB68P*%
X123165933Y-86338894D03*
%TO.P,U3,H2,PB68B/PCLKC3_3/ADC_CN14*%
%TO.N,/FPGA/PB68N*%
X122812379Y-85985341D03*
%TO.P,U3,H3,VCCAUX*%
%TO.N,/FPGA/PVCCAUX*%
X122458826Y-85631787D03*
%TO.P,U3,H4,PB60B/PCLKC3_1/ADC_CN6*%
%TO.N,/FPGA/PB60N*%
X122105273Y-85278234D03*
%TO.P,U3,H5,PB52A/PCLKT4_1*%
%TO.N,/FPGA/PB52A*%
X121751719Y-84924681D03*
%TO.P,U3,H6,VSS*%
%TO.N,GND*%
X121398166Y-84571127D03*
%TO.P,U3,H7,PB44B*%
%TO.N,/FPGA/SRAM_DQ7*%
X121044612Y-84217574D03*
%TO.P,U3,H8,PB44A*%
%TO.N,/FPGA/SRAM_DQ2*%
X120691059Y-83864020D03*
%TO.P,U3,H9,VSS*%
%TO.N,GND*%
X120337506Y-83510467D03*
%TO.P,U3,H10,PB18B/PCLKC5_0/CDR_RXN1/ADC_CN1/COMP2N*%
%TO.N,/FPGA/PB18N*%
X119983952Y-83156914D03*
%TO.P,U3,H11,PB18A/PCLKT5_0/CDR_RXP1/ADC_CP1/COMP2P*%
%TO.N,/FPGA/PB18P*%
X119630399Y-82803360D03*
%TO.P,U3,J1,PB66A/PCLKT3_2/ADC_CP13*%
%TO.N,/FPGA/PB66P*%
X123519486Y-85985341D03*
%TO.P,U3,J2,PB66B/PCLKC3_2/ADC_CN13*%
%TO.N,/FPGA/PB66N*%
X123165933Y-85631787D03*
%TO.P,U3,J3,VSS*%
%TO.N,GND*%
X122812379Y-85278234D03*
%TO.P,U3,J4,PB58A/ADC_CP7*%
%TO.N,/FPGA/PB58P*%
X122458826Y-84924681D03*
%TO.P,U3,J5,PB52B/PCLKC4_1*%
%TO.N,/FPGA/PB52B*%
X122105273Y-84571127D03*
%TO.P,U3,J6,VCCIO4*%
%TO.N,P1V8D_FPGA*%
X121751719Y-84217574D03*
%TO.P,U3,J7,PB28B*%
%TO.N,/FPGA/PB28N*%
X121398166Y-83864020D03*
%TO.P,U3,J8,PB42A/PCLKT4_3*%
%TO.N,/FPGA/SRAM_DQ1*%
X121044612Y-83510467D03*
%TO.P,U3,J9,VCCIO5*%
%TO.N,PVIO5_FPGA*%
X120691059Y-83156914D03*
%TO.P,U3,J10,PB20B/PCLKC5_1/LLC_GPLL0C_IN/ADC_CN3*%
%TO.N,/FPGA/PB20N*%
X120337506Y-82803360D03*
%TO.P,U3,J11,PB20A/PCLKT5_1/LLC_GPLL0T_IN/ADC_CP3*%
%TO.N,/FPGA/PB20P*%
X119983952Y-82449807D03*
%TO.P,U3,K1,PB64A/ADC_CP8*%
%TO.N,/FPGA/PB64P*%
X123873040Y-85631787D03*
%TO.P,U3,K2,PB64B/ADC_CN8*%
%TO.N,/FPGA/PB64N*%
X123519486Y-85278234D03*
%TO.P,U3,K3,VCCIO3*%
%TO.N,PVIO3_FPGA*%
X123165933Y-84924681D03*
%TO.P,U3,K4,PB58B/ADC_CN7*%
%TO.N,/FPGA/PB58N*%
X122812379Y-84571127D03*
%TO.P,U3,K5,PB54B/PCLKC4_0/VREF4_2*%
%TO.N,/FPGA/SRAM_CLK_P*%
X122458826Y-84217574D03*
%TO.P,U3,K6,PB24B*%
%TO.N,/FPGA/PB24N*%
X122105273Y-83864020D03*
%TO.P,U3,K7,PB28A*%
%TO.N,/FPGA/PB28P*%
X121751719Y-83510467D03*
%TO.P,U3,K8,PB42B/PCLKC4_3*%
%TO.N,/FPGA/SRAM_DQ0*%
X121398166Y-83156914D03*
%TO.P,U3,K9,PB40B*%
%TO.N,/FPGA/SRAM_DQ5*%
X121044612Y-82803360D03*
%TO.P,U3,K10,PB30B/PCLKC5_3/VREF5_2*%
%TO.N,/FPGA/PB30N*%
X120691059Y-82449807D03*
%TO.P,U3,K11,PB26A/PCLKT5_2/ADC_CP2/COMP3P*%
%TO.N,/FPGA/PB26P*%
X120337506Y-82096253D03*
%TO.P,U3,L1,PB62B/ADC_CN9*%
%TO.N,/FPGA/PB62N*%
X124226593Y-85278234D03*
%TO.P,U3,L2,PB62A/ADC_CP9*%
%TO.N,/FPGA/PB62P*%
X123873040Y-84924681D03*
%TO.P,U3,L3,PB56B/PCLKC3_0/ADC_CN5*%
%TO.N,/FPGA/PB56N*%
X123519486Y-84571127D03*
%TO.P,U3,L4,PB56A/PCLKT3_0/VREF3_1/ADC_CP5*%
%TO.N,/FPGA/PB56P*%
X123165933Y-84217574D03*
%TO.P,U3,L5,PB54A/PCLKT4_0*%
%TO.N,/FPGA/SRAM_CLK_N*%
X122812379Y-83864020D03*
%TO.P,U3,L6,PB24A*%
%TO.N,/FPGA/PB24P*%
X122458826Y-83510467D03*
%TO.P,U3,L7,PB22A*%
%TO.N,/FPGA/PB22P*%
X122105273Y-83156914D03*
%TO.P,U3,L8,PB22B*%
%TO.N,/FPGA/PB22N*%
X121751719Y-82803360D03*
%TO.P,U3,L9,PB40A/VREF4_1*%
%TO.N,/FPGA/SRAM_DQ6*%
X121398166Y-82449807D03*
%TO.P,U3,L10,PB30A/PCLKT5_3*%
%TO.N,/FPGA/PB30P*%
X121044612Y-82096253D03*
%TO.P,U3,L11,PB26B/PCLKC5_2/ADC_CN2/COMP3N*%
%TO.N,/FPGA/PB26N*%
X120691059Y-81742700D03*
%TD*%
D23*
%TO.P,C23,1*%
%TO.N,P1V8D_FPGA*%
X113710000Y-75340000D03*
%TO.P,C23,2*%
%TO.N,GND*%
X114162548Y-74887452D03*
%TD*%
D15*
%TO.P,FID1,*%
%TO.N,*%
X103000000Y-97000000D03*
%TD*%
D24*
%TO.P,L3,1,1*%
%TO.N,Net-(U5-SW)*%
X105070002Y-72859998D03*
%TO.P,L3,2,2*%
%TO.N,P1VD_FPGA*%
X103470004Y-72859998D03*
%TD*%
D25*
%TO.P,C22,1*%
%TO.N,P1V8D_FPGA*%
X117250000Y-74650000D03*
%TO.P,C22,2*%
%TO.N,GND*%
X116610000Y-74650000D03*
%TD*%
D26*
%TO.N,GND*%
X101788460Y-90194400D03*
D27*
X106060000Y-73510000D03*
D26*
X103188460Y-87794400D03*
X133410000Y-82600000D03*
D27*
X121250000Y-73810000D03*
D26*
X103200000Y-85000000D03*
X122812379Y-85278234D03*
X101788460Y-84194400D03*
X103188460Y-84194400D03*
X103835812Y-81362184D03*
X116610000Y-74650000D03*
X123900000Y-74900000D03*
X123900000Y-83300000D03*
X100670000Y-77860000D03*
X105700000Y-89000000D03*
X107400000Y-92506850D03*
X133410000Y-83800000D03*
D27*
X124188800Y-98196800D03*
D26*
X118923292Y-83510467D03*
X123900000Y-82100000D03*
X100658378Y-79920000D03*
X121398166Y-84571127D03*
X106040000Y-78810000D03*
X133420000Y-91000000D03*
X101750000Y-78890000D03*
X119983952Y-86692447D03*
D27*
X102620000Y-75040000D03*
D26*
X100680000Y-81130000D03*
X120337505Y-83510467D03*
X121751719Y-86338894D03*
X133420000Y-86200000D03*
D27*
X105270000Y-77360000D03*
D26*
X104416814Y-90162715D03*
D27*
X130259400Y-93497800D03*
D26*
X133410000Y-85000000D03*
X120621178Y-89516439D03*
X103084000Y-82237666D03*
X123900000Y-77300000D03*
X123900000Y-73700000D03*
X101788460Y-91394400D03*
D27*
X125340768Y-91300000D03*
D26*
X112868822Y-73891178D03*
X115140000Y-78710000D03*
X115130000Y-78198427D03*
X107400000Y-91320000D03*
X119630399Y-84217574D03*
X100660000Y-79110000D03*
X123900000Y-80900000D03*
X114422893Y-74662893D03*
X121044612Y-87046001D03*
X106040023Y-77649129D03*
X113540000Y-83510000D03*
X133410000Y-80200000D03*
X119983952Y-87399554D03*
X104430000Y-91390000D03*
X133410000Y-81400000D03*
X101770000Y-80892931D03*
X133410000Y-79000000D03*
X119276845Y-85985341D03*
X101190000Y-80580000D03*
X129451600Y-93015200D03*
X123900000Y-79700000D03*
X101788460Y-87794400D03*
X133420000Y-88600000D03*
X133420000Y-89800000D03*
X101788460Y-85394400D03*
X123900000Y-76100000D03*
X124500000Y-87390000D03*
X118569739Y-85278234D03*
X133420000Y-87400000D03*
X123900000Y-78500000D03*
X101190000Y-78470000D03*
X101788460Y-88994400D03*
X107410000Y-93700000D03*
D27*
X103940000Y-95370000D03*
D26*
X101810000Y-81856828D03*
X103188460Y-88994400D03*
X101788460Y-86594400D03*
D27*
%TO.N,P5VD_AON*%
X106060001Y-76079997D03*
D26*
%TO.N,Net-(U5-FB)*%
X104160002Y-76085000D03*
%TO.N,P3V3D_FPGA*%
X118079973Y-90700000D03*
X120691059Y-86692447D03*
X117557707Y-90177734D03*
X128805400Y-93008985D03*
D27*
X107110691Y-81800691D03*
D26*
%TO.N,P1V8D_FPGA*%
X115530000Y-77240000D03*
D27*
X121640768Y-92349286D03*
D26*
X121751719Y-84217574D03*
D27*
X117270461Y-80500000D03*
D26*
X114850000Y-72560000D03*
X117251320Y-74662893D03*
X113715786Y-75370000D03*
D27*
X107970000Y-73570000D03*
D26*
X115837107Y-77491320D03*
X112177504Y-74570000D03*
%TO.N,P1VD_FPGA*%
X119276845Y-84571127D03*
X119983952Y-84571127D03*
X121398166Y-85985341D03*
D27*
X102640001Y-73149997D03*
D26*
%TO.N,Net-(U3F-VCCPLLDPHY0)*%
X118923292Y-85631787D03*
%TO.N,Net-(U3F-VCCDPHY0)*%
X118923292Y-84924680D03*
%TO.N,Net-(U3G-VCCPLLDPHY1)*%
X119630399Y-86338894D03*
%TO.N,Net-(U3G-VCCDPHY1)*%
X120337505Y-87046001D03*
%TO.N,Net-(U3F-VCCADPHY0)*%
X119272545Y-83859720D03*
%TO.N,Net-(U3G-VCCADPHY1)*%
X119080000Y-89390000D03*
%TO.N,/FPGA/PVCCAUX*%
X122105272Y-85985341D03*
X122458826Y-85631787D03*
X121044612Y-84924680D03*
%TO.N,Net-(U3H-VCCAUXH5)*%
X119983952Y-83864020D03*
%TO.N,PVIO5_FPGA*%
X120691059Y-83156913D03*
D27*
X106890000Y-73580000D03*
D26*
%TO.N,PVIO1_FPGA*%
X121398166Y-87400000D03*
%TO.N,PVIO3_FPGA*%
X123165933Y-84924681D03*
D27*
X109050000Y-73650000D03*
X128506800Y-91567400D03*
D26*
%TO.N,/FPGA/DPHY0.CLK-*%
X101385310Y-80911174D03*
%TO.N,/FPGA/DPHY1.CLK-*%
X103218512Y-88596850D03*
%TO.N,/FPGA/DONE*%
X119630399Y-85631787D03*
X105700000Y-84200000D03*
%TO.N,/FPGA/DPHY0.D0+*%
X100973893Y-78889288D03*
%TO.N,/FPGA/FPGA_EN*%
X105470000Y-75340000D03*
X107940000Y-81820000D03*
%TO.N,/FPGA/DPHY0.D2-*%
X106030000Y-78030000D03*
%TO.N,/FPGA/DPHY1.D3+*%
X104425902Y-90548529D03*
%TO.N,/FPGA/DPHY1.D2+*%
X101769040Y-87003150D03*
%TO.N,/FPGA/DPHY1.D2-*%
X101769040Y-87396850D03*
%TO.N,Net-(U5-PG)*%
X104150001Y-75260000D03*
%TO.N,Net-(U3B-PR9B)*%
X122048617Y-88111383D03*
%TO.N,/FPGA/DPHY0.D1+*%
X103320806Y-81939194D03*
%TO.N,/FPGA/PB52A*%
X127300000Y-87600000D03*
X121751719Y-84924680D03*
%TO.N,/FPGA/DPHY0.D2+*%
X106030000Y-78423700D03*
%TO.N,/FPGA/DPHY0.D3-*%
X101778711Y-84603150D03*
%TO.N,/FPGA/DPHY1.D1+*%
X101785012Y-89403150D03*
%TO.N,/FPGA/DPHY0.CLK+*%
X100991610Y-80911174D03*
%TO.N,/FPGA/DPHY1.D1-*%
X101785012Y-89796850D03*
%TO.N,/FPGA/DPHY1.D0-*%
X101758408Y-90996850D03*
%TO.N,/FPGA/DPHY0.D1-*%
X103599194Y-81660806D03*
%TO.N,/FPGA/JTAG_EN*%
X120691059Y-88813768D03*
X106200000Y-87400000D03*
%TO.N,/FPGA/TDO*%
X120337506Y-88460215D03*
X105700000Y-85800000D03*
%TO.N,/FPGA/TCK*%
X121710000Y-89450000D03*
X105700000Y-87400000D03*
%TO.N,/FPGA/TDI*%
X106600000Y-85800000D03*
X119983952Y-88106661D03*
%TO.N,/FPGA/TMS*%
X121044612Y-88460215D03*
X106700000Y-87400000D03*
%TO.N,/FPGA/PB52B*%
X122105272Y-84571127D03*
X128000000Y-87600000D03*
%TO.N,/FPGA/DPHY0.D0-*%
X101367593Y-78889288D03*
%TO.N,Net-(U3A-PT59A{slash}MCLK{slash}PCLKT0_0)*%
X124444060Y-91018071D03*
X119983952Y-85278234D03*
%TO.N,/FPGA/FLASH_CSn*%
X128795400Y-97845602D03*
X113748000Y-95352000D03*
X120337505Y-85631787D03*
%TO.N,/FPGA/SRAM_CEN*%
X117000000Y-79290000D03*
X113715786Y-73955786D03*
X120337505Y-84217574D03*
%TO.N,/FPGA/SRAM_RSTn*%
X113008680Y-74662893D03*
%TO.N,/FPGA/DPHY1.D0+*%
X101758408Y-90603150D03*
%TO.N,/FPGA/DPHY0.D3+*%
X101778711Y-84996850D03*
%TO.N,/FPGA/MOSI*%
X119983952Y-85985341D03*
X124995400Y-93595602D03*
X115100000Y-93727779D03*
%TO.N,/FPGA/SD3*%
X127545400Y-93595602D03*
X114206800Y-94793200D03*
X121044612Y-86338894D03*
%TO.N,/FPGA/DPHY1.CLK+*%
X103218512Y-88203150D03*
%TO.N,/FPGA/DPHY1.D3-*%
X104425902Y-90942229D03*
%TO.N,/FPGA/SCLK*%
X114665600Y-94234400D03*
X126245400Y-93645602D03*
%TO.N,/FPGA/SD2*%
X112758800Y-96469600D03*
X122700000Y-91694400D03*
X126245400Y-97845602D03*
X120337505Y-86338894D03*
%TO.N,/FPGA/SRAM_DQ7*%
X117958427Y-75370000D03*
X121044612Y-84217574D03*
%TO.N,/FPGA/SRAM_DQ5*%
X121044612Y-82803360D03*
X117605000Y-77245000D03*
%TO.N,/FPGA/SRAM_RW*%
X120691059Y-84571127D03*
X115130000Y-75370000D03*
%TO.N,/FPGA/MISO*%
X120691059Y-85985341D03*
X113266800Y-95910800D03*
X127545400Y-97845602D03*
%TO.N,/FPGA/SRAM_DQ3*%
X115130000Y-76784214D03*
X120691059Y-85278234D03*
%TO.N,/FPGA/SRAM_CLK_P*%
X122458826Y-84217574D03*
X115130000Y-73955786D03*
%TO.N,/FPGA/SRAM_DQ2*%
X120691059Y-83864020D03*
X116700000Y-78190000D03*
%TO.N,/FPGA/SRAM_DQ4*%
X114422893Y-77491320D03*
X120337506Y-84924681D03*
%TO.N,/FPGA/PT65B*%
X120850000Y-92250000D03*
%TO.N,/FPGA/SRAM_DQ6*%
X118910000Y-76610000D03*
X121398166Y-82449807D03*
%TO.N,/FPGA/SRAM_DQ0*%
X115837107Y-76077107D03*
X121398166Y-83156914D03*
%TO.N,/FPGA/SRAM_CLK_N*%
X115837107Y-73248680D03*
X122812379Y-83864020D03*
%TO.N,/FPGA/SRAM_DQ1*%
X121044612Y-83510467D03*
X116544214Y-75370000D03*
%TO.N,/FPGA/PROGRAMn*%
X106600000Y-84200000D03*
X119276845Y-85278234D03*
%TO.N,/FPGA/PT57A*%
X119630399Y-84924681D03*
X105700000Y-82600000D03*
%TO.N,/FPGA/PB50A*%
X121044612Y-85631787D03*
X125900000Y-87601000D03*
%TO.N,/FPGA/PB50B*%
X121398166Y-85278234D03*
X126600000Y-87600000D03*
%TO.N,/FPGA/PR11N*%
X133421741Y-90203150D03*
%TO.N,/FPGA/PB68P*%
X133410000Y-86996850D03*
%TO.N,/FPGA/PB64P*%
X133410000Y-84596850D03*
%TO.N,/FPGA/PB62P*%
X133410000Y-83003150D03*
%TO.N,/FPGA/PB58N*%
X122812379Y-84571127D03*
%TO.N,/FPGA/PB64N*%
X133410000Y-84203150D03*
%TO.N,/FPGA/PB58P*%
X122458826Y-84924680D03*
%TO.N,/FPGA/PB60N*%
X122105272Y-85278234D03*
%TO.N,/FPGA/PB62N*%
X133410000Y-83396850D03*
%TO.N,/FPGA/PR13N*%
X133410000Y-89003150D03*
%TO.N,/FPGA/PR13P*%
X133410000Y-89396850D03*
%TO.N,/FPGA/PB66N*%
X133410000Y-85403150D03*
%TO.N,/FPGA/PB68N*%
X133410000Y-86603150D03*
%TO.N,/FPGA/PB56P*%
X133410000Y-81803150D03*
%TO.N,/FPGA/PB60P*%
X121751719Y-85631787D03*
%TO.N,/FPGA/PB70P*%
X133410000Y-87803150D03*
%TO.N,/FPGA/PR11P*%
X133421741Y-90596850D03*
%TO.N,/FPGA/PB56N*%
X133410000Y-82196850D03*
%TO.N,/FPGA/PB66P*%
X133410000Y-85796850D03*
%TO.N,/FPGA/PB70N*%
X133410000Y-88196850D03*
%TO.N,/FPGA/PB18P*%
X123900000Y-75303150D03*
%TO.N,/FPGA/PB22N*%
X123900000Y-81303150D03*
%TO.N,/FPGA/PB26P*%
X123900000Y-77703150D03*
%TO.N,/FPGA/PB28P*%
X123900000Y-80518997D03*
%TO.N,/FPGA/PB24N*%
X123890910Y-82891468D03*
%TO.N,/FPGA/PB30P*%
X123900000Y-79296850D03*
%TO.N,/FPGA/PB16P*%
X123900000Y-74103150D03*
%TO.N,/FPGA/PB28N*%
X123900000Y-80125297D03*
%TO.N,/FPGA/PB22P*%
X123900000Y-81696850D03*
%TO.N,/FPGA/PB20P*%
X123900000Y-76503150D03*
%TO.N,/FPGA/PB20N*%
X123900000Y-76896850D03*
%TO.N,/FPGA/PB18N*%
X123900000Y-75696850D03*
%TO.N,/FPGA/PB16N*%
X123900000Y-74496850D03*
%TO.N,/FPGA/PB30N*%
X123900000Y-78903150D03*
%TO.N,/FPGA/PB26N*%
X123900000Y-78096850D03*
%TO.N,/FPGA/PB24P*%
X123890910Y-82497768D03*
%TO.N,/FPGA/PR7N*%
X107410000Y-93300550D03*
%TO.N,/FPGA/PT67P*%
X107400000Y-91710000D03*
%TO.N,/FPGA/PT67N*%
X107400000Y-92103700D03*
%TO.N,/FPGA/PR7P*%
X107410000Y-92906850D03*
%TD*%
D28*
%TO.N,GND*%
X112868822Y-73891178D02*
X113315430Y-74337786D01*
X115130000Y-78198427D02*
X115130000Y-78700000D01*
X115347678Y-77972322D02*
X115347678Y-77980749D01*
X114355786Y-74730000D02*
X114422893Y-74662893D01*
X115347678Y-77980749D02*
X115130000Y-78198427D01*
D29*
X102619998Y-75039998D02*
X102620000Y-75040000D01*
D28*
X113612882Y-74337786D02*
X114162548Y-74887452D01*
X104660002Y-76750002D02*
X105270000Y-77360000D01*
X101930002Y-75039998D02*
X102619998Y-75039998D01*
X113315430Y-74337786D02*
X113612882Y-74337786D01*
D30*
X115130000Y-78700000D02*
X115140000Y-78710000D01*
D28*
X104660002Y-76084998D02*
X104660002Y-76750002D01*
D31*
%TO.N,P5VD_AON*%
X105165002Y-76079997D02*
X105160000Y-76084999D01*
X106060001Y-76079997D02*
X105165002Y-76079997D01*
%TO.N,Net-(U5-FB)*%
X103180001Y-76189998D02*
X104055000Y-76190000D01*
X104055000Y-76190000D02*
X104160002Y-76085000D01*
D30*
%TO.N,P3V3D_FPGA*%
X128795400Y-95195602D02*
X128795400Y-93018985D01*
X127495400Y-96195602D02*
X126495400Y-95195602D01*
X128495400Y-95195602D02*
X127495400Y-96195602D01*
X128795400Y-95195602D02*
X128495400Y-95195602D01*
X128795400Y-93018985D02*
X128805400Y-93008985D01*
X126495400Y-95195602D02*
X126195400Y-95195602D01*
%TO.N,P1V8D_FPGA*%
X112177504Y-74570000D02*
X111498752Y-73891248D01*
X114828752Y-72538752D02*
X114850000Y-72560000D01*
X112190000Y-74570000D02*
X112177504Y-74570000D01*
X111498752Y-73891248D02*
X111511248Y-73891248D01*
X115837107Y-77491320D02*
X115781320Y-77491320D01*
D28*
X112990000Y-75370000D02*
X112190000Y-74570000D01*
X113720000Y-75370000D02*
X112990000Y-75370000D01*
D30*
X114231248Y-72538752D02*
X114828752Y-72538752D01*
X111498752Y-73891248D02*
X111498752Y-73858752D01*
D28*
X115781320Y-77491320D02*
X115530000Y-77240000D01*
D31*
%TO.N,P1VD_FPGA*%
X103180002Y-73149998D02*
X103470002Y-72859998D01*
X101930000Y-74079996D02*
X101930002Y-74080000D01*
X103180000Y-75550000D02*
X103180000Y-73150000D01*
X102640001Y-73149997D02*
X103180002Y-73149998D01*
X101930000Y-73149998D02*
X101930000Y-74079996D01*
X103180000Y-73150000D02*
X103470002Y-72859998D01*
X101930000Y-73149998D02*
X102640001Y-73149997D01*
D32*
%TO.N,Net-(U3G-VCCADPHY1)*%
X119630399Y-87753108D02*
X119290000Y-88093507D01*
X119080000Y-89020000D02*
X119290000Y-88810000D01*
X119080000Y-89390000D02*
X119080000Y-89020000D01*
X119290000Y-88810000D02*
X119290000Y-88093507D01*
D28*
X119630399Y-87753108D02*
X119630399Y-87762089D01*
D33*
%TO.N,PVIO1_FPGA*%
X121398166Y-87399554D02*
X121398166Y-87400000D01*
D34*
%TO.N,/FPGA/DPHY0.CLK-*%
X103152551Y-80174967D02*
X102019457Y-81308061D01*
D33*
X116691882Y-83940000D02*
X116475941Y-83724059D01*
D34*
X112939362Y-80580000D02*
X112939362Y-80447193D01*
X112096284Y-81060000D02*
X112096284Y-81142786D01*
D33*
X118216185Y-84924681D02*
X118216185Y-84573035D01*
D34*
X107472970Y-80174967D02*
X103152551Y-80174967D01*
X111739362Y-81142786D02*
X111739362Y-81060000D01*
X111977823Y-81261247D02*
X111857823Y-81261247D01*
D33*
X117583150Y-83940000D02*
X116691882Y-83940000D01*
D34*
X110275499Y-80698461D02*
X107996464Y-80698461D01*
X112096284Y-80447193D02*
X112096284Y-80580000D01*
X107996464Y-80698461D02*
X107472970Y-80174967D01*
X102019457Y-81308061D02*
X101411527Y-81308061D01*
X111257823Y-80698461D02*
X110275499Y-80698461D01*
X113450343Y-80698461D02*
X113057823Y-80698461D01*
X116475941Y-83724059D02*
X113450343Y-80698461D01*
X111377823Y-80698461D02*
X111257823Y-80698461D01*
X112096284Y-80580000D02*
X112096284Y-81060000D01*
D33*
X118216185Y-84573035D02*
X117583150Y-83940000D01*
D34*
X101310000Y-81206534D02*
X101310000Y-80986484D01*
X112577823Y-80085654D02*
X112457823Y-80085654D01*
X101411527Y-81308061D02*
X101310000Y-81206534D01*
X101310000Y-80986484D02*
X101385310Y-80911174D01*
X112457823Y-80085654D02*
G75*
G03*
X112096254Y-80447193I-23J-361546D01*
G01*
X112939362Y-80447193D02*
G75*
G03*
X112577823Y-80085638I-361562J-7D01*
G01*
X112096284Y-81142786D02*
G75*
G02*
X111977823Y-81261284I-118484J-14D01*
G01*
X111857823Y-81261247D02*
G75*
G02*
X111739353Y-81142786I-23J118447D01*
G01*
X113057823Y-80698461D02*
G75*
G02*
X112939339Y-80580000I-23J118461D01*
G01*
X111739362Y-81060000D02*
G75*
G03*
X111377823Y-80698438I-361562J0D01*
G01*
%TO.N,/FPGA/DPHY1.CLK-*%
X105450343Y-88221539D02*
X108149657Y-88221539D01*
X113496735Y-88291825D02*
X113496735Y-88170285D01*
X111206342Y-88059246D02*
X111344048Y-88059246D01*
X103218512Y-88596850D02*
X103293822Y-88521540D01*
X112296735Y-88521540D02*
X112296735Y-88278460D01*
X114335195Y-88521540D02*
X114679147Y-88521540D01*
X111096735Y-88726052D02*
X111096735Y-88521540D01*
X108149657Y-88221539D02*
X108449658Y-88521540D01*
X110615195Y-89087592D02*
X110735195Y-89087592D01*
D33*
X118918504Y-86694356D02*
X118528460Y-87084400D01*
D34*
X111453655Y-88278460D02*
X111453655Y-88521540D01*
X105150342Y-88521540D02*
X105450343Y-88221539D01*
X112653655Y-88168853D02*
X112653655Y-88278460D01*
X109994625Y-88062110D02*
X110145480Y-88062110D01*
X113604910Y-88062110D02*
X113745480Y-88062110D01*
D35*
X118528460Y-87084400D02*
X118325270Y-87287590D01*
D34*
X113496735Y-88726052D02*
X113496735Y-88521540D01*
D33*
X118923292Y-86338894D02*
X118923292Y-86694356D01*
D34*
X110253655Y-88170285D02*
X110253655Y-88278460D01*
X103293822Y-88521540D02*
X105150342Y-88521540D01*
X117809196Y-87287590D02*
X118325270Y-87287590D01*
X114679147Y-88521540D02*
X116575246Y-88521540D01*
X113496735Y-88521540D02*
X113496735Y-88291825D01*
X110253655Y-88278460D02*
X110253655Y-88521540D01*
X112296735Y-88278460D02*
X112296735Y-88168853D01*
X112296735Y-88726052D02*
X112296735Y-88521540D01*
X111453655Y-88168853D02*
X111453655Y-88278460D01*
X112653655Y-88521540D02*
X112653655Y-88726052D01*
D33*
X118923292Y-86694356D02*
X118918504Y-86694356D01*
D34*
X111815195Y-89087592D02*
X111935195Y-89087592D01*
X116575246Y-88521540D02*
X117809196Y-87287590D01*
X112406342Y-88059246D02*
X112544048Y-88059246D01*
X113015195Y-89087592D02*
X113135195Y-89087592D01*
X111453655Y-88521540D02*
X111453655Y-88726052D01*
X111096735Y-88521540D02*
X111096735Y-88278460D01*
X114204910Y-88521540D02*
X114335195Y-88521540D01*
X108449658Y-88521540D02*
X109535195Y-88521540D01*
X112653655Y-88278460D02*
X112653655Y-88521540D01*
X110253655Y-88521540D02*
X110253655Y-88726052D01*
X111096735Y-88278460D02*
X111096735Y-88168853D01*
X111935195Y-89087592D02*
G75*
G03*
X112296692Y-88726052I5J361492D01*
G01*
X113135195Y-89087592D02*
G75*
G03*
X113496692Y-88726052I5J361492D01*
G01*
X110735195Y-89087592D02*
G75*
G03*
X111096692Y-88726052I5J361492D01*
G01*
X109886450Y-88170285D02*
G75*
G02*
X109994625Y-88062150I108150J-15D01*
G01*
X111344048Y-88059246D02*
G75*
G02*
X111453654Y-88168853I-48J-109654D01*
G01*
X112653655Y-88726052D02*
G75*
G03*
X113015195Y-89087645I361545J-48D01*
G01*
X110253655Y-88726052D02*
G75*
G03*
X110615195Y-89087645I361545J-48D01*
G01*
X113745480Y-88062110D02*
G75*
G02*
X113853690Y-88170285I20J-108190D01*
G01*
X112544048Y-88059246D02*
G75*
G02*
X112653654Y-88168853I-48J-109654D01*
G01*
X113853655Y-88170285D02*
G75*
G03*
X114204910Y-88521545I351245J-15D01*
G01*
X112296735Y-88168853D02*
G75*
G02*
X112406342Y-88059335I109565J-47D01*
G01*
X109535195Y-88521540D02*
G75*
G03*
X109886440Y-88170285I5J351240D01*
G01*
X111096735Y-88168853D02*
G75*
G02*
X111206342Y-88059335I109565J-47D01*
G01*
X113496735Y-88170285D02*
G75*
G02*
X113604910Y-88062135I108165J-15D01*
G01*
X111453655Y-88726052D02*
G75*
G03*
X111815195Y-89087645I361545J-48D01*
G01*
X110145480Y-88062110D02*
G75*
G02*
X110253690Y-88170285I20J-108190D01*
G01*
%TO.N,/FPGA/DPHY0.D0+*%
X109577823Y-79747739D02*
X109457823Y-79747739D01*
X110177823Y-79192017D02*
X110057823Y-79192017D01*
X109457823Y-79747739D02*
X109118588Y-79747739D01*
D35*
X117221600Y-83410800D02*
X117409411Y-83410800D01*
D34*
X111977823Y-79747739D02*
X111857823Y-79747739D01*
X112696284Y-79386200D02*
X112696284Y-79310478D01*
X109118588Y-79747739D02*
X101613057Y-79747739D01*
X112339362Y-79310478D02*
X112339362Y-79386200D01*
X110296284Y-79386200D02*
X110296284Y-79310478D01*
X111496284Y-79386200D02*
X111496284Y-79310478D01*
X113411961Y-79747739D02*
X113057823Y-79747739D01*
X101049203Y-79183885D02*
X101049203Y-78964598D01*
X117221600Y-83410800D02*
X117075022Y-83410800D01*
X110777823Y-79747739D02*
X110657823Y-79747739D01*
X117075022Y-83410800D02*
X113411961Y-79747739D01*
X101049203Y-78964598D02*
X100973893Y-78889288D01*
X111377823Y-79192017D02*
X111257823Y-79192017D01*
X111139362Y-79310478D02*
X111139362Y-79386200D01*
X109939362Y-79310478D02*
X109939362Y-79386200D01*
D35*
X117409411Y-83410800D02*
X118216185Y-84217574D01*
D34*
X101613057Y-79747739D02*
X101049203Y-79183885D01*
X112577823Y-79192017D02*
X112457823Y-79192017D01*
X109939362Y-79386200D02*
G75*
G02*
X109577823Y-79747762I-361562J0D01*
G01*
X111257823Y-79192017D02*
G75*
G03*
X111139317Y-79310478I-23J-118483D01*
G01*
X111496284Y-79310478D02*
G75*
G03*
X111377823Y-79192016I-118484J-22D01*
G01*
X112339362Y-79386200D02*
G75*
G02*
X111977823Y-79747762I-361562J0D01*
G01*
X111139362Y-79386200D02*
G75*
G02*
X110777823Y-79747762I-361562J0D01*
G01*
X113057823Y-79747739D02*
G75*
G02*
X112696261Y-79386200I-23J361539D01*
G01*
X110296284Y-79310478D02*
G75*
G03*
X110177823Y-79192016I-118484J-22D01*
G01*
X112696284Y-79310478D02*
G75*
G03*
X112577823Y-79192016I-118484J-22D01*
G01*
X111857823Y-79747739D02*
G75*
G02*
X111496261Y-79386200I-23J361539D01*
G01*
X112457823Y-79192017D02*
G75*
G03*
X112339317Y-79310478I-23J-118483D01*
G01*
X110657823Y-79747739D02*
G75*
G02*
X110296261Y-79386200I-23J361539D01*
G01*
X110057823Y-79192017D02*
G75*
G03*
X109939317Y-79310478I-23J-118483D01*
G01*
D30*
%TO.N,/FPGA/FPGA_EN*%
X104660002Y-74915321D02*
X104660002Y-74659996D01*
X105470000Y-75340000D02*
X105084681Y-75340000D01*
X105084681Y-75340000D02*
X104660002Y-74915321D01*
D34*
%TO.N,/FPGA/DPHY0.D2-*%
X118478460Y-83418460D02*
X118560000Y-83500000D01*
D33*
X118922112Y-83862112D02*
X118923292Y-83862112D01*
D34*
X106030000Y-78030000D02*
X106105310Y-78105310D01*
D33*
X118923292Y-84217574D02*
X118923292Y-83862112D01*
X118560000Y-83500000D02*
X118922112Y-83862112D01*
D34*
X106105310Y-78105310D02*
X113061252Y-78105310D01*
X118373222Y-83417280D02*
X118478460Y-83417280D01*
X118478460Y-83417280D02*
X118478460Y-83418460D01*
X113061252Y-78105310D02*
X118373222Y-83417280D01*
%TO.N,/FPGA/DPHY1.D3+*%
X118102519Y-88573880D02*
X118102519Y-88578459D01*
X118102519Y-88578459D02*
X116057139Y-90623839D01*
X116057139Y-90623839D02*
X104501212Y-90623839D01*
X104501212Y-90623839D02*
X104425902Y-90548529D01*
X119276845Y-87399554D02*
X118102519Y-88573880D01*
%TO.N,/FPGA/DPHY1.D2+*%
X107049657Y-85121539D02*
X108217343Y-86289225D01*
X101618803Y-86025939D02*
X103245943Y-86025939D01*
X109510178Y-86289225D02*
X109630178Y-86289225D01*
X110710178Y-86289225D02*
X110830178Y-86289225D01*
X109147649Y-85787852D02*
X109147649Y-85926696D01*
X111310178Y-85670387D02*
X111430178Y-85670387D01*
X117033635Y-86289225D02*
X117178460Y-86144400D01*
X101414402Y-87078460D02*
X101229999Y-86894057D01*
X117178460Y-86144400D02*
X117708460Y-86144400D01*
X106192845Y-85121539D02*
X107049657Y-85121539D01*
X105461473Y-85121539D02*
X106192845Y-85121539D01*
X110347649Y-85787851D02*
X110347649Y-85926696D01*
X101693730Y-87078460D02*
X101414402Y-87078460D01*
X108910178Y-85670381D02*
X109030178Y-85670381D01*
X101769040Y-87003150D02*
X101693730Y-87078460D01*
X105101473Y-85685078D02*
X105101473Y-85361539D01*
X101229999Y-86414743D02*
X101618803Y-86025939D01*
X109992707Y-85926696D02*
X109992707Y-85787851D01*
D35*
X117862632Y-85985341D02*
X117857519Y-85985341D01*
D34*
X108217343Y-86289225D02*
X108430178Y-86289225D01*
X112030178Y-86289225D02*
X112331168Y-86289225D01*
X104501473Y-85361539D02*
X104501473Y-85685078D01*
X111910178Y-86289225D02*
X112030178Y-86289225D01*
X103245943Y-86025939D02*
X104150343Y-85121539D01*
X101229999Y-86894057D02*
X101229999Y-86414743D01*
X111192707Y-85926696D02*
X111192707Y-85787858D01*
X111547649Y-85787858D02*
X111547649Y-85926696D01*
X110110178Y-85670380D02*
X110230178Y-85670380D01*
X108792707Y-85926696D02*
X108792707Y-85787852D01*
X105341473Y-85121539D02*
X105461473Y-85121539D01*
X112331168Y-86289225D02*
X117033635Y-86289225D01*
X117708460Y-86139513D02*
X117862632Y-85985341D01*
X104150343Y-85121539D02*
X104261473Y-85121539D01*
X117708460Y-86144400D02*
X117708460Y-86139513D01*
X104741473Y-85925078D02*
X104861473Y-85925078D01*
X110830178Y-86289225D02*
G75*
G03*
X111192725Y-85926696I22J362525D01*
G01*
X104861473Y-85925078D02*
G75*
G03*
X105101478Y-85685078I27J239978D01*
G01*
X110230178Y-85670380D02*
G75*
G02*
X110347620Y-85787851I22J-117420D01*
G01*
X109030178Y-85670381D02*
G75*
G02*
X109147719Y-85787852I22J-117519D01*
G01*
X108792707Y-85787852D02*
G75*
G02*
X108910178Y-85670407I117493J-48D01*
G01*
X104261473Y-85121539D02*
G75*
G02*
X104501461Y-85361539I27J-239961D01*
G01*
X104501473Y-85685078D02*
G75*
G03*
X104741473Y-85925127I240027J-22D01*
G01*
X111430178Y-85670387D02*
G75*
G02*
X111547713Y-85787858I22J-117513D01*
G01*
X110347649Y-85926696D02*
G75*
G03*
X110710178Y-86289251I362551J-4D01*
G01*
X105101473Y-85361539D02*
G75*
G02*
X105341473Y-85121473I240027J39D01*
G01*
X109992707Y-85787851D02*
G75*
G02*
X110110178Y-85670307I117493J51D01*
G01*
X109630178Y-86289225D02*
G75*
G03*
X109992725Y-85926696I22J362525D01*
G01*
X111192707Y-85787858D02*
G75*
G02*
X111310178Y-85670407I117493J-42D01*
G01*
X108430178Y-86289225D02*
G75*
G03*
X108792725Y-85926696I22J362525D01*
G01*
X111547649Y-85926696D02*
G75*
G03*
X111910178Y-86289251I362551J-4D01*
G01*
X109147649Y-85926696D02*
G75*
G03*
X109510178Y-86289251I362551J-4D01*
G01*
%TO.N,/FPGA/DPHY1.D2-*%
X101313718Y-87321540D02*
X100986921Y-86994743D01*
X111310178Y-85425329D02*
X111430178Y-85425329D01*
X101518117Y-85782861D02*
X103145257Y-85782861D01*
X109392707Y-85787852D02*
X109392707Y-85926696D01*
X116936811Y-86044167D02*
X117076578Y-85904400D01*
D33*
X117861073Y-85631787D02*
X117588460Y-85904400D01*
D34*
X100986921Y-86994743D02*
X100986921Y-86314057D01*
D33*
X118216185Y-85631787D02*
X117864541Y-85631787D01*
D34*
X117076578Y-85904400D02*
X117414400Y-85904400D01*
X107150343Y-84878461D02*
X108316049Y-86044167D01*
X111792707Y-85787858D02*
X111792707Y-85926696D01*
X104049657Y-84878461D02*
X107150343Y-84878461D01*
X108910178Y-85425323D02*
X109030178Y-85425323D01*
X110110178Y-85425322D02*
X110230178Y-85425322D01*
X103145257Y-85782861D02*
X104049657Y-84878461D01*
X109747649Y-85926696D02*
X109747649Y-85787851D01*
X101693730Y-87321540D02*
X101313718Y-87321540D01*
X108547649Y-85926696D02*
X108547649Y-85787852D01*
X110592707Y-85787851D02*
X110592707Y-85926696D01*
X100986921Y-86314057D02*
X101518117Y-85782861D01*
X109510178Y-86044167D02*
X109630178Y-86044167D01*
X110947649Y-85926696D02*
X110947649Y-85787858D01*
X111910178Y-86044167D02*
X112030178Y-86044167D01*
X112030178Y-86044167D02*
X112331168Y-86044167D01*
X112331168Y-86044167D02*
X116936811Y-86044167D01*
X101769040Y-87396850D02*
X101693730Y-87321540D01*
D33*
X117864541Y-85631787D02*
X117861073Y-85631787D01*
X117588460Y-85904400D02*
X117414400Y-85904400D01*
D34*
X110710178Y-86044167D02*
X110830178Y-86044167D01*
X108316049Y-86044167D02*
X108430178Y-86044167D01*
X111792707Y-85926696D02*
G75*
G03*
X111910178Y-86044193I117493J-4D01*
G01*
X109747649Y-85787851D02*
G75*
G02*
X110110178Y-85425349I362551J-49D01*
G01*
X108547649Y-85787852D02*
G75*
G02*
X108910178Y-85425349I362551J-48D01*
G01*
X110947649Y-85787858D02*
G75*
G02*
X111310178Y-85425349I362551J-42D01*
G01*
X110592707Y-85926696D02*
G75*
G03*
X110710178Y-86044193I117493J-4D01*
G01*
X110230178Y-85425322D02*
G75*
G02*
X110592778Y-85787851I22J-362578D01*
G01*
X110830178Y-86044167D02*
G75*
G03*
X110947667Y-85926696I22J117467D01*
G01*
X108430178Y-86044167D02*
G75*
G03*
X108547667Y-85926696I22J117467D01*
G01*
X109630178Y-86044167D02*
G75*
G03*
X109747667Y-85926696I22J117467D01*
G01*
X109030178Y-85425323D02*
G75*
G02*
X109392777Y-85787852I22J-362577D01*
G01*
X111430178Y-85425329D02*
G75*
G02*
X111792771Y-85787858I22J-362571D01*
G01*
X109392707Y-85926696D02*
G75*
G03*
X109510178Y-86044193I117493J-4D01*
G01*
D31*
%TO.N,Net-(U5-SW)*%
X105160000Y-74659999D02*
X105160000Y-72950000D01*
X105160000Y-72950000D02*
X105070001Y-72859998D01*
D29*
%TO.N,Net-(U5-PG)*%
X104160001Y-74659998D02*
X104160001Y-75249998D01*
X104160001Y-75249998D02*
X104150001Y-75260000D01*
%TO.N,Net-(U3B-PR9B)*%
X121751719Y-87753108D02*
X121751719Y-87814485D01*
D33*
X121751719Y-87814485D02*
X122048617Y-88111383D01*
D35*
X121751719Y-87753108D02*
X121752687Y-87753108D01*
D34*
%TO.N,/FPGA/DPHY0.D1+*%
X108604218Y-82780000D02*
X108604218Y-82418461D01*
X112499657Y-82791539D02*
X112499657Y-82781539D01*
X105127389Y-82326673D02*
X105127389Y-82214932D01*
X103320806Y-81939194D02*
X103427311Y-81939194D01*
X108961140Y-82418461D02*
X108961140Y-82661539D01*
X107485296Y-82661539D02*
X107642679Y-82661539D01*
X112799657Y-82781539D02*
X112799657Y-82791539D01*
X109322679Y-83199464D02*
X109442679Y-83199464D01*
X106748835Y-82674288D02*
X107472547Y-82674288D01*
X105127389Y-82214932D02*
X105127389Y-81734932D01*
X105245860Y-81504686D02*
X105365860Y-81504686D01*
X109922679Y-82123631D02*
X110042679Y-82123631D01*
X111122679Y-82123648D02*
X111242679Y-82123648D01*
X113099657Y-82891539D02*
X113099657Y-82781539D01*
X107472547Y-82674288D02*
X107485296Y-82661539D01*
X108604218Y-82837925D02*
X108604218Y-82780000D01*
X111004218Y-82661539D02*
X111004218Y-82300000D01*
X106171008Y-82096461D02*
X106748835Y-82674288D01*
X103584578Y-82096461D02*
X104165860Y-82096461D01*
D33*
X117355936Y-84771539D02*
X117509078Y-84924681D01*
D34*
X105845860Y-82096461D02*
X105965860Y-82096461D01*
X108961140Y-82661539D02*
X108961140Y-82837925D01*
D33*
X116930000Y-84771539D02*
X117355936Y-84771539D01*
D34*
X105484331Y-81623157D02*
X105484331Y-81734932D01*
X108122679Y-83199464D02*
X108242679Y-83199464D01*
X108722679Y-82173625D02*
X108842679Y-82173625D01*
X111722679Y-82661539D02*
X111842679Y-82661539D01*
X110522679Y-83199464D02*
X110642679Y-83199464D01*
X110161140Y-82418461D02*
X110161140Y-82661539D01*
X112379657Y-82661539D02*
X112319657Y-82661539D01*
X105965860Y-82096461D02*
X106171008Y-82096461D01*
X112319657Y-82661539D02*
X112100000Y-82661539D01*
X103427311Y-81939194D02*
X103584578Y-82096461D01*
X112679657Y-82911539D02*
X112619657Y-82911539D01*
X109804218Y-82661539D02*
X109804218Y-82418461D01*
X110161140Y-82661539D02*
X110161140Y-82837925D01*
X104284331Y-82214932D02*
X104284331Y-82326673D01*
X116930000Y-84771539D02*
X115629657Y-84771539D01*
X109804218Y-82837925D02*
X109804218Y-82661539D01*
X115629657Y-84771539D02*
X113529059Y-82670941D01*
X110161140Y-82242092D02*
X110161140Y-82418461D01*
X108604218Y-82418461D02*
X108604218Y-82292086D01*
X112979657Y-82661539D02*
X112919657Y-82661539D01*
X104645860Y-82688202D02*
X104765860Y-82688202D01*
X105127389Y-81734932D02*
X105127389Y-81623157D01*
X113279657Y-83011539D02*
X113219657Y-83011539D01*
X111842679Y-82661539D02*
X112100000Y-82661539D01*
X111004218Y-82837925D02*
X111004218Y-82661539D01*
X107761140Y-82780000D02*
X107761140Y-82837925D01*
X109804218Y-82418461D02*
X109804218Y-82242092D01*
X113399657Y-82781539D02*
X113399657Y-82891539D01*
X111361140Y-82242109D02*
X111361140Y-82300000D01*
X111004218Y-82300000D02*
X111004218Y-82242109D01*
X108961140Y-82292086D02*
X108961140Y-82418461D01*
X113529059Y-82670941D02*
X113519657Y-82661539D01*
X110042679Y-82123631D02*
G75*
G02*
X110161169Y-82242092I21J-118469D01*
G01*
X104284331Y-82326673D02*
G75*
G03*
X104645860Y-82688269I361569J-27D01*
G01*
X108604218Y-82292086D02*
G75*
G02*
X108722679Y-82173618I118482J-14D01*
G01*
X109442679Y-83199464D02*
G75*
G03*
X109804264Y-82837925I21J361564D01*
G01*
X109804218Y-82242092D02*
G75*
G02*
X109922679Y-82123618I118482J-8D01*
G01*
X105127389Y-81623157D02*
G75*
G02*
X105245860Y-81504689I118511J-43D01*
G01*
X110161140Y-82837925D02*
G75*
G03*
X110522679Y-83199460I361560J25D01*
G01*
X104765860Y-82688202D02*
G75*
G03*
X105127402Y-82326673I40J361502D01*
G01*
X105484331Y-81734932D02*
G75*
G03*
X105845860Y-82096469I361569J32D01*
G01*
X107761140Y-82837925D02*
G75*
G03*
X108122679Y-83199460I361560J25D01*
G01*
X112799657Y-82791539D02*
G75*
G02*
X112679657Y-82911457I-119957J39D01*
G01*
X111242679Y-82123648D02*
G75*
G02*
X111361152Y-82242109I21J-118452D01*
G01*
X105365860Y-81504686D02*
G75*
G02*
X105484414Y-81623157I40J-118514D01*
G01*
X110642679Y-83199464D02*
G75*
G03*
X111004264Y-82837925I21J361564D01*
G01*
X113219657Y-83011539D02*
G75*
G02*
X113099661Y-82891539I43J120039D01*
G01*
X113399657Y-82891539D02*
G75*
G02*
X113279657Y-83011457I-119957J39D01*
G01*
X108842679Y-82173625D02*
G75*
G02*
X108961175Y-82292086I21J-118475D01*
G01*
X108242679Y-83199464D02*
G75*
G03*
X108604264Y-82837925I21J361564D01*
G01*
X111361140Y-82300000D02*
G75*
G03*
X111722679Y-82661560I361560J0D01*
G01*
X104165860Y-82096461D02*
G75*
G02*
X104284339Y-82214932I40J-118439D01*
G01*
X108961140Y-82837925D02*
G75*
G03*
X109322679Y-83199460I361560J25D01*
G01*
X113099657Y-82781539D02*
G75*
G03*
X112979657Y-82661543I-119957J39D01*
G01*
X112919657Y-82661539D02*
G75*
G03*
X112799739Y-82781539I43J-119961D01*
G01*
X107642679Y-82661539D02*
G75*
G02*
X107761161Y-82780000I21J-118461D01*
G01*
X112619657Y-82911539D02*
G75*
G02*
X112499661Y-82791539I43J120039D01*
G01*
X113519657Y-82661539D02*
G75*
G03*
X113399739Y-82781539I43J-119961D01*
G01*
X111004218Y-82242109D02*
G75*
G02*
X111122679Y-82123618I118482J9D01*
G01*
X112499657Y-82781539D02*
G75*
G03*
X112379657Y-82661543I-119957J39D01*
G01*
%TO.N,/FPGA/DPHY0.D2+*%
X107386612Y-78724175D02*
X107386612Y-78588390D01*
X108085973Y-78348390D02*
X112960568Y-78348390D01*
X117366848Y-82751724D02*
X118479144Y-83864020D01*
X112960568Y-78348390D02*
X117363902Y-82751724D01*
X106030000Y-78423700D02*
X106105310Y-78348390D01*
X107746612Y-78348390D02*
X108085973Y-78348390D01*
X107026612Y-78964175D02*
X107146612Y-78964175D01*
X117363902Y-82751724D02*
X117366848Y-82751724D01*
X106105310Y-78348390D02*
X106546612Y-78348390D01*
X118479144Y-83864020D02*
X118569739Y-83864020D01*
X106786612Y-78588390D02*
X106786612Y-78724175D01*
X107626612Y-78348390D02*
X107746612Y-78348390D01*
X106786612Y-78724175D02*
G75*
G03*
X107026612Y-78964188I239988J-25D01*
G01*
X107386612Y-78588390D02*
G75*
G02*
X107626612Y-78348412I239988J-10D01*
G01*
X107146612Y-78964175D02*
G75*
G03*
X107386575Y-78724175I-12J239975D01*
G01*
X106546612Y-78348390D02*
G75*
G02*
X106786610Y-78588390I-12J-240010D01*
G01*
%TO.N,/FPGA/DPHY0.D3-*%
X112336904Y-84228534D02*
X112336904Y-84350073D01*
X101236755Y-84470813D02*
X101236755Y-83835127D01*
X111051435Y-84221539D02*
X110278590Y-84221539D01*
X115351601Y-85442825D02*
X114130315Y-84221539D01*
X111965292Y-84721685D02*
X111737982Y-84721685D01*
X112687151Y-83710199D02*
X112471035Y-83710199D01*
X103431834Y-82921539D02*
X103568634Y-82921539D01*
D33*
X117404175Y-85526884D02*
X116026884Y-85526884D01*
D34*
X105367648Y-83521539D02*
X105562090Y-83521539D01*
X104249657Y-83521539D02*
X104362090Y-83521539D01*
D33*
X116026884Y-85526884D02*
X115942825Y-85442825D01*
D34*
X111237836Y-84221539D02*
X111051435Y-84221539D01*
X106849657Y-83521539D02*
X105845506Y-83521539D01*
X112821282Y-84350057D02*
X112821282Y-84221539D01*
X112336904Y-83978461D02*
X112336904Y-84228534D01*
X115942825Y-85442825D02*
X115351601Y-85442825D01*
X101236755Y-83835127D02*
X102150343Y-82921539D01*
X103071834Y-83681539D02*
X103071834Y-83161539D01*
X101778711Y-84603150D02*
X101703401Y-84678460D01*
X102711834Y-83921539D02*
X102831834Y-83921539D01*
X101444402Y-84678460D02*
X101236755Y-84470813D01*
X103311834Y-82921539D02*
X103431834Y-82921539D01*
X103649657Y-82921539D02*
X104249657Y-83521539D01*
X107549657Y-84221539D02*
X106849657Y-83521539D01*
X105562090Y-83521539D02*
X105845506Y-83521539D01*
X101703401Y-84678460D02*
X101444402Y-84678460D01*
X104767648Y-83927097D02*
X104962090Y-83927097D01*
X112336904Y-83844330D02*
X112336904Y-83978461D01*
X112821282Y-83978461D02*
X112821282Y-83844330D01*
X112821282Y-84221539D02*
X112821282Y-83978461D01*
D33*
X117509078Y-85631787D02*
X117404175Y-85526884D01*
D34*
X110278590Y-84221539D02*
X107549657Y-84221539D01*
X114130315Y-84221539D02*
X113961259Y-84221539D01*
X102150343Y-82921539D02*
X102231834Y-82921539D01*
X113461145Y-84721653D02*
X113192878Y-84721653D01*
X102471834Y-83161539D02*
X102471834Y-83681539D01*
X103568634Y-82921539D02*
X103649657Y-82921539D01*
X102831834Y-83921539D02*
G75*
G03*
X103071839Y-83681539I-34J240039D01*
G01*
X104564869Y-83724318D02*
G75*
G03*
X104767648Y-83927031I202731J18D01*
G01*
X104362090Y-83521539D02*
G75*
G02*
X104564861Y-83724318I10J-202761D01*
G01*
X113832741Y-84350057D02*
G75*
G02*
X113461145Y-84721741I-371641J-43D01*
G01*
X103071834Y-83161539D02*
G75*
G02*
X103311834Y-82921534I239966J39D01*
G01*
X105164869Y-83724318D02*
G75*
G02*
X105367648Y-83521569I202731J18D01*
G01*
X111366370Y-84350073D02*
G75*
G03*
X111237836Y-84221530I-128570J-27D01*
G01*
X102231834Y-82921539D02*
G75*
G02*
X102471761Y-83161539I-34J-239961D01*
G01*
X113961259Y-84221539D02*
G75*
G03*
X113832739Y-84350057I41J-128561D01*
G01*
X113192878Y-84721653D02*
G75*
G02*
X112821347Y-84350057I22J371553D01*
G01*
X111737982Y-84721685D02*
G75*
G02*
X111366415Y-84350073I18J371585D01*
G01*
X112821282Y-83844330D02*
G75*
G03*
X112687151Y-83710218I-134082J30D01*
G01*
X102471834Y-83681539D02*
G75*
G03*
X102711834Y-83921466I239966J39D01*
G01*
X112336904Y-84350073D02*
G75*
G02*
X111965292Y-84721704I-371604J-27D01*
G01*
X112471035Y-83710199D02*
G75*
G03*
X112336899Y-83844330I-35J-134101D01*
G01*
X104962090Y-83927097D02*
G75*
G03*
X105164897Y-83724318I10J202797D01*
G01*
%TO.N,/FPGA/DPHY1.D1+*%
X103316921Y-90674029D02*
X103120924Y-90870026D01*
X103316921Y-89964057D02*
X103316921Y-90674029D01*
X114046252Y-89562259D02*
X113836546Y-89562259D01*
X113446252Y-89952553D02*
X113236546Y-89952553D01*
X115246252Y-89562259D02*
X115036546Y-89562259D01*
X118923292Y-87046001D02*
X118238083Y-87731210D01*
X103741628Y-89539350D02*
X104102517Y-89178461D01*
X115748425Y-89952553D02*
X115636546Y-89952553D01*
X118238083Y-87731210D02*
X117969768Y-87731210D01*
X102344403Y-89478461D02*
X101860323Y-89478461D01*
D29*
X103316921Y-89964057D02*
X103741628Y-89539350D01*
D34*
X102669999Y-89804057D02*
X102344403Y-89478461D01*
X106670460Y-89599235D02*
X106917142Y-89599235D01*
X105150343Y-89178461D02*
X105924435Y-89952553D01*
X109175955Y-89952553D02*
X112988079Y-89952553D01*
X105924435Y-89952553D02*
X106317142Y-89952553D01*
X103120924Y-90870026D02*
X102856605Y-90870026D01*
X117969768Y-87731210D02*
X115748425Y-89952553D01*
X102856605Y-90870026D02*
X102669999Y-90683420D01*
X113236546Y-89952553D02*
X112988079Y-89952553D01*
X107270460Y-89952553D02*
X107517142Y-89952553D01*
X114646252Y-89952553D02*
X114436546Y-89952553D01*
X104102517Y-89178461D02*
X105150343Y-89178461D01*
X102669999Y-90683420D02*
X102669999Y-89804057D01*
X107870548Y-89599147D02*
X108117142Y-89599147D01*
X108717142Y-89952553D02*
X109175955Y-89952553D01*
X101860323Y-89478461D02*
X101785012Y-89403150D01*
X108470548Y-89952553D02*
X108717142Y-89952553D01*
X115036546Y-89562259D02*
G75*
G03*
X114719859Y-89878935I-46J-316641D01*
G01*
X114362928Y-89878935D02*
G75*
G03*
X114046252Y-89562272I-316628J35D01*
G01*
X113519870Y-89878935D02*
G75*
G02*
X113446252Y-89952470I-73570J35D01*
G01*
X107517142Y-89952553D02*
G75*
G03*
X107693753Y-89775850I-42J176653D01*
G01*
X115562928Y-89878935D02*
G75*
G03*
X115246252Y-89562272I-316628J35D01*
G01*
X114719870Y-89878935D02*
G75*
G02*
X114646252Y-89952470I-73570J35D01*
G01*
X106917142Y-89599235D02*
G75*
G02*
X107093765Y-89775894I-42J-176665D01*
G01*
X106317142Y-89952553D02*
G75*
G03*
X106493753Y-89775894I-42J176653D01*
G01*
X107693845Y-89775850D02*
G75*
G02*
X107870548Y-89599145I176655J50D01*
G01*
X108117142Y-89599147D02*
G75*
G02*
X108293753Y-89775850I-42J-176653D01*
G01*
X108293845Y-89775850D02*
G75*
G03*
X108470548Y-89952555I176655J-50D01*
G01*
X114436546Y-89952553D02*
G75*
G02*
X114362847Y-89878935I-46J73653D01*
G01*
X115636546Y-89952553D02*
G75*
G02*
X115562847Y-89878935I-46J73653D01*
G01*
X113836546Y-89562259D02*
G75*
G03*
X113519859Y-89878935I-46J-316641D01*
G01*
X107093801Y-89775894D02*
G75*
G03*
X107270460Y-89952599I176699J-6D01*
G01*
X106493801Y-89775894D02*
G75*
G02*
X106670460Y-89599201I176699J-6D01*
G01*
D33*
%TO.N,/FPGA/DPHY0.CLK+*%
X117862632Y-84571127D02*
X117451505Y-84160000D01*
D34*
X101310841Y-81551139D02*
X101066920Y-81307218D01*
X112339362Y-81060000D02*
X112339362Y-81142786D01*
X111377823Y-80941539D02*
X111257823Y-80941539D01*
D33*
X117862632Y-84571127D02*
X117862632Y-84565972D01*
D34*
X112577823Y-80328732D02*
X112457823Y-80328732D01*
X116304059Y-83895941D02*
X113349657Y-80941539D01*
X103253237Y-80418045D02*
X102120143Y-81551139D01*
X107895778Y-80941539D02*
X107372284Y-80418045D01*
X113349657Y-80941539D02*
X113057823Y-80941539D01*
X111496284Y-81142786D02*
X111496284Y-81060000D01*
X110275499Y-80941539D02*
X107895778Y-80941539D01*
X107372284Y-80418045D02*
X103253237Y-80418045D01*
D33*
X116568118Y-84160000D02*
X116304059Y-83895941D01*
D34*
X112696284Y-80580000D02*
X112696284Y-80447193D01*
D33*
X117451505Y-84160000D02*
X116568118Y-84160000D01*
X117862632Y-84571127D02*
X117851127Y-84571127D01*
D34*
X111977823Y-81504325D02*
X111857823Y-81504325D01*
X101066920Y-81307218D02*
X101066920Y-80986484D01*
X102120143Y-81551139D02*
X101310841Y-81551139D01*
X112339362Y-80580000D02*
X112339362Y-81060000D01*
D33*
X117862632Y-84565972D02*
X117811060Y-84514400D01*
D34*
X112339362Y-80447193D02*
X112339362Y-80580000D01*
X101066920Y-80986484D02*
X100991610Y-80911174D01*
X111257823Y-80941539D02*
X110275499Y-80941539D01*
X112339362Y-81142786D02*
G75*
G02*
X111977823Y-81504362I-361562J-14D01*
G01*
X111857823Y-81504325D02*
G75*
G02*
X111496275Y-81142786I-23J361525D01*
G01*
X111496284Y-81060000D02*
G75*
G03*
X111377823Y-80941516I-118484J0D01*
G01*
X112457823Y-80328732D02*
G75*
G03*
X112339332Y-80447193I-23J-118468D01*
G01*
X112696284Y-80447193D02*
G75*
G03*
X112577823Y-80328716I-118484J-7D01*
G01*
X113057823Y-80941539D02*
G75*
G02*
X112696261Y-80580000I-23J361539D01*
G01*
D35*
%TO.N,/FPGA/DPHY1.D1-*%
X118948460Y-87372478D02*
X118343348Y-87977590D01*
D33*
X119276845Y-87044093D02*
X118948460Y-87372478D01*
D34*
X115246252Y-89805317D02*
X115036546Y-89805317D01*
D29*
X103844092Y-89780650D02*
X103559999Y-90064743D01*
D34*
X114646252Y-90195611D02*
X114436546Y-90195611D01*
X102426921Y-89904743D02*
X102243717Y-89721539D01*
X104203203Y-89421539D02*
X103844092Y-89780650D01*
X115849131Y-90195611D02*
X115636546Y-90195611D01*
X103221610Y-91113104D02*
X102755919Y-91113104D01*
X102426921Y-90784106D02*
X102426921Y-89904743D01*
D33*
X119276845Y-86692448D02*
X119276845Y-87044093D01*
D34*
X103559999Y-90064743D02*
X103559999Y-90774715D01*
X102243717Y-89721539D02*
X101860323Y-89721539D01*
X112988079Y-90195611D02*
X105823729Y-90195611D01*
X102755919Y-91113104D02*
X102426921Y-90784106D01*
X113446252Y-90195611D02*
X113236546Y-90195611D01*
X101860323Y-89721539D02*
X101785012Y-89796850D01*
X113236546Y-90195611D02*
X112988079Y-90195611D01*
X105823729Y-90195611D02*
X105049657Y-89421539D01*
X103559999Y-90774715D02*
X103221610Y-91113104D01*
X118067152Y-87977590D02*
X115849131Y-90195611D01*
X118343348Y-87977590D02*
X118067152Y-87977590D01*
X105049657Y-89421539D02*
X104203203Y-89421539D01*
X114046252Y-89805317D02*
X113836546Y-89805317D01*
X114436546Y-90195611D02*
G75*
G02*
X114119789Y-89878935I-46J316711D01*
G01*
X113836546Y-89805317D02*
G75*
G03*
X113762917Y-89878935I-46J-73583D01*
G01*
X114962928Y-89878935D02*
G75*
G02*
X114646252Y-90195528I-316628J35D01*
G01*
X115636546Y-90195611D02*
G75*
G02*
X115319789Y-89878935I-46J316711D01*
G01*
X114119870Y-89878935D02*
G75*
G03*
X114046252Y-89805330I-73570J35D01*
G01*
X113762928Y-89878935D02*
G75*
G02*
X113446252Y-90195528I-316628J35D01*
G01*
X115036546Y-89805317D02*
G75*
G03*
X114962917Y-89878935I-46J-73583D01*
G01*
X115319870Y-89878935D02*
G75*
G03*
X115246252Y-89805330I-73570J35D01*
G01*
%TO.N,/FPGA/DPHY1.D0-*%
X100906921Y-90554743D02*
X101273718Y-90921540D01*
X117191056Y-86568944D02*
X116805698Y-86568944D01*
X107150343Y-86578461D02*
X103282517Y-86578461D01*
D33*
X118218460Y-85984400D02*
X118218460Y-85984974D01*
X117599985Y-86361963D02*
X117393004Y-86568944D01*
D34*
X114883150Y-87052861D02*
X114659270Y-87052861D01*
X103282517Y-86578461D02*
X102356921Y-87504057D01*
D33*
X118218460Y-85984974D02*
X117841471Y-86361963D01*
X118568798Y-85984400D02*
X118218460Y-85984400D01*
D34*
X114119122Y-87052861D02*
X107624743Y-87052861D01*
X101918117Y-88372861D02*
X101538117Y-88372861D01*
X116805698Y-86568944D02*
X116321781Y-87052861D01*
X101683098Y-90921540D02*
X101758408Y-90996850D01*
X114659270Y-87052861D02*
X114119122Y-87052861D01*
X107624743Y-87052861D02*
X107150343Y-86578461D01*
X101538117Y-88372861D02*
X100906921Y-89004057D01*
X102356921Y-87504057D02*
X102356921Y-87934057D01*
X101273718Y-90921540D02*
X101683098Y-90921540D01*
X100906921Y-89004057D02*
X100906921Y-90554743D01*
X102356921Y-87934057D02*
X101918117Y-88372861D01*
X116321781Y-87052861D02*
X115859270Y-87052861D01*
X115483150Y-87428981D02*
X115259270Y-87428981D01*
D33*
X117841471Y-86361963D02*
X117599985Y-86361963D01*
X118569739Y-85985341D02*
X118568798Y-85984400D01*
X117393004Y-86568944D02*
X117191056Y-86568944D01*
D34*
X115549671Y-87362460D02*
G75*
G02*
X115483150Y-87429071I-66571J-40D01*
G01*
X115192749Y-87362460D02*
G75*
G03*
X114883150Y-87052951I-309549J-40D01*
G01*
X115859270Y-87052861D02*
G75*
G03*
X115549661Y-87362460I30J-309639D01*
G01*
X115259270Y-87428981D02*
G75*
G02*
X115192819Y-87362460I30J66481D01*
G01*
%TO.N,/FPGA/DPHY0.D1-*%
X108722679Y-81930547D02*
X108842679Y-81930547D01*
X103599194Y-81767311D02*
X103685286Y-81853403D01*
X115730343Y-84528461D02*
X116930000Y-84528461D01*
X105965860Y-81853403D02*
X106173723Y-81853403D01*
X104884331Y-82214932D02*
X104884331Y-81734932D01*
X110404218Y-82418461D02*
X110404218Y-82661539D01*
X110404218Y-82242092D02*
X110404218Y-82418461D01*
X109204218Y-82661539D02*
X109204218Y-82837925D01*
X107371869Y-82431230D02*
X107384638Y-82418461D01*
X108361140Y-82780000D02*
X108361140Y-82418461D01*
X111842679Y-82418461D02*
X112100000Y-82418461D01*
X104527389Y-82214932D02*
X104527389Y-82326673D01*
X111722679Y-82418461D02*
X111842679Y-82418461D01*
X103685286Y-81853403D02*
X104165860Y-81853403D01*
X110761140Y-82300000D02*
X110761140Y-82242109D01*
X109204218Y-82292086D02*
X109204218Y-82418461D01*
X106271686Y-81853403D02*
X106849513Y-82431230D01*
X108361140Y-82418461D02*
X108361140Y-82292086D01*
X109204218Y-82418461D02*
X109204218Y-82661539D01*
X112100000Y-82418461D02*
X113620343Y-82418461D01*
X110761140Y-82837925D02*
X110761140Y-82661539D01*
X104884331Y-81734932D02*
X104884331Y-81623157D01*
X108004218Y-82780000D02*
X108004218Y-82837925D01*
X109561140Y-82661539D02*
X109561140Y-82418461D01*
X113620343Y-82418461D02*
X115730343Y-84528461D01*
X109561140Y-82418461D02*
X109561140Y-82242092D01*
X105727389Y-81623157D02*
X105727389Y-81734932D01*
X105845860Y-81853403D02*
X105965860Y-81853403D01*
X108122679Y-82956386D02*
X108242679Y-82956386D01*
D33*
X117862632Y-85278234D02*
X117862632Y-84926590D01*
D34*
X109922679Y-81880553D02*
X110042679Y-81880553D01*
X105245860Y-81261628D02*
X105365860Y-81261628D01*
X104645860Y-82445144D02*
X104765860Y-82445144D01*
X104884331Y-82326673D02*
X104884331Y-82214932D01*
X108361140Y-82837925D02*
X108361140Y-82780000D01*
X110522679Y-82956386D02*
X110642679Y-82956386D01*
X106849513Y-82431230D02*
X107371869Y-82431230D01*
X111604218Y-82242109D02*
X111604218Y-82300000D01*
X103599194Y-81660806D02*
X103599194Y-81767311D01*
D33*
X117862632Y-84926590D02*
X117464503Y-84528461D01*
D34*
X109322679Y-82956386D02*
X109442679Y-82956386D01*
X107384638Y-82418461D02*
X107642679Y-82418461D01*
X109561140Y-82837925D02*
X109561140Y-82661539D01*
X110404218Y-82661539D02*
X110404218Y-82837925D01*
D33*
X117464503Y-84528461D02*
X116930000Y-84528461D01*
D34*
X110761140Y-82661539D02*
X110761140Y-82300000D01*
X111122679Y-81880570D02*
X111242679Y-81880570D01*
X106173723Y-81853403D02*
X106271686Y-81853403D01*
X110404218Y-82837925D02*
G75*
G03*
X110522679Y-82956382I118482J25D01*
G01*
X110761140Y-82242109D02*
G75*
G02*
X111122679Y-81880540I361560J9D01*
G01*
X109442679Y-82956386D02*
G75*
G03*
X109561186Y-82837925I21J118486D01*
G01*
X109204218Y-82837925D02*
G75*
G03*
X109322679Y-82956382I118482J25D01*
G01*
X111242679Y-81880570D02*
G75*
G02*
X111604230Y-82242109I21J-361530D01*
G01*
X108242679Y-82956386D02*
G75*
G03*
X108361186Y-82837925I21J118486D01*
G01*
X111604218Y-82300000D02*
G75*
G03*
X111722679Y-82418482I118482J0D01*
G01*
X108361140Y-82292086D02*
G75*
G02*
X108722679Y-81930540I361560J-14D01*
G01*
X105727389Y-81734932D02*
G75*
G03*
X105845860Y-81853411I118511J32D01*
G01*
X109561140Y-82242092D02*
G75*
G02*
X109922679Y-81880540I361560J-8D01*
G01*
X110642679Y-82956386D02*
G75*
G03*
X110761186Y-82837925I21J118486D01*
G01*
X105365860Y-81261628D02*
G75*
G02*
X105727472Y-81623157I40J-361572D01*
G01*
X108842679Y-81930547D02*
G75*
G02*
X109204253Y-82292086I21J-361553D01*
G01*
X104765860Y-82445144D02*
G75*
G03*
X104884344Y-82326673I40J118444D01*
G01*
X110042679Y-81880553D02*
G75*
G02*
X110404247Y-82242092I21J-361547D01*
G01*
X104884331Y-81623157D02*
G75*
G02*
X105245860Y-81261631I361569J-43D01*
G01*
X104527389Y-82326673D02*
G75*
G03*
X104645860Y-82445211I118511J-27D01*
G01*
X108004218Y-82837925D02*
G75*
G03*
X108122679Y-82956382I118482J25D01*
G01*
X107642679Y-82418461D02*
G75*
G02*
X108004239Y-82780000I21J-361539D01*
G01*
X104165860Y-81853403D02*
G75*
G02*
X104527397Y-82214932I40J-361497D01*
G01*
D29*
%TO.N,/FPGA/TDO*%
X120337506Y-88460215D02*
X120337506Y-88465376D01*
D33*
%TO.N,/FPGA/TCK*%
X121600000Y-89340000D02*
X121600000Y-88308495D01*
X121600000Y-88308495D02*
X121398166Y-88106661D01*
X121710000Y-89450000D02*
X121600000Y-89340000D01*
D34*
%TO.N,/FPGA/DPHY0.D0-*%
X109118588Y-79504661D02*
X101713743Y-79504661D01*
X117447952Y-83179952D02*
X117193952Y-83179952D01*
X117628000Y-83360000D02*
X117447952Y-83179952D01*
X111739362Y-79386200D02*
X111739362Y-79310478D01*
X117193952Y-83179952D02*
X117170800Y-83156800D01*
X110896284Y-79310478D02*
X110896284Y-79386200D01*
D33*
X118009000Y-83741000D02*
X117628000Y-83360000D01*
D34*
X112096284Y-79310478D02*
X112096284Y-79386200D01*
X109696284Y-79310478D02*
X109696284Y-79386200D01*
X110177823Y-78948939D02*
X110057823Y-78948939D01*
X110777823Y-79504661D02*
X110657823Y-79504661D01*
X112939362Y-79386200D02*
X112939362Y-79310478D01*
X110539362Y-79386200D02*
X110539362Y-79310478D01*
X111377823Y-78948939D02*
X111257823Y-78948939D01*
X113512647Y-79504661D02*
X113057823Y-79504661D01*
X111977823Y-79504661D02*
X111857823Y-79504661D01*
X101292283Y-79083201D02*
X101292283Y-78964598D01*
D33*
X118009000Y-83741000D02*
X118091256Y-83741000D01*
D34*
X117164786Y-83156800D02*
X113512647Y-79504661D01*
X117170800Y-83156800D02*
X117164786Y-83156800D01*
X109457823Y-79504661D02*
X109118588Y-79504661D01*
X112577823Y-78948939D02*
X112457823Y-78948939D01*
D33*
X118091256Y-83741000D02*
X118569739Y-84219483D01*
D34*
X109577823Y-79504661D02*
X109457823Y-79504661D01*
D33*
X118569739Y-84219483D02*
X118569739Y-84571127D01*
D34*
X101713743Y-79504661D02*
X101292283Y-79083201D01*
X101292283Y-78964598D02*
X101367593Y-78889288D01*
X111257823Y-78948939D02*
G75*
G03*
X110896239Y-79310478I-23J-361561D01*
G01*
X113057823Y-79504661D02*
G75*
G02*
X112939339Y-79386200I-23J118461D01*
G01*
X111739362Y-79310478D02*
G75*
G03*
X111377823Y-78948938I-361562J-22D01*
G01*
X111857823Y-79504661D02*
G75*
G02*
X111739339Y-79386200I-23J118461D01*
G01*
X112939362Y-79310478D02*
G75*
G03*
X112577823Y-78948938I-361562J-22D01*
G01*
X110657823Y-79504661D02*
G75*
G02*
X110539339Y-79386200I-23J118461D01*
G01*
X110896284Y-79386200D02*
G75*
G02*
X110777823Y-79504684I-118484J0D01*
G01*
X109696284Y-79386200D02*
G75*
G02*
X109577823Y-79504684I-118484J0D01*
G01*
X112096284Y-79386200D02*
G75*
G02*
X111977823Y-79504684I-118484J0D01*
G01*
X112457823Y-78948939D02*
G75*
G03*
X112096239Y-79310478I-23J-361561D01*
G01*
X110057823Y-78948939D02*
G75*
G03*
X109696239Y-79310478I-23J-361561D01*
G01*
X110539362Y-79310478D02*
G75*
G03*
X110177823Y-78948938I-361562J-22D01*
G01*
D30*
%TO.N,/FPGA/FLASH_CSn*%
X128795400Y-96215600D02*
X128795400Y-97845602D01*
%TO.N,/FPGA/SRAM_CEN*%
X113510000Y-73260000D02*
X113510000Y-73750000D01*
X113510000Y-73750000D02*
X113715786Y-73955786D01*
D29*
%TO.N,/FPGA/SRAM_RSTn*%
X112949695Y-74662893D02*
X113008680Y-74662893D01*
X112220000Y-73933198D02*
X112949695Y-74662893D01*
X112220000Y-73170000D02*
X112220000Y-73933198D01*
D34*
%TO.N,/FPGA/DPHY1.D0+*%
X101683098Y-90678460D02*
X101374402Y-90678460D01*
X104614818Y-86821539D02*
X104734818Y-86821539D01*
X101374402Y-90678460D02*
X101149999Y-90454057D01*
X102599999Y-88034743D02*
X102599999Y-87604743D01*
X103774818Y-87061539D02*
X103774818Y-87390302D01*
X117518460Y-86794400D02*
X116924006Y-86794400D01*
X115483150Y-87672059D02*
X115259270Y-87672059D01*
X118216185Y-86338894D02*
X118020679Y-86534400D01*
X114883150Y-87295939D02*
X114659270Y-87295939D01*
X116422467Y-87295939D02*
X115859270Y-87295939D01*
X102018803Y-88615939D02*
X102599999Y-88034743D01*
X118020679Y-86534400D02*
X117778460Y-86534400D01*
X102599999Y-87604743D02*
X103383203Y-86821539D01*
X101149999Y-90454057D02*
X101149999Y-89104743D01*
X101638803Y-88615939D02*
X102018803Y-88615939D01*
X103383203Y-86821539D02*
X103534818Y-86821539D01*
X117778460Y-86534400D02*
X117518460Y-86794400D01*
X101758408Y-90603150D02*
X101683098Y-90678460D01*
X107524057Y-87295939D02*
X114119122Y-87295939D01*
X104014818Y-87630302D02*
X104134818Y-87630302D01*
X116924006Y-86794400D02*
X116422467Y-87295939D01*
X114659270Y-87295939D02*
X114119122Y-87295939D01*
X101149999Y-89104743D02*
X101638803Y-88615939D01*
X104734818Y-86821539D02*
X105160230Y-86821539D01*
X107049657Y-86821539D02*
X107524057Y-87295939D01*
X105160230Y-86821539D02*
X107049657Y-86821539D01*
X104374818Y-87390302D02*
X104374818Y-87061539D01*
X115859270Y-87295939D02*
G75*
G03*
X115792739Y-87362460I30J-66561D01*
G01*
X103774818Y-87390302D02*
G75*
G03*
X104014818Y-87630282I239982J2D01*
G01*
X115259270Y-87672059D02*
G75*
G02*
X114949741Y-87362460I30J309559D01*
G01*
X114949671Y-87362460D02*
G75*
G03*
X114883150Y-87295929I-66571J-40D01*
G01*
X104134818Y-87630302D02*
G75*
G03*
X104374802Y-87390302I-18J240002D01*
G01*
X104374818Y-87061539D02*
G75*
G02*
X104614818Y-86821518I239982J39D01*
G01*
X103534818Y-86821539D02*
G75*
G02*
X103774761Y-87061539I-18J-239961D01*
G01*
X115792749Y-87362460D02*
G75*
G02*
X115483150Y-87672049I-309549J-40D01*
G01*
%TO.N,/FPGA/DPHY0.D3+*%
X113064360Y-84350057D02*
X113064360Y-84221539D01*
X111051435Y-83978461D02*
X110278590Y-83978461D01*
X112093826Y-83844330D02*
X112093826Y-83978461D01*
X106950343Y-83278461D02*
X104350343Y-83278461D01*
X103750343Y-82678461D02*
X102049657Y-82678461D01*
X101343718Y-84921540D02*
X101703401Y-84921540D01*
X113064360Y-84221539D02*
X113064360Y-83978461D01*
X111237836Y-83978461D02*
X111051435Y-83978461D01*
X111965292Y-84478607D02*
X111737982Y-84478607D01*
X101703401Y-84921540D02*
X101778711Y-84996850D01*
X113461145Y-84478575D02*
X113192878Y-84478575D01*
X112687151Y-83467121D02*
X112471035Y-83467121D01*
X113064360Y-83978461D02*
X113064360Y-83844330D01*
X107650343Y-83978461D02*
X106950343Y-83278461D01*
D33*
X117155525Y-85278234D02*
X116700227Y-85278234D01*
X116700227Y-85278234D02*
X116700000Y-85278461D01*
D34*
X104350343Y-83278461D02*
X103750343Y-82678461D01*
X110278590Y-83978461D02*
X107650343Y-83978461D01*
X116071649Y-85199767D02*
X115452279Y-85199767D01*
D33*
X116621306Y-85199767D02*
X116700000Y-85278461D01*
X116071649Y-85199767D02*
X116621306Y-85199767D01*
D34*
X100993677Y-83734441D02*
X100993677Y-84571499D01*
X115452279Y-85199767D02*
X114230973Y-83978461D01*
X100993677Y-84571499D02*
X101343718Y-84921540D01*
X112093826Y-83978461D02*
X112093826Y-84228534D01*
X114230973Y-83978461D02*
X113961259Y-83978461D01*
X102049657Y-82678461D02*
X100993677Y-83734441D01*
X112093826Y-84228534D02*
X112093826Y-84350073D01*
X112471035Y-83467121D02*
G75*
G03*
X112093821Y-83844330I-35J-377179D01*
G01*
X113961259Y-83978461D02*
G75*
G03*
X113589661Y-84350057I41J-371639D01*
G01*
X112093826Y-84350073D02*
G75*
G02*
X111965292Y-84478626I-128526J-27D01*
G01*
X111737982Y-84478607D02*
G75*
G02*
X111609493Y-84350073I18J128507D01*
G01*
X111609448Y-84350073D02*
G75*
G03*
X111237836Y-83978452I-371648J-27D01*
G01*
X113064360Y-83844330D02*
G75*
G03*
X112687151Y-83467140I-377160J30D01*
G01*
X113589663Y-84350057D02*
G75*
G02*
X113461145Y-84478663I-128563J-43D01*
G01*
X113192878Y-84478575D02*
G75*
G02*
X113064425Y-84350057I22J128475D01*
G01*
D30*
%TO.N,/FPGA/SD3*%
X127545400Y-93595602D02*
X127545400Y-95125604D01*
X127495400Y-93645602D02*
X127545400Y-93595602D01*
X127545400Y-95125604D02*
X127495400Y-95175604D01*
D34*
%TO.N,/FPGA/DPHY1.CLK+*%
X112406342Y-87816166D02*
X112544048Y-87816166D01*
X108550342Y-88278460D02*
X109535195Y-88278460D01*
X113015195Y-88844512D02*
X113135195Y-88844512D01*
X105349657Y-87978461D02*
X108250343Y-87978461D01*
X111696735Y-88168853D02*
X111696735Y-88278460D01*
X111206342Y-87816166D02*
X111344048Y-87816166D01*
X112053655Y-88726052D02*
X112053655Y-88521540D01*
X113253655Y-88291825D02*
X113253655Y-88170285D01*
X113253655Y-88521540D02*
X113253655Y-88291825D01*
X110853655Y-88726052D02*
X110853655Y-88521540D01*
X114335195Y-88278460D02*
X114679147Y-88278460D01*
X117711812Y-87041210D02*
X118220977Y-87041210D01*
X112053655Y-88521540D02*
X112053655Y-88278460D01*
X110853655Y-88521540D02*
X110853655Y-88278460D01*
X114679147Y-88278460D02*
X116474562Y-88278460D01*
X113604910Y-87819030D02*
X113745480Y-87819030D01*
X108250343Y-87978461D02*
X108550342Y-88278460D01*
X111696735Y-88278460D02*
X111696735Y-88521540D01*
X112053655Y-88278460D02*
X112053655Y-88168853D01*
X116474562Y-88278460D02*
X117711812Y-87041210D01*
X113253655Y-88726052D02*
X113253655Y-88521540D01*
X105049658Y-88278460D02*
X105349657Y-87978461D01*
X112896735Y-88278460D02*
X112896735Y-88521540D01*
X111696735Y-88521540D02*
X111696735Y-88726052D01*
X109994625Y-87819030D02*
X110145480Y-87819030D01*
X118220977Y-87041210D02*
X118569739Y-86692448D01*
X111815195Y-88844512D02*
X111935195Y-88844512D01*
X112896735Y-88521540D02*
X112896735Y-88726052D01*
X110496735Y-88170285D02*
X110496735Y-88278460D01*
X103293822Y-88278460D02*
X105049658Y-88278460D01*
X103218512Y-88203150D02*
X103293822Y-88278460D01*
X112896735Y-88168853D02*
X112896735Y-88278460D01*
X110496735Y-88278460D02*
X110496735Y-88521540D01*
X110853655Y-88278460D02*
X110853655Y-88168853D01*
X114204910Y-88278460D02*
X114335195Y-88278460D01*
X110496735Y-88521540D02*
X110496735Y-88726052D01*
X110615195Y-88844512D02*
X110735195Y-88844512D01*
X113745480Y-87819030D02*
G75*
G02*
X114096770Y-88170285I20J-351270D01*
G01*
X112053655Y-88168853D02*
G75*
G02*
X112406342Y-87816255I352645J-47D01*
G01*
X114096735Y-88170285D02*
G75*
G03*
X114204910Y-88278465I108165J-15D01*
G01*
X110735195Y-88844512D02*
G75*
G03*
X110853612Y-88726052I5J118412D01*
G01*
X111344048Y-87816166D02*
G75*
G02*
X111696734Y-88168853I-48J-352734D01*
G01*
X111935195Y-88844512D02*
G75*
G03*
X112053612Y-88726052I5J118412D01*
G01*
X112896735Y-88726052D02*
G75*
G03*
X113015195Y-88844565I118465J-48D01*
G01*
X112544048Y-87816166D02*
G75*
G02*
X112896734Y-88168853I-48J-352734D01*
G01*
X113253655Y-88170285D02*
G75*
G02*
X113604910Y-87819055I351245J-15D01*
G01*
X109535195Y-88278460D02*
G75*
G03*
X109643360Y-88170285I5J108160D01*
G01*
X111696735Y-88726052D02*
G75*
G03*
X111815195Y-88844565I118465J-48D01*
G01*
X113135195Y-88844512D02*
G75*
G03*
X113253612Y-88726052I5J118412D01*
G01*
X110853655Y-88168853D02*
G75*
G02*
X111206342Y-87816255I352645J-47D01*
G01*
X109643370Y-88170285D02*
G75*
G02*
X109994625Y-87819070I351230J-15D01*
G01*
X110145480Y-87819030D02*
G75*
G02*
X110496770Y-88170285I20J-351270D01*
G01*
X110496735Y-88726052D02*
G75*
G03*
X110615195Y-88844565I118465J-48D01*
G01*
%TO.N,/FPGA/DPHY1.D3-*%
X118274401Y-88750341D02*
X116157823Y-90866919D01*
D33*
X119630399Y-87397645D02*
X118277703Y-88750341D01*
D34*
X104501212Y-90866919D02*
X104425902Y-90942229D01*
X116157823Y-90866919D02*
X104501212Y-90866919D01*
X118277703Y-88750341D02*
X118274401Y-88750341D01*
D33*
X119630399Y-87046001D02*
X119630399Y-87397645D01*
D30*
%TO.N,/FPGA/SD2*%
X126245400Y-97845602D02*
X126245400Y-96265600D01*
X122700000Y-91694400D02*
X122700000Y-92720200D01*
X122700000Y-92720200D02*
X126195400Y-96215600D01*
X126245400Y-96265600D02*
X126195400Y-96215600D01*
D33*
%TO.N,/FPGA/PT65B*%
X121804223Y-88684223D02*
X121804223Y-88161073D01*
X121804223Y-88161073D02*
X121149516Y-87506366D01*
D30*
X120850000Y-92250000D02*
X122200000Y-90900000D01*
D33*
X121149516Y-87506366D02*
X121149516Y-87296559D01*
X121398166Y-87047909D02*
X121398166Y-86692447D01*
X122200000Y-89080000D02*
X121804223Y-88684223D01*
X122200000Y-89326400D02*
X122200000Y-89080000D01*
X121149516Y-87296559D02*
X121398166Y-87047909D01*
D30*
X122200000Y-90900000D02*
X122200000Y-89326400D01*
D34*
%TO.N,/FPGA/PR11N*%
X130639820Y-90278460D02*
X129959973Y-90278460D01*
D33*
X122660000Y-88260000D02*
X122660000Y-87954281D01*
D34*
X124158459Y-90278460D02*
X129959973Y-90278460D01*
X131474052Y-89912692D02*
X131239820Y-89912692D01*
X132074052Y-90278460D02*
X131839820Y-90278460D01*
X122660000Y-88780001D02*
X124158459Y-90278460D01*
D33*
X122660000Y-87954281D02*
X122105273Y-87399554D01*
D34*
X130874052Y-90278460D02*
X130639820Y-90278460D01*
X133346431Y-90278460D02*
X133039820Y-90278460D01*
X122660000Y-88260000D02*
X122660000Y-88780001D01*
X133421741Y-90203150D02*
X133346431Y-90278460D01*
X132674052Y-89912692D02*
X132439820Y-89912692D01*
X131839820Y-90278460D02*
G75*
G02*
X131656940Y-90095576I-20J182860D01*
G01*
X132856936Y-90095576D02*
G75*
G03*
X132674052Y-89912764I-182836J-24D01*
G01*
X133039820Y-90278460D02*
G75*
G02*
X132856940Y-90095576I-20J182860D01*
G01*
X131056936Y-90095576D02*
G75*
G02*
X130874052Y-90278436I-182836J-24D01*
G01*
X132439820Y-89912692D02*
G75*
G03*
X132256892Y-90095576I-20J-182908D01*
G01*
X131239820Y-89912692D02*
G75*
G03*
X131056892Y-90095576I-20J-182908D01*
G01*
X131656936Y-90095576D02*
G75*
G03*
X131474052Y-89912764I-182836J-24D01*
G01*
X132256936Y-90095576D02*
G75*
G02*
X132074052Y-90278436I-182836J-24D01*
G01*
%TO.N,/FPGA/PB68P*%
X132492720Y-87385649D02*
X132348885Y-87385649D01*
X130795291Y-87033156D02*
X130795291Y-86921539D01*
X128974096Y-87096295D02*
X128974096Y-87041539D01*
X129154096Y-87216295D02*
X129094096Y-87216295D01*
X131995291Y-86678461D02*
X131995291Y-86470780D01*
X133334689Y-86921539D02*
X132956830Y-86921539D01*
X129274096Y-87041539D02*
X129274096Y-87096295D01*
X130084751Y-86921539D02*
X129956830Y-86921539D01*
X130795291Y-86921539D02*
X130795291Y-86689460D01*
X128854096Y-86921539D02*
X128794096Y-86921539D01*
X131638369Y-86470780D02*
X131638369Y-86678461D01*
X131638369Y-86678461D02*
X131638369Y-86921539D01*
X130684751Y-86457381D02*
X130548909Y-86457381D01*
X127798846Y-86921539D02*
X124000000Y-86921539D01*
X131995291Y-87032055D02*
X131995291Y-86921539D01*
D33*
X123165933Y-86338894D02*
X123748578Y-86921539D01*
D34*
X129700000Y-86921539D02*
X129394096Y-86921539D01*
D33*
X123748578Y-86921539D02*
X124000000Y-86921539D01*
D34*
X131638369Y-86921539D02*
X131638369Y-87033156D01*
X133410000Y-86996850D02*
X133334689Y-86921539D01*
X128794096Y-86921539D02*
X127798846Y-86921539D01*
X129956830Y-86921539D02*
X129700000Y-86921539D01*
X131995291Y-86921539D02*
X131995291Y-86678461D01*
X131283674Y-87387851D02*
X131149986Y-87387851D01*
X130795291Y-86689460D02*
X130795291Y-86567921D01*
D29*
X123165933Y-86338894D02*
X123165933Y-86354715D01*
D34*
X131876830Y-86352319D02*
X131756830Y-86352319D01*
X131995291Y-86470780D02*
G75*
G03*
X131876830Y-86352309I-118491J-20D01*
G01*
X131638369Y-87033156D02*
G75*
G02*
X131283674Y-87387869I-354669J-44D01*
G01*
X130438369Y-86567921D02*
G75*
G02*
X130084751Y-86921469I-353569J21D01*
G01*
X130548909Y-86457381D02*
G75*
G03*
X130438381Y-86567921I-9J-110519D01*
G01*
X131149986Y-87387851D02*
G75*
G02*
X130795349Y-87033156I14J354651D01*
G01*
X130795291Y-86567921D02*
G75*
G03*
X130684751Y-86457409I-110491J21D01*
G01*
X128974096Y-87041539D02*
G75*
G03*
X128854096Y-86921504I-119996J39D01*
G01*
X132956830Y-86921539D02*
G75*
G03*
X132846239Y-87032055I-30J-110561D01*
G01*
X129394096Y-86921539D02*
G75*
G03*
X129274139Y-87041539I4J-119961D01*
G01*
X132348885Y-87385649D02*
G75*
G02*
X131995351Y-87032055I15J353549D01*
G01*
X129274096Y-87096295D02*
G75*
G02*
X129154096Y-87216296I-119996J-5D01*
G01*
X132846314Y-87032055D02*
G75*
G02*
X132492720Y-87385714I-353614J-45D01*
G01*
X131756830Y-86352319D02*
G75*
G03*
X131638319Y-86470780I-30J-118481D01*
G01*
X129094096Y-87216295D02*
G75*
G02*
X128974105Y-87096295I4J119995D01*
G01*
%TO.N,/FPGA/PB64P*%
X130588118Y-83970136D02*
X130588118Y-83840000D01*
D33*
X123873040Y-85631787D02*
X123880000Y-85631787D01*
D34*
X130469657Y-83721539D02*
X130349657Y-83721539D01*
X131069657Y-84331675D02*
X130949657Y-84331675D01*
X130231196Y-83840000D02*
X130231196Y-83970136D01*
X131669657Y-83111419D02*
X131549657Y-83111419D01*
X127319314Y-83721539D02*
X127141035Y-83721539D01*
X131431196Y-83840000D02*
X131431196Y-83970136D01*
X129388118Y-83970136D02*
X129388118Y-83840000D01*
X133410000Y-84596850D02*
X133334690Y-84521540D01*
X129269657Y-83721539D02*
X129149657Y-83721539D01*
X126581520Y-84281054D02*
X126280828Y-84281054D01*
X132949658Y-84521540D02*
X132149657Y-83721539D01*
X131431196Y-83360000D02*
X131431196Y-83840000D01*
X126280828Y-84281054D02*
X125055941Y-85505941D01*
X128498548Y-84079155D02*
X128256164Y-84079155D01*
X129149657Y-83721539D02*
X129071595Y-83721539D01*
X127656164Y-83721539D02*
X127319314Y-83721539D01*
D33*
X124006390Y-85765137D02*
X124796745Y-85765137D01*
D34*
X129869657Y-84331675D02*
X129749657Y-84331675D01*
X133334690Y-84521540D02*
X132949658Y-84521540D01*
D33*
X123873040Y-85631787D02*
X124006390Y-85765137D01*
X124796745Y-85765137D02*
X125055941Y-85505941D01*
D34*
X131431196Y-83229880D02*
X131431196Y-83360000D01*
X129071595Y-83721539D02*
X128856164Y-83721539D01*
X131788118Y-83360000D02*
X131788118Y-83229880D01*
X127898548Y-83721539D02*
X127656164Y-83721539D01*
X127141035Y-83721539D02*
X126581520Y-84281054D01*
X131788118Y-83229880D02*
G75*
G03*
X131669657Y-83111482I-118418J-20D01*
G01*
X128677356Y-83900347D02*
G75*
G02*
X128498548Y-84079156I-178856J47D01*
G01*
X132149657Y-83721539D02*
G75*
G02*
X131788161Y-83360000I43J361539D01*
G01*
X128077356Y-83900347D02*
G75*
G03*
X127898548Y-83721444I-178856J47D01*
G01*
X128256164Y-84079155D02*
G75*
G02*
X128077345Y-83900347I36J178855D01*
G01*
X130949657Y-84331675D02*
G75*
G02*
X130588125Y-83970136I43J361575D01*
G01*
X130349657Y-83721539D02*
G75*
G03*
X130231239Y-83840000I43J-118461D01*
G01*
X131549657Y-83111419D02*
G75*
G03*
X131431219Y-83229880I43J-118481D01*
G01*
X130588118Y-83840000D02*
G75*
G03*
X130469657Y-83721582I-118418J0D01*
G01*
X131431196Y-83970136D02*
G75*
G02*
X131069657Y-84331596I-361496J36D01*
G01*
X129388118Y-83840000D02*
G75*
G03*
X129269657Y-83721582I-118418J0D01*
G01*
X129749657Y-84331675D02*
G75*
G02*
X129388125Y-83970136I43J361575D01*
G01*
X128856164Y-83721539D02*
G75*
G03*
X128677439Y-83900347I36J-178761D01*
G01*
X130231196Y-83970136D02*
G75*
G02*
X129869657Y-84331596I-361496J36D01*
G01*
%TO.N,/FPGA/PB62P*%
X130257421Y-82156922D02*
X131810932Y-82156922D01*
X133040342Y-83078460D02*
X133334690Y-83078460D01*
X128218960Y-82105233D02*
X128218960Y-82156922D01*
X131810932Y-82156922D02*
X132118804Y-82156922D01*
D33*
X124063662Y-84734059D02*
X123873040Y-84924681D01*
D34*
X128337421Y-82731606D02*
X128457421Y-82731606D01*
X128575882Y-82613145D02*
X128575882Y-82400000D01*
X129418960Y-82105233D02*
X129418960Y-82156922D01*
X129418960Y-82156922D02*
X129418960Y-82518461D01*
X130137421Y-82156922D02*
X130257421Y-82156922D01*
X128218960Y-82400000D02*
X128218960Y-82613145D01*
X128870649Y-81810466D02*
X129124193Y-81810466D01*
X127658108Y-81810466D02*
X127924193Y-81810466D01*
X129418960Y-82518461D02*
X129418960Y-82586022D01*
X124454059Y-84734059D02*
X127031196Y-82156922D01*
D33*
X124454059Y-84734059D02*
X124063662Y-84734059D01*
D34*
X128218960Y-82156922D02*
X128218960Y-82400000D01*
X129775882Y-82586022D02*
X129775882Y-82518461D01*
X128575882Y-82400000D02*
X128575882Y-82156922D01*
X133334690Y-83078460D02*
X133410000Y-83003150D01*
X128575882Y-82156922D02*
X128575882Y-82105233D01*
X132118804Y-82156922D02*
X133040342Y-83078460D01*
X129537421Y-82704483D02*
X129657421Y-82704483D01*
X127031196Y-82156922D02*
X127311652Y-82156922D01*
X128575882Y-82105233D02*
G75*
G02*
X128870649Y-81810482I294718J33D01*
G01*
X129657421Y-82704483D02*
G75*
G03*
X129775883Y-82586022I-21J118483D01*
G01*
X129124193Y-81810466D02*
G75*
G02*
X129418934Y-82105233I7J-294734D01*
G01*
X127363341Y-82105233D02*
G75*
G02*
X127658108Y-81810441I294759J33D01*
G01*
X129775882Y-82518461D02*
G75*
G02*
X130137421Y-82156982I361518J-39D01*
G01*
X127311652Y-82156922D02*
G75*
G03*
X127363422Y-82105233I48J51722D01*
G01*
X128218960Y-82613145D02*
G75*
G03*
X128337421Y-82731540I118440J45D01*
G01*
X128457421Y-82731606D02*
G75*
G03*
X128575906Y-82613145I-21J118506D01*
G01*
X127924193Y-81810466D02*
G75*
G02*
X128218934Y-82105233I7J-294734D01*
G01*
X129418960Y-82586022D02*
G75*
G03*
X129537421Y-82704440I118440J22D01*
G01*
%TO.N,/FPGA/PB64N*%
X132250343Y-83478461D02*
X132171876Y-83478461D01*
X129631196Y-83970136D02*
X129631196Y-83840000D01*
X131188118Y-83360000D02*
X131188118Y-83840000D01*
D33*
X124123598Y-85526884D02*
X124691234Y-85526884D01*
X124691234Y-85526884D02*
X124884059Y-85334059D01*
D34*
X126180109Y-84038009D02*
X124884059Y-85334059D01*
X130831196Y-83970136D02*
X130831196Y-83840000D01*
X127006578Y-83505409D02*
X127006578Y-83512260D01*
X132171876Y-83478461D02*
X132149657Y-83478461D01*
D33*
X123874948Y-85278234D02*
X124123598Y-85526884D01*
D34*
X126480829Y-84038009D02*
X126180109Y-84038009D01*
X131669657Y-82868341D02*
X131549657Y-82868341D01*
X127006578Y-83512260D02*
X126480829Y-84038009D01*
D33*
X123519486Y-85278234D02*
X123874948Y-85278234D01*
D34*
X130469657Y-83478461D02*
X130349657Y-83478461D01*
X129149657Y-83478461D02*
X129071595Y-83478461D01*
X133050342Y-84278460D02*
X132250343Y-83478461D01*
X127030570Y-83478461D02*
X127006578Y-83505409D01*
X133334690Y-84278460D02*
X133050342Y-84278460D01*
X129071595Y-83478461D02*
X127030570Y-83478461D01*
X132031196Y-83360000D02*
X132031196Y-83229880D01*
X129869657Y-84088597D02*
X129749657Y-84088597D01*
X129269657Y-83478461D02*
X129149657Y-83478461D01*
X131069657Y-84088597D02*
X130949657Y-84088597D01*
X131188118Y-83229880D02*
X131188118Y-83360000D01*
X131188118Y-83840000D02*
X131188118Y-83970136D01*
X133410000Y-84203150D02*
X133334690Y-84278460D01*
X129988118Y-83840000D02*
X129988118Y-83970136D01*
X129988118Y-83970136D02*
G75*
G02*
X129869657Y-84088518I-118418J36D01*
G01*
X129749657Y-84088597D02*
G75*
G02*
X129631203Y-83970136I43J118497D01*
G01*
X130949657Y-84088597D02*
G75*
G02*
X130831203Y-83970136I43J118497D01*
G01*
X130349657Y-83478461D02*
G75*
G03*
X129988161Y-83840000I43J-361539D01*
G01*
X132149657Y-83478461D02*
G75*
G02*
X132031239Y-83360000I43J118461D01*
G01*
X130831196Y-83840000D02*
G75*
G03*
X130469657Y-83478504I-361496J0D01*
G01*
X131549657Y-82868341D02*
G75*
G03*
X131188141Y-83229880I43J-361559D01*
G01*
X129631196Y-83840000D02*
G75*
G03*
X129269657Y-83478504I-361496J0D01*
G01*
X131188118Y-83970136D02*
G75*
G02*
X131069657Y-84088518I-118418J36D01*
G01*
X132031196Y-83229880D02*
G75*
G03*
X131669657Y-82868404I-361496J-20D01*
G01*
%TO.N,/FPGA/PB62N*%
X128818960Y-82156922D02*
X128818960Y-82105233D01*
D33*
X124625941Y-84905941D02*
X124598886Y-84905941D01*
D34*
X129175882Y-82156922D02*
X129175882Y-82518461D01*
X128337421Y-82974684D02*
X128457421Y-82974684D01*
X128818960Y-82400000D02*
X128818960Y-82156922D01*
X127131882Y-82400000D02*
X127311652Y-82400000D01*
X132939658Y-83321540D02*
X133334690Y-83321540D01*
X130257421Y-82400000D02*
X131810932Y-82400000D01*
X128870649Y-82053544D02*
X129124193Y-82053544D01*
X129175882Y-82105233D02*
X129175882Y-82156922D01*
X132018118Y-82400000D02*
X132939658Y-83321540D01*
X133334690Y-83321540D02*
X133410000Y-83396850D01*
X127975882Y-82400000D02*
X127975882Y-82613145D01*
X130137421Y-82400000D02*
X130257421Y-82400000D01*
X129537421Y-82947561D02*
X129657421Y-82947561D01*
X127975882Y-82105233D02*
X127975882Y-82156922D01*
X130018960Y-82586022D02*
X130018960Y-82518461D01*
X125503793Y-84028089D02*
X125963412Y-83568470D01*
D33*
X124598886Y-84905941D02*
X124226593Y-85278234D01*
D34*
X127975882Y-82156922D02*
X127975882Y-82400000D01*
X126811940Y-82719942D02*
X127131384Y-82400498D01*
X131810932Y-82400000D02*
X132018118Y-82400000D01*
X127131384Y-82400498D02*
X127131882Y-82400000D01*
X126344762Y-83568470D02*
X126578350Y-83334882D01*
X129175882Y-82518461D02*
X129175882Y-82586022D01*
X127658108Y-82053544D02*
X127924193Y-82053544D01*
X126578350Y-82953531D02*
X126811940Y-82719942D01*
X128818960Y-82613145D02*
X128818960Y-82400000D01*
X124625941Y-84905941D02*
X125503793Y-84028089D01*
X126578350Y-83334882D02*
G75*
G03*
X126578394Y-83144162I-95350J95382D01*
G01*
X127924193Y-82053544D02*
G75*
G02*
X127975856Y-82105233I7J-51656D01*
G01*
X126154087Y-83568470D02*
G75*
G03*
X126344762Y-83568471I95338J95338D01*
G01*
X128457421Y-82974684D02*
G75*
G03*
X128818984Y-82613145I-21J361584D01*
G01*
X127975882Y-82613145D02*
G75*
G03*
X128337421Y-82974618I361518J45D01*
G01*
X126578350Y-83144206D02*
G75*
G02*
X126578381Y-82953563I95350J95306D01*
G01*
X129175882Y-82586022D02*
G75*
G03*
X129537421Y-82947518I361518J22D01*
G01*
X127606419Y-82105233D02*
G75*
G02*
X127658108Y-82053519I51681J33D01*
G01*
X129657421Y-82947561D02*
G75*
G03*
X130018961Y-82586022I-21J361561D01*
G01*
X130018960Y-82518461D02*
G75*
G02*
X130137421Y-82400060I118440J-39D01*
G01*
X127311652Y-82400000D02*
G75*
G03*
X127606500Y-82105233I48J294800D01*
G01*
X125963412Y-83568470D02*
G75*
G02*
X126154087Y-83568469I95338J-95338D01*
G01*
X129124193Y-82053544D02*
G75*
G02*
X129175856Y-82105233I7J-51656D01*
G01*
X128818960Y-82105233D02*
G75*
G02*
X128870649Y-82053560I51640J33D01*
G01*
%TO.N,/FPGA/PR13N*%
X124645930Y-89078460D02*
X124491285Y-89078460D01*
X126327470Y-89468032D02*
X126327470Y-89440000D01*
X133334690Y-89078460D02*
X133410000Y-89003150D01*
X133000000Y-89078460D02*
X133100000Y-89078460D01*
X124491285Y-89078460D02*
X124237107Y-88824282D01*
D33*
X122458826Y-87046001D02*
X123220000Y-87807175D01*
D34*
X125127470Y-89468032D02*
X125127470Y-89440000D01*
X132820000Y-88698460D02*
X132820000Y-88958460D01*
X132400000Y-89078460D02*
X127045930Y-89078460D01*
X126565930Y-89586492D02*
X126445930Y-89586492D01*
X125365930Y-89586492D02*
X125245930Y-89586492D01*
X132640000Y-88578460D02*
X132700000Y-88578460D01*
X125965930Y-89078460D02*
X125845930Y-89078460D01*
X125484390Y-89440000D02*
X125484390Y-89468032D01*
X132940000Y-89078460D02*
X133000000Y-89078460D01*
X133100000Y-89078460D02*
X133334690Y-89078460D01*
X126684390Y-89440000D02*
X126684390Y-89468032D01*
X124237107Y-88824282D02*
X123220000Y-87807175D01*
X124765930Y-89078460D02*
X124645930Y-89078460D01*
X132520000Y-88958460D02*
X132520000Y-88698460D01*
X126445930Y-89586492D02*
G75*
G02*
X126327408Y-89468032I-30J118492D01*
G01*
X132700000Y-88578460D02*
G75*
G02*
X132820040Y-88698460I0J-120040D01*
G01*
X125127470Y-89440000D02*
G75*
G03*
X124765930Y-89078430I-361570J0D01*
G01*
X132520000Y-88698460D02*
G75*
G02*
X132640000Y-88578500I120000J-40D01*
G01*
X132400000Y-89078460D02*
G75*
G03*
X132519960Y-88958460I0J119960D01*
G01*
X125245930Y-89586492D02*
G75*
G02*
X125127408Y-89468032I-30J118492D01*
G01*
X132820000Y-88958460D02*
G75*
G03*
X132940000Y-89078500I120000J-40D01*
G01*
X127045930Y-89078460D02*
G75*
G03*
X126684360Y-89440000I-30J-361540D01*
G01*
X126327470Y-89440000D02*
G75*
G03*
X125965930Y-89078430I-361570J0D01*
G01*
X125484390Y-89468032D02*
G75*
G02*
X125365930Y-89586490I-118490J32D01*
G01*
X125845930Y-89078460D02*
G75*
G03*
X125484360Y-89440000I-30J-361540D01*
G01*
X126684390Y-89468032D02*
G75*
G02*
X126565930Y-89586490I-118490J32D01*
G01*
D33*
%TO.N,/FPGA/PR13P*%
X122105273Y-86692448D02*
X122105273Y-87044093D01*
X122105273Y-87044093D02*
X122105273Y-87045273D01*
D34*
X124645930Y-89321540D02*
X124381540Y-89321540D01*
X133334690Y-89321540D02*
X127045930Y-89321540D01*
X124884390Y-89468032D02*
X124884390Y-89440000D01*
X125727470Y-89440000D02*
X125727470Y-89468032D01*
X126084390Y-89468032D02*
X126084390Y-89440000D01*
X133410000Y-89396850D02*
X133334690Y-89321540D01*
X124060695Y-89000695D02*
X123040000Y-87980000D01*
X125965930Y-89321540D02*
X125845930Y-89321540D01*
X124381540Y-89321540D02*
X124060695Y-89000695D01*
X125365930Y-89829572D02*
X125245930Y-89829572D01*
D33*
X122105273Y-87045273D02*
X123040000Y-87980000D01*
D34*
X126927470Y-89440000D02*
X126927470Y-89468032D01*
X126565930Y-89829572D02*
X126445930Y-89829572D01*
X124765930Y-89321540D02*
X124645930Y-89321540D01*
X126445930Y-89829572D02*
G75*
G02*
X126084328Y-89468032I-30J361572D01*
G01*
X125245930Y-89829572D02*
G75*
G02*
X124884328Y-89468032I-30J361572D01*
G01*
X125727470Y-89468032D02*
G75*
G02*
X125365930Y-89829570I-361570J32D01*
G01*
X127045930Y-89321540D02*
G75*
G03*
X126927440Y-89440000I-30J-118460D01*
G01*
X124884390Y-89440000D02*
G75*
G03*
X124765930Y-89321510I-118490J0D01*
G01*
X126927470Y-89468032D02*
G75*
G02*
X126565930Y-89829570I-361570J32D01*
G01*
X126084390Y-89440000D02*
G75*
G03*
X125965930Y-89321510I-118490J0D01*
G01*
X125845930Y-89321540D02*
G75*
G03*
X125727440Y-89440000I-30J-118460D01*
G01*
%TO.N,/FPGA/PB66N*%
X124580000Y-85978461D02*
X125249657Y-85978461D01*
X127627537Y-85520003D02*
X127747537Y-85520003D01*
D33*
X124580000Y-85978461D02*
X123864251Y-85978461D01*
D34*
X127865998Y-85340000D02*
X127865998Y-84978461D01*
X132550342Y-85478460D02*
X133334690Y-85478460D01*
X130627537Y-84978461D02*
X130747537Y-84978461D01*
X129065998Y-85401542D02*
X129065998Y-85340000D01*
X129427537Y-84978461D02*
X129547537Y-84978461D01*
X127509076Y-85340000D02*
X127509076Y-85401542D01*
X130265998Y-85401549D02*
X130265998Y-85340000D01*
X127865998Y-85401542D02*
X127865998Y-85340000D01*
X126249657Y-84978461D02*
X127147537Y-84978461D01*
X132202585Y-85130703D02*
X132550342Y-85478460D01*
X128709076Y-84915146D02*
X128709076Y-84978461D01*
X127865998Y-84978461D02*
X127865998Y-84915146D01*
D33*
X123864251Y-85978461D02*
X123517577Y-85631787D01*
X123517577Y-85631787D02*
X123165933Y-85631787D01*
D34*
X128172391Y-84608753D02*
X128402683Y-84608753D01*
X130027537Y-85520010D02*
X130147537Y-85520010D01*
X125249657Y-85978461D02*
X126249657Y-84978461D01*
X130747537Y-84978461D02*
X132050343Y-84978461D01*
X132050343Y-84978461D02*
X132202585Y-85130703D01*
X128709076Y-84978461D02*
X128709076Y-85340000D01*
X129909076Y-85340000D02*
X129909076Y-85401549D01*
X128709076Y-85340000D02*
X128709076Y-85401542D01*
X128827537Y-85520003D02*
X128947537Y-85520003D01*
X133334690Y-85478460D02*
X133410000Y-85403150D01*
X128947537Y-85520003D02*
G75*
G03*
X129066003Y-85401542I-37J118503D01*
G01*
X129547537Y-84978461D02*
G75*
G02*
X129909039Y-85340000I-37J-361539D01*
G01*
X127747537Y-85520003D02*
G75*
G03*
X127866003Y-85401542I-37J118503D01*
G01*
X130265998Y-85340000D02*
G75*
G02*
X130627537Y-84978498I361502J0D01*
G01*
X128402683Y-84608753D02*
G75*
G02*
X128709047Y-84915146I17J-306347D01*
G01*
X129909076Y-85401549D02*
G75*
G03*
X130027537Y-85520024I118424J-51D01*
G01*
X127147537Y-84978461D02*
G75*
G02*
X127509039Y-85340000I-37J-361539D01*
G01*
X130147537Y-85520010D02*
G75*
G03*
X130265910Y-85401549I-37J118410D01*
G01*
X129065998Y-85340000D02*
G75*
G02*
X129427537Y-84978498I361502J0D01*
G01*
X127865998Y-84915146D02*
G75*
G02*
X128172391Y-84608698I306402J46D01*
G01*
X128709076Y-85401542D02*
G75*
G03*
X128827537Y-85519924I118424J42D01*
G01*
X127509076Y-85401542D02*
G75*
G03*
X127627537Y-85519924I118424J42D01*
G01*
%TO.N,/FPGA/PB68N*%
X129700000Y-86678461D02*
X124000000Y-86678461D01*
X131876830Y-86109241D02*
X131756830Y-86109241D01*
X133334689Y-86678461D02*
X132956830Y-86678461D01*
X130684751Y-86214303D02*
X130548909Y-86214303D01*
X132238369Y-87032055D02*
X132238369Y-86921539D01*
X129956830Y-86678461D02*
X129700000Y-86678461D01*
X132238369Y-86921539D02*
X132238369Y-86678461D01*
X131395291Y-86470780D02*
X131395291Y-86678461D01*
D33*
X123857145Y-86678461D02*
X124000000Y-86678461D01*
D34*
X132492720Y-87142571D02*
X132348885Y-87142571D01*
X131283674Y-87144773D02*
X131149986Y-87144773D01*
X131038369Y-87033156D02*
X131038369Y-86921539D01*
X131395291Y-86921539D02*
X131395291Y-87033156D01*
X131395291Y-86678461D02*
X131395291Y-86921539D01*
X131038369Y-86921539D02*
X131038369Y-86689460D01*
X133410000Y-86603150D02*
X133334689Y-86678461D01*
X131038369Y-86689460D02*
X131038369Y-86567921D01*
X132238369Y-86678461D02*
X132238369Y-86470780D01*
D33*
X122812379Y-85985341D02*
X123164025Y-85985341D01*
D34*
X130084751Y-86678461D02*
X129956830Y-86678461D01*
D33*
X123164025Y-85985341D02*
X123857145Y-86678461D01*
D34*
X131149986Y-87144773D02*
G75*
G02*
X131038427Y-87033156I14J111573D01*
G01*
X132603236Y-87032055D02*
G75*
G02*
X132492720Y-87142636I-110536J-45D01*
G01*
X132956830Y-86678461D02*
G75*
G03*
X132603161Y-87032055I-30J-353639D01*
G01*
X131038369Y-86567921D02*
G75*
G03*
X130684751Y-86214331I-353569J21D01*
G01*
X132348885Y-87142571D02*
G75*
G02*
X132238429Y-87032055I15J110471D01*
G01*
X131756830Y-86109241D02*
G75*
G03*
X131395241Y-86470780I-30J-361559D01*
G01*
X130195291Y-86567921D02*
G75*
G02*
X130084751Y-86678391I-110491J21D01*
G01*
X132238369Y-86470780D02*
G75*
G03*
X131876830Y-86109231I-361569J-20D01*
G01*
X131395291Y-87033156D02*
G75*
G02*
X131283674Y-87144791I-111591J-44D01*
G01*
X130548909Y-86214303D02*
G75*
G03*
X130195303Y-86567921I-9J-353597D01*
G01*
D33*
%TO.N,/FPGA/PB56P*%
X124020544Y-84217574D02*
X124114059Y-84124059D01*
X123165933Y-84217574D02*
X124020544Y-84217574D01*
D34*
X127738190Y-80655058D02*
X127858190Y-80655058D01*
X127376651Y-81081539D02*
X127376651Y-81016597D01*
X130738190Y-81200000D02*
X130858190Y-81200000D01*
X128338190Y-81200000D02*
X128458190Y-81200000D01*
X129776651Y-81081539D02*
X129776651Y-81016580D01*
X130619729Y-81016580D02*
X130619729Y-81081539D01*
X130138190Y-80655041D02*
X130258190Y-80655041D01*
X124114059Y-84124059D02*
X127038118Y-81200000D01*
X128938190Y-80655058D02*
X129058190Y-80655058D01*
X133334690Y-81878460D02*
X133410000Y-81803150D01*
X132357831Y-81200000D02*
X133036291Y-81878460D01*
X129538190Y-81200000D02*
X129658190Y-81200000D01*
X127038118Y-81200000D02*
X127258190Y-81200000D01*
X133036291Y-81878460D02*
X133334690Y-81878460D01*
X128219729Y-81016597D02*
X128219729Y-81081539D01*
X128576651Y-81081539D02*
X128576651Y-81016597D01*
X130858190Y-81200000D02*
X130900000Y-81200000D01*
X129419729Y-81016597D02*
X129419729Y-81081539D01*
X130900000Y-81200000D02*
X132357831Y-81200000D01*
X129658190Y-81200000D02*
G75*
G03*
X129776700Y-81081539I10J118500D01*
G01*
X130258190Y-80655041D02*
G75*
G02*
X130619759Y-81016580I10J-361559D01*
G01*
X129419729Y-81081539D02*
G75*
G03*
X129538190Y-81199971I118471J39D01*
G01*
X128219729Y-81081539D02*
G75*
G03*
X128338190Y-81199971I118471J39D01*
G01*
X130619729Y-81081539D02*
G75*
G03*
X130738190Y-81199971I118471J39D01*
G01*
X128576651Y-81016597D02*
G75*
G02*
X128938190Y-80655051I361549J-3D01*
G01*
X127258190Y-81200000D02*
G75*
G03*
X127376700Y-81081539I10J118500D01*
G01*
X128458190Y-81200000D02*
G75*
G03*
X128576700Y-81081539I10J118500D01*
G01*
X129776651Y-81016580D02*
G75*
G02*
X130138190Y-80655051I361549J-20D01*
G01*
X129058190Y-80655058D02*
G75*
G02*
X129419742Y-81016597I10J-361542D01*
G01*
X127376651Y-81016597D02*
G75*
G02*
X127738190Y-80655051I361549J-3D01*
G01*
X127858190Y-80655058D02*
G75*
G02*
X128219742Y-81016597I10J-361542D01*
G01*
%TO.N,/FPGA/PB70P*%
X130300869Y-87878460D02*
X130300869Y-88097874D01*
X128149657Y-88278461D02*
X128549658Y-87878460D01*
D33*
X122810470Y-86338894D02*
X122458826Y-86338894D01*
D34*
X129178157Y-88317288D02*
X129359915Y-88317288D01*
X130300869Y-87777775D02*
X130300869Y-87878460D01*
X131400000Y-87878460D02*
X133334690Y-87878460D01*
X129801553Y-87434011D02*
X129957105Y-87434011D01*
X133334690Y-87878460D02*
X133410000Y-87803150D01*
X130998743Y-87878460D02*
X131139329Y-87878460D01*
X124750037Y-88278461D02*
X128149657Y-88278461D01*
X130300869Y-88097874D02*
X130300869Y-88219414D01*
D33*
X123731576Y-87260000D02*
X122810470Y-86338894D01*
D34*
X130398743Y-88317288D02*
X130559915Y-88317288D01*
X128549658Y-87878460D02*
X128739329Y-87878460D01*
X129457789Y-87878460D02*
X129457789Y-87777775D01*
X123731576Y-87260000D02*
X124750037Y-88278461D01*
X129457789Y-88219414D02*
X129457789Y-88121540D01*
X129457789Y-88121540D02*
X129457789Y-87878460D01*
X131139329Y-87878460D02*
X131400000Y-87878460D01*
X128739329Y-87878460D02*
G75*
G02*
X129080240Y-88219414I-29J-340940D01*
G01*
X129080283Y-88219414D02*
G75*
G03*
X129178157Y-88317317I97917J14D01*
G01*
X130300869Y-88219414D02*
G75*
G03*
X130398743Y-88317231I97831J14D01*
G01*
X129359915Y-88317288D02*
G75*
G03*
X129457788Y-88219414I-15J97888D01*
G01*
X130657789Y-88219414D02*
G75*
G02*
X130998743Y-87878489I340911J14D01*
G01*
X129957105Y-87434011D02*
G75*
G02*
X130300889Y-87777775I-5J-343789D01*
G01*
X129457789Y-87777775D02*
G75*
G02*
X129801553Y-87433989I343811J-25D01*
G01*
X130559915Y-88317288D02*
G75*
G03*
X130657788Y-88219414I-15J97888D01*
G01*
%TO.N,/FPGA/PR11P*%
X122400000Y-88919999D02*
X124001541Y-90521540D01*
D33*
X122400000Y-88400000D02*
X122400000Y-88049744D01*
D34*
X133346431Y-90521540D02*
X133421741Y-90596850D01*
D33*
X121751719Y-87401719D02*
X121751719Y-87046001D01*
X122400000Y-88049744D02*
X121751975Y-87401719D01*
D34*
X122400000Y-88400000D02*
X122400000Y-88919999D01*
D33*
X121751975Y-87401719D02*
X121751719Y-87401719D01*
D34*
X124001541Y-90521540D02*
X133346431Y-90521540D01*
%TO.N,/FPGA/PB56N*%
X131615375Y-81443078D02*
X131675375Y-81443078D01*
X127619729Y-81081539D02*
X127619729Y-81016597D01*
D33*
X124010755Y-84571127D02*
X124285941Y-84295941D01*
X123519486Y-84571127D02*
X124010755Y-84571127D01*
D34*
X133334690Y-82121540D02*
X133410000Y-82196850D01*
X124285941Y-84295941D02*
X127138804Y-81443078D01*
X128338190Y-81443078D02*
X128458190Y-81443078D01*
X130738190Y-81443078D02*
X130858190Y-81443078D01*
X132243381Y-81443078D02*
X132257145Y-81443078D01*
X131495375Y-81573078D02*
X131495375Y-81563078D01*
X131315375Y-81693078D02*
X131375375Y-81693078D01*
X131195375Y-81563078D02*
X131195375Y-81573078D01*
X127738190Y-80898136D02*
X127858190Y-80898136D01*
X130376651Y-81016580D02*
X130376651Y-81081539D01*
X129176651Y-81016597D02*
X129176651Y-81081539D01*
X128938190Y-80898136D02*
X129058190Y-80898136D01*
X130138190Y-80898119D02*
X130258190Y-80898119D01*
X131675375Y-81443078D02*
X132243381Y-81443078D01*
X130900000Y-81443078D02*
X131075375Y-81443078D01*
X128819729Y-81081539D02*
X128819729Y-81016597D01*
X129538190Y-81443078D02*
X129658190Y-81443078D01*
X130019729Y-81081539D02*
X130019729Y-81016580D01*
X127976651Y-81016597D02*
X127976651Y-81081539D01*
X130858190Y-81443078D02*
X130900000Y-81443078D01*
X132257145Y-81443078D02*
X132935607Y-82121540D01*
X127138804Y-81443078D02*
X127258190Y-81443078D01*
X132935607Y-82121540D02*
X133334690Y-82121540D01*
X128819729Y-81016597D02*
G75*
G02*
X128938190Y-80898129I118471J-3D01*
G01*
X130258190Y-80898119D02*
G75*
G02*
X130376681Y-81016580I10J-118481D01*
G01*
X129176651Y-81081539D02*
G75*
G03*
X129538190Y-81443049I361549J39D01*
G01*
X127858190Y-80898136D02*
G75*
G02*
X127976664Y-81016597I10J-118464D01*
G01*
X127619729Y-81016597D02*
G75*
G02*
X127738190Y-80898129I118471J-3D01*
G01*
X128458190Y-81443078D02*
G75*
G03*
X128819778Y-81081539I10J361578D01*
G01*
X129058190Y-80898136D02*
G75*
G02*
X129176664Y-81016597I10J-118464D01*
G01*
X131375375Y-81693078D02*
G75*
G03*
X131495378Y-81573078I25J119978D01*
G01*
X127258190Y-81443078D02*
G75*
G03*
X127619778Y-81081539I10J361578D01*
G01*
X130376651Y-81081539D02*
G75*
G03*
X130738190Y-81443049I361549J39D01*
G01*
X130019729Y-81016580D02*
G75*
G02*
X130138190Y-80898129I118471J-20D01*
G01*
X131195375Y-81573078D02*
G75*
G03*
X131315375Y-81693125I120025J-22D01*
G01*
X127976651Y-81081539D02*
G75*
G03*
X128338190Y-81443049I361549J39D01*
G01*
X131495375Y-81563078D02*
G75*
G02*
X131615375Y-81443075I120025J-22D01*
G01*
X129658190Y-81443078D02*
G75*
G03*
X130019778Y-81081539I10J361578D01*
G01*
X131075375Y-81443078D02*
G75*
G02*
X131195422Y-81563078I25J-120022D01*
G01*
%TO.N,/FPGA/PB66P*%
X129665998Y-85340000D02*
X129665998Y-85401549D01*
X132030703Y-85302585D02*
X132449658Y-85721540D01*
X125372831Y-86199051D02*
X125350343Y-86221539D01*
X125415675Y-86156207D02*
X125372831Y-86199051D01*
X128172391Y-84851831D02*
X128402683Y-84851831D01*
X131949657Y-85221539D02*
X132030703Y-85302585D01*
X128465998Y-84978461D02*
X128465998Y-85340000D01*
X126264204Y-85802376D02*
X126087288Y-85979292D01*
X130627537Y-85221539D02*
X130747537Y-85221539D01*
X125350343Y-86221539D02*
X124580000Y-86221539D01*
X126350343Y-85221539D02*
X127147537Y-85221539D01*
X128109076Y-84978461D02*
X128109076Y-84915146D01*
X132449658Y-85721540D02*
X133334690Y-85721540D01*
X130027537Y-85763088D02*
X130147537Y-85763088D01*
X127627537Y-85763081D02*
X127747537Y-85763081D01*
X128465998Y-85340000D02*
X128465998Y-85401542D01*
X129309076Y-85401542D02*
X129309076Y-85340000D01*
D33*
X123755684Y-86221539D02*
X123519486Y-85985341D01*
D34*
X128465998Y-84915146D02*
X128465998Y-84978461D01*
X128827537Y-85763081D02*
X128947537Y-85763081D01*
X133334690Y-85721540D02*
X133410000Y-85796850D01*
X129427537Y-85221539D02*
X129547537Y-85221539D01*
X126264204Y-85307678D02*
X126350343Y-85221539D01*
D33*
X124580000Y-86221539D02*
X123755684Y-86221539D01*
D34*
X125592590Y-85979292D02*
X125415675Y-86156207D01*
X128109076Y-85401542D02*
X128109076Y-85340000D01*
X130747537Y-85221539D02*
X131949657Y-85221539D01*
X128109076Y-85340000D02*
X128109076Y-84978461D01*
X130509076Y-85401549D02*
X130509076Y-85340000D01*
X127265998Y-85340000D02*
X127265998Y-85401542D01*
X127747537Y-85763081D02*
G75*
G03*
X128109081Y-85401542I-37J361581D01*
G01*
X128109076Y-84915146D02*
G75*
G02*
X128172391Y-84851776I63324J46D01*
G01*
X128947537Y-85763081D02*
G75*
G03*
X129309081Y-85401542I-37J361581D01*
G01*
X128465998Y-85401542D02*
G75*
G03*
X128827537Y-85763002I361502J42D01*
G01*
X125839938Y-85979293D02*
G75*
G03*
X125592626Y-85979328I-123638J-123707D01*
G01*
X127265998Y-85401542D02*
G75*
G03*
X127627537Y-85763002I361502J42D01*
G01*
X127147537Y-85221539D02*
G75*
G02*
X127265961Y-85340000I-37J-118461D01*
G01*
X130509076Y-85340000D02*
G75*
G02*
X130627537Y-85221576I118424J0D01*
G01*
X128402683Y-84851831D02*
G75*
G02*
X128465969Y-84915146I17J-63269D01*
G01*
X129547537Y-85221539D02*
G75*
G02*
X129665961Y-85340000I-37J-118461D01*
G01*
X126264203Y-85555028D02*
G75*
G02*
X126264201Y-85802374I-123703J-123672D01*
G01*
X126087288Y-85979292D02*
G75*
G02*
X125839926Y-85979306I-123688J123692D01*
G01*
X126264204Y-85307678D02*
G75*
G03*
X126264156Y-85555074I123696J-123722D01*
G01*
X130147537Y-85763088D02*
G75*
G03*
X130508988Y-85401549I-37J361488D01*
G01*
X129665998Y-85401549D02*
G75*
G03*
X130027537Y-85763102I361502J-51D01*
G01*
X129309076Y-85340000D02*
G75*
G02*
X129427537Y-85221576I118424J0D01*
G01*
%TO.N,/FPGA/PB70N*%
X132944151Y-88121540D02*
X133334690Y-88121540D01*
X129700869Y-88121540D02*
X129700869Y-87878460D01*
X131631806Y-88241540D02*
X131631806Y-88304220D01*
X131931806Y-88304220D02*
X131931806Y-88241540D01*
X131751806Y-88424220D02*
X131811806Y-88424220D01*
X133334690Y-88121540D02*
X133410000Y-88196850D01*
X129700869Y-88219414D02*
X129700869Y-88121540D01*
X130057789Y-87878460D02*
X130057789Y-88097874D01*
X130057789Y-88097874D02*
X130057789Y-88219414D01*
X132111806Y-88121540D02*
X132944151Y-88121540D01*
X129700869Y-87878460D02*
X129700869Y-87777775D01*
X131139329Y-88121540D02*
X131400000Y-88121540D01*
X128250343Y-88521539D02*
X128650342Y-88121540D01*
X129178157Y-88560368D02*
X129359915Y-88560368D01*
X130057789Y-87777775D02*
X130057789Y-87878460D01*
X128650342Y-88121540D02*
X128739329Y-88121540D01*
X123634931Y-87515000D02*
X124641470Y-88521539D01*
X130398743Y-88560368D02*
X130559915Y-88560368D01*
D33*
X123634931Y-87515000D02*
X122812379Y-86692448D01*
D34*
X132051806Y-88121540D02*
X132111806Y-88121540D01*
X129801553Y-87677091D02*
X129957105Y-87677091D01*
X124641470Y-88521539D02*
X128250343Y-88521539D01*
X130998743Y-88121540D02*
X131139329Y-88121540D01*
X131400000Y-88121540D02*
X131511806Y-88121540D01*
X130559915Y-88560368D02*
G75*
G03*
X130900868Y-88219414I-15J340968D01*
G01*
X129957105Y-87677091D02*
G75*
G02*
X130057809Y-87777775I-5J-100709D01*
G01*
X128739329Y-88121540D02*
G75*
G02*
X128837160Y-88219414I-29J-97860D01*
G01*
X129359915Y-88560368D02*
G75*
G03*
X129700868Y-88219414I-15J340968D01*
G01*
X128837203Y-88219414D02*
G75*
G03*
X129178157Y-88560397I340997J14D01*
G01*
X129700869Y-87777775D02*
G75*
G02*
X129801553Y-87677069I100731J-25D01*
G01*
X130900869Y-88219414D02*
G75*
G02*
X130998743Y-88121569I97831J14D01*
G01*
X131931806Y-88241540D02*
G75*
G02*
X132051806Y-88121506I119994J40D01*
G01*
X131631806Y-88304220D02*
G75*
G03*
X131751806Y-88424194I119994J20D01*
G01*
X130057789Y-88219414D02*
G75*
G03*
X130398743Y-88560311I340911J14D01*
G01*
X131511806Y-88121540D02*
G75*
G02*
X131631760Y-88241540I-6J-119960D01*
G01*
X131811806Y-88424220D02*
G75*
G03*
X131931820Y-88304220I-6J120020D01*
G01*
D33*
%TO.N,/FPGA/PB18P*%
X119630399Y-82803360D02*
X118927039Y-82100000D01*
D34*
X122449658Y-75378460D02*
X123824690Y-75378460D01*
X118676810Y-79151308D02*
X122449658Y-75378460D01*
D35*
X118927039Y-82100000D02*
X118676810Y-81849771D01*
X118676810Y-81849771D02*
X118676810Y-80400000D01*
D34*
X118676810Y-80400000D02*
X118676810Y-79151308D01*
X123824690Y-75378460D02*
X123900000Y-75303150D01*
%TO.N,/FPGA/PB22N*%
X123900000Y-81303150D02*
X123824690Y-81378460D01*
X123355955Y-81378460D02*
X123824690Y-81378460D01*
D33*
X122170721Y-82559279D02*
X121926640Y-82803360D01*
D34*
X123167208Y-81567207D02*
X123355955Y-81378460D01*
D35*
X122175136Y-82559279D02*
X123167208Y-81567207D01*
D33*
X121926640Y-82803360D02*
X121751719Y-82803360D01*
X122175136Y-82559279D02*
X122170721Y-82559279D01*
%TO.N,/FPGA/PB26P*%
X120337506Y-82096253D02*
X120337506Y-81037506D01*
D35*
X120337506Y-81037506D02*
X120337506Y-80588276D01*
D34*
X123824690Y-77778460D02*
X123900000Y-77703150D01*
D35*
X120337506Y-80588276D02*
X122112891Y-78812891D01*
D34*
X122112891Y-78812891D02*
X123147322Y-77778460D01*
X123147322Y-77778460D02*
X123824690Y-77778460D01*
%TO.N,/FPGA/PB28P*%
X123230531Y-80443687D02*
X123824690Y-80443687D01*
X122587109Y-81087109D02*
X123230531Y-80443687D01*
D33*
X121800000Y-82400000D02*
X122100000Y-82100000D01*
X121500000Y-82700000D02*
X121800000Y-82400000D01*
D34*
X123824690Y-80443687D02*
X123900000Y-80518997D01*
D33*
X122100000Y-82100000D02*
X122100000Y-81900000D01*
X121751719Y-83510467D02*
X121751719Y-83158822D01*
D35*
X122100000Y-81900000D02*
X122100000Y-81574218D01*
D33*
X121500000Y-82800000D02*
X121500000Y-82700000D01*
X121596448Y-83003551D02*
X121500000Y-82907103D01*
X121751719Y-83158822D02*
X121596448Y-83003551D01*
X121500000Y-82907103D02*
X121500000Y-82800000D01*
D35*
X122100000Y-81574218D02*
X122587109Y-81087109D01*
D33*
%TO.N,/FPGA/PB24N*%
X122456918Y-83864020D02*
X122707476Y-83613462D01*
D35*
X122897953Y-83613462D02*
X123693607Y-82817808D01*
D33*
X122707476Y-83613462D02*
X122897953Y-83613462D01*
D35*
X123693607Y-82817808D02*
X123817250Y-82817808D01*
X123817250Y-82817808D02*
X123890910Y-82891468D01*
D33*
X122105273Y-83864020D02*
X122456918Y-83864020D01*
D35*
%TO.N,/FPGA/PB30P*%
X123826340Y-79223190D02*
X123900000Y-79296850D01*
D33*
X121044612Y-82096253D02*
X121400000Y-81740865D01*
D35*
X121400000Y-81174218D02*
X123351028Y-79223190D01*
X123351028Y-79223190D02*
X123826340Y-79223190D01*
D33*
X121400000Y-81740865D02*
X121400000Y-81300000D01*
D35*
X121400000Y-81300000D02*
X121400000Y-81174218D01*
D34*
%TO.N,/FPGA/PB16P*%
X123900000Y-74103150D02*
X123824690Y-74178460D01*
D33*
X119276845Y-83156914D02*
X118945032Y-83156914D01*
X118945032Y-83156914D02*
X118374059Y-82585941D01*
D34*
X123824690Y-74178460D02*
X122249658Y-74178460D01*
X117900000Y-78528118D02*
X117900000Y-82111882D01*
X122249658Y-74178460D02*
X117900000Y-78528118D01*
X117900000Y-82111882D02*
X118374059Y-82585941D01*
D33*
%TO.N,/FPGA/PB28N*%
X121398166Y-83508559D02*
X121147607Y-83258000D01*
X121300000Y-82899617D02*
X121300000Y-82800000D01*
X121300000Y-82703286D02*
X121200000Y-82603286D01*
D34*
X122412891Y-80912891D02*
X123125175Y-80200607D01*
D33*
X121200000Y-82603286D02*
X121200000Y-82600000D01*
X121300000Y-82800000D02*
X121300000Y-82703286D01*
X121147607Y-83052010D02*
X121300000Y-82899617D01*
X121147607Y-82344903D02*
X121592510Y-81900000D01*
D34*
X123125175Y-80200607D02*
X123824690Y-80200607D01*
D33*
X121200000Y-82600000D02*
X121147607Y-82547607D01*
X121147607Y-82547607D02*
X121147607Y-82344903D01*
X121147607Y-83258000D02*
X121147607Y-83052010D01*
D35*
X121600000Y-81725782D02*
X122412891Y-80912891D01*
D33*
X121398166Y-83864020D02*
X121398166Y-83508559D01*
X121592510Y-81900000D02*
X121600000Y-81900000D01*
D35*
X121600000Y-81900000D02*
X121600000Y-81725782D01*
D34*
X123824690Y-80200607D02*
X123900000Y-80125297D01*
%TO.N,/FPGA/PB22P*%
X123824690Y-81621540D02*
X123900000Y-81696850D01*
D33*
X122379336Y-82700664D02*
X122105273Y-82974727D01*
D35*
X122382187Y-82700664D02*
X123341426Y-81741425D01*
D33*
X122382187Y-82700664D02*
X122379336Y-82700664D01*
D34*
X123341426Y-81741425D02*
X123461311Y-81621540D01*
X123461311Y-81621540D02*
X123824690Y-81621540D01*
D33*
X122105273Y-82974727D02*
X122105273Y-83156914D01*
%TO.N,/FPGA/PB20P*%
X119983952Y-82449807D02*
X119500000Y-81965855D01*
D34*
X123824690Y-76578460D02*
X123900000Y-76503150D01*
X121612891Y-77712891D02*
X122747322Y-76578460D01*
D35*
X119500000Y-81100000D02*
X119500000Y-79825782D01*
D33*
X119500000Y-81965855D02*
X119500000Y-81100000D01*
D35*
X119500000Y-79825782D02*
X121612891Y-77712891D01*
D34*
X122747322Y-76578460D02*
X123824690Y-76578460D01*
D33*
%TO.N,/FPGA/PB20N*%
X120337506Y-82447898D02*
X120337506Y-82500000D01*
X120337506Y-82500000D02*
X120337506Y-82803360D01*
X120337506Y-82451716D02*
X119800000Y-81914210D01*
D35*
X119800000Y-79874218D02*
X121787109Y-77887109D01*
D34*
X123824690Y-76821540D02*
X123900000Y-76896850D01*
D33*
X119800000Y-81914210D02*
X119800000Y-81100000D01*
X120337506Y-82500000D02*
X120337506Y-82451716D01*
D35*
X119800000Y-81100000D02*
X119800000Y-79874218D01*
D34*
X122852678Y-76821540D02*
X123824690Y-76821540D01*
X121787109Y-77887109D02*
X122852678Y-76821540D01*
D35*
%TO.N,/FPGA/PB18N*%
X118923190Y-81740690D02*
X118923190Y-80400000D01*
D34*
X122550342Y-75621540D02*
X123824690Y-75621540D01*
X118923190Y-80400000D02*
X118923190Y-79248692D01*
D33*
X119983952Y-82801452D02*
X119100000Y-81917500D01*
D35*
X119100000Y-81917500D02*
X118923190Y-81740690D01*
D33*
X119983952Y-83156914D02*
X119983952Y-82801452D01*
D34*
X123824690Y-75621540D02*
X123900000Y-75696850D01*
X118923190Y-79248692D02*
X122550342Y-75621540D01*
%TO.N,/FPGA/PB16N*%
X123824690Y-74421540D02*
X122350342Y-74421540D01*
X122350342Y-74421540D02*
X118200000Y-78571882D01*
D33*
X119630399Y-83510467D02*
X119630399Y-83158823D01*
D34*
X118200000Y-78571882D02*
X118200000Y-82068118D01*
X118200000Y-82068118D02*
X118545941Y-82414059D01*
D33*
X119630399Y-83158823D02*
X119261576Y-82790000D01*
X118921882Y-82790000D02*
X118545941Y-82414059D01*
X119261576Y-82790000D02*
X118921882Y-82790000D01*
D34*
X123900000Y-74496850D02*
X123824690Y-74421540D01*
D33*
%TO.N,/FPGA/PB30N*%
X120691059Y-82449807D02*
X120691059Y-82098161D01*
D35*
X123248972Y-78976810D02*
X123826340Y-78976810D01*
D33*
X121025782Y-81763438D02*
X121025782Y-81200000D01*
D35*
X123826340Y-78976810D02*
X123900000Y-78903150D01*
X121025782Y-81200000D02*
X123248972Y-78976810D01*
D33*
X120691059Y-82098161D02*
X121025782Y-81763438D01*
D34*
%TO.N,/FPGA/PB26N*%
X122287109Y-78987109D02*
X123252678Y-78021540D01*
D33*
X120691059Y-81451059D02*
X120691059Y-80908941D01*
D34*
X123824690Y-78021540D02*
X123900000Y-78096850D01*
D35*
X120691059Y-80583159D02*
X122287109Y-78987109D01*
D33*
X120691059Y-81451059D02*
X120691059Y-81742700D01*
D35*
X120691059Y-80908941D02*
X120691059Y-80583159D01*
D34*
X123252678Y-78021540D02*
X123824690Y-78021540D01*
D35*
%TO.N,/FPGA/PB24P*%
X122779743Y-83371048D02*
X123579363Y-82571428D01*
D33*
X122779743Y-83371048D02*
X122598245Y-83371048D01*
D35*
X123579363Y-82571428D02*
X123817250Y-82571428D01*
D33*
X122598245Y-83371048D02*
X122458826Y-83510467D01*
D35*
X123817250Y-82571428D02*
X123890910Y-82497768D01*
D34*
%TO.N,/FPGA/PR7N*%
X107485310Y-93225240D02*
X119018978Y-93225240D01*
X121210000Y-89490000D02*
X121260000Y-89440000D01*
D33*
X121330000Y-88390140D02*
X121330000Y-89370000D01*
D34*
X121210000Y-91034218D02*
X121210000Y-89490000D01*
D33*
X121044612Y-87753108D02*
X121044612Y-88104752D01*
D34*
X107410000Y-93300550D02*
X107485310Y-93225240D01*
X119018978Y-93225240D02*
X121210000Y-91034218D01*
D33*
X121330000Y-89370000D02*
X121260000Y-89440000D01*
X121044612Y-88104752D02*
X121330000Y-88390140D01*
D34*
%TO.N,/FPGA/PT67P*%
X115897150Y-92239924D02*
X115751764Y-92239924D01*
X116002917Y-91785310D02*
X116002917Y-92012617D01*
X110464222Y-91785310D02*
X110759725Y-91785310D01*
D35*
X119650000Y-89955782D02*
X118452891Y-91152891D01*
D33*
X119986892Y-87753108D02*
X119650000Y-88090000D01*
D34*
X116526049Y-91388494D02*
X116322865Y-91388494D01*
X117109771Y-92239996D02*
X116951800Y-92239996D01*
X110759725Y-91785310D02*
X114774705Y-91785310D01*
X116845997Y-92028390D02*
X116845997Y-91785310D01*
X108926722Y-91785310D02*
X109264222Y-91785310D01*
X117820472Y-91785310D02*
X117564457Y-91785310D01*
D33*
X119650000Y-88090000D02*
X119650000Y-89955782D01*
X120337506Y-87753108D02*
X119986892Y-87753108D01*
D34*
X115297150Y-91785310D02*
X115164457Y-91785310D01*
X118452891Y-91152891D02*
X117820472Y-91785310D01*
X116002917Y-91708442D02*
X116002917Y-91785310D01*
X116845997Y-92134193D02*
X116845997Y-92028390D01*
X110126722Y-91785310D02*
X110464222Y-91785310D01*
X116845997Y-91785310D02*
X116845997Y-91708442D01*
X115164457Y-91785310D02*
X114774705Y-91785310D01*
X107475310Y-91785310D02*
X108064222Y-91785310D01*
X116002917Y-92012617D02*
X116002917Y-92134157D01*
X107400000Y-91710000D02*
X107475310Y-91785310D01*
X108326722Y-91522810D02*
X108664222Y-91522810D01*
X109526722Y-91522810D02*
X109864222Y-91522810D01*
X116951800Y-92239996D02*
G75*
G02*
X116846004Y-92134193I0J105796D01*
G01*
X109995472Y-91654060D02*
G75*
G03*
X110126722Y-91785328I131228J-40D01*
G01*
X115645997Y-92134157D02*
G75*
G03*
X115297150Y-91785303I-348897J-43D01*
G01*
X115751764Y-92239924D02*
G75*
G02*
X115646076Y-92134157I36J105724D01*
G01*
X117564457Y-91785310D02*
G75*
G03*
X117215610Y-92134193I43J-348890D01*
G01*
X116845997Y-91708442D02*
G75*
G03*
X116526049Y-91388403I-319997J42D01*
G01*
X108664222Y-91522810D02*
G75*
G02*
X108795490Y-91654060I-22J-131290D01*
G01*
X108795472Y-91654060D02*
G75*
G03*
X108926722Y-91785328I131228J-40D01*
G01*
X116002917Y-92134157D02*
G75*
G02*
X115897150Y-92239917I-105717J-43D01*
G01*
X108195472Y-91654060D02*
G75*
G02*
X108326722Y-91522872I131228J-40D01*
G01*
X116322865Y-91388494D02*
G75*
G03*
X116002994Y-91708442I35J-319906D01*
G01*
X109864222Y-91522810D02*
G75*
G02*
X109995490Y-91654060I-22J-131290D01*
G01*
X109395472Y-91654060D02*
G75*
G02*
X109526722Y-91522872I131228J-40D01*
G01*
X117215574Y-92134193D02*
G75*
G02*
X117109771Y-92239974I-105774J-7D01*
G01*
X109264222Y-91785310D02*
G75*
G03*
X109395410Y-91654060I-22J131210D01*
G01*
X108064222Y-91785310D02*
G75*
G03*
X108195410Y-91654060I-22J131210D01*
G01*
%TO.N,/FPGA/PT67N*%
X115897150Y-92483004D02*
X115751764Y-92483004D01*
X117925828Y-92028390D02*
X117564457Y-92028390D01*
X116602917Y-92028390D02*
X116602917Y-91785310D01*
X118627109Y-91327109D02*
X117925828Y-92028390D01*
X114774705Y-92028390D02*
X107475310Y-92028390D01*
X115297150Y-92028390D02*
X115164457Y-92028390D01*
X107475310Y-92028390D02*
X107400000Y-92103700D01*
D33*
X120691059Y-87399554D02*
X120691059Y-87751200D01*
D34*
X116245997Y-92012617D02*
X116245997Y-92134157D01*
X115164457Y-92028390D02*
X114774705Y-92028390D01*
X116245997Y-91785310D02*
X116245997Y-92012617D01*
X116245997Y-91708442D02*
X116245997Y-91785310D01*
X117109771Y-92483076D02*
X116951800Y-92483076D01*
X116602917Y-91785310D02*
X116602917Y-91708442D01*
X116526049Y-91631574D02*
X116322865Y-91631574D01*
X116602917Y-92134193D02*
X116602917Y-92028390D01*
D33*
X120050000Y-88392259D02*
X120050000Y-89904218D01*
D35*
X120050000Y-89904218D02*
X118627109Y-91327109D01*
D33*
X120691059Y-87751200D02*
X120050000Y-88392259D01*
D34*
X116951800Y-92483076D02*
G75*
G02*
X116602924Y-92134193I0J348876D01*
G01*
X115751764Y-92483004D02*
G75*
G02*
X115402996Y-92134157I36J348804D01*
G01*
X117564457Y-92028390D02*
G75*
G03*
X117458690Y-92134193I43J-105810D01*
G01*
X115402917Y-92134157D02*
G75*
G03*
X115297150Y-92028483I-105717J-43D01*
G01*
X116602917Y-91708442D02*
G75*
G03*
X116526049Y-91631483I-76917J42D01*
G01*
X117458654Y-92134193D02*
G75*
G02*
X117109771Y-92483054I-348854J-7D01*
G01*
X116245997Y-92134157D02*
G75*
G02*
X115897150Y-92483097I-348897J-43D01*
G01*
X116322865Y-91631574D02*
G75*
G03*
X116246074Y-91708442I35J-76826D01*
G01*
%TO.N,/FPGA/PR7P*%
X118913622Y-92982160D02*
X120970000Y-90925782D01*
X110844549Y-92982160D02*
X118913622Y-92982160D01*
X107485310Y-92982160D02*
X107932274Y-92982160D01*
X108287048Y-92627386D02*
X108532274Y-92627386D01*
X108887048Y-92982160D02*
X109132274Y-92982160D01*
X109487106Y-92627328D02*
X109732274Y-92627328D01*
D33*
X120691059Y-88461059D02*
X120970000Y-88740000D01*
D34*
X110087106Y-92982160D02*
X110332274Y-92982160D01*
X110332274Y-92982160D02*
X110844549Y-92982160D01*
D33*
X120691059Y-88106661D02*
X120691059Y-88461059D01*
X120970000Y-88740000D02*
X120970000Y-89390000D01*
D34*
X120970000Y-90925782D02*
X120970000Y-89390000D01*
X107410000Y-92906850D02*
X107485310Y-92982160D01*
X108532274Y-92627386D02*
G75*
G02*
X108709714Y-92804773I26J-177414D01*
G01*
X109309690Y-92804744D02*
G75*
G02*
X109487106Y-92627290I177410J44D01*
G01*
X109132274Y-92982160D02*
G75*
G03*
X109309760Y-92804744I26J177460D01*
G01*
X108109661Y-92804773D02*
G75*
G02*
X108287048Y-92627461I177339J-27D01*
G01*
X108709661Y-92804773D02*
G75*
G03*
X108887048Y-92982139I177339J-27D01*
G01*
X107932274Y-92982160D02*
G75*
G03*
X108109660Y-92804773I26J177360D01*
G01*
X109909690Y-92804744D02*
G75*
G03*
X110087106Y-92982110I177410J44D01*
G01*
X109732274Y-92627328D02*
G75*
G02*
X109909672Y-92804744I26J-177372D01*
G01*
%TD*%
%TA.AperFunction,Conductor*%
%TO.N,GND*%
G36*
X134805049Y-70528185D02*
G01*
X134825691Y-70544819D01*
X135455181Y-71174308D01*
X135488666Y-71235631D01*
X135491500Y-71261989D01*
X135491500Y-98738010D01*
X135471815Y-98805049D01*
X135455181Y-98825691D01*
X134825691Y-99455181D01*
X134764368Y-99488666D01*
X134738010Y-99491500D01*
X122549172Y-99491500D01*
X122482133Y-99471815D01*
X122436378Y-99419011D01*
X122426434Y-99349853D01*
X122426838Y-99347241D01*
X122435298Y-99296151D01*
X122471576Y-99077088D01*
X122501238Y-98656050D01*
X122491343Y-98234083D01*
X122441979Y-97814897D01*
X122353578Y-97402176D01*
X122343052Y-97368717D01*
X122251930Y-97079057D01*
X122226917Y-96999546D01*
X122063110Y-96610547D01*
X121863597Y-96238595D01*
X121853261Y-96223028D01*
X121630136Y-95886970D01*
X121630135Y-95886969D01*
X121630130Y-95886961D01*
X121436004Y-95646852D01*
X121364763Y-95558735D01*
X121364756Y-95558728D01*
X121069827Y-95256802D01*
X121069826Y-95256801D01*
X121069823Y-95256798D01*
X120891321Y-95105425D01*
X120747903Y-94983804D01*
X120401849Y-94742166D01*
X120401841Y-94742161D01*
X120034682Y-94533990D01*
X120034664Y-94533981D01*
X119649623Y-94361105D01*
X119649606Y-94361098D01*
X119250084Y-94225043D01*
X119250076Y-94225040D01*
X118839520Y-94126983D01*
X118421630Y-94067809D01*
X118421624Y-94067808D01*
X118421619Y-94067808D01*
X118000000Y-94048025D01*
X117578381Y-94067808D01*
X117578376Y-94067808D01*
X117578369Y-94067809D01*
X117160479Y-94126983D01*
X116749923Y-94225040D01*
X116749915Y-94225043D01*
X116350393Y-94361098D01*
X116350376Y-94361105D01*
X115965335Y-94533981D01*
X115965317Y-94533990D01*
X115598158Y-94742161D01*
X115598150Y-94742166D01*
X115252096Y-94983804D01*
X114930172Y-95256802D01*
X114635243Y-95558728D01*
X114635236Y-95558735D01*
X114369880Y-95886948D01*
X114369863Y-95886970D01*
X114136403Y-96238593D01*
X113939263Y-96606123D01*
X113936890Y-96610547D01*
X113782114Y-96978100D01*
X113773080Y-96999554D01*
X113646422Y-97402172D01*
X113558020Y-97814899D01*
X113508656Y-98234083D01*
X113508656Y-98234085D01*
X113498762Y-98656050D01*
X113498762Y-98656061D01*
X113528423Y-99077082D01*
X113573162Y-99347241D01*
X113564695Y-99416596D01*
X113520075Y-99470363D01*
X113453471Y-99491472D01*
X113450828Y-99491500D01*
X101261989Y-99491500D01*
X101194950Y-99471815D01*
X101174308Y-99455181D01*
X100544819Y-98825691D01*
X100511334Y-98764368D01*
X100508500Y-98738010D01*
X100508500Y-96920943D01*
X102399500Y-96920943D01*
X102399500Y-97079056D01*
X102440423Y-97231783D01*
X102440426Y-97231790D01*
X102519475Y-97368709D01*
X102519479Y-97368714D01*
X102519480Y-97368716D01*
X102631284Y-97480520D01*
X102631286Y-97480521D01*
X102631290Y-97480524D01*
X102722829Y-97533373D01*
X102768216Y-97559577D01*
X102920943Y-97600500D01*
X102920945Y-97600500D01*
X103079055Y-97600500D01*
X103079057Y-97600500D01*
X103231784Y-97559577D01*
X103368716Y-97480520D01*
X103480520Y-97368716D01*
X103559577Y-97231784D01*
X103600500Y-97079057D01*
X103600500Y-96920943D01*
X103559577Y-96768216D01*
X103547392Y-96747111D01*
X103480524Y-96631290D01*
X103480518Y-96631282D01*
X103368717Y-96519481D01*
X103368709Y-96519475D01*
X103231790Y-96440426D01*
X103231786Y-96440424D01*
X103231784Y-96440423D01*
X103079057Y-96399500D01*
X102920943Y-96399500D01*
X102768216Y-96440423D01*
X102768209Y-96440426D01*
X102631290Y-96519475D01*
X102631282Y-96519481D01*
X102519481Y-96631282D01*
X102519475Y-96631290D01*
X102440426Y-96768209D01*
X102440423Y-96768216D01*
X102399500Y-96920943D01*
X100508500Y-96920943D01*
X100508500Y-91068306D01*
X100528185Y-91001267D01*
X100580989Y-90955512D01*
X100650147Y-90945568D01*
X100713703Y-90974593D01*
X100720181Y-90980625D01*
X101007733Y-91268177D01*
X101078572Y-91309076D01*
X101106513Y-91325208D01*
X101216688Y-91354729D01*
X101345798Y-91354729D01*
X101412837Y-91374414D01*
X101433479Y-91391048D01*
X101446182Y-91403751D01*
X101562134Y-91470697D01*
X101691463Y-91505350D01*
X101691465Y-91505350D01*
X101825351Y-91505350D01*
X101825353Y-91505350D01*
X101954682Y-91470697D01*
X102070634Y-91403751D01*
X102164608Y-91309777D01*
X102225931Y-91276292D01*
X102295623Y-91281276D01*
X102339970Y-91309777D01*
X102489934Y-91459741D01*
X102583438Y-91513726D01*
X102588714Y-91516772D01*
X102698889Y-91546293D01*
X102698891Y-91546293D01*
X103278638Y-91546293D01*
X103278640Y-91546293D01*
X103388815Y-91516772D01*
X103394091Y-91513726D01*
X103487595Y-91459741D01*
X103785365Y-91161970D01*
X103846686Y-91128487D01*
X103916377Y-91133471D01*
X103972311Y-91175342D01*
X103980430Y-91187651D01*
X103995843Y-91214345D01*
X104019001Y-91254455D01*
X104113676Y-91349130D01*
X104229628Y-91416076D01*
X104358957Y-91450729D01*
X104358959Y-91450729D01*
X104492845Y-91450729D01*
X104492847Y-91450729D01*
X104622176Y-91416076D01*
X104738128Y-91349130D01*
X104750831Y-91336427D01*
X104812154Y-91302942D01*
X104838512Y-91300108D01*
X106834711Y-91300108D01*
X106901750Y-91319793D01*
X106947505Y-91372597D01*
X106957449Y-91441755D01*
X106942098Y-91486109D01*
X106926153Y-91513724D01*
X106891500Y-91643055D01*
X106891500Y-91776946D01*
X106917708Y-91874758D01*
X106917708Y-91938942D01*
X106891500Y-92036753D01*
X106891500Y-92036755D01*
X106891500Y-92170645D01*
X106926153Y-92299974D01*
X106993099Y-92415926D01*
X106993101Y-92415928D01*
X106999767Y-92422594D01*
X107033252Y-92483917D01*
X107028268Y-92553609D01*
X107006710Y-92587152D01*
X107008046Y-92588178D01*
X107003099Y-92594624D01*
X106936153Y-92710575D01*
X106901500Y-92839905D01*
X106901500Y-92973796D01*
X106927708Y-93071608D01*
X106927708Y-93135792D01*
X106901500Y-93233603D01*
X106901500Y-93233605D01*
X106901500Y-93367495D01*
X106936153Y-93496824D01*
X107003099Y-93612776D01*
X107097774Y-93707451D01*
X107213726Y-93774397D01*
X107343055Y-93809050D01*
X107343057Y-93809050D01*
X107476943Y-93809050D01*
X107476945Y-93809050D01*
X107606274Y-93774397D01*
X107722226Y-93707451D01*
X107734929Y-93694748D01*
X107796252Y-93661263D01*
X107822610Y-93658429D01*
X114223082Y-93658429D01*
X114290121Y-93678114D01*
X114335876Y-93730918D01*
X114345820Y-93800076D01*
X114316795Y-93863632D01*
X114310763Y-93870110D01*
X114258701Y-93922171D01*
X114258699Y-93922174D01*
X114191753Y-94038125D01*
X114157100Y-94167455D01*
X114157100Y-94184930D01*
X114137415Y-94251969D01*
X114084611Y-94297724D01*
X114065194Y-94304705D01*
X114010524Y-94319353D01*
X113894574Y-94386299D01*
X113894571Y-94386301D01*
X113799901Y-94480971D01*
X113799899Y-94480974D01*
X113732953Y-94596925D01*
X113698300Y-94726255D01*
X113698300Y-94743730D01*
X113678615Y-94810769D01*
X113625811Y-94856524D01*
X113606394Y-94863505D01*
X113551724Y-94878153D01*
X113435774Y-94945099D01*
X113435771Y-94945101D01*
X113341101Y-95039771D01*
X113341099Y-95039774D01*
X113274153Y-95155725D01*
X113239500Y-95285055D01*
X113239500Y-95296528D01*
X113219815Y-95363567D01*
X113167011Y-95409322D01*
X113147593Y-95416303D01*
X113070526Y-95436953D01*
X113070524Y-95436953D01*
X113070524Y-95436954D01*
X112954574Y-95503899D01*
X112954571Y-95503901D01*
X112859901Y-95598571D01*
X112859899Y-95598574D01*
X112792953Y-95714525D01*
X112758300Y-95843855D01*
X112758300Y-95848147D01*
X112757275Y-95851634D01*
X112757239Y-95851915D01*
X112757195Y-95851909D01*
X112738615Y-95915186D01*
X112685811Y-95960941D01*
X112666394Y-95967922D01*
X112642848Y-95974231D01*
X112562526Y-95995753D01*
X112562524Y-95995753D01*
X112562524Y-95995754D01*
X112446574Y-96062699D01*
X112446571Y-96062701D01*
X112351901Y-96157371D01*
X112351899Y-96157374D01*
X112284953Y-96273325D01*
X112284953Y-96273326D01*
X112250300Y-96402655D01*
X112250300Y-96536545D01*
X112284953Y-96665874D01*
X112351899Y-96781826D01*
X112446574Y-96876501D01*
X112562526Y-96943447D01*
X112691855Y-96978100D01*
X112691857Y-96978100D01*
X112825743Y-96978100D01*
X112825745Y-96978100D01*
X112955074Y-96943447D01*
X113071026Y-96876501D01*
X113165701Y-96781826D01*
X113232647Y-96665874D01*
X113267300Y-96536545D01*
X113267300Y-96532252D01*
X113268324Y-96528763D01*
X113268361Y-96528485D01*
X113268404Y-96528490D01*
X113286985Y-96465213D01*
X113339789Y-96419458D01*
X113359200Y-96412479D01*
X113463074Y-96384647D01*
X113579026Y-96317701D01*
X113673701Y-96223026D01*
X113740647Y-96107074D01*
X113775300Y-95977745D01*
X113775300Y-95966271D01*
X113794985Y-95899232D01*
X113847789Y-95853477D01*
X113867199Y-95846498D01*
X113944274Y-95825847D01*
X114060226Y-95758901D01*
X114154901Y-95664226D01*
X114221847Y-95548274D01*
X114256500Y-95418945D01*
X114256500Y-95401469D01*
X114276185Y-95334430D01*
X114328989Y-95288675D01*
X114348403Y-95281695D01*
X114403074Y-95267047D01*
X114519026Y-95200101D01*
X114613701Y-95105426D01*
X114680647Y-94989474D01*
X114715300Y-94860145D01*
X114715300Y-94842669D01*
X114734985Y-94775630D01*
X114787789Y-94729875D01*
X114807203Y-94722895D01*
X114861874Y-94708247D01*
X114977826Y-94641301D01*
X115072501Y-94546626D01*
X115139447Y-94430674D01*
X115174100Y-94301345D01*
X115174100Y-94301342D01*
X115174906Y-94298334D01*
X115211270Y-94238673D01*
X115262589Y-94210651D01*
X115296274Y-94201626D01*
X115412226Y-94134680D01*
X115506901Y-94040005D01*
X115573847Y-93924053D01*
X115608500Y-93794724D01*
X115608500Y-93782429D01*
X115628185Y-93715390D01*
X115680989Y-93669635D01*
X115732500Y-93658429D01*
X119076006Y-93658429D01*
X119076008Y-93658429D01*
X119186183Y-93628908D01*
X119214124Y-93612776D01*
X119284963Y-93571877D01*
X120281175Y-92575663D01*
X120342498Y-92542179D01*
X120412190Y-92547163D01*
X120456537Y-92575664D01*
X120537774Y-92656901D01*
X120653726Y-92723847D01*
X120783055Y-92758500D01*
X120783057Y-92758500D01*
X120916943Y-92758500D01*
X120916945Y-92758500D01*
X121032584Y-92727515D01*
X121102433Y-92729178D01*
X121152357Y-92759609D01*
X121235656Y-92842908D01*
X121235660Y-92842911D01*
X121339739Y-92912455D01*
X121339752Y-92912462D01*
X121455394Y-92960362D01*
X121455399Y-92960364D01*
X121578172Y-92984785D01*
X121578176Y-92984786D01*
X121578177Y-92984786D01*
X121703360Y-92984786D01*
X121703361Y-92984785D01*
X121826137Y-92960364D01*
X121941790Y-92912459D01*
X122045876Y-92842911D01*
X122060460Y-92828326D01*
X122121781Y-92794841D01*
X122191472Y-92799824D01*
X122247407Y-92841694D01*
X122267916Y-92883909D01*
X122271598Y-92897651D01*
X122301860Y-92950066D01*
X122332123Y-93002482D01*
X122332125Y-93002484D01*
X125457581Y-96127940D01*
X125491066Y-96189263D01*
X125493900Y-96215621D01*
X125493900Y-96391036D01*
X125503867Y-96474036D01*
X125503867Y-96474037D01*
X125555955Y-96606123D01*
X125641745Y-96719254D01*
X125736593Y-96791179D01*
X125778116Y-96847371D01*
X125785668Y-96889983D01*
X125785668Y-97591654D01*
X125772472Y-97640910D01*
X125774664Y-97641818D01*
X125771553Y-97649328D01*
X125736900Y-97778657D01*
X125736900Y-97912547D01*
X125771553Y-98041876D01*
X125838499Y-98157828D01*
X125933174Y-98252503D01*
X126049126Y-98319449D01*
X126178455Y-98354102D01*
X126178457Y-98354102D01*
X126312343Y-98354102D01*
X126312345Y-98354102D01*
X126441674Y-98319449D01*
X126557626Y-98252503D01*
X126652301Y-98157828D01*
X126719247Y-98041876D01*
X126753900Y-97912547D01*
X126753900Y-97778657D01*
X127036900Y-97778657D01*
X127036900Y-97912547D01*
X127071553Y-98041876D01*
X127138499Y-98157828D01*
X127233174Y-98252503D01*
X127349126Y-98319449D01*
X127478455Y-98354102D01*
X127478457Y-98354102D01*
X127612343Y-98354102D01*
X127612345Y-98354102D01*
X127741674Y-98319449D01*
X127857626Y-98252503D01*
X127952301Y-98157828D01*
X128019247Y-98041876D01*
X128050625Y-97924766D01*
X128086990Y-97865107D01*
X128121565Y-97848311D01*
X128067710Y-97803845D01*
X128050625Y-97766435D01*
X128019247Y-97649328D01*
X127952301Y-97533376D01*
X127857626Y-97438701D01*
X127741674Y-97371755D01*
X127612345Y-97337102D01*
X127478455Y-97337102D01*
X127349125Y-97371755D01*
X127233174Y-97438701D01*
X127233171Y-97438703D01*
X127138501Y-97533373D01*
X127138499Y-97533376D01*
X127071553Y-97649327D01*
X127071553Y-97649328D01*
X127036900Y-97778657D01*
X126753900Y-97778657D01*
X126719247Y-97649328D01*
X126719243Y-97649321D01*
X126716136Y-97641818D01*
X126718327Y-97640910D01*
X126705132Y-97591654D01*
X126705132Y-96814150D01*
X126724817Y-96747111D01*
X126736413Y-96731814D01*
X126744499Y-96722707D01*
X126749054Y-96719254D01*
X126757752Y-96707783D01*
X126760939Y-96704195D01*
X126786654Y-96688106D01*
X126811046Y-96670083D01*
X126815979Y-96669760D01*
X126820172Y-96667138D01*
X126850507Y-96667506D01*
X126880767Y-96665531D01*
X126885123Y-96667927D01*
X126890036Y-96667987D01*
X126914082Y-96683857D01*
X126934331Y-96694995D01*
X126934987Y-96694131D01*
X126940869Y-96698591D01*
X126941339Y-96698850D01*
X126941743Y-96699254D01*
X127054876Y-96785046D01*
X127054877Y-96785046D01*
X127054878Y-96785047D01*
X127186961Y-96837134D01*
X127269964Y-96847102D01*
X127720836Y-96847102D01*
X127803839Y-96837134D01*
X127935922Y-96785047D01*
X128049054Y-96699256D01*
X128049057Y-96699251D01*
X128049453Y-96698857D01*
X128049909Y-96698607D01*
X128055813Y-96694131D01*
X128056484Y-96695016D01*
X128110773Y-96665367D01*
X128180465Y-96670346D01*
X128219025Y-96693412D01*
X128228402Y-96701658D01*
X128241746Y-96719254D01*
X128290185Y-96755986D01*
X128293552Y-96758947D01*
X128309923Y-96784834D01*
X128328116Y-96809454D01*
X128329137Y-96815216D01*
X128330897Y-96817999D01*
X128330846Y-96824863D01*
X128335668Y-96852066D01*
X128335668Y-97591654D01*
X128322472Y-97640910D01*
X128324664Y-97641818D01*
X128321553Y-97649328D01*
X128290175Y-97766435D01*
X128253810Y-97826096D01*
X128219235Y-97842891D01*
X128273090Y-97887358D01*
X128290175Y-97924768D01*
X128321553Y-98041877D01*
X128355026Y-98099852D01*
X128388499Y-98157828D01*
X128483174Y-98252503D01*
X128599126Y-98319449D01*
X128728455Y-98354102D01*
X128728457Y-98354102D01*
X128862343Y-98354102D01*
X128862345Y-98354102D01*
X128991674Y-98319449D01*
X129107626Y-98252503D01*
X129202301Y-98157828D01*
X129269247Y-98041876D01*
X129303900Y-97912547D01*
X129303900Y-97778657D01*
X129269247Y-97649328D01*
X129269243Y-97649321D01*
X129266136Y-97641818D01*
X129268327Y-97640910D01*
X129255132Y-97591654D01*
X129255132Y-96920943D01*
X132399500Y-96920943D01*
X132399500Y-97079056D01*
X132440423Y-97231783D01*
X132440426Y-97231790D01*
X132519475Y-97368709D01*
X132519479Y-97368714D01*
X132519480Y-97368716D01*
X132631284Y-97480520D01*
X132631286Y-97480521D01*
X132631290Y-97480524D01*
X132722829Y-97533373D01*
X132768216Y-97559577D01*
X132920943Y-97600500D01*
X132920945Y-97600500D01*
X133079055Y-97600500D01*
X133079057Y-97600500D01*
X133231784Y-97559577D01*
X133368716Y-97480520D01*
X133480520Y-97368716D01*
X133559577Y-97231784D01*
X133600500Y-97079057D01*
X133600500Y-96920943D01*
X133559577Y-96768216D01*
X133547392Y-96747111D01*
X133480524Y-96631290D01*
X133480518Y-96631282D01*
X133368717Y-96519481D01*
X133368709Y-96519475D01*
X133231790Y-96440426D01*
X133231786Y-96440424D01*
X133231784Y-96440423D01*
X133079057Y-96399500D01*
X132920943Y-96399500D01*
X132768216Y-96440423D01*
X132768209Y-96440426D01*
X132631290Y-96519475D01*
X132631282Y-96519481D01*
X132519481Y-96631282D01*
X132519475Y-96631290D01*
X132440426Y-96768209D01*
X132440423Y-96768216D01*
X132399500Y-96920943D01*
X129255132Y-96920943D01*
X129255132Y-96852066D01*
X129274817Y-96785027D01*
X129304205Y-96753263D01*
X129349054Y-96719254D01*
X129434845Y-96606122D01*
X129486932Y-96474039D01*
X129496900Y-96391036D01*
X129496900Y-96040164D01*
X129486932Y-95957161D01*
X129434845Y-95825078D01*
X129434844Y-95825077D01*
X129434844Y-95825076D01*
X129401061Y-95780527D01*
X129376237Y-95715215D01*
X129390665Y-95646852D01*
X129401061Y-95630675D01*
X129434844Y-95586125D01*
X129434843Y-95586125D01*
X129434845Y-95586124D01*
X129486932Y-95454041D01*
X129496900Y-95371038D01*
X129496900Y-95020166D01*
X129486932Y-94937163D01*
X129434845Y-94805080D01*
X129434844Y-94805079D01*
X129434844Y-94805078D01*
X129349053Y-94691946D01*
X129304206Y-94657937D01*
X129262683Y-94601744D01*
X129255132Y-94559134D01*
X129255132Y-93540976D01*
X129274817Y-93473937D01*
X129280716Y-93466615D01*
X129280258Y-93466272D01*
X129285571Y-93459174D01*
X129285573Y-93459173D01*
X129368548Y-93348331D01*
X129391866Y-93285812D01*
X129651600Y-93285812D01*
X129651600Y-93711159D01*
X129651601Y-93711160D01*
X129738227Y-93699757D01*
X129738233Y-93699755D01*
X129884185Y-93639300D01*
X130009524Y-93543124D01*
X130105700Y-93417786D01*
X130166155Y-93271831D01*
X130173612Y-93215200D01*
X129662000Y-93215200D01*
X129651600Y-93285812D01*
X129391866Y-93285812D01*
X129416934Y-93218603D01*
X129423100Y-93161251D01*
X129423099Y-92886060D01*
X129438004Y-92835299D01*
X129414353Y-92801234D01*
X129637634Y-92801234D01*
X129651600Y-92815200D01*
X130173610Y-92815200D01*
X130173611Y-92815198D01*
X130166157Y-92758572D01*
X130166155Y-92758566D01*
X130105700Y-92612614D01*
X130009524Y-92487275D01*
X129884186Y-92391099D01*
X129738231Y-92330644D01*
X129651600Y-92319238D01*
X129651600Y-92753674D01*
X129637634Y-92801234D01*
X129414353Y-92801234D01*
X129411418Y-92797007D01*
X129368549Y-92682071D01*
X129368547Y-92682068D01*
X129351784Y-92659675D01*
X129285573Y-92571227D01*
X129285571Y-92571225D01*
X129280258Y-92564128D01*
X129282035Y-92562797D01*
X129254434Y-92512250D01*
X129251600Y-92485892D01*
X129251600Y-92319238D01*
X129164969Y-92330644D01*
X129164965Y-92330645D01*
X129019011Y-92391100D01*
X128996885Y-92408078D01*
X128931715Y-92433270D01*
X128921401Y-92433700D01*
X128675560Y-92433700D01*
X128675552Y-92433700D01*
X128635550Y-92433701D01*
X128578197Y-92439866D01*
X128555786Y-92448224D01*
X128555783Y-92448225D01*
X128448471Y-92488250D01*
X128448468Y-92488252D01*
X128337627Y-92571227D01*
X128254652Y-92682068D01*
X128254651Y-92682069D01*
X128206266Y-92811795D01*
X128206265Y-92811799D01*
X128200100Y-92869132D01*
X128200100Y-93161247D01*
X128200101Y-93161254D01*
X128206265Y-93218601D01*
X128211860Y-93233603D01*
X128254652Y-93348331D01*
X128310934Y-93423516D01*
X128335352Y-93488978D01*
X128335668Y-93497826D01*
X128335668Y-94559134D01*
X128334791Y-94562119D01*
X128335522Y-94565142D01*
X128325011Y-94595425D01*
X128315983Y-94626173D01*
X128313326Y-94629092D01*
X128312613Y-94631149D01*
X128294324Y-94649978D01*
X128288235Y-94656671D01*
X128287375Y-94657345D01*
X128241746Y-94691948D01*
X128239465Y-94694955D01*
X128230224Y-94702210D01*
X128204404Y-94712520D01*
X128180006Y-94725841D01*
X128172410Y-94725297D01*
X128165337Y-94728122D01*
X128138040Y-94722836D01*
X128110314Y-94720851D01*
X128104163Y-94716276D01*
X128096741Y-94714839D01*
X128077415Y-94696380D01*
X128054854Y-94679598D01*
X128049054Y-94671950D01*
X128049049Y-94671946D01*
X128043054Y-94665950D01*
X128045255Y-94663748D01*
X128012677Y-94619647D01*
X128005132Y-94577053D01*
X128005132Y-93849549D01*
X128018331Y-93800296D01*
X128016136Y-93799387D01*
X128019245Y-93791879D01*
X128019244Y-93791879D01*
X128019247Y-93791876D01*
X128053900Y-93662547D01*
X128053900Y-93528657D01*
X128019247Y-93399328D01*
X127991169Y-93350697D01*
X127991167Y-93350691D01*
X127953707Y-93285812D01*
X127952301Y-93283376D01*
X127857626Y-93188701D01*
X127741674Y-93121755D01*
X127612345Y-93087102D01*
X127478455Y-93087102D01*
X127349125Y-93121755D01*
X127233174Y-93188701D01*
X127233171Y-93188703D01*
X127138501Y-93283373D01*
X127138499Y-93283376D01*
X127071553Y-93399327D01*
X127036900Y-93528657D01*
X127036900Y-93567593D01*
X127035839Y-93583780D01*
X127035668Y-93585076D01*
X127035668Y-93585077D01*
X127035668Y-93706127D01*
X127066998Y-93823052D01*
X127066999Y-93823053D01*
X127069053Y-93826611D01*
X127085668Y-93888615D01*
X127085668Y-94501220D01*
X127085290Y-94502505D01*
X127085641Y-94503797D01*
X127075472Y-94535941D01*
X127065983Y-94568259D01*
X127064841Y-94569549D01*
X127064568Y-94570413D01*
X127056827Y-94578606D01*
X127040906Y-94596600D01*
X127038775Y-94598370D01*
X126941746Y-94671950D01*
X126927342Y-94690944D01*
X126916379Y-94700052D01*
X126896852Y-94708483D01*
X126879744Y-94721124D01*
X126865415Y-94722058D01*
X126852234Y-94727750D01*
X126831247Y-94724286D01*
X126810023Y-94725670D01*
X126797332Y-94718688D01*
X126783297Y-94716372D01*
X126768006Y-94702555D01*
X126756468Y-94696208D01*
X126755813Y-94697073D01*
X126749928Y-94692610D01*
X126749460Y-94692353D01*
X126749056Y-94691949D01*
X126635923Y-94606157D01*
X126539820Y-94568259D01*
X126503839Y-94554070D01*
X126503838Y-94554069D01*
X126503836Y-94554069D01*
X126420836Y-94544102D01*
X125969964Y-94544102D01*
X125886963Y-94554069D01*
X125886962Y-94554069D01*
X125754876Y-94606157D01*
X125641744Y-94691948D01*
X125589733Y-94760535D01*
X125533540Y-94802058D01*
X125463819Y-94806609D01*
X125403249Y-94773290D01*
X124945742Y-94315783D01*
X124912257Y-94254460D01*
X124917241Y-94184768D01*
X124959113Y-94128835D01*
X125024577Y-94104418D01*
X125033423Y-94104102D01*
X125062343Y-94104102D01*
X125062345Y-94104102D01*
X125191674Y-94069449D01*
X125307626Y-94002503D01*
X125402301Y-93907828D01*
X125469247Y-93791876D01*
X125503900Y-93662547D01*
X125503900Y-93578657D01*
X125736900Y-93578657D01*
X125736900Y-93712547D01*
X125738926Y-93720108D01*
X125738926Y-93720109D01*
X125758918Y-93794722D01*
X125771553Y-93841876D01*
X125838499Y-93957828D01*
X125933174Y-94052503D01*
X126049126Y-94119449D01*
X126178455Y-94154102D01*
X126178457Y-94154102D01*
X126312343Y-94154102D01*
X126312345Y-94154102D01*
X126441674Y-94119449D01*
X126557626Y-94052503D01*
X126652301Y-93957828D01*
X126719247Y-93841876D01*
X126753900Y-93712547D01*
X126753900Y-93578657D01*
X126719247Y-93449328D01*
X126652301Y-93333376D01*
X126557626Y-93238701D01*
X126441674Y-93171755D01*
X126312345Y-93137102D01*
X126178455Y-93137102D01*
X126049125Y-93171755D01*
X125933174Y-93238701D01*
X125933171Y-93238703D01*
X125838501Y-93333373D01*
X125838499Y-93333376D01*
X125771553Y-93449327D01*
X125750297Y-93528659D01*
X125736900Y-93578657D01*
X125503900Y-93578657D01*
X125503900Y-93528657D01*
X125469247Y-93399328D01*
X125402301Y-93283376D01*
X125307626Y-93188701D01*
X125191674Y-93121755D01*
X125062345Y-93087102D01*
X124928455Y-93087102D01*
X124799125Y-93121755D01*
X124683174Y-93188701D01*
X124683171Y-93188703D01*
X124588501Y-93283373D01*
X124588499Y-93283376D01*
X124521553Y-93399327D01*
X124486900Y-93528657D01*
X124486900Y-93557579D01*
X124467215Y-93624618D01*
X124414411Y-93670373D01*
X124345253Y-93680317D01*
X124281697Y-93651292D01*
X124275219Y-93645260D01*
X123196051Y-92566092D01*
X123162566Y-92504769D01*
X123159732Y-92478411D01*
X123159732Y-91948347D01*
X123172931Y-91899094D01*
X123170736Y-91898185D01*
X123173845Y-91890677D01*
X123173844Y-91890677D01*
X123173847Y-91890674D01*
X123208500Y-91761345D01*
X123208500Y-91627455D01*
X123173847Y-91498126D01*
X123106901Y-91382174D01*
X123012226Y-91287499D01*
X122896274Y-91220553D01*
X122766945Y-91185900D01*
X122760943Y-91185900D01*
X122693904Y-91166215D01*
X122648149Y-91113411D01*
X122638205Y-91044253D01*
X122641168Y-91029807D01*
X122642270Y-91025692D01*
X122659732Y-90960525D01*
X122659732Y-90839475D01*
X122659732Y-90091715D01*
X122679417Y-90024676D01*
X122732221Y-89978921D01*
X122801379Y-89968977D01*
X122864935Y-89998002D01*
X122871413Y-90004034D01*
X123735556Y-90868177D01*
X123832155Y-90923949D01*
X123834336Y-90925208D01*
X123834338Y-90925209D01*
X123843651Y-90927704D01*
X123903312Y-90964067D01*
X123933843Y-91026914D01*
X123935560Y-91047479D01*
X123935560Y-91085016D01*
X123970213Y-91214345D01*
X124037159Y-91330297D01*
X124131834Y-91424972D01*
X124247786Y-91491918D01*
X124377115Y-91526571D01*
X124377117Y-91526571D01*
X124511003Y-91526571D01*
X124511005Y-91526571D01*
X124640334Y-91491918D01*
X124756286Y-91424972D01*
X124850961Y-91330297D01*
X124917907Y-91214345D01*
X124952560Y-91085016D01*
X124952560Y-91078729D01*
X124972245Y-91011690D01*
X125025049Y-90965935D01*
X125076560Y-90954729D01*
X127921375Y-90954729D01*
X127988414Y-90974414D01*
X128034169Y-91027218D01*
X128044113Y-91096376D01*
X128016400Y-91157057D01*
X128017040Y-91157582D01*
X128013174Y-91162292D01*
X127943630Y-91266371D01*
X127943623Y-91266384D01*
X127895723Y-91382026D01*
X127895720Y-91382038D01*
X127871300Y-91504804D01*
X127871300Y-91629995D01*
X127895720Y-91752761D01*
X127895723Y-91752773D01*
X127943623Y-91868415D01*
X127943630Y-91868428D01*
X128013174Y-91972507D01*
X128013177Y-91972511D01*
X128101688Y-92061022D01*
X128101692Y-92061025D01*
X128205771Y-92130569D01*
X128205784Y-92130576D01*
X128302518Y-92170644D01*
X128321431Y-92178478D01*
X128444204Y-92202899D01*
X128444208Y-92202900D01*
X128444209Y-92202900D01*
X128518751Y-92202900D01*
X128569391Y-92202900D01*
X128692169Y-92178478D01*
X128807822Y-92130573D01*
X128911908Y-92061025D01*
X129000425Y-91972508D01*
X129069973Y-91868422D01*
X129117878Y-91752769D01*
X129142300Y-91629991D01*
X129142300Y-91504809D01*
X129117878Y-91382031D01*
X129105361Y-91351813D01*
X129069976Y-91266384D01*
X129069969Y-91266371D01*
X129000425Y-91162292D01*
X128996560Y-91157582D01*
X128998744Y-91155789D01*
X128971059Y-91105087D01*
X128976043Y-91035395D01*
X129017915Y-90979462D01*
X129083379Y-90955045D01*
X129092225Y-90954729D01*
X133009131Y-90954729D01*
X133076170Y-90974414D01*
X133096812Y-90991048D01*
X133109515Y-91003751D01*
X133225467Y-91070697D01*
X133354796Y-91105350D01*
X133354798Y-91105350D01*
X133488684Y-91105350D01*
X133488686Y-91105350D01*
X133618015Y-91070697D01*
X133733967Y-91003751D01*
X133828642Y-90909076D01*
X133895588Y-90793124D01*
X133930241Y-90663795D01*
X133930241Y-90529905D01*
X133904032Y-90432089D01*
X133904032Y-90367910D01*
X133930241Y-90270095D01*
X133930241Y-90136205D01*
X133895588Y-90006876D01*
X133828642Y-89890924D01*
X133828637Y-89890919D01*
X133819526Y-89881807D01*
X133786043Y-89820483D01*
X133791030Y-89750792D01*
X133813121Y-89716424D01*
X133811952Y-89715527D01*
X133816896Y-89709082D01*
X133816897Y-89709079D01*
X133816901Y-89709076D01*
X133883847Y-89593124D01*
X133918500Y-89463795D01*
X133918500Y-89329905D01*
X133892291Y-89232089D01*
X133892291Y-89167910D01*
X133918500Y-89070095D01*
X133918500Y-88936205D01*
X133883847Y-88806876D01*
X133816901Y-88690924D01*
X133813658Y-88687681D01*
X133780173Y-88626358D01*
X133785157Y-88556666D01*
X133813658Y-88512319D01*
X133816901Y-88509076D01*
X133883847Y-88393124D01*
X133918500Y-88263795D01*
X133918500Y-88129905D01*
X133892291Y-88032089D01*
X133892291Y-87967910D01*
X133918500Y-87870095D01*
X133918500Y-87736205D01*
X133883847Y-87606876D01*
X133816901Y-87490924D01*
X133813658Y-87487681D01*
X133780173Y-87426358D01*
X133785157Y-87356666D01*
X133813658Y-87312319D01*
X133814288Y-87311689D01*
X133816901Y-87309076D01*
X133883847Y-87193124D01*
X133918500Y-87063795D01*
X133918500Y-86929905D01*
X133892291Y-86832089D01*
X133892291Y-86767910D01*
X133918500Y-86670095D01*
X133918500Y-86536205D01*
X133883847Y-86406876D01*
X133816901Y-86290924D01*
X133813658Y-86287681D01*
X133780173Y-86226358D01*
X133785157Y-86156666D01*
X133813658Y-86112319D01*
X133813751Y-86112226D01*
X133816901Y-86109076D01*
X133883847Y-85993124D01*
X133918500Y-85863795D01*
X133918500Y-85729905D01*
X133892291Y-85632089D01*
X133892291Y-85567910D01*
X133918500Y-85470095D01*
X133918500Y-85336205D01*
X133883847Y-85206876D01*
X133816901Y-85090924D01*
X133813658Y-85087681D01*
X133780173Y-85026358D01*
X133785157Y-84956666D01*
X133813658Y-84912319D01*
X133814162Y-84911815D01*
X133816901Y-84909076D01*
X133883847Y-84793124D01*
X133918500Y-84663795D01*
X133918500Y-84529905D01*
X133892291Y-84432089D01*
X133892291Y-84367910D01*
X133918500Y-84270095D01*
X133918500Y-84136205D01*
X133883847Y-84006876D01*
X133816901Y-83890924D01*
X133813658Y-83887681D01*
X133780173Y-83826358D01*
X133785157Y-83756666D01*
X133813658Y-83712319D01*
X133816901Y-83709076D01*
X133883847Y-83593124D01*
X133918500Y-83463795D01*
X133918500Y-83329905D01*
X133892291Y-83232089D01*
X133892291Y-83167910D01*
X133918500Y-83070095D01*
X133918500Y-82936205D01*
X133883847Y-82806876D01*
X133816901Y-82690924D01*
X133813658Y-82687681D01*
X133780173Y-82626358D01*
X133785157Y-82556666D01*
X133813658Y-82512319D01*
X133816901Y-82509076D01*
X133883847Y-82393124D01*
X133918500Y-82263795D01*
X133918500Y-82129905D01*
X133892291Y-82032089D01*
X133892291Y-81967910D01*
X133918500Y-81870095D01*
X133918500Y-81736205D01*
X133883847Y-81606876D01*
X133816901Y-81490924D01*
X133800400Y-81474423D01*
X133777736Y-81451758D01*
X133744251Y-81390435D01*
X133749237Y-81320743D01*
X133772200Y-81285015D01*
X133771305Y-81284329D01*
X133776245Y-81277889D01*
X133776251Y-81277884D01*
X133836508Y-81173515D01*
X133867700Y-81057107D01*
X133867700Y-80936593D01*
X133839699Y-80832093D01*
X133839699Y-80767905D01*
X133845267Y-80747126D01*
X133867700Y-80663407D01*
X133867700Y-80542893D01*
X133836508Y-80426485D01*
X133819164Y-80396444D01*
X133776255Y-80322122D01*
X133776249Y-80322114D01*
X133741816Y-80287681D01*
X133708331Y-80226358D01*
X133713315Y-80156666D01*
X133741816Y-80112319D01*
X133776251Y-80077884D01*
X133836508Y-79973515D01*
X133867700Y-79857107D01*
X133867700Y-79736593D01*
X133839699Y-79632093D01*
X133839699Y-79567905D01*
X133867700Y-79463407D01*
X133867700Y-79342893D01*
X133836508Y-79226485D01*
X133782012Y-79132094D01*
X133776255Y-79122122D01*
X133776249Y-79122114D01*
X133691035Y-79036900D01*
X133691027Y-79036894D01*
X133586671Y-78976645D01*
X133586666Y-78976642D01*
X133521799Y-78959261D01*
X133470257Y-78945450D01*
X133349743Y-78945450D01*
X133298201Y-78959261D01*
X133233333Y-78976642D01*
X133233328Y-78976645D01*
X133128972Y-79036894D01*
X133128964Y-79036900D01*
X133043750Y-79122114D01*
X133043744Y-79122122D01*
X132983495Y-79226478D01*
X132983492Y-79226483D01*
X132982575Y-79229907D01*
X132952300Y-79342893D01*
X132952300Y-79463407D01*
X132958924Y-79488127D01*
X132980301Y-79567906D01*
X132980301Y-79632093D01*
X132952300Y-79736593D01*
X132952300Y-79857107D01*
X132960825Y-79888922D01*
X132983492Y-79973516D01*
X132983495Y-79973521D01*
X133043744Y-80077877D01*
X133043750Y-80077885D01*
X133078184Y-80112319D01*
X133111669Y-80173642D01*
X133106685Y-80243334D01*
X133078184Y-80287681D01*
X133043750Y-80322114D01*
X133043744Y-80322122D01*
X132983495Y-80426478D01*
X132983492Y-80426483D01*
X132966696Y-80489166D01*
X132952300Y-80542893D01*
X132952300Y-80663407D01*
X132974733Y-80747126D01*
X132980301Y-80767906D01*
X132980301Y-80783942D01*
X132984491Y-80797050D01*
X132980301Y-80832092D01*
X132962785Y-80897462D01*
X132956059Y-80922564D01*
X132919693Y-80982224D01*
X132856846Y-81012752D01*
X132787470Y-81004457D01*
X132748603Y-80978150D01*
X132623818Y-80853365D01*
X132623816Y-80853363D01*
X132576381Y-80825976D01*
X132525037Y-80796332D01*
X132523424Y-80795900D01*
X132519448Y-80794834D01*
X132519445Y-80794833D01*
X132519445Y-80794834D01*
X132414861Y-80766811D01*
X132414860Y-80766811D01*
X131097816Y-80766811D01*
X131030777Y-80747126D01*
X130985022Y-80694322D01*
X130983257Y-80690270D01*
X130983112Y-80689920D01*
X130962479Y-80640113D01*
X130875499Y-80509951D01*
X130875495Y-80509947D01*
X130875494Y-80509945D01*
X130764799Y-80399260D01*
X130764796Y-80399258D01*
X130697418Y-80354241D01*
X130634629Y-80312290D01*
X130489994Y-80252387D01*
X130489992Y-80252386D01*
X130374568Y-80229430D01*
X130336452Y-80221850D01*
X130336451Y-80221850D01*
X130258178Y-80221852D01*
X130209113Y-80221852D01*
X130209084Y-80221850D01*
X130200461Y-80221850D01*
X130138185Y-80221851D01*
X130138177Y-80221852D01*
X130073483Y-80221852D01*
X130073302Y-80221863D01*
X130059910Y-80221863D01*
X129984329Y-80236899D01*
X129906374Y-80252407D01*
X129906373Y-80252407D01*
X129906370Y-80252408D01*
X129761750Y-80312312D01*
X129761746Y-80312314D01*
X129667083Y-80375566D01*
X129600406Y-80396444D01*
X129533026Y-80377959D01*
X129529304Y-80375567D01*
X129434635Y-80312313D01*
X129434632Y-80312311D01*
X129289997Y-80252405D01*
X129289991Y-80252403D01*
X129136453Y-80221867D01*
X129058178Y-80221869D01*
X129009113Y-80221869D01*
X129009085Y-80221867D01*
X128989544Y-80221867D01*
X128989523Y-80221861D01*
X128859909Y-80221863D01*
X128706366Y-80252409D01*
X128706363Y-80252410D01*
X128561746Y-80312315D01*
X128561729Y-80312324D01*
X128467086Y-80375565D01*
X128400409Y-80396444D01*
X128333028Y-80377960D01*
X128329305Y-80375567D01*
X128234635Y-80312313D01*
X128234632Y-80312311D01*
X128089997Y-80252405D01*
X128089991Y-80252403D01*
X127936453Y-80221867D01*
X127858178Y-80221869D01*
X127809113Y-80221869D01*
X127809085Y-80221867D01*
X127789544Y-80221867D01*
X127789523Y-80221861D01*
X127659909Y-80221863D01*
X127506366Y-80252409D01*
X127506363Y-80252410D01*
X127361746Y-80312315D01*
X127361730Y-80312324D01*
X127231578Y-80399291D01*
X127120880Y-80509991D01*
X127033912Y-80640152D01*
X127004894Y-80710207D01*
X126961052Y-80764611D01*
X126922427Y-80782529D01*
X126870911Y-80796332D01*
X126772133Y-80853363D01*
X126772130Y-80853365D01*
X124611091Y-83014405D01*
X124598600Y-83021225D01*
X124589148Y-83031864D01*
X124568546Y-83037636D01*
X124549768Y-83047890D01*
X124535572Y-83046874D01*
X124521870Y-83050714D01*
X124501419Y-83044432D01*
X124480076Y-83042906D01*
X124468683Y-83034377D01*
X124455080Y-83030199D01*
X124441269Y-83013855D01*
X124424143Y-83001034D01*
X124418296Y-82986666D01*
X124409984Y-82976830D01*
X124405343Y-82954839D01*
X124400462Y-82942845D01*
X124399410Y-82934821D01*
X124399410Y-82824523D01*
X124371087Y-82718820D01*
X124370028Y-82710739D01*
X124373201Y-82690461D01*
X124373201Y-82662528D01*
X124399410Y-82564713D01*
X124399410Y-82430823D01*
X124364757Y-82301494D01*
X124297811Y-82185542D01*
X124297806Y-82185537D01*
X124292864Y-82179096D01*
X124295147Y-82177343D01*
X124268319Y-82128212D01*
X124273303Y-82058520D01*
X124301804Y-82014173D01*
X124302573Y-82013404D01*
X124306901Y-82009076D01*
X124373847Y-81893124D01*
X124408500Y-81763795D01*
X124408500Y-81629905D01*
X124382291Y-81532089D01*
X124382291Y-81467910D01*
X124408500Y-81370095D01*
X124408500Y-81236205D01*
X124373847Y-81106876D01*
X124306901Y-80990924D01*
X124306898Y-80990921D01*
X124306896Y-80990917D01*
X124303551Y-80986557D01*
X124278358Y-80921388D01*
X124292397Y-80852943D01*
X124303554Y-80835584D01*
X124306896Y-80831227D01*
X124306901Y-80831223D01*
X124373847Y-80715271D01*
X124408500Y-80585942D01*
X124408500Y-80452052D01*
X124382291Y-80354236D01*
X124382291Y-80290057D01*
X124408500Y-80192242D01*
X124408500Y-80058352D01*
X124373847Y-79929023D01*
X124306901Y-79813071D01*
X124292584Y-79798754D01*
X124259099Y-79737431D01*
X124264083Y-79667739D01*
X124292584Y-79623392D01*
X124306901Y-79609076D01*
X124373847Y-79493124D01*
X124408500Y-79363795D01*
X124408500Y-79229905D01*
X124382291Y-79132089D01*
X124382291Y-79067910D01*
X124408500Y-78970095D01*
X124408500Y-78836205D01*
X124373847Y-78706876D01*
X124306901Y-78590924D01*
X124303658Y-78587681D01*
X124270173Y-78526358D01*
X124275157Y-78456666D01*
X124303658Y-78412319D01*
X124306901Y-78409076D01*
X124373847Y-78293124D01*
X124408500Y-78163795D01*
X124408500Y-78029905D01*
X124382291Y-77932089D01*
X124382291Y-77867910D01*
X124408500Y-77770095D01*
X124408500Y-77636205D01*
X124373847Y-77506876D01*
X124306901Y-77390924D01*
X124303658Y-77387681D01*
X124270173Y-77326358D01*
X124275157Y-77256666D01*
X124303658Y-77212319D01*
X124306901Y-77209076D01*
X124373847Y-77093124D01*
X124408500Y-76963795D01*
X124408500Y-76829905D01*
X124382291Y-76732089D01*
X124382291Y-76667910D01*
X124408500Y-76570095D01*
X124408500Y-76436205D01*
X124373847Y-76306876D01*
X124306901Y-76190924D01*
X124303658Y-76187681D01*
X124270173Y-76126358D01*
X124275157Y-76056666D01*
X124303658Y-76012319D01*
X124306901Y-76009076D01*
X124373847Y-75893124D01*
X124408500Y-75763795D01*
X124408500Y-75629905D01*
X124382291Y-75532089D01*
X124382291Y-75467910D01*
X124408500Y-75370095D01*
X124408500Y-75236205D01*
X124373847Y-75106876D01*
X124306901Y-74990924D01*
X124303658Y-74987681D01*
X124270173Y-74926358D01*
X124275157Y-74856666D01*
X124303658Y-74812319D01*
X124306901Y-74809076D01*
X124373847Y-74693124D01*
X124408500Y-74563795D01*
X124408500Y-74429905D01*
X124382291Y-74332089D01*
X124382291Y-74267910D01*
X124408500Y-74170095D01*
X124408500Y-74036205D01*
X124373847Y-73906876D01*
X124306901Y-73790924D01*
X124212226Y-73696249D01*
X124096274Y-73629303D01*
X123966945Y-73594650D01*
X123833055Y-73594650D01*
X123703725Y-73629303D01*
X123587774Y-73696249D01*
X123587771Y-73696251D01*
X123575071Y-73708952D01*
X123513748Y-73742437D01*
X123487390Y-73745271D01*
X122192628Y-73745271D01*
X122082451Y-73774792D01*
X121983673Y-73831823D01*
X121983670Y-73831825D01*
X119504072Y-76311422D01*
X119442749Y-76344907D01*
X119373057Y-76339923D01*
X119323148Y-76303020D01*
X119322648Y-76303521D01*
X119319308Y-76300181D01*
X119318011Y-76299222D01*
X119316904Y-76297780D01*
X119316901Y-76297774D01*
X119222226Y-76203099D01*
X119106274Y-76136153D01*
X118976945Y-76101500D01*
X118843055Y-76101500D01*
X118713725Y-76136153D01*
X118597774Y-76203099D01*
X118597771Y-76203101D01*
X118503101Y-76297771D01*
X118503099Y-76297774D01*
X118436153Y-76413725D01*
X118412922Y-76500428D01*
X118401500Y-76543055D01*
X118401500Y-76676945D01*
X118436153Y-76806274D01*
X118503099Y-76922226D01*
X118597774Y-77016901D01*
X118597780Y-77016904D01*
X118599222Y-77018011D01*
X118600137Y-77019264D01*
X118603521Y-77022648D01*
X118602993Y-77023175D01*
X118640428Y-77074437D01*
X118644586Y-77144183D01*
X118611422Y-77204072D01*
X118297962Y-77517533D01*
X118236639Y-77551018D01*
X118166948Y-77546034D01*
X118111014Y-77504163D01*
X118086597Y-77438698D01*
X118090505Y-77397762D01*
X118113500Y-77311945D01*
X118113500Y-77178055D01*
X118078847Y-77048726D01*
X118011901Y-76932774D01*
X117917226Y-76838099D01*
X117801274Y-76771153D01*
X117671945Y-76736500D01*
X117538055Y-76736500D01*
X117408725Y-76771153D01*
X117292774Y-76838099D01*
X117292771Y-76838101D01*
X117198101Y-76932771D01*
X117198099Y-76932774D01*
X117131153Y-77048725D01*
X117121589Y-77084419D01*
X117096500Y-77178055D01*
X117096500Y-77311945D01*
X117131153Y-77441274D01*
X117198099Y-77557226D01*
X117292774Y-77651901D01*
X117408726Y-77718847D01*
X117538055Y-77753500D01*
X117538057Y-77753500D01*
X117671943Y-77753500D01*
X117671945Y-77753500D01*
X117757761Y-77730506D01*
X117827609Y-77732169D01*
X117885471Y-77771332D01*
X117912975Y-77835560D01*
X117901388Y-77904462D01*
X117877533Y-77937962D01*
X117553364Y-78262131D01*
X117553363Y-78262133D01*
X117499180Y-78355981D01*
X117496332Y-78360913D01*
X117496331Y-78360915D01*
X117466811Y-78471088D01*
X117466811Y-78757574D01*
X117457723Y-78788523D01*
X117450024Y-78819875D01*
X117447935Y-78821854D01*
X117447126Y-78824613D01*
X117422754Y-78845731D01*
X117399322Y-78867949D01*
X117396494Y-78868485D01*
X117394322Y-78870368D01*
X117362390Y-78874959D01*
X117330678Y-78880979D01*
X117327538Y-78879970D01*
X117325164Y-78880312D01*
X117296402Y-78872562D01*
X117288339Y-78869308D01*
X117196274Y-78816153D01*
X117078347Y-78784555D01*
X117071340Y-78781727D01*
X117049630Y-78764555D01*
X117025995Y-78750149D01*
X117022611Y-78743184D01*
X117016540Y-78738382D01*
X117007560Y-78712200D01*
X116995466Y-78687303D01*
X116996385Y-78679615D01*
X116993873Y-78672291D01*
X117000474Y-78645409D01*
X117003760Y-78617927D01*
X117009195Y-78609895D01*
X117010536Y-78604438D01*
X117017105Y-78598208D01*
X117030063Y-78579063D01*
X117106901Y-78502226D01*
X117173847Y-78386274D01*
X117208500Y-78256945D01*
X117208500Y-78123055D01*
X117173847Y-77993726D01*
X117106901Y-77877774D01*
X117012226Y-77783099D01*
X116896274Y-77716153D01*
X116766945Y-77681500D01*
X116633055Y-77681500D01*
X116633051Y-77681500D01*
X116596175Y-77691381D01*
X116526326Y-77689717D01*
X116468464Y-77650554D01*
X116440961Y-77586325D01*
X116441345Y-77553965D01*
X116449312Y-77498561D01*
X116429607Y-77361511D01*
X116404687Y-77306945D01*
X116372090Y-77235567D01*
X116335896Y-77190653D01*
X116335892Y-77190649D01*
X116129351Y-76984109D01*
X116129344Y-76984102D01*
X116104142Y-76963793D01*
X116084434Y-76947911D01*
X116028190Y-76922225D01*
X115958489Y-76890393D01*
X115958486Y-76890392D01*
X115930466Y-76886363D01*
X115916588Y-76880593D01*
X115904490Y-76879698D01*
X115886419Y-76868052D01*
X115873556Y-76862705D01*
X115866593Y-76857465D01*
X115842227Y-76833099D01*
X115807805Y-76813225D01*
X115801773Y-76808686D01*
X115785231Y-76786472D01*
X115766117Y-76766426D01*
X115764655Y-76758843D01*
X115760042Y-76752648D01*
X115758135Y-76725012D01*
X115752895Y-76697819D01*
X115755765Y-76690648D01*
X115755234Y-76682944D01*
X115768567Y-76658669D01*
X115778863Y-76632954D01*
X115785154Y-76628473D01*
X115788873Y-76621705D01*
X115813217Y-76608491D01*
X115835778Y-76592427D01*
X115845973Y-76590712D01*
X115850280Y-76588375D01*
X115856940Y-76588868D01*
X115876333Y-76585607D01*
X115904050Y-76585607D01*
X115904052Y-76585607D01*
X116033381Y-76550954D01*
X116149333Y-76484008D01*
X116244008Y-76389333D01*
X116310954Y-76273381D01*
X116345607Y-76144052D01*
X116345607Y-76010162D01*
X116345607Y-76002500D01*
X116365292Y-75935461D01*
X116418096Y-75889706D01*
X116469607Y-75878500D01*
X116611157Y-75878500D01*
X116611159Y-75878500D01*
X116740488Y-75843847D01*
X116856440Y-75776901D01*
X116951115Y-75682226D01*
X117018061Y-75566274D01*
X117052714Y-75436945D01*
X117052714Y-75355499D01*
X117055264Y-75346813D01*
X117053976Y-75337852D01*
X117064954Y-75313811D01*
X117072399Y-75288460D01*
X117079239Y-75282532D01*
X117083001Y-75274296D01*
X117105235Y-75260006D01*
X117125203Y-75242705D01*
X117135717Y-75240417D01*
X117141779Y-75236522D01*
X117176709Y-75231499D01*
X117325927Y-75231499D01*
X117392966Y-75251184D01*
X117438721Y-75303988D01*
X117449927Y-75355499D01*
X117449927Y-75436945D01*
X117484580Y-75566274D01*
X117551526Y-75682226D01*
X117646201Y-75776901D01*
X117762153Y-75843847D01*
X117891482Y-75878500D01*
X117891484Y-75878500D01*
X118025370Y-75878500D01*
X118025372Y-75878500D01*
X118154701Y-75843847D01*
X118270653Y-75776901D01*
X118365328Y-75682226D01*
X118432274Y-75566274D01*
X118466927Y-75436945D01*
X118466927Y-75303055D01*
X118432274Y-75173726D01*
X118365328Y-75057774D01*
X118270653Y-74963099D01*
X118154701Y-74896153D01*
X118025372Y-74861500D01*
X117985500Y-74861500D01*
X117918461Y-74841815D01*
X117872706Y-74789011D01*
X117861500Y-74737501D01*
X117861499Y-74503952D01*
X117861498Y-74503945D01*
X117859763Y-74487807D01*
X117855334Y-74446597D01*
X117849108Y-74429905D01*
X117806949Y-74316871D01*
X117806947Y-74316868D01*
X117783541Y-74285601D01*
X117723973Y-74206027D01*
X117613131Y-74123052D01*
X117613130Y-74123051D01*
X117483404Y-74074666D01*
X117483400Y-74074665D01*
X117426067Y-74068500D01*
X117140198Y-74068500D01*
X117073159Y-74048815D01*
X117064712Y-74042876D01*
X117042588Y-74025900D01*
X117042589Y-74025900D01*
X116896631Y-73965444D01*
X116810000Y-73954038D01*
X116810000Y-74120692D01*
X116790315Y-74187731D01*
X116781310Y-74198904D01*
X116781342Y-74198928D01*
X116776028Y-74206025D01*
X116776027Y-74206027D01*
X116768936Y-74215500D01*
X116693052Y-74316868D01*
X116693051Y-74316869D01*
X116654764Y-74419521D01*
X116654763Y-74419524D01*
X116644666Y-74446597D01*
X116638500Y-74503949D01*
X116638500Y-74529941D01*
X116638500Y-74529942D01*
X116638500Y-74570137D01*
X116618815Y-74637176D01*
X116610000Y-74648115D01*
X116610000Y-74726000D01*
X116590315Y-74793039D01*
X116537511Y-74838794D01*
X116486000Y-74850000D01*
X115887990Y-74850000D01*
X115887988Y-74850001D01*
X115895442Y-74906627D01*
X115895444Y-74906633D01*
X115955899Y-75052587D01*
X115955901Y-75052589D01*
X116027573Y-75145994D01*
X116052767Y-75211163D01*
X116052818Y-75231166D01*
X116051926Y-75242549D01*
X116035714Y-75303055D01*
X116035714Y-75436945D01*
X116036472Y-75439775D01*
X116035335Y-75454293D01*
X116024559Y-75482594D01*
X116016029Y-75511646D01*
X116012252Y-75514918D01*
X116010474Y-75519590D01*
X115986103Y-75537576D01*
X115963225Y-75557401D01*
X115957578Y-75558629D01*
X115954257Y-75561081D01*
X115942945Y-75561812D01*
X115911714Y-75568607D01*
X115762500Y-75568607D01*
X115695461Y-75548922D01*
X115649706Y-75496118D01*
X115638500Y-75444607D01*
X115638500Y-75303057D01*
X115638500Y-75303055D01*
X115603847Y-75173726D01*
X115536901Y-75057774D01*
X115442226Y-74963099D01*
X115326274Y-74896153D01*
X115196945Y-74861500D01*
X115063055Y-74861500D01*
X115063053Y-74861500D01*
X115054999Y-74862561D01*
X115054564Y-74859258D01*
X114999565Y-74857277D01*
X114942185Y-74817411D01*
X114920283Y-74776226D01*
X114868604Y-74608894D01*
X114868193Y-74579508D01*
X114865052Y-74550286D01*
X114867711Y-74544972D01*
X114867629Y-74539031D01*
X114883170Y-74514089D01*
X114896327Y-74487807D01*
X114901437Y-74484774D01*
X114904580Y-74479732D01*
X114931140Y-74467151D01*
X114956416Y-74452155D01*
X114962722Y-74452192D01*
X114967725Y-74449823D01*
X114987131Y-74452337D01*
X115019172Y-74452527D01*
X115063055Y-74464286D01*
X115063057Y-74464286D01*
X115196943Y-74464286D01*
X115196945Y-74464286D01*
X115250262Y-74450000D01*
X115887987Y-74450000D01*
X116399600Y-74450000D01*
X116410000Y-74379391D01*
X116410000Y-73954038D01*
X116323369Y-73965444D01*
X116323365Y-73965445D01*
X116177413Y-74025899D01*
X116052075Y-74122075D01*
X115955899Y-74247413D01*
X115895444Y-74393368D01*
X115887987Y-74450000D01*
X115250262Y-74450000D01*
X115326274Y-74429633D01*
X115442226Y-74362687D01*
X115536901Y-74268012D01*
X115603847Y-74152060D01*
X115638500Y-74022731D01*
X115638500Y-73888841D01*
X115638500Y-73881180D01*
X115658185Y-73814141D01*
X115710989Y-73768386D01*
X115762500Y-73757180D01*
X115904050Y-73757180D01*
X115904052Y-73757180D01*
X116033381Y-73722527D01*
X116149333Y-73655581D01*
X116244008Y-73560906D01*
X116310954Y-73444954D01*
X116345607Y-73315625D01*
X116345607Y-73181735D01*
X116310954Y-73052406D01*
X116303169Y-73038923D01*
X116284640Y-73006830D01*
X116266156Y-72974814D01*
X116244012Y-72936460D01*
X116244009Y-72936457D01*
X116244008Y-72936454D01*
X116228497Y-72920943D01*
X132399500Y-72920943D01*
X132399500Y-73079057D01*
X132434716Y-73210483D01*
X132440423Y-73231783D01*
X132440426Y-73231790D01*
X132519475Y-73368709D01*
X132519479Y-73368714D01*
X132519480Y-73368716D01*
X132631284Y-73480520D01*
X132631286Y-73480521D01*
X132631290Y-73480524D01*
X132699517Y-73519914D01*
X132768216Y-73559577D01*
X132920943Y-73600500D01*
X132920945Y-73600500D01*
X133079055Y-73600500D01*
X133079057Y-73600500D01*
X133231784Y-73559577D01*
X133368716Y-73480520D01*
X133480520Y-73368716D01*
X133559577Y-73231784D01*
X133600500Y-73079057D01*
X133600500Y-72920943D01*
X133559577Y-72768216D01*
X133538722Y-72732093D01*
X133480524Y-72631290D01*
X133480518Y-72631282D01*
X133368717Y-72519481D01*
X133368709Y-72519475D01*
X133231790Y-72440426D01*
X133231786Y-72440424D01*
X133231784Y-72440423D01*
X133079057Y-72399500D01*
X132920943Y-72399500D01*
X132768216Y-72440423D01*
X132768209Y-72440426D01*
X132631290Y-72519475D01*
X132631282Y-72519481D01*
X132519481Y-72631282D01*
X132519475Y-72631290D01*
X132440426Y-72768209D01*
X132440423Y-72768216D01*
X132399500Y-72920943D01*
X116228497Y-72920943D01*
X116149333Y-72841779D01*
X116033381Y-72774833D01*
X115904052Y-72740180D01*
X115770162Y-72740180D01*
X115640831Y-72774833D01*
X115519207Y-72845055D01*
X115451307Y-72861528D01*
X115385280Y-72838676D01*
X115342089Y-72783755D01*
X115335447Y-72714202D01*
X115337427Y-72705588D01*
X115358500Y-72626945D01*
X115358500Y-72493055D01*
X115323847Y-72363726D01*
X115256901Y-72247774D01*
X115162226Y-72153099D01*
X115046274Y-72086153D01*
X114916945Y-72051500D01*
X114783055Y-72051500D01*
X114783053Y-72051500D01*
X114759376Y-72057844D01*
X114689526Y-72056179D01*
X114639606Y-72025749D01*
X114532524Y-71918667D01*
X114466782Y-71867022D01*
X114466776Y-71867018D01*
X114336552Y-71810455D01*
X114336553Y-71810455D01*
X114195893Y-71791122D01*
X114055231Y-71810455D01*
X113925010Y-71867017D01*
X113925006Y-71867020D01*
X113859256Y-71918672D01*
X113611168Y-72166760D01*
X113559516Y-72232510D01*
X113559513Y-72232514D01*
X113502951Y-72362735D01*
X113495337Y-72418130D01*
X113466706Y-72481864D01*
X113408164Y-72520002D01*
X113389378Y-72524089D01*
X113333983Y-72531703D01*
X113203762Y-72588265D01*
X113203758Y-72588268D01*
X113138008Y-72639920D01*
X112962325Y-72815603D01*
X112901002Y-72849088D01*
X112831310Y-72844104D01*
X112786963Y-72815603D01*
X112521276Y-72549915D01*
X112455534Y-72498270D01*
X112455528Y-72498266D01*
X112325304Y-72441703D01*
X112325305Y-72441703D01*
X112184645Y-72422370D01*
X112043983Y-72441703D01*
X111913762Y-72498265D01*
X111913758Y-72498268D01*
X111848008Y-72549920D01*
X111599920Y-72798008D01*
X111548268Y-72863758D01*
X111548265Y-72863762D01*
X111491703Y-72993983D01*
X111484089Y-73049378D01*
X111455458Y-73113112D01*
X111396916Y-73151250D01*
X111378130Y-73155337D01*
X111322735Y-73162951D01*
X111192514Y-73219513D01*
X111192510Y-73219516D01*
X111126760Y-73271168D01*
X110878672Y-73519256D01*
X110827020Y-73585006D01*
X110827017Y-73585010D01*
X110770455Y-73715231D01*
X110751122Y-73855892D01*
X110751122Y-73855893D01*
X110770455Y-73996553D01*
X110827018Y-74126776D01*
X110827022Y-74126782D01*
X110878667Y-74192524D01*
X111197475Y-74511332D01*
X111240297Y-74544972D01*
X111263220Y-74562979D01*
X111393448Y-74619545D01*
X111393452Y-74619545D01*
X111397296Y-74621215D01*
X111450943Y-74665979D01*
X111461629Y-74685549D01*
X111521024Y-74822293D01*
X111521025Y-74822294D01*
X111521026Y-74822295D01*
X111521027Y-74822297D01*
X111566654Y-74880378D01*
X111573170Y-74888673D01*
X111871325Y-75186826D01*
X111871330Y-75186831D01*
X111937700Y-75238971D01*
X111937708Y-75238976D01*
X112015832Y-75272909D01*
X112069191Y-75296086D01*
X112176007Y-75310767D01*
X112239742Y-75339396D01*
X112246804Y-75345931D01*
X112583099Y-75682226D01*
X112677774Y-75776901D01*
X112793726Y-75843847D01*
X112923055Y-75878500D01*
X113340647Y-75878500D01*
X113407686Y-75898185D01*
X113418451Y-75905947D01*
X113425792Y-75911863D01*
X113551737Y-75969381D01*
X113688787Y-75989086D01*
X113825836Y-75969381D01*
X113951782Y-75911863D01*
X113996696Y-75875669D01*
X114198826Y-75673537D01*
X114260145Y-75640055D01*
X114270324Y-75638281D01*
X114297963Y-75634643D01*
X114297966Y-75634642D01*
X114443919Y-75574186D01*
X114481985Y-75544978D01*
X114547154Y-75519784D01*
X114615599Y-75533822D01*
X114664858Y-75581353D01*
X114695626Y-75634643D01*
X114723099Y-75682226D01*
X114817774Y-75776901D01*
X114933726Y-75843847D01*
X115063055Y-75878500D01*
X115063057Y-75878500D01*
X115204607Y-75878500D01*
X115213292Y-75881050D01*
X115222254Y-75879762D01*
X115246294Y-75890740D01*
X115271646Y-75898185D01*
X115277573Y-75905025D01*
X115285810Y-75908787D01*
X115300099Y-75931021D01*
X115317401Y-75950989D01*
X115319688Y-75961503D01*
X115323584Y-75967565D01*
X115328607Y-76002500D01*
X115328607Y-76151714D01*
X115308922Y-76218753D01*
X115256118Y-76264508D01*
X115204607Y-76275714D01*
X115063055Y-76275714D01*
X114933725Y-76310367D01*
X114817774Y-76377313D01*
X114817771Y-76377315D01*
X114723101Y-76471985D01*
X114723099Y-76471988D01*
X114656153Y-76587939D01*
X114621500Y-76717269D01*
X114621500Y-76858820D01*
X114601815Y-76925859D01*
X114549011Y-76971614D01*
X114497500Y-76982820D01*
X114355948Y-76982820D01*
X114226618Y-77017473D01*
X114110667Y-77084419D01*
X114110664Y-77084421D01*
X114015994Y-77179091D01*
X114015992Y-77179094D01*
X113949046Y-77295045D01*
X113931237Y-77361511D01*
X113914393Y-77424375D01*
X113914393Y-77558265D01*
X113949046Y-77687594D01*
X114015992Y-77803546D01*
X114110667Y-77898221D01*
X114226619Y-77965167D01*
X114355948Y-77999820D01*
X114355950Y-77999820D01*
X114471949Y-77999820D01*
X114538988Y-78019505D01*
X114584743Y-78072309D01*
X114594888Y-78107635D01*
X114600486Y-78150164D01*
X114600488Y-78150169D01*
X114660942Y-78296119D01*
X114660945Y-78296125D01*
X114695716Y-78341438D01*
X114695717Y-78341438D01*
X115118575Y-77918582D01*
X115179898Y-77885097D01*
X115249590Y-77890081D01*
X115276736Y-77904240D01*
X115407101Y-77994299D01*
X115408220Y-77995681D01*
X115424301Y-78008640D01*
X115459144Y-78043482D01*
X115484500Y-78089917D01*
X115530375Y-78098194D01*
X115551048Y-78107635D01*
X115641963Y-78149155D01*
X115779013Y-78168860D01*
X115779013Y-78168859D01*
X115787792Y-78170122D01*
X115787476Y-78172319D01*
X115842734Y-78188545D01*
X115863376Y-78205178D01*
X115981216Y-78323017D01*
X115981217Y-78323017D01*
X115997126Y-78302285D01*
X116053554Y-78261082D01*
X116123300Y-78256928D01*
X116184220Y-78291141D01*
X116215275Y-78345678D01*
X116226153Y-78386274D01*
X116293099Y-78502226D01*
X116387774Y-78596901D01*
X116503726Y-78663847D01*
X116614344Y-78693486D01*
X116674003Y-78729849D01*
X116704533Y-78792696D01*
X116696239Y-78862071D01*
X116669932Y-78900941D01*
X116593098Y-78977774D01*
X116526153Y-79093725D01*
X116497272Y-79201514D01*
X116491500Y-79223055D01*
X116491500Y-79356945D01*
X116526153Y-79486274D01*
X116593099Y-79602226D01*
X116687774Y-79696901D01*
X116803726Y-79763847D01*
X116842439Y-79774220D01*
X116902099Y-79810582D01*
X116932630Y-79873428D01*
X116924336Y-79942804D01*
X116879852Y-79996683D01*
X116879242Y-79997094D01*
X116865350Y-80006376D01*
X116776838Y-80094888D01*
X116776835Y-80094892D01*
X116707291Y-80198971D01*
X116707284Y-80198984D01*
X116659384Y-80314626D01*
X116659381Y-80314638D01*
X116634961Y-80437404D01*
X116634961Y-80562595D01*
X116659381Y-80685361D01*
X116659384Y-80685373D01*
X116707518Y-80801579D01*
X116714987Y-80871048D01*
X116683712Y-80933527D01*
X116623623Y-80969179D01*
X116553797Y-80966685D01*
X116505276Y-80936712D01*
X114192844Y-78624280D01*
X114978560Y-78624280D01*
X114978560Y-78624281D01*
X115023879Y-78659056D01*
X115023880Y-78659057D01*
X115169830Y-78719511D01*
X115169834Y-78719512D01*
X115326465Y-78740133D01*
X115483095Y-78719512D01*
X115483096Y-78719512D01*
X115629049Y-78659056D01*
X115698374Y-78605861D01*
X115391182Y-78298669D01*
X115367426Y-78255164D01*
X115347676Y-78255164D01*
X114978560Y-78624280D01*
X114192844Y-78624280D01*
X113327239Y-77758675D01*
X113327237Y-77758673D01*
X113258255Y-77718846D01*
X113228456Y-77701641D01*
X113213745Y-77697699D01*
X113213745Y-77697700D01*
X113118282Y-77672121D01*
X113118281Y-77672121D01*
X106442610Y-77672121D01*
X106375571Y-77652436D01*
X106354929Y-77635802D01*
X106342228Y-77623101D01*
X106342226Y-77623099D01*
X106226274Y-77556153D01*
X106096945Y-77521500D01*
X105963055Y-77521500D01*
X105833725Y-77556153D01*
X105717774Y-77623099D01*
X105717771Y-77623101D01*
X105623101Y-77717771D01*
X105623099Y-77717774D01*
X105556153Y-77833725D01*
X105521500Y-77963055D01*
X105521500Y-78096946D01*
X105547708Y-78194758D01*
X105547708Y-78258942D01*
X105521500Y-78356753D01*
X105521500Y-78356755D01*
X105521500Y-78490645D01*
X105556153Y-78619974D01*
X105623099Y-78735926D01*
X105717774Y-78830601D01*
X105727484Y-78836207D01*
X105734202Y-78840086D01*
X105782416Y-78890654D01*
X105795638Y-78959261D01*
X105769669Y-79024125D01*
X105712755Y-79064653D01*
X105672200Y-79071472D01*
X102000093Y-79071472D01*
X101933054Y-79051787D01*
X101887299Y-78998983D01*
X101876093Y-78947472D01*
X101876093Y-78822345D01*
X101876093Y-78822343D01*
X101841440Y-78693014D01*
X101774494Y-78577062D01*
X101679819Y-78482387D01*
X101563867Y-78415441D01*
X101434538Y-78380788D01*
X101300648Y-78380788D01*
X101300646Y-78380788D01*
X101202835Y-78406996D01*
X101138651Y-78406996D01*
X101040839Y-78380788D01*
X101040838Y-78380788D01*
X100906948Y-78380788D01*
X100777617Y-78415441D01*
X100694501Y-78463430D01*
X100626601Y-78479903D01*
X100560574Y-78457051D01*
X100517383Y-78402130D01*
X100508500Y-78356043D01*
X100508500Y-75289998D01*
X101125498Y-75289998D01*
X101167970Y-75436193D01*
X101250280Y-75575372D01*
X101250287Y-75575381D01*
X101364618Y-75689712D01*
X101364627Y-75689719D01*
X101503806Y-75772029D01*
X101659091Y-75817143D01*
X101680002Y-75818787D01*
X101680002Y-75289998D01*
X101125498Y-75289998D01*
X100508500Y-75289998D01*
X100508500Y-72440000D01*
X101125496Y-72440000D01*
X101167968Y-72586195D01*
X101254252Y-72732093D01*
X101252129Y-72733348D01*
X101273223Y-72787076D01*
X101265064Y-72843522D01*
X101248564Y-72885366D01*
X101238500Y-72969171D01*
X101238500Y-72969176D01*
X101238500Y-72969177D01*
X101238500Y-73330822D01*
X101248563Y-73414633D01*
X101248565Y-73414637D01*
X101301152Y-73547989D01*
X101304661Y-73554230D01*
X101320357Y-73622314D01*
X101304660Y-73675773D01*
X101301155Y-73682006D01*
X101248566Y-73815362D01*
X101248566Y-73815364D01*
X101238502Y-73899169D01*
X101238502Y-73899174D01*
X101238502Y-73899175D01*
X101238502Y-74260820D01*
X101248565Y-74344631D01*
X101248567Y-74344635D01*
X101265065Y-74386474D01*
X101271346Y-74456061D01*
X101252697Y-74496984D01*
X101254254Y-74497905D01*
X101167970Y-74643802D01*
X101125498Y-74789998D01*
X101806002Y-74789998D01*
X101873041Y-74809683D01*
X101918796Y-74862487D01*
X101930002Y-74913998D01*
X101930002Y-75039998D01*
X102056002Y-75039998D01*
X102123041Y-75059683D01*
X102168796Y-75112487D01*
X102180002Y-75163998D01*
X102180002Y-75818787D01*
X102200912Y-75817143D01*
X102356197Y-75772029D01*
X102356199Y-75772028D01*
X102428761Y-75729115D01*
X102448053Y-75724219D01*
X102465527Y-75714679D01*
X102481227Y-75715802D01*
X102496485Y-75711931D01*
X102515364Y-75718244D01*
X102535219Y-75719665D01*
X102547819Y-75729098D01*
X102562747Y-75734090D01*
X102575215Y-75749606D01*
X102591151Y-75761537D01*
X102604618Y-75786201D01*
X102606511Y-75788556D01*
X102608043Y-75792457D01*
X102620803Y-75826667D01*
X102625786Y-75896357D01*
X102620802Y-75913329D01*
X102604668Y-75956587D01*
X102604665Y-75956597D01*
X102598500Y-76013932D01*
X102598500Y-76366044D01*
X102598501Y-76366052D01*
X102604665Y-76423401D01*
X102653050Y-76553126D01*
X102653052Y-76553129D01*
X102736027Y-76663971D01*
X102846869Y-76746946D01*
X102976597Y-76795332D01*
X103033949Y-76801498D01*
X103326050Y-76801497D01*
X103383403Y-76795332D01*
X103513131Y-76746946D01*
X103513134Y-76746943D01*
X103513136Y-76746943D01*
X103520919Y-76742694D01*
X103521914Y-76744517D01*
X103531622Y-76740896D01*
X103550256Y-76728921D01*
X103572164Y-76725771D01*
X103576335Y-76724215D01*
X103585186Y-76723898D01*
X103768841Y-76723898D01*
X103835878Y-76743583D01*
X103842474Y-76748129D01*
X103850877Y-76754331D01*
X103984322Y-76801026D01*
X104016002Y-76803997D01*
X104176545Y-76803997D01*
X104243584Y-76823682D01*
X104252030Y-76829620D01*
X104276217Y-76848179D01*
X104276218Y-76848180D01*
X104419130Y-76907375D01*
X104419142Y-76907379D01*
X104485000Y-76916048D01*
X104485002Y-76916047D01*
X104485002Y-76805211D01*
X104486410Y-76800414D01*
X104485381Y-76795523D01*
X104496157Y-76767219D01*
X104504687Y-76738172D01*
X104508948Y-76733625D01*
X104510243Y-76730226D01*
X104535361Y-76705446D01*
X104582881Y-76670376D01*
X104582882Y-76670374D01*
X104586369Y-76667801D01*
X104651998Y-76643831D01*
X104720169Y-76659147D01*
X104733635Y-76667801D01*
X104737121Y-76670374D01*
X104737123Y-76670376D01*
X104784638Y-76705443D01*
X104826886Y-76761087D01*
X104835002Y-76805211D01*
X104835002Y-76916046D01*
X104900871Y-76907376D01*
X105043786Y-76848178D01*
X105067974Y-76829620D01*
X105133143Y-76804427D01*
X105143459Y-76803997D01*
X105304002Y-76803997D01*
X105335680Y-76801026D01*
X105335682Y-76801026D01*
X105421052Y-76771153D01*
X105469127Y-76754331D01*
X105582881Y-76670376D01*
X105584217Y-76668566D01*
X105586190Y-76667067D01*
X105589452Y-76663806D01*
X105589898Y-76664252D01*
X105639864Y-76626314D01*
X105709520Y-76620854D01*
X105752883Y-76639097D01*
X105758974Y-76643167D01*
X105758985Y-76643173D01*
X105840519Y-76676945D01*
X105874632Y-76691075D01*
X105997405Y-76715496D01*
X105997409Y-76715497D01*
X105997410Y-76715497D01*
X106122593Y-76715497D01*
X106122594Y-76715496D01*
X106245370Y-76691075D01*
X106361023Y-76643170D01*
X106465109Y-76573622D01*
X106553626Y-76485105D01*
X106623174Y-76381019D01*
X106671079Y-76265366D01*
X106695501Y-76142588D01*
X106695501Y-76017406D01*
X106671079Y-75894628D01*
X106650045Y-75843847D01*
X106623177Y-75778981D01*
X106623170Y-75778968D01*
X106553626Y-75674889D01*
X106553623Y-75674885D01*
X106465112Y-75586374D01*
X106465108Y-75586371D01*
X106361029Y-75516827D01*
X106361016Y-75516820D01*
X106245374Y-75468920D01*
X106245362Y-75468917D01*
X106122596Y-75444497D01*
X106122592Y-75444497D01*
X106102500Y-75444497D01*
X106035461Y-75424812D01*
X105989706Y-75372008D01*
X105978500Y-75320497D01*
X105978500Y-75273057D01*
X105978500Y-75273055D01*
X105943847Y-75143726D01*
X105876901Y-75027774D01*
X105782226Y-74933099D01*
X105782225Y-74933098D01*
X105782220Y-74933095D01*
X105778499Y-74930946D01*
X105775987Y-74928311D01*
X105775778Y-74928151D01*
X105775803Y-74928118D01*
X105730285Y-74880378D01*
X105716502Y-74823561D01*
X105716502Y-74353496D01*
X105714851Y-74335899D01*
X105713531Y-74321819D01*
X105700858Y-74285601D01*
X105700163Y-74281511D01*
X105698923Y-74279582D01*
X105693900Y-74244647D01*
X105693900Y-74126985D01*
X105713585Y-74059946D01*
X105730219Y-74039304D01*
X105784778Y-73984744D01*
X105784780Y-73984741D01*
X105822846Y-73906875D01*
X105840698Y-73870359D01*
X105851502Y-73796204D01*
X105851502Y-73517404D01*
X106254500Y-73517404D01*
X106254500Y-73642595D01*
X106278920Y-73765361D01*
X106278923Y-73765373D01*
X106326823Y-73881015D01*
X106326830Y-73881028D01*
X106396374Y-73985107D01*
X106396377Y-73985111D01*
X106484888Y-74073622D01*
X106484892Y-74073625D01*
X106588971Y-74143169D01*
X106588984Y-74143176D01*
X106699725Y-74189046D01*
X106704631Y-74191078D01*
X106827404Y-74215499D01*
X106827408Y-74215500D01*
X106827409Y-74215500D01*
X106952592Y-74215500D01*
X106952593Y-74215499D01*
X107075369Y-74191078D01*
X107191022Y-74143173D01*
X107295108Y-74073625D01*
X107347320Y-74021412D01*
X107408639Y-73987929D01*
X107478331Y-73992912D01*
X107522680Y-74021414D01*
X107564888Y-74063622D01*
X107564892Y-74063625D01*
X107668971Y-74133169D01*
X107668984Y-74133176D01*
X107784626Y-74181076D01*
X107784631Y-74181078D01*
X107907404Y-74205499D01*
X107907408Y-74205500D01*
X107907409Y-74205500D01*
X108032592Y-74205500D01*
X108032593Y-74205499D01*
X108155369Y-74181078D01*
X108271022Y-74133173D01*
X108375108Y-74063625D01*
X108382314Y-74056418D01*
X108443630Y-74022931D01*
X108513322Y-74027909D01*
X108557680Y-74056414D01*
X108644888Y-74143622D01*
X108644892Y-74143625D01*
X108748971Y-74213169D01*
X108748984Y-74213176D01*
X108864025Y-74260827D01*
X108864631Y-74261078D01*
X108967355Y-74281511D01*
X108987404Y-74285499D01*
X108987408Y-74285500D01*
X108987409Y-74285500D01*
X109112592Y-74285500D01*
X109112593Y-74285499D01*
X109235369Y-74261078D01*
X109351022Y-74213173D01*
X109455108Y-74143625D01*
X109543625Y-74055108D01*
X109613173Y-73951022D01*
X109617326Y-73940997D01*
X109646583Y-73870362D01*
X109661078Y-73835369D01*
X109685500Y-73712591D01*
X109685500Y-73587409D01*
X109661078Y-73464631D01*
X109661076Y-73464626D01*
X109613176Y-73348984D01*
X109613169Y-73348971D01*
X109543625Y-73244892D01*
X109543622Y-73244888D01*
X109455111Y-73156377D01*
X109455107Y-73156374D01*
X109351028Y-73086830D01*
X109351015Y-73086823D01*
X109235373Y-73038923D01*
X109235361Y-73038920D01*
X109112595Y-73014500D01*
X109112591Y-73014500D01*
X108987409Y-73014500D01*
X108987404Y-73014500D01*
X108864638Y-73038920D01*
X108864626Y-73038923D01*
X108748984Y-73086823D01*
X108748971Y-73086830D01*
X108644892Y-73156374D01*
X108644888Y-73156377D01*
X108637681Y-73163585D01*
X108576358Y-73197070D01*
X108506666Y-73192086D01*
X108462319Y-73163585D01*
X108375111Y-73076377D01*
X108375107Y-73076374D01*
X108271028Y-73006830D01*
X108271015Y-73006823D01*
X108155373Y-72958923D01*
X108155361Y-72958920D01*
X108032595Y-72934500D01*
X108032591Y-72934500D01*
X107907409Y-72934500D01*
X107907404Y-72934500D01*
X107784638Y-72958920D01*
X107784626Y-72958923D01*
X107668984Y-73006823D01*
X107668971Y-73006830D01*
X107564892Y-73076374D01*
X107564888Y-73076377D01*
X107512681Y-73128585D01*
X107451358Y-73162070D01*
X107381666Y-73157086D01*
X107337319Y-73128585D01*
X107295111Y-73086377D01*
X107295107Y-73086374D01*
X107191028Y-73016830D01*
X107191015Y-73016823D01*
X107075373Y-72968923D01*
X107075361Y-72968920D01*
X106952595Y-72944500D01*
X106952591Y-72944500D01*
X106827409Y-72944500D01*
X106827404Y-72944500D01*
X106704638Y-72968920D01*
X106704626Y-72968923D01*
X106588984Y-73016823D01*
X106588971Y-73016830D01*
X106484892Y-73086374D01*
X106484888Y-73086377D01*
X106396377Y-73174888D01*
X106396374Y-73174892D01*
X106326830Y-73278971D01*
X106326823Y-73278984D01*
X106278923Y-73394626D01*
X106278920Y-73394638D01*
X106254500Y-73517404D01*
X105851502Y-73517404D01*
X105851502Y-71923792D01*
X105840698Y-71849637D01*
X105813403Y-71793804D01*
X105784780Y-71735254D01*
X105784778Y-71735251D01*
X105694748Y-71645221D01*
X105694745Y-71645219D01*
X105580366Y-71589303D01*
X105580364Y-71589302D01*
X105580363Y-71589302D01*
X105506208Y-71578498D01*
X104633796Y-71578498D01*
X104559641Y-71589302D01*
X104559639Y-71589302D01*
X104559637Y-71589303D01*
X104445258Y-71645219D01*
X104445255Y-71645221D01*
X104357684Y-71732793D01*
X104296361Y-71766278D01*
X104226669Y-71761294D01*
X104182322Y-71732793D01*
X104094750Y-71645221D01*
X104094747Y-71645219D01*
X103980368Y-71589303D01*
X103980366Y-71589302D01*
X103980365Y-71589302D01*
X103906210Y-71578498D01*
X103033798Y-71578498D01*
X102959643Y-71589302D01*
X102959641Y-71589302D01*
X102959639Y-71589303D01*
X102845260Y-71645219D01*
X102845256Y-71645222D01*
X102806793Y-71683685D01*
X102745470Y-71717169D01*
X102675778Y-71712184D01*
X102619845Y-71670312D01*
X102612378Y-71659119D01*
X102609719Y-71654622D01*
X102609714Y-71654616D01*
X102495383Y-71540285D01*
X102495374Y-71540278D01*
X102356195Y-71457968D01*
X102356190Y-71457966D01*
X102200918Y-71412855D01*
X102200912Y-71412854D01*
X102180000Y-71411209D01*
X102180000Y-72066000D01*
X102160315Y-72133039D01*
X102107511Y-72178794D01*
X102056000Y-72190000D01*
X101930000Y-72190000D01*
X101930000Y-72316000D01*
X101910315Y-72383039D01*
X101857511Y-72428794D01*
X101806000Y-72440000D01*
X101125496Y-72440000D01*
X100508500Y-72440000D01*
X100508500Y-71940000D01*
X101125496Y-71940000D01*
X101680000Y-71940000D01*
X101680000Y-71411210D01*
X101679999Y-71411209D01*
X101659087Y-71412854D01*
X101659081Y-71412855D01*
X101503809Y-71457966D01*
X101503804Y-71457968D01*
X101364625Y-71540278D01*
X101364616Y-71540285D01*
X101250285Y-71654616D01*
X101250278Y-71654625D01*
X101167968Y-71793804D01*
X101125496Y-71940000D01*
X100508500Y-71940000D01*
X100508500Y-71261989D01*
X100528185Y-71194950D01*
X100544819Y-71174308D01*
X101174308Y-70544819D01*
X101235631Y-70511334D01*
X101261989Y-70508500D01*
X134738010Y-70508500D01*
X134805049Y-70528185D01*
G37*
%TD.AperFunction*%
%TA.AperFunction,Conductor*%
G36*
X102662438Y-88687439D02*
G01*
X102718371Y-88729311D01*
X102738878Y-88771527D01*
X102744665Y-88793124D01*
X102811611Y-88909076D01*
X102906286Y-89003751D01*
X103022238Y-89070697D01*
X103151567Y-89105350D01*
X103151569Y-89105350D01*
X103246940Y-89105350D01*
X103313979Y-89125035D01*
X103359734Y-89177839D01*
X103369678Y-89246997D01*
X103340653Y-89310553D01*
X103334621Y-89317031D01*
X103152789Y-89498863D01*
X103091466Y-89532348D01*
X103021774Y-89527364D01*
X102977427Y-89498863D01*
X102610390Y-89131826D01*
X102610388Y-89131824D01*
X102557843Y-89101487D01*
X102511609Y-89074793D01*
X102486451Y-89068052D01*
X102451671Y-89058733D01*
X102446488Y-89055574D01*
X102440432Y-89055141D01*
X102417002Y-89037601D01*
X102392012Y-89022369D01*
X102389358Y-89016907D01*
X102384499Y-89013269D01*
X102374271Y-88985849D01*
X102361483Y-88959522D01*
X102362203Y-88953493D01*
X102360082Y-88947805D01*
X102366303Y-88919204D01*
X102369778Y-88890147D01*
X102373973Y-88883948D01*
X102374934Y-88879532D01*
X102396082Y-88851281D01*
X102531425Y-88715938D01*
X102592746Y-88682455D01*
X102662438Y-88687439D01*
G37*
%TD.AperFunction*%
%TA.AperFunction,Conductor*%
G36*
X107985901Y-88674413D02*
G01*
X108006543Y-88691047D01*
X108183673Y-88868177D01*
X108272789Y-88919628D01*
X108272791Y-88919630D01*
X108279388Y-88923438D01*
X108282453Y-88925208D01*
X108392628Y-88954729D01*
X109472906Y-88954729D01*
X109483816Y-88954729D01*
X109483846Y-88954738D01*
X109535189Y-88954738D01*
X109535189Y-88954739D01*
X109612452Y-88954740D01*
X109731882Y-88930985D01*
X109801473Y-88937212D01*
X109856650Y-88980076D01*
X109870638Y-89005160D01*
X109910927Y-89102455D01*
X109910929Y-89102458D01*
X109910930Y-89102460D01*
X109947942Y-89157863D01*
X109985707Y-89214394D01*
X109997891Y-89232631D01*
X109997892Y-89232633D01*
X110072938Y-89307689D01*
X110106419Y-89369014D01*
X110101430Y-89438706D01*
X110059555Y-89494636D01*
X109994088Y-89519049D01*
X109985251Y-89519364D01*
X108748416Y-89519364D01*
X108681377Y-89499679D01*
X108641572Y-89454666D01*
X108640524Y-89455325D01*
X108636819Y-89449424D01*
X108559332Y-89352208D01*
X108551165Y-89341961D01*
X108551153Y-89341951D01*
X108443740Y-89256246D01*
X108319934Y-89196587D01*
X108319936Y-89196587D01*
X108185965Y-89165975D01*
X108185963Y-89165974D01*
X108185960Y-89165974D01*
X108185870Y-89165973D01*
X108182304Y-89165973D01*
X108182072Y-89165958D01*
X108174172Y-89165958D01*
X108117245Y-89165958D01*
X108054962Y-89165943D01*
X108054961Y-89165943D01*
X108046220Y-89165941D01*
X108045984Y-89165958D01*
X107879668Y-89165958D01*
X107801930Y-89165939D01*
X107801925Y-89165940D01*
X107667898Y-89196503D01*
X107544027Y-89256140D01*
X107471053Y-89314330D01*
X107406366Y-89340735D01*
X107337671Y-89327976D01*
X107316421Y-89314317D01*
X107243687Y-89256299D01*
X107119899Y-89196662D01*
X107047149Y-89180042D01*
X106985947Y-89166061D01*
X106985888Y-89166060D01*
X106982168Y-89166060D01*
X106982168Y-89166059D01*
X106974215Y-89166057D01*
X106974172Y-89166046D01*
X106917248Y-89166046D01*
X106917245Y-89166046D01*
X106854962Y-89166031D01*
X106854961Y-89166031D01*
X106846220Y-89166029D01*
X106845984Y-89166046D01*
X106741542Y-89166046D01*
X106732676Y-89166040D01*
X106732645Y-89166031D01*
X106722379Y-89166033D01*
X106721657Y-89166033D01*
X106721551Y-89166002D01*
X106601658Y-89166025D01*
X106601654Y-89166026D01*
X106467691Y-89196629D01*
X106343895Y-89256270D01*
X106236479Y-89341951D01*
X106236474Y-89341956D01*
X106236474Y-89341957D01*
X106235342Y-89343377D01*
X106185454Y-89405943D01*
X106128268Y-89446087D01*
X106058457Y-89448941D01*
X106000821Y-89416317D01*
X105522185Y-88937681D01*
X105517846Y-88929735D01*
X105510599Y-88924310D01*
X105501364Y-88899550D01*
X105488700Y-88876358D01*
X105489345Y-88867328D01*
X105486182Y-88858846D01*
X105491798Y-88833025D01*
X105493684Y-88806666D01*
X105499502Y-88797612D01*
X105501034Y-88790573D01*
X105522185Y-88762319D01*
X105593457Y-88691047D01*
X105654780Y-88657562D01*
X105681138Y-88654728D01*
X107918862Y-88654728D01*
X107985901Y-88674413D01*
G37*
%TD.AperFunction*%
%TA.AperFunction,Conductor*%
G36*
X103646680Y-83566155D02*
G01*
X103646693Y-83566154D01*
X103679044Y-83580935D01*
X103710226Y-83595176D01*
X103710241Y-83595190D01*
X103710243Y-83595191D01*
X103710244Y-83595193D01*
X103716704Y-83601208D01*
X103983672Y-83868176D01*
X104076206Y-83921601D01*
X104076208Y-83921602D01*
X104076207Y-83921602D01*
X104082446Y-83925204D01*
X104082454Y-83925208D01*
X104114775Y-83933868D01*
X104174436Y-83970232D01*
X104194396Y-83999827D01*
X104225733Y-84064878D01*
X104225738Y-84064886D01*
X104313111Y-84174413D01*
X104315118Y-84176929D01*
X104374556Y-84224312D01*
X104414705Y-84281493D01*
X104417567Y-84351304D01*
X104382232Y-84411580D01*
X104319919Y-84443184D01*
X104297259Y-84445272D01*
X103992627Y-84445272D01*
X103882450Y-84474793D01*
X103802146Y-84521157D01*
X103802147Y-84521158D01*
X103783673Y-84531824D01*
X103783670Y-84531826D01*
X103002143Y-85313353D01*
X102940820Y-85346838D01*
X102914462Y-85349672D01*
X102372211Y-85349672D01*
X102305172Y-85329987D01*
X102259417Y-85277183D01*
X102249473Y-85208025D01*
X102252436Y-85193579D01*
X102254058Y-85187524D01*
X102287211Y-85063795D01*
X102287211Y-84929905D01*
X102261002Y-84832089D01*
X102261002Y-84767910D01*
X102287211Y-84670095D01*
X102287211Y-84536205D01*
X102261200Y-84439129D01*
X102262863Y-84369280D01*
X102302026Y-84311418D01*
X102366254Y-84283914D01*
X102434761Y-84295309D01*
X102488129Y-84321000D01*
X102488133Y-84321002D01*
X102636042Y-84354739D01*
X102711895Y-84354728D01*
X102760782Y-84354728D01*
X102760922Y-84354737D01*
X102769608Y-84354735D01*
X102769612Y-84354737D01*
X102831887Y-84354728D01*
X102831896Y-84354728D01*
X102897205Y-84354728D01*
X102897392Y-84354715D01*
X102907735Y-84354714D01*
X103055607Y-84320948D01*
X103192262Y-84255129D01*
X103310848Y-84160558D01*
X103405422Y-84041974D01*
X103471243Y-83905321D01*
X103505012Y-83757449D01*
X103505014Y-83738599D01*
X103505023Y-83738569D01*
X103505023Y-83688866D01*
X103515350Y-83653718D01*
X103524708Y-83621850D01*
X103524716Y-83621842D01*
X103524720Y-83621830D01*
X103553211Y-83597151D01*
X103577512Y-83576095D01*
X103577523Y-83576093D01*
X103577533Y-83576085D01*
X103613865Y-83570867D01*
X103646670Y-83566151D01*
X103646680Y-83566155D01*
G37*
%TD.AperFunction*%
%TA.AperFunction,Conductor*%
G36*
X123803096Y-83394376D02*
G01*
X123823965Y-83399968D01*
X123928926Y-83399968D01*
X123931671Y-83400090D01*
X123962225Y-83410556D01*
X123993205Y-83419653D01*
X123995072Y-83421807D01*
X123997770Y-83422732D01*
X124017816Y-83448055D01*
X124038960Y-83472457D01*
X124039365Y-83475278D01*
X124041136Y-83477515D01*
X124044307Y-83509650D01*
X124048904Y-83541615D01*
X124047719Y-83544209D01*
X124047999Y-83547046D01*
X124033296Y-83575790D01*
X124019879Y-83605171D01*
X124017480Y-83606712D01*
X124016182Y-83609251D01*
X124013847Y-83611649D01*
X123863841Y-83761655D01*
X123802518Y-83795140D01*
X123776160Y-83797974D01*
X123627759Y-83797974D01*
X123560720Y-83778289D01*
X123514965Y-83725485D01*
X123505021Y-83656327D01*
X123534046Y-83592771D01*
X123540063Y-83586307D01*
X123696400Y-83429970D01*
X123725636Y-83414006D01*
X123754459Y-83397243D01*
X123756751Y-83397016D01*
X123757720Y-83396488D01*
X123761255Y-83396572D01*
X123789583Y-83393776D01*
X123803096Y-83394376D01*
G37*
%TD.AperFunction*%
%TA.AperFunction,Conductor*%
G36*
X100713703Y-79461453D02*
G01*
X100720181Y-79467485D01*
X101347072Y-80094376D01*
X101444103Y-80150397D01*
X101445852Y-80151407D01*
X101445856Y-80151408D01*
X101445858Y-80151409D01*
X101459266Y-80155001D01*
X101556027Y-80180928D01*
X102234606Y-80180928D01*
X102301645Y-80200613D01*
X102347400Y-80253417D01*
X102357344Y-80322575D01*
X102328319Y-80386131D01*
X102322304Y-80392590D01*
X102074785Y-80640110D01*
X102024975Y-80689920D01*
X101963652Y-80723404D01*
X101893960Y-80718420D01*
X101838027Y-80676548D01*
X101829907Y-80664239D01*
X101829426Y-80663406D01*
X101792211Y-80598948D01*
X101697536Y-80504273D01*
X101607092Y-80452054D01*
X101581585Y-80437327D01*
X101550066Y-80428882D01*
X101452255Y-80402674D01*
X101318365Y-80402674D01*
X101318363Y-80402674D01*
X101220552Y-80428882D01*
X101156368Y-80428882D01*
X101058556Y-80402674D01*
X101058555Y-80402674D01*
X100924665Y-80402674D01*
X100795334Y-80437327D01*
X100694501Y-80495545D01*
X100626601Y-80512018D01*
X100560574Y-80489166D01*
X100517383Y-80434245D01*
X100508500Y-80388158D01*
X100508500Y-79555166D01*
X100528185Y-79488127D01*
X100580989Y-79442372D01*
X100650147Y-79432428D01*
X100713703Y-79461453D01*
G37*
%TD.AperFunction*%
%TD*%
M02*
