%TF.GenerationSoftware,KiCad,Pcbnew,9.0.2*%
%TF.CreationDate,2025-11-14T17:05:06-08:00*%
%TF.ProjectId,pico2-nx-module,7069636f-322d-46e7-982d-6d6f64756c65,rev?*%
%TF.SameCoordinates,Original*%
%TF.FileFunction,Copper,L4,Inr*%
%TF.FilePolarity,Positive*%
%FSLAX46Y46*%
G04 Gerber Fmt 4.6, Leading zero omitted, Abs format (unit mm)*
G04 Created by KiCad (PCBNEW 9.0.2) date 2025-11-14 17:05:06*
%MOMM*%
%LPD*%
G01*
G04 APERTURE LIST*
%TA.AperFunction,ViaPad*%
%ADD10C,0.254000*%
%TD*%
%TA.AperFunction,ViaPad*%
%ADD11C,0.508000*%
%TD*%
%TA.AperFunction,Conductor*%
%ADD12C,0.254000*%
%TD*%
G04 APERTURE END LIST*
D10*
%TO.N,GND*%
X101788460Y-90194400D03*
D11*
X106060000Y-73510000D03*
D10*
X103188460Y-87794400D03*
X133410000Y-82600000D03*
D11*
X121250000Y-73810000D03*
D10*
X103200000Y-85000000D03*
X101788460Y-84194400D03*
X103188460Y-84194400D03*
X103835812Y-81362184D03*
X116610000Y-74650000D03*
X123900000Y-74900000D03*
X123900000Y-83300000D03*
X100670000Y-77860000D03*
X105700000Y-89000000D03*
X107400000Y-92506850D03*
X133410000Y-83800000D03*
D11*
X124188800Y-98196800D03*
D10*
X123900000Y-82100000D03*
X100658378Y-79920000D03*
X106040000Y-78810000D03*
X133420000Y-91000000D03*
X101750000Y-78890000D03*
D11*
X102620000Y-75040000D03*
D10*
X100680000Y-81130000D03*
X133420000Y-86200000D03*
D11*
X105270000Y-77360000D03*
D10*
X104416814Y-90162715D03*
D11*
X130259400Y-93497800D03*
D10*
X133410000Y-85000000D03*
X120621178Y-89516439D03*
X103084000Y-82237666D03*
X123900000Y-77300000D03*
X123900000Y-73700000D03*
X101788460Y-91394400D03*
D11*
X125340768Y-91300000D03*
D10*
X112868822Y-73891178D03*
X115140000Y-78710000D03*
X115130000Y-78198427D03*
X107400000Y-91320000D03*
X100660000Y-79110000D03*
X123900000Y-80900000D03*
X114422893Y-74662893D03*
X106040023Y-77649129D03*
X113540000Y-83510000D03*
X133410000Y-80200000D03*
X104430000Y-91390000D03*
X133410000Y-81400000D03*
X101770000Y-80892931D03*
X133410000Y-79000000D03*
X101190000Y-80580000D03*
X129451600Y-93015200D03*
X123900000Y-79700000D03*
X101788460Y-87794400D03*
X133420000Y-88600000D03*
X133420000Y-89800000D03*
X101788460Y-85394400D03*
X123900000Y-76100000D03*
X124500000Y-87390000D03*
X133420000Y-87400000D03*
X123900000Y-78500000D03*
X101190000Y-78470000D03*
X101788460Y-88994400D03*
X107410000Y-93700000D03*
D11*
X103940000Y-95370000D03*
D10*
X101810000Y-81856828D03*
X103188460Y-88994400D03*
X101788460Y-86594400D03*
D11*
%TO.N,P5VD_AON*%
X106060001Y-76079997D03*
D10*
%TO.N,Net-(U5-FB)*%
X104160002Y-76085000D03*
%TO.N,P3V3D_FPGA*%
X118079973Y-90700000D03*
X117557707Y-90177734D03*
X128805400Y-93008985D03*
D11*
X107110691Y-81800691D03*
D10*
%TO.N,P1V8D_FPGA*%
X115530000Y-77240000D03*
D11*
X121640768Y-92349286D03*
D10*
X121751719Y-84217574D03*
D11*
X117270461Y-80500000D03*
D10*
X114850000Y-72560000D03*
X117251320Y-74662893D03*
X113715786Y-75370000D03*
D11*
X107970000Y-73570000D03*
D10*
X115837107Y-77491320D03*
X112177504Y-74570000D03*
D11*
%TO.N,P1VD_FPGA*%
X102640001Y-73149997D03*
D10*
%TO.N,Net-(U3G-VCCADPHY1)*%
X119080000Y-89390000D03*
%TO.N,/FPGA/PVCCAUX*%
X122105272Y-85985341D03*
X122458826Y-85631787D03*
X121044612Y-84924680D03*
D11*
%TO.N,PVIO5_FPGA*%
X106890000Y-73580000D03*
%TO.N,PVIO3_FPGA*%
X109050000Y-73650000D03*
X128506800Y-91567400D03*
D10*
%TO.N,/FPGA/DONE*%
X105700000Y-84200000D03*
%TO.N,/FPGA/FPGA_EN*%
X105470000Y-75340000D03*
X107940000Y-81820000D03*
%TO.N,Net-(U5-PG)*%
X104150001Y-75260000D03*
%TO.N,/FPGA/PB52A*%
X127300000Y-87600000D03*
%TO.N,/FPGA/JTAG_EN*%
X106200000Y-87400000D03*
%TO.N,/FPGA/TDO*%
X105700000Y-85800000D03*
%TO.N,/FPGA/TCK*%
X121710000Y-89450000D03*
X105700000Y-87400000D03*
%TO.N,/FPGA/TDI*%
X106600000Y-85800000D03*
%TO.N,/FPGA/TMS*%
X106700000Y-87400000D03*
%TO.N,/FPGA/PB52B*%
X128000000Y-87600000D03*
%TO.N,Net-(U3A-PT59A{slash}MCLK{slash}PCLKT0_0)*%
X124444060Y-91018071D03*
%TO.N,/FPGA/FLASH_CSn*%
X128795400Y-97845602D03*
X113748000Y-95352000D03*
%TO.N,/FPGA/SRAM_CEN*%
X117000000Y-79290000D03*
X113715786Y-73955786D03*
%TO.N,/FPGA/SRAM_RSTn*%
X113008680Y-74662893D03*
%TO.N,/FPGA/MOSI*%
X124995400Y-93595602D03*
X115100000Y-93727779D03*
%TO.N,/FPGA/SD3*%
X127545400Y-93595602D03*
X114206800Y-94793200D03*
%TO.N,/FPGA/SCLK*%
X114665600Y-94234400D03*
X126245400Y-93645602D03*
%TO.N,/FPGA/SD2*%
X112758800Y-96469600D03*
X122700000Y-91694400D03*
X126245400Y-97845602D03*
%TO.N,/FPGA/SRAM_DQ7*%
X117958427Y-75370000D03*
%TO.N,/FPGA/SRAM_DQ5*%
X117605000Y-77245000D03*
%TO.N,/FPGA/SRAM_RW*%
X115130000Y-75370000D03*
%TO.N,/FPGA/MISO*%
X113266800Y-95910800D03*
X127545400Y-97845602D03*
%TO.N,/FPGA/SRAM_DQ3*%
X115130000Y-76784214D03*
%TO.N,/FPGA/SRAM_CLK_P*%
X115130000Y-73955786D03*
%TO.N,/FPGA/SRAM_DQ2*%
X116700000Y-78190000D03*
%TO.N,/FPGA/SRAM_DQ4*%
X114422893Y-77491320D03*
%TO.N,/FPGA/PT65B*%
X120850000Y-92250000D03*
%TO.N,/FPGA/SRAM_DQ6*%
X118910000Y-76610000D03*
%TO.N,/FPGA/SRAM_DQ0*%
X115837107Y-76077107D03*
%TO.N,/FPGA/SRAM_CLK_N*%
X115837107Y-73248680D03*
%TO.N,/FPGA/SRAM_DQ1*%
X116544214Y-75370000D03*
%TO.N,/FPGA/PROGRAMn*%
X106600000Y-84200000D03*
%TO.N,/FPGA/PT57A*%
X105700000Y-82600000D03*
%TO.N,/FPGA/PB50A*%
X125900000Y-87601000D03*
%TO.N,/FPGA/PB50B*%
X126600000Y-87600000D03*
%TD*%
D12*
%TO.N,P1V8D_FPGA*%
X121751719Y-83898281D02*
X121850000Y-83800000D01*
X121751719Y-84217574D02*
X121751719Y-83898281D01*
%TD*%
%TA.AperFunction,Conductor*%
%TO.N,/FPGA/PVCCAUX*%
G36*
X121442862Y-84152862D02*
G01*
X121542749Y-84252749D01*
X121550791Y-84264786D01*
X121579028Y-84332958D01*
X121579029Y-84332959D01*
X121579030Y-84332961D01*
X121636332Y-84390263D01*
X121636333Y-84390263D01*
X121636334Y-84390264D01*
X121656068Y-84398438D01*
X121704507Y-84418501D01*
X121716543Y-84426543D01*
X121896302Y-84606302D01*
X121904344Y-84618339D01*
X121932581Y-84686511D01*
X121932582Y-84686512D01*
X121932583Y-84686514D01*
X121989885Y-84743816D01*
X121989886Y-84743816D01*
X121989887Y-84743817D01*
X122009621Y-84751991D01*
X122058060Y-84772054D01*
X122070096Y-84780096D01*
X122249857Y-84959857D01*
X122257899Y-84971894D01*
X122286135Y-85040064D01*
X122286136Y-85040065D01*
X122286137Y-85040067D01*
X122343439Y-85097369D01*
X122411612Y-85125607D01*
X122423648Y-85133648D01*
X122603409Y-85313409D01*
X122611451Y-85325446D01*
X122639688Y-85393618D01*
X122639689Y-85393619D01*
X122639690Y-85393621D01*
X122696992Y-85450923D01*
X122696993Y-85450923D01*
X122696994Y-85450924D01*
X122716728Y-85459098D01*
X122765167Y-85479161D01*
X122777203Y-85487203D01*
X122886118Y-85596118D01*
X122896984Y-85622352D01*
X122886118Y-85648586D01*
X122885931Y-85648771D01*
X121765509Y-86753413D01*
X121739199Y-86764093D01*
X121713228Y-86753228D01*
X121258373Y-86298373D01*
X121548019Y-86298373D01*
X121548019Y-86379414D01*
X121579028Y-86454278D01*
X121579029Y-86454279D01*
X121579030Y-86454281D01*
X121636332Y-86511583D01*
X121711200Y-86542594D01*
X121711201Y-86542594D01*
X121792237Y-86542594D01*
X121792238Y-86542594D01*
X121867106Y-86511583D01*
X121924408Y-86454281D01*
X121955419Y-86379413D01*
X121955419Y-86298375D01*
X121924408Y-86223507D01*
X121867106Y-86166205D01*
X121867104Y-86166204D01*
X121867103Y-86166203D01*
X121792239Y-86135194D01*
X121792238Y-86135194D01*
X121711200Y-86135194D01*
X121711198Y-86135194D01*
X121636334Y-86166203D01*
X121579028Y-86223509D01*
X121548019Y-86298373D01*
X121258373Y-86298373D01*
X121246413Y-86286413D01*
X121238371Y-86274376D01*
X121217301Y-86223507D01*
X121217300Y-86223506D01*
X121217299Y-86223504D01*
X121159999Y-86166205D01*
X121109127Y-86145133D01*
X121097091Y-86137091D01*
X120904820Y-85944820D01*
X121194466Y-85944820D01*
X121194466Y-86025861D01*
X121225475Y-86100725D01*
X121225476Y-86100726D01*
X121225477Y-86100728D01*
X121282779Y-86158030D01*
X121282780Y-86158030D01*
X121282781Y-86158031D01*
X121302515Y-86166205D01*
X121357647Y-86189041D01*
X121357648Y-86189041D01*
X121438684Y-86189041D01*
X121438685Y-86189041D01*
X121513553Y-86158030D01*
X121570855Y-86100728D01*
X121601866Y-86025860D01*
X121601866Y-85944822D01*
X121570855Y-85869954D01*
X121513553Y-85812652D01*
X121513551Y-85812651D01*
X121513550Y-85812650D01*
X121438686Y-85781641D01*
X121438685Y-85781641D01*
X121357647Y-85781641D01*
X121357645Y-85781641D01*
X121282781Y-85812650D01*
X121225475Y-85869956D01*
X121194466Y-85944820D01*
X120904820Y-85944820D01*
X120892860Y-85932860D01*
X120884818Y-85920823D01*
X120863748Y-85869954D01*
X120863747Y-85869953D01*
X120863746Y-85869951D01*
X120806446Y-85812652D01*
X120755574Y-85791580D01*
X120743538Y-85783538D01*
X120551266Y-85591266D01*
X120840912Y-85591266D01*
X120840912Y-85672307D01*
X120871921Y-85747171D01*
X120871922Y-85747172D01*
X120871923Y-85747174D01*
X120929225Y-85804476D01*
X121004093Y-85835487D01*
X121004094Y-85835487D01*
X121085130Y-85835487D01*
X121085131Y-85835487D01*
X121159999Y-85804476D01*
X121217301Y-85747174D01*
X121248312Y-85672306D01*
X121248312Y-85591268D01*
X121248311Y-85591266D01*
X121548019Y-85591266D01*
X121548019Y-85672307D01*
X121579028Y-85747171D01*
X121579029Y-85747172D01*
X121579030Y-85747174D01*
X121636332Y-85804476D01*
X121711200Y-85835487D01*
X121711201Y-85835487D01*
X121792237Y-85835487D01*
X121792238Y-85835487D01*
X121867106Y-85804476D01*
X121924408Y-85747174D01*
X121955419Y-85672306D01*
X121955419Y-85591268D01*
X121924408Y-85516400D01*
X121867106Y-85459098D01*
X121867104Y-85459097D01*
X121867103Y-85459096D01*
X121792239Y-85428087D01*
X121792238Y-85428087D01*
X121711200Y-85428087D01*
X121711198Y-85428087D01*
X121636334Y-85459096D01*
X121579028Y-85516402D01*
X121548019Y-85591266D01*
X121248311Y-85591266D01*
X121217301Y-85516400D01*
X121159999Y-85459098D01*
X121159997Y-85459097D01*
X121159996Y-85459096D01*
X121085132Y-85428087D01*
X121085131Y-85428087D01*
X121004093Y-85428087D01*
X121004091Y-85428087D01*
X120929227Y-85459096D01*
X120871921Y-85516402D01*
X120840912Y-85591266D01*
X120551266Y-85591266D01*
X120539306Y-85579306D01*
X120531264Y-85567269D01*
X120510194Y-85516400D01*
X120510193Y-85516399D01*
X120510192Y-85516397D01*
X120452892Y-85459098D01*
X120402020Y-85438026D01*
X120389984Y-85429984D01*
X120269972Y-85309972D01*
X120269917Y-85309840D01*
X120269787Y-85309785D01*
X120264505Y-85296774D01*
X120259106Y-85283738D01*
X120259160Y-85283606D01*
X120259107Y-85283475D01*
X120264571Y-85270543D01*
X120269972Y-85257504D01*
X120290046Y-85237713D01*
X120487359Y-85237713D01*
X120487359Y-85318754D01*
X120518368Y-85393618D01*
X120518369Y-85393619D01*
X120518370Y-85393621D01*
X120575672Y-85450923D01*
X120575673Y-85450923D01*
X120575674Y-85450924D01*
X120595408Y-85459098D01*
X120650540Y-85481934D01*
X120650541Y-85481934D01*
X120731577Y-85481934D01*
X120731578Y-85481934D01*
X120806446Y-85450923D01*
X120863748Y-85393621D01*
X120894759Y-85318753D01*
X120894759Y-85237715D01*
X120894758Y-85237713D01*
X121194466Y-85237713D01*
X121194466Y-85318754D01*
X121225475Y-85393618D01*
X121225476Y-85393619D01*
X121225477Y-85393621D01*
X121282779Y-85450923D01*
X121282780Y-85450923D01*
X121282781Y-85450924D01*
X121302515Y-85459098D01*
X121357647Y-85481934D01*
X121357648Y-85481934D01*
X121438684Y-85481934D01*
X121438685Y-85481934D01*
X121513553Y-85450923D01*
X121570855Y-85393621D01*
X121601866Y-85318753D01*
X121601866Y-85237715D01*
X121601865Y-85237713D01*
X121901572Y-85237713D01*
X121901572Y-85318754D01*
X121932581Y-85393618D01*
X121932582Y-85393619D01*
X121932583Y-85393621D01*
X121989885Y-85450923D01*
X121989886Y-85450923D01*
X121989887Y-85450924D01*
X122009621Y-85459098D01*
X122064753Y-85481934D01*
X122064754Y-85481934D01*
X122145790Y-85481934D01*
X122145791Y-85481934D01*
X122220659Y-85450923D01*
X122277961Y-85393621D01*
X122308972Y-85318753D01*
X122308972Y-85237715D01*
X122277961Y-85162847D01*
X122220659Y-85105545D01*
X122220657Y-85105544D01*
X122220656Y-85105543D01*
X122145792Y-85074534D01*
X122145791Y-85074534D01*
X122064753Y-85074534D01*
X122064751Y-85074534D01*
X121989887Y-85105543D01*
X121932581Y-85162849D01*
X121901572Y-85237713D01*
X121601865Y-85237713D01*
X121570855Y-85162847D01*
X121513553Y-85105545D01*
X121513551Y-85105544D01*
X121513550Y-85105543D01*
X121438686Y-85074534D01*
X121438685Y-85074534D01*
X121357647Y-85074534D01*
X121357645Y-85074534D01*
X121282781Y-85105543D01*
X121225475Y-85162849D01*
X121194466Y-85237713D01*
X120894758Y-85237713D01*
X120863748Y-85162847D01*
X120806446Y-85105545D01*
X120806444Y-85105544D01*
X120806443Y-85105543D01*
X120731579Y-85074534D01*
X120731578Y-85074534D01*
X120650540Y-85074534D01*
X120650538Y-85074534D01*
X120575674Y-85105543D01*
X120518368Y-85162849D01*
X120487359Y-85237713D01*
X120290046Y-85237713D01*
X120412391Y-85117090D01*
X120424225Y-85109244D01*
X120452893Y-85097370D01*
X120510195Y-85040068D01*
X120520906Y-85014207D01*
X120529126Y-85001999D01*
X120648649Y-84884159D01*
X121548019Y-84884159D01*
X121548019Y-84965200D01*
X121579028Y-85040064D01*
X121579029Y-85040065D01*
X121579030Y-85040067D01*
X121636332Y-85097369D01*
X121711200Y-85128380D01*
X121711201Y-85128380D01*
X121792237Y-85128380D01*
X121792238Y-85128380D01*
X121867106Y-85097369D01*
X121924408Y-85040067D01*
X121955419Y-84965199D01*
X121955419Y-84884161D01*
X121924408Y-84809293D01*
X121867106Y-84751991D01*
X121867104Y-84751990D01*
X121867103Y-84751989D01*
X121792239Y-84720980D01*
X121792238Y-84720980D01*
X121711200Y-84720980D01*
X121711198Y-84720980D01*
X121636334Y-84751989D01*
X121579028Y-84809295D01*
X121548019Y-84884159D01*
X120648649Y-84884159D01*
X120774655Y-84759928D01*
X120786492Y-84752080D01*
X120806446Y-84743816D01*
X120863748Y-84686514D01*
X120870971Y-84669074D01*
X120879193Y-84656862D01*
X121007253Y-84530606D01*
X121194466Y-84530606D01*
X121194466Y-84611647D01*
X121225475Y-84686511D01*
X121225476Y-84686512D01*
X121225477Y-84686514D01*
X121282779Y-84743816D01*
X121282780Y-84743816D01*
X121282781Y-84743817D01*
X121320213Y-84759321D01*
X121357647Y-84774827D01*
X121357648Y-84774827D01*
X121438684Y-84774827D01*
X121438685Y-84774827D01*
X121513553Y-84743816D01*
X121570855Y-84686514D01*
X121601866Y-84611646D01*
X121601866Y-84530608D01*
X121570855Y-84455740D01*
X121513553Y-84398438D01*
X121513551Y-84398437D01*
X121513550Y-84398436D01*
X121438686Y-84367427D01*
X121438685Y-84367427D01*
X121357647Y-84367427D01*
X121357645Y-84367427D01*
X121282781Y-84398436D01*
X121225475Y-84455742D01*
X121194466Y-84530606D01*
X121007253Y-84530606D01*
X121136917Y-84402768D01*
X121148756Y-84394919D01*
X121159999Y-84390263D01*
X121217301Y-84332961D01*
X121221038Y-84323937D01*
X121229259Y-84311726D01*
X121390581Y-84152676D01*
X121416891Y-84141997D01*
X121442862Y-84152862D01*
G37*
%TD.AperFunction*%
%TD*%
%TA.AperFunction,Conductor*%
%TO.N,P1V8D_FPGA*%
G36*
X134805049Y-70528185D02*
G01*
X134825691Y-70544819D01*
X135455181Y-71174308D01*
X135488666Y-71235631D01*
X135491500Y-71261989D01*
X135491500Y-98738010D01*
X135471815Y-98805049D01*
X135455181Y-98825691D01*
X134825691Y-99455181D01*
X134764368Y-99488666D01*
X134738010Y-99491500D01*
X120082500Y-99491500D01*
X120015461Y-99471815D01*
X119969706Y-99419011D01*
X119958500Y-99367500D01*
X119958500Y-98566034D01*
X119933228Y-98382173D01*
X119922016Y-98300600D01*
X119875394Y-98134204D01*
X123553300Y-98134204D01*
X123553300Y-98259395D01*
X123577720Y-98382161D01*
X123577723Y-98382173D01*
X123625623Y-98497815D01*
X123625630Y-98497828D01*
X123695174Y-98601907D01*
X123695177Y-98601911D01*
X123783688Y-98690422D01*
X123783692Y-98690425D01*
X123887771Y-98759969D01*
X123887784Y-98759976D01*
X123996601Y-98805049D01*
X124003431Y-98807878D01*
X124126204Y-98832299D01*
X124126208Y-98832300D01*
X124126209Y-98832300D01*
X124251392Y-98832300D01*
X124251393Y-98832299D01*
X124374169Y-98807878D01*
X124489822Y-98759973D01*
X124593908Y-98690425D01*
X124682425Y-98601908D01*
X124751973Y-98497822D01*
X124799878Y-98382169D01*
X124824300Y-98259391D01*
X124824300Y-98134209D01*
X124799878Y-98011431D01*
X124799876Y-98011426D01*
X124751976Y-97895784D01*
X124751969Y-97895771D01*
X124714317Y-97839421D01*
X124682425Y-97791692D01*
X124682422Y-97791688D01*
X124669391Y-97778657D01*
X125736900Y-97778657D01*
X125736900Y-97912547D01*
X125771553Y-98041876D01*
X125838499Y-98157828D01*
X125933174Y-98252503D01*
X126049126Y-98319449D01*
X126178455Y-98354102D01*
X126178457Y-98354102D01*
X126312343Y-98354102D01*
X126312345Y-98354102D01*
X126441674Y-98319449D01*
X126557626Y-98252503D01*
X126652301Y-98157828D01*
X126719247Y-98041876D01*
X126753900Y-97912547D01*
X126753900Y-97778657D01*
X127036900Y-97778657D01*
X127036900Y-97912547D01*
X127071553Y-98041876D01*
X127138499Y-98157828D01*
X127233174Y-98252503D01*
X127349126Y-98319449D01*
X127478455Y-98354102D01*
X127478457Y-98354102D01*
X127612343Y-98354102D01*
X127612345Y-98354102D01*
X127741674Y-98319449D01*
X127857626Y-98252503D01*
X127952301Y-98157828D01*
X128019247Y-98041876D01*
X128053900Y-97912547D01*
X128053900Y-97778657D01*
X128286900Y-97778657D01*
X128286900Y-97912547D01*
X128312080Y-98006524D01*
X128321553Y-98041877D01*
X128321973Y-98042604D01*
X128388499Y-98157828D01*
X128483174Y-98252503D01*
X128599126Y-98319449D01*
X128728455Y-98354102D01*
X128728457Y-98354102D01*
X128862343Y-98354102D01*
X128862345Y-98354102D01*
X128991674Y-98319449D01*
X129107626Y-98252503D01*
X129202301Y-98157828D01*
X129269247Y-98041876D01*
X129303900Y-97912547D01*
X129303900Y-97778657D01*
X129269247Y-97649328D01*
X129202301Y-97533376D01*
X129107626Y-97438701D01*
X128991674Y-97371755D01*
X128862345Y-97337102D01*
X128728455Y-97337102D01*
X128599125Y-97371755D01*
X128483174Y-97438701D01*
X128483171Y-97438703D01*
X128388501Y-97533373D01*
X128388499Y-97533376D01*
X128321553Y-97649327D01*
X128321553Y-97649328D01*
X128286900Y-97778657D01*
X128053900Y-97778657D01*
X128019247Y-97649328D01*
X127952301Y-97533376D01*
X127857626Y-97438701D01*
X127741674Y-97371755D01*
X127612345Y-97337102D01*
X127478455Y-97337102D01*
X127349125Y-97371755D01*
X127233174Y-97438701D01*
X127233171Y-97438703D01*
X127138501Y-97533373D01*
X127138499Y-97533376D01*
X127071553Y-97649327D01*
X127071553Y-97649328D01*
X127036900Y-97778657D01*
X126753900Y-97778657D01*
X126719247Y-97649328D01*
X126652301Y-97533376D01*
X126557626Y-97438701D01*
X126441674Y-97371755D01*
X126312345Y-97337102D01*
X126178455Y-97337102D01*
X126049125Y-97371755D01*
X125933174Y-97438701D01*
X125933171Y-97438703D01*
X125838501Y-97533373D01*
X125838499Y-97533376D01*
X125771553Y-97649327D01*
X125771553Y-97649328D01*
X125736900Y-97778657D01*
X124669391Y-97778657D01*
X124593911Y-97703177D01*
X124593907Y-97703174D01*
X124489828Y-97633630D01*
X124489815Y-97633623D01*
X124374173Y-97585723D01*
X124374161Y-97585720D01*
X124251395Y-97561300D01*
X124251391Y-97561300D01*
X124126209Y-97561300D01*
X124126204Y-97561300D01*
X124003438Y-97585720D01*
X124003426Y-97585723D01*
X123887784Y-97633623D01*
X123887771Y-97633630D01*
X123783692Y-97703174D01*
X123783688Y-97703177D01*
X123695177Y-97791688D01*
X123695174Y-97791692D01*
X123625630Y-97895771D01*
X123625623Y-97895784D01*
X123577723Y-98011426D01*
X123577720Y-98011438D01*
X123553300Y-98134204D01*
X119875394Y-98134204D01*
X119849730Y-98042606D01*
X119795246Y-97917171D01*
X119742987Y-97796858D01*
X119614592Y-97585723D01*
X119603774Y-97567933D01*
X119603771Y-97567929D01*
X119603769Y-97567926D01*
X119434693Y-97360103D01*
X119434691Y-97360101D01*
X119434687Y-97360096D01*
X119238874Y-97177220D01*
X119238871Y-97177218D01*
X119238867Y-97177214D01*
X119019990Y-97022714D01*
X119019984Y-97022710D01*
X118782088Y-96899443D01*
X118529637Y-96809721D01*
X118529634Y-96809720D01*
X118365043Y-96775518D01*
X118267305Y-96755208D01*
X118267303Y-96755207D01*
X118267299Y-96755207D01*
X118000000Y-96736924D01*
X117732700Y-96755207D01*
X117470365Y-96809720D01*
X117470362Y-96809721D01*
X117217911Y-96899443D01*
X116980015Y-97022710D01*
X116980009Y-97022714D01*
X116761132Y-97177214D01*
X116565306Y-97360103D01*
X116396230Y-97567926D01*
X116396223Y-97567937D01*
X116257012Y-97796858D01*
X116150270Y-98042604D01*
X116077985Y-98300593D01*
X116077984Y-98300600D01*
X116041500Y-98566034D01*
X116041500Y-99367500D01*
X116021815Y-99434539D01*
X115969011Y-99480294D01*
X115917500Y-99491500D01*
X101261989Y-99491500D01*
X101194950Y-99471815D01*
X101174308Y-99455181D01*
X100544819Y-98825691D01*
X100511334Y-98764368D01*
X100508500Y-98738010D01*
X100508500Y-96402655D01*
X112250300Y-96402655D01*
X112250300Y-96536545D01*
X112284953Y-96665874D01*
X112351899Y-96781826D01*
X112446574Y-96876501D01*
X112562526Y-96943447D01*
X112691855Y-96978100D01*
X112691857Y-96978100D01*
X112825743Y-96978100D01*
X112825745Y-96978100D01*
X112955074Y-96943447D01*
X113071026Y-96876501D01*
X113165701Y-96781826D01*
X113232647Y-96665874D01*
X113267300Y-96536545D01*
X113267300Y-96532252D01*
X113268324Y-96528763D01*
X113268361Y-96528485D01*
X113268404Y-96528490D01*
X113286985Y-96465213D01*
X113339789Y-96419458D01*
X113359200Y-96412479D01*
X113463074Y-96384647D01*
X113579026Y-96317701D01*
X113673701Y-96223026D01*
X113740647Y-96107074D01*
X113775300Y-95977745D01*
X113775300Y-95966271D01*
X113794985Y-95899232D01*
X113847789Y-95853477D01*
X113867199Y-95846498D01*
X113944274Y-95825847D01*
X114060226Y-95758901D01*
X114154901Y-95664226D01*
X114221847Y-95548274D01*
X114256500Y-95418945D01*
X114256500Y-95401469D01*
X114276185Y-95334430D01*
X114328989Y-95288675D01*
X114348403Y-95281695D01*
X114403074Y-95267047D01*
X114519026Y-95200101D01*
X114613701Y-95105426D01*
X114680647Y-94989474D01*
X114715300Y-94860145D01*
X114715300Y-94842669D01*
X114734985Y-94775630D01*
X114787789Y-94729875D01*
X114807203Y-94722895D01*
X114861874Y-94708247D01*
X114977826Y-94641301D01*
X115072501Y-94546626D01*
X115139447Y-94430674D01*
X115174100Y-94301345D01*
X115174100Y-94301342D01*
X115174906Y-94298334D01*
X115211270Y-94238673D01*
X115262589Y-94210651D01*
X115296274Y-94201626D01*
X115412226Y-94134680D01*
X115506901Y-94040005D01*
X115573847Y-93924053D01*
X115608500Y-93794724D01*
X115608500Y-93660834D01*
X115573847Y-93531505D01*
X115573443Y-93530806D01*
X115572202Y-93528657D01*
X124486900Y-93528657D01*
X124486900Y-93662547D01*
X124521553Y-93791876D01*
X124588499Y-93907828D01*
X124683174Y-94002503D01*
X124799126Y-94069449D01*
X124928455Y-94104102D01*
X124928457Y-94104102D01*
X125062343Y-94104102D01*
X125062345Y-94104102D01*
X125191674Y-94069449D01*
X125307626Y-94002503D01*
X125402301Y-93907828D01*
X125469247Y-93791876D01*
X125503900Y-93662547D01*
X125503900Y-93578657D01*
X125736900Y-93578657D01*
X125736900Y-93712547D01*
X125738926Y-93720108D01*
X125738926Y-93720109D01*
X125767701Y-93827499D01*
X125771553Y-93841876D01*
X125838499Y-93957828D01*
X125933174Y-94052503D01*
X126049126Y-94119449D01*
X126178455Y-94154102D01*
X126178457Y-94154102D01*
X126312343Y-94154102D01*
X126312345Y-94154102D01*
X126441674Y-94119449D01*
X126557626Y-94052503D01*
X126652301Y-93957828D01*
X126719247Y-93841876D01*
X126753900Y-93712547D01*
X126753900Y-93578657D01*
X126740503Y-93528657D01*
X127036900Y-93528657D01*
X127036900Y-93662547D01*
X127071553Y-93791876D01*
X127138499Y-93907828D01*
X127233174Y-94002503D01*
X127349126Y-94069449D01*
X127478455Y-94104102D01*
X127478457Y-94104102D01*
X127612343Y-94104102D01*
X127612345Y-94104102D01*
X127741674Y-94069449D01*
X127857626Y-94002503D01*
X127952301Y-93907828D01*
X128019247Y-93791876D01*
X128053900Y-93662547D01*
X128053900Y-93528657D01*
X128019247Y-93399328D01*
X127952301Y-93283376D01*
X127857626Y-93188701D01*
X127741674Y-93121755D01*
X127612345Y-93087102D01*
X127478455Y-93087102D01*
X127349125Y-93121755D01*
X127233174Y-93188701D01*
X127233171Y-93188703D01*
X127138501Y-93283373D01*
X127138499Y-93283376D01*
X127071553Y-93399327D01*
X127047514Y-93489044D01*
X127036900Y-93528657D01*
X126740503Y-93528657D01*
X126719247Y-93449328D01*
X126652301Y-93333376D01*
X126557626Y-93238701D01*
X126441674Y-93171755D01*
X126312345Y-93137102D01*
X126178455Y-93137102D01*
X126049125Y-93171755D01*
X125933174Y-93238701D01*
X125933171Y-93238703D01*
X125838501Y-93333373D01*
X125838499Y-93333376D01*
X125771553Y-93449327D01*
X125750297Y-93528659D01*
X125736900Y-93578657D01*
X125503900Y-93578657D01*
X125503900Y-93528657D01*
X125469247Y-93399328D01*
X125402301Y-93283376D01*
X125307626Y-93188701D01*
X125191674Y-93121755D01*
X125062345Y-93087102D01*
X124928455Y-93087102D01*
X124799125Y-93121755D01*
X124683174Y-93188701D01*
X124683171Y-93188703D01*
X124588501Y-93283373D01*
X124588499Y-93283376D01*
X124521553Y-93399327D01*
X124497514Y-93489044D01*
X124486900Y-93528657D01*
X115572202Y-93528657D01*
X115564876Y-93515967D01*
X115506901Y-93415553D01*
X115412226Y-93320878D01*
X115296274Y-93253932D01*
X115166945Y-93219279D01*
X115033055Y-93219279D01*
X114903725Y-93253932D01*
X114787774Y-93320878D01*
X114787771Y-93320880D01*
X114693101Y-93415550D01*
X114693099Y-93415553D01*
X114626557Y-93530806D01*
X114626153Y-93531505D01*
X114601501Y-93623508D01*
X114590693Y-93663846D01*
X114554328Y-93723506D01*
X114503013Y-93751526D01*
X114469327Y-93760552D01*
X114469326Y-93760552D01*
X114353374Y-93827499D01*
X114353371Y-93827501D01*
X114258701Y-93922171D01*
X114258699Y-93922174D01*
X114191753Y-94038125D01*
X114157100Y-94167455D01*
X114157100Y-94184930D01*
X114137415Y-94251969D01*
X114084611Y-94297724D01*
X114065194Y-94304705D01*
X114010524Y-94319353D01*
X113894574Y-94386299D01*
X113894571Y-94386301D01*
X113799901Y-94480971D01*
X113799899Y-94480974D01*
X113732953Y-94596925D01*
X113698300Y-94726255D01*
X113698300Y-94743730D01*
X113678615Y-94810769D01*
X113625811Y-94856524D01*
X113606394Y-94863505D01*
X113551724Y-94878153D01*
X113435774Y-94945099D01*
X113435771Y-94945101D01*
X113341101Y-95039771D01*
X113341099Y-95039774D01*
X113274153Y-95155725D01*
X113239500Y-95285055D01*
X113239500Y-95296528D01*
X113219815Y-95363567D01*
X113167011Y-95409322D01*
X113147593Y-95416303D01*
X113070526Y-95436953D01*
X113070524Y-95436953D01*
X113070524Y-95436954D01*
X112954574Y-95503899D01*
X112954571Y-95503901D01*
X112859901Y-95598571D01*
X112859899Y-95598574D01*
X112792953Y-95714525D01*
X112758300Y-95843855D01*
X112758300Y-95848147D01*
X112757275Y-95851634D01*
X112757239Y-95851915D01*
X112757195Y-95851909D01*
X112738615Y-95915186D01*
X112685811Y-95960941D01*
X112666394Y-95967922D01*
X112642848Y-95974231D01*
X112562526Y-95995753D01*
X112562524Y-95995753D01*
X112562524Y-95995754D01*
X112446574Y-96062699D01*
X112446571Y-96062701D01*
X112351901Y-96157371D01*
X112351899Y-96157374D01*
X112284953Y-96273325D01*
X112284953Y-96273326D01*
X112250300Y-96402655D01*
X100508500Y-96402655D01*
X100508500Y-95307404D01*
X103304500Y-95307404D01*
X103304500Y-95432595D01*
X103328920Y-95555361D01*
X103328923Y-95555373D01*
X103376823Y-95671015D01*
X103376830Y-95671028D01*
X103446374Y-95775107D01*
X103446377Y-95775111D01*
X103534888Y-95863622D01*
X103534892Y-95863625D01*
X103638971Y-95933169D01*
X103638984Y-95933176D01*
X103746582Y-95977744D01*
X103754631Y-95981078D01*
X103877404Y-96005499D01*
X103877408Y-96005500D01*
X103877409Y-96005500D01*
X104002592Y-96005500D01*
X104002593Y-96005499D01*
X104125369Y-95981078D01*
X104241022Y-95933173D01*
X104345108Y-95863625D01*
X104433625Y-95775108D01*
X104503173Y-95671022D01*
X104551078Y-95555369D01*
X104575500Y-95432591D01*
X104575500Y-95307409D01*
X104551078Y-95184631D01*
X104518271Y-95105428D01*
X104503176Y-95068984D01*
X104503169Y-95068971D01*
X104433625Y-94964892D01*
X104433622Y-94964888D01*
X104345111Y-94876377D01*
X104345107Y-94876374D01*
X104241028Y-94806830D01*
X104241015Y-94806823D01*
X104125373Y-94758923D01*
X104125361Y-94758920D01*
X104002595Y-94734500D01*
X104002591Y-94734500D01*
X103877409Y-94734500D01*
X103877404Y-94734500D01*
X103754638Y-94758920D01*
X103754626Y-94758923D01*
X103638984Y-94806823D01*
X103638971Y-94806830D01*
X103534892Y-94876374D01*
X103534888Y-94876377D01*
X103446377Y-94964888D01*
X103446374Y-94964892D01*
X103376830Y-95068971D01*
X103376823Y-95068984D01*
X103328923Y-95184626D01*
X103328920Y-95184638D01*
X103304500Y-95307404D01*
X100508500Y-95307404D01*
X100508500Y-84127455D01*
X101279960Y-84127455D01*
X101279960Y-84261345D01*
X101283692Y-84275274D01*
X101314613Y-84390675D01*
X101362440Y-84473511D01*
X101378913Y-84541411D01*
X101378161Y-84549813D01*
X101378161Y-84550417D01*
X101378161Y-84655883D01*
X101405458Y-84757756D01*
X101405459Y-84757757D01*
X101407562Y-84765606D01*
X101404789Y-84766349D01*
X101410763Y-84822048D01*
X101407168Y-84834288D01*
X101407562Y-84834394D01*
X101405459Y-84842242D01*
X101405458Y-84842244D01*
X101378161Y-84944117D01*
X101378161Y-84944119D01*
X101378161Y-85054832D01*
X101361548Y-85116832D01*
X101314614Y-85198122D01*
X101314614Y-85198123D01*
X101314614Y-85198124D01*
X101314613Y-85198126D01*
X101279960Y-85327455D01*
X101279960Y-85461345D01*
X101314613Y-85590674D01*
X101381559Y-85706626D01*
X101476234Y-85801301D01*
X101592186Y-85868247D01*
X101615992Y-85874625D01*
X101675651Y-85910990D01*
X101706180Y-85973837D01*
X101697885Y-86043213D01*
X101653400Y-86097091D01*
X101615993Y-86114173D01*
X101592186Y-86120553D01*
X101592184Y-86120553D01*
X101592184Y-86120554D01*
X101476234Y-86187499D01*
X101476231Y-86187501D01*
X101381561Y-86282171D01*
X101381559Y-86282174D01*
X101314613Y-86398125D01*
X101283150Y-86515551D01*
X101279960Y-86527455D01*
X101279960Y-86661345D01*
X101311216Y-86777997D01*
X101314614Y-86790676D01*
X101314614Y-86790677D01*
X101354965Y-86860566D01*
X101371438Y-86928466D01*
X101369277Y-86942325D01*
X101369551Y-86942361D01*
X101368490Y-86950415D01*
X101368490Y-86950417D01*
X101368490Y-87055883D01*
X101395787Y-87157756D01*
X101395788Y-87157757D01*
X101397891Y-87165606D01*
X101395118Y-87166349D01*
X101401092Y-87222048D01*
X101397497Y-87234288D01*
X101397891Y-87234394D01*
X101395788Y-87242242D01*
X101395787Y-87242244D01*
X101368490Y-87344117D01*
X101368490Y-87344119D01*
X101368490Y-87449585D01*
X101368916Y-87452822D01*
X101368490Y-87455553D01*
X101368490Y-87457710D01*
X101368154Y-87457710D01*
X101358150Y-87521857D01*
X101353364Y-87531006D01*
X101314614Y-87598122D01*
X101314614Y-87598123D01*
X101314613Y-87598125D01*
X101314613Y-87598126D01*
X101279960Y-87727455D01*
X101279960Y-87861345D01*
X101314613Y-87990674D01*
X101381559Y-88106626D01*
X101476234Y-88201301D01*
X101592186Y-88268247D01*
X101615992Y-88274625D01*
X101675651Y-88310990D01*
X101706180Y-88373837D01*
X101697885Y-88443213D01*
X101653400Y-88497091D01*
X101615993Y-88514173D01*
X101592186Y-88520553D01*
X101592184Y-88520553D01*
X101592184Y-88520554D01*
X101476234Y-88587499D01*
X101476231Y-88587501D01*
X101381561Y-88682171D01*
X101381559Y-88682174D01*
X101314613Y-88798125D01*
X101282988Y-88916153D01*
X101279960Y-88927455D01*
X101279960Y-89061345D01*
X101311216Y-89177997D01*
X101314614Y-89190676D01*
X101314615Y-89190679D01*
X101367848Y-89282879D01*
X101384462Y-89344880D01*
X101384462Y-89350417D01*
X101384462Y-89455883D01*
X101411759Y-89557756D01*
X101411760Y-89557757D01*
X101413863Y-89565606D01*
X101411346Y-89566280D01*
X101417813Y-89617404D01*
X101415115Y-89636429D01*
X101411759Y-89642244D01*
X101384462Y-89744117D01*
X101384462Y-89849583D01*
X101384747Y-89850650D01*
X101383235Y-89861323D01*
X101374857Y-89879762D01*
X101367849Y-89905920D01*
X101314613Y-89998124D01*
X101282028Y-90119736D01*
X101279960Y-90127455D01*
X101279960Y-90261345D01*
X101313835Y-90387771D01*
X101314614Y-90390676D01*
X101314614Y-90390677D01*
X101347703Y-90447988D01*
X101364176Y-90515888D01*
X101360093Y-90542074D01*
X101357858Y-90550415D01*
X101357858Y-90550417D01*
X101357858Y-90655883D01*
X101385155Y-90757756D01*
X101385156Y-90757757D01*
X101387259Y-90765606D01*
X101384486Y-90766349D01*
X101390460Y-90822048D01*
X101386865Y-90834288D01*
X101387259Y-90834394D01*
X101385156Y-90842242D01*
X101385155Y-90842244D01*
X101357858Y-90944117D01*
X101357858Y-90944119D01*
X101357858Y-91049581D01*
X101357859Y-91049589D01*
X101358044Y-91050280D01*
X101358029Y-91050883D01*
X101358919Y-91057639D01*
X101357864Y-91057777D01*
X101356374Y-91120130D01*
X101345654Y-91144360D01*
X101314613Y-91198123D01*
X101284040Y-91312228D01*
X101279960Y-91327455D01*
X101279960Y-91461345D01*
X101314613Y-91590674D01*
X101381559Y-91706626D01*
X101476234Y-91801301D01*
X101592186Y-91868247D01*
X101721515Y-91902900D01*
X101721517Y-91902900D01*
X101855403Y-91902900D01*
X101855405Y-91902900D01*
X101984734Y-91868247D01*
X102100686Y-91801301D01*
X102195361Y-91706626D01*
X102262307Y-91590674D01*
X102296960Y-91461345D01*
X102296960Y-91327455D01*
X102262307Y-91198126D01*
X102195361Y-91082174D01*
X102195277Y-91082090D01*
X102195230Y-91082004D01*
X102190414Y-91075728D01*
X102191392Y-91074976D01*
X102161792Y-91020767D01*
X102160874Y-91016124D01*
X102158958Y-91005351D01*
X102158958Y-90944117D01*
X102131661Y-90842244D01*
X102129183Y-90837952D01*
X102126295Y-90821715D01*
X102128699Y-90799858D01*
X102126347Y-90777997D01*
X102129953Y-90765712D01*
X102129557Y-90765606D01*
X102131659Y-90757757D01*
X102131661Y-90757756D01*
X102158958Y-90655883D01*
X102158958Y-90594390D01*
X102178643Y-90527351D01*
X102195275Y-90506711D01*
X102195361Y-90506626D01*
X102262307Y-90390674D01*
X102296960Y-90261345D01*
X102296960Y-90127455D01*
X102288470Y-90095770D01*
X103908314Y-90095770D01*
X103908314Y-90229660D01*
X103916803Y-90261343D01*
X103942968Y-90358991D01*
X103942969Y-90358994D01*
X104008738Y-90472906D01*
X104023712Y-90514805D01*
X104025352Y-90524787D01*
X104025352Y-90601262D01*
X104052649Y-90703135D01*
X104055449Y-90707985D01*
X104058290Y-90725277D01*
X104055691Y-90746334D01*
X104057954Y-90767427D01*
X104054359Y-90779667D01*
X104054753Y-90779773D01*
X104052650Y-90787621D01*
X104052649Y-90787623D01*
X104025352Y-90889496D01*
X104025352Y-90994962D01*
X104026500Y-90999249D01*
X104026411Y-91003006D01*
X104026413Y-91003018D01*
X104026411Y-91003018D01*
X104024836Y-91069098D01*
X104014112Y-91093340D01*
X103956153Y-91193724D01*
X103924402Y-91312225D01*
X103921500Y-91323055D01*
X103921500Y-91456945D01*
X103956153Y-91586274D01*
X104023099Y-91702226D01*
X104117774Y-91796901D01*
X104233726Y-91863847D01*
X104363055Y-91898500D01*
X104363057Y-91898500D01*
X104496943Y-91898500D01*
X104496945Y-91898500D01*
X104626274Y-91863847D01*
X104742226Y-91796901D01*
X104836901Y-91702226D01*
X104903847Y-91586274D01*
X104938500Y-91456945D01*
X104938500Y-91323055D01*
X104919744Y-91253055D01*
X106891500Y-91253055D01*
X106891500Y-91386945D01*
X106921290Y-91498126D01*
X106926154Y-91516276D01*
X106926155Y-91516279D01*
X106982836Y-91614451D01*
X106998077Y-91658048D01*
X106999450Y-91667196D01*
X106999450Y-91762733D01*
X107026747Y-91864606D01*
X107029895Y-91870059D01*
X107032655Y-91888446D01*
X107029878Y-91908636D01*
X107032052Y-91928898D01*
X107028457Y-91941138D01*
X107028851Y-91941244D01*
X107026748Y-91949092D01*
X107026747Y-91949094D01*
X106999450Y-92050967D01*
X106999450Y-92050969D01*
X106999450Y-92150397D01*
X106982837Y-92212398D01*
X106926153Y-92310574D01*
X106924446Y-92316945D01*
X106891500Y-92439905D01*
X106891500Y-92573795D01*
X106899080Y-92602086D01*
X106926154Y-92703126D01*
X106926155Y-92703129D01*
X106992836Y-92818621D01*
X107007987Y-92861628D01*
X107009450Y-92871066D01*
X107009450Y-92959583D01*
X107036747Y-93061456D01*
X107039773Y-93066698D01*
X107042565Y-93084706D01*
X107039847Y-93105197D01*
X107042052Y-93125748D01*
X107038457Y-93137988D01*
X107038851Y-93138094D01*
X107036748Y-93145942D01*
X107036747Y-93145944D01*
X107009450Y-93247817D01*
X107009450Y-93247819D01*
X107009450Y-93343547D01*
X106992837Y-93405548D01*
X106936153Y-93503724D01*
X106916075Y-93578659D01*
X106901500Y-93633055D01*
X106901500Y-93766945D01*
X106936153Y-93896274D01*
X107003099Y-94012226D01*
X107097774Y-94106901D01*
X107213726Y-94173847D01*
X107343055Y-94208500D01*
X107343057Y-94208500D01*
X107476943Y-94208500D01*
X107476945Y-94208500D01*
X107606274Y-94173847D01*
X107722226Y-94106901D01*
X107816901Y-94012226D01*
X107883847Y-93896274D01*
X107918500Y-93766945D01*
X107918500Y-93633055D01*
X107883847Y-93503726D01*
X107844287Y-93435208D01*
X107827163Y-93405548D01*
X107811819Y-93361241D01*
X107810550Y-93352438D01*
X107810550Y-93247817D01*
X107783253Y-93145944D01*
X107779956Y-93140233D01*
X107777240Y-93121394D01*
X107780079Y-93101589D01*
X107777939Y-93081697D01*
X107781545Y-93069412D01*
X107781149Y-93069306D01*
X107783251Y-93061457D01*
X107783253Y-93061456D01*
X107810550Y-92959583D01*
X107810550Y-92942040D01*
X128296900Y-92942040D01*
X128296900Y-93075930D01*
X128331553Y-93205259D01*
X128398499Y-93321211D01*
X128493174Y-93415886D01*
X128609126Y-93482832D01*
X128738455Y-93517485D01*
X128738457Y-93517485D01*
X128872343Y-93517485D01*
X128872345Y-93517485D01*
X129001674Y-93482832D01*
X129061119Y-93448510D01*
X129129014Y-93432038D01*
X129185118Y-93448512D01*
X129255320Y-93489044D01*
X129255321Y-93489044D01*
X129255326Y-93489047D01*
X129384655Y-93523700D01*
X129384657Y-93523700D01*
X129514837Y-93523700D01*
X129581876Y-93543385D01*
X129627631Y-93596189D01*
X129636454Y-93623508D01*
X129648320Y-93683163D01*
X129648323Y-93683173D01*
X129696223Y-93798815D01*
X129696230Y-93798828D01*
X129765774Y-93902907D01*
X129765777Y-93902911D01*
X129854288Y-93991422D01*
X129854292Y-93991425D01*
X129958371Y-94060969D01*
X129958384Y-94060976D01*
X130069258Y-94106901D01*
X130074031Y-94108878D01*
X130196804Y-94133299D01*
X130196808Y-94133300D01*
X130196809Y-94133300D01*
X130321992Y-94133300D01*
X130321993Y-94133299D01*
X130444769Y-94108878D01*
X130560422Y-94060973D01*
X130664508Y-93991425D01*
X130753025Y-93902908D01*
X130822573Y-93798822D01*
X130824271Y-93794724D01*
X130835778Y-93766943D01*
X130870478Y-93683169D01*
X130894900Y-93560391D01*
X130894900Y-93435209D01*
X130870478Y-93312431D01*
X130839938Y-93238701D01*
X130822576Y-93196784D01*
X130822569Y-93196771D01*
X130753025Y-93092692D01*
X130753022Y-93092688D01*
X130664511Y-93004177D01*
X130664507Y-93004174D01*
X130560428Y-92934630D01*
X130560415Y-92934623D01*
X130444773Y-92886723D01*
X130444761Y-92886720D01*
X130321995Y-92862300D01*
X130321991Y-92862300D01*
X130196809Y-92862300D01*
X130196804Y-92862300D01*
X130068056Y-92887910D01*
X130067802Y-92886634D01*
X130004645Y-92887190D01*
X129945537Y-92849934D01*
X129930301Y-92825508D01*
X129929511Y-92825965D01*
X129921858Y-92812710D01*
X129858501Y-92702974D01*
X129763826Y-92608299D01*
X129647874Y-92541353D01*
X129518545Y-92506700D01*
X129384655Y-92506700D01*
X129255324Y-92541353D01*
X129195883Y-92575673D01*
X129127983Y-92592146D01*
X129071882Y-92575673D01*
X129001674Y-92535138D01*
X128872345Y-92500485D01*
X128738455Y-92500485D01*
X128609125Y-92535138D01*
X128493174Y-92602084D01*
X128493171Y-92602086D01*
X128398501Y-92696756D01*
X128398499Y-92696759D01*
X128331553Y-92812710D01*
X128321579Y-92849934D01*
X128296900Y-92942040D01*
X107810550Y-92942040D01*
X107810550Y-92854117D01*
X107810549Y-92854113D01*
X107810549Y-92845984D01*
X107817617Y-92821911D01*
X107820632Y-92797005D01*
X107827163Y-92783981D01*
X107841876Y-92758499D01*
X107873847Y-92703124D01*
X107908500Y-92573795D01*
X107908500Y-92439905D01*
X107873847Y-92310576D01*
X107831326Y-92236928D01*
X107817163Y-92212397D01*
X107809301Y-92183055D01*
X120341500Y-92183055D01*
X120341500Y-92316945D01*
X120376153Y-92446274D01*
X120443099Y-92562226D01*
X120537774Y-92656901D01*
X120653726Y-92723847D01*
X120783055Y-92758500D01*
X120783057Y-92758500D01*
X120916943Y-92758500D01*
X120916945Y-92758500D01*
X121046274Y-92723847D01*
X121162226Y-92656901D01*
X121256901Y-92562226D01*
X121323847Y-92446274D01*
X121358500Y-92316945D01*
X121358500Y-92183055D01*
X121323847Y-92053726D01*
X121256901Y-91937774D01*
X121162226Y-91843099D01*
X121046274Y-91776153D01*
X120916945Y-91741500D01*
X120783055Y-91741500D01*
X120653725Y-91776153D01*
X120537774Y-91843099D01*
X120537771Y-91843101D01*
X120443101Y-91937771D01*
X120443099Y-91937774D01*
X120376153Y-92053725D01*
X120348633Y-92156433D01*
X120341500Y-92183055D01*
X107809301Y-92183055D01*
X107800550Y-92150397D01*
X107800550Y-92050969D01*
X107800550Y-92050967D01*
X107773253Y-91949094D01*
X107773251Y-91949092D01*
X107771149Y-91941244D01*
X107773728Y-91940552D01*
X107767344Y-91888446D01*
X107770103Y-91870061D01*
X107773253Y-91864606D01*
X107800550Y-91762733D01*
X107800550Y-91667195D01*
X107801923Y-91658047D01*
X107810341Y-91639910D01*
X107813678Y-91627455D01*
X122191500Y-91627455D01*
X122191500Y-91761345D01*
X122226153Y-91890674D01*
X122293099Y-92006626D01*
X122387774Y-92101301D01*
X122503726Y-92168247D01*
X122633055Y-92202900D01*
X122633057Y-92202900D01*
X122766943Y-92202900D01*
X122766945Y-92202900D01*
X122896274Y-92168247D01*
X123012226Y-92101301D01*
X123106901Y-92006626D01*
X123173847Y-91890674D01*
X123208500Y-91761345D01*
X123208500Y-91627455D01*
X123173847Y-91498126D01*
X123106901Y-91382174D01*
X123012226Y-91287499D01*
X122896274Y-91220553D01*
X122766945Y-91185900D01*
X122633055Y-91185900D01*
X122503725Y-91220553D01*
X122387774Y-91287499D01*
X122387771Y-91287501D01*
X122293101Y-91382171D01*
X122293099Y-91382174D01*
X122226153Y-91498125D01*
X122218531Y-91526571D01*
X122191500Y-91627455D01*
X107813678Y-91627455D01*
X107817163Y-91614451D01*
X107873847Y-91516274D01*
X107908500Y-91386945D01*
X107908500Y-91253055D01*
X107873847Y-91123726D01*
X107806901Y-91007774D01*
X107712226Y-90913099D01*
X107596274Y-90846153D01*
X107466945Y-90811500D01*
X107333055Y-90811500D01*
X107203725Y-90846153D01*
X107087774Y-90913099D01*
X107087771Y-90913101D01*
X106993101Y-91007771D01*
X106993099Y-91007774D01*
X106926153Y-91123725D01*
X106895692Y-91237409D01*
X106891500Y-91253055D01*
X104919744Y-91253055D01*
X104903847Y-91193726D01*
X104836907Y-91077784D01*
X104834181Y-91071590D01*
X104830523Y-91043387D01*
X104823817Y-91015744D01*
X104825521Y-91004819D01*
X104825195Y-91002301D01*
X104825597Y-91001450D01*
X104826452Y-90994962D01*
X104826452Y-90889498D01*
X104826452Y-90889496D01*
X104799155Y-90787623D01*
X104799153Y-90787621D01*
X104797051Y-90779773D01*
X104799583Y-90779094D01*
X104793120Y-90727836D01*
X104795826Y-90708900D01*
X104799155Y-90703135D01*
X104826452Y-90601262D01*
X104826452Y-90495796D01*
X104826341Y-90495383D01*
X104827699Y-90485884D01*
X104836082Y-90467486D01*
X104843065Y-90441426D01*
X104854253Y-90422048D01*
X104890661Y-90358989D01*
X104925314Y-90229660D01*
X104925314Y-90110789D01*
X117049207Y-90110789D01*
X117049207Y-90244679D01*
X117083860Y-90374008D01*
X117150806Y-90489960D01*
X117245481Y-90584635D01*
X117361433Y-90651581D01*
X117485266Y-90684761D01*
X117544924Y-90721124D01*
X117572945Y-90772441D01*
X117606126Y-90896274D01*
X117673072Y-91012226D01*
X117767747Y-91106901D01*
X117883699Y-91173847D01*
X118013028Y-91208500D01*
X118013030Y-91208500D01*
X118146916Y-91208500D01*
X118146918Y-91208500D01*
X118276247Y-91173847D01*
X118392199Y-91106901D01*
X118486874Y-91012226D01*
X118522151Y-90951126D01*
X123935560Y-90951126D01*
X123935560Y-91085016D01*
X123970213Y-91214345D01*
X124037159Y-91330297D01*
X124131834Y-91424972D01*
X124247786Y-91491918D01*
X124377115Y-91526571D01*
X124377117Y-91526571D01*
X124511002Y-91526571D01*
X124511005Y-91526571D01*
X124618168Y-91497857D01*
X124688014Y-91499520D01*
X124745877Y-91538682D01*
X124764819Y-91570179D01*
X124777593Y-91601018D01*
X124777598Y-91601028D01*
X124847142Y-91705107D01*
X124847145Y-91705111D01*
X124935656Y-91793622D01*
X124935660Y-91793625D01*
X125039739Y-91863169D01*
X125039752Y-91863176D01*
X125149503Y-91908636D01*
X125155399Y-91911078D01*
X125278172Y-91935499D01*
X125278176Y-91935500D01*
X125278177Y-91935500D01*
X125403360Y-91935500D01*
X125403361Y-91935499D01*
X125526137Y-91911078D01*
X125629543Y-91868246D01*
X125641783Y-91863176D01*
X125641783Y-91863175D01*
X125641790Y-91863173D01*
X125745876Y-91793625D01*
X125834393Y-91705108D01*
X125903941Y-91601022D01*
X125943796Y-91504804D01*
X127871300Y-91504804D01*
X127871300Y-91629995D01*
X127895720Y-91752761D01*
X127895723Y-91752773D01*
X127943623Y-91868415D01*
X127943630Y-91868428D01*
X128013174Y-91972507D01*
X128013177Y-91972511D01*
X128101688Y-92061022D01*
X128101692Y-92061025D01*
X128205771Y-92130569D01*
X128205784Y-92130576D01*
X128296731Y-92168247D01*
X128321431Y-92178478D01*
X128402603Y-92194624D01*
X128444204Y-92202899D01*
X128444208Y-92202900D01*
X128444209Y-92202900D01*
X128569392Y-92202900D01*
X128569393Y-92202899D01*
X128692169Y-92178478D01*
X128807822Y-92130573D01*
X128911908Y-92061025D01*
X129000425Y-91972508D01*
X129069973Y-91868422D01*
X129070046Y-91868247D01*
X129097776Y-91801300D01*
X129117878Y-91752769D01*
X129142300Y-91629991D01*
X129142300Y-91504809D01*
X129117878Y-91382031D01*
X129093450Y-91323057D01*
X129069976Y-91266384D01*
X129069969Y-91266371D01*
X129000425Y-91162292D01*
X129000422Y-91162288D01*
X128911911Y-91073777D01*
X128911907Y-91073774D01*
X128807828Y-91004230D01*
X128807815Y-91004223D01*
X128692173Y-90956323D01*
X128692161Y-90956320D01*
X128569395Y-90931900D01*
X128569391Y-90931900D01*
X128444209Y-90931900D01*
X128444204Y-90931900D01*
X128321438Y-90956320D01*
X128321426Y-90956323D01*
X128205784Y-91004223D01*
X128205771Y-91004230D01*
X128101692Y-91073774D01*
X128101688Y-91073777D01*
X128013177Y-91162288D01*
X128013174Y-91162292D01*
X127943630Y-91266371D01*
X127943623Y-91266384D01*
X127895723Y-91382026D01*
X127895720Y-91382038D01*
X127871300Y-91504804D01*
X125943796Y-91504804D01*
X125951846Y-91485369D01*
X125976268Y-91362591D01*
X125976268Y-91237409D01*
X125951846Y-91114631D01*
X125938367Y-91082090D01*
X125903944Y-90998984D01*
X125903937Y-90998971D01*
X125834393Y-90894892D01*
X125834390Y-90894888D01*
X125745879Y-90806377D01*
X125745875Y-90806374D01*
X125641796Y-90736830D01*
X125641783Y-90736823D01*
X125526141Y-90688923D01*
X125526129Y-90688920D01*
X125403363Y-90664500D01*
X125403359Y-90664500D01*
X125278177Y-90664500D01*
X125278172Y-90664500D01*
X125155406Y-90688920D01*
X125155394Y-90688923D01*
X125039752Y-90736823D01*
X125039736Y-90736832D01*
X125026502Y-90745675D01*
X124959825Y-90766552D01*
X124892445Y-90748067D01*
X124856947Y-90711496D01*
X124855909Y-90712294D01*
X124850963Y-90705848D01*
X124850961Y-90705845D01*
X124756286Y-90611170D01*
X124640334Y-90544224D01*
X124511005Y-90509571D01*
X124377115Y-90509571D01*
X124247785Y-90544224D01*
X124131834Y-90611170D01*
X124131831Y-90611172D01*
X124037161Y-90705842D01*
X124037159Y-90705845D01*
X123970213Y-90821796D01*
X123940402Y-90933055D01*
X123935560Y-90951126D01*
X118522151Y-90951126D01*
X118553820Y-90896274D01*
X118588473Y-90766945D01*
X118588473Y-90633055D01*
X118553820Y-90503726D01*
X118486874Y-90387774D01*
X118392199Y-90293099D01*
X118276247Y-90226153D01*
X118152414Y-90192972D01*
X118092754Y-90156608D01*
X118064734Y-90105294D01*
X118031554Y-89981460D01*
X117964608Y-89865508D01*
X117869933Y-89770833D01*
X117753981Y-89703887D01*
X117624652Y-89669234D01*
X117490762Y-89669234D01*
X117361432Y-89703887D01*
X117245481Y-89770833D01*
X117245478Y-89770835D01*
X117150808Y-89865505D01*
X117150806Y-89865508D01*
X117083860Y-89981459D01*
X117079890Y-89996276D01*
X117049207Y-90110789D01*
X104925314Y-90110789D01*
X104925314Y-90095770D01*
X104890661Y-89966441D01*
X104823715Y-89850489D01*
X104729040Y-89755814D01*
X104613088Y-89688868D01*
X104483759Y-89654215D01*
X104349869Y-89654215D01*
X104220539Y-89688868D01*
X104104588Y-89755814D01*
X104104585Y-89755816D01*
X104009915Y-89850486D01*
X104009913Y-89850489D01*
X103942967Y-89966440D01*
X103942967Y-89966441D01*
X103908314Y-90095770D01*
X102288470Y-90095770D01*
X102262307Y-89998126D01*
X102202175Y-89893976D01*
X102186917Y-89850257D01*
X102185562Y-89841166D01*
X102185562Y-89744117D01*
X102158265Y-89642244D01*
X102155090Y-89636745D01*
X102152338Y-89618282D01*
X102155122Y-89598177D01*
X102152951Y-89577997D01*
X102156557Y-89565712D01*
X102156161Y-89565606D01*
X102158263Y-89557757D01*
X102158265Y-89557756D01*
X102185562Y-89455883D01*
X102185562Y-89356825D01*
X102202175Y-89294824D01*
X102226365Y-89252926D01*
X102262307Y-89190674D01*
X102296960Y-89061345D01*
X102296960Y-88927455D01*
X102262307Y-88798126D01*
X102195361Y-88682174D01*
X102100686Y-88587499D01*
X102025551Y-88544119D01*
X101984735Y-88520553D01*
X101975461Y-88518068D01*
X101960927Y-88514174D01*
X101901269Y-88477810D01*
X101870739Y-88414964D01*
X101879033Y-88345588D01*
X101923518Y-88291710D01*
X101960926Y-88274626D01*
X101984734Y-88268247D01*
X102100686Y-88201301D01*
X102195361Y-88106626D01*
X102262307Y-87990674D01*
X102296960Y-87861345D01*
X102296960Y-87727455D01*
X102679960Y-87727455D01*
X102679960Y-87861345D01*
X102714613Y-87990674D01*
X102781559Y-88106626D01*
X102781561Y-88106628D01*
X102781643Y-88106710D01*
X102781689Y-88106795D01*
X102786506Y-88113072D01*
X102785527Y-88113823D01*
X102815128Y-88168033D01*
X102816245Y-88173826D01*
X102817962Y-88184035D01*
X102817962Y-88255883D01*
X102845259Y-88357756D01*
X102847965Y-88362444D01*
X102850823Y-88379435D01*
X102848277Y-88400728D01*
X102850564Y-88422048D01*
X102846969Y-88434288D01*
X102847363Y-88434394D01*
X102845260Y-88442242D01*
X102845259Y-88442244D01*
X102817962Y-88544117D01*
X102817962Y-88544119D01*
X102817962Y-88594409D01*
X102798277Y-88661448D01*
X102781643Y-88682090D01*
X102781561Y-88682171D01*
X102781559Y-88682174D01*
X102714613Y-88798125D01*
X102682988Y-88916153D01*
X102679960Y-88927455D01*
X102679960Y-89061345D01*
X102714613Y-89190674D01*
X102781559Y-89306626D01*
X102876234Y-89401301D01*
X102992186Y-89468247D01*
X103121515Y-89502900D01*
X103121517Y-89502900D01*
X103255403Y-89502900D01*
X103255405Y-89502900D01*
X103384734Y-89468247D01*
X103500686Y-89401301D01*
X103595361Y-89306626D01*
X103662307Y-89190674D01*
X103696960Y-89061345D01*
X103696960Y-88933055D01*
X105191500Y-88933055D01*
X105191500Y-89066945D01*
X105226153Y-89196274D01*
X105293099Y-89312226D01*
X105387774Y-89406901D01*
X105503726Y-89473847D01*
X105633055Y-89508500D01*
X105633057Y-89508500D01*
X105766943Y-89508500D01*
X105766945Y-89508500D01*
X105896274Y-89473847D01*
X106012226Y-89406901D01*
X106096072Y-89323055D01*
X118571500Y-89323055D01*
X118571500Y-89456945D01*
X118606153Y-89586274D01*
X118673099Y-89702226D01*
X118767774Y-89796901D01*
X118883726Y-89863847D01*
X119013055Y-89898500D01*
X119013057Y-89898500D01*
X119146943Y-89898500D01*
X119146945Y-89898500D01*
X119276274Y-89863847D01*
X119392226Y-89796901D01*
X119486901Y-89702226D01*
X119553847Y-89586274D01*
X119588500Y-89456945D01*
X119588500Y-89323055D01*
X119553847Y-89193726D01*
X119486901Y-89077774D01*
X119392226Y-88983099D01*
X119276274Y-88916153D01*
X119146945Y-88881500D01*
X119013055Y-88881500D01*
X118883725Y-88916153D01*
X118767774Y-88983099D01*
X118767771Y-88983101D01*
X118673101Y-89077771D01*
X118673099Y-89077774D01*
X118606153Y-89193725D01*
X118574403Y-89312222D01*
X118571500Y-89323055D01*
X106096072Y-89323055D01*
X106106901Y-89312226D01*
X106140677Y-89253726D01*
X106141139Y-89252926D01*
X106169263Y-89204213D01*
X106173847Y-89196274D01*
X106208500Y-89066945D01*
X106208500Y-88933055D01*
X106173847Y-88803726D01*
X106106901Y-88687774D01*
X106012226Y-88593099D01*
X105896274Y-88526153D01*
X105766945Y-88491500D01*
X105633055Y-88491500D01*
X105503725Y-88526153D01*
X105387774Y-88593099D01*
X105387771Y-88593101D01*
X105293101Y-88687771D01*
X105293099Y-88687774D01*
X105226153Y-88803725D01*
X105205314Y-88881500D01*
X105191500Y-88933055D01*
X103696960Y-88933055D01*
X103696960Y-88927455D01*
X103662307Y-88798126D01*
X103662305Y-88798122D01*
X103631266Y-88744361D01*
X103614793Y-88676461D01*
X103618877Y-88650270D01*
X103619062Y-88649583D01*
X103619062Y-88544117D01*
X103591765Y-88442244D01*
X103591763Y-88442242D01*
X103589661Y-88434394D01*
X103592440Y-88433649D01*
X103586451Y-88377997D01*
X103590057Y-88365712D01*
X103589661Y-88365606D01*
X103591763Y-88357757D01*
X103591765Y-88357756D01*
X103619062Y-88255883D01*
X103619062Y-88150417D01*
X103616829Y-88142083D01*
X103618488Y-88072237D01*
X103629214Y-88047990D01*
X103662307Y-87990674D01*
X103696960Y-87861345D01*
X103696960Y-87727455D01*
X103662307Y-87598126D01*
X103595361Y-87482174D01*
X103500686Y-87387499D01*
X103406388Y-87333055D01*
X105191500Y-87333055D01*
X105191500Y-87466945D01*
X105226153Y-87596274D01*
X105293099Y-87712226D01*
X105387774Y-87806901D01*
X105503726Y-87873847D01*
X105633055Y-87908500D01*
X105633057Y-87908500D01*
X105766943Y-87908500D01*
X105766945Y-87908500D01*
X105896274Y-87873847D01*
X105896280Y-87873843D01*
X105902545Y-87871249D01*
X105972014Y-87863779D01*
X105997455Y-87871249D01*
X106003722Y-87873844D01*
X106003726Y-87873847D01*
X106133055Y-87908500D01*
X106133057Y-87908500D01*
X106266943Y-87908500D01*
X106266945Y-87908500D01*
X106396274Y-87873847D01*
X106396280Y-87873843D01*
X106402545Y-87871249D01*
X106472014Y-87863779D01*
X106497455Y-87871249D01*
X106503722Y-87873844D01*
X106503726Y-87873847D01*
X106633055Y-87908500D01*
X106633057Y-87908500D01*
X106766943Y-87908500D01*
X106766945Y-87908500D01*
X106896274Y-87873847D01*
X107012226Y-87806901D01*
X107106901Y-87712226D01*
X107173847Y-87596274D01*
X107208500Y-87466945D01*
X107208500Y-87333055D01*
X107173847Y-87203726D01*
X107106901Y-87087774D01*
X107012226Y-86993099D01*
X106896274Y-86926153D01*
X106766945Y-86891500D01*
X106633055Y-86891500D01*
X106503722Y-86926154D01*
X106497448Y-86928753D01*
X106427978Y-86936219D01*
X106402552Y-86928753D01*
X106396277Y-86926154D01*
X106396274Y-86926153D01*
X106266945Y-86891500D01*
X106133055Y-86891500D01*
X106003722Y-86926154D01*
X105997448Y-86928753D01*
X105927978Y-86936219D01*
X105902552Y-86928753D01*
X105896277Y-86926154D01*
X105896274Y-86926153D01*
X105766945Y-86891500D01*
X105633055Y-86891500D01*
X105503725Y-86926153D01*
X105387774Y-86993099D01*
X105387771Y-86993101D01*
X105293101Y-87087771D01*
X105293099Y-87087774D01*
X105226153Y-87203725D01*
X105215832Y-87242244D01*
X105191500Y-87333055D01*
X103406388Y-87333055D01*
X103384734Y-87320553D01*
X103255405Y-87285900D01*
X103121515Y-87285900D01*
X102992185Y-87320553D01*
X102876234Y-87387499D01*
X102876231Y-87387501D01*
X102781561Y-87482171D01*
X102781559Y-87482174D01*
X102714613Y-87598125D01*
X102684040Y-87712228D01*
X102679960Y-87727455D01*
X102296960Y-87727455D01*
X102262307Y-87598126D01*
X102195361Y-87482174D01*
X102195358Y-87482171D01*
X102195212Y-87481980D01*
X102195100Y-87481724D01*
X102191297Y-87475136D01*
X102192047Y-87474702D01*
X102171293Y-87426975D01*
X102169590Y-87416805D01*
X102169590Y-87344117D01*
X102142293Y-87242244D01*
X102139568Y-87237525D01*
X102136714Y-87220479D01*
X102139266Y-87199253D01*
X102136979Y-87177997D01*
X102140585Y-87165712D01*
X102140189Y-87165606D01*
X102142291Y-87157757D01*
X102142293Y-87157756D01*
X102169590Y-87055883D01*
X102169590Y-86982304D01*
X102189275Y-86915265D01*
X102195218Y-86906813D01*
X102195359Y-86906628D01*
X102195359Y-86906627D01*
X102195361Y-86906626D01*
X102262307Y-86790674D01*
X102296960Y-86661345D01*
X102296960Y-86527455D01*
X102262307Y-86398126D01*
X102195361Y-86282174D01*
X102100686Y-86187499D01*
X102042710Y-86154026D01*
X101984735Y-86120553D01*
X101975461Y-86118068D01*
X101960927Y-86114174D01*
X101901269Y-86077810D01*
X101870739Y-86014964D01*
X101879033Y-85945588D01*
X101923518Y-85891710D01*
X101960926Y-85874626D01*
X101984734Y-85868247D01*
X102100686Y-85801301D01*
X102168932Y-85733055D01*
X105191500Y-85733055D01*
X105191500Y-85866945D01*
X105226153Y-85996274D01*
X105293099Y-86112226D01*
X105387774Y-86206901D01*
X105503726Y-86273847D01*
X105633055Y-86308500D01*
X105633057Y-86308500D01*
X105766943Y-86308500D01*
X105766945Y-86308500D01*
X105896274Y-86273847D01*
X106012226Y-86206901D01*
X106062319Y-86156808D01*
X106123642Y-86123323D01*
X106193334Y-86128307D01*
X106237681Y-86156808D01*
X106287774Y-86206901D01*
X106403726Y-86273847D01*
X106533055Y-86308500D01*
X106533057Y-86308500D01*
X106666943Y-86308500D01*
X106666945Y-86308500D01*
X106796274Y-86273847D01*
X106912226Y-86206901D01*
X107006901Y-86112226D01*
X107073847Y-85996274D01*
X107108500Y-85866945D01*
X107108500Y-85733055D01*
X107073847Y-85603726D01*
X107006901Y-85487774D01*
X106912226Y-85393099D01*
X106796274Y-85326153D01*
X106666945Y-85291500D01*
X106533055Y-85291500D01*
X106403725Y-85326153D01*
X106287774Y-85393099D01*
X106287770Y-85393102D01*
X106237680Y-85443192D01*
X106176357Y-85476676D01*
X106106665Y-85471691D01*
X106062320Y-85443192D01*
X106012229Y-85393102D01*
X106012228Y-85393101D01*
X106012226Y-85393099D01*
X105896274Y-85326153D01*
X105766945Y-85291500D01*
X105633055Y-85291500D01*
X105503725Y-85326153D01*
X105387774Y-85393099D01*
X105387771Y-85393101D01*
X105293101Y-85487771D01*
X105293099Y-85487774D01*
X105226153Y-85603725D01*
X105198581Y-85706628D01*
X105191500Y-85733055D01*
X102168932Y-85733055D01*
X102195361Y-85706626D01*
X102231237Y-85644489D01*
X102254772Y-85603725D01*
X102262307Y-85590674D01*
X102296960Y-85461345D01*
X102296960Y-85327455D01*
X102262307Y-85198126D01*
X102195873Y-85083061D01*
X102180751Y-85040225D01*
X102179261Y-85030699D01*
X102179261Y-84944117D01*
X102151964Y-84842244D01*
X102148971Y-84837061D01*
X102146172Y-84819163D01*
X102148868Y-84798608D01*
X102146650Y-84777997D01*
X102150256Y-84765712D01*
X102149860Y-84765606D01*
X102151962Y-84757757D01*
X102151964Y-84757756D01*
X102179261Y-84655883D01*
X102179261Y-84567738D01*
X102195874Y-84505737D01*
X102200242Y-84498172D01*
X102262307Y-84390674D01*
X102296960Y-84261345D01*
X102296960Y-84127455D01*
X102679960Y-84127455D01*
X102679960Y-84261345D01*
X102714613Y-84390674D01*
X102781559Y-84506626D01*
X102781561Y-84506628D01*
X102790221Y-84515288D01*
X102823706Y-84576611D01*
X102818722Y-84646303D01*
X102796823Y-84680390D01*
X102798046Y-84681328D01*
X102793099Y-84687774D01*
X102726153Y-84803725D01*
X102713291Y-84851729D01*
X102691500Y-84933055D01*
X102691500Y-85066945D01*
X102726153Y-85196274D01*
X102793099Y-85312226D01*
X102887774Y-85406901D01*
X103003726Y-85473847D01*
X103133055Y-85508500D01*
X103133057Y-85508500D01*
X103266943Y-85508500D01*
X103266945Y-85508500D01*
X103396274Y-85473847D01*
X103512226Y-85406901D01*
X103606901Y-85312226D01*
X103661317Y-85217977D01*
X118112039Y-85217977D01*
X118112039Y-85338491D01*
X118130370Y-85406901D01*
X118143231Y-85454900D01*
X118143234Y-85454905D01*
X118203483Y-85559261D01*
X118203487Y-85559266D01*
X118203488Y-85559268D01*
X118288705Y-85644485D01*
X118288707Y-85644486D01*
X118288711Y-85644489D01*
X118393067Y-85704738D01*
X118393074Y-85704742D01*
X118405715Y-85708129D01*
X118465373Y-85744491D01*
X118493394Y-85795804D01*
X118496782Y-85808446D01*
X118496784Y-85808452D01*
X118496785Y-85808455D01*
X118496787Y-85808458D01*
X118557036Y-85912814D01*
X118557040Y-85912819D01*
X118557041Y-85912821D01*
X118642258Y-85998038D01*
X118642260Y-85998039D01*
X118642264Y-85998042D01*
X118710742Y-86037577D01*
X118746627Y-86058295D01*
X118759268Y-86061682D01*
X118818926Y-86098044D01*
X118846948Y-86149360D01*
X118850336Y-86162004D01*
X118850338Y-86162009D01*
X118910591Y-86266371D01*
X118910593Y-86266374D01*
X118910594Y-86266375D01*
X118995811Y-86351592D01*
X118995813Y-86351593D01*
X118995817Y-86351596D01*
X119073203Y-86396274D01*
X119100180Y-86411849D01*
X119112825Y-86415237D01*
X119172483Y-86451602D01*
X119200501Y-86502912D01*
X119203888Y-86515551D01*
X119203894Y-86515565D01*
X119264143Y-86619921D01*
X119264147Y-86619926D01*
X119264148Y-86619928D01*
X119349365Y-86705145D01*
X119349367Y-86705146D01*
X119349371Y-86705149D01*
X119453727Y-86765398D01*
X119453734Y-86765402D01*
X119466375Y-86768789D01*
X119526033Y-86805151D01*
X119544038Y-86830862D01*
X119550476Y-86843108D01*
X119557444Y-86869112D01*
X119617701Y-86973481D01*
X119620471Y-86976251D01*
X119626805Y-86988299D01*
X119631687Y-87012581D01*
X119640618Y-87035684D01*
X119638453Y-87046236D01*
X119640577Y-87056798D01*
X119631555Y-87079865D01*
X119626579Y-87104129D01*
X119620959Y-87112874D01*
X119557447Y-87222882D01*
X119557444Y-87222887D01*
X119547539Y-87259854D01*
X119526252Y-87339297D01*
X119526252Y-87459811D01*
X119543027Y-87522414D01*
X119557444Y-87576220D01*
X119557447Y-87576225D01*
X119621764Y-87687627D01*
X119619743Y-87688793D01*
X119640618Y-87742791D01*
X119626579Y-87811236D01*
X119620959Y-87819981D01*
X119557447Y-87929989D01*
X119557444Y-87929994D01*
X119541185Y-87990674D01*
X119526252Y-88046404D01*
X119526252Y-88166918D01*
X119535465Y-88201300D01*
X119557444Y-88283327D01*
X119557447Y-88283332D01*
X119617696Y-88387688D01*
X119617700Y-88387693D01*
X119617701Y-88387695D01*
X119702918Y-88472912D01*
X119702920Y-88472913D01*
X119702924Y-88472916D01*
X119807093Y-88533057D01*
X119807287Y-88533169D01*
X119819928Y-88536556D01*
X119879589Y-88572921D01*
X119907609Y-88624234D01*
X119910997Y-88636879D01*
X119910999Y-88636883D01*
X119971252Y-88741245D01*
X119971254Y-88741248D01*
X119971255Y-88741249D01*
X120056472Y-88826466D01*
X120056474Y-88826467D01*
X120056478Y-88826470D01*
X120145242Y-88877717D01*
X120160841Y-88886723D01*
X120173482Y-88890110D01*
X120233140Y-88926472D01*
X120254904Y-88959983D01*
X120258714Y-88968650D01*
X120264551Y-88990433D01*
X120280221Y-89017575D01*
X120282953Y-89023789D01*
X120286595Y-89051967D01*
X120293297Y-89079589D01*
X120291017Y-89086173D01*
X120291911Y-89093082D01*
X120279740Y-89118759D01*
X120270445Y-89145616D01*
X120262632Y-89154851D01*
X120261985Y-89156218D01*
X120260911Y-89156886D01*
X120257119Y-89161370D01*
X120214280Y-89204209D01*
X120214277Y-89204213D01*
X120147331Y-89320164D01*
X120113892Y-89444963D01*
X120112678Y-89449494D01*
X120112678Y-89583384D01*
X120147331Y-89712713D01*
X120214277Y-89828665D01*
X120308952Y-89923340D01*
X120424904Y-89990286D01*
X120554233Y-90024939D01*
X120554235Y-90024939D01*
X120688121Y-90024939D01*
X120688123Y-90024939D01*
X120817452Y-89990286D01*
X120933404Y-89923340D01*
X121028079Y-89828665D01*
X121077382Y-89743271D01*
X121127948Y-89695056D01*
X121196555Y-89681834D01*
X121261420Y-89707802D01*
X121292153Y-89743269D01*
X121299397Y-89755814D01*
X121303099Y-89762226D01*
X121397774Y-89856901D01*
X121513726Y-89923847D01*
X121643055Y-89958500D01*
X121643057Y-89958500D01*
X121776943Y-89958500D01*
X121776945Y-89958500D01*
X121906274Y-89923847D01*
X122022226Y-89856901D01*
X122116901Y-89762226D01*
X122183847Y-89646274D01*
X122218500Y-89516945D01*
X122218500Y-89383055D01*
X122183847Y-89253726D01*
X122116901Y-89137774D01*
X122022226Y-89043099D01*
X121906274Y-88976153D01*
X121776945Y-88941500D01*
X121643055Y-88941500D01*
X121513716Y-88976155D01*
X121513045Y-88976434D01*
X121512433Y-88976499D01*
X121505875Y-88978257D01*
X121505600Y-88977233D01*
X121443575Y-88983895D01*
X121381099Y-88952614D01*
X121345453Y-88892521D01*
X121347955Y-88822696D01*
X121377923Y-88774188D01*
X121410863Y-88741249D01*
X121471120Y-88636880D01*
X121502312Y-88520472D01*
X121502312Y-88511725D01*
X121521997Y-88444686D01*
X121574801Y-88398931D01*
X121643959Y-88388987D01*
X121707515Y-88418012D01*
X121713993Y-88424044D01*
X121767583Y-88477634D01*
X121767585Y-88477635D01*
X121767589Y-88477638D01*
X121841781Y-88520472D01*
X121871952Y-88537891D01*
X121988360Y-88569083D01*
X121988362Y-88569083D01*
X122108872Y-88569083D01*
X122108874Y-88569083D01*
X122225282Y-88537891D01*
X122329651Y-88477634D01*
X122414868Y-88392417D01*
X122475125Y-88288048D01*
X122506317Y-88171640D01*
X122506317Y-88051126D01*
X122475125Y-87934718D01*
X122462716Y-87913225D01*
X122414872Y-87830355D01*
X122414866Y-87830347D01*
X122329652Y-87745133D01*
X122329644Y-87745127D01*
X122225288Y-87684878D01*
X122225283Y-87684875D01*
X122186479Y-87674477D01*
X122108874Y-87653683D01*
X121988360Y-87653683D01*
X121988356Y-87653683D01*
X121981282Y-87654614D01*
X121912247Y-87643845D01*
X121859994Y-87597462D01*
X121841112Y-87530192D01*
X121841308Y-87524541D01*
X121842038Y-87511860D01*
X121855866Y-87460257D01*
X121855866Y-87339743D01*
X121851394Y-87323055D01*
X123991500Y-87323055D01*
X123991500Y-87456945D01*
X124026153Y-87586274D01*
X124093099Y-87702226D01*
X124187774Y-87796901D01*
X124303726Y-87863847D01*
X124433055Y-87898500D01*
X124433057Y-87898500D01*
X124566943Y-87898500D01*
X124566945Y-87898500D01*
X124696274Y-87863847D01*
X124812226Y-87796901D01*
X124906901Y-87702226D01*
X124973847Y-87586274D01*
X124987839Y-87534055D01*
X125391500Y-87534055D01*
X125391500Y-87667945D01*
X125426153Y-87797274D01*
X125493099Y-87913226D01*
X125587774Y-88007901D01*
X125703726Y-88074847D01*
X125833055Y-88109500D01*
X125833057Y-88109500D01*
X125966943Y-88109500D01*
X125966945Y-88109500D01*
X126096274Y-88074847D01*
X126166523Y-88034288D01*
X126188865Y-88021389D01*
X126256765Y-88004915D01*
X126312867Y-88021389D01*
X126403720Y-88073844D01*
X126403721Y-88073844D01*
X126403726Y-88073847D01*
X126533055Y-88108500D01*
X126533057Y-88108500D01*
X126666943Y-88108500D01*
X126666945Y-88108500D01*
X126796274Y-88073847D01*
X126851011Y-88042244D01*
X126887999Y-88020889D01*
X126955899Y-88004415D01*
X127012001Y-88020889D01*
X127103720Y-88073844D01*
X127103721Y-88073844D01*
X127103726Y-88073847D01*
X127233055Y-88108500D01*
X127233057Y-88108500D01*
X127366943Y-88108500D01*
X127366945Y-88108500D01*
X127496274Y-88073847D01*
X127551011Y-88042244D01*
X127587999Y-88020889D01*
X127655899Y-88004415D01*
X127712001Y-88020889D01*
X127803720Y-88073844D01*
X127803721Y-88073844D01*
X127803726Y-88073847D01*
X127933055Y-88108500D01*
X127933057Y-88108500D01*
X128066943Y-88108500D01*
X128066945Y-88108500D01*
X128196274Y-88073847D01*
X128312226Y-88006901D01*
X128406901Y-87912226D01*
X128473847Y-87796274D01*
X128508500Y-87666945D01*
X128508500Y-87533055D01*
X128473847Y-87403726D01*
X128406901Y-87287774D01*
X128312226Y-87193099D01*
X128196274Y-87126153D01*
X128066945Y-87091500D01*
X127933055Y-87091500D01*
X127803726Y-87126153D01*
X127803725Y-87126153D01*
X127803723Y-87126154D01*
X127803722Y-87126154D01*
X127712000Y-87179111D01*
X127644100Y-87195584D01*
X127588000Y-87179111D01*
X127496277Y-87126154D01*
X127496274Y-87126153D01*
X127366945Y-87091500D01*
X127233055Y-87091500D01*
X127103726Y-87126153D01*
X127103725Y-87126153D01*
X127103723Y-87126154D01*
X127103722Y-87126154D01*
X127012000Y-87179111D01*
X126944100Y-87195584D01*
X126888000Y-87179111D01*
X126796277Y-87126154D01*
X126796274Y-87126153D01*
X126666945Y-87091500D01*
X126533055Y-87091500D01*
X126403726Y-87126153D01*
X126403725Y-87126153D01*
X126403723Y-87126154D01*
X126403722Y-87126154D01*
X126311133Y-87179611D01*
X126243233Y-87196084D01*
X126187132Y-87179611D01*
X126096275Y-87127153D01*
X126031609Y-87109826D01*
X125966945Y-87092500D01*
X125833055Y-87092500D01*
X125703725Y-87127153D01*
X125587774Y-87194099D01*
X125587771Y-87194101D01*
X125493101Y-87288771D01*
X125493099Y-87288774D01*
X125426153Y-87404725D01*
X125414134Y-87449583D01*
X125391500Y-87534055D01*
X124987839Y-87534055D01*
X125008500Y-87456945D01*
X125008500Y-87323055D01*
X124973847Y-87193726D01*
X124906901Y-87077774D01*
X124812226Y-86983099D01*
X124696274Y-86916153D01*
X124566945Y-86881500D01*
X124433055Y-86881500D01*
X124303725Y-86916153D01*
X124187774Y-86983099D01*
X124187771Y-86983101D01*
X124093101Y-87077771D01*
X124093099Y-87077774D01*
X124026153Y-87193725D01*
X124015256Y-87234394D01*
X123991500Y-87323055D01*
X121851394Y-87323055D01*
X121834459Y-87259852D01*
X121836120Y-87190004D01*
X121875282Y-87132141D01*
X121907605Y-87112861D01*
X121910880Y-87111532D01*
X121938530Y-87099023D01*
X122036861Y-87028641D01*
X123157470Y-85923814D01*
X123180019Y-85899593D01*
X123180022Y-85899587D01*
X123180024Y-85899586D01*
X123240251Y-85801300D01*
X123243200Y-85796488D01*
X123254066Y-85770254D01*
X123272804Y-85712584D01*
X123282293Y-85592034D01*
X123259811Y-85498381D01*
X123263302Y-85428600D01*
X123303967Y-85371783D01*
X123335763Y-85355922D01*
X123335091Y-85354298D01*
X123342587Y-85351191D01*
X123342598Y-85351189D01*
X123446967Y-85290932D01*
X123532184Y-85205715D01*
X123592441Y-85101346D01*
X123623633Y-84984938D01*
X123623633Y-84864424D01*
X123592441Y-84748016D01*
X123569626Y-84708499D01*
X123532188Y-84643653D01*
X123532182Y-84643645D01*
X123446968Y-84558431D01*
X123446963Y-84558427D01*
X123342601Y-84498174D01*
X123342597Y-84498172D01*
X123329952Y-84494784D01*
X123270293Y-84458417D01*
X123252292Y-84432711D01*
X123245855Y-84420467D01*
X123238887Y-84394462D01*
X123178630Y-84290093D01*
X123175858Y-84287321D01*
X123169525Y-84275274D01*
X123164643Y-84250995D01*
X123155712Y-84227894D01*
X123157876Y-84217338D01*
X123155753Y-84206775D01*
X123164773Y-84183709D01*
X123169749Y-84159449D01*
X123175362Y-84150715D01*
X123207845Y-84094451D01*
X123238887Y-84040685D01*
X123270079Y-83924277D01*
X123270079Y-83803763D01*
X123238887Y-83687355D01*
X123195511Y-83612225D01*
X123178634Y-83582992D01*
X123178628Y-83582984D01*
X123093414Y-83497770D01*
X123093406Y-83497764D01*
X122989050Y-83437515D01*
X122989045Y-83437512D01*
X122939181Y-83424151D01*
X122872636Y-83406320D01*
X122752122Y-83406320D01*
X122693918Y-83421916D01*
X122635712Y-83437512D01*
X122635707Y-83437515D01*
X122531351Y-83497764D01*
X122531343Y-83497770D01*
X122446129Y-83582984D01*
X122446125Y-83582989D01*
X122385872Y-83687351D01*
X122385869Y-83687359D01*
X122382481Y-83700002D01*
X122346114Y-83759660D01*
X122294808Y-83787676D01*
X122282167Y-83791063D01*
X122282154Y-83791069D01*
X122177798Y-83851318D01*
X122177790Y-83851324D01*
X122092576Y-83936538D01*
X122092572Y-83936543D01*
X122053412Y-84004371D01*
X122002845Y-84052587D01*
X121934238Y-84065809D01*
X121869373Y-84039841D01*
X121850170Y-84021034D01*
X121816050Y-83979457D01*
X121816046Y-83979452D01*
X121716159Y-83879565D01*
X121716158Y-83879564D01*
X121716150Y-83879556D01*
X121694908Y-83859851D01*
X121592029Y-83796306D01*
X121590131Y-83795331D01*
X121589540Y-83794769D01*
X121587882Y-83793745D01*
X121588097Y-83793396D01*
X121539504Y-83747178D01*
X121522947Y-83679299D01*
X121545717Y-83613243D01*
X121584812Y-83577659D01*
X121679200Y-83523165D01*
X121764417Y-83437948D01*
X121824674Y-83333579D01*
X121855866Y-83217171D01*
X121855866Y-83096657D01*
X121824674Y-82980249D01*
X121822263Y-82976073D01*
X121760354Y-82868841D01*
X121762374Y-82867674D01*
X121741499Y-82813681D01*
X121755536Y-82745236D01*
X121761149Y-82736502D01*
X121786432Y-82692708D01*
X121824674Y-82626472D01*
X121855866Y-82510064D01*
X121855866Y-82389550D01*
X121824674Y-82273142D01*
X121824670Y-82273135D01*
X121764421Y-82168779D01*
X121764415Y-82168771D01*
X121679201Y-82083557D01*
X121679193Y-82083551D01*
X121574837Y-82023302D01*
X121574832Y-82023299D01*
X121536028Y-82012901D01*
X121458423Y-81992107D01*
X121337909Y-81992107D01*
X121300011Y-82002262D01*
X121221499Y-82023299D01*
X121221494Y-82023302D01*
X121117138Y-82083551D01*
X121117130Y-82083557D01*
X121031916Y-82168771D01*
X121031910Y-82168779D01*
X120971661Y-82273135D01*
X120971655Y-82273148D01*
X120968268Y-82285789D01*
X120931900Y-82345447D01*
X120880594Y-82373462D01*
X120867951Y-82376850D01*
X120867943Y-82376853D01*
X120763581Y-82437106D01*
X120763576Y-82437110D01*
X120678362Y-82522324D01*
X120678356Y-82522332D01*
X120618107Y-82626688D01*
X120618101Y-82626701D01*
X120614714Y-82639342D01*
X120578346Y-82699000D01*
X120527041Y-82727015D01*
X120514400Y-82730402D01*
X120514387Y-82730408D01*
X120410031Y-82790657D01*
X120410023Y-82790663D01*
X120324809Y-82875877D01*
X120324805Y-82875882D01*
X120264552Y-82980244D01*
X120264549Y-82980250D01*
X120261162Y-82992893D01*
X120224795Y-83052552D01*
X120173485Y-83080570D01*
X120160842Y-83083957D01*
X120160836Y-83083960D01*
X120056474Y-83144213D01*
X120056469Y-83144217D01*
X119971255Y-83229431D01*
X119971249Y-83229439D01*
X119911000Y-83333795D01*
X119910994Y-83333808D01*
X119907607Y-83346449D01*
X119871239Y-83406107D01*
X119845449Y-83424151D01*
X119833238Y-83430558D01*
X119807287Y-83437512D01*
X119702918Y-83497769D01*
X119700455Y-83500231D01*
X119688665Y-83506418D01*
X119664419Y-83511272D01*
X119641353Y-83520187D01*
X119630758Y-83518012D01*
X119620155Y-83520136D01*
X119597134Y-83511112D01*
X119572909Y-83506141D01*
X119555563Y-83494991D01*
X119553579Y-83493468D01*
X119449213Y-83433213D01*
X119449209Y-83433211D01*
X119439956Y-83430732D01*
X119380297Y-83394365D01*
X119352279Y-83343054D01*
X119349800Y-83333802D01*
X119338209Y-83313725D01*
X119289547Y-83229439D01*
X119289541Y-83229431D01*
X119204327Y-83144217D01*
X119204319Y-83144211D01*
X119099963Y-83083962D01*
X119099958Y-83083959D01*
X119048489Y-83070168D01*
X118983549Y-83052767D01*
X118863035Y-83052767D01*
X118828425Y-83062041D01*
X118746625Y-83083959D01*
X118746620Y-83083962D01*
X118642264Y-83144211D01*
X118642256Y-83144217D01*
X118557042Y-83229431D01*
X118557036Y-83229439D01*
X118496787Y-83333795D01*
X118496784Y-83333800D01*
X118475989Y-83411407D01*
X118465592Y-83450210D01*
X118465592Y-83570724D01*
X118476713Y-83612226D01*
X118496784Y-83687133D01*
X118496787Y-83687138D01*
X118557036Y-83791494D01*
X118557040Y-83791499D01*
X118557041Y-83791501D01*
X118642258Y-83876718D01*
X118642260Y-83876719D01*
X118642264Y-83876722D01*
X118745879Y-83936543D01*
X118746627Y-83936975D01*
X118755878Y-83939454D01*
X118815537Y-83975818D01*
X118832949Y-84000416D01*
X118839812Y-84013155D01*
X118846037Y-84036385D01*
X118906294Y-84140754D01*
X118911195Y-84145655D01*
X118918607Y-84159413D01*
X118923861Y-84184239D01*
X118933011Y-84207907D01*
X118930972Y-84217844D01*
X118933073Y-84227769D01*
X118924071Y-84251492D01*
X118918973Y-84276352D01*
X118914571Y-84283201D01*
X118850340Y-84394455D01*
X118850334Y-84394468D01*
X118846947Y-84407109D01*
X118810579Y-84466767D01*
X118759274Y-84494782D01*
X118746633Y-84498169D01*
X118746620Y-84498175D01*
X118642264Y-84558424D01*
X118642256Y-84558430D01*
X118557042Y-84643644D01*
X118557038Y-84643649D01*
X118496785Y-84748011D01*
X118496782Y-84748019D01*
X118493394Y-84760662D01*
X118457027Y-84820320D01*
X118405721Y-84848336D01*
X118393080Y-84851723D01*
X118393067Y-84851729D01*
X118288711Y-84911978D01*
X118288703Y-84911984D01*
X118203489Y-84997198D01*
X118203483Y-84997206D01*
X118143234Y-85101562D01*
X118143231Y-85101567D01*
X118139141Y-85116832D01*
X118112039Y-85217977D01*
X103661317Y-85217977D01*
X103673847Y-85196274D01*
X103708500Y-85066945D01*
X103708500Y-84933055D01*
X103673847Y-84803726D01*
X103606901Y-84687774D01*
X103598238Y-84679111D01*
X103564753Y-84617788D01*
X103569737Y-84548096D01*
X103591640Y-84514019D01*
X103590412Y-84513077D01*
X103595356Y-84506632D01*
X103595357Y-84506629D01*
X103595361Y-84506626D01*
X103662307Y-84390674D01*
X103696960Y-84261345D01*
X103696960Y-84133055D01*
X105191500Y-84133055D01*
X105191500Y-84266945D01*
X105226153Y-84396274D01*
X105293099Y-84512226D01*
X105387774Y-84606901D01*
X105503726Y-84673847D01*
X105633055Y-84708500D01*
X105633057Y-84708500D01*
X105766943Y-84708500D01*
X105766945Y-84708500D01*
X105896274Y-84673847D01*
X106012226Y-84606901D01*
X106062319Y-84556808D01*
X106123642Y-84523323D01*
X106193334Y-84528307D01*
X106237681Y-84556808D01*
X106287774Y-84606901D01*
X106403726Y-84673847D01*
X106533055Y-84708500D01*
X106533057Y-84708500D01*
X106666943Y-84708500D01*
X106666945Y-84708500D01*
X106796274Y-84673847D01*
X106912226Y-84606901D01*
X107006901Y-84512226D01*
X107073847Y-84396274D01*
X107108500Y-84266945D01*
X107108500Y-84133055D01*
X107073847Y-84003726D01*
X107006901Y-83887774D01*
X106912226Y-83793099D01*
X106796274Y-83726153D01*
X106666945Y-83691500D01*
X106533055Y-83691500D01*
X106403725Y-83726153D01*
X106287774Y-83793099D01*
X106287770Y-83793102D01*
X106237680Y-83843192D01*
X106176357Y-83876676D01*
X106106665Y-83871691D01*
X106062320Y-83843192D01*
X106012229Y-83793102D01*
X106012228Y-83793101D01*
X106012226Y-83793099D01*
X105896274Y-83726153D01*
X105766945Y-83691500D01*
X105633055Y-83691500D01*
X105503725Y-83726153D01*
X105387774Y-83793099D01*
X105387771Y-83793101D01*
X105293101Y-83887771D01*
X105293099Y-83887774D01*
X105226153Y-84003725D01*
X105216476Y-84039841D01*
X105191500Y-84133055D01*
X103696960Y-84133055D01*
X103696960Y-84127455D01*
X103662307Y-83998126D01*
X103595361Y-83882174D01*
X103500686Y-83787499D01*
X103384734Y-83720553D01*
X103255405Y-83685900D01*
X103121515Y-83685900D01*
X102992185Y-83720553D01*
X102876234Y-83787499D01*
X102876231Y-83787501D01*
X102781561Y-83882171D01*
X102781559Y-83882174D01*
X102714613Y-83998125D01*
X102682166Y-84119222D01*
X102679960Y-84127455D01*
X102296960Y-84127455D01*
X102262307Y-83998126D01*
X102195361Y-83882174D01*
X102100686Y-83787499D01*
X101984734Y-83720553D01*
X101855405Y-83685900D01*
X101721515Y-83685900D01*
X101592185Y-83720553D01*
X101476234Y-83787499D01*
X101476231Y-83787501D01*
X101381561Y-83882171D01*
X101381559Y-83882174D01*
X101314613Y-83998125D01*
X101282166Y-84119222D01*
X101279960Y-84127455D01*
X100508500Y-84127455D01*
X100508500Y-83443055D01*
X113031500Y-83443055D01*
X113031500Y-83576945D01*
X113066153Y-83706274D01*
X113133099Y-83822226D01*
X113227774Y-83916901D01*
X113343726Y-83983847D01*
X113473055Y-84018500D01*
X113473057Y-84018500D01*
X113606943Y-84018500D01*
X113606945Y-84018500D01*
X113736274Y-83983847D01*
X113852226Y-83916901D01*
X113946901Y-83822226D01*
X114013847Y-83706274D01*
X114048500Y-83576945D01*
X114048500Y-83443055D01*
X114013847Y-83313726D01*
X113946901Y-83197774D01*
X113852226Y-83103099D01*
X113736274Y-83036153D01*
X113606945Y-83001500D01*
X113473055Y-83001500D01*
X113343725Y-83036153D01*
X113227774Y-83103099D01*
X113227771Y-83103101D01*
X113133101Y-83197771D01*
X113133099Y-83197774D01*
X113066153Y-83313725D01*
X113051893Y-83366945D01*
X113031500Y-83443055D01*
X100508500Y-83443055D01*
X100508500Y-81762500D01*
X100528185Y-81695461D01*
X100580989Y-81649706D01*
X100632500Y-81638500D01*
X100746943Y-81638500D01*
X100746945Y-81638500D01*
X100876274Y-81603847D01*
X100992226Y-81536901D01*
X101086901Y-81442226D01*
X101137493Y-81354598D01*
X101155209Y-81337706D01*
X101169712Y-81317979D01*
X101180049Y-81314020D01*
X101188060Y-81306383D01*
X101212098Y-81301750D01*
X101234963Y-81292996D01*
X101250280Y-81294391D01*
X101256667Y-81293161D01*
X101270188Y-81295209D01*
X101273588Y-81295917D01*
X101332577Y-81311724D01*
X101349404Y-81311724D01*
X101361923Y-81314334D01*
X101381909Y-81325024D01*
X101403654Y-81331409D01*
X101412125Y-81341185D01*
X101423533Y-81347287D01*
X101434567Y-81367084D01*
X101449409Y-81384213D01*
X101451250Y-81397017D01*
X101457548Y-81408317D01*
X101456127Y-81430936D01*
X101459353Y-81453371D01*
X101453978Y-81465138D01*
X101453168Y-81478050D01*
X101439742Y-81496312D01*
X101430328Y-81516927D01*
X101424296Y-81523405D01*
X101403101Y-81544599D01*
X101403099Y-81544602D01*
X101336153Y-81660553D01*
X101307073Y-81769084D01*
X101301500Y-81789883D01*
X101301500Y-81923773D01*
X101336153Y-82053102D01*
X101403099Y-82169054D01*
X101497774Y-82263729D01*
X101613726Y-82330675D01*
X101743055Y-82365328D01*
X101743057Y-82365328D01*
X101876943Y-82365328D01*
X101876945Y-82365328D01*
X102006274Y-82330675D01*
X102122226Y-82263729D01*
X102215234Y-82170721D01*
X102575500Y-82170721D01*
X102575500Y-82304611D01*
X102610153Y-82433940D01*
X102677099Y-82549892D01*
X102771774Y-82644567D01*
X102887726Y-82711513D01*
X103017055Y-82746166D01*
X103017057Y-82746166D01*
X103150943Y-82746166D01*
X103150945Y-82746166D01*
X103280274Y-82711513D01*
X103396226Y-82644567D01*
X103490901Y-82549892D01*
X103500622Y-82533055D01*
X105191500Y-82533055D01*
X105191500Y-82666945D01*
X105226153Y-82796274D01*
X105293099Y-82912226D01*
X105387774Y-83006901D01*
X105503726Y-83073847D01*
X105633055Y-83108500D01*
X105633057Y-83108500D01*
X105766943Y-83108500D01*
X105766945Y-83108500D01*
X105896274Y-83073847D01*
X106012226Y-83006901D01*
X106106901Y-82912226D01*
X106173847Y-82796274D01*
X106208500Y-82666945D01*
X106208500Y-82533055D01*
X106173847Y-82403726D01*
X106106901Y-82287774D01*
X106012226Y-82193099D01*
X105896274Y-82126153D01*
X105766945Y-82091500D01*
X105633055Y-82091500D01*
X105503725Y-82126153D01*
X105387774Y-82193099D01*
X105387771Y-82193101D01*
X105293101Y-82287771D01*
X105293099Y-82287774D01*
X105226153Y-82403725D01*
X105221470Y-82421204D01*
X105191500Y-82533055D01*
X103500622Y-82533055D01*
X103518036Y-82502893D01*
X103533412Y-82476263D01*
X103533412Y-82476260D01*
X103557847Y-82433940D01*
X103592500Y-82304611D01*
X103592500Y-82268069D01*
X103597211Y-82251470D01*
X103607007Y-82235918D01*
X103612185Y-82218286D01*
X103628819Y-82197644D01*
X103633364Y-82193099D01*
X103641326Y-82185137D01*
X103694059Y-82093800D01*
X103694059Y-82093798D01*
X103698122Y-82086762D01*
X103700613Y-82088200D01*
X103735732Y-82044613D01*
X103746967Y-82038477D01*
X103746762Y-82038122D01*
X103753798Y-82034059D01*
X103753800Y-82034059D01*
X103845137Y-81981326D01*
X103919714Y-81906749D01*
X103921764Y-81903197D01*
X103924280Y-81900797D01*
X103924662Y-81900301D01*
X103924739Y-81900360D01*
X103972327Y-81854978D01*
X103997060Y-81845415D01*
X104032086Y-81836031D01*
X104148038Y-81769085D01*
X104179028Y-81738095D01*
X106475191Y-81738095D01*
X106475191Y-81863286D01*
X106499611Y-81986052D01*
X106499614Y-81986064D01*
X106547514Y-82101706D01*
X106547521Y-82101719D01*
X106617065Y-82205798D01*
X106617068Y-82205802D01*
X106705579Y-82294313D01*
X106705583Y-82294316D01*
X106809662Y-82363860D01*
X106809675Y-82363867D01*
X106905902Y-82403725D01*
X106925322Y-82411769D01*
X107048095Y-82436190D01*
X107048099Y-82436191D01*
X107048100Y-82436191D01*
X107173283Y-82436191D01*
X107173284Y-82436190D01*
X107296060Y-82411769D01*
X107411713Y-82363864D01*
X107515799Y-82294316D01*
X107532242Y-82277873D01*
X107593564Y-82244386D01*
X107663256Y-82249369D01*
X107681919Y-82258162D01*
X107707875Y-82273148D01*
X107743723Y-82293846D01*
X107743725Y-82293846D01*
X107743726Y-82293847D01*
X107873055Y-82328500D01*
X107873057Y-82328500D01*
X108006943Y-82328500D01*
X108006945Y-82328500D01*
X108136274Y-82293847D01*
X108252226Y-82226901D01*
X108346901Y-82132226D01*
X108413847Y-82016274D01*
X108448500Y-81886945D01*
X108448500Y-81753055D01*
X108413847Y-81623726D01*
X108346901Y-81507774D01*
X108252226Y-81413099D01*
X108136274Y-81346153D01*
X108006945Y-81311500D01*
X107873055Y-81311500D01*
X107743723Y-81346153D01*
X107706406Y-81367699D01*
X107638506Y-81384170D01*
X107572479Y-81361318D01*
X107556726Y-81347992D01*
X107515802Y-81307068D01*
X107515798Y-81307065D01*
X107411719Y-81237521D01*
X107411706Y-81237514D01*
X107296064Y-81189614D01*
X107296052Y-81189611D01*
X107173286Y-81165191D01*
X107173282Y-81165191D01*
X107048100Y-81165191D01*
X107048095Y-81165191D01*
X106925329Y-81189611D01*
X106925317Y-81189614D01*
X106809675Y-81237514D01*
X106809662Y-81237521D01*
X106705583Y-81307065D01*
X106705579Y-81307068D01*
X106617068Y-81395579D01*
X106617065Y-81395583D01*
X106547521Y-81499662D01*
X106547514Y-81499675D01*
X106499614Y-81615317D01*
X106499611Y-81615329D01*
X106475191Y-81738095D01*
X104179028Y-81738095D01*
X104242713Y-81674410D01*
X104250714Y-81660553D01*
X104283454Y-81603846D01*
X104309659Y-81558458D01*
X104344312Y-81429129D01*
X104344312Y-81295239D01*
X104309659Y-81165910D01*
X104242713Y-81049958D01*
X104148038Y-80955283D01*
X104032086Y-80888337D01*
X103902757Y-80853684D01*
X103768867Y-80853684D01*
X103639537Y-80888337D01*
X103523586Y-80955283D01*
X103523583Y-80955285D01*
X103428913Y-81049955D01*
X103428911Y-81049958D01*
X103361965Y-81165909D01*
X103327312Y-81295239D01*
X103327312Y-81314863D01*
X103307627Y-81381902D01*
X103307403Y-81382250D01*
X103300272Y-81393264D01*
X103278674Y-81414863D01*
X103225941Y-81506200D01*
X103225080Y-81509412D01*
X103217628Y-81520924D01*
X103199352Y-81536652D01*
X103184214Y-81555423D01*
X103173035Y-81561526D01*
X103173238Y-81561878D01*
X103166200Y-81565940D01*
X103166200Y-81565941D01*
X103128181Y-81587890D01*
X103074864Y-81618673D01*
X103074861Y-81618675D01*
X103000287Y-81693249D01*
X103000283Y-81693254D01*
X102998362Y-81696582D01*
X102996008Y-81698825D01*
X102995336Y-81699702D01*
X102995199Y-81699597D01*
X102947790Y-81744793D01*
X102923076Y-81754346D01*
X102887726Y-81763818D01*
X102771774Y-81830765D01*
X102771771Y-81830767D01*
X102677101Y-81925437D01*
X102677099Y-81925440D01*
X102610153Y-82041391D01*
X102585814Y-82132228D01*
X102575500Y-82170721D01*
X102215234Y-82170721D01*
X102216901Y-82169054D01*
X102283847Y-82053102D01*
X102318500Y-81923773D01*
X102318500Y-81789883D01*
X102283847Y-81660554D01*
X102216901Y-81544602D01*
X102122226Y-81449927D01*
X102116479Y-81444180D01*
X102118545Y-81442113D01*
X102085631Y-81397020D01*
X102081488Y-81327274D01*
X102114643Y-81267414D01*
X102176901Y-81205157D01*
X102243847Y-81089205D01*
X102278500Y-80959876D01*
X102278500Y-80825986D01*
X102243847Y-80696657D01*
X102176901Y-80580705D01*
X102082226Y-80486030D01*
X101966274Y-80419084D01*
X101836945Y-80384431D01*
X101735845Y-80384431D01*
X101668806Y-80364746D01*
X101628458Y-80322432D01*
X101596901Y-80267774D01*
X101502226Y-80173099D01*
X101386274Y-80106153D01*
X101258785Y-80071993D01*
X101199124Y-80035628D01*
X101168595Y-79972781D01*
X101166878Y-79952218D01*
X101166878Y-79853057D01*
X101166878Y-79853055D01*
X101132225Y-79723726D01*
X101065279Y-79607774D01*
X101060997Y-79603492D01*
X101027512Y-79542169D01*
X101032496Y-79472477D01*
X101044147Y-79449108D01*
X101051425Y-79437701D01*
X101066901Y-79422226D01*
X101120121Y-79330046D01*
X101121598Y-79327733D01*
X101145939Y-79306503D01*
X101169310Y-79284220D01*
X101172106Y-79283681D01*
X101174254Y-79281808D01*
X101206214Y-79277107D01*
X101237917Y-79270998D01*
X101242337Y-79271795D01*
X101243380Y-79271642D01*
X101244633Y-79272209D01*
X101258211Y-79274658D01*
X101314860Y-79289838D01*
X101314863Y-79289838D01*
X101392315Y-79289838D01*
X101454316Y-79306452D01*
X101553720Y-79363844D01*
X101553721Y-79363844D01*
X101553726Y-79363847D01*
X101683055Y-79398500D01*
X101683057Y-79398500D01*
X101816943Y-79398500D01*
X101816945Y-79398500D01*
X101946274Y-79363847D01*
X102062226Y-79296901D01*
X102156901Y-79202226D01*
X102223847Y-79086274D01*
X102258500Y-78956945D01*
X102258500Y-78823055D01*
X102223847Y-78693726D01*
X102156901Y-78577774D01*
X102062226Y-78483099D01*
X101946274Y-78416153D01*
X101816945Y-78381500D01*
X101816944Y-78381500D01*
X101787873Y-78381500D01*
X101720834Y-78361815D01*
X101675079Y-78309011D01*
X101668098Y-78289593D01*
X101663846Y-78273724D01*
X101648448Y-78247055D01*
X101596901Y-78157774D01*
X101502226Y-78063099D01*
X101386274Y-77996153D01*
X101270407Y-77965107D01*
X101210746Y-77928742D01*
X101180217Y-77865895D01*
X101178500Y-77845332D01*
X101178500Y-77793057D01*
X101178500Y-77793055D01*
X101143847Y-77663726D01*
X101076901Y-77547774D01*
X100982226Y-77453099D01*
X100888011Y-77398703D01*
X100866276Y-77386153D01*
X100780054Y-77363051D01*
X100736945Y-77351500D01*
X100632500Y-77351500D01*
X100565461Y-77331815D01*
X100535644Y-77297404D01*
X104634500Y-77297404D01*
X104634500Y-77422595D01*
X104658920Y-77545361D01*
X104658923Y-77545373D01*
X104706823Y-77661015D01*
X104706830Y-77661028D01*
X104776374Y-77765107D01*
X104776377Y-77765111D01*
X104864888Y-77853622D01*
X104864892Y-77853625D01*
X104968971Y-77923169D01*
X104968984Y-77923176D01*
X105081147Y-77969635D01*
X105084631Y-77971078D01*
X105198827Y-77993793D01*
X105207404Y-77995499D01*
X105207408Y-77995500D01*
X105207409Y-77995500D01*
X105332592Y-77995500D01*
X105332593Y-77995499D01*
X105455369Y-77971078D01*
X105457996Y-77969989D01*
X105459481Y-77969830D01*
X105461196Y-77969310D01*
X105461294Y-77969635D01*
X105527463Y-77962520D01*
X105589943Y-77993793D01*
X105625597Y-78053881D01*
X105625944Y-78055271D01*
X105629450Y-78069699D01*
X105629450Y-78082733D01*
X105656747Y-78184606D01*
X105657825Y-78186474D01*
X105660522Y-78197571D01*
X105659306Y-78223295D01*
X105662052Y-78248898D01*
X105658457Y-78261138D01*
X105658851Y-78261244D01*
X105657225Y-78267310D01*
X105657223Y-78267363D01*
X105657204Y-78267389D01*
X105656747Y-78269093D01*
X105656747Y-78269094D01*
X105629450Y-78370967D01*
X105629450Y-78370969D01*
X105629450Y-78470867D01*
X105612837Y-78532868D01*
X105566153Y-78613724D01*
X105544717Y-78693726D01*
X105531500Y-78743055D01*
X105531500Y-78876945D01*
X105566153Y-79006274D01*
X105633099Y-79122226D01*
X105727774Y-79216901D01*
X105843726Y-79283847D01*
X105973055Y-79318500D01*
X105973057Y-79318500D01*
X106106943Y-79318500D01*
X106106945Y-79318500D01*
X106236274Y-79283847D01*
X106352226Y-79216901D01*
X106446901Y-79122226D01*
X106513847Y-79006274D01*
X106548500Y-78876945D01*
X106548500Y-78743055D01*
X106513847Y-78613726D01*
X106447162Y-78498227D01*
X106432207Y-78456432D01*
X106430550Y-78446398D01*
X106430550Y-78370967D01*
X106403253Y-78269094D01*
X106400472Y-78264277D01*
X106397628Y-78247055D01*
X106400211Y-78225967D01*
X106397939Y-78204847D01*
X106401545Y-78192562D01*
X106401149Y-78192456D01*
X106403251Y-78184607D01*
X106403253Y-78184606D01*
X106430550Y-78082733D01*
X106430550Y-78022941D01*
X106447162Y-77960941D01*
X106513870Y-77845403D01*
X106548523Y-77716074D01*
X106548523Y-77582184D01*
X106513870Y-77452855D01*
X106446924Y-77336903D01*
X106352249Y-77242228D01*
X106236297Y-77175282D01*
X106106968Y-77140629D01*
X105973078Y-77140629D01*
X105973077Y-77140629D01*
X105966808Y-77141454D01*
X105897773Y-77130685D01*
X105845519Y-77084303D01*
X105836065Y-77065961D01*
X105833175Y-77058983D01*
X105833173Y-77058978D01*
X105826322Y-77048725D01*
X105763628Y-76954896D01*
X105763622Y-76954888D01*
X105686297Y-76877563D01*
X105686294Y-76877561D01*
X105675108Y-76866375D01*
X105571022Y-76796827D01*
X105510735Y-76771855D01*
X105510733Y-76771854D01*
X105493112Y-76764555D01*
X105455369Y-76748922D01*
X105455364Y-76748921D01*
X105455361Y-76748920D01*
X105332595Y-76724500D01*
X105332591Y-76724500D01*
X105207409Y-76724500D01*
X105207404Y-76724500D01*
X105084638Y-76748920D01*
X105084626Y-76748923D01*
X104968984Y-76796823D01*
X104968971Y-76796830D01*
X104864892Y-76866374D01*
X104864888Y-76866377D01*
X104776377Y-76954888D01*
X104776374Y-76954892D01*
X104706830Y-77058971D01*
X104706823Y-77058984D01*
X104658923Y-77174626D01*
X104658920Y-77174638D01*
X104634500Y-77297404D01*
X100535644Y-77297404D01*
X100519706Y-77279011D01*
X100508500Y-77227500D01*
X100508500Y-74977404D01*
X101984500Y-74977404D01*
X101984500Y-75102595D01*
X102008920Y-75225361D01*
X102008923Y-75225373D01*
X102056823Y-75341015D01*
X102056830Y-75341028D01*
X102126374Y-75445107D01*
X102126377Y-75445111D01*
X102214888Y-75533622D01*
X102214892Y-75533625D01*
X102318971Y-75603169D01*
X102318984Y-75603176D01*
X102417830Y-75644119D01*
X102434631Y-75651078D01*
X102527808Y-75669612D01*
X102557404Y-75675499D01*
X102557408Y-75675500D01*
X102557409Y-75675500D01*
X102682592Y-75675500D01*
X102682593Y-75675499D01*
X102805369Y-75651078D01*
X102921022Y-75603173D01*
X103025108Y-75533625D01*
X103113625Y-75445108D01*
X103183173Y-75341022D01*
X103231078Y-75225369D01*
X103237506Y-75193055D01*
X103641501Y-75193055D01*
X103641501Y-75326945D01*
X103676154Y-75456274D01*
X103743100Y-75572226D01*
X103743102Y-75572228D01*
X103760693Y-75589819D01*
X103794178Y-75651142D01*
X103789194Y-75720834D01*
X103760697Y-75765178D01*
X103753101Y-75772773D01*
X103753101Y-75772774D01*
X103686155Y-75888725D01*
X103662661Y-75976408D01*
X103651502Y-76018055D01*
X103651502Y-76151945D01*
X103686155Y-76281274D01*
X103753101Y-76397226D01*
X103847776Y-76491901D01*
X103963728Y-76558847D01*
X104093057Y-76593500D01*
X104093059Y-76593500D01*
X104226945Y-76593500D01*
X104226947Y-76593500D01*
X104356276Y-76558847D01*
X104472228Y-76491901D01*
X104566903Y-76397226D01*
X104633849Y-76281274D01*
X104668502Y-76151945D01*
X104668502Y-76018055D01*
X104633849Y-75888726D01*
X104566903Y-75772774D01*
X104549309Y-75755180D01*
X104515824Y-75693857D01*
X104520808Y-75624165D01*
X104549308Y-75579819D01*
X104556902Y-75572226D01*
X104623848Y-75456274D01*
X104658501Y-75326945D01*
X104658501Y-75273055D01*
X104961500Y-75273055D01*
X104961500Y-75406945D01*
X104996153Y-75536274D01*
X105063099Y-75652226D01*
X105157774Y-75746901D01*
X105273726Y-75813847D01*
X105343133Y-75832444D01*
X105402791Y-75868807D01*
X105433321Y-75931654D01*
X105432656Y-75976408D01*
X105424501Y-76017407D01*
X105424501Y-76142592D01*
X105448921Y-76265358D01*
X105448924Y-76265370D01*
X105496824Y-76381012D01*
X105496831Y-76381025D01*
X105566375Y-76485104D01*
X105566378Y-76485108D01*
X105643702Y-76562432D01*
X105643704Y-76562433D01*
X105654893Y-76573622D01*
X105758979Y-76643170D01*
X105874632Y-76691075D01*
X105967799Y-76709607D01*
X105997405Y-76715496D01*
X105997409Y-76715497D01*
X105997410Y-76715497D01*
X106122593Y-76715497D01*
X106122594Y-76715496D01*
X106245370Y-76691075D01*
X106361023Y-76643170D01*
X106465109Y-76573622D01*
X106553626Y-76485105D01*
X106623174Y-76381019D01*
X106671079Y-76265366D01*
X106695501Y-76142588D01*
X106695501Y-76017406D01*
X106671079Y-75894628D01*
X106650045Y-75843847D01*
X106623177Y-75778981D01*
X106623170Y-75778968D01*
X106553626Y-75674889D01*
X106553623Y-75674885D01*
X106465112Y-75586374D01*
X106465108Y-75586371D01*
X106361029Y-75516827D01*
X106361016Y-75516820D01*
X106245374Y-75468920D01*
X106245362Y-75468917D01*
X106122596Y-75444497D01*
X106122592Y-75444497D01*
X106102500Y-75444497D01*
X106035461Y-75424812D01*
X105989706Y-75372008D01*
X105978500Y-75320497D01*
X105978500Y-75273057D01*
X105978500Y-75273055D01*
X105943847Y-75143726D01*
X105876901Y-75027774D01*
X105782226Y-74933099D01*
X105666274Y-74866153D01*
X105536945Y-74831500D01*
X105403055Y-74831500D01*
X105273725Y-74866153D01*
X105157774Y-74933099D01*
X105157771Y-74933101D01*
X105063101Y-75027771D01*
X105063099Y-75027774D01*
X104996153Y-75143725D01*
X104980633Y-75201647D01*
X104961500Y-75273055D01*
X104658501Y-75273055D01*
X104658501Y-75193055D01*
X104623848Y-75063726D01*
X104556902Y-74947774D01*
X104462227Y-74853099D01*
X104346275Y-74786153D01*
X104216946Y-74751500D01*
X104083056Y-74751500D01*
X103953726Y-74786153D01*
X103837775Y-74853099D01*
X103837772Y-74853101D01*
X103743102Y-74947771D01*
X103743100Y-74947774D01*
X103676154Y-75063725D01*
X103647305Y-75171392D01*
X103641501Y-75193055D01*
X103237506Y-75193055D01*
X103237899Y-75191078D01*
X103243930Y-75160759D01*
X103243934Y-75160738D01*
X103248707Y-75136740D01*
X103255500Y-75102591D01*
X103255500Y-74977409D01*
X103231078Y-74854631D01*
X103230444Y-74853101D01*
X103183176Y-74738984D01*
X103183169Y-74738971D01*
X103113625Y-74634892D01*
X103113622Y-74634888D01*
X103025111Y-74546377D01*
X103025107Y-74546374D01*
X102921028Y-74476830D01*
X102921015Y-74476823D01*
X102805373Y-74428923D01*
X102805361Y-74428920D01*
X102682595Y-74404500D01*
X102682591Y-74404500D01*
X102557409Y-74404500D01*
X102557404Y-74404500D01*
X102434638Y-74428920D01*
X102434626Y-74428923D01*
X102318984Y-74476823D01*
X102318971Y-74476830D01*
X102214892Y-74546374D01*
X102214888Y-74546377D01*
X102126377Y-74634888D01*
X102126374Y-74634892D01*
X102056830Y-74738971D01*
X102056823Y-74738984D01*
X102008923Y-74854626D01*
X102008920Y-74854638D01*
X101984500Y-74977404D01*
X100508500Y-74977404D01*
X100508500Y-73087401D01*
X102004501Y-73087401D01*
X102004501Y-73212592D01*
X102028921Y-73335358D01*
X102028924Y-73335370D01*
X102076824Y-73451012D01*
X102076831Y-73451025D01*
X102146375Y-73555104D01*
X102146378Y-73555108D01*
X102234889Y-73643619D01*
X102234893Y-73643622D01*
X102338972Y-73713166D01*
X102338985Y-73713173D01*
X102454627Y-73761073D01*
X102454632Y-73761075D01*
X102557658Y-73781568D01*
X102577405Y-73785496D01*
X102577409Y-73785497D01*
X102577410Y-73785497D01*
X102702593Y-73785497D01*
X102702594Y-73785496D01*
X102825370Y-73761075D01*
X102941023Y-73713170D01*
X103045109Y-73643622D01*
X103133626Y-73555105D01*
X103203174Y-73451019D01*
X103203175Y-73451016D01*
X103203177Y-73451013D01*
X103204672Y-73447404D01*
X105424500Y-73447404D01*
X105424500Y-73572595D01*
X105448920Y-73695361D01*
X105448923Y-73695373D01*
X105496823Y-73811015D01*
X105496830Y-73811028D01*
X105566374Y-73915107D01*
X105566377Y-73915111D01*
X105654888Y-74003622D01*
X105654892Y-74003625D01*
X105758971Y-74073169D01*
X105758984Y-74073176D01*
X105850368Y-74111028D01*
X105874631Y-74121078D01*
X105987048Y-74143439D01*
X105997404Y-74145499D01*
X105997408Y-74145500D01*
X105997409Y-74145500D01*
X106122592Y-74145500D01*
X106122593Y-74145499D01*
X106245369Y-74121078D01*
X106361022Y-74073173D01*
X106361037Y-74073162D01*
X106363904Y-74071631D01*
X106365598Y-74071278D01*
X106366651Y-74070842D01*
X106366733Y-74071041D01*
X106432306Y-74057382D01*
X106491261Y-74077881D01*
X106588971Y-74143169D01*
X106588984Y-74143176D01*
X106699725Y-74189046D01*
X106704631Y-74191078D01*
X106825433Y-74215107D01*
X106827404Y-74215499D01*
X106827408Y-74215500D01*
X106827409Y-74215500D01*
X106952592Y-74215500D01*
X106952593Y-74215499D01*
X107075369Y-74191078D01*
X107191022Y-74143173D01*
X107295108Y-74073625D01*
X107383625Y-73985108D01*
X107453173Y-73881022D01*
X107501078Y-73765369D01*
X107525500Y-73642591D01*
X107525500Y-73587404D01*
X108414500Y-73587404D01*
X108414500Y-73712595D01*
X108438920Y-73835361D01*
X108438923Y-73835373D01*
X108486823Y-73951015D01*
X108486830Y-73951028D01*
X108556374Y-74055107D01*
X108556377Y-74055111D01*
X108644888Y-74143622D01*
X108644892Y-74143625D01*
X108748971Y-74213169D01*
X108748984Y-74213176D01*
X108852352Y-74255992D01*
X108864631Y-74261078D01*
X108949689Y-74277997D01*
X108987404Y-74285499D01*
X108987408Y-74285500D01*
X108987409Y-74285500D01*
X109112592Y-74285500D01*
X109112593Y-74285499D01*
X109235369Y-74261078D01*
X109346343Y-74215111D01*
X109351015Y-74213176D01*
X109351015Y-74213175D01*
X109351022Y-74213173D01*
X109455108Y-74143625D01*
X109543625Y-74055108D01*
X109613173Y-73951022D01*
X109661078Y-73835369D01*
X109663293Y-73824233D01*
X112360322Y-73824233D01*
X112360322Y-73958123D01*
X112394975Y-74087452D01*
X112461921Y-74203404D01*
X112461923Y-74203406D01*
X112537208Y-74278691D01*
X112570693Y-74340014D01*
X112565709Y-74409706D01*
X112556914Y-74428371D01*
X112534835Y-74466611D01*
X112534834Y-74466616D01*
X112534833Y-74466618D01*
X112534833Y-74466619D01*
X112500180Y-74595948D01*
X112500180Y-74729838D01*
X112534833Y-74859167D01*
X112601779Y-74975119D01*
X112696454Y-75069794D01*
X112812406Y-75136740D01*
X112941735Y-75171393D01*
X112941737Y-75171393D01*
X113075623Y-75171393D01*
X113075625Y-75171393D01*
X113204954Y-75136740D01*
X113320906Y-75069794D01*
X113415581Y-74975119D01*
X113482527Y-74859167D01*
X113517180Y-74729838D01*
X113517180Y-74595948D01*
X113517180Y-74588286D01*
X113519730Y-74579600D01*
X113518442Y-74570639D01*
X113529420Y-74546598D01*
X113536865Y-74521247D01*
X113543705Y-74515319D01*
X113547467Y-74507083D01*
X113569701Y-74492793D01*
X113589669Y-74475492D01*
X113600183Y-74473204D01*
X113606245Y-74469309D01*
X113641180Y-74464286D01*
X113790393Y-74464286D01*
X113857432Y-74483971D01*
X113903187Y-74536775D01*
X113914393Y-74588286D01*
X113914393Y-74595948D01*
X113914393Y-74729838D01*
X113949046Y-74859167D01*
X114015992Y-74975119D01*
X114110667Y-75069794D01*
X114226619Y-75136740D01*
X114355948Y-75171393D01*
X114355950Y-75171393D01*
X114497500Y-75171393D01*
X114564539Y-75191078D01*
X114610294Y-75243882D01*
X114621500Y-75295393D01*
X114621500Y-75303055D01*
X114621500Y-75436945D01*
X114656153Y-75566274D01*
X114723099Y-75682226D01*
X114817774Y-75776901D01*
X114933726Y-75843847D01*
X115063055Y-75878500D01*
X115063057Y-75878500D01*
X115204607Y-75878500D01*
X115213292Y-75881050D01*
X115222254Y-75879762D01*
X115246294Y-75890740D01*
X115271646Y-75898185D01*
X115277573Y-75905025D01*
X115285810Y-75908787D01*
X115300099Y-75931021D01*
X115317401Y-75950989D01*
X115319688Y-75961503D01*
X115323584Y-75967565D01*
X115328607Y-76002500D01*
X115328607Y-76151714D01*
X115308922Y-76218753D01*
X115256118Y-76264508D01*
X115204607Y-76275714D01*
X115063055Y-76275714D01*
X114933725Y-76310367D01*
X114817774Y-76377313D01*
X114817771Y-76377315D01*
X114723101Y-76471985D01*
X114723099Y-76471988D01*
X114656153Y-76587939D01*
X114621500Y-76717269D01*
X114621500Y-76858820D01*
X114601815Y-76925859D01*
X114549011Y-76971614D01*
X114497500Y-76982820D01*
X114355948Y-76982820D01*
X114226618Y-77017473D01*
X114110667Y-77084419D01*
X114110664Y-77084421D01*
X114015994Y-77179091D01*
X114015992Y-77179094D01*
X113949046Y-77295045D01*
X113929781Y-77366944D01*
X113914393Y-77424375D01*
X113914393Y-77558265D01*
X113949046Y-77687594D01*
X114015992Y-77803546D01*
X114110667Y-77898221D01*
X114226619Y-77965167D01*
X114355948Y-77999820D01*
X114355950Y-77999820D01*
X114497500Y-77999820D01*
X114564539Y-78019505D01*
X114610294Y-78072309D01*
X114621500Y-78123820D01*
X114621500Y-78131481D01*
X114621500Y-78131482D01*
X114621500Y-78265372D01*
X114656152Y-78394698D01*
X114656154Y-78394703D01*
X114656155Y-78394708D01*
X114660108Y-78401554D01*
X114676578Y-78469455D01*
X114667285Y-78510991D01*
X114666155Y-78513719D01*
X114666153Y-78513725D01*
X114666153Y-78513726D01*
X114631500Y-78643055D01*
X114631500Y-78776945D01*
X114666153Y-78906274D01*
X114733099Y-79022226D01*
X114827774Y-79116901D01*
X114943726Y-79183847D01*
X115073055Y-79218500D01*
X115073057Y-79218500D01*
X115206943Y-79218500D01*
X115206945Y-79218500D01*
X115336274Y-79183847D01*
X115452226Y-79116901D01*
X115546901Y-79022226D01*
X115613847Y-78906274D01*
X115648500Y-78776945D01*
X115648500Y-78643055D01*
X115613847Y-78513726D01*
X115609894Y-78506880D01*
X115593419Y-78438983D01*
X115602721Y-78397417D01*
X115603842Y-78394708D01*
X115603847Y-78394701D01*
X115638500Y-78265372D01*
X115638500Y-78131482D01*
X115636242Y-78123055D01*
X116191500Y-78123055D01*
X116191500Y-78256945D01*
X116226153Y-78386274D01*
X116293099Y-78502226D01*
X116387774Y-78596901D01*
X116503726Y-78663847D01*
X116614344Y-78693486D01*
X116674003Y-78729849D01*
X116704533Y-78792696D01*
X116696239Y-78862071D01*
X116669932Y-78900941D01*
X116593098Y-78977774D01*
X116526153Y-79093725D01*
X116498676Y-79196274D01*
X116491500Y-79223055D01*
X116491500Y-79356945D01*
X116526153Y-79486274D01*
X116593099Y-79602226D01*
X116687774Y-79696901D01*
X116803726Y-79763847D01*
X116933055Y-79798500D01*
X116933057Y-79798500D01*
X117066943Y-79798500D01*
X117066945Y-79798500D01*
X117196274Y-79763847D01*
X117312226Y-79696901D01*
X117406901Y-79602226D01*
X117473847Y-79486274D01*
X117508500Y-79356945D01*
X117508500Y-79223055D01*
X117473847Y-79093726D01*
X117406901Y-78977774D01*
X117312226Y-78883099D01*
X117235884Y-78839022D01*
X117196275Y-78816153D01*
X117142136Y-78801647D01*
X117085654Y-78786513D01*
X117025995Y-78750149D01*
X116995466Y-78687303D01*
X117003760Y-78617927D01*
X117030063Y-78579063D01*
X117106901Y-78502226D01*
X117173847Y-78386274D01*
X117208500Y-78256945D01*
X117208500Y-78123055D01*
X117173847Y-77993726D01*
X117106901Y-77877774D01*
X117012226Y-77783099D01*
X116896274Y-77716153D01*
X116766945Y-77681500D01*
X116633055Y-77681500D01*
X116503725Y-77716153D01*
X116387774Y-77783099D01*
X116387771Y-77783101D01*
X116293101Y-77877771D01*
X116293099Y-77877774D01*
X116226153Y-77993725D01*
X116218325Y-78022941D01*
X116191500Y-78123055D01*
X115636242Y-78123055D01*
X115603847Y-78002153D01*
X115536901Y-77886201D01*
X115442226Y-77791526D01*
X115326274Y-77724580D01*
X115196945Y-77689927D01*
X115063055Y-77689927D01*
X115055393Y-77689927D01*
X115046707Y-77687376D01*
X115037746Y-77688665D01*
X115013705Y-77677686D01*
X114988354Y-77670242D01*
X114982426Y-77663401D01*
X114974190Y-77659640D01*
X114959900Y-77637405D01*
X114942599Y-77617438D01*
X114940311Y-77606923D01*
X114936416Y-77600862D01*
X114931393Y-77565927D01*
X114931393Y-77416714D01*
X114951078Y-77349675D01*
X115003882Y-77303920D01*
X115055393Y-77292714D01*
X115196943Y-77292714D01*
X115196945Y-77292714D01*
X115326274Y-77258061D01*
X115442226Y-77191115D01*
X115455286Y-77178055D01*
X117096500Y-77178055D01*
X117096500Y-77311945D01*
X117131153Y-77441274D01*
X117198099Y-77557226D01*
X117292774Y-77651901D01*
X117408726Y-77718847D01*
X117538055Y-77753500D01*
X117538057Y-77753500D01*
X117671943Y-77753500D01*
X117671945Y-77753500D01*
X117801274Y-77718847D01*
X117917226Y-77651901D01*
X118011901Y-77557226D01*
X118078847Y-77441274D01*
X118113500Y-77311945D01*
X118113500Y-77178055D01*
X118078847Y-77048726D01*
X118011901Y-76932774D01*
X117917226Y-76838099D01*
X117801274Y-76771153D01*
X117671945Y-76736500D01*
X117538055Y-76736500D01*
X117408725Y-76771153D01*
X117292774Y-76838099D01*
X117292771Y-76838101D01*
X117198101Y-76932771D01*
X117198099Y-76932774D01*
X117131153Y-77048725D01*
X117106528Y-77140629D01*
X117096500Y-77178055D01*
X115455286Y-77178055D01*
X115536901Y-77096440D01*
X115603847Y-76980488D01*
X115638500Y-76851159D01*
X115638500Y-76717269D01*
X115638500Y-76709607D01*
X115658185Y-76642568D01*
X115710989Y-76596813D01*
X115762500Y-76585607D01*
X115904050Y-76585607D01*
X115904052Y-76585607D01*
X116033381Y-76550954D01*
X116047062Y-76543055D01*
X118401500Y-76543055D01*
X118401500Y-76676945D01*
X118436153Y-76806274D01*
X118503099Y-76922226D01*
X118597774Y-77016901D01*
X118713726Y-77083847D01*
X118843055Y-77118500D01*
X118843057Y-77118500D01*
X118976943Y-77118500D01*
X118976945Y-77118500D01*
X119106274Y-77083847D01*
X119222226Y-77016901D01*
X119316901Y-76922226D01*
X119383847Y-76806274D01*
X119418500Y-76676945D01*
X119418500Y-76543055D01*
X119383847Y-76413726D01*
X119316901Y-76297774D01*
X119222226Y-76203099D01*
X119106274Y-76136153D01*
X118976945Y-76101500D01*
X118843055Y-76101500D01*
X118713725Y-76136153D01*
X118597774Y-76203099D01*
X118597771Y-76203101D01*
X118503101Y-76297771D01*
X118503099Y-76297774D01*
X118436153Y-76413725D01*
X118415207Y-76491898D01*
X118401500Y-76543055D01*
X116047062Y-76543055D01*
X116149333Y-76484008D01*
X116244008Y-76389333D01*
X116310954Y-76273381D01*
X116345607Y-76144052D01*
X116345607Y-76010162D01*
X116345607Y-76002500D01*
X116365292Y-75935461D01*
X116418096Y-75889706D01*
X116469607Y-75878500D01*
X116611157Y-75878500D01*
X116611159Y-75878500D01*
X116740488Y-75843847D01*
X116856440Y-75776901D01*
X116951115Y-75682226D01*
X117018061Y-75566274D01*
X117052714Y-75436945D01*
X117052714Y-75303055D01*
X117449927Y-75303055D01*
X117449927Y-75436945D01*
X117484580Y-75566274D01*
X117551526Y-75682226D01*
X117646201Y-75776901D01*
X117762153Y-75843847D01*
X117891482Y-75878500D01*
X117891484Y-75878500D01*
X118025370Y-75878500D01*
X118025372Y-75878500D01*
X118154701Y-75843847D01*
X118270653Y-75776901D01*
X118365328Y-75682226D01*
X118432274Y-75566274D01*
X118466927Y-75436945D01*
X118466927Y-75303055D01*
X118432274Y-75173726D01*
X118365328Y-75057774D01*
X118270653Y-74963099D01*
X118154701Y-74896153D01*
X118025372Y-74861500D01*
X117891482Y-74861500D01*
X117762152Y-74896153D01*
X117646201Y-74963099D01*
X117646198Y-74963101D01*
X117551528Y-75057771D01*
X117551526Y-75057774D01*
X117484580Y-75173725D01*
X117470741Y-75225373D01*
X117449927Y-75303055D01*
X117052714Y-75303055D01*
X117018061Y-75173726D01*
X117016714Y-75171393D01*
X116987796Y-75121305D01*
X116971323Y-75053405D01*
X116994175Y-74987378D01*
X117007499Y-74971627D01*
X117016901Y-74962226D01*
X117083847Y-74846274D01*
X117118500Y-74716945D01*
X117118500Y-74583055D01*
X117083847Y-74453726D01*
X117016901Y-74337774D01*
X116922226Y-74243099D01*
X116806274Y-74176153D01*
X116676945Y-74141500D01*
X116543055Y-74141500D01*
X116413725Y-74176153D01*
X116297774Y-74243099D01*
X116297771Y-74243101D01*
X116203101Y-74337771D01*
X116203099Y-74337774D01*
X116136153Y-74453725D01*
X116130934Y-74473204D01*
X116101500Y-74583055D01*
X116101500Y-74716945D01*
X116134958Y-74841815D01*
X116136154Y-74846276D01*
X116136154Y-74846277D01*
X116166417Y-74898694D01*
X116182890Y-74966594D01*
X116160037Y-75032621D01*
X116146714Y-75048372D01*
X116137317Y-75057769D01*
X116137313Y-75057774D01*
X116070367Y-75173725D01*
X116035714Y-75303055D01*
X116035714Y-75444607D01*
X116033163Y-75453292D01*
X116034452Y-75462254D01*
X116023473Y-75486294D01*
X116016029Y-75511646D01*
X116009188Y-75517573D01*
X116005427Y-75525810D01*
X115983192Y-75540099D01*
X115963225Y-75557401D01*
X115952710Y-75559688D01*
X115946649Y-75563584D01*
X115911714Y-75568607D01*
X115762500Y-75568607D01*
X115695461Y-75548922D01*
X115649706Y-75496118D01*
X115638500Y-75444607D01*
X115638500Y-75303057D01*
X115638500Y-75303055D01*
X115603847Y-75173726D01*
X115536901Y-75057774D01*
X115442226Y-74963099D01*
X115326274Y-74896153D01*
X115196945Y-74861500D01*
X115063055Y-74861500D01*
X115055393Y-74861500D01*
X115050694Y-74860120D01*
X115045905Y-74861136D01*
X115017498Y-74850372D01*
X114988354Y-74841815D01*
X114985148Y-74838115D01*
X114980568Y-74836380D01*
X114962485Y-74811961D01*
X114942599Y-74789011D01*
X114941103Y-74783086D01*
X114938988Y-74780230D01*
X114935672Y-74761576D01*
X114931665Y-74745704D01*
X114930767Y-74732171D01*
X114931393Y-74729838D01*
X114931393Y-74595948D01*
X114918559Y-74548052D01*
X114917755Y-74535917D01*
X114922817Y-74513213D01*
X114923371Y-74489958D01*
X114930278Y-74479751D01*
X114932961Y-74467722D01*
X114949495Y-74451358D01*
X114962533Y-74432095D01*
X114973862Y-74427243D01*
X114982622Y-74418574D01*
X115005376Y-74413747D01*
X115026761Y-74404590D01*
X115043054Y-74405756D01*
X115050971Y-74404077D01*
X115058277Y-74406845D01*
X115062384Y-74407139D01*
X115062525Y-74406075D01*
X115070576Y-74407135D01*
X115070579Y-74407136D01*
X115070582Y-74407136D01*
X115189418Y-74407136D01*
X115189421Y-74407136D01*
X115304215Y-74376378D01*
X115407136Y-74316956D01*
X115491170Y-74232922D01*
X115550592Y-74130001D01*
X115581350Y-74015207D01*
X115581350Y-73896365D01*
X115565073Y-73835616D01*
X115566736Y-73765772D01*
X115579168Y-73747404D01*
X120614500Y-73747404D01*
X120614500Y-73872595D01*
X120638920Y-73995361D01*
X120638923Y-73995373D01*
X120686823Y-74111015D01*
X120686830Y-74111028D01*
X120756374Y-74215107D01*
X120756377Y-74215111D01*
X120844888Y-74303622D01*
X120844892Y-74303625D01*
X120948971Y-74373169D01*
X120948984Y-74373176D01*
X121046932Y-74413747D01*
X121064631Y-74421078D01*
X121180456Y-74444117D01*
X121187404Y-74445499D01*
X121187408Y-74445500D01*
X121187409Y-74445500D01*
X121312592Y-74445500D01*
X121312593Y-74445499D01*
X121435369Y-74421078D01*
X121536696Y-74379107D01*
X121551015Y-74373176D01*
X121551015Y-74373175D01*
X121551022Y-74373173D01*
X121655108Y-74303625D01*
X121743625Y-74215108D01*
X121813173Y-74111022D01*
X121861078Y-73995369D01*
X121885500Y-73872591D01*
X121885500Y-73747409D01*
X121862754Y-73633055D01*
X123391500Y-73633055D01*
X123391500Y-73766945D01*
X123424161Y-73888841D01*
X123426154Y-73896276D01*
X123426155Y-73896279D01*
X123482836Y-73994451D01*
X123485319Y-74001647D01*
X123488335Y-74005140D01*
X123491385Y-74019222D01*
X123498219Y-74039022D01*
X123499702Y-74049473D01*
X123499450Y-74050417D01*
X123499450Y-74155883D01*
X123526747Y-74257756D01*
X123530098Y-74263560D01*
X123532797Y-74282570D01*
X123529929Y-74302262D01*
X123532052Y-74322048D01*
X123528457Y-74334288D01*
X123528851Y-74334394D01*
X123526748Y-74342242D01*
X123526747Y-74342244D01*
X123499450Y-74444117D01*
X123499450Y-74444119D01*
X123499450Y-74543547D01*
X123482837Y-74605548D01*
X123426153Y-74703724D01*
X123414905Y-74745704D01*
X123391500Y-74833055D01*
X123391500Y-74966945D01*
X123423457Y-75086214D01*
X123426154Y-75096276D01*
X123426155Y-75096279D01*
X123482836Y-75194451D01*
X123485319Y-75201647D01*
X123488335Y-75205140D01*
X123491385Y-75219222D01*
X123498219Y-75239022D01*
X123499702Y-75249473D01*
X123499450Y-75250417D01*
X123499450Y-75355883D01*
X123526747Y-75457756D01*
X123530098Y-75463560D01*
X123532797Y-75482570D01*
X123529929Y-75502262D01*
X123532052Y-75522048D01*
X123528457Y-75534288D01*
X123528851Y-75534394D01*
X123526748Y-75542242D01*
X123526747Y-75542244D01*
X123499450Y-75644117D01*
X123499450Y-75644119D01*
X123499450Y-75743547D01*
X123482837Y-75805548D01*
X123426153Y-75903724D01*
X123406678Y-75976408D01*
X123391500Y-76033055D01*
X123391500Y-76166945D01*
X123417872Y-76265370D01*
X123426154Y-76296276D01*
X123426155Y-76296279D01*
X123482836Y-76394451D01*
X123485319Y-76401647D01*
X123488335Y-76405140D01*
X123491385Y-76419222D01*
X123498219Y-76439022D01*
X123499702Y-76449473D01*
X123499450Y-76450417D01*
X123499450Y-76555883D01*
X123526747Y-76657756D01*
X123530098Y-76663560D01*
X123532797Y-76682570D01*
X123529929Y-76702262D01*
X123532052Y-76722048D01*
X123528457Y-76734288D01*
X123528851Y-76734394D01*
X123526748Y-76742242D01*
X123526747Y-76742244D01*
X123499450Y-76844117D01*
X123499450Y-76844119D01*
X123499450Y-76943547D01*
X123482837Y-77005548D01*
X123426153Y-77103724D01*
X123398338Y-77207535D01*
X123391500Y-77233055D01*
X123391500Y-77366945D01*
X123414584Y-77453099D01*
X123426154Y-77496276D01*
X123426155Y-77496279D01*
X123482836Y-77594451D01*
X123485319Y-77601647D01*
X123488335Y-77605140D01*
X123491385Y-77619222D01*
X123498219Y-77639022D01*
X123499702Y-77649473D01*
X123499450Y-77650417D01*
X123499450Y-77755883D01*
X123526747Y-77857756D01*
X123530098Y-77863560D01*
X123532797Y-77882570D01*
X123529929Y-77902262D01*
X123532052Y-77922048D01*
X123528457Y-77934288D01*
X123528851Y-77934394D01*
X123526748Y-77942242D01*
X123526747Y-77942244D01*
X123499450Y-78044117D01*
X123499450Y-78044119D01*
X123499450Y-78143547D01*
X123482837Y-78205548D01*
X123426153Y-78303724D01*
X123399538Y-78403055D01*
X123391500Y-78433055D01*
X123391500Y-78566945D01*
X123425470Y-78693726D01*
X123426154Y-78696276D01*
X123426155Y-78696279D01*
X123482836Y-78794451D01*
X123485319Y-78801647D01*
X123488335Y-78805140D01*
X123491385Y-78819222D01*
X123498219Y-78839022D01*
X123499702Y-78849473D01*
X123499450Y-78850417D01*
X123499450Y-78955883D01*
X123526747Y-79057756D01*
X123530098Y-79063560D01*
X123532797Y-79082570D01*
X123529929Y-79102262D01*
X123532052Y-79122048D01*
X123528457Y-79134288D01*
X123528851Y-79134394D01*
X123526748Y-79142242D01*
X123526747Y-79142244D01*
X123499450Y-79244117D01*
X123499450Y-79244119D01*
X123499450Y-79343547D01*
X123482837Y-79405548D01*
X123426153Y-79503724D01*
X123391500Y-79633055D01*
X123391500Y-79766944D01*
X123426153Y-79896275D01*
X123483692Y-79995933D01*
X123500165Y-80063833D01*
X123499450Y-80071828D01*
X123499450Y-80072564D01*
X123499450Y-80178030D01*
X123526747Y-80279903D01*
X123526748Y-80279904D01*
X123528851Y-80287753D01*
X123526239Y-80288452D01*
X123532543Y-80341281D01*
X123529744Y-80359198D01*
X123526747Y-80364391D01*
X123499450Y-80466264D01*
X123499450Y-80553173D01*
X123497965Y-80562682D01*
X123489526Y-80580582D01*
X123482836Y-80605549D01*
X123426155Y-80703720D01*
X123426154Y-80703723D01*
X123426154Y-80703724D01*
X123426153Y-80703726D01*
X123391500Y-80833055D01*
X123391500Y-80966945D01*
X123425774Y-81094860D01*
X123426154Y-81096276D01*
X123426155Y-81096279D01*
X123482836Y-81194451D01*
X123485319Y-81201647D01*
X123488335Y-81205140D01*
X123491385Y-81219222D01*
X123498219Y-81239022D01*
X123499702Y-81249473D01*
X123499450Y-81250417D01*
X123499450Y-81355883D01*
X123526747Y-81457756D01*
X123530098Y-81463560D01*
X123532797Y-81482570D01*
X123529929Y-81502262D01*
X123532052Y-81522048D01*
X123528457Y-81534288D01*
X123528851Y-81534394D01*
X123526748Y-81542242D01*
X123526747Y-81542244D01*
X123499450Y-81644117D01*
X123499450Y-81644119D01*
X123499450Y-81743547D01*
X123482837Y-81805548D01*
X123426153Y-81903724D01*
X123405360Y-81981327D01*
X123391500Y-82033055D01*
X123391500Y-82166945D01*
X123425774Y-82294860D01*
X123426154Y-82296276D01*
X123426155Y-82296279D01*
X123473746Y-82378707D01*
X123477314Y-82390305D01*
X123482457Y-82397147D01*
X123486821Y-82421204D01*
X123490026Y-82431619D01*
X123490871Y-82443125D01*
X123490360Y-82445035D01*
X123490360Y-82550501D01*
X123501939Y-82593716D01*
X123502798Y-82605403D01*
X123497807Y-82628565D01*
X123497243Y-82652250D01*
X123488392Y-82672257D01*
X123488081Y-82673705D01*
X123487490Y-82674298D01*
X123486521Y-82676489D01*
X123464403Y-82714800D01*
X123464402Y-82714801D01*
X123433210Y-82831212D01*
X123433210Y-82951729D01*
X123445497Y-82997585D01*
X123443833Y-83067434D01*
X123433112Y-83091672D01*
X123426153Y-83103725D01*
X123426153Y-83103726D01*
X123391500Y-83233055D01*
X123391500Y-83366945D01*
X123426153Y-83496274D01*
X123493099Y-83612226D01*
X123587774Y-83706901D01*
X123703726Y-83773847D01*
X123833055Y-83808500D01*
X123833057Y-83808500D01*
X123966943Y-83808500D01*
X123966945Y-83808500D01*
X124096274Y-83773847D01*
X124212226Y-83706901D01*
X124306901Y-83612226D01*
X124373847Y-83496274D01*
X124408500Y-83366945D01*
X124408500Y-83233055D01*
X124373847Y-83103726D01*
X124373485Y-83103099D01*
X124354473Y-83070168D01*
X124338000Y-83002268D01*
X124342083Y-82976079D01*
X124348610Y-82951725D01*
X124348610Y-82831211D01*
X124317418Y-82714803D01*
X124295300Y-82676493D01*
X124278827Y-82608592D01*
X124279184Y-82603407D01*
X124280141Y-82592742D01*
X124291460Y-82550501D01*
X124291460Y-82466647D01*
X124291957Y-82461111D01*
X124299698Y-82441451D01*
X124308073Y-82410196D01*
X124373847Y-82296274D01*
X124408500Y-82166945D01*
X124408500Y-82033055D01*
X124373847Y-81903726D01*
X124347855Y-81858708D01*
X124317163Y-81805548D01*
X124314679Y-81798350D01*
X124311665Y-81794860D01*
X124308615Y-81780780D01*
X124301781Y-81760978D01*
X124300297Y-81750526D01*
X124300550Y-81749583D01*
X124300550Y-81644117D01*
X124273253Y-81542244D01*
X124269900Y-81536437D01*
X124267202Y-81517431D01*
X124270065Y-81497760D01*
X124267939Y-81477997D01*
X124271545Y-81465712D01*
X124271149Y-81465606D01*
X124273251Y-81457757D01*
X124273253Y-81457756D01*
X124300550Y-81355883D01*
X124300550Y-81256451D01*
X124317163Y-81194451D01*
X124368493Y-81105548D01*
X124373846Y-81096276D01*
X124373847Y-81096274D01*
X124408500Y-80966945D01*
X124408500Y-80833055D01*
X124373847Y-80703726D01*
X124317163Y-80605548D01*
X124302035Y-80562682D01*
X124300550Y-80553173D01*
X124300550Y-80466264D01*
X124273253Y-80364391D01*
X124270253Y-80359196D01*
X124267456Y-80341282D01*
X124270155Y-80320740D01*
X124267939Y-80300144D01*
X124271545Y-80287859D01*
X124271149Y-80287753D01*
X124273251Y-80279904D01*
X124273253Y-80279903D01*
X124300550Y-80178030D01*
X124300550Y-80072564D01*
X124300550Y-80064437D01*
X124302268Y-80064437D01*
X124311512Y-80005102D01*
X124316298Y-79995949D01*
X124368493Y-79905548D01*
X124373846Y-79896276D01*
X124373847Y-79896274D01*
X124408500Y-79766945D01*
X124408500Y-79633055D01*
X124373847Y-79503726D01*
X124317163Y-79405548D01*
X124314679Y-79398350D01*
X124311665Y-79394860D01*
X124308615Y-79380780D01*
X124301781Y-79360978D01*
X124300297Y-79350526D01*
X124300550Y-79349583D01*
X124300550Y-79244117D01*
X124273253Y-79142244D01*
X124269900Y-79136437D01*
X124267202Y-79117431D01*
X124270065Y-79097760D01*
X124267939Y-79077997D01*
X124271545Y-79065712D01*
X124271149Y-79065606D01*
X124273251Y-79057757D01*
X124273253Y-79057756D01*
X124300550Y-78955883D01*
X124300550Y-78933055D01*
X132901500Y-78933055D01*
X132901500Y-79066945D01*
X132932823Y-79183847D01*
X132936154Y-79196276D01*
X132936155Y-79196279D01*
X132992836Y-79294451D01*
X132995319Y-79301647D01*
X132998335Y-79305140D01*
X133001385Y-79319222D01*
X133008219Y-79339022D01*
X133009702Y-79349473D01*
X133009450Y-79350417D01*
X133009450Y-79455883D01*
X133036747Y-79557756D01*
X133040098Y-79563560D01*
X133042797Y-79582570D01*
X133039929Y-79602262D01*
X133042052Y-79622048D01*
X133038457Y-79634288D01*
X133038851Y-79634394D01*
X133036748Y-79642242D01*
X133036747Y-79642244D01*
X133009450Y-79744117D01*
X133009450Y-79744119D01*
X133009450Y-79843547D01*
X132992837Y-79905548D01*
X132936153Y-80003724D01*
X132919886Y-80064437D01*
X132901500Y-80133055D01*
X132901500Y-80266945D01*
X132935593Y-80394185D01*
X132936154Y-80396276D01*
X132936155Y-80396279D01*
X132992836Y-80494451D01*
X132995319Y-80501647D01*
X132998335Y-80505140D01*
X133001385Y-80519222D01*
X133008219Y-80539022D01*
X133009702Y-80549473D01*
X133009450Y-80550417D01*
X133009450Y-80655883D01*
X133036747Y-80757756D01*
X133040098Y-80763560D01*
X133042797Y-80782570D01*
X133039929Y-80802262D01*
X133042052Y-80822048D01*
X133038457Y-80834288D01*
X133038851Y-80834394D01*
X133036748Y-80842242D01*
X133036747Y-80842244D01*
X133009450Y-80944117D01*
X133009450Y-80944119D01*
X133009450Y-81043547D01*
X132992837Y-81105548D01*
X132936153Y-81203724D01*
X132903652Y-81325024D01*
X132901500Y-81333055D01*
X132901500Y-81466945D01*
X132928025Y-81565941D01*
X132936154Y-81596276D01*
X132936155Y-81596279D01*
X132992836Y-81694451D01*
X132995319Y-81701647D01*
X132998335Y-81705140D01*
X133001385Y-81719222D01*
X133008219Y-81739022D01*
X133009702Y-81749473D01*
X133009450Y-81750417D01*
X133009450Y-81855883D01*
X133036747Y-81957756D01*
X133040098Y-81963560D01*
X133042797Y-81982570D01*
X133039929Y-82002262D01*
X133042052Y-82022048D01*
X133038457Y-82034288D01*
X133038851Y-82034394D01*
X133036748Y-82042242D01*
X133036747Y-82042244D01*
X133009450Y-82144117D01*
X133009450Y-82144119D01*
X133009450Y-82243547D01*
X132992837Y-82305548D01*
X132936153Y-82403724D01*
X132925084Y-82445035D01*
X132901500Y-82533055D01*
X132901500Y-82666945D01*
X132934649Y-82790662D01*
X132936154Y-82796276D01*
X132936155Y-82796279D01*
X132992836Y-82894451D01*
X132995319Y-82901647D01*
X132998335Y-82905140D01*
X133001385Y-82919222D01*
X133008219Y-82939022D01*
X133009702Y-82949473D01*
X133009450Y-82950417D01*
X133009450Y-83055883D01*
X133036747Y-83157756D01*
X133040098Y-83163560D01*
X133042797Y-83182570D01*
X133039929Y-83202262D01*
X133042052Y-83222048D01*
X133038457Y-83234288D01*
X133038851Y-83234394D01*
X133036748Y-83242242D01*
X133036747Y-83242244D01*
X133009450Y-83344117D01*
X133009450Y-83344119D01*
X133009450Y-83443547D01*
X132992837Y-83505548D01*
X132936153Y-83603724D01*
X132913745Y-83687355D01*
X132901500Y-83733055D01*
X132901500Y-83866945D01*
X132932823Y-83983847D01*
X132936154Y-83996276D01*
X132936155Y-83996279D01*
X132992836Y-84094451D01*
X132995319Y-84101647D01*
X132998335Y-84105140D01*
X133001385Y-84119222D01*
X133008219Y-84139022D01*
X133009702Y-84149473D01*
X133009450Y-84150417D01*
X133009450Y-84255883D01*
X133036747Y-84357756D01*
X133040098Y-84363560D01*
X133042797Y-84382570D01*
X133039929Y-84402262D01*
X133042052Y-84422048D01*
X133038457Y-84434288D01*
X133038851Y-84434394D01*
X133036748Y-84442242D01*
X133036747Y-84442244D01*
X133009450Y-84544117D01*
X133009450Y-84544119D01*
X133009450Y-84643547D01*
X132992837Y-84705548D01*
X132936153Y-84803724D01*
X132923291Y-84851729D01*
X132901500Y-84933055D01*
X132901500Y-85066945D01*
X132910777Y-85101569D01*
X132936154Y-85196276D01*
X132936155Y-85196279D01*
X132992836Y-85294451D01*
X132995319Y-85301647D01*
X132998335Y-85305140D01*
X133001385Y-85319222D01*
X133008219Y-85339022D01*
X133009702Y-85349473D01*
X133009450Y-85350417D01*
X133009450Y-85455883D01*
X133036747Y-85557756D01*
X133040098Y-85563560D01*
X133042797Y-85582570D01*
X133039929Y-85602262D01*
X133042052Y-85622048D01*
X133038457Y-85634288D01*
X133038851Y-85634394D01*
X133036748Y-85642242D01*
X133036747Y-85642244D01*
X133009450Y-85744117D01*
X133009450Y-85744119D01*
X133009450Y-85857710D01*
X133006608Y-85857710D01*
X132997952Y-85913152D01*
X132993175Y-85922281D01*
X132946154Y-86003722D01*
X132946154Y-86003723D01*
X132946154Y-86003724D01*
X132946153Y-86003726D01*
X132911500Y-86133055D01*
X132911500Y-86266945D01*
X132928826Y-86331609D01*
X132946153Y-86396275D01*
X132993175Y-86477717D01*
X133008841Y-86542291D01*
X133009450Y-86542291D01*
X133009450Y-86544800D01*
X133009648Y-86545617D01*
X133009450Y-86547832D01*
X133009450Y-86550417D01*
X133009450Y-86655883D01*
X133036747Y-86757756D01*
X133036748Y-86757757D01*
X133038851Y-86765606D01*
X133036078Y-86766349D01*
X133042052Y-86822048D01*
X133038457Y-86834288D01*
X133038851Y-86834394D01*
X133036748Y-86842242D01*
X133036747Y-86842244D01*
X133009450Y-86944117D01*
X133009450Y-86944119D01*
X133009450Y-87057710D01*
X133006608Y-87057710D01*
X132997952Y-87113152D01*
X132993175Y-87122281D01*
X132946154Y-87203722D01*
X132946154Y-87203723D01*
X132946153Y-87203725D01*
X132946153Y-87203726D01*
X132911500Y-87333055D01*
X132911500Y-87466945D01*
X132913695Y-87475136D01*
X132946153Y-87596275D01*
X132993175Y-87677717D01*
X133008841Y-87742291D01*
X133009450Y-87742291D01*
X133009450Y-87744800D01*
X133009648Y-87745617D01*
X133009450Y-87747832D01*
X133009450Y-87750417D01*
X133009450Y-87855883D01*
X133036747Y-87957756D01*
X133036748Y-87957757D01*
X133038851Y-87965606D01*
X133036078Y-87966349D01*
X133042052Y-88022048D01*
X133038457Y-88034288D01*
X133038851Y-88034394D01*
X133036748Y-88042242D01*
X133036747Y-88042244D01*
X133009450Y-88144117D01*
X133009450Y-88144119D01*
X133009450Y-88257710D01*
X133006608Y-88257710D01*
X132997952Y-88313152D01*
X132993175Y-88322281D01*
X132946154Y-88403722D01*
X132946154Y-88403723D01*
X132911500Y-88533055D01*
X132911500Y-88666944D01*
X132946153Y-88796275D01*
X132993175Y-88877717D01*
X133008841Y-88942291D01*
X133009450Y-88942291D01*
X133009450Y-88944800D01*
X133009648Y-88945617D01*
X133009450Y-88947832D01*
X133009450Y-88950417D01*
X133009450Y-89055883D01*
X133036747Y-89157756D01*
X133036748Y-89157757D01*
X133038851Y-89165606D01*
X133036078Y-89166349D01*
X133042052Y-89222048D01*
X133038457Y-89234288D01*
X133038851Y-89234394D01*
X133036748Y-89242242D01*
X133036747Y-89242244D01*
X133009450Y-89344117D01*
X133009450Y-89344119D01*
X133009450Y-89457710D01*
X133006608Y-89457710D01*
X132997952Y-89513152D01*
X132993175Y-89522281D01*
X132946154Y-89603722D01*
X132946154Y-89603723D01*
X132946154Y-89603724D01*
X132946153Y-89603726D01*
X132911500Y-89733055D01*
X132911500Y-89866945D01*
X132944548Y-89990285D01*
X132946154Y-89996276D01*
X132946155Y-89996279D01*
X133004577Y-90097466D01*
X133019929Y-90141823D01*
X133021191Y-90150601D01*
X133021191Y-90255883D01*
X133048488Y-90357756D01*
X133051793Y-90363481D01*
X133054507Y-90382356D01*
X133051659Y-90402156D01*
X133053793Y-90422048D01*
X133050198Y-90434288D01*
X133050592Y-90434394D01*
X133048489Y-90442242D01*
X133048488Y-90442244D01*
X133021191Y-90544117D01*
X133021191Y-90544119D01*
X133021191Y-90640531D01*
X133004578Y-90702531D01*
X132946154Y-90803722D01*
X132946154Y-90803723D01*
X132946154Y-90803724D01*
X132946153Y-90803726D01*
X132911500Y-90933055D01*
X132911500Y-91066945D01*
X132946153Y-91196274D01*
X133013099Y-91312226D01*
X133107774Y-91406901D01*
X133223726Y-91473847D01*
X133353055Y-91508500D01*
X133353057Y-91508500D01*
X133486943Y-91508500D01*
X133486945Y-91508500D01*
X133616274Y-91473847D01*
X133732226Y-91406901D01*
X133826901Y-91312226D01*
X133893847Y-91196274D01*
X133928500Y-91066945D01*
X133928500Y-90933055D01*
X133893847Y-90803726D01*
X133879625Y-90779094D01*
X133850031Y-90727836D01*
X133838903Y-90708562D01*
X133836385Y-90701247D01*
X133833319Y-90697683D01*
X133830227Y-90683354D01*
X133823493Y-90663785D01*
X133821772Y-90651517D01*
X133822291Y-90649583D01*
X133822291Y-90544117D01*
X133794994Y-90442244D01*
X133791598Y-90436362D01*
X133788914Y-90417222D01*
X133791795Y-90397658D01*
X133789680Y-90377997D01*
X133793286Y-90365712D01*
X133792890Y-90365606D01*
X133794992Y-90357757D01*
X133794994Y-90357756D01*
X133822291Y-90255883D01*
X133822291Y-90153436D01*
X133838905Y-90091435D01*
X133893844Y-89996279D01*
X133893843Y-89996279D01*
X133893847Y-89996274D01*
X133928500Y-89866945D01*
X133928500Y-89733055D01*
X133893847Y-89603726D01*
X133827162Y-89488227D01*
X133811974Y-89444963D01*
X133810550Y-89435646D01*
X133810550Y-89344117D01*
X133783253Y-89242244D01*
X133780172Y-89236908D01*
X133777395Y-89218736D01*
X133780134Y-89198400D01*
X133777939Y-89177997D01*
X133781545Y-89165712D01*
X133781149Y-89165606D01*
X133783251Y-89157757D01*
X133783253Y-89157756D01*
X133810550Y-89055883D01*
X133810550Y-88973773D01*
X133827163Y-88911772D01*
X133876415Y-88826466D01*
X133893847Y-88796274D01*
X133928500Y-88666945D01*
X133928500Y-88533055D01*
X133893847Y-88403726D01*
X133827162Y-88288227D01*
X133811974Y-88244963D01*
X133810550Y-88235646D01*
X133810550Y-88144117D01*
X133783253Y-88042244D01*
X133780172Y-88036908D01*
X133777395Y-88018736D01*
X133780134Y-87998400D01*
X133777939Y-87977997D01*
X133781545Y-87965712D01*
X133781149Y-87965606D01*
X133783251Y-87957757D01*
X133783253Y-87957756D01*
X133810550Y-87855883D01*
X133810550Y-87773773D01*
X133827163Y-87711772D01*
X133832673Y-87702228D01*
X133893847Y-87596274D01*
X133928500Y-87466945D01*
X133928500Y-87333055D01*
X133893847Y-87203726D01*
X133891264Y-87199253D01*
X133833396Y-87099023D01*
X133827162Y-87088227D01*
X133811974Y-87044963D01*
X133810550Y-87035646D01*
X133810550Y-86944117D01*
X133783253Y-86842244D01*
X133780172Y-86836908D01*
X133777395Y-86818736D01*
X133780134Y-86798400D01*
X133777939Y-86777997D01*
X133781545Y-86765712D01*
X133781149Y-86765606D01*
X133783251Y-86757757D01*
X133783253Y-86757756D01*
X133810550Y-86655883D01*
X133810550Y-86573773D01*
X133827163Y-86511772D01*
X133893847Y-86396274D01*
X133928500Y-86266945D01*
X133928500Y-86133055D01*
X133893847Y-86003726D01*
X133827162Y-85888227D01*
X133811974Y-85844963D01*
X133810550Y-85835646D01*
X133810550Y-85744117D01*
X133783253Y-85642244D01*
X133780172Y-85636908D01*
X133777395Y-85618736D01*
X133780134Y-85598400D01*
X133777939Y-85577997D01*
X133781545Y-85565712D01*
X133781149Y-85565606D01*
X133783251Y-85557757D01*
X133783253Y-85557756D01*
X133810550Y-85455883D01*
X133810550Y-85356451D01*
X133827163Y-85294451D01*
X133882779Y-85198124D01*
X133883846Y-85196276D01*
X133883847Y-85196274D01*
X133918500Y-85066945D01*
X133918500Y-84933055D01*
X133883847Y-84803726D01*
X133827163Y-84705548D01*
X133824679Y-84698350D01*
X133821665Y-84694860D01*
X133818615Y-84680780D01*
X133811781Y-84660978D01*
X133810297Y-84650526D01*
X133810550Y-84649583D01*
X133810550Y-84544117D01*
X133783253Y-84442244D01*
X133779900Y-84436437D01*
X133777202Y-84417431D01*
X133780065Y-84397760D01*
X133777939Y-84377997D01*
X133781545Y-84365712D01*
X133781149Y-84365606D01*
X133783251Y-84357757D01*
X133783253Y-84357756D01*
X133810550Y-84255883D01*
X133810550Y-84156451D01*
X133827163Y-84094451D01*
X133883847Y-83996274D01*
X133918500Y-83866945D01*
X133918500Y-83733055D01*
X133883847Y-83603726D01*
X133871871Y-83582984D01*
X133827163Y-83505548D01*
X133824679Y-83498350D01*
X133821665Y-83494860D01*
X133818615Y-83480780D01*
X133811781Y-83460978D01*
X133810297Y-83450526D01*
X133810550Y-83449583D01*
X133810550Y-83344117D01*
X133783253Y-83242244D01*
X133779900Y-83236437D01*
X133777202Y-83217431D01*
X133780065Y-83197760D01*
X133777939Y-83177997D01*
X133781545Y-83165712D01*
X133781149Y-83165606D01*
X133783251Y-83157757D01*
X133783253Y-83157756D01*
X133810550Y-83055883D01*
X133810550Y-82956451D01*
X133827163Y-82894451D01*
X133883847Y-82796274D01*
X133918500Y-82666945D01*
X133918500Y-82533055D01*
X133883847Y-82403726D01*
X133855676Y-82354934D01*
X133827163Y-82305548D01*
X133824679Y-82298350D01*
X133821665Y-82294860D01*
X133818615Y-82280780D01*
X133811781Y-82260978D01*
X133810297Y-82250526D01*
X133810550Y-82249583D01*
X133810550Y-82144117D01*
X133783253Y-82042244D01*
X133779900Y-82036437D01*
X133777202Y-82017431D01*
X133780065Y-81997760D01*
X133777939Y-81977997D01*
X133781545Y-81965712D01*
X133781149Y-81965606D01*
X133783251Y-81957757D01*
X133783253Y-81957756D01*
X133810550Y-81855883D01*
X133810550Y-81756451D01*
X133827163Y-81694451D01*
X133883847Y-81596274D01*
X133918500Y-81466945D01*
X133918500Y-81333055D01*
X133883847Y-81203726D01*
X133861598Y-81165191D01*
X133827163Y-81105548D01*
X133824679Y-81098350D01*
X133821665Y-81094860D01*
X133818615Y-81080780D01*
X133811781Y-81060978D01*
X133810297Y-81050526D01*
X133810550Y-81049583D01*
X133810550Y-80944117D01*
X133783253Y-80842244D01*
X133779900Y-80836437D01*
X133777202Y-80817431D01*
X133780065Y-80797760D01*
X133777939Y-80777997D01*
X133781545Y-80765712D01*
X133781149Y-80765606D01*
X133783251Y-80757757D01*
X133783253Y-80757756D01*
X133810550Y-80655883D01*
X133810550Y-80556451D01*
X133827163Y-80494451D01*
X133883847Y-80396274D01*
X133918500Y-80266945D01*
X133918500Y-80133055D01*
X133883847Y-80003726D01*
X133827163Y-79905548D01*
X133824679Y-79898350D01*
X133821665Y-79894860D01*
X133818615Y-79880780D01*
X133811781Y-79860978D01*
X133810297Y-79850526D01*
X133810550Y-79849583D01*
X133810550Y-79744117D01*
X133783253Y-79642244D01*
X133779900Y-79636437D01*
X133777202Y-79617431D01*
X133780065Y-79597760D01*
X133777939Y-79577997D01*
X133781545Y-79565712D01*
X133781149Y-79565606D01*
X133783251Y-79557757D01*
X133783253Y-79557756D01*
X133810550Y-79455883D01*
X133810550Y-79356451D01*
X133827163Y-79294451D01*
X133873837Y-79213609D01*
X133883846Y-79196276D01*
X133883847Y-79196274D01*
X133918500Y-79066945D01*
X133918500Y-78933055D01*
X133883847Y-78803726D01*
X133816901Y-78687774D01*
X133722226Y-78593099D01*
X133606274Y-78526153D01*
X133476945Y-78491500D01*
X133343055Y-78491500D01*
X133213725Y-78526153D01*
X133097774Y-78593099D01*
X133097771Y-78593101D01*
X133003101Y-78687771D01*
X133003099Y-78687774D01*
X132936153Y-78803725D01*
X132920520Y-78862071D01*
X132901500Y-78933055D01*
X124300550Y-78933055D01*
X124300550Y-78856451D01*
X124317163Y-78794451D01*
X124373847Y-78696274D01*
X124408500Y-78566945D01*
X124408500Y-78433055D01*
X124373847Y-78303726D01*
X124352867Y-78267389D01*
X124317163Y-78205548D01*
X124314679Y-78198350D01*
X124311665Y-78194860D01*
X124308615Y-78180780D01*
X124301781Y-78160978D01*
X124300297Y-78150526D01*
X124300550Y-78149583D01*
X124300550Y-78044117D01*
X124273253Y-77942244D01*
X124269900Y-77936437D01*
X124267202Y-77917431D01*
X124270065Y-77897760D01*
X124267939Y-77877997D01*
X124271545Y-77865712D01*
X124271149Y-77865606D01*
X124273251Y-77857757D01*
X124273253Y-77857756D01*
X124300550Y-77755883D01*
X124300550Y-77656451D01*
X124317163Y-77594451D01*
X124373847Y-77496274D01*
X124408500Y-77366945D01*
X124408500Y-77233055D01*
X124373847Y-77103726D01*
X124369640Y-77096440D01*
X124317163Y-77005548D01*
X124314679Y-76998350D01*
X124311665Y-76994860D01*
X124308615Y-76980780D01*
X124301781Y-76960978D01*
X124300297Y-76950526D01*
X124300550Y-76949583D01*
X124300550Y-76844117D01*
X124273253Y-76742244D01*
X124269900Y-76736437D01*
X124267202Y-76717431D01*
X124270065Y-76697760D01*
X124267939Y-76677997D01*
X124271545Y-76665712D01*
X124271149Y-76665606D01*
X124273251Y-76657757D01*
X124273253Y-76657756D01*
X124300550Y-76555883D01*
X124300550Y-76456451D01*
X124317163Y-76394451D01*
X124373847Y-76296274D01*
X124408500Y-76166945D01*
X124408500Y-76033055D01*
X124373847Y-75903726D01*
X124366349Y-75890740D01*
X124317163Y-75805548D01*
X124314679Y-75798350D01*
X124311665Y-75794860D01*
X124308615Y-75780780D01*
X124301781Y-75760978D01*
X124300297Y-75750526D01*
X124300550Y-75749583D01*
X124300550Y-75644117D01*
X124273253Y-75542244D01*
X124269900Y-75536437D01*
X124267202Y-75517431D01*
X124270065Y-75497760D01*
X124267939Y-75477997D01*
X124271545Y-75465712D01*
X124271149Y-75465606D01*
X124273251Y-75457757D01*
X124273253Y-75457756D01*
X124300550Y-75355883D01*
X124300550Y-75256451D01*
X124317163Y-75194451D01*
X124373847Y-75096274D01*
X124408500Y-74966945D01*
X124408500Y-74833055D01*
X124373847Y-74703726D01*
X124317163Y-74605548D01*
X124314679Y-74598350D01*
X124311665Y-74594860D01*
X124308615Y-74580780D01*
X124301781Y-74560978D01*
X124300297Y-74550526D01*
X124300550Y-74549583D01*
X124300550Y-74444117D01*
X124273253Y-74342244D01*
X124269900Y-74336437D01*
X124267202Y-74317431D01*
X124270065Y-74297760D01*
X124267939Y-74277997D01*
X124271545Y-74265712D01*
X124271149Y-74265606D01*
X124273251Y-74257757D01*
X124273253Y-74257756D01*
X124300550Y-74155883D01*
X124300550Y-74056451D01*
X124317163Y-73994451D01*
X124373794Y-73896366D01*
X124373846Y-73896276D01*
X124375838Y-73888843D01*
X124408500Y-73766945D01*
X124408500Y-73633055D01*
X124373847Y-73503726D01*
X124306901Y-73387774D01*
X124212226Y-73293099D01*
X124096274Y-73226153D01*
X123966945Y-73191500D01*
X123833055Y-73191500D01*
X123703725Y-73226153D01*
X123587774Y-73293099D01*
X123587771Y-73293101D01*
X123493101Y-73387771D01*
X123493099Y-73387774D01*
X123426153Y-73503725D01*
X123393757Y-73624631D01*
X123391500Y-73633055D01*
X121862754Y-73633055D01*
X121861078Y-73624631D01*
X121848646Y-73594618D01*
X121813176Y-73508984D01*
X121813169Y-73508971D01*
X121743625Y-73404892D01*
X121743622Y-73404888D01*
X121655111Y-73316377D01*
X121655107Y-73316374D01*
X121551028Y-73246830D01*
X121551015Y-73246823D01*
X121435373Y-73198923D01*
X121435361Y-73198920D01*
X121312595Y-73174500D01*
X121312591Y-73174500D01*
X121187409Y-73174500D01*
X121187404Y-73174500D01*
X121064638Y-73198920D01*
X121064626Y-73198923D01*
X120948984Y-73246823D01*
X120948971Y-73246830D01*
X120844892Y-73316374D01*
X120844888Y-73316377D01*
X120756377Y-73404888D01*
X120756374Y-73404892D01*
X120686830Y-73508971D01*
X120686823Y-73508984D01*
X120638923Y-73624626D01*
X120638920Y-73624638D01*
X120614500Y-73747404D01*
X115579168Y-73747404D01*
X115605898Y-73707909D01*
X115670127Y-73680405D01*
X115716936Y-73683752D01*
X115777686Y-73700030D01*
X115777689Y-73700030D01*
X115896525Y-73700030D01*
X115896528Y-73700030D01*
X116011322Y-73669272D01*
X116114243Y-73609850D01*
X116198277Y-73525816D01*
X116257699Y-73422895D01*
X116288457Y-73308101D01*
X116288457Y-73189259D01*
X116257699Y-73074465D01*
X116198277Y-72971544D01*
X116114243Y-72887510D01*
X116011322Y-72828088D01*
X115896528Y-72797330D01*
X115777686Y-72797330D01*
X115662892Y-72828088D01*
X115662891Y-72828088D01*
X115662889Y-72828089D01*
X115559971Y-72887510D01*
X115559968Y-72887512D01*
X115475939Y-72971541D01*
X115475937Y-72971544D01*
X115416516Y-73074462D01*
X115416515Y-73074464D01*
X115416515Y-73074465D01*
X115394568Y-73156377D01*
X115385757Y-73189260D01*
X115385757Y-73308102D01*
X115402033Y-73368845D01*
X115400370Y-73438694D01*
X115361207Y-73496557D01*
X115296978Y-73524060D01*
X115250166Y-73520712D01*
X115189422Y-73504436D01*
X115189421Y-73504436D01*
X115070579Y-73504436D01*
X114955785Y-73535194D01*
X114955784Y-73535194D01*
X114955782Y-73535195D01*
X114852864Y-73594616D01*
X114852861Y-73594618D01*
X114768832Y-73678647D01*
X114768830Y-73678650D01*
X114709409Y-73781568D01*
X114709408Y-73781570D01*
X114709408Y-73781571D01*
X114678650Y-73896365D01*
X114678650Y-74015207D01*
X114678651Y-74015210D01*
X114679711Y-74023261D01*
X114677578Y-74023541D01*
X114676181Y-74082066D01*
X114637015Y-74139926D01*
X114572785Y-74167426D01*
X114549869Y-74168030D01*
X114537728Y-74167225D01*
X114489838Y-74154393D01*
X114355948Y-74154393D01*
X114353614Y-74155018D01*
X114340083Y-74154121D01*
X114310983Y-74143439D01*
X114281247Y-74134708D01*
X114278472Y-74131506D01*
X114274492Y-74130045D01*
X114255780Y-74105318D01*
X114235492Y-74081904D01*
X114234454Y-74077136D01*
X114232331Y-74074330D01*
X114231506Y-74063581D01*
X114224286Y-74030393D01*
X114224286Y-73888843D01*
X114224286Y-73888841D01*
X114189633Y-73759512D01*
X114122687Y-73643560D01*
X114028012Y-73548885D01*
X113912060Y-73481939D01*
X113782731Y-73447286D01*
X113648841Y-73447286D01*
X113519511Y-73481939D01*
X113403554Y-73548888D01*
X113400482Y-73551246D01*
X113397424Y-73552427D01*
X113396522Y-73552949D01*
X113396440Y-73552808D01*
X113335311Y-73576438D01*
X113266867Y-73562396D01*
X113237319Y-73540548D01*
X113181050Y-73484279D01*
X113181048Y-73484277D01*
X113065096Y-73417331D01*
X112935767Y-73382678D01*
X112801877Y-73382678D01*
X112672547Y-73417331D01*
X112556596Y-73484277D01*
X112556593Y-73484279D01*
X112461923Y-73578949D01*
X112461921Y-73578952D01*
X112394975Y-73694903D01*
X112375672Y-73766944D01*
X112360322Y-73824233D01*
X109663293Y-73824233D01*
X109670999Y-73785497D01*
X109685385Y-73713170D01*
X109685500Y-73712591D01*
X109685500Y-73587409D01*
X109661078Y-73464631D01*
X109655437Y-73451012D01*
X109613176Y-73348984D01*
X109613169Y-73348971D01*
X109543625Y-73244892D01*
X109543622Y-73244888D01*
X109455111Y-73156377D01*
X109455107Y-73156374D01*
X109351028Y-73086830D01*
X109351015Y-73086823D01*
X109235373Y-73038923D01*
X109235361Y-73038920D01*
X109112595Y-73014500D01*
X109112591Y-73014500D01*
X108987409Y-73014500D01*
X108987404Y-73014500D01*
X108864638Y-73038920D01*
X108864626Y-73038923D01*
X108748984Y-73086823D01*
X108748971Y-73086830D01*
X108644892Y-73156374D01*
X108644888Y-73156377D01*
X108556377Y-73244888D01*
X108556374Y-73244892D01*
X108486830Y-73348971D01*
X108486823Y-73348984D01*
X108438923Y-73464626D01*
X108438920Y-73464638D01*
X108414500Y-73587404D01*
X107525500Y-73587404D01*
X107525500Y-73517409D01*
X107501078Y-73394631D01*
X107498238Y-73387774D01*
X107453176Y-73278984D01*
X107453169Y-73278971D01*
X107383625Y-73174892D01*
X107383622Y-73174888D01*
X107295111Y-73086377D01*
X107295107Y-73086374D01*
X107191028Y-73016830D01*
X107191015Y-73016823D01*
X107075373Y-72968923D01*
X107075361Y-72968920D01*
X106952595Y-72944500D01*
X106952591Y-72944500D01*
X106827409Y-72944500D01*
X106827404Y-72944500D01*
X106704638Y-72968920D01*
X106704626Y-72968923D01*
X106588979Y-73016825D01*
X106586079Y-73018376D01*
X106584386Y-73018728D01*
X106583349Y-73019158D01*
X106583267Y-73018961D01*
X106517675Y-73032616D01*
X106458738Y-73012118D01*
X106361028Y-72946830D01*
X106361015Y-72946823D01*
X106245373Y-72898923D01*
X106245361Y-72898920D01*
X106122595Y-72874500D01*
X106122591Y-72874500D01*
X105997409Y-72874500D01*
X105997404Y-72874500D01*
X105874638Y-72898920D01*
X105874626Y-72898923D01*
X105758984Y-72946823D01*
X105758971Y-72946830D01*
X105654892Y-73016374D01*
X105654888Y-73016377D01*
X105566377Y-73104888D01*
X105566374Y-73104892D01*
X105496830Y-73208971D01*
X105496823Y-73208984D01*
X105448923Y-73324626D01*
X105448920Y-73324638D01*
X105424500Y-73447404D01*
X103204672Y-73447404D01*
X103226848Y-73393865D01*
X103226848Y-73393864D01*
X103251079Y-73335366D01*
X103275501Y-73212588D01*
X103275501Y-73087406D01*
X103251079Y-72964628D01*
X103213747Y-72874500D01*
X103203177Y-72848981D01*
X103203170Y-72848968D01*
X103133626Y-72744889D01*
X103133623Y-72744885D01*
X103045112Y-72656374D01*
X103045108Y-72656371D01*
X102941029Y-72586827D01*
X102941016Y-72586820D01*
X102825374Y-72538920D01*
X102825362Y-72538917D01*
X102702596Y-72514497D01*
X102702592Y-72514497D01*
X102577410Y-72514497D01*
X102577405Y-72514497D01*
X102454639Y-72538917D01*
X102454627Y-72538920D01*
X102338985Y-72586820D01*
X102338972Y-72586827D01*
X102234893Y-72656371D01*
X102234889Y-72656374D01*
X102146378Y-72744885D01*
X102146375Y-72744889D01*
X102076831Y-72848968D01*
X102076824Y-72848981D01*
X102028924Y-72964623D01*
X102028921Y-72964635D01*
X102004501Y-73087401D01*
X100508500Y-73087401D01*
X100508500Y-71261989D01*
X100528185Y-71194950D01*
X100544819Y-71174308D01*
X101174308Y-70544819D01*
X101235631Y-70511334D01*
X101261989Y-70508500D01*
X134738010Y-70508500D01*
X134805049Y-70528185D01*
G37*
%TD.AperFunction*%
%TD*%
M02*
