%TF.GenerationSoftware,KiCad,Pcbnew,9.0.2*%
%TF.CreationDate,2025-11-14T17:05:06-08:00*%
%TF.ProjectId,pico2-nx-module,7069636f-322d-46e7-982d-6d6f64756c65,rev?*%
%TF.SameCoordinates,Original*%
%TF.FileFunction,Copper,L2,Inr*%
%TF.FilePolarity,Positive*%
%FSLAX46Y46*%
G04 Gerber Fmt 4.6, Leading zero omitted, Abs format (unit mm)*
G04 Created by KiCad (PCBNEW 9.0.2) date 2025-11-14 17:05:06*
%MOMM*%
%LPD*%
G01*
G04 APERTURE LIST*
%TA.AperFunction,ViaPad*%
%ADD10C,0.254000*%
%TD*%
%TA.AperFunction,ViaPad*%
%ADD11C,0.508000*%
%TD*%
%TA.AperFunction,Conductor*%
%ADD12C,0.156464*%
%TD*%
%TA.AperFunction,Conductor*%
%ADD13C,0.254000*%
%TD*%
G04 APERTURE END LIST*
D10*
%TO.N,GND*%
X101788460Y-90194400D03*
D11*
X106060000Y-73510000D03*
D10*
X103188460Y-87794400D03*
X133410000Y-82600000D03*
D11*
X121250000Y-73810000D03*
D10*
X103200000Y-85000000D03*
X122812379Y-85278234D03*
X101788460Y-84194400D03*
X103188460Y-84194400D03*
X103835812Y-81362184D03*
X116610000Y-74650000D03*
X123900000Y-74900000D03*
X123900000Y-83300000D03*
X100670000Y-77860000D03*
X105700000Y-89000000D03*
X107400000Y-92506850D03*
X133410000Y-83800000D03*
D11*
X124188800Y-98196800D03*
D10*
X118923292Y-83510467D03*
X123900000Y-82100000D03*
X100658378Y-79920000D03*
X121398166Y-84571127D03*
X106040000Y-78810000D03*
X133420000Y-91000000D03*
X101750000Y-78890000D03*
X119983952Y-86692447D03*
D11*
X102620000Y-75040000D03*
D10*
X100680000Y-81130000D03*
X120337505Y-83510467D03*
X121751719Y-86338894D03*
X133420000Y-86200000D03*
D11*
X105270000Y-77360000D03*
D10*
X104416814Y-90162715D03*
D11*
X130259400Y-93497800D03*
D10*
X133410000Y-85000000D03*
X120621178Y-89516439D03*
X103084000Y-82237666D03*
X123900000Y-77300000D03*
X123900000Y-73700000D03*
X101788460Y-91394400D03*
D11*
X125340768Y-91300000D03*
D10*
X112868822Y-73891178D03*
X115140000Y-78710000D03*
X115130000Y-78198427D03*
X107400000Y-91320000D03*
X119630399Y-84217574D03*
X100660000Y-79110000D03*
X123900000Y-80900000D03*
X114422893Y-74662893D03*
X121044612Y-87046001D03*
X106040023Y-77649129D03*
X113540000Y-83510000D03*
X133410000Y-80200000D03*
X119983952Y-87399554D03*
X104430000Y-91390000D03*
X133410000Y-81400000D03*
X101770000Y-80892931D03*
X133410000Y-79000000D03*
X119276845Y-85985341D03*
X101190000Y-80580000D03*
X129451600Y-93015200D03*
X123900000Y-79700000D03*
X101788460Y-87794400D03*
X133420000Y-88600000D03*
X133420000Y-89800000D03*
X101788460Y-85394400D03*
X123900000Y-76100000D03*
X124500000Y-87390000D03*
X118569739Y-85278234D03*
X133420000Y-87400000D03*
X123900000Y-78500000D03*
X101190000Y-78470000D03*
X101788460Y-88994400D03*
X107410000Y-93700000D03*
D11*
X103940000Y-95370000D03*
D10*
X101810000Y-81856828D03*
X103188460Y-88994400D03*
X101788460Y-86594400D03*
D11*
%TO.N,P5VD_AON*%
X106060001Y-76079997D03*
D10*
%TO.N,Net-(U5-FB)*%
X104160002Y-76085000D03*
%TO.N,P3V3D_FPGA*%
X118079973Y-90700000D03*
X117557707Y-90177734D03*
X128805400Y-93008985D03*
D11*
X107110691Y-81800691D03*
D10*
%TO.N,P1V8D_FPGA*%
X115530000Y-77240000D03*
D11*
X121640768Y-92349286D03*
X117270461Y-80500000D03*
D10*
X114850000Y-72560000D03*
X117251320Y-74662893D03*
X113715786Y-75370000D03*
D11*
X107970000Y-73570000D03*
D10*
X115837107Y-77491320D03*
X112177504Y-74570000D03*
D11*
%TO.N,P1VD_FPGA*%
X102640001Y-73149997D03*
D10*
%TO.N,Net-(U3F-VCCDPHY0)*%
X118923292Y-84924680D03*
%TO.N,Net-(U3G-VCCADPHY1)*%
X119080000Y-89390000D03*
D11*
%TO.N,PVIO5_FPGA*%
X106890000Y-73580000D03*
%TO.N,PVIO3_FPGA*%
X109050000Y-73650000D03*
X128506800Y-91567400D03*
D10*
%TO.N,/FPGA/DONE*%
X105700000Y-84200000D03*
%TO.N,/FPGA/FPGA_EN*%
X105470000Y-75340000D03*
X107940000Y-81820000D03*
%TO.N,Net-(U5-PG)*%
X104150001Y-75260000D03*
%TO.N,/FPGA/PB52A*%
X127300000Y-87600000D03*
%TO.N,/FPGA/JTAG_EN*%
X106200000Y-87400000D03*
%TO.N,/FPGA/TDO*%
X105700000Y-85800000D03*
%TO.N,/FPGA/TCK*%
X121710000Y-89450000D03*
X105700000Y-87400000D03*
%TO.N,/FPGA/TDI*%
X106600000Y-85800000D03*
%TO.N,/FPGA/TMS*%
X106700000Y-87400000D03*
%TO.N,/FPGA/PB52B*%
X128000000Y-87600000D03*
%TO.N,Net-(U3A-PT59A{slash}MCLK{slash}PCLKT0_0)*%
X124444060Y-91018071D03*
%TO.N,/FPGA/FLASH_CSn*%
X128795400Y-97845602D03*
X113748000Y-95352000D03*
%TO.N,/FPGA/SRAM_CEN*%
X117000000Y-79290000D03*
X113715786Y-73955786D03*
%TO.N,/FPGA/SRAM_RSTn*%
X113008680Y-74662893D03*
%TO.N,/FPGA/MOSI*%
X124995400Y-93595602D03*
X115100000Y-93727779D03*
%TO.N,/FPGA/SD3*%
X127545400Y-93595602D03*
X114206800Y-94793200D03*
%TO.N,/FPGA/SCLK*%
X114665600Y-94234400D03*
X126245400Y-93645602D03*
%TO.N,/FPGA/SD2*%
X112758800Y-96469600D03*
X122700000Y-91694400D03*
X126245400Y-97845602D03*
%TO.N,/FPGA/SRAM_DQ7*%
X117958427Y-75370000D03*
%TO.N,/FPGA/SRAM_DQ5*%
X117605000Y-77245000D03*
%TO.N,/FPGA/SRAM_RW*%
X115130000Y-75370000D03*
%TO.N,/FPGA/MISO*%
X113266800Y-95910800D03*
X127545400Y-97845602D03*
%TO.N,/FPGA/SRAM_DQ3*%
X115130000Y-76784214D03*
%TO.N,/FPGA/SRAM_CLK_P*%
X115130000Y-73955786D03*
%TO.N,/FPGA/SRAM_DQ2*%
X116700000Y-78190000D03*
%TO.N,/FPGA/SRAM_DQ4*%
X114422893Y-77491320D03*
%TO.N,/FPGA/PT65B*%
X120850000Y-92250000D03*
%TO.N,/FPGA/SRAM_DQ6*%
X118910000Y-76610000D03*
%TO.N,/FPGA/SRAM_DQ0*%
X115837107Y-76077107D03*
%TO.N,/FPGA/SRAM_CLK_N*%
X115837107Y-73248680D03*
%TO.N,/FPGA/SRAM_DQ1*%
X116544214Y-75370000D03*
%TO.N,/FPGA/PROGRAMn*%
X106600000Y-84200000D03*
%TO.N,/FPGA/PT57A*%
X105700000Y-82600000D03*
%TO.N,/FPGA/PB50A*%
X125900000Y-87601000D03*
%TO.N,/FPGA/PB50B*%
X126600000Y-87600000D03*
%TD*%
D12*
%TO.N,GND*%
X123270000Y-78500000D02*
X123250000Y-78520000D01*
D13*
X119002186Y-86260000D02*
X119000000Y-86260000D01*
D12*
X100650661Y-79100661D02*
X100650661Y-78500000D01*
X103870000Y-91230000D02*
X103870000Y-90290000D01*
D13*
X119276845Y-85985341D02*
X119002186Y-86260000D01*
D12*
X101187942Y-80577942D02*
X100690436Y-80577942D01*
X101770000Y-80892931D02*
X101457069Y-80580000D01*
D13*
X121044612Y-87046001D02*
X121751719Y-86338894D01*
D12*
X123400000Y-73700000D02*
X123250000Y-73850000D01*
X101160000Y-78500000D02*
X100650661Y-78500000D01*
X106040000Y-78810000D02*
X105600000Y-78810000D01*
X104030000Y-91390000D02*
X103870000Y-91230000D01*
X101788460Y-86594400D02*
X101304400Y-86594400D01*
X101788460Y-84194400D02*
X101455600Y-84194400D01*
X100658378Y-81108378D02*
X100658378Y-80610000D01*
X123900000Y-76100000D02*
X123260000Y-76100000D01*
D13*
X120330467Y-83510467D02*
X120020000Y-83200000D01*
D12*
X104404099Y-90150000D02*
X104416814Y-90162715D01*
X101750000Y-78890000D02*
X101750000Y-78560000D01*
D13*
X118569739Y-85278234D02*
X118301766Y-85278234D01*
X118672426Y-84217574D02*
X118670000Y-84220000D01*
D12*
X123250000Y-78520000D02*
X123250000Y-79690000D01*
X107120000Y-91320000D02*
X107400000Y-91320000D01*
X102805600Y-87794400D02*
X103188460Y-87794400D01*
X123260000Y-80900000D02*
X123250000Y-80890000D01*
X103870000Y-90290000D02*
X104010000Y-90150000D01*
X123250000Y-80890000D02*
X123250000Y-81950000D01*
X123900000Y-79700000D02*
X123260000Y-79700000D01*
X123900000Y-77300000D02*
X123250000Y-77300000D01*
X102810000Y-81730000D02*
X103320000Y-81220000D01*
X106930000Y-92500000D02*
X106930000Y-91510000D01*
X123250000Y-77300000D02*
X123250000Y-78520000D01*
X103320000Y-81220000D02*
X103693628Y-81220000D01*
X103084000Y-82237666D02*
X102810000Y-81963666D01*
X101788460Y-91394400D02*
X101464400Y-91394400D01*
X107100000Y-93700000D02*
X106930000Y-93530000D01*
D13*
X122812379Y-85278234D02*
X123044145Y-85510000D01*
D12*
X123250000Y-79690000D02*
X123250000Y-80890000D01*
X104430000Y-91390000D02*
X104030000Y-91390000D01*
X104010000Y-90150000D02*
X104404099Y-90150000D01*
X103693628Y-81220000D02*
X103835812Y-81362184D01*
X105600000Y-78810000D02*
X105430000Y-78640000D01*
D13*
X121398166Y-84571127D02*
X121398166Y-83981834D01*
X119983952Y-86692447D02*
X119983952Y-87399554D01*
D12*
X102700000Y-88800000D02*
X102700000Y-87900000D01*
X102810000Y-81963666D02*
X102810000Y-81730000D01*
X123900000Y-74900000D02*
X123250000Y-74900000D01*
X101464400Y-91394400D02*
X101290000Y-91220000D01*
D13*
X120337505Y-83510467D02*
X120330467Y-83510467D01*
D12*
X105770871Y-77649129D02*
X106040023Y-77649129D01*
X101290000Y-91220000D02*
X101290000Y-90210000D01*
X100658378Y-80610000D02*
X100658378Y-79920000D01*
X101788460Y-85394400D02*
X101325600Y-85394400D01*
X123900000Y-73700000D02*
X123400000Y-73700000D01*
X101660000Y-78470000D02*
X101190000Y-78470000D01*
X123250000Y-76110000D02*
X123250000Y-77300000D01*
X101788460Y-90194400D02*
X101305600Y-90194400D01*
X105430000Y-77990000D02*
X105770871Y-77649129D01*
X123250000Y-74900000D02*
X123250000Y-76110000D01*
D13*
X119630399Y-84217574D02*
X118672426Y-84217574D01*
D12*
X106930000Y-91510000D02*
X107120000Y-91320000D01*
X101455600Y-84194400D02*
X101290000Y-84360000D01*
X100640661Y-78490000D02*
X100640661Y-77889339D01*
X101750000Y-78560000D02*
X101660000Y-78470000D01*
X107400000Y-92506850D02*
X106936850Y-92506850D01*
X123250000Y-81950000D02*
X123400000Y-82100000D01*
X106930000Y-93530000D02*
X106930000Y-92500000D01*
X101457069Y-80580000D02*
X101190000Y-80580000D01*
X105430000Y-78640000D02*
X105430000Y-77990000D01*
X123260000Y-79700000D02*
X123250000Y-79690000D01*
D13*
X123044145Y-85510000D02*
X123050000Y-85510000D01*
D12*
X102700000Y-87900000D02*
X102805600Y-87794400D01*
X123900000Y-80900000D02*
X123260000Y-80900000D01*
X123250000Y-73850000D02*
X123250000Y-74900000D01*
X100658378Y-79920000D02*
X100658378Y-79111622D01*
X123260000Y-76100000D02*
X123250000Y-76110000D01*
X123900000Y-78500000D02*
X123270000Y-78500000D01*
X101788460Y-87794400D02*
X101294400Y-87794400D01*
X101290000Y-84360000D02*
X101290000Y-90210000D01*
X107410000Y-93700000D02*
X107100000Y-93700000D01*
X101788460Y-88994400D02*
X101294400Y-88994400D01*
X103188460Y-88994400D02*
X102894400Y-88994400D01*
D13*
X121398166Y-83981834D02*
X121760000Y-83620000D01*
D12*
X123400000Y-82100000D02*
X123900000Y-82100000D01*
D13*
X118301766Y-85278234D02*
X118300000Y-85280000D01*
D12*
X102894400Y-88994400D02*
X102700000Y-88800000D01*
D13*
%TO.N,Net-(U3F-VCCDPHY0)*%
X118923292Y-84924680D02*
X118923292Y-84913292D01*
%TD*%
%TA.AperFunction,Conductor*%
%TO.N,GND*%
G36*
X134805049Y-70528185D02*
G01*
X134825691Y-70544819D01*
X135455181Y-71174308D01*
X135488666Y-71235631D01*
X135491500Y-71261989D01*
X135491500Y-98738010D01*
X135471815Y-98805049D01*
X135455181Y-98825691D01*
X134825691Y-99455181D01*
X134764368Y-99488666D01*
X134738010Y-99491500D01*
X122549172Y-99491500D01*
X122482133Y-99471815D01*
X122436378Y-99419011D01*
X122426434Y-99349853D01*
X122426838Y-99347241D01*
X122435298Y-99296151D01*
X122471576Y-99077088D01*
X122501238Y-98656050D01*
X122491343Y-98234083D01*
X122441979Y-97814897D01*
X122434217Y-97778657D01*
X125736900Y-97778657D01*
X125736900Y-97912547D01*
X125771553Y-98041876D01*
X125838499Y-98157828D01*
X125933174Y-98252503D01*
X126049126Y-98319449D01*
X126178455Y-98354102D01*
X126178457Y-98354102D01*
X126312343Y-98354102D01*
X126312345Y-98354102D01*
X126441674Y-98319449D01*
X126557626Y-98252503D01*
X126652301Y-98157828D01*
X126719247Y-98041876D01*
X126753900Y-97912547D01*
X126753900Y-97778657D01*
X127036900Y-97778657D01*
X127036900Y-97912547D01*
X127071553Y-98041876D01*
X127138499Y-98157828D01*
X127233174Y-98252503D01*
X127349126Y-98319449D01*
X127478455Y-98354102D01*
X127478457Y-98354102D01*
X127612343Y-98354102D01*
X127612345Y-98354102D01*
X127741674Y-98319449D01*
X127857626Y-98252503D01*
X127952301Y-98157828D01*
X128019247Y-98041876D01*
X128053900Y-97912547D01*
X128053900Y-97778657D01*
X128286900Y-97778657D01*
X128286900Y-97912547D01*
X128312080Y-98006524D01*
X128321553Y-98041877D01*
X128355026Y-98099852D01*
X128388499Y-98157828D01*
X128483174Y-98252503D01*
X128599126Y-98319449D01*
X128728455Y-98354102D01*
X128728457Y-98354102D01*
X128862343Y-98354102D01*
X128862345Y-98354102D01*
X128991674Y-98319449D01*
X129107626Y-98252503D01*
X129202301Y-98157828D01*
X129269247Y-98041876D01*
X129303900Y-97912547D01*
X129303900Y-97778657D01*
X129269247Y-97649328D01*
X129202301Y-97533376D01*
X129107626Y-97438701D01*
X128991674Y-97371755D01*
X128862345Y-97337102D01*
X128728455Y-97337102D01*
X128599125Y-97371755D01*
X128483174Y-97438701D01*
X128483171Y-97438703D01*
X128388501Y-97533373D01*
X128388499Y-97533376D01*
X128321553Y-97649327D01*
X128321553Y-97649328D01*
X128286900Y-97778657D01*
X128053900Y-97778657D01*
X128019247Y-97649328D01*
X127952301Y-97533376D01*
X127857626Y-97438701D01*
X127741674Y-97371755D01*
X127612345Y-97337102D01*
X127478455Y-97337102D01*
X127349125Y-97371755D01*
X127233174Y-97438701D01*
X127233171Y-97438703D01*
X127138501Y-97533373D01*
X127138499Y-97533376D01*
X127071553Y-97649327D01*
X127071553Y-97649328D01*
X127036900Y-97778657D01*
X126753900Y-97778657D01*
X126719247Y-97649328D01*
X126652301Y-97533376D01*
X126557626Y-97438701D01*
X126441674Y-97371755D01*
X126312345Y-97337102D01*
X126178455Y-97337102D01*
X126049125Y-97371755D01*
X125933174Y-97438701D01*
X125933171Y-97438703D01*
X125838501Y-97533373D01*
X125838499Y-97533376D01*
X125771553Y-97649327D01*
X125771553Y-97649328D01*
X125736900Y-97778657D01*
X122434217Y-97778657D01*
X122428221Y-97750666D01*
X122353577Y-97402172D01*
X122311357Y-97267966D01*
X122226917Y-96999546D01*
X122063110Y-96610547D01*
X121863597Y-96238595D01*
X121853261Y-96223028D01*
X121630136Y-95886970D01*
X121630135Y-95886969D01*
X121630130Y-95886961D01*
X121364761Y-95558733D01*
X121145656Y-95334430D01*
X121069827Y-95256802D01*
X121069826Y-95256801D01*
X121069823Y-95256798D01*
X120891321Y-95105425D01*
X120747903Y-94983804D01*
X120401849Y-94742166D01*
X120401841Y-94742161D01*
X120034682Y-94533990D01*
X120034664Y-94533981D01*
X119649623Y-94361105D01*
X119649606Y-94361098D01*
X119250084Y-94225043D01*
X119250076Y-94225040D01*
X118839520Y-94126983D01*
X118421630Y-94067809D01*
X118421624Y-94067808D01*
X118421619Y-94067808D01*
X118000000Y-94048025D01*
X117578381Y-94067808D01*
X117578376Y-94067808D01*
X117578369Y-94067809D01*
X117160479Y-94126983D01*
X116749923Y-94225040D01*
X116749915Y-94225043D01*
X116350393Y-94361098D01*
X116350376Y-94361105D01*
X115965335Y-94533981D01*
X115965317Y-94533990D01*
X115598158Y-94742161D01*
X115598150Y-94742166D01*
X115252096Y-94983804D01*
X114930172Y-95256802D01*
X114635243Y-95558728D01*
X114635236Y-95558735D01*
X114369880Y-95886948D01*
X114369863Y-95886970D01*
X114136403Y-96238593D01*
X113976584Y-96536545D01*
X113936890Y-96610547D01*
X113782114Y-96978100D01*
X113773080Y-96999554D01*
X113646422Y-97402172D01*
X113558020Y-97814899D01*
X113508656Y-98234083D01*
X113508656Y-98234085D01*
X113498762Y-98656050D01*
X113498762Y-98656061D01*
X113528423Y-99077082D01*
X113573162Y-99347241D01*
X113564695Y-99416596D01*
X113520075Y-99470363D01*
X113453471Y-99491472D01*
X113450828Y-99491500D01*
X101261989Y-99491500D01*
X101194950Y-99471815D01*
X101174308Y-99455181D01*
X100544819Y-98825691D01*
X100511334Y-98764368D01*
X100508500Y-98738010D01*
X100508500Y-96402655D01*
X112250300Y-96402655D01*
X112250300Y-96536545D01*
X112284953Y-96665874D01*
X112351899Y-96781826D01*
X112446574Y-96876501D01*
X112562526Y-96943447D01*
X112691855Y-96978100D01*
X112691857Y-96978100D01*
X112825743Y-96978100D01*
X112825745Y-96978100D01*
X112955074Y-96943447D01*
X113071026Y-96876501D01*
X113165701Y-96781826D01*
X113232647Y-96665874D01*
X113267300Y-96536545D01*
X113267300Y-96532252D01*
X113268324Y-96528763D01*
X113268361Y-96528485D01*
X113268404Y-96528490D01*
X113286985Y-96465213D01*
X113339789Y-96419458D01*
X113359200Y-96412479D01*
X113463074Y-96384647D01*
X113579026Y-96317701D01*
X113673701Y-96223026D01*
X113740647Y-96107074D01*
X113775300Y-95977745D01*
X113775300Y-95966271D01*
X113794985Y-95899232D01*
X113847789Y-95853477D01*
X113867199Y-95846498D01*
X113944274Y-95825847D01*
X114060226Y-95758901D01*
X114154901Y-95664226D01*
X114221847Y-95548274D01*
X114256500Y-95418945D01*
X114256500Y-95401469D01*
X114276185Y-95334430D01*
X114328989Y-95288675D01*
X114348403Y-95281695D01*
X114403074Y-95267047D01*
X114519026Y-95200101D01*
X114613701Y-95105426D01*
X114680647Y-94989474D01*
X114715300Y-94860145D01*
X114715300Y-94842669D01*
X114734985Y-94775630D01*
X114787789Y-94729875D01*
X114807203Y-94722895D01*
X114861874Y-94708247D01*
X114977826Y-94641301D01*
X115072501Y-94546626D01*
X115139447Y-94430674D01*
X115174100Y-94301345D01*
X115174100Y-94301342D01*
X115174906Y-94298334D01*
X115211270Y-94238673D01*
X115262589Y-94210651D01*
X115296274Y-94201626D01*
X115412226Y-94134680D01*
X115506901Y-94040005D01*
X115573847Y-93924053D01*
X115608500Y-93794724D01*
X115608500Y-93660834D01*
X115573847Y-93531505D01*
X115573443Y-93530806D01*
X115572202Y-93528657D01*
X124486900Y-93528657D01*
X124486900Y-93662547D01*
X124521553Y-93791876D01*
X124588499Y-93907828D01*
X124683174Y-94002503D01*
X124799126Y-94069449D01*
X124928455Y-94104102D01*
X124928457Y-94104102D01*
X125062343Y-94104102D01*
X125062345Y-94104102D01*
X125191674Y-94069449D01*
X125307626Y-94002503D01*
X125402301Y-93907828D01*
X125469247Y-93791876D01*
X125503900Y-93662547D01*
X125503900Y-93578657D01*
X125736900Y-93578657D01*
X125736900Y-93712547D01*
X125738926Y-93720108D01*
X125738926Y-93720109D01*
X125747344Y-93751526D01*
X125771553Y-93841876D01*
X125838499Y-93957828D01*
X125933174Y-94052503D01*
X126049126Y-94119449D01*
X126178455Y-94154102D01*
X126178457Y-94154102D01*
X126312343Y-94154102D01*
X126312345Y-94154102D01*
X126441674Y-94119449D01*
X126557626Y-94052503D01*
X126652301Y-93957828D01*
X126719247Y-93841876D01*
X126753900Y-93712547D01*
X126753900Y-93578657D01*
X126740503Y-93528657D01*
X127036900Y-93528657D01*
X127036900Y-93662547D01*
X127071553Y-93791876D01*
X127138499Y-93907828D01*
X127233174Y-94002503D01*
X127349126Y-94069449D01*
X127478455Y-94104102D01*
X127478457Y-94104102D01*
X127612343Y-94104102D01*
X127612345Y-94104102D01*
X127741674Y-94069449D01*
X127857626Y-94002503D01*
X127952301Y-93907828D01*
X128019247Y-93791876D01*
X128053900Y-93662547D01*
X128053900Y-93528657D01*
X128019247Y-93399328D01*
X127952301Y-93283376D01*
X127857626Y-93188701D01*
X127741674Y-93121755D01*
X127612345Y-93087102D01*
X127478455Y-93087102D01*
X127349125Y-93121755D01*
X127233174Y-93188701D01*
X127233171Y-93188703D01*
X127138501Y-93283373D01*
X127138499Y-93283376D01*
X127071553Y-93399327D01*
X127039894Y-93517484D01*
X127036900Y-93528657D01*
X126740503Y-93528657D01*
X126719247Y-93449328D01*
X126652301Y-93333376D01*
X126557626Y-93238701D01*
X126441674Y-93171755D01*
X126312345Y-93137102D01*
X126178455Y-93137102D01*
X126049125Y-93171755D01*
X125933174Y-93238701D01*
X125933171Y-93238703D01*
X125838501Y-93333373D01*
X125838499Y-93333376D01*
X125771553Y-93449327D01*
X125750297Y-93528659D01*
X125736900Y-93578657D01*
X125503900Y-93578657D01*
X125503900Y-93528657D01*
X125469247Y-93399328D01*
X125402301Y-93283376D01*
X125307626Y-93188701D01*
X125191674Y-93121755D01*
X125062345Y-93087102D01*
X124928455Y-93087102D01*
X124799125Y-93121755D01*
X124683174Y-93188701D01*
X124683171Y-93188703D01*
X124588501Y-93283373D01*
X124588499Y-93283376D01*
X124521553Y-93399327D01*
X124489894Y-93517484D01*
X124486900Y-93528657D01*
X115572202Y-93528657D01*
X115545745Y-93482832D01*
X115506901Y-93415553D01*
X115412226Y-93320878D01*
X115296274Y-93253932D01*
X115166945Y-93219279D01*
X115033055Y-93219279D01*
X114903725Y-93253932D01*
X114787774Y-93320878D01*
X114787771Y-93320880D01*
X114693101Y-93415550D01*
X114693099Y-93415553D01*
X114626557Y-93530806D01*
X114626153Y-93531505D01*
X114591500Y-93660834D01*
X114590693Y-93663846D01*
X114554328Y-93723506D01*
X114503013Y-93751526D01*
X114469327Y-93760552D01*
X114469326Y-93760552D01*
X114353374Y-93827499D01*
X114353371Y-93827501D01*
X114258701Y-93922171D01*
X114258699Y-93922174D01*
X114191753Y-94038125D01*
X114157100Y-94167455D01*
X114157100Y-94184930D01*
X114137415Y-94251969D01*
X114084611Y-94297724D01*
X114065194Y-94304705D01*
X114010524Y-94319353D01*
X113894574Y-94386299D01*
X113894571Y-94386301D01*
X113799901Y-94480971D01*
X113799899Y-94480974D01*
X113732953Y-94596925D01*
X113698300Y-94726255D01*
X113698300Y-94743730D01*
X113678615Y-94810769D01*
X113625811Y-94856524D01*
X113606394Y-94863505D01*
X113551724Y-94878153D01*
X113435774Y-94945099D01*
X113435771Y-94945101D01*
X113341101Y-95039771D01*
X113341099Y-95039774D01*
X113274153Y-95155725D01*
X113239500Y-95285055D01*
X113239500Y-95296528D01*
X113219815Y-95363567D01*
X113167011Y-95409322D01*
X113147593Y-95416303D01*
X113070526Y-95436953D01*
X113070524Y-95436953D01*
X113070524Y-95436954D01*
X112954574Y-95503899D01*
X112954571Y-95503901D01*
X112859901Y-95598571D01*
X112859899Y-95598574D01*
X112792953Y-95714525D01*
X112758300Y-95843855D01*
X112758300Y-95848147D01*
X112757275Y-95851634D01*
X112757239Y-95851915D01*
X112757195Y-95851909D01*
X112738615Y-95915186D01*
X112685811Y-95960941D01*
X112666394Y-95967922D01*
X112642848Y-95974231D01*
X112562526Y-95995753D01*
X112562524Y-95995753D01*
X112562524Y-95995754D01*
X112446574Y-96062699D01*
X112446571Y-96062701D01*
X112351901Y-96157371D01*
X112351899Y-96157374D01*
X112284953Y-96273325D01*
X112284953Y-96273326D01*
X112250300Y-96402655D01*
X100508500Y-96402655D01*
X100508500Y-91649743D01*
X106942300Y-91649743D01*
X106942300Y-91770257D01*
X106968602Y-91868415D01*
X106970301Y-91874756D01*
X106970301Y-91938943D01*
X106942300Y-92043443D01*
X106942300Y-92163957D01*
X106963094Y-92241562D01*
X106973492Y-92280366D01*
X106973495Y-92280371D01*
X107033744Y-92384727D01*
X107033750Y-92384735D01*
X107071608Y-92422593D01*
X107105093Y-92483916D01*
X107100109Y-92553608D01*
X107071611Y-92597953D01*
X107043748Y-92625817D01*
X107043744Y-92625822D01*
X106983495Y-92730178D01*
X106983492Y-92730183D01*
X106962697Y-92807790D01*
X106952300Y-92846593D01*
X106952300Y-92967107D01*
X106980301Y-93071605D01*
X106980301Y-93071606D01*
X106980301Y-93135793D01*
X106952300Y-93240293D01*
X106952300Y-93360807D01*
X106967059Y-93415886D01*
X106983492Y-93477216D01*
X106983495Y-93477221D01*
X107043744Y-93581577D01*
X107043748Y-93581582D01*
X107043749Y-93581584D01*
X107128966Y-93666801D01*
X107128968Y-93666802D01*
X107128972Y-93666805D01*
X107208199Y-93712546D01*
X107233335Y-93727058D01*
X107349743Y-93758250D01*
X107349745Y-93758250D01*
X107470255Y-93758250D01*
X107470257Y-93758250D01*
X107586665Y-93727058D01*
X107691034Y-93666801D01*
X107776251Y-93581584D01*
X107836508Y-93477215D01*
X107867700Y-93360807D01*
X107867700Y-93240293D01*
X107839699Y-93135793D01*
X107839699Y-93071605D01*
X107867700Y-92967107D01*
X107867700Y-92846593D01*
X107836508Y-92730185D01*
X107835927Y-92729178D01*
X107776255Y-92625822D01*
X107776252Y-92625818D01*
X107776251Y-92625816D01*
X107738391Y-92587956D01*
X107704906Y-92526633D01*
X107709890Y-92456941D01*
X107738391Y-92412594D01*
X107739108Y-92411877D01*
X107766251Y-92384734D01*
X107826508Y-92280365D01*
X107852583Y-92183055D01*
X120341500Y-92183055D01*
X120341500Y-92316945D01*
X120376153Y-92446274D01*
X120443099Y-92562226D01*
X120537774Y-92656901D01*
X120653726Y-92723847D01*
X120783055Y-92758500D01*
X120783057Y-92758500D01*
X120916943Y-92758500D01*
X120916945Y-92758500D01*
X121032584Y-92727515D01*
X121102433Y-92729178D01*
X121152357Y-92759609D01*
X121235656Y-92842908D01*
X121235660Y-92842911D01*
X121339739Y-92912455D01*
X121339752Y-92912462D01*
X121455394Y-92960362D01*
X121455399Y-92960364D01*
X121578172Y-92984785D01*
X121578176Y-92984786D01*
X121578177Y-92984786D01*
X121703360Y-92984786D01*
X121703361Y-92984785D01*
X121826137Y-92960364D01*
X121870375Y-92942040D01*
X128296900Y-92942040D01*
X128296900Y-93075930D01*
X128331553Y-93205259D01*
X128398499Y-93321211D01*
X128493174Y-93415886D01*
X128609126Y-93482832D01*
X128738455Y-93517485D01*
X128738457Y-93517485D01*
X128872343Y-93517485D01*
X128872345Y-93517485D01*
X129001674Y-93482832D01*
X129117626Y-93415886D01*
X129212301Y-93321211D01*
X129279247Y-93205259D01*
X129313900Y-93075930D01*
X129313900Y-92942040D01*
X129279247Y-92812711D01*
X129212301Y-92696759D01*
X129117626Y-92602084D01*
X129001674Y-92535138D01*
X128872345Y-92500485D01*
X128738455Y-92500485D01*
X128609125Y-92535138D01*
X128493174Y-92602084D01*
X128493171Y-92602086D01*
X128398501Y-92696756D01*
X128398499Y-92696759D01*
X128331553Y-92812710D01*
X128322474Y-92846594D01*
X128296900Y-92942040D01*
X121870375Y-92942040D01*
X121941790Y-92912459D01*
X122045876Y-92842911D01*
X122134393Y-92754394D01*
X122203941Y-92650308D01*
X122214086Y-92625817D01*
X122240425Y-92562228D01*
X122251846Y-92534655D01*
X122276268Y-92411877D01*
X122276268Y-92286695D01*
X122273531Y-92272934D01*
X122279758Y-92203342D01*
X122322621Y-92148165D01*
X122388511Y-92124920D01*
X122456508Y-92140988D01*
X122457149Y-92141356D01*
X122503720Y-92168244D01*
X122503721Y-92168244D01*
X122503726Y-92168247D01*
X122633055Y-92202900D01*
X122633057Y-92202900D01*
X122766943Y-92202900D01*
X122766945Y-92202900D01*
X122896274Y-92168247D01*
X123012226Y-92101301D01*
X123106901Y-92006626D01*
X123173847Y-91890674D01*
X123208500Y-91761345D01*
X123208500Y-91627455D01*
X123173847Y-91498126D01*
X123106901Y-91382174D01*
X123012226Y-91287499D01*
X122896274Y-91220553D01*
X122766945Y-91185900D01*
X122633055Y-91185900D01*
X122503725Y-91220553D01*
X122387774Y-91287499D01*
X122387771Y-91287501D01*
X122293101Y-91382171D01*
X122293099Y-91382174D01*
X122226153Y-91498125D01*
X122191500Y-91627455D01*
X122191500Y-91720975D01*
X122171815Y-91788014D01*
X122119011Y-91833769D01*
X122049853Y-91843713D01*
X121998610Y-91824078D01*
X121941794Y-91786115D01*
X121941783Y-91786109D01*
X121826141Y-91738209D01*
X121826129Y-91738206D01*
X121703363Y-91713786D01*
X121703359Y-91713786D01*
X121578177Y-91713786D01*
X121578172Y-91713786D01*
X121455406Y-91738206D01*
X121455394Y-91738209D01*
X121339752Y-91786109D01*
X121339741Y-91786115D01*
X121275818Y-91828827D01*
X121209140Y-91849704D01*
X121144927Y-91833111D01*
X121046275Y-91776153D01*
X120958972Y-91752761D01*
X120916945Y-91741500D01*
X120783055Y-91741500D01*
X120653725Y-91776153D01*
X120537774Y-91843099D01*
X120537771Y-91843101D01*
X120443101Y-91937771D01*
X120443099Y-91937774D01*
X120376153Y-92053725D01*
X120345468Y-92168245D01*
X120341500Y-92183055D01*
X107852583Y-92183055D01*
X107857700Y-92163957D01*
X107857700Y-92043443D01*
X107829699Y-91938943D01*
X107829699Y-91874755D01*
X107857700Y-91770257D01*
X107857700Y-91649743D01*
X107826508Y-91533335D01*
X107802596Y-91491918D01*
X107766255Y-91428972D01*
X107766249Y-91428964D01*
X107681035Y-91343750D01*
X107681027Y-91343744D01*
X107576671Y-91283495D01*
X107576666Y-91283492D01*
X107512818Y-91266384D01*
X107460257Y-91252300D01*
X107339743Y-91252300D01*
X107287230Y-91266371D01*
X107223333Y-91283492D01*
X107223328Y-91283495D01*
X107118972Y-91343744D01*
X107118964Y-91343750D01*
X107033750Y-91428964D01*
X107033744Y-91428972D01*
X106973495Y-91533328D01*
X106973492Y-91533333D01*
X106952697Y-91610940D01*
X106942300Y-91649743D01*
X100508500Y-91649743D01*
X100508500Y-90542893D01*
X101300708Y-90542893D01*
X101300708Y-90663407D01*
X101328709Y-90767905D01*
X101328709Y-90767906D01*
X101328709Y-90832093D01*
X101300708Y-90936593D01*
X101300708Y-91057107D01*
X101314050Y-91106898D01*
X101331900Y-91173516D01*
X101331903Y-91173521D01*
X101392152Y-91277877D01*
X101392156Y-91277882D01*
X101392157Y-91277884D01*
X101477374Y-91363101D01*
X101477376Y-91363102D01*
X101477380Y-91363105D01*
X101581736Y-91423354D01*
X101581743Y-91423358D01*
X101698151Y-91454550D01*
X101698153Y-91454550D01*
X101818663Y-91454550D01*
X101818665Y-91454550D01*
X101935073Y-91423358D01*
X102039442Y-91363101D01*
X102124659Y-91277884D01*
X102184916Y-91173515D01*
X102216108Y-91057107D01*
X102216108Y-90936593D01*
X102188107Y-90832093D01*
X102188107Y-90767905D01*
X102216108Y-90663407D01*
X102216108Y-90542893D01*
X102201472Y-90488272D01*
X103968202Y-90488272D01*
X103968202Y-90608786D01*
X103988560Y-90684760D01*
X103996203Y-90713285D01*
X103996203Y-90777472D01*
X103968202Y-90881972D01*
X103968202Y-91002486D01*
X103982838Y-91057107D01*
X103999394Y-91118895D01*
X103999397Y-91118900D01*
X104059646Y-91223256D01*
X104059650Y-91223261D01*
X104059651Y-91223263D01*
X104144868Y-91308480D01*
X104144870Y-91308481D01*
X104144874Y-91308484D01*
X104239475Y-91363101D01*
X104249237Y-91368737D01*
X104365645Y-91399929D01*
X104365647Y-91399929D01*
X104486157Y-91399929D01*
X104486159Y-91399929D01*
X104602567Y-91368737D01*
X104706936Y-91308480D01*
X104792153Y-91223263D01*
X104852410Y-91118894D01*
X104883602Y-91002486D01*
X104883602Y-90881972D01*
X104855601Y-90777472D01*
X104855601Y-90713284D01*
X104883602Y-90608786D01*
X104883602Y-90488272D01*
X104852410Y-90371864D01*
X104823687Y-90322114D01*
X104792157Y-90267501D01*
X104792151Y-90267493D01*
X104706937Y-90182279D01*
X104706929Y-90182273D01*
X104602573Y-90122024D01*
X104602568Y-90122021D01*
X104560649Y-90110789D01*
X117049207Y-90110789D01*
X117049207Y-90244679D01*
X117083860Y-90374008D01*
X117150806Y-90489960D01*
X117245481Y-90584635D01*
X117361433Y-90651581D01*
X117485266Y-90684761D01*
X117544924Y-90721124D01*
X117572945Y-90772441D01*
X117606126Y-90896274D01*
X117673072Y-91012226D01*
X117767747Y-91106901D01*
X117883699Y-91173847D01*
X118013028Y-91208500D01*
X118013030Y-91208500D01*
X118146916Y-91208500D01*
X118146918Y-91208500D01*
X118276247Y-91173847D01*
X118392199Y-91106901D01*
X118486874Y-91012226D01*
X118522151Y-90951126D01*
X123935560Y-90951126D01*
X123935560Y-91085016D01*
X123970213Y-91214345D01*
X124037159Y-91330297D01*
X124131834Y-91424972D01*
X124247786Y-91491918D01*
X124377115Y-91526571D01*
X124377117Y-91526571D01*
X124511003Y-91526571D01*
X124511005Y-91526571D01*
X124592242Y-91504804D01*
X127871300Y-91504804D01*
X127871300Y-91629995D01*
X127895720Y-91752761D01*
X127895723Y-91752773D01*
X127943623Y-91868415D01*
X127943630Y-91868428D01*
X128013174Y-91972507D01*
X128013177Y-91972511D01*
X128101688Y-92061022D01*
X128101692Y-92061025D01*
X128205771Y-92130569D01*
X128205784Y-92130576D01*
X128296731Y-92168247D01*
X128321431Y-92178478D01*
X128444204Y-92202899D01*
X128444208Y-92202900D01*
X128444209Y-92202900D01*
X128569392Y-92202900D01*
X128569393Y-92202899D01*
X128692169Y-92178478D01*
X128807822Y-92130573D01*
X128911908Y-92061025D01*
X129000425Y-91972508D01*
X129069973Y-91868422D01*
X129117878Y-91752769D01*
X129142300Y-91629991D01*
X129142300Y-91504809D01*
X129117878Y-91382031D01*
X129117876Y-91382026D01*
X129069976Y-91266384D01*
X129069969Y-91266371D01*
X129000425Y-91162292D01*
X129000422Y-91162288D01*
X128911911Y-91073777D01*
X128911907Y-91073774D01*
X128807828Y-91004230D01*
X128807815Y-91004223D01*
X128692173Y-90956323D01*
X128692161Y-90956320D01*
X128569395Y-90931900D01*
X128569391Y-90931900D01*
X128444209Y-90931900D01*
X128444204Y-90931900D01*
X128321438Y-90956320D01*
X128321426Y-90956323D01*
X128205784Y-91004223D01*
X128205771Y-91004230D01*
X128101692Y-91073774D01*
X128101688Y-91073777D01*
X128013177Y-91162288D01*
X128013174Y-91162292D01*
X127943630Y-91266371D01*
X127943623Y-91266384D01*
X127895723Y-91382026D01*
X127895720Y-91382038D01*
X127871300Y-91504804D01*
X124592242Y-91504804D01*
X124640334Y-91491918D01*
X124756286Y-91424972D01*
X124850961Y-91330297D01*
X124917907Y-91214345D01*
X124952560Y-91085016D01*
X124952560Y-90951126D01*
X124917907Y-90821797D01*
X124850961Y-90705845D01*
X124756286Y-90611170D01*
X124640334Y-90544224D01*
X124511005Y-90509571D01*
X124377115Y-90509571D01*
X124247785Y-90544224D01*
X124131834Y-90611170D01*
X124131831Y-90611172D01*
X124037161Y-90705842D01*
X124037159Y-90705845D01*
X123970213Y-90821796D01*
X123939455Y-90936590D01*
X123935560Y-90951126D01*
X118522151Y-90951126D01*
X118553820Y-90896274D01*
X118588473Y-90766945D01*
X118588473Y-90633055D01*
X118553820Y-90503726D01*
X118486874Y-90387774D01*
X118392199Y-90293099D01*
X118276247Y-90226153D01*
X118152414Y-90192972D01*
X118092754Y-90156608D01*
X118064734Y-90105294D01*
X118031554Y-89981460D01*
X118026967Y-89973516D01*
X118018297Y-89958499D01*
X117964608Y-89865508D01*
X117869933Y-89770833D01*
X117753981Y-89703887D01*
X117624652Y-89669234D01*
X117490762Y-89669234D01*
X117361432Y-89703887D01*
X117245481Y-89770833D01*
X117245478Y-89770835D01*
X117150808Y-89865505D01*
X117150806Y-89865508D01*
X117083860Y-89981459D01*
X117071796Y-90026483D01*
X117049207Y-90110789D01*
X104560649Y-90110789D01*
X104486159Y-90090829D01*
X104365645Y-90090829D01*
X104335088Y-90099017D01*
X104249235Y-90122021D01*
X104249230Y-90122024D01*
X104144874Y-90182273D01*
X104144866Y-90182279D01*
X104059652Y-90267493D01*
X104059646Y-90267501D01*
X103999397Y-90371857D01*
X103999394Y-90371862D01*
X103984758Y-90426485D01*
X103968202Y-90488272D01*
X102201472Y-90488272D01*
X102184916Y-90426485D01*
X102169625Y-90400000D01*
X102124663Y-90322122D01*
X102124657Y-90322114D01*
X102103526Y-90300983D01*
X102070041Y-90239660D01*
X102075025Y-90169968D01*
X102103526Y-90125621D01*
X102123856Y-90105291D01*
X102151263Y-90077884D01*
X102211520Y-89973515D01*
X102242712Y-89857107D01*
X102242712Y-89736593D01*
X102214711Y-89632093D01*
X102214711Y-89567905D01*
X102228366Y-89516945D01*
X102242712Y-89463407D01*
X102242712Y-89342893D01*
X102237396Y-89323055D01*
X118571500Y-89323055D01*
X118571500Y-89456945D01*
X118606153Y-89586274D01*
X118673099Y-89702226D01*
X118767774Y-89796901D01*
X118883726Y-89863847D01*
X119013055Y-89898500D01*
X119013057Y-89898500D01*
X119146943Y-89898500D01*
X119146945Y-89898500D01*
X119276274Y-89863847D01*
X119392226Y-89796901D01*
X119486901Y-89702226D01*
X119553847Y-89586274D01*
X119588500Y-89456945D01*
X119588500Y-89323055D01*
X119553847Y-89193726D01*
X119486901Y-89077774D01*
X119392226Y-88983099D01*
X119276274Y-88916153D01*
X119146945Y-88881500D01*
X119013055Y-88881500D01*
X118883725Y-88916153D01*
X118767774Y-88983099D01*
X118767771Y-88983101D01*
X118673101Y-89077771D01*
X118673099Y-89077774D01*
X118606153Y-89193725D01*
X118590076Y-89253726D01*
X118571500Y-89323055D01*
X102237396Y-89323055D01*
X102211520Y-89226485D01*
X102192606Y-89193725D01*
X102151267Y-89122122D01*
X102151261Y-89122114D01*
X102066047Y-89036900D01*
X102066039Y-89036894D01*
X101961683Y-88976645D01*
X101961678Y-88976642D01*
X101911142Y-88963101D01*
X101845269Y-88945450D01*
X101724755Y-88945450D01*
X101666551Y-88961046D01*
X101608345Y-88976642D01*
X101608340Y-88976645D01*
X101503984Y-89036894D01*
X101503976Y-89036900D01*
X101418762Y-89122114D01*
X101418756Y-89122122D01*
X101358507Y-89226478D01*
X101358504Y-89226483D01*
X101337709Y-89304090D01*
X101327312Y-89342893D01*
X101327312Y-89463407D01*
X101341658Y-89516945D01*
X101355313Y-89567906D01*
X101355313Y-89632093D01*
X101327312Y-89736593D01*
X101327312Y-89857107D01*
X101344732Y-89922118D01*
X101358504Y-89973516D01*
X101358507Y-89973521D01*
X101418756Y-90077877D01*
X101418762Y-90077885D01*
X101439894Y-90099017D01*
X101473379Y-90160340D01*
X101468395Y-90230032D01*
X101439894Y-90274379D01*
X101392158Y-90322114D01*
X101392152Y-90322122D01*
X101331903Y-90426478D01*
X101331900Y-90426483D01*
X101315344Y-90488272D01*
X101300708Y-90542893D01*
X100508500Y-90542893D01*
X100508500Y-88142893D01*
X102760812Y-88142893D01*
X102760812Y-88263407D01*
X102788813Y-88367905D01*
X102788813Y-88367906D01*
X102788813Y-88432093D01*
X102760812Y-88536593D01*
X102760812Y-88657107D01*
X102778233Y-88722122D01*
X102792004Y-88773516D01*
X102792007Y-88773521D01*
X102852256Y-88877877D01*
X102852260Y-88877882D01*
X102852261Y-88877884D01*
X102937478Y-88963101D01*
X102937480Y-88963102D01*
X102937484Y-88963105D01*
X102984829Y-88990439D01*
X103041847Y-89023358D01*
X103158255Y-89054550D01*
X103158257Y-89054550D01*
X103278767Y-89054550D01*
X103278769Y-89054550D01*
X103395177Y-89023358D01*
X103499546Y-88963101D01*
X103584763Y-88877884D01*
X103645020Y-88773515D01*
X103676212Y-88657107D01*
X103676212Y-88536593D01*
X103648211Y-88432093D01*
X103648211Y-88367905D01*
X103676212Y-88263407D01*
X103676212Y-88142893D01*
X103645020Y-88026485D01*
X103618089Y-87979838D01*
X103584767Y-87922122D01*
X103584761Y-87922114D01*
X103499547Y-87836900D01*
X103499539Y-87836894D01*
X103395183Y-87776645D01*
X103395178Y-87776642D01*
X103344642Y-87763101D01*
X103278769Y-87745450D01*
X103158255Y-87745450D01*
X103100051Y-87761046D01*
X103041845Y-87776642D01*
X103041840Y-87776645D01*
X102937484Y-87836894D01*
X102937476Y-87836900D01*
X102852262Y-87922114D01*
X102852256Y-87922122D01*
X102792007Y-88026478D01*
X102792004Y-88026483D01*
X102779313Y-88073846D01*
X102760812Y-88142893D01*
X100508500Y-88142893D01*
X100508500Y-86942893D01*
X101311340Y-86942893D01*
X101311340Y-87063407D01*
X101328421Y-87127153D01*
X101339341Y-87167906D01*
X101339341Y-87232093D01*
X101311340Y-87336593D01*
X101311340Y-87457107D01*
X101328761Y-87522122D01*
X101342532Y-87573516D01*
X101342535Y-87573521D01*
X101402784Y-87677877D01*
X101402788Y-87677882D01*
X101402789Y-87677884D01*
X101488006Y-87763101D01*
X101488008Y-87763102D01*
X101488012Y-87763105D01*
X101563870Y-87806901D01*
X101592375Y-87823358D01*
X101708783Y-87854550D01*
X101708785Y-87854550D01*
X101829295Y-87854550D01*
X101829297Y-87854550D01*
X101945705Y-87823358D01*
X102050074Y-87763101D01*
X102135291Y-87677884D01*
X102195548Y-87573515D01*
X102226740Y-87457107D01*
X102226740Y-87336593D01*
X102225792Y-87333055D01*
X105191500Y-87333055D01*
X105191500Y-87466945D01*
X105226153Y-87596274D01*
X105293099Y-87712226D01*
X105387774Y-87806901D01*
X105503726Y-87873847D01*
X105633055Y-87908500D01*
X105633057Y-87908500D01*
X105766943Y-87908500D01*
X105766945Y-87908500D01*
X105896274Y-87873847D01*
X105896280Y-87873843D01*
X105902545Y-87871249D01*
X105972014Y-87863779D01*
X105997455Y-87871249D01*
X106003722Y-87873844D01*
X106003726Y-87873847D01*
X106133055Y-87908500D01*
X106133057Y-87908500D01*
X106266943Y-87908500D01*
X106266945Y-87908500D01*
X106396274Y-87873847D01*
X106396280Y-87873843D01*
X106402545Y-87871249D01*
X106472014Y-87863779D01*
X106497455Y-87871249D01*
X106503722Y-87873844D01*
X106503726Y-87873847D01*
X106633055Y-87908500D01*
X106633057Y-87908500D01*
X106766943Y-87908500D01*
X106766945Y-87908500D01*
X106896274Y-87873847D01*
X107012226Y-87806901D01*
X107106901Y-87712226D01*
X107173847Y-87596274D01*
X107208500Y-87466945D01*
X107208500Y-87333055D01*
X107173847Y-87203726D01*
X107106901Y-87087774D01*
X107012226Y-86993099D01*
X106896274Y-86926153D01*
X106766945Y-86891500D01*
X106633055Y-86891500D01*
X106503722Y-86926154D01*
X106497448Y-86928753D01*
X106427978Y-86936219D01*
X106402552Y-86928753D01*
X106396277Y-86926154D01*
X106396274Y-86926153D01*
X106266945Y-86891500D01*
X106133055Y-86891500D01*
X106003722Y-86926154D01*
X105997448Y-86928753D01*
X105927978Y-86936219D01*
X105902552Y-86928753D01*
X105896277Y-86926154D01*
X105896274Y-86926153D01*
X105766945Y-86891500D01*
X105633055Y-86891500D01*
X105503725Y-86926153D01*
X105387774Y-86993099D01*
X105387771Y-86993101D01*
X105293101Y-87087771D01*
X105293099Y-87087774D01*
X105226153Y-87203725D01*
X105205088Y-87282342D01*
X105191500Y-87333055D01*
X102225792Y-87333055D01*
X102198518Y-87231271D01*
X102198336Y-87230553D01*
X102198739Y-87219557D01*
X102198739Y-87167905D01*
X102209659Y-87127153D01*
X102226740Y-87063407D01*
X102226740Y-86942893D01*
X102195548Y-86826485D01*
X102170412Y-86782948D01*
X102135295Y-86722122D01*
X102135289Y-86722114D01*
X102050075Y-86636900D01*
X102050067Y-86636894D01*
X101945711Y-86576645D01*
X101945706Y-86576642D01*
X101906902Y-86566244D01*
X101829297Y-86545450D01*
X101708783Y-86545450D01*
X101650579Y-86561046D01*
X101592373Y-86576642D01*
X101592368Y-86576645D01*
X101488012Y-86636894D01*
X101488004Y-86636900D01*
X101402790Y-86722114D01*
X101402784Y-86722122D01*
X101342535Y-86826478D01*
X101342532Y-86826483D01*
X101326049Y-86887999D01*
X101311340Y-86942893D01*
X100508500Y-86942893D01*
X100508500Y-85733055D01*
X105191500Y-85733055D01*
X105191500Y-85866945D01*
X105226153Y-85996274D01*
X105293099Y-86112226D01*
X105387774Y-86206901D01*
X105503726Y-86273847D01*
X105633055Y-86308500D01*
X105633057Y-86308500D01*
X105766943Y-86308500D01*
X105766945Y-86308500D01*
X105896274Y-86273847D01*
X106012226Y-86206901D01*
X106062319Y-86156808D01*
X106123642Y-86123323D01*
X106193334Y-86128307D01*
X106237681Y-86156808D01*
X106287774Y-86206901D01*
X106403726Y-86273847D01*
X106533055Y-86308500D01*
X106533057Y-86308500D01*
X106666943Y-86308500D01*
X106666945Y-86308500D01*
X106796274Y-86273847D01*
X106912226Y-86206901D01*
X107006901Y-86112226D01*
X107073847Y-85996274D01*
X107108500Y-85866945D01*
X107108500Y-85733055D01*
X107073847Y-85603726D01*
X107006901Y-85487774D01*
X106912226Y-85393099D01*
X106796274Y-85326153D01*
X106666945Y-85291500D01*
X106533055Y-85291500D01*
X106403725Y-85326153D01*
X106287774Y-85393099D01*
X106287770Y-85393102D01*
X106237680Y-85443192D01*
X106176357Y-85476676D01*
X106106665Y-85471691D01*
X106062320Y-85443192D01*
X106012229Y-85393102D01*
X106012228Y-85393101D01*
X106012226Y-85393099D01*
X105896274Y-85326153D01*
X105766945Y-85291500D01*
X105633055Y-85291500D01*
X105503725Y-85326153D01*
X105387774Y-85393099D01*
X105387771Y-85393101D01*
X105293101Y-85487771D01*
X105293099Y-85487774D01*
X105226153Y-85603725D01*
X105202489Y-85692042D01*
X105191500Y-85733055D01*
X100508500Y-85733055D01*
X100508500Y-84542893D01*
X101321011Y-84542893D01*
X101321011Y-84663407D01*
X101343682Y-84748014D01*
X101349012Y-84767906D01*
X101349012Y-84832093D01*
X101321011Y-84936593D01*
X101321011Y-85057107D01*
X101338432Y-85122122D01*
X101352203Y-85173516D01*
X101352206Y-85173521D01*
X101412455Y-85277877D01*
X101412459Y-85277882D01*
X101412460Y-85277884D01*
X101497677Y-85363101D01*
X101497679Y-85363102D01*
X101497683Y-85363105D01*
X101602039Y-85423354D01*
X101602046Y-85423358D01*
X101718454Y-85454550D01*
X101718456Y-85454550D01*
X101838966Y-85454550D01*
X101838968Y-85454550D01*
X101955376Y-85423358D01*
X102059745Y-85363101D01*
X102144962Y-85277884D01*
X102205219Y-85173515D01*
X102236411Y-85057107D01*
X102236411Y-84936593D01*
X102212229Y-84846347D01*
X118414792Y-84846347D01*
X118414792Y-84991625D01*
X118449445Y-85120954D01*
X118516391Y-85236906D01*
X118516393Y-85236908D01*
X118516552Y-85237067D01*
X118516642Y-85237233D01*
X118521338Y-85243352D01*
X118520383Y-85244084D01*
X118550037Y-85298390D01*
X118545053Y-85368082D01*
X118536259Y-85386746D01*
X118496786Y-85455117D01*
X118496784Y-85455120D01*
X118479238Y-85520604D01*
X118465592Y-85571530D01*
X118465592Y-85692044D01*
X118486386Y-85769649D01*
X118496784Y-85808453D01*
X118496787Y-85808458D01*
X118557036Y-85912814D01*
X118557040Y-85912819D01*
X118557041Y-85912821D01*
X118642258Y-85998038D01*
X118642260Y-85998039D01*
X118642264Y-85998042D01*
X118746620Y-86058291D01*
X118746627Y-86058295D01*
X118863035Y-86089487D01*
X118863037Y-86089487D01*
X118983548Y-86089487D01*
X118983549Y-86089487D01*
X119034475Y-86075841D01*
X119104325Y-86077502D01*
X119162188Y-86116664D01*
X119189693Y-86180892D01*
X119186345Y-86227708D01*
X119172699Y-86278636D01*
X119172699Y-86278637D01*
X119172699Y-86399151D01*
X119184460Y-86443041D01*
X119203891Y-86515560D01*
X119203894Y-86515565D01*
X119264143Y-86619921D01*
X119264147Y-86619926D01*
X119264148Y-86619928D01*
X119349365Y-86705145D01*
X119349367Y-86705146D01*
X119349371Y-86705149D01*
X119453727Y-86765398D01*
X119453734Y-86765402D01*
X119570142Y-86796594D01*
X119570144Y-86796594D01*
X119690655Y-86796594D01*
X119690656Y-86796594D01*
X119741582Y-86782948D01*
X119811430Y-86784609D01*
X119869294Y-86823771D01*
X119896799Y-86887999D01*
X119893451Y-86934815D01*
X119887461Y-86957172D01*
X119879805Y-86985744D01*
X119879805Y-87106258D01*
X119885404Y-87127153D01*
X119910997Y-87222667D01*
X119911000Y-87222672D01*
X119971249Y-87327028D01*
X119971253Y-87327033D01*
X119971254Y-87327035D01*
X120056471Y-87412252D01*
X120065280Y-87417338D01*
X120065689Y-87417574D01*
X120113904Y-87468142D01*
X120127126Y-87536749D01*
X120101158Y-87601613D01*
X120044244Y-87642141D01*
X120003688Y-87648961D01*
X119923695Y-87648961D01*
X119865491Y-87664557D01*
X119807285Y-87680153D01*
X119807280Y-87680156D01*
X119702924Y-87740405D01*
X119702916Y-87740411D01*
X119617702Y-87825625D01*
X119617696Y-87825633D01*
X119557447Y-87929989D01*
X119557444Y-87929994D01*
X119540307Y-87993951D01*
X119526252Y-88046404D01*
X119526252Y-88166918D01*
X119529538Y-88179181D01*
X119557444Y-88283327D01*
X119557447Y-88283332D01*
X119617696Y-88387688D01*
X119617700Y-88387693D01*
X119617701Y-88387695D01*
X119702918Y-88472912D01*
X119702920Y-88472913D01*
X119702924Y-88472916D01*
X119785295Y-88520472D01*
X119807287Y-88533169D01*
X119819928Y-88536556D01*
X119879589Y-88572921D01*
X119907609Y-88624234D01*
X119910997Y-88636879D01*
X119910999Y-88636883D01*
X119971252Y-88741245D01*
X119971254Y-88741248D01*
X119971255Y-88741249D01*
X120056472Y-88826466D01*
X120056474Y-88826467D01*
X120056478Y-88826470D01*
X120145519Y-88877877D01*
X120160841Y-88886723D01*
X120173482Y-88890110D01*
X120233140Y-88926472D01*
X120261161Y-88977785D01*
X120264549Y-88990427D01*
X120264551Y-88990433D01*
X120264552Y-88990436D01*
X120264554Y-88990439D01*
X120324803Y-89094795D01*
X120324807Y-89094800D01*
X120324808Y-89094802D01*
X120410025Y-89180019D01*
X120410027Y-89180020D01*
X120410031Y-89180023D01*
X120490507Y-89226485D01*
X120514394Y-89240276D01*
X120630802Y-89271468D01*
X120630804Y-89271468D01*
X120751314Y-89271468D01*
X120751316Y-89271468D01*
X120867724Y-89240276D01*
X120972093Y-89180019D01*
X121034190Y-89117921D01*
X121095509Y-89084439D01*
X121165201Y-89089423D01*
X121221135Y-89131294D01*
X121245552Y-89196758D01*
X121237622Y-89245705D01*
X121238257Y-89245875D01*
X121236584Y-89252118D01*
X121236434Y-89253045D01*
X121236155Y-89253716D01*
X121217576Y-89323057D01*
X121201500Y-89383055D01*
X121201500Y-89516945D01*
X121236153Y-89646274D01*
X121303099Y-89762226D01*
X121397774Y-89856901D01*
X121513726Y-89923847D01*
X121643055Y-89958500D01*
X121643057Y-89958500D01*
X121776943Y-89958500D01*
X121776945Y-89958500D01*
X121906274Y-89923847D01*
X122022226Y-89856901D01*
X122116901Y-89762226D01*
X122183847Y-89646274D01*
X122218500Y-89516945D01*
X122218500Y-89383055D01*
X122183847Y-89253726D01*
X122116901Y-89137774D01*
X122022226Y-89043099D01*
X121906274Y-88976153D01*
X121776945Y-88941500D01*
X121643055Y-88941500D01*
X121513716Y-88976155D01*
X121513045Y-88976434D01*
X121512433Y-88976499D01*
X121505875Y-88978257D01*
X121505600Y-88977233D01*
X121443575Y-88983895D01*
X121381099Y-88952614D01*
X121345453Y-88892521D01*
X121347955Y-88822696D01*
X121377923Y-88774188D01*
X121410863Y-88741249D01*
X121471120Y-88636880D01*
X121502312Y-88520472D01*
X121502312Y-88511725D01*
X121521997Y-88444686D01*
X121574801Y-88398931D01*
X121643959Y-88388987D01*
X121707515Y-88418012D01*
X121713993Y-88424044D01*
X121767583Y-88477634D01*
X121767585Y-88477635D01*
X121767589Y-88477638D01*
X121871945Y-88537887D01*
X121871952Y-88537891D01*
X121988360Y-88569083D01*
X121988362Y-88569083D01*
X122108872Y-88569083D01*
X122108874Y-88569083D01*
X122225282Y-88537891D01*
X122329651Y-88477634D01*
X122414868Y-88392417D01*
X122475125Y-88288048D01*
X122506317Y-88171640D01*
X122506317Y-88051126D01*
X122475125Y-87934718D01*
X122462716Y-87913225D01*
X122414872Y-87830355D01*
X122414866Y-87830347D01*
X122329652Y-87745133D01*
X122329644Y-87745127D01*
X122225288Y-87684878D01*
X122225283Y-87684875D01*
X122186479Y-87674477D01*
X122108874Y-87653683D01*
X121988360Y-87653683D01*
X121988356Y-87653683D01*
X121981282Y-87654614D01*
X121948847Y-87649554D01*
X121916284Y-87645659D01*
X121914515Y-87644198D01*
X121912247Y-87643845D01*
X121887704Y-87622059D01*
X121862408Y-87601171D01*
X121861709Y-87598984D01*
X121859994Y-87597462D01*
X121854625Y-87578334D01*
X121853849Y-87577439D01*
X121853297Y-87573606D01*
X121851129Y-87565882D01*
X121841138Y-87534618D01*
X121841205Y-87534055D01*
X125391500Y-87534055D01*
X125391500Y-87667945D01*
X125426153Y-87797274D01*
X125493099Y-87913226D01*
X125587774Y-88007901D01*
X125703726Y-88074847D01*
X125833055Y-88109500D01*
X125833057Y-88109500D01*
X125966943Y-88109500D01*
X125966945Y-88109500D01*
X126096274Y-88074847D01*
X126145538Y-88046404D01*
X126188865Y-88021389D01*
X126256765Y-88004915D01*
X126312867Y-88021389D01*
X126403720Y-88073844D01*
X126403721Y-88073844D01*
X126403726Y-88073847D01*
X126533055Y-88108500D01*
X126533057Y-88108500D01*
X126666943Y-88108500D01*
X126666945Y-88108500D01*
X126796274Y-88073847D01*
X126843806Y-88046404D01*
X126887999Y-88020889D01*
X126955899Y-88004415D01*
X127012001Y-88020889D01*
X127103720Y-88073844D01*
X127103721Y-88073844D01*
X127103726Y-88073847D01*
X127233055Y-88108500D01*
X127233057Y-88108500D01*
X127366943Y-88108500D01*
X127366945Y-88108500D01*
X127496274Y-88073847D01*
X127543806Y-88046404D01*
X127587999Y-88020889D01*
X127655899Y-88004415D01*
X127712001Y-88020889D01*
X127803720Y-88073844D01*
X127803721Y-88073844D01*
X127803726Y-88073847D01*
X127933055Y-88108500D01*
X127933057Y-88108500D01*
X128066943Y-88108500D01*
X128066945Y-88108500D01*
X128196274Y-88073847D01*
X128312226Y-88006901D01*
X128406901Y-87912226D01*
X128473847Y-87796274D01*
X128508500Y-87666945D01*
X128508500Y-87533055D01*
X128473847Y-87403726D01*
X128406901Y-87287774D01*
X128312226Y-87193099D01*
X128196274Y-87126153D01*
X128066945Y-87091500D01*
X127933055Y-87091500D01*
X127803726Y-87126153D01*
X127803725Y-87126153D01*
X127803723Y-87126154D01*
X127803722Y-87126154D01*
X127712000Y-87179111D01*
X127644100Y-87195584D01*
X127588000Y-87179111D01*
X127496277Y-87126154D01*
X127496274Y-87126153D01*
X127366945Y-87091500D01*
X127233055Y-87091500D01*
X127103726Y-87126153D01*
X127103725Y-87126153D01*
X127103723Y-87126154D01*
X127103722Y-87126154D01*
X127012000Y-87179111D01*
X126944100Y-87195584D01*
X126888000Y-87179111D01*
X126796277Y-87126154D01*
X126796274Y-87126153D01*
X126666945Y-87091500D01*
X126533055Y-87091500D01*
X126403726Y-87126153D01*
X126403725Y-87126153D01*
X126403723Y-87126154D01*
X126403722Y-87126154D01*
X126311133Y-87179611D01*
X126243233Y-87196084D01*
X126187132Y-87179611D01*
X126176575Y-87173516D01*
X126120036Y-87140872D01*
X126096275Y-87127153D01*
X126018284Y-87106256D01*
X125966945Y-87092500D01*
X125833055Y-87092500D01*
X125703725Y-87127153D01*
X125587774Y-87194099D01*
X125587771Y-87194101D01*
X125493101Y-87288771D01*
X125493099Y-87288774D01*
X125426153Y-87404725D01*
X125426153Y-87404726D01*
X125391500Y-87534055D01*
X121841205Y-87534055D01*
X121841501Y-87531579D01*
X121841112Y-87530192D01*
X121844020Y-87509081D01*
X121843905Y-87508281D01*
X121844591Y-87504936D01*
X121845328Y-87499581D01*
X121855866Y-87460257D01*
X121855866Y-87339743D01*
X121824674Y-87223335D01*
X121807219Y-87193101D01*
X121764421Y-87118972D01*
X121764415Y-87118964D01*
X121679201Y-87033750D01*
X121679193Y-87033744D01*
X121574837Y-86973495D01*
X121574832Y-86973492D01*
X121536028Y-86963094D01*
X121458423Y-86942300D01*
X121377656Y-86942300D01*
X121310617Y-86922615D01*
X121264862Y-86869811D01*
X121254918Y-86800653D01*
X121283943Y-86737097D01*
X121315657Y-86710913D01*
X121325639Y-86705149D01*
X121325638Y-86705149D01*
X121325646Y-86705145D01*
X121410863Y-86619928D01*
X121471120Y-86515559D01*
X121474506Y-86502919D01*
X121510868Y-86443260D01*
X121536580Y-86425254D01*
X121548822Y-86418818D01*
X121574831Y-86411849D01*
X121679200Y-86351592D01*
X121681972Y-86348819D01*
X121694018Y-86342487D01*
X121718291Y-86337606D01*
X121741381Y-86328676D01*
X121751944Y-86330840D01*
X121762517Y-86328715D01*
X121785576Y-86337733D01*
X121809828Y-86342703D01*
X121818564Y-86348317D01*
X121906613Y-86399151D01*
X121928607Y-86411849D01*
X122045015Y-86443041D01*
X122045017Y-86443041D01*
X122165527Y-86443041D01*
X122165529Y-86443041D01*
X122281937Y-86411849D01*
X122386306Y-86351592D01*
X122471523Y-86266375D01*
X122531780Y-86162006D01*
X122535167Y-86149362D01*
X122571532Y-86089703D01*
X122622847Y-86061682D01*
X122635491Y-86058295D01*
X122739860Y-85998038D01*
X122825077Y-85912821D01*
X122885334Y-85808452D01*
X122916526Y-85692044D01*
X122916526Y-85571530D01*
X122902880Y-85520603D01*
X122904541Y-85450754D01*
X122943703Y-85392891D01*
X123007931Y-85365386D01*
X123054744Y-85368733D01*
X123105676Y-85382381D01*
X123105678Y-85382381D01*
X123226188Y-85382381D01*
X123226190Y-85382381D01*
X123342598Y-85351189D01*
X123446967Y-85290932D01*
X123532184Y-85205715D01*
X123592441Y-85101346D01*
X123623633Y-84984938D01*
X123623633Y-84864424D01*
X123592441Y-84748016D01*
X123592437Y-84748009D01*
X123532188Y-84643653D01*
X123532182Y-84643645D01*
X123446968Y-84558431D01*
X123446963Y-84558427D01*
X123342601Y-84498174D01*
X123342597Y-84498172D01*
X123329952Y-84494784D01*
X123270293Y-84458417D01*
X123252292Y-84432711D01*
X123245855Y-84420467D01*
X123238887Y-84394462D01*
X123178630Y-84290093D01*
X123175858Y-84287321D01*
X123169525Y-84275274D01*
X123164643Y-84250995D01*
X123155712Y-84227894D01*
X123157876Y-84217338D01*
X123155753Y-84206775D01*
X123164773Y-84183709D01*
X123169749Y-84159449D01*
X123175362Y-84150715D01*
X123200645Y-84106921D01*
X123238887Y-84040685D01*
X123270079Y-83924277D01*
X123270079Y-83803763D01*
X123238887Y-83687355D01*
X123233415Y-83677877D01*
X123178634Y-83582992D01*
X123178628Y-83582984D01*
X123093414Y-83497770D01*
X123093406Y-83497764D01*
X122989050Y-83437515D01*
X122989045Y-83437512D01*
X122936057Y-83423314D01*
X122872636Y-83406320D01*
X122752122Y-83406320D01*
X122693918Y-83421916D01*
X122635712Y-83437512D01*
X122635707Y-83437515D01*
X122531351Y-83497764D01*
X122531343Y-83497770D01*
X122446129Y-83582984D01*
X122446125Y-83582989D01*
X122385872Y-83687351D01*
X122385869Y-83687359D01*
X122382481Y-83700002D01*
X122346114Y-83759660D01*
X122320409Y-83777660D01*
X122308160Y-83784099D01*
X122282161Y-83791066D01*
X122177792Y-83851323D01*
X122175022Y-83854092D01*
X122162973Y-83860427D01*
X122138683Y-83865310D01*
X122115571Y-83874242D01*
X122105026Y-83872077D01*
X122094474Y-83874199D01*
X122071398Y-83865174D01*
X122047128Y-83860193D01*
X122038389Y-83854576D01*
X121928390Y-83791069D01*
X121928385Y-83791066D01*
X121878353Y-83777660D01*
X121811976Y-83759874D01*
X121731983Y-83759874D01*
X121664944Y-83740189D01*
X121619189Y-83687385D01*
X121609245Y-83618227D01*
X121638270Y-83554671D01*
X121669982Y-83528487D01*
X121670190Y-83528366D01*
X121679200Y-83523165D01*
X121764417Y-83437948D01*
X121824674Y-83333579D01*
X121855866Y-83217171D01*
X121855866Y-83096657D01*
X121824674Y-82980249D01*
X121808205Y-82951723D01*
X121760354Y-82868841D01*
X121762374Y-82867674D01*
X121741499Y-82813681D01*
X121755536Y-82745236D01*
X121761149Y-82736502D01*
X121801307Y-82666945D01*
X121824674Y-82626472D01*
X121855866Y-82510064D01*
X121855866Y-82437511D01*
X123433210Y-82437511D01*
X123433210Y-82558025D01*
X123451612Y-82626701D01*
X123461211Y-82662524D01*
X123461211Y-82726711D01*
X123433210Y-82831211D01*
X123433210Y-82951725D01*
X123447995Y-83006901D01*
X123464402Y-83068134D01*
X123464405Y-83068139D01*
X123524654Y-83172495D01*
X123524658Y-83172500D01*
X123524659Y-83172502D01*
X123609876Y-83257719D01*
X123609878Y-83257720D01*
X123609882Y-83257723D01*
X123714238Y-83317972D01*
X123714245Y-83317976D01*
X123830653Y-83349168D01*
X123830655Y-83349168D01*
X123951165Y-83349168D01*
X123951167Y-83349168D01*
X124067575Y-83317976D01*
X124171944Y-83257719D01*
X124257161Y-83172502D01*
X124317418Y-83068133D01*
X124348610Y-82951725D01*
X124348610Y-82831211D01*
X124320609Y-82726711D01*
X124320609Y-82662523D01*
X124325751Y-82643334D01*
X124348610Y-82558025D01*
X124348610Y-82437511D01*
X124317418Y-82321103D01*
X124301953Y-82294316D01*
X124257165Y-82216740D01*
X124257159Y-82216732D01*
X124229962Y-82189535D01*
X124196477Y-82128212D01*
X124201461Y-82058520D01*
X124229962Y-82014173D01*
X124244686Y-81999449D01*
X124266251Y-81977884D01*
X124326508Y-81873515D01*
X124357700Y-81757107D01*
X124357700Y-81636593D01*
X124329699Y-81532093D01*
X124329699Y-81467905D01*
X124336283Y-81443334D01*
X124357700Y-81363407D01*
X124357700Y-81242893D01*
X124326508Y-81126485D01*
X124326504Y-81126478D01*
X124266255Y-81022122D01*
X124266249Y-81022114D01*
X124242889Y-80998754D01*
X124209404Y-80937431D01*
X124214388Y-80867739D01*
X124242886Y-80823395D01*
X124266251Y-80800031D01*
X124326508Y-80695662D01*
X124357700Y-80579254D01*
X124357700Y-80458740D01*
X124329699Y-80354240D01*
X124329699Y-80290052D01*
X124357700Y-80185554D01*
X124357700Y-80065040D01*
X124326508Y-79948632D01*
X124319694Y-79936830D01*
X124266255Y-79844269D01*
X124266249Y-79844261D01*
X124220742Y-79798754D01*
X124187257Y-79737431D01*
X124192241Y-79667739D01*
X124220741Y-79623393D01*
X124266251Y-79577884D01*
X124326508Y-79473515D01*
X124357700Y-79357107D01*
X124357700Y-79342893D01*
X132952300Y-79342893D01*
X132952300Y-79463407D01*
X132980301Y-79567905D01*
X132980301Y-79567906D01*
X132980301Y-79632093D01*
X132952300Y-79736593D01*
X132952300Y-79857107D01*
X132973094Y-79934712D01*
X132983492Y-79973516D01*
X132983495Y-79973521D01*
X133043744Y-80077877D01*
X133043750Y-80077885D01*
X133078184Y-80112319D01*
X133111669Y-80173642D01*
X133106685Y-80243334D01*
X133078184Y-80287681D01*
X133043750Y-80322114D01*
X133043744Y-80322122D01*
X132983495Y-80426478D01*
X132983492Y-80426483D01*
X132976260Y-80453474D01*
X132952300Y-80542893D01*
X132952300Y-80663407D01*
X132971350Y-80734502D01*
X132980301Y-80767906D01*
X132980301Y-80832093D01*
X132952300Y-80936593D01*
X132952300Y-81057107D01*
X132966761Y-81111076D01*
X132983492Y-81173516D01*
X132983495Y-81173521D01*
X133043744Y-81277877D01*
X133043750Y-81277885D01*
X133078184Y-81312319D01*
X133111669Y-81373642D01*
X133106685Y-81443334D01*
X133078184Y-81487681D01*
X133043750Y-81522114D01*
X133043744Y-81522122D01*
X132983495Y-81626478D01*
X132983492Y-81626483D01*
X132975003Y-81658166D01*
X132952300Y-81742893D01*
X132952300Y-81863407D01*
X132973317Y-81941841D01*
X132980301Y-81967906D01*
X132980301Y-82032093D01*
X132952300Y-82136593D01*
X132952300Y-82257107D01*
X132969448Y-82321103D01*
X132983492Y-82373516D01*
X132983495Y-82373521D01*
X133043744Y-82477877D01*
X133043750Y-82477885D01*
X133078184Y-82512319D01*
X133111669Y-82573642D01*
X133106685Y-82643334D01*
X133078184Y-82687681D01*
X133043750Y-82722114D01*
X133043744Y-82722122D01*
X132983495Y-82826478D01*
X132983492Y-82826483D01*
X132970256Y-82875880D01*
X132952300Y-82942893D01*
X132952300Y-83063407D01*
X132961210Y-83096658D01*
X132980301Y-83167906D01*
X132980301Y-83232093D01*
X132952300Y-83336593D01*
X132952300Y-83457107D01*
X132962044Y-83493470D01*
X132983492Y-83573516D01*
X132983495Y-83573521D01*
X133043744Y-83677877D01*
X133043750Y-83677885D01*
X133078184Y-83712319D01*
X133111669Y-83773642D01*
X133106685Y-83843334D01*
X133078184Y-83887681D01*
X133043750Y-83922114D01*
X133043744Y-83922122D01*
X132983495Y-84026478D01*
X132983492Y-84026483D01*
X132979685Y-84040691D01*
X132952300Y-84142893D01*
X132952300Y-84263407D01*
X132968033Y-84322122D01*
X132980301Y-84367906D01*
X132980301Y-84432093D01*
X132952300Y-84536593D01*
X132952300Y-84657107D01*
X132973094Y-84734712D01*
X132983492Y-84773516D01*
X132983495Y-84773521D01*
X133043744Y-84877877D01*
X133043750Y-84877885D01*
X133078184Y-84912319D01*
X133111669Y-84973642D01*
X133106685Y-85043334D01*
X133078184Y-85087681D01*
X133043750Y-85122114D01*
X133043744Y-85122122D01*
X132983495Y-85226478D01*
X132983492Y-85226483D01*
X132980612Y-85237233D01*
X132952300Y-85342893D01*
X132952300Y-85463407D01*
X132980301Y-85567905D01*
X132980301Y-85567906D01*
X132980301Y-85632093D01*
X132952300Y-85736593D01*
X132952300Y-85857107D01*
X132967227Y-85912814D01*
X132983492Y-85973516D01*
X132983495Y-85973521D01*
X133043744Y-86077877D01*
X133043750Y-86077885D01*
X133078184Y-86112319D01*
X133111669Y-86173642D01*
X133106685Y-86243334D01*
X133078184Y-86287681D01*
X133043750Y-86322114D01*
X133043744Y-86322122D01*
X132983495Y-86426478D01*
X132983492Y-86426483D01*
X132978997Y-86443260D01*
X132952300Y-86542893D01*
X132952300Y-86663407D01*
X132968033Y-86722122D01*
X132980301Y-86767906D01*
X132980301Y-86832093D01*
X132952300Y-86936593D01*
X132952300Y-87057107D01*
X132968875Y-87118964D01*
X132983492Y-87173516D01*
X132983495Y-87173521D01*
X133043744Y-87277877D01*
X133043750Y-87277885D01*
X133078184Y-87312319D01*
X133111669Y-87373642D01*
X133106685Y-87443334D01*
X133078184Y-87487681D01*
X133043750Y-87522114D01*
X133043744Y-87522122D01*
X132983495Y-87626478D01*
X132983492Y-87626483D01*
X132968877Y-87681027D01*
X132952300Y-87742893D01*
X132952300Y-87863407D01*
X132971406Y-87934711D01*
X132980301Y-87967906D01*
X132980301Y-88032093D01*
X132952300Y-88136593D01*
X132952300Y-88257107D01*
X132973094Y-88334712D01*
X132983492Y-88373516D01*
X132983495Y-88373521D01*
X133043744Y-88477877D01*
X133043750Y-88477885D01*
X133078184Y-88512319D01*
X133111669Y-88573642D01*
X133106685Y-88643334D01*
X133078184Y-88687681D01*
X133043750Y-88722114D01*
X133043744Y-88722122D01*
X132983495Y-88826478D01*
X132983492Y-88826483D01*
X132967352Y-88886719D01*
X132952300Y-88942893D01*
X132952300Y-89063407D01*
X132968033Y-89122122D01*
X132980301Y-89167906D01*
X132980301Y-89232093D01*
X132952300Y-89336593D01*
X132952300Y-89457107D01*
X132953989Y-89463409D01*
X132983492Y-89573516D01*
X132983495Y-89573521D01*
X133043744Y-89677877D01*
X133043750Y-89677885D01*
X133084054Y-89718189D01*
X133117539Y-89779512D01*
X133112555Y-89849204D01*
X133084056Y-89893550D01*
X133055488Y-89922118D01*
X133055485Y-89922122D01*
X132995236Y-90026478D01*
X132995233Y-90026483D01*
X132981462Y-90077877D01*
X132964041Y-90142893D01*
X132964041Y-90263407D01*
X132979774Y-90322122D01*
X132992042Y-90367906D01*
X132992042Y-90432093D01*
X132964041Y-90536593D01*
X132964041Y-90657107D01*
X132965730Y-90663409D01*
X132995233Y-90773516D01*
X132995236Y-90773521D01*
X133055485Y-90877877D01*
X133055489Y-90877882D01*
X133055490Y-90877884D01*
X133140707Y-90963101D01*
X133140709Y-90963102D01*
X133140713Y-90963105D01*
X133225798Y-91012228D01*
X133245076Y-91023358D01*
X133361484Y-91054550D01*
X133361486Y-91054550D01*
X133481996Y-91054550D01*
X133481998Y-91054550D01*
X133598406Y-91023358D01*
X133702775Y-90963101D01*
X133787992Y-90877884D01*
X133848249Y-90773515D01*
X133879441Y-90657107D01*
X133879441Y-90536593D01*
X133851440Y-90432093D01*
X133851440Y-90367905D01*
X133863708Y-90322122D01*
X133879441Y-90263407D01*
X133879441Y-90142893D01*
X133848249Y-90026485D01*
X133822254Y-89981460D01*
X133787996Y-89922122D01*
X133787990Y-89922114D01*
X133747686Y-89881810D01*
X133714201Y-89820487D01*
X133719185Y-89750795D01*
X133747683Y-89706451D01*
X133776251Y-89677884D01*
X133836508Y-89573515D01*
X133867700Y-89457107D01*
X133867700Y-89336593D01*
X133839699Y-89232093D01*
X133839699Y-89167905D01*
X133847773Y-89137774D01*
X133867700Y-89063407D01*
X133867700Y-88942893D01*
X133836508Y-88826485D01*
X133834320Y-88822696D01*
X133776255Y-88722122D01*
X133776249Y-88722114D01*
X133741816Y-88687681D01*
X133708331Y-88626358D01*
X133713315Y-88556666D01*
X133741816Y-88512319D01*
X133742410Y-88511725D01*
X133776251Y-88477884D01*
X133836508Y-88373515D01*
X133867700Y-88257107D01*
X133867700Y-88136593D01*
X133839699Y-88032093D01*
X133839699Y-87967905D01*
X133848592Y-87934716D01*
X133867700Y-87863407D01*
X133867700Y-87742893D01*
X133836508Y-87626485D01*
X133821893Y-87601171D01*
X133776255Y-87522122D01*
X133776249Y-87522114D01*
X133741816Y-87487681D01*
X133708331Y-87426358D01*
X133713315Y-87356666D01*
X133741816Y-87312319D01*
X133776251Y-87277884D01*
X133836508Y-87173515D01*
X133867700Y-87057107D01*
X133867700Y-86936593D01*
X133839699Y-86832093D01*
X133839699Y-86767905D01*
X133840371Y-86765398D01*
X133867700Y-86663407D01*
X133867700Y-86542893D01*
X133836508Y-86426485D01*
X133828058Y-86411849D01*
X133776255Y-86322122D01*
X133776249Y-86322114D01*
X133741816Y-86287681D01*
X133708331Y-86226358D01*
X133713315Y-86156666D01*
X133741816Y-86112319D01*
X133741910Y-86112225D01*
X133776251Y-86077884D01*
X133836508Y-85973515D01*
X133867700Y-85857107D01*
X133867700Y-85736593D01*
X133839699Y-85632093D01*
X133839699Y-85567905D01*
X133867700Y-85463407D01*
X133867700Y-85342893D01*
X133836508Y-85226485D01*
X133824517Y-85205715D01*
X133776255Y-85122122D01*
X133776249Y-85122114D01*
X133741816Y-85087681D01*
X133708331Y-85026358D01*
X133713315Y-84956666D01*
X133741816Y-84912319D01*
X133776251Y-84877884D01*
X133836508Y-84773515D01*
X133867700Y-84657107D01*
X133867700Y-84536593D01*
X133839699Y-84432093D01*
X133839699Y-84367905D01*
X133867700Y-84263407D01*
X133867700Y-84142893D01*
X133836508Y-84026485D01*
X133823368Y-84003725D01*
X133776255Y-83922122D01*
X133776249Y-83922114D01*
X133741816Y-83887681D01*
X133708331Y-83826358D01*
X133713315Y-83756666D01*
X133741816Y-83712319D01*
X133754133Y-83700002D01*
X133776251Y-83677884D01*
X133836508Y-83573515D01*
X133867700Y-83457107D01*
X133867700Y-83336593D01*
X133839699Y-83232093D01*
X133839699Y-83167905D01*
X133858790Y-83096658D01*
X133867700Y-83063407D01*
X133867700Y-82942893D01*
X133836508Y-82826485D01*
X133819066Y-82796274D01*
X133776255Y-82722122D01*
X133776249Y-82722114D01*
X133741816Y-82687681D01*
X133708331Y-82626358D01*
X133713315Y-82556666D01*
X133741816Y-82512319D01*
X133744073Y-82510062D01*
X133776251Y-82477884D01*
X133836508Y-82373515D01*
X133867700Y-82257107D01*
X133867700Y-82136593D01*
X133839699Y-82032093D01*
X133839699Y-81967905D01*
X133846683Y-81941841D01*
X133867700Y-81863407D01*
X133867700Y-81742893D01*
X133836508Y-81626485D01*
X133821534Y-81600549D01*
X133776255Y-81522122D01*
X133776249Y-81522114D01*
X133741816Y-81487681D01*
X133708331Y-81426358D01*
X133713315Y-81356666D01*
X133741816Y-81312319D01*
X133747361Y-81306774D01*
X133776251Y-81277884D01*
X133836508Y-81173515D01*
X133867700Y-81057107D01*
X133867700Y-80936593D01*
X133839699Y-80832093D01*
X133839699Y-80767905D01*
X133848648Y-80734507D01*
X133867700Y-80663407D01*
X133867700Y-80542893D01*
X133836508Y-80426485D01*
X133794799Y-80354242D01*
X133776255Y-80322122D01*
X133776249Y-80322114D01*
X133741816Y-80287681D01*
X133708331Y-80226358D01*
X133713315Y-80156666D01*
X133741816Y-80112319D01*
X133776251Y-80077884D01*
X133836508Y-79973515D01*
X133867700Y-79857107D01*
X133867700Y-79736593D01*
X133839699Y-79632093D01*
X133839699Y-79567905D01*
X133867700Y-79463407D01*
X133867700Y-79342893D01*
X133836508Y-79226485D01*
X133804083Y-79170322D01*
X133776255Y-79122122D01*
X133776249Y-79122114D01*
X133691035Y-79036900D01*
X133691027Y-79036894D01*
X133586671Y-78976645D01*
X133586666Y-78976642D01*
X133547862Y-78966244D01*
X133470257Y-78945450D01*
X133349743Y-78945450D01*
X133291539Y-78961046D01*
X133233333Y-78976642D01*
X133233328Y-78976645D01*
X133128972Y-79036894D01*
X133128964Y-79036900D01*
X133043750Y-79122114D01*
X133043744Y-79122122D01*
X132983495Y-79226478D01*
X132983492Y-79226483D01*
X132975453Y-79256486D01*
X132952300Y-79342893D01*
X124357700Y-79342893D01*
X124357700Y-79236593D01*
X124327682Y-79124568D01*
X124326625Y-79116864D01*
X124329699Y-79096411D01*
X124329699Y-79067905D01*
X124357700Y-78963407D01*
X124357700Y-78842893D01*
X124326508Y-78726485D01*
X124307456Y-78693485D01*
X124266255Y-78622122D01*
X124266249Y-78622114D01*
X124231816Y-78587681D01*
X124198331Y-78526358D01*
X124203315Y-78456666D01*
X124231816Y-78412319D01*
X124266251Y-78377884D01*
X124326508Y-78273515D01*
X124357700Y-78157107D01*
X124357700Y-78036593D01*
X124329699Y-77932093D01*
X124329699Y-77867905D01*
X124346944Y-77803548D01*
X124357700Y-77763407D01*
X124357700Y-77642893D01*
X124326508Y-77526485D01*
X124277312Y-77441274D01*
X124266255Y-77422122D01*
X124266249Y-77422114D01*
X124231816Y-77387681D01*
X124198331Y-77326358D01*
X124203315Y-77256666D01*
X124231816Y-77212319D01*
X124236600Y-77207535D01*
X124266251Y-77177884D01*
X124326508Y-77073515D01*
X124357700Y-76957107D01*
X124357700Y-76836593D01*
X124329699Y-76732093D01*
X124329699Y-76667905D01*
X124336328Y-76643166D01*
X124357700Y-76563407D01*
X124357700Y-76442893D01*
X124326508Y-76326485D01*
X124291224Y-76265370D01*
X124266255Y-76222122D01*
X124266249Y-76222114D01*
X124231816Y-76187681D01*
X124198331Y-76126358D01*
X124203315Y-76056666D01*
X124231816Y-76012319D01*
X124241635Y-76002500D01*
X124266251Y-75977884D01*
X124326508Y-75873515D01*
X124357700Y-75757107D01*
X124357700Y-75636593D01*
X124329699Y-75532093D01*
X124329699Y-75467905D01*
X124357700Y-75363407D01*
X124357700Y-75242893D01*
X124326508Y-75126485D01*
X124326504Y-75126478D01*
X124266255Y-75022122D01*
X124266249Y-75022114D01*
X124231816Y-74987681D01*
X124198331Y-74926358D01*
X124203315Y-74856666D01*
X124231816Y-74812319D01*
X124239596Y-74804539D01*
X124266251Y-74777884D01*
X124326508Y-74673515D01*
X124357700Y-74557107D01*
X124357700Y-74436593D01*
X124329699Y-74332093D01*
X124329699Y-74267905D01*
X124331528Y-74261079D01*
X124357700Y-74163407D01*
X124357700Y-74042893D01*
X124326508Y-73926485D01*
X124304776Y-73888843D01*
X124266255Y-73822122D01*
X124266249Y-73822114D01*
X124181035Y-73736900D01*
X124181027Y-73736894D01*
X124076671Y-73676645D01*
X124076666Y-73676642D01*
X124037862Y-73666244D01*
X123960257Y-73645450D01*
X123839743Y-73645450D01*
X123781539Y-73661046D01*
X123723333Y-73676642D01*
X123723328Y-73676645D01*
X123618972Y-73736894D01*
X123618964Y-73736900D01*
X123533750Y-73822114D01*
X123533744Y-73822122D01*
X123473495Y-73926478D01*
X123473492Y-73926483D01*
X123460463Y-73975108D01*
X123442300Y-74042893D01*
X123442300Y-74163407D01*
X123456259Y-74215500D01*
X123470301Y-74267906D01*
X123470301Y-74332093D01*
X123442300Y-74436593D01*
X123442300Y-74557107D01*
X123450655Y-74588286D01*
X123473492Y-74673516D01*
X123473495Y-74673521D01*
X123533744Y-74777877D01*
X123533750Y-74777885D01*
X123568184Y-74812319D01*
X123601669Y-74873642D01*
X123596685Y-74943334D01*
X123568184Y-74987681D01*
X123533750Y-75022114D01*
X123533744Y-75022122D01*
X123473495Y-75126478D01*
X123473492Y-75126483D01*
X123442300Y-75242894D01*
X123442300Y-75363404D01*
X123442299Y-75363404D01*
X123453966Y-75406944D01*
X123468786Y-75462254D01*
X123470301Y-75467906D01*
X123470301Y-75532093D01*
X123442300Y-75636593D01*
X123442300Y-75757107D01*
X123457504Y-75813847D01*
X123473492Y-75873516D01*
X123473495Y-75873521D01*
X123533744Y-75977877D01*
X123533750Y-75977885D01*
X123568184Y-76012319D01*
X123601669Y-76073642D01*
X123596685Y-76143334D01*
X123568184Y-76187681D01*
X123533750Y-76222114D01*
X123533744Y-76222122D01*
X123473495Y-76326478D01*
X123473492Y-76326483D01*
X123459872Y-76377313D01*
X123442300Y-76442893D01*
X123442300Y-76563407D01*
X123463672Y-76643166D01*
X123470301Y-76667906D01*
X123470301Y-76732093D01*
X123442300Y-76836593D01*
X123442300Y-76957107D01*
X123457841Y-77015107D01*
X123473492Y-77073516D01*
X123473495Y-77073521D01*
X123533744Y-77177877D01*
X123533750Y-77177885D01*
X123568184Y-77212319D01*
X123601669Y-77273642D01*
X123596685Y-77343334D01*
X123568184Y-77387681D01*
X123533750Y-77422114D01*
X123533744Y-77422122D01*
X123473495Y-77526478D01*
X123473492Y-77526483D01*
X123452858Y-77603492D01*
X123442300Y-77642893D01*
X123442300Y-77763407D01*
X123453056Y-77803548D01*
X123470301Y-77867906D01*
X123470301Y-77932093D01*
X123442300Y-78036593D01*
X123442300Y-78157107D01*
X123452388Y-78194755D01*
X123473492Y-78273516D01*
X123473495Y-78273521D01*
X123533744Y-78377877D01*
X123533750Y-78377885D01*
X123568184Y-78412319D01*
X123601669Y-78473642D01*
X123596685Y-78543334D01*
X123568184Y-78587681D01*
X123533750Y-78622114D01*
X123533744Y-78622122D01*
X123473495Y-78726478D01*
X123473492Y-78726483D01*
X123456486Y-78789951D01*
X123442300Y-78842893D01*
X123442300Y-78963407D01*
X123461993Y-79036900D01*
X123470301Y-79067906D01*
X123470301Y-79132093D01*
X123442300Y-79236593D01*
X123442300Y-79357107D01*
X123444113Y-79363873D01*
X123473492Y-79473516D01*
X123473495Y-79473521D01*
X123533744Y-79577877D01*
X123533750Y-79577885D01*
X123579257Y-79623392D01*
X123612742Y-79684715D01*
X123607758Y-79754407D01*
X123579258Y-79798753D01*
X123533750Y-79844261D01*
X123533744Y-79844269D01*
X123473495Y-79948625D01*
X123473492Y-79948630D01*
X123458019Y-80006376D01*
X123442300Y-80065040D01*
X123442300Y-80185554D01*
X123469665Y-80287681D01*
X123470301Y-80290053D01*
X123470301Y-80354240D01*
X123442300Y-80458740D01*
X123442300Y-80579254D01*
X123455935Y-80630138D01*
X123473492Y-80695663D01*
X123473495Y-80695668D01*
X123533744Y-80800024D01*
X123533750Y-80800032D01*
X123557110Y-80823392D01*
X123590595Y-80884715D01*
X123585611Y-80954407D01*
X123557112Y-80998753D01*
X123533747Y-81022118D01*
X123533744Y-81022122D01*
X123473495Y-81126478D01*
X123473492Y-81126483D01*
X123456576Y-81189614D01*
X123442300Y-81242893D01*
X123442300Y-81363407D01*
X123463717Y-81443334D01*
X123470301Y-81467906D01*
X123470301Y-81532093D01*
X123442300Y-81636593D01*
X123442300Y-81757107D01*
X123443753Y-81762529D01*
X123473492Y-81873516D01*
X123473495Y-81873521D01*
X123533744Y-81977877D01*
X123533750Y-81977885D01*
X123560947Y-82005082D01*
X123594432Y-82066405D01*
X123589448Y-82136097D01*
X123560949Y-82180442D01*
X123524661Y-82216731D01*
X123524654Y-82216740D01*
X123464405Y-82321096D01*
X123464402Y-82321101D01*
X123446061Y-82389550D01*
X123433210Y-82437511D01*
X121855866Y-82437511D01*
X121855866Y-82389550D01*
X121824674Y-82273142D01*
X121797977Y-82226901D01*
X121764421Y-82168779D01*
X121764415Y-82168771D01*
X121679201Y-82083557D01*
X121679193Y-82083551D01*
X121574837Y-82023302D01*
X121574832Y-82023299D01*
X121506845Y-82005082D01*
X121458423Y-81992107D01*
X121337909Y-81992107D01*
X121289487Y-82005082D01*
X121221499Y-82023299D01*
X121221494Y-82023302D01*
X121117138Y-82083551D01*
X121117130Y-82083557D01*
X121031916Y-82168771D01*
X121031910Y-82168779D01*
X120971661Y-82273135D01*
X120971655Y-82273148D01*
X120968268Y-82285789D01*
X120931900Y-82345447D01*
X120880594Y-82373462D01*
X120867951Y-82376850D01*
X120867943Y-82376853D01*
X120763581Y-82437106D01*
X120763576Y-82437110D01*
X120678362Y-82522324D01*
X120678356Y-82522332D01*
X120618107Y-82626688D01*
X120618101Y-82626701D01*
X120614714Y-82639342D01*
X120578346Y-82699000D01*
X120527041Y-82727015D01*
X120514400Y-82730402D01*
X120514387Y-82730408D01*
X120410031Y-82790657D01*
X120410023Y-82790663D01*
X120324809Y-82875877D01*
X120324803Y-82875885D01*
X120264554Y-82980241D01*
X120264551Y-82980246D01*
X120257410Y-83006898D01*
X120242269Y-83063406D01*
X120233359Y-83096657D01*
X120233359Y-83217170D01*
X120247005Y-83268098D01*
X120245342Y-83337948D01*
X120206179Y-83395810D01*
X120141951Y-83423314D01*
X120095137Y-83419966D01*
X120044209Y-83406320D01*
X119923695Y-83406320D01*
X119865491Y-83421916D01*
X119807285Y-83437512D01*
X119807280Y-83437515D01*
X119695879Y-83501832D01*
X119694596Y-83499610D01*
X119641353Y-83520187D01*
X119572909Y-83506141D01*
X119555563Y-83494991D01*
X119553576Y-83493466D01*
X119449216Y-83433215D01*
X119449211Y-83433212D01*
X119399776Y-83419966D01*
X119332802Y-83402020D01*
X119212288Y-83402020D01*
X119154084Y-83417616D01*
X119095878Y-83433212D01*
X119095873Y-83433215D01*
X118991517Y-83493464D01*
X118991509Y-83493470D01*
X118906295Y-83578684D01*
X118906289Y-83578692D01*
X118846040Y-83683048D01*
X118846037Y-83683053D01*
X118830728Y-83740189D01*
X118814845Y-83799463D01*
X118814845Y-83919977D01*
X118835639Y-83997582D01*
X118846037Y-84036386D01*
X118846040Y-84036391D01*
X118906291Y-84140751D01*
X118907816Y-84142738D01*
X118908581Y-84144717D01*
X118910357Y-84147793D01*
X118909877Y-84148069D01*
X118915129Y-84161654D01*
X118926814Y-84178231D01*
X118927471Y-84193578D01*
X118933011Y-84207907D01*
X118928936Y-84227774D01*
X118929804Y-84248037D01*
X118921050Y-84266224D01*
X118918973Y-84276352D01*
X118916530Y-84280739D01*
X118911736Y-84288950D01*
X118910594Y-84290093D01*
X118867812Y-84364193D01*
X118867564Y-84364619D01*
X118842361Y-84388420D01*
X118817294Y-84412321D01*
X118816885Y-84412478D01*
X118816766Y-84412592D01*
X118816429Y-84412655D01*
X118792570Y-84421879D01*
X118727019Y-84439444D01*
X118727018Y-84439444D01*
X118611066Y-84506391D01*
X118611063Y-84506393D01*
X118516393Y-84601063D01*
X118516391Y-84601066D01*
X118449445Y-84717017D01*
X118449445Y-84717018D01*
X118414792Y-84846347D01*
X102212229Y-84846347D01*
X102208409Y-84832090D01*
X102208410Y-84767905D01*
X102236411Y-84663407D01*
X102236411Y-84542893D01*
X102205219Y-84426485D01*
X102197132Y-84412478D01*
X102144966Y-84322122D01*
X102144960Y-84322114D01*
X102059746Y-84236900D01*
X102059741Y-84236896D01*
X102051808Y-84232316D01*
X102051807Y-84232316D01*
X101955376Y-84176642D01*
X101955377Y-84176642D01*
X101899441Y-84161654D01*
X101838968Y-84145450D01*
X101718454Y-84145450D01*
X101666210Y-84159449D01*
X101602044Y-84176642D01*
X101602039Y-84176645D01*
X101497683Y-84236894D01*
X101497675Y-84236900D01*
X101412461Y-84322114D01*
X101412455Y-84322122D01*
X101352206Y-84426478D01*
X101352203Y-84426483D01*
X101338867Y-84476255D01*
X101321011Y-84542893D01*
X100508500Y-84542893D01*
X100508500Y-84133055D01*
X105191500Y-84133055D01*
X105191500Y-84266945D01*
X105226153Y-84396274D01*
X105293099Y-84512226D01*
X105387774Y-84606901D01*
X105503726Y-84673847D01*
X105633055Y-84708500D01*
X105633057Y-84708500D01*
X105766943Y-84708500D01*
X105766945Y-84708500D01*
X105896274Y-84673847D01*
X106012226Y-84606901D01*
X106062319Y-84556808D01*
X106123642Y-84523323D01*
X106193334Y-84528307D01*
X106237681Y-84556808D01*
X106287774Y-84606901D01*
X106403726Y-84673847D01*
X106533055Y-84708500D01*
X106533057Y-84708500D01*
X106666943Y-84708500D01*
X106666945Y-84708500D01*
X106796274Y-84673847D01*
X106912226Y-84606901D01*
X107006901Y-84512226D01*
X107073847Y-84396274D01*
X107108500Y-84266945D01*
X107108500Y-84133055D01*
X107073847Y-84003726D01*
X107006901Y-83887774D01*
X106912226Y-83793099D01*
X106796274Y-83726153D01*
X106666945Y-83691500D01*
X106533055Y-83691500D01*
X106403725Y-83726153D01*
X106287774Y-83793099D01*
X106287770Y-83793102D01*
X106237680Y-83843192D01*
X106176357Y-83876676D01*
X106106665Y-83871691D01*
X106062320Y-83843192D01*
X106012229Y-83793102D01*
X106012228Y-83793101D01*
X106012226Y-83793099D01*
X105896274Y-83726153D01*
X105766945Y-83691500D01*
X105633055Y-83691500D01*
X105503725Y-83726153D01*
X105387774Y-83793099D01*
X105387771Y-83793101D01*
X105293101Y-83887771D01*
X105293099Y-83887774D01*
X105226153Y-84003725D01*
X105216250Y-84040685D01*
X105191500Y-84133055D01*
X100508500Y-84133055D01*
X100508500Y-82533055D01*
X105191500Y-82533055D01*
X105191500Y-82666945D01*
X105226153Y-82796274D01*
X105293099Y-82912226D01*
X105387774Y-83006901D01*
X105503726Y-83073847D01*
X105633055Y-83108500D01*
X105633057Y-83108500D01*
X105766943Y-83108500D01*
X105766945Y-83108500D01*
X105896274Y-83073847D01*
X106012226Y-83006901D01*
X106106901Y-82912226D01*
X106173847Y-82796274D01*
X106208500Y-82666945D01*
X106208500Y-82533055D01*
X106173847Y-82403726D01*
X106106901Y-82287774D01*
X106012226Y-82193099D01*
X105896274Y-82126153D01*
X105766945Y-82091500D01*
X105633055Y-82091500D01*
X105503725Y-82126153D01*
X105387774Y-82193099D01*
X105387771Y-82193101D01*
X105293101Y-82287771D01*
X105293099Y-82287774D01*
X105226153Y-82403725D01*
X105197661Y-82510062D01*
X105191500Y-82533055D01*
X100508500Y-82533055D01*
X100508500Y-81878937D01*
X102863106Y-81878937D01*
X102863106Y-81999451D01*
X102869497Y-82023302D01*
X102894298Y-82115860D01*
X102894301Y-82115865D01*
X102954550Y-82220221D01*
X102954554Y-82220226D01*
X102954555Y-82220228D01*
X103039772Y-82305445D01*
X103039774Y-82305446D01*
X103039778Y-82305449D01*
X103140957Y-82363864D01*
X103144141Y-82365702D01*
X103260549Y-82396894D01*
X103260551Y-82396894D01*
X103381061Y-82396894D01*
X103381063Y-82396894D01*
X103497471Y-82365702D01*
X103601840Y-82305445D01*
X103687057Y-82220228D01*
X103741150Y-82126534D01*
X103786534Y-82081150D01*
X103880228Y-82027057D01*
X103965445Y-81941840D01*
X104025702Y-81837471D01*
X104052330Y-81738095D01*
X106475191Y-81738095D01*
X106475191Y-81863286D01*
X106499611Y-81986052D01*
X106499614Y-81986064D01*
X106547514Y-82101706D01*
X106547521Y-82101719D01*
X106617065Y-82205798D01*
X106617068Y-82205802D01*
X106705579Y-82294313D01*
X106705583Y-82294316D01*
X106809662Y-82363860D01*
X106809675Y-82363867D01*
X106905902Y-82403725D01*
X106925322Y-82411769D01*
X107048095Y-82436190D01*
X107048099Y-82436191D01*
X107048100Y-82436191D01*
X107173283Y-82436191D01*
X107173284Y-82436190D01*
X107296060Y-82411769D01*
X107407278Y-82365701D01*
X107411706Y-82363867D01*
X107411706Y-82363866D01*
X107411713Y-82363864D01*
X107515799Y-82294316D01*
X107532242Y-82277873D01*
X107593564Y-82244386D01*
X107663256Y-82249369D01*
X107681919Y-82258162D01*
X107707875Y-82273148D01*
X107743723Y-82293846D01*
X107743725Y-82293846D01*
X107743726Y-82293847D01*
X107873055Y-82328500D01*
X107873057Y-82328500D01*
X108006943Y-82328500D01*
X108006945Y-82328500D01*
X108136274Y-82293847D01*
X108252226Y-82226901D01*
X108346901Y-82132226D01*
X108413847Y-82016274D01*
X108448500Y-81886945D01*
X108448500Y-81753055D01*
X108413847Y-81623726D01*
X108346901Y-81507774D01*
X108252226Y-81413099D01*
X108136274Y-81346153D01*
X108006945Y-81311500D01*
X107873055Y-81311500D01*
X107743723Y-81346153D01*
X107706406Y-81367699D01*
X107638506Y-81384170D01*
X107572479Y-81361318D01*
X107556726Y-81347992D01*
X107515802Y-81307068D01*
X107515798Y-81307065D01*
X107411719Y-81237521D01*
X107411706Y-81237514D01*
X107296064Y-81189614D01*
X107296052Y-81189611D01*
X107173286Y-81165191D01*
X107173282Y-81165191D01*
X107048100Y-81165191D01*
X107048095Y-81165191D01*
X106925329Y-81189611D01*
X106925317Y-81189614D01*
X106809675Y-81237514D01*
X106809662Y-81237521D01*
X106705583Y-81307065D01*
X106705579Y-81307068D01*
X106617068Y-81395579D01*
X106617065Y-81395583D01*
X106547521Y-81499662D01*
X106547514Y-81499675D01*
X106499614Y-81615317D01*
X106499611Y-81615329D01*
X106475191Y-81738095D01*
X104052330Y-81738095D01*
X104056894Y-81721063D01*
X104056894Y-81600549D01*
X104025702Y-81484141D01*
X103998427Y-81436899D01*
X103965449Y-81379778D01*
X103965443Y-81379770D01*
X103880229Y-81294556D01*
X103880221Y-81294550D01*
X103775865Y-81234301D01*
X103775860Y-81234298D01*
X103737056Y-81223900D01*
X103659451Y-81203106D01*
X103538937Y-81203106D01*
X103480733Y-81218702D01*
X103422527Y-81234298D01*
X103422522Y-81234301D01*
X103318166Y-81294550D01*
X103318158Y-81294556D01*
X103232944Y-81379770D01*
X103232940Y-81379775D01*
X103178850Y-81473463D01*
X103133463Y-81518850D01*
X103039775Y-81572940D01*
X103039770Y-81572944D01*
X102954556Y-81658158D01*
X102954550Y-81658166D01*
X102894301Y-81762522D01*
X102894298Y-81762527D01*
X102874217Y-81837471D01*
X102863106Y-81878937D01*
X100508500Y-81878937D01*
X100508500Y-81373813D01*
X100528185Y-81306774D01*
X100580989Y-81261019D01*
X100650147Y-81251075D01*
X100703442Y-81273525D01*
X100703537Y-81273362D01*
X100704837Y-81274112D01*
X100707993Y-81275442D01*
X100710571Y-81277420D01*
X100710576Y-81277425D01*
X100710581Y-81277428D01*
X100710584Y-81277430D01*
X100814938Y-81337678D01*
X100814945Y-81337682D01*
X100931353Y-81368874D01*
X100931355Y-81368874D01*
X101051866Y-81368874D01*
X101051867Y-81368874D01*
X101156366Y-81340873D01*
X101220554Y-81340873D01*
X101325053Y-81368874D01*
X101325054Y-81368874D01*
X101445565Y-81368874D01*
X101445567Y-81368874D01*
X101561975Y-81337682D01*
X101666344Y-81277425D01*
X101751561Y-81192208D01*
X101811818Y-81087839D01*
X101843010Y-80971431D01*
X101843010Y-80850917D01*
X101811818Y-80734509D01*
X101811814Y-80734502D01*
X101751565Y-80630146D01*
X101751559Y-80630138D01*
X101666345Y-80544924D01*
X101666337Y-80544918D01*
X101561981Y-80484669D01*
X101561976Y-80484666D01*
X101523172Y-80474268D01*
X101445567Y-80453474D01*
X101325053Y-80453474D01*
X101220554Y-80481475D01*
X101156366Y-80481475D01*
X101051867Y-80453474D01*
X100931353Y-80453474D01*
X100873149Y-80469070D01*
X100814943Y-80484666D01*
X100814938Y-80484669D01*
X100710579Y-80544920D01*
X100707986Y-80546910D01*
X100705403Y-80547908D01*
X100703537Y-80548986D01*
X100703368Y-80548694D01*
X100642816Y-80572104D01*
X100574372Y-80558065D01*
X100524382Y-80509251D01*
X100508500Y-80448534D01*
X100508500Y-79363873D01*
X100528185Y-79296834D01*
X100580989Y-79251079D01*
X100650147Y-79241135D01*
X100694498Y-79256485D01*
X100797228Y-79315796D01*
X100913636Y-79346988D01*
X100913638Y-79346988D01*
X101034149Y-79346988D01*
X101034150Y-79346988D01*
X101138649Y-79318987D01*
X101202837Y-79318987D01*
X101307336Y-79346988D01*
X101307337Y-79346988D01*
X101427848Y-79346988D01*
X101427850Y-79346988D01*
X101544258Y-79315796D01*
X101648627Y-79255539D01*
X101733844Y-79170322D01*
X101794101Y-79065953D01*
X101825293Y-78949545D01*
X101825293Y-78829031D01*
X101794101Y-78712623D01*
X101779483Y-78687303D01*
X101733848Y-78608260D01*
X101733842Y-78608252D01*
X101648628Y-78523038D01*
X101648620Y-78523032D01*
X101544264Y-78462783D01*
X101544259Y-78462780D01*
X101505455Y-78452382D01*
X101427850Y-78431588D01*
X101307336Y-78431588D01*
X101202837Y-78459589D01*
X101138649Y-78459589D01*
X101034150Y-78431588D01*
X100913636Y-78431588D01*
X100836030Y-78452382D01*
X100797227Y-78462780D01*
X100694499Y-78522090D01*
X100626599Y-78538562D01*
X100560572Y-78515709D01*
X100517382Y-78460787D01*
X100508500Y-78414702D01*
X100508500Y-77969743D01*
X105572300Y-77969743D01*
X105572300Y-78090257D01*
X105581089Y-78123057D01*
X105600301Y-78194756D01*
X105600301Y-78258943D01*
X105572300Y-78363443D01*
X105572300Y-78483957D01*
X105582772Y-78523037D01*
X105603492Y-78600366D01*
X105603495Y-78600371D01*
X105663744Y-78704727D01*
X105663748Y-78704732D01*
X105663749Y-78704734D01*
X105748966Y-78789951D01*
X105748968Y-78789952D01*
X105748972Y-78789955D01*
X105840665Y-78842893D01*
X105853335Y-78850208D01*
X105969743Y-78881400D01*
X105969745Y-78881400D01*
X106090255Y-78881400D01*
X106090257Y-78881400D01*
X106206665Y-78850208D01*
X106311034Y-78789951D01*
X106396251Y-78704734D01*
X106456508Y-78600365D01*
X106487700Y-78483957D01*
X106487700Y-78363443D01*
X106459699Y-78258943D01*
X106459699Y-78194755D01*
X106469787Y-78157107D01*
X106487700Y-78090257D01*
X106487700Y-77969743D01*
X106456508Y-77853335D01*
X106404590Y-77763409D01*
X106396255Y-77748972D01*
X106396249Y-77748964D01*
X106311035Y-77663750D01*
X106311027Y-77663744D01*
X106206671Y-77603495D01*
X106206666Y-77603492D01*
X106167862Y-77593094D01*
X106090257Y-77572300D01*
X105969743Y-77572300D01*
X105911539Y-77587896D01*
X105853333Y-77603492D01*
X105853328Y-77603495D01*
X105748972Y-77663744D01*
X105748964Y-77663750D01*
X105663750Y-77748964D01*
X105663744Y-77748972D01*
X105603495Y-77853328D01*
X105603492Y-77853333D01*
X105590988Y-77900000D01*
X105572300Y-77969743D01*
X100508500Y-77969743D01*
X100508500Y-77424375D01*
X113914393Y-77424375D01*
X113914393Y-77558265D01*
X113949046Y-77687594D01*
X114015992Y-77803546D01*
X114110667Y-77898221D01*
X114226619Y-77965167D01*
X114355948Y-77999820D01*
X114355950Y-77999820D01*
X114489836Y-77999820D01*
X114489838Y-77999820D01*
X114619167Y-77965167D01*
X114735119Y-77898221D01*
X114829794Y-77803546D01*
X114896740Y-77687594D01*
X114917594Y-77609762D01*
X114953957Y-77550104D01*
X115016804Y-77519574D01*
X115086179Y-77527868D01*
X115125049Y-77554176D01*
X115217774Y-77646901D01*
X115333726Y-77713847D01*
X115336983Y-77714719D01*
X115339419Y-77716204D01*
X115341229Y-77716954D01*
X115341112Y-77717236D01*
X115396643Y-77751083D01*
X115412276Y-77772492D01*
X115430205Y-77803545D01*
X115430206Y-77803546D01*
X115524881Y-77898221D01*
X115640833Y-77965167D01*
X115770162Y-77999820D01*
X115770164Y-77999820D01*
X115904050Y-77999820D01*
X115904052Y-77999820D01*
X116033381Y-77965167D01*
X116033382Y-77965166D01*
X116041232Y-77963063D01*
X116042109Y-77966336D01*
X116095962Y-77960534D01*
X116158449Y-77991795D01*
X116194115Y-78051875D01*
X116193749Y-78114661D01*
X116191500Y-78123052D01*
X116191500Y-78123055D01*
X116191500Y-78256945D01*
X116226153Y-78386274D01*
X116293099Y-78502226D01*
X116387774Y-78596901D01*
X116503726Y-78663847D01*
X116614344Y-78693486D01*
X116674003Y-78729849D01*
X116704533Y-78792696D01*
X116696239Y-78862071D01*
X116669932Y-78900941D01*
X116593098Y-78977774D01*
X116526153Y-79093725D01*
X116505629Y-79170323D01*
X116491500Y-79223055D01*
X116491500Y-79356945D01*
X116526153Y-79486274D01*
X116593099Y-79602226D01*
X116687774Y-79696901D01*
X116803726Y-79763847D01*
X116842439Y-79774220D01*
X116902099Y-79810582D01*
X116932630Y-79873428D01*
X116924336Y-79942804D01*
X116879852Y-79996683D01*
X116879242Y-79997094D01*
X116865350Y-80006376D01*
X116776838Y-80094888D01*
X116776835Y-80094892D01*
X116707291Y-80198971D01*
X116707284Y-80198984D01*
X116659384Y-80314626D01*
X116659381Y-80314638D01*
X116634961Y-80437404D01*
X116634961Y-80562595D01*
X116659381Y-80685361D01*
X116659384Y-80685373D01*
X116707284Y-80801015D01*
X116707291Y-80801028D01*
X116776835Y-80905107D01*
X116776838Y-80905111D01*
X116865349Y-80993622D01*
X116865353Y-80993625D01*
X116969432Y-81063169D01*
X116969445Y-81063176D01*
X117085087Y-81111076D01*
X117085092Y-81111078D01*
X117207865Y-81135499D01*
X117207869Y-81135500D01*
X117207870Y-81135500D01*
X117333053Y-81135500D01*
X117333054Y-81135499D01*
X117455830Y-81111078D01*
X117571483Y-81063173D01*
X117675569Y-80993625D01*
X117764086Y-80905108D01*
X117833634Y-80801022D01*
X117834045Y-80800031D01*
X117847351Y-80767905D01*
X117881539Y-80685369D01*
X117905961Y-80562591D01*
X117905961Y-80437409D01*
X117881539Y-80314631D01*
X117876291Y-80301962D01*
X117833637Y-80198984D01*
X117833630Y-80198971D01*
X117764086Y-80094892D01*
X117764083Y-80094888D01*
X117675572Y-80006377D01*
X117675568Y-80006374D01*
X117571489Y-79936830D01*
X117571476Y-79936823D01*
X117455834Y-79888923D01*
X117455822Y-79888920D01*
X117403418Y-79878496D01*
X117341507Y-79846111D01*
X117306933Y-79785395D01*
X117310672Y-79715626D01*
X117339924Y-79669202D01*
X117406901Y-79602226D01*
X117473847Y-79486274D01*
X117508500Y-79356945D01*
X117508500Y-79223055D01*
X117473847Y-79093726D01*
X117406901Y-78977774D01*
X117312226Y-78883099D01*
X117218581Y-78829032D01*
X117196275Y-78816153D01*
X117157150Y-78805670D01*
X117085654Y-78786513D01*
X117025995Y-78750149D01*
X116995466Y-78687303D01*
X117003760Y-78617927D01*
X117030063Y-78579063D01*
X117106901Y-78502226D01*
X117173847Y-78386274D01*
X117208500Y-78256945D01*
X117208500Y-78123055D01*
X117173847Y-77993726D01*
X117106901Y-77877774D01*
X117012226Y-77783099D01*
X116896274Y-77716153D01*
X116766945Y-77681500D01*
X116633055Y-77681500D01*
X116503726Y-77716153D01*
X116503724Y-77716153D01*
X116495875Y-77718257D01*
X116495006Y-77715017D01*
X116440917Y-77720744D01*
X116378489Y-77689367D01*
X116342934Y-77629220D01*
X116343358Y-77566654D01*
X116345607Y-77558265D01*
X116345607Y-77424375D01*
X116310954Y-77295046D01*
X116310953Y-77295045D01*
X116310953Y-77295043D01*
X116274513Y-77231930D01*
X116274512Y-77231928D01*
X116244008Y-77179094D01*
X116242969Y-77178055D01*
X117096500Y-77178055D01*
X117096500Y-77311945D01*
X117131153Y-77441274D01*
X117198099Y-77557226D01*
X117292774Y-77651901D01*
X117408726Y-77718847D01*
X117538055Y-77753500D01*
X117538057Y-77753500D01*
X117671943Y-77753500D01*
X117671945Y-77753500D01*
X117801274Y-77718847D01*
X117917226Y-77651901D01*
X118011901Y-77557226D01*
X118078847Y-77441274D01*
X118113500Y-77311945D01*
X118113500Y-77178055D01*
X118078847Y-77048726D01*
X118011901Y-76932774D01*
X117917226Y-76838099D01*
X117801274Y-76771153D01*
X117671945Y-76736500D01*
X117538055Y-76736500D01*
X117408725Y-76771153D01*
X117292774Y-76838099D01*
X117292771Y-76838101D01*
X117198101Y-76932771D01*
X117198099Y-76932774D01*
X117131153Y-77048725D01*
X117121590Y-77084416D01*
X117096500Y-77178055D01*
X116242969Y-77178055D01*
X116149333Y-77084419D01*
X116149331Y-77084418D01*
X116149329Y-77084416D01*
X116086178Y-77047956D01*
X116033381Y-77017473D01*
X116032787Y-77017314D01*
X116030113Y-77016597D01*
X116027669Y-77015107D01*
X116025868Y-77014361D01*
X116025984Y-77014080D01*
X115970455Y-76980228D01*
X115954830Y-76958828D01*
X115936901Y-76927774D01*
X115842226Y-76833099D01*
X115814330Y-76816993D01*
X115766116Y-76766426D01*
X115752894Y-76697819D01*
X115778862Y-76632954D01*
X115835777Y-76592427D01*
X115876332Y-76585607D01*
X115904050Y-76585607D01*
X115904052Y-76585607D01*
X116033381Y-76550954D01*
X116047062Y-76543055D01*
X118401500Y-76543055D01*
X118401500Y-76676945D01*
X118436153Y-76806274D01*
X118503099Y-76922226D01*
X118597774Y-77016901D01*
X118713726Y-77083847D01*
X118843055Y-77118500D01*
X118843057Y-77118500D01*
X118976943Y-77118500D01*
X118976945Y-77118500D01*
X119106274Y-77083847D01*
X119222226Y-77016901D01*
X119316901Y-76922226D01*
X119383847Y-76806274D01*
X119418500Y-76676945D01*
X119418500Y-76543055D01*
X119383847Y-76413726D01*
X119316901Y-76297774D01*
X119222226Y-76203099D01*
X119106274Y-76136153D01*
X118976945Y-76101500D01*
X118843055Y-76101500D01*
X118713725Y-76136153D01*
X118597774Y-76203099D01*
X118597771Y-76203101D01*
X118503101Y-76297771D01*
X118503099Y-76297774D01*
X118436153Y-76413725D01*
X118415207Y-76491898D01*
X118401500Y-76543055D01*
X116047062Y-76543055D01*
X116149333Y-76484008D01*
X116244008Y-76389333D01*
X116310954Y-76273381D01*
X116345607Y-76144052D01*
X116345607Y-76010162D01*
X116345607Y-76002500D01*
X116365292Y-75935461D01*
X116418096Y-75889706D01*
X116469607Y-75878500D01*
X116611157Y-75878500D01*
X116611159Y-75878500D01*
X116740488Y-75843847D01*
X116856440Y-75776901D01*
X116951115Y-75682226D01*
X117018061Y-75566274D01*
X117052714Y-75436945D01*
X117052714Y-75303055D01*
X117052714Y-75295393D01*
X117055264Y-75286707D01*
X117053976Y-75277746D01*
X117064954Y-75253705D01*
X117072399Y-75228354D01*
X117079239Y-75222426D01*
X117083001Y-75214190D01*
X117105235Y-75199900D01*
X117125203Y-75182599D01*
X117135717Y-75180311D01*
X117141779Y-75176416D01*
X117176714Y-75171393D01*
X117325927Y-75171393D01*
X117392966Y-75191078D01*
X117438721Y-75243882D01*
X117449927Y-75295393D01*
X117449927Y-75303055D01*
X117449927Y-75436945D01*
X117484580Y-75566274D01*
X117551526Y-75682226D01*
X117646201Y-75776901D01*
X117762153Y-75843847D01*
X117891482Y-75878500D01*
X117891484Y-75878500D01*
X118025370Y-75878500D01*
X118025372Y-75878500D01*
X118154701Y-75843847D01*
X118270653Y-75776901D01*
X118365328Y-75682226D01*
X118432274Y-75566274D01*
X118466927Y-75436945D01*
X118466927Y-75303055D01*
X118432274Y-75173726D01*
X118365328Y-75057774D01*
X118270653Y-74963099D01*
X118154701Y-74896153D01*
X118025372Y-74861500D01*
X117891482Y-74861500D01*
X117883820Y-74861500D01*
X117816781Y-74841815D01*
X117771026Y-74789011D01*
X117759820Y-74737500D01*
X117759820Y-74595950D01*
X117759820Y-74595948D01*
X117725167Y-74466619D01*
X117658221Y-74350667D01*
X117563546Y-74255992D01*
X117447594Y-74189046D01*
X117318265Y-74154393D01*
X117184375Y-74154393D01*
X117055045Y-74189046D01*
X116939094Y-74255992D01*
X116939091Y-74255994D01*
X116844421Y-74350664D01*
X116844419Y-74350667D01*
X116777473Y-74466618D01*
X116742820Y-74595948D01*
X116742820Y-74737500D01*
X116723135Y-74804539D01*
X116670331Y-74850294D01*
X116618820Y-74861500D01*
X116477269Y-74861500D01*
X116347939Y-74896153D01*
X116231988Y-74963099D01*
X116231985Y-74963101D01*
X116137315Y-75057771D01*
X116137313Y-75057774D01*
X116070367Y-75173725D01*
X116035714Y-75303055D01*
X116035714Y-75444607D01*
X116033163Y-75453292D01*
X116034452Y-75462254D01*
X116023473Y-75486294D01*
X116016029Y-75511646D01*
X116009188Y-75517573D01*
X116005427Y-75525810D01*
X115983192Y-75540099D01*
X115963225Y-75557401D01*
X115952710Y-75559688D01*
X115946649Y-75563584D01*
X115911714Y-75568607D01*
X115762500Y-75568607D01*
X115695461Y-75548922D01*
X115649706Y-75496118D01*
X115638500Y-75444607D01*
X115638500Y-75303057D01*
X115638500Y-75303055D01*
X115603847Y-75173726D01*
X115536901Y-75057774D01*
X115442226Y-74963099D01*
X115326274Y-74896153D01*
X115196945Y-74861500D01*
X115063055Y-74861500D01*
X114933725Y-74896153D01*
X114817774Y-74963099D01*
X114817771Y-74963101D01*
X114723101Y-75057771D01*
X114723099Y-75057774D01*
X114656153Y-75173725D01*
X114650974Y-75193055D01*
X114621500Y-75303055D01*
X114621500Y-75436945D01*
X114656153Y-75566274D01*
X114723099Y-75682226D01*
X114817774Y-75776901D01*
X114933726Y-75843847D01*
X115063055Y-75878500D01*
X115063057Y-75878500D01*
X115204607Y-75878500D01*
X115213292Y-75881050D01*
X115222254Y-75879762D01*
X115246294Y-75890740D01*
X115271646Y-75898185D01*
X115277573Y-75905025D01*
X115285810Y-75908787D01*
X115300099Y-75931021D01*
X115317401Y-75950989D01*
X115319688Y-75961503D01*
X115323584Y-75967565D01*
X115328607Y-76002500D01*
X115328607Y-76151714D01*
X115308922Y-76218753D01*
X115256118Y-76264508D01*
X115204607Y-76275714D01*
X115063055Y-76275714D01*
X114933725Y-76310367D01*
X114817774Y-76377313D01*
X114817771Y-76377315D01*
X114723101Y-76471985D01*
X114723099Y-76471988D01*
X114656153Y-76587939D01*
X114621500Y-76717269D01*
X114621500Y-76858820D01*
X114601815Y-76925859D01*
X114549011Y-76971614D01*
X114497500Y-76982820D01*
X114355948Y-76982820D01*
X114226618Y-77017473D01*
X114110667Y-77084419D01*
X114110664Y-77084421D01*
X114015994Y-77179091D01*
X114015992Y-77179094D01*
X113949046Y-77295045D01*
X113944518Y-77311944D01*
X113914393Y-77424375D01*
X100508500Y-77424375D01*
X100508500Y-75193055D01*
X103641501Y-75193055D01*
X103641501Y-75326945D01*
X103676154Y-75456274D01*
X103743100Y-75572226D01*
X103743102Y-75572228D01*
X103760693Y-75589819D01*
X103794178Y-75651142D01*
X103789194Y-75720834D01*
X103760697Y-75765178D01*
X103753101Y-75772773D01*
X103753101Y-75772774D01*
X103686155Y-75888725D01*
X103662661Y-75976408D01*
X103651502Y-76018055D01*
X103651502Y-76151945D01*
X103686155Y-76281274D01*
X103753101Y-76397226D01*
X103847776Y-76491901D01*
X103963728Y-76558847D01*
X104093057Y-76593500D01*
X104093059Y-76593500D01*
X104226945Y-76593500D01*
X104226947Y-76593500D01*
X104356276Y-76558847D01*
X104472228Y-76491901D01*
X104566903Y-76397226D01*
X104633849Y-76281274D01*
X104668502Y-76151945D01*
X104668502Y-76018055D01*
X104633849Y-75888726D01*
X104566903Y-75772774D01*
X104549309Y-75755180D01*
X104515824Y-75693857D01*
X104520808Y-75624165D01*
X104549308Y-75579819D01*
X104556902Y-75572226D01*
X104623848Y-75456274D01*
X104658501Y-75326945D01*
X104658501Y-75273055D01*
X104961500Y-75273055D01*
X104961500Y-75406945D01*
X104996153Y-75536274D01*
X105063099Y-75652226D01*
X105157774Y-75746901D01*
X105273726Y-75813847D01*
X105343133Y-75832444D01*
X105402791Y-75868807D01*
X105433321Y-75931654D01*
X105432656Y-75976408D01*
X105424501Y-76017407D01*
X105424501Y-76142592D01*
X105448921Y-76265358D01*
X105448924Y-76265370D01*
X105496824Y-76381012D01*
X105496831Y-76381025D01*
X105566375Y-76485104D01*
X105566378Y-76485108D01*
X105654889Y-76573619D01*
X105654893Y-76573622D01*
X105758972Y-76643166D01*
X105758985Y-76643173D01*
X105840519Y-76676945D01*
X105874632Y-76691075D01*
X105997405Y-76715496D01*
X105997409Y-76715497D01*
X105997410Y-76715497D01*
X106122593Y-76715497D01*
X106122594Y-76715496D01*
X106245370Y-76691075D01*
X106361023Y-76643170D01*
X106465109Y-76573622D01*
X106553626Y-76485105D01*
X106623174Y-76381019D01*
X106671079Y-76265366D01*
X106695501Y-76142588D01*
X106695501Y-76017406D01*
X106671079Y-75894628D01*
X106650045Y-75843847D01*
X106623177Y-75778981D01*
X106623170Y-75778968D01*
X106553626Y-75674889D01*
X106553623Y-75674885D01*
X106465112Y-75586374D01*
X106465108Y-75586371D01*
X106361029Y-75516827D01*
X106361016Y-75516820D01*
X106245374Y-75468920D01*
X106245362Y-75468917D01*
X106122596Y-75444497D01*
X106122592Y-75444497D01*
X106102500Y-75444497D01*
X106035461Y-75424812D01*
X105989706Y-75372008D01*
X105978500Y-75320497D01*
X105978500Y-75273057D01*
X105978500Y-75273055D01*
X105943847Y-75143726D01*
X105876901Y-75027774D01*
X105782226Y-74933099D01*
X105666274Y-74866153D01*
X105536945Y-74831500D01*
X105403055Y-74831500D01*
X105273725Y-74866153D01*
X105157774Y-74933099D01*
X105157771Y-74933101D01*
X105063101Y-75027771D01*
X105063099Y-75027774D01*
X104996153Y-75143725D01*
X104975066Y-75222426D01*
X104961500Y-75273055D01*
X104658501Y-75273055D01*
X104658501Y-75193055D01*
X104623848Y-75063726D01*
X104556902Y-74947774D01*
X104462227Y-74853099D01*
X104346275Y-74786153D01*
X104216946Y-74751500D01*
X104083056Y-74751500D01*
X103953726Y-74786153D01*
X103837775Y-74853099D01*
X103837772Y-74853101D01*
X103743102Y-74947771D01*
X103743100Y-74947774D01*
X103676154Y-75063725D01*
X103656590Y-75136740D01*
X103641501Y-75193055D01*
X100508500Y-75193055D01*
X100508500Y-74503055D01*
X111669004Y-74503055D01*
X111669004Y-74636945D01*
X111703657Y-74766274D01*
X111770603Y-74882226D01*
X111865278Y-74976901D01*
X111981230Y-75043847D01*
X112110559Y-75078500D01*
X112110561Y-75078500D01*
X112244447Y-75078500D01*
X112244449Y-75078500D01*
X112373778Y-75043847D01*
X112479494Y-74982811D01*
X112547394Y-74966337D01*
X112613421Y-74989189D01*
X112629176Y-75002516D01*
X112696454Y-75069794D01*
X112812406Y-75136740D01*
X112941735Y-75171393D01*
X112941737Y-75171393D01*
X113083286Y-75171393D01*
X113150325Y-75191078D01*
X113196080Y-75243882D01*
X113207286Y-75295393D01*
X113207286Y-75303055D01*
X113207286Y-75436945D01*
X113241939Y-75566274D01*
X113308885Y-75682226D01*
X113403560Y-75776901D01*
X113519512Y-75843847D01*
X113648841Y-75878500D01*
X113648843Y-75878500D01*
X113782729Y-75878500D01*
X113782731Y-75878500D01*
X113912060Y-75843847D01*
X114028012Y-75776901D01*
X114122687Y-75682226D01*
X114189633Y-75566274D01*
X114224286Y-75436945D01*
X114224286Y-75303055D01*
X114189633Y-75173726D01*
X114122687Y-75057774D01*
X114028012Y-74963099D01*
X113912060Y-74896153D01*
X113782731Y-74861500D01*
X113648841Y-74861500D01*
X113641180Y-74861500D01*
X113632494Y-74858949D01*
X113623533Y-74860238D01*
X113599492Y-74849259D01*
X113574141Y-74841815D01*
X113568213Y-74834974D01*
X113559977Y-74831213D01*
X113545687Y-74808978D01*
X113528386Y-74789011D01*
X113526098Y-74778496D01*
X113522203Y-74772435D01*
X113517180Y-74737500D01*
X113517180Y-74588286D01*
X113536865Y-74521247D01*
X113589669Y-74475492D01*
X113641180Y-74464286D01*
X113782729Y-74464286D01*
X113782731Y-74464286D01*
X113912060Y-74429633D01*
X114028012Y-74362687D01*
X114122687Y-74268012D01*
X114189633Y-74152060D01*
X114224286Y-74022731D01*
X114224286Y-73888841D01*
X114189633Y-73759512D01*
X114122687Y-73643560D01*
X114028012Y-73548885D01*
X113912060Y-73481939D01*
X113782731Y-73447286D01*
X113648841Y-73447286D01*
X113519511Y-73481939D01*
X113403560Y-73548885D01*
X113403557Y-73548887D01*
X113308887Y-73643557D01*
X113308885Y-73643560D01*
X113241939Y-73759511D01*
X113207286Y-73888841D01*
X113207286Y-74030393D01*
X113187601Y-74097432D01*
X113134797Y-74143187D01*
X113083286Y-74154393D01*
X113075625Y-74154393D01*
X112941735Y-74154393D01*
X112812406Y-74189046D01*
X112812405Y-74189046D01*
X112812403Y-74189047D01*
X112812402Y-74189047D01*
X112706688Y-74250082D01*
X112638788Y-74266555D01*
X112572761Y-74243703D01*
X112557007Y-74230376D01*
X112489732Y-74163101D01*
X112489730Y-74163099D01*
X112373778Y-74096153D01*
X112244449Y-74061500D01*
X112110559Y-74061500D01*
X111981229Y-74096153D01*
X111865278Y-74163099D01*
X111865275Y-74163101D01*
X111770605Y-74257771D01*
X111770603Y-74257774D01*
X111703657Y-74373725D01*
X111703657Y-74373726D01*
X111669004Y-74503055D01*
X100508500Y-74503055D01*
X100508500Y-73087401D01*
X102004501Y-73087401D01*
X102004501Y-73212592D01*
X102028921Y-73335358D01*
X102028924Y-73335370D01*
X102076824Y-73451012D01*
X102076831Y-73451025D01*
X102146375Y-73555104D01*
X102146378Y-73555108D01*
X102234889Y-73643619D01*
X102234893Y-73643622D01*
X102338972Y-73713166D01*
X102338985Y-73713173D01*
X102454627Y-73761073D01*
X102454632Y-73761075D01*
X102577405Y-73785496D01*
X102577409Y-73785497D01*
X102577410Y-73785497D01*
X102702593Y-73785497D01*
X102702594Y-73785496D01*
X102825370Y-73761075D01*
X102941023Y-73713170D01*
X103045109Y-73643622D01*
X103133626Y-73555105D01*
X103158817Y-73517404D01*
X106254500Y-73517404D01*
X106254500Y-73642595D01*
X106278920Y-73765361D01*
X106278923Y-73765373D01*
X106326823Y-73881015D01*
X106326830Y-73881028D01*
X106396374Y-73985107D01*
X106396377Y-73985111D01*
X106484888Y-74073622D01*
X106484892Y-74073625D01*
X106588971Y-74143169D01*
X106588984Y-74143176D01*
X106680491Y-74181079D01*
X106704631Y-74191078D01*
X106827404Y-74215499D01*
X106827408Y-74215500D01*
X106827409Y-74215500D01*
X106952592Y-74215500D01*
X106952593Y-74215499D01*
X107075369Y-74191078D01*
X107191022Y-74143173D01*
X107295108Y-74073625D01*
X107347320Y-74021412D01*
X107408639Y-73987929D01*
X107478331Y-73992912D01*
X107522680Y-74021414D01*
X107564888Y-74063622D01*
X107564892Y-74063625D01*
X107668971Y-74133169D01*
X107668984Y-74133176D01*
X107741969Y-74163407D01*
X107784631Y-74181078D01*
X107907404Y-74205499D01*
X107907408Y-74205500D01*
X107907409Y-74205500D01*
X108032592Y-74205500D01*
X108032593Y-74205499D01*
X108155369Y-74181078D01*
X108271022Y-74133173D01*
X108375108Y-74063625D01*
X108382314Y-74056418D01*
X108443630Y-74022931D01*
X108513322Y-74027909D01*
X108557680Y-74056414D01*
X108644888Y-74143622D01*
X108644892Y-74143625D01*
X108748971Y-74213169D01*
X108748984Y-74213176D01*
X108838084Y-74250082D01*
X108864631Y-74261078D01*
X108958829Y-74279815D01*
X108987404Y-74285499D01*
X108987408Y-74285500D01*
X108987409Y-74285500D01*
X109112592Y-74285500D01*
X109112593Y-74285499D01*
X109235369Y-74261078D01*
X109351022Y-74213173D01*
X109455108Y-74143625D01*
X109543625Y-74055108D01*
X109613173Y-73951022D01*
X109661078Y-73835369D01*
X109685500Y-73712591D01*
X109685500Y-73587409D01*
X109661078Y-73464631D01*
X109655440Y-73451019D01*
X109613176Y-73348984D01*
X109613169Y-73348971D01*
X109543625Y-73244892D01*
X109543622Y-73244888D01*
X109455111Y-73156377D01*
X109455107Y-73156374D01*
X109351028Y-73086830D01*
X109351015Y-73086823D01*
X109235373Y-73038923D01*
X109235361Y-73038920D01*
X109112595Y-73014500D01*
X109112591Y-73014500D01*
X108987409Y-73014500D01*
X108987404Y-73014500D01*
X108864638Y-73038920D01*
X108864626Y-73038923D01*
X108748984Y-73086823D01*
X108748971Y-73086830D01*
X108644892Y-73156374D01*
X108644888Y-73156377D01*
X108637681Y-73163585D01*
X108576358Y-73197070D01*
X108506666Y-73192086D01*
X108462319Y-73163585D01*
X108375111Y-73076377D01*
X108375107Y-73076374D01*
X108271028Y-73006830D01*
X108271015Y-73006823D01*
X108155373Y-72958923D01*
X108155361Y-72958920D01*
X108032595Y-72934500D01*
X108032591Y-72934500D01*
X107907409Y-72934500D01*
X107907404Y-72934500D01*
X107784638Y-72958920D01*
X107784626Y-72958923D01*
X107668984Y-73006823D01*
X107668971Y-73006830D01*
X107564892Y-73076374D01*
X107564888Y-73076377D01*
X107512681Y-73128585D01*
X107451358Y-73162070D01*
X107381666Y-73157086D01*
X107337319Y-73128585D01*
X107295111Y-73086377D01*
X107295107Y-73086374D01*
X107191028Y-73016830D01*
X107191015Y-73016823D01*
X107075373Y-72968923D01*
X107075361Y-72968920D01*
X106952595Y-72944500D01*
X106952591Y-72944500D01*
X106827409Y-72944500D01*
X106827404Y-72944500D01*
X106704638Y-72968920D01*
X106704626Y-72968923D01*
X106588984Y-73016823D01*
X106588971Y-73016830D01*
X106484892Y-73086374D01*
X106484888Y-73086377D01*
X106396377Y-73174888D01*
X106396374Y-73174892D01*
X106326830Y-73278971D01*
X106326823Y-73278984D01*
X106278923Y-73394626D01*
X106278920Y-73394638D01*
X106254500Y-73517404D01*
X103158817Y-73517404D01*
X103203174Y-73451019D01*
X103251079Y-73335366D01*
X103275501Y-73212588D01*
X103275501Y-73087406D01*
X103251079Y-72964628D01*
X103248716Y-72958923D01*
X103203177Y-72848981D01*
X103203170Y-72848968D01*
X103133626Y-72744889D01*
X103133623Y-72744885D01*
X103045112Y-72656374D01*
X103045108Y-72656371D01*
X102942829Y-72588030D01*
X102941027Y-72586826D01*
X102941016Y-72586820D01*
X102825374Y-72538920D01*
X102825362Y-72538917D01*
X102702596Y-72514497D01*
X102702592Y-72514497D01*
X102577410Y-72514497D01*
X102577405Y-72514497D01*
X102454639Y-72538917D01*
X102454627Y-72538920D01*
X102338985Y-72586820D01*
X102338972Y-72586827D01*
X102234893Y-72656371D01*
X102234889Y-72656374D01*
X102146378Y-72744885D01*
X102146375Y-72744889D01*
X102076831Y-72848968D01*
X102076824Y-72848981D01*
X102028924Y-72964623D01*
X102028921Y-72964635D01*
X102004501Y-73087401D01*
X100508500Y-73087401D01*
X100508500Y-72493055D01*
X114341500Y-72493055D01*
X114341500Y-72626945D01*
X114376153Y-72756274D01*
X114443099Y-72872226D01*
X114537774Y-72966901D01*
X114653726Y-73033847D01*
X114783055Y-73068500D01*
X114783057Y-73068500D01*
X114916943Y-73068500D01*
X114916945Y-73068500D01*
X115046274Y-73033847D01*
X115162226Y-72966901D01*
X115162228Y-72966898D01*
X115167898Y-72963625D01*
X115235798Y-72947151D01*
X115301825Y-72970002D01*
X115345017Y-73024923D01*
X115351660Y-73094476D01*
X115349675Y-73103103D01*
X115328607Y-73181733D01*
X115328607Y-73323286D01*
X115308922Y-73390325D01*
X115256118Y-73436080D01*
X115204607Y-73447286D01*
X115063055Y-73447286D01*
X114933725Y-73481939D01*
X114817774Y-73548885D01*
X114817771Y-73548887D01*
X114723101Y-73643557D01*
X114723099Y-73643560D01*
X114656153Y-73759511D01*
X114635826Y-73835373D01*
X114621500Y-73888841D01*
X114621500Y-74022731D01*
X114656153Y-74152060D01*
X114723099Y-74268012D01*
X114817774Y-74362687D01*
X114933726Y-74429633D01*
X115063055Y-74464286D01*
X115063057Y-74464286D01*
X115196943Y-74464286D01*
X115196945Y-74464286D01*
X115326274Y-74429633D01*
X115442226Y-74362687D01*
X115536901Y-74268012D01*
X115603847Y-74152060D01*
X115638500Y-74022731D01*
X115638500Y-73888841D01*
X115638500Y-73881180D01*
X115658185Y-73814141D01*
X115710989Y-73768386D01*
X115762500Y-73757180D01*
X115904050Y-73757180D01*
X115904052Y-73757180D01*
X116033381Y-73722527D01*
X116149333Y-73655581D01*
X116244008Y-73560906D01*
X116310954Y-73444954D01*
X116345607Y-73315625D01*
X116345607Y-73181735D01*
X116310954Y-73052406D01*
X116244008Y-72936454D01*
X116149333Y-72841779D01*
X116033381Y-72774833D01*
X115904052Y-72740180D01*
X115770162Y-72740180D01*
X115640831Y-72774833D01*
X115519207Y-72845055D01*
X115451307Y-72861528D01*
X115385280Y-72838676D01*
X115342089Y-72783755D01*
X115335447Y-72714202D01*
X115337427Y-72705588D01*
X115358500Y-72626945D01*
X115358500Y-72493055D01*
X115323847Y-72363726D01*
X115256901Y-72247774D01*
X115162226Y-72153099D01*
X115046274Y-72086153D01*
X114916945Y-72051500D01*
X114783055Y-72051500D01*
X114653725Y-72086153D01*
X114537774Y-72153099D01*
X114537771Y-72153101D01*
X114443101Y-72247771D01*
X114443099Y-72247774D01*
X114376153Y-72363725D01*
X114376153Y-72363726D01*
X114341500Y-72493055D01*
X100508500Y-72493055D01*
X100508500Y-71261989D01*
X100528185Y-71194950D01*
X100544819Y-71174308D01*
X101174308Y-70544819D01*
X101235631Y-70511334D01*
X101261989Y-70508500D01*
X134738010Y-70508500D01*
X134805049Y-70528185D01*
G37*
%TD.AperFunction*%
%TD*%
M02*
