%TF.GenerationSoftware,KiCad,Pcbnew,9.0.2*%
%TF.CreationDate,2025-11-14T17:05:06-08:00*%
%TF.ProjectId,pico2-nx-module,7069636f-322d-46e7-982d-6d6f64756c65,rev?*%
%TF.SameCoordinates,Original*%
%TF.FileFunction,AssemblyDrawing,Top*%
%FSLAX46Y46*%
G04 Gerber Fmt 4.6, Leading zero omitted, Abs format (unit mm)*
G04 Created by KiCad (PCBNEW 9.0.2) date 2025-11-14 17:05:06*
%MOMM*%
%LPD*%
G01*
G04 APERTURE LIST*
%ADD10C,0.150000*%
%ADD11C,0.040000*%
%ADD12C,0.100000*%
%ADD13C,0.127000*%
%ADD14C,0.200000*%
G04 APERTURE END LIST*
D10*
X113824197Y-74300834D02*
X114295602Y-74772239D01*
X113386464Y-74199819D02*
X113723182Y-74873254D01*
X113723182Y-74873254D02*
X114160915Y-74435521D01*
X114598647Y-74334506D02*
X114665991Y-74334506D01*
X114665991Y-74334506D02*
X114665991Y-74401849D01*
X114665991Y-74401849D02*
X114598647Y-74401849D01*
X114598647Y-74401849D02*
X114598647Y-74334506D01*
X114598647Y-74334506D02*
X114665991Y-74401849D01*
X114228258Y-73425369D02*
X114699662Y-72953964D01*
X114699662Y-72953964D02*
X115103723Y-73964117D01*
X115676143Y-73391697D02*
X114969036Y-72684590D01*
X116080204Y-72987636D02*
X115373097Y-72886621D01*
X115373097Y-72280529D02*
X115373097Y-73088651D01*
D11*
X113836016Y-73101144D02*
X113687187Y-73074880D01*
X113730961Y-73206200D02*
X113547113Y-73022352D01*
X113547113Y-73022352D02*
X113617150Y-72952315D01*
X113617150Y-72952315D02*
X113643414Y-72943560D01*
X113643414Y-72943560D02*
X113660923Y-72943560D01*
X113660923Y-72943560D02*
X113687187Y-72952315D01*
X113687187Y-72952315D02*
X113713451Y-72978579D01*
X113713451Y-72978579D02*
X113722206Y-73004843D01*
X113722206Y-73004843D02*
X113722206Y-73022352D01*
X113722206Y-73022352D02*
X113713451Y-73048616D01*
X113713451Y-73048616D02*
X113643414Y-73118653D01*
X113809752Y-72759712D02*
X113774734Y-72794731D01*
X113774734Y-72794731D02*
X113765979Y-72820995D01*
X113765979Y-72820995D02*
X113765979Y-72838504D01*
X113765979Y-72838504D02*
X113774734Y-72882278D01*
X113774734Y-72882278D02*
X113800998Y-72926051D01*
X113800998Y-72926051D02*
X113871035Y-72996088D01*
X113871035Y-72996088D02*
X113897299Y-73004843D01*
X113897299Y-73004843D02*
X113914808Y-73004843D01*
X113914808Y-73004843D02*
X113941072Y-72996088D01*
X113941072Y-72996088D02*
X113976091Y-72961070D01*
X113976091Y-72961070D02*
X113984846Y-72934806D01*
X113984846Y-72934806D02*
X113984846Y-72917296D01*
X113984846Y-72917296D02*
X113976091Y-72891032D01*
X113976091Y-72891032D02*
X113932318Y-72847259D01*
X113932318Y-72847259D02*
X113906054Y-72838504D01*
X113906054Y-72838504D02*
X113888544Y-72838504D01*
X113888544Y-72838504D02*
X113862280Y-72847259D01*
X113862280Y-72847259D02*
X113827262Y-72882278D01*
X113827262Y-72882278D02*
X113818507Y-72908542D01*
X113818507Y-72908542D02*
X113818507Y-72926051D01*
X113818507Y-72926051D02*
X113827262Y-72952315D01*
X113914808Y-72689675D02*
X113914808Y-72672166D01*
X113914808Y-72672166D02*
X113923563Y-72645902D01*
X113923563Y-72645902D02*
X113967336Y-72602129D01*
X113967336Y-72602129D02*
X113993600Y-72593374D01*
X113993600Y-72593374D02*
X114011109Y-72593374D01*
X114011109Y-72593374D02*
X114037373Y-72602129D01*
X114037373Y-72602129D02*
X114054883Y-72619638D01*
X114054883Y-72619638D02*
X114072392Y-72654657D01*
X114072392Y-72654657D02*
X114072392Y-72864768D01*
X114072392Y-72864768D02*
X114186203Y-72750958D01*
D10*
X103544819Y-73312857D02*
X103544819Y-73884285D01*
X103544819Y-73598571D02*
X102544819Y-73598571D01*
X102544819Y-73598571D02*
X102687676Y-73693809D01*
X102687676Y-73693809D02*
X102782914Y-73789047D01*
X102782914Y-73789047D02*
X102830533Y-73884285D01*
X102544819Y-72693809D02*
X102544819Y-72598571D01*
X102544819Y-72598571D02*
X102592438Y-72503333D01*
X102592438Y-72503333D02*
X102640057Y-72455714D01*
X102640057Y-72455714D02*
X102735295Y-72408095D01*
X102735295Y-72408095D02*
X102925771Y-72360476D01*
X102925771Y-72360476D02*
X103163866Y-72360476D01*
X103163866Y-72360476D02*
X103354342Y-72408095D01*
X103354342Y-72408095D02*
X103449580Y-72455714D01*
X103449580Y-72455714D02*
X103497200Y-72503333D01*
X103497200Y-72503333D02*
X103544819Y-72598571D01*
X103544819Y-72598571D02*
X103544819Y-72693809D01*
X103544819Y-72693809D02*
X103497200Y-72789047D01*
X103497200Y-72789047D02*
X103449580Y-72836666D01*
X103449580Y-72836666D02*
X103354342Y-72884285D01*
X103354342Y-72884285D02*
X103163866Y-72931904D01*
X103163866Y-72931904D02*
X102925771Y-72931904D01*
X102925771Y-72931904D02*
X102735295Y-72884285D01*
X102735295Y-72884285D02*
X102640057Y-72836666D01*
X102640057Y-72836666D02*
X102592438Y-72789047D01*
X102592438Y-72789047D02*
X102544819Y-72693809D01*
X102878152Y-71503333D02*
X103544819Y-71503333D01*
X102878152Y-71931904D02*
X103401961Y-71931904D01*
X103401961Y-71931904D02*
X103497200Y-71884285D01*
X103497200Y-71884285D02*
X103544819Y-71789047D01*
X103544819Y-71789047D02*
X103544819Y-71646190D01*
X103544819Y-71646190D02*
X103497200Y-71550952D01*
X103497200Y-71550952D02*
X103449580Y-71503333D01*
D11*
X102019765Y-72830714D02*
X102031670Y-72842618D01*
X102031670Y-72842618D02*
X102043574Y-72878333D01*
X102043574Y-72878333D02*
X102043574Y-72902142D01*
X102043574Y-72902142D02*
X102031670Y-72937856D01*
X102031670Y-72937856D02*
X102007860Y-72961666D01*
X102007860Y-72961666D02*
X101984050Y-72973571D01*
X101984050Y-72973571D02*
X101936431Y-72985475D01*
X101936431Y-72985475D02*
X101900717Y-72985475D01*
X101900717Y-72985475D02*
X101853098Y-72973571D01*
X101853098Y-72973571D02*
X101829289Y-72961666D01*
X101829289Y-72961666D02*
X101805479Y-72937856D01*
X101805479Y-72937856D02*
X101793574Y-72902142D01*
X101793574Y-72902142D02*
X101793574Y-72878333D01*
X101793574Y-72878333D02*
X101805479Y-72842618D01*
X101805479Y-72842618D02*
X101817384Y-72830714D01*
X101876908Y-72616428D02*
X102043574Y-72616428D01*
X101781670Y-72675952D02*
X101960241Y-72735475D01*
X101960241Y-72735475D02*
X101960241Y-72580714D01*
X101900717Y-72449761D02*
X101888812Y-72473571D01*
X101888812Y-72473571D02*
X101876908Y-72485476D01*
X101876908Y-72485476D02*
X101853098Y-72497380D01*
X101853098Y-72497380D02*
X101841193Y-72497380D01*
X101841193Y-72497380D02*
X101817384Y-72485476D01*
X101817384Y-72485476D02*
X101805479Y-72473571D01*
X101805479Y-72473571D02*
X101793574Y-72449761D01*
X101793574Y-72449761D02*
X101793574Y-72402142D01*
X101793574Y-72402142D02*
X101805479Y-72378333D01*
X101805479Y-72378333D02*
X101817384Y-72366428D01*
X101817384Y-72366428D02*
X101841193Y-72354523D01*
X101841193Y-72354523D02*
X101853098Y-72354523D01*
X101853098Y-72354523D02*
X101876908Y-72366428D01*
X101876908Y-72366428D02*
X101888812Y-72378333D01*
X101888812Y-72378333D02*
X101900717Y-72402142D01*
X101900717Y-72402142D02*
X101900717Y-72449761D01*
X101900717Y-72449761D02*
X101912622Y-72473571D01*
X101912622Y-72473571D02*
X101924527Y-72485476D01*
X101924527Y-72485476D02*
X101948336Y-72497380D01*
X101948336Y-72497380D02*
X101995955Y-72497380D01*
X101995955Y-72497380D02*
X102019765Y-72485476D01*
X102019765Y-72485476D02*
X102031670Y-72473571D01*
X102031670Y-72473571D02*
X102043574Y-72449761D01*
X102043574Y-72449761D02*
X102043574Y-72402142D01*
X102043574Y-72402142D02*
X102031670Y-72378333D01*
X102031670Y-72378333D02*
X102019765Y-72366428D01*
X102019765Y-72366428D02*
X101995955Y-72354523D01*
X101995955Y-72354523D02*
X101948336Y-72354523D01*
X101948336Y-72354523D02*
X101924527Y-72366428D01*
X101924527Y-72366428D02*
X101912622Y-72378333D01*
X101912622Y-72378333D02*
X101900717Y-72402142D01*
D10*
X127153552Y-96729410D02*
X127820219Y-96729410D01*
X126772600Y-96967505D02*
X127486885Y-97205600D01*
X127486885Y-97205600D02*
X127486885Y-96586553D01*
X127724980Y-96205600D02*
X127772600Y-96157981D01*
X127772600Y-96157981D02*
X127820219Y-96205600D01*
X127820219Y-96205600D02*
X127772600Y-96253219D01*
X127772600Y-96253219D02*
X127724980Y-96205600D01*
X127724980Y-96205600D02*
X127820219Y-96205600D01*
X126820219Y-95824648D02*
X126820219Y-95157982D01*
X126820219Y-95157982D02*
X127820219Y-95586553D01*
X127820219Y-94777029D02*
X126820219Y-94777029D01*
X127820219Y-94205601D02*
X127248790Y-94634172D01*
X126820219Y-94205601D02*
X127391647Y-94777029D01*
D11*
X126313600Y-95872743D02*
X126189791Y-95959410D01*
X126313600Y-96021315D02*
X126053600Y-96021315D01*
X126053600Y-96021315D02*
X126053600Y-95922267D01*
X126053600Y-95922267D02*
X126065981Y-95897505D01*
X126065981Y-95897505D02*
X126078362Y-95885124D01*
X126078362Y-95885124D02*
X126103124Y-95872743D01*
X126103124Y-95872743D02*
X126140267Y-95872743D01*
X126140267Y-95872743D02*
X126165029Y-95885124D01*
X126165029Y-95885124D02*
X126177410Y-95897505D01*
X126177410Y-95897505D02*
X126189791Y-95922267D01*
X126189791Y-95922267D02*
X126189791Y-96021315D01*
X126053600Y-95786077D02*
X126053600Y-95625124D01*
X126053600Y-95625124D02*
X126152648Y-95711791D01*
X126152648Y-95711791D02*
X126152648Y-95674648D01*
X126152648Y-95674648D02*
X126165029Y-95649886D01*
X126165029Y-95649886D02*
X126177410Y-95637505D01*
X126177410Y-95637505D02*
X126202172Y-95625124D01*
X126202172Y-95625124D02*
X126264077Y-95625124D01*
X126264077Y-95625124D02*
X126288839Y-95637505D01*
X126288839Y-95637505D02*
X126301220Y-95649886D01*
X126301220Y-95649886D02*
X126313600Y-95674648D01*
X126313600Y-95674648D02*
X126313600Y-95748934D01*
X126313600Y-95748934D02*
X126301220Y-95773696D01*
X126301220Y-95773696D02*
X126288839Y-95786077D01*
X126053600Y-95538458D02*
X126053600Y-95377505D01*
X126053600Y-95377505D02*
X126152648Y-95464172D01*
X126152648Y-95464172D02*
X126152648Y-95427029D01*
X126152648Y-95427029D02*
X126165029Y-95402267D01*
X126165029Y-95402267D02*
X126177410Y-95389886D01*
X126177410Y-95389886D02*
X126202172Y-95377505D01*
X126202172Y-95377505D02*
X126264077Y-95377505D01*
X126264077Y-95377505D02*
X126288839Y-95389886D01*
X126288839Y-95389886D02*
X126301220Y-95402267D01*
X126301220Y-95402267D02*
X126313600Y-95427029D01*
X126313600Y-95427029D02*
X126313600Y-95501315D01*
X126313600Y-95501315D02*
X126301220Y-95526077D01*
X126301220Y-95526077D02*
X126288839Y-95538458D01*
D10*
X101224821Y-75202855D02*
X101224821Y-75774283D01*
X101224821Y-75488569D02*
X100224821Y-75488569D01*
X100224821Y-75488569D02*
X100367678Y-75583807D01*
X100367678Y-75583807D02*
X100462916Y-75679045D01*
X100462916Y-75679045D02*
X100510535Y-75774283D01*
X100224821Y-74583807D02*
X100224821Y-74488569D01*
X100224821Y-74488569D02*
X100272440Y-74393331D01*
X100272440Y-74393331D02*
X100320059Y-74345712D01*
X100320059Y-74345712D02*
X100415297Y-74298093D01*
X100415297Y-74298093D02*
X100605773Y-74250474D01*
X100605773Y-74250474D02*
X100843868Y-74250474D01*
X100843868Y-74250474D02*
X101034344Y-74298093D01*
X101034344Y-74298093D02*
X101129582Y-74345712D01*
X101129582Y-74345712D02*
X101177202Y-74393331D01*
X101177202Y-74393331D02*
X101224821Y-74488569D01*
X101224821Y-74488569D02*
X101224821Y-74583807D01*
X101224821Y-74583807D02*
X101177202Y-74679045D01*
X101177202Y-74679045D02*
X101129582Y-74726664D01*
X101129582Y-74726664D02*
X101034344Y-74774283D01*
X101034344Y-74774283D02*
X100843868Y-74821902D01*
X100843868Y-74821902D02*
X100605773Y-74821902D01*
X100605773Y-74821902D02*
X100415297Y-74774283D01*
X100415297Y-74774283D02*
X100320059Y-74726664D01*
X100320059Y-74726664D02*
X100272440Y-74679045D01*
X100272440Y-74679045D02*
X100224821Y-74583807D01*
X100558154Y-73393331D02*
X101224821Y-73393331D01*
X100558154Y-73821902D02*
X101081963Y-73821902D01*
X101081963Y-73821902D02*
X101177202Y-73774283D01*
X101177202Y-73774283D02*
X101224821Y-73679045D01*
X101224821Y-73679045D02*
X101224821Y-73536188D01*
X101224821Y-73536188D02*
X101177202Y-73440950D01*
X101177202Y-73440950D02*
X101129582Y-73393331D01*
D11*
X102019767Y-74720712D02*
X102031672Y-74732616D01*
X102031672Y-74732616D02*
X102043576Y-74768331D01*
X102043576Y-74768331D02*
X102043576Y-74792140D01*
X102043576Y-74792140D02*
X102031672Y-74827854D01*
X102031672Y-74827854D02*
X102007862Y-74851664D01*
X102007862Y-74851664D02*
X101984052Y-74863569D01*
X101984052Y-74863569D02*
X101936433Y-74875473D01*
X101936433Y-74875473D02*
X101900719Y-74875473D01*
X101900719Y-74875473D02*
X101853100Y-74863569D01*
X101853100Y-74863569D02*
X101829291Y-74851664D01*
X101829291Y-74851664D02*
X101805481Y-74827854D01*
X101805481Y-74827854D02*
X101793576Y-74792140D01*
X101793576Y-74792140D02*
X101793576Y-74768331D01*
X101793576Y-74768331D02*
X101805481Y-74732616D01*
X101805481Y-74732616D02*
X101817386Y-74720712D01*
X101793576Y-74494521D02*
X101793576Y-74613569D01*
X101793576Y-74613569D02*
X101912624Y-74625473D01*
X101912624Y-74625473D02*
X101900719Y-74613569D01*
X101900719Y-74613569D02*
X101888814Y-74589759D01*
X101888814Y-74589759D02*
X101888814Y-74530235D01*
X101888814Y-74530235D02*
X101900719Y-74506426D01*
X101900719Y-74506426D02*
X101912624Y-74494521D01*
X101912624Y-74494521D02*
X101936433Y-74482616D01*
X101936433Y-74482616D02*
X101995957Y-74482616D01*
X101995957Y-74482616D02*
X102019767Y-74494521D01*
X102019767Y-74494521D02*
X102031672Y-74506426D01*
X102031672Y-74506426D02*
X102043576Y-74530235D01*
X102043576Y-74530235D02*
X102043576Y-74589759D01*
X102043576Y-74589759D02*
X102031672Y-74613569D01*
X102031672Y-74613569D02*
X102019767Y-74625473D01*
X102043576Y-74244521D02*
X102043576Y-74387378D01*
X102043576Y-74315950D02*
X101793576Y-74315950D01*
X101793576Y-74315950D02*
X101829291Y-74339759D01*
X101829291Y-74339759D02*
X101853100Y-74363569D01*
X101853100Y-74363569D02*
X101865005Y-74387378D01*
D10*
X113216691Y-75827007D02*
X112812630Y-76231068D01*
X113014661Y-76029037D02*
X112307554Y-75321931D01*
X112307554Y-75321931D02*
X112341226Y-75490289D01*
X112341226Y-75490289D02*
X112341226Y-75624976D01*
X112341226Y-75624976D02*
X112307554Y-75725992D01*
X112947317Y-74682167D02*
X113014661Y-74614824D01*
X113014661Y-74614824D02*
X113115676Y-74581152D01*
X113115676Y-74581152D02*
X113183020Y-74581152D01*
X113183020Y-74581152D02*
X113284035Y-74614824D01*
X113284035Y-74614824D02*
X113452394Y-74715839D01*
X113452394Y-74715839D02*
X113620752Y-74884198D01*
X113620752Y-74884198D02*
X113721768Y-75052557D01*
X113721768Y-75052557D02*
X113755439Y-75153572D01*
X113755439Y-75153572D02*
X113755439Y-75220915D01*
X113755439Y-75220915D02*
X113721768Y-75321931D01*
X113721768Y-75321931D02*
X113654424Y-75389274D01*
X113654424Y-75389274D02*
X113553409Y-75422946D01*
X113553409Y-75422946D02*
X113486065Y-75422946D01*
X113486065Y-75422946D02*
X113385050Y-75389274D01*
X113385050Y-75389274D02*
X113216691Y-75288259D01*
X113216691Y-75288259D02*
X113048333Y-75119900D01*
X113048333Y-75119900D02*
X112947317Y-74951541D01*
X112947317Y-74951541D02*
X112913646Y-74850526D01*
X112913646Y-74850526D02*
X112913646Y-74783183D01*
X112913646Y-74783183D02*
X112947317Y-74682167D01*
X114024814Y-74076076D02*
X114496218Y-74547480D01*
X113721768Y-74379121D02*
X114092157Y-74749511D01*
X114092157Y-74749511D02*
X114193172Y-74783182D01*
X114193172Y-74783182D02*
X114294188Y-74749511D01*
X114294188Y-74749511D02*
X114395203Y-74648495D01*
X114395203Y-74648495D02*
X114428875Y-74547480D01*
X114428875Y-74547480D02*
X114428875Y-74480137D01*
D11*
X112479242Y-74407704D02*
X112479242Y-74424540D01*
X112479242Y-74424540D02*
X112462406Y-74458212D01*
X112462406Y-74458212D02*
X112445570Y-74475048D01*
X112445570Y-74475048D02*
X112411899Y-74491883D01*
X112411899Y-74491883D02*
X112378227Y-74491883D01*
X112378227Y-74491883D02*
X112352973Y-74483466D01*
X112352973Y-74483466D02*
X112310883Y-74458212D01*
X112310883Y-74458212D02*
X112285630Y-74432958D01*
X112285630Y-74432958D02*
X112260376Y-74390868D01*
X112260376Y-74390868D02*
X112251958Y-74365614D01*
X112251958Y-74365614D02*
X112251958Y-74331943D01*
X112251958Y-74331943D02*
X112268794Y-74298271D01*
X112268794Y-74298271D02*
X112285630Y-74281435D01*
X112285630Y-74281435D02*
X112319301Y-74264599D01*
X112319301Y-74264599D02*
X112336137Y-74264599D01*
X112403481Y-74197256D02*
X112403481Y-74180420D01*
X112403481Y-74180420D02*
X112411899Y-74155166D01*
X112411899Y-74155166D02*
X112453988Y-74113076D01*
X112453988Y-74113076D02*
X112479242Y-74104658D01*
X112479242Y-74104658D02*
X112496078Y-74104658D01*
X112496078Y-74104658D02*
X112521332Y-74113076D01*
X112521332Y-74113076D02*
X112538168Y-74129912D01*
X112538168Y-74129912D02*
X112555004Y-74163584D01*
X112555004Y-74163584D02*
X112555004Y-74365614D01*
X112555004Y-74365614D02*
X112664437Y-74256181D01*
X112597093Y-73969972D02*
X112613929Y-73953136D01*
X112613929Y-73953136D02*
X112639183Y-73944718D01*
X112639183Y-73944718D02*
X112656019Y-73944718D01*
X112656019Y-73944718D02*
X112681272Y-73953136D01*
X112681272Y-73953136D02*
X112723362Y-73978389D01*
X112723362Y-73978389D02*
X112765452Y-74020479D01*
X112765452Y-74020479D02*
X112790706Y-74062569D01*
X112790706Y-74062569D02*
X112799124Y-74087823D01*
X112799124Y-74087823D02*
X112799124Y-74104659D01*
X112799124Y-74104659D02*
X112790706Y-74129912D01*
X112790706Y-74129912D02*
X112773870Y-74146748D01*
X112773870Y-74146748D02*
X112748616Y-74155166D01*
X112748616Y-74155166D02*
X112731780Y-74155166D01*
X112731780Y-74155166D02*
X112706526Y-74146748D01*
X112706526Y-74146748D02*
X112664437Y-74121494D01*
X112664437Y-74121494D02*
X112622347Y-74079405D01*
X112622347Y-74079405D02*
X112597093Y-74037315D01*
X112597093Y-74037315D02*
X112588675Y-74012061D01*
X112588675Y-74012061D02*
X112588675Y-73995225D01*
X112588675Y-73995225D02*
X112597093Y-73969972D01*
D10*
X134381009Y-75380952D02*
X134381009Y-75714285D01*
X134904819Y-75714285D02*
X133904819Y-75714285D01*
X133904819Y-75714285D02*
X133904819Y-75238095D01*
X134904819Y-74857142D02*
X134238152Y-74857142D01*
X133904819Y-74857142D02*
X133952438Y-74904761D01*
X133952438Y-74904761D02*
X134000057Y-74857142D01*
X134000057Y-74857142D02*
X133952438Y-74809523D01*
X133952438Y-74809523D02*
X133904819Y-74857142D01*
X133904819Y-74857142D02*
X134000057Y-74857142D01*
X134904819Y-73952381D02*
X133904819Y-73952381D01*
X134857200Y-73952381D02*
X134904819Y-74047619D01*
X134904819Y-74047619D02*
X134904819Y-74238095D01*
X134904819Y-74238095D02*
X134857200Y-74333333D01*
X134857200Y-74333333D02*
X134809580Y-74380952D01*
X134809580Y-74380952D02*
X134714342Y-74428571D01*
X134714342Y-74428571D02*
X134428628Y-74428571D01*
X134428628Y-74428571D02*
X134333390Y-74380952D01*
X134333390Y-74380952D02*
X134285771Y-74333333D01*
X134285771Y-74333333D02*
X134238152Y-74238095D01*
X134238152Y-74238095D02*
X134238152Y-74047619D01*
X134238152Y-74047619D02*
X134285771Y-73952381D01*
X134238152Y-73047619D02*
X134904819Y-73047619D01*
X134238152Y-73476190D02*
X134761961Y-73476190D01*
X134761961Y-73476190D02*
X134857200Y-73428571D01*
X134857200Y-73428571D02*
X134904819Y-73333333D01*
X134904819Y-73333333D02*
X134904819Y-73190476D01*
X134904819Y-73190476D02*
X134857200Y-73095238D01*
X134857200Y-73095238D02*
X134809580Y-73047619D01*
X134857200Y-72142857D02*
X134904819Y-72238095D01*
X134904819Y-72238095D02*
X134904819Y-72428571D01*
X134904819Y-72428571D02*
X134857200Y-72523809D01*
X134857200Y-72523809D02*
X134809580Y-72571428D01*
X134809580Y-72571428D02*
X134714342Y-72619047D01*
X134714342Y-72619047D02*
X134428628Y-72619047D01*
X134428628Y-72619047D02*
X134333390Y-72571428D01*
X134333390Y-72571428D02*
X134285771Y-72523809D01*
X134285771Y-72523809D02*
X134238152Y-72428571D01*
X134238152Y-72428571D02*
X134238152Y-72238095D01*
X134238152Y-72238095D02*
X134285771Y-72142857D01*
X134904819Y-71714285D02*
X134238152Y-71714285D01*
X133904819Y-71714285D02*
X133952438Y-71761904D01*
X133952438Y-71761904D02*
X134000057Y-71714285D01*
X134000057Y-71714285D02*
X133952438Y-71666666D01*
X133952438Y-71666666D02*
X133904819Y-71714285D01*
X133904819Y-71714285D02*
X134000057Y-71714285D01*
X134904819Y-70809524D02*
X134381009Y-70809524D01*
X134381009Y-70809524D02*
X134285771Y-70857143D01*
X134285771Y-70857143D02*
X134238152Y-70952381D01*
X134238152Y-70952381D02*
X134238152Y-71142857D01*
X134238152Y-71142857D02*
X134285771Y-71238095D01*
X134857200Y-70809524D02*
X134904819Y-70904762D01*
X134904819Y-70904762D02*
X134904819Y-71142857D01*
X134904819Y-71142857D02*
X134857200Y-71238095D01*
X134857200Y-71238095D02*
X134761961Y-71285714D01*
X134761961Y-71285714D02*
X134666723Y-71285714D01*
X134666723Y-71285714D02*
X134571485Y-71238095D01*
X134571485Y-71238095D02*
X134523866Y-71142857D01*
X134523866Y-71142857D02*
X134523866Y-70904762D01*
X134523866Y-70904762D02*
X134476247Y-70809524D01*
X134904819Y-70190476D02*
X134857200Y-70285714D01*
X134857200Y-70285714D02*
X134761961Y-70333333D01*
X134761961Y-70333333D02*
X133904819Y-70333333D01*
D11*
X132982622Y-73267856D02*
X132982622Y-73351190D01*
X133113574Y-73351190D02*
X132863574Y-73351190D01*
X132863574Y-73351190D02*
X132863574Y-73232142D01*
X133113574Y-73136904D02*
X132863574Y-73136904D01*
X133113574Y-73017856D02*
X132863574Y-73017856D01*
X132863574Y-73017856D02*
X132863574Y-72958332D01*
X132863574Y-72958332D02*
X132875479Y-72922618D01*
X132875479Y-72922618D02*
X132899289Y-72898808D01*
X132899289Y-72898808D02*
X132923098Y-72886903D01*
X132923098Y-72886903D02*
X132970717Y-72874999D01*
X132970717Y-72874999D02*
X133006431Y-72874999D01*
X133006431Y-72874999D02*
X133054050Y-72886903D01*
X133054050Y-72886903D02*
X133077860Y-72898808D01*
X133077860Y-72898808D02*
X133101670Y-72922618D01*
X133101670Y-72922618D02*
X133113574Y-72958332D01*
X133113574Y-72958332D02*
X133113574Y-73017856D01*
X132887384Y-72779760D02*
X132875479Y-72767856D01*
X132875479Y-72767856D02*
X132863574Y-72744046D01*
X132863574Y-72744046D02*
X132863574Y-72684522D01*
X132863574Y-72684522D02*
X132875479Y-72660713D01*
X132875479Y-72660713D02*
X132887384Y-72648808D01*
X132887384Y-72648808D02*
X132911193Y-72636903D01*
X132911193Y-72636903D02*
X132935003Y-72636903D01*
X132935003Y-72636903D02*
X132970717Y-72648808D01*
X132970717Y-72648808D02*
X133113574Y-72791665D01*
X133113574Y-72791665D02*
X133113574Y-72636903D01*
D10*
X126113552Y-96709412D02*
X126780219Y-96709412D01*
X125732600Y-96947507D02*
X126446885Y-97185602D01*
X126446885Y-97185602D02*
X126446885Y-96566555D01*
X126684980Y-96185602D02*
X126732600Y-96137983D01*
X126732600Y-96137983D02*
X126780219Y-96185602D01*
X126780219Y-96185602D02*
X126732600Y-96233221D01*
X126732600Y-96233221D02*
X126684980Y-96185602D01*
X126684980Y-96185602D02*
X126780219Y-96185602D01*
X125780219Y-95804650D02*
X125780219Y-95137984D01*
X125780219Y-95137984D02*
X126780219Y-95566555D01*
X126780219Y-94757031D02*
X125780219Y-94757031D01*
X126780219Y-94185603D02*
X126208790Y-94614174D01*
X125780219Y-94185603D02*
X126351647Y-94757031D01*
D11*
X127613600Y-95852745D02*
X127489791Y-95939412D01*
X127613600Y-96001317D02*
X127353600Y-96001317D01*
X127353600Y-96001317D02*
X127353600Y-95902269D01*
X127353600Y-95902269D02*
X127365981Y-95877507D01*
X127365981Y-95877507D02*
X127378362Y-95865126D01*
X127378362Y-95865126D02*
X127403124Y-95852745D01*
X127403124Y-95852745D02*
X127440267Y-95852745D01*
X127440267Y-95852745D02*
X127465029Y-95865126D01*
X127465029Y-95865126D02*
X127477410Y-95877507D01*
X127477410Y-95877507D02*
X127489791Y-95902269D01*
X127489791Y-95902269D02*
X127489791Y-96001317D01*
X127353600Y-95617507D02*
X127353600Y-95741317D01*
X127353600Y-95741317D02*
X127477410Y-95753698D01*
X127477410Y-95753698D02*
X127465029Y-95741317D01*
X127465029Y-95741317D02*
X127452648Y-95716555D01*
X127452648Y-95716555D02*
X127452648Y-95654650D01*
X127452648Y-95654650D02*
X127465029Y-95629888D01*
X127465029Y-95629888D02*
X127477410Y-95617507D01*
X127477410Y-95617507D02*
X127502172Y-95605126D01*
X127502172Y-95605126D02*
X127564077Y-95605126D01*
X127564077Y-95605126D02*
X127588839Y-95617507D01*
X127588839Y-95617507D02*
X127601220Y-95629888D01*
X127601220Y-95629888D02*
X127613600Y-95654650D01*
X127613600Y-95654650D02*
X127613600Y-95716555D01*
X127613600Y-95716555D02*
X127601220Y-95741317D01*
X127601220Y-95741317D02*
X127588839Y-95753698D01*
X127613600Y-95357507D02*
X127613600Y-95506079D01*
X127613600Y-95431793D02*
X127353600Y-95431793D01*
X127353600Y-95431793D02*
X127390743Y-95456555D01*
X127390743Y-95456555D02*
X127415505Y-95481317D01*
X127415505Y-95481317D02*
X127427886Y-95506079D01*
D10*
X127917314Y-93520019D02*
X128012552Y-93520019D01*
X128012552Y-93520019D02*
X128107790Y-93567638D01*
X128107790Y-93567638D02*
X128155409Y-93615257D01*
X128155409Y-93615257D02*
X128203028Y-93710495D01*
X128203028Y-93710495D02*
X128250647Y-93900971D01*
X128250647Y-93900971D02*
X128250647Y-94139066D01*
X128250647Y-94139066D02*
X128203028Y-94329542D01*
X128203028Y-94329542D02*
X128155409Y-94424780D01*
X128155409Y-94424780D02*
X128107790Y-94472400D01*
X128107790Y-94472400D02*
X128012552Y-94520019D01*
X128012552Y-94520019D02*
X127917314Y-94520019D01*
X127917314Y-94520019D02*
X127822076Y-94472400D01*
X127822076Y-94472400D02*
X127774457Y-94424780D01*
X127774457Y-94424780D02*
X127726838Y-94329542D01*
X127726838Y-94329542D02*
X127679219Y-94139066D01*
X127679219Y-94139066D02*
X127679219Y-93900971D01*
X127679219Y-93900971D02*
X127726838Y-93710495D01*
X127726838Y-93710495D02*
X127774457Y-93615257D01*
X127774457Y-93615257D02*
X127822076Y-93567638D01*
X127822076Y-93567638D02*
X127917314Y-93520019D01*
X128679219Y-94424780D02*
X128726838Y-94472400D01*
X128726838Y-94472400D02*
X128679219Y-94520019D01*
X128679219Y-94520019D02*
X128631600Y-94472400D01*
X128631600Y-94472400D02*
X128679219Y-94424780D01*
X128679219Y-94424780D02*
X128679219Y-94520019D01*
X129679218Y-94520019D02*
X129107790Y-94520019D01*
X129393504Y-94520019D02*
X129393504Y-93520019D01*
X129393504Y-93520019D02*
X129298266Y-93662876D01*
X129298266Y-93662876D02*
X129203028Y-93758114D01*
X129203028Y-93758114D02*
X129107790Y-93805733D01*
X130536361Y-93853352D02*
X130536361Y-94520019D01*
X130107790Y-93853352D02*
X130107790Y-94377161D01*
X130107790Y-94377161D02*
X130155409Y-94472400D01*
X130155409Y-94472400D02*
X130250647Y-94520019D01*
X130250647Y-94520019D02*
X130393504Y-94520019D01*
X130393504Y-94520019D02*
X130488742Y-94472400D01*
X130488742Y-94472400D02*
X130536361Y-94424780D01*
D11*
X128970885Y-92424964D02*
X128958981Y-92436869D01*
X128958981Y-92436869D02*
X128923266Y-92448773D01*
X128923266Y-92448773D02*
X128899457Y-92448773D01*
X128899457Y-92448773D02*
X128863743Y-92436869D01*
X128863743Y-92436869D02*
X128839933Y-92413059D01*
X128839933Y-92413059D02*
X128828028Y-92389249D01*
X128828028Y-92389249D02*
X128816124Y-92341630D01*
X128816124Y-92341630D02*
X128816124Y-92305916D01*
X128816124Y-92305916D02*
X128828028Y-92258297D01*
X128828028Y-92258297D02*
X128839933Y-92234488D01*
X128839933Y-92234488D02*
X128863743Y-92210678D01*
X128863743Y-92210678D02*
X128899457Y-92198773D01*
X128899457Y-92198773D02*
X128923266Y-92198773D01*
X128923266Y-92198773D02*
X128958981Y-92210678D01*
X128958981Y-92210678D02*
X128970885Y-92222583D01*
X129208981Y-92448773D02*
X129066124Y-92448773D01*
X129137552Y-92448773D02*
X129137552Y-92198773D01*
X129137552Y-92198773D02*
X129113743Y-92234488D01*
X129113743Y-92234488D02*
X129089933Y-92258297D01*
X129089933Y-92258297D02*
X129066124Y-92270202D01*
X129351838Y-92305916D02*
X129328028Y-92294011D01*
X129328028Y-92294011D02*
X129316123Y-92282107D01*
X129316123Y-92282107D02*
X129304219Y-92258297D01*
X129304219Y-92258297D02*
X129304219Y-92246392D01*
X129304219Y-92246392D02*
X129316123Y-92222583D01*
X129316123Y-92222583D02*
X129328028Y-92210678D01*
X129328028Y-92210678D02*
X129351838Y-92198773D01*
X129351838Y-92198773D02*
X129399457Y-92198773D01*
X129399457Y-92198773D02*
X129423266Y-92210678D01*
X129423266Y-92210678D02*
X129435171Y-92222583D01*
X129435171Y-92222583D02*
X129447076Y-92246392D01*
X129447076Y-92246392D02*
X129447076Y-92258297D01*
X129447076Y-92258297D02*
X129435171Y-92282107D01*
X129435171Y-92282107D02*
X129423266Y-92294011D01*
X129423266Y-92294011D02*
X129399457Y-92305916D01*
X129399457Y-92305916D02*
X129351838Y-92305916D01*
X129351838Y-92305916D02*
X129328028Y-92317821D01*
X129328028Y-92317821D02*
X129316123Y-92329726D01*
X129316123Y-92329726D02*
X129304219Y-92353535D01*
X129304219Y-92353535D02*
X129304219Y-92401154D01*
X129304219Y-92401154D02*
X129316123Y-92424964D01*
X129316123Y-92424964D02*
X129328028Y-92436869D01*
X129328028Y-92436869D02*
X129351838Y-92448773D01*
X129351838Y-92448773D02*
X129399457Y-92448773D01*
X129399457Y-92448773D02*
X129423266Y-92436869D01*
X129423266Y-92436869D02*
X129435171Y-92424964D01*
X129435171Y-92424964D02*
X129447076Y-92401154D01*
X129447076Y-92401154D02*
X129447076Y-92353535D01*
X129447076Y-92353535D02*
X129435171Y-92329726D01*
X129435171Y-92329726D02*
X129423266Y-92317821D01*
X129423266Y-92317821D02*
X129399457Y-92305916D01*
D10*
X101584819Y-77131902D02*
X101584819Y-76512855D01*
X101584819Y-76512855D02*
X101965771Y-76846188D01*
X101965771Y-76846188D02*
X101965771Y-76703331D01*
X101965771Y-76703331D02*
X102013390Y-76608093D01*
X102013390Y-76608093D02*
X102061009Y-76560474D01*
X102061009Y-76560474D02*
X102156247Y-76512855D01*
X102156247Y-76512855D02*
X102394342Y-76512855D01*
X102394342Y-76512855D02*
X102489580Y-76560474D01*
X102489580Y-76560474D02*
X102537200Y-76608093D01*
X102537200Y-76608093D02*
X102584819Y-76703331D01*
X102584819Y-76703331D02*
X102584819Y-76989045D01*
X102584819Y-76989045D02*
X102537200Y-77084283D01*
X102537200Y-77084283D02*
X102489580Y-77131902D01*
X101584819Y-76179521D02*
X101584819Y-75560474D01*
X101584819Y-75560474D02*
X101965771Y-75893807D01*
X101965771Y-75893807D02*
X101965771Y-75750950D01*
X101965771Y-75750950D02*
X102013390Y-75655712D01*
X102013390Y-75655712D02*
X102061009Y-75608093D01*
X102061009Y-75608093D02*
X102156247Y-75560474D01*
X102156247Y-75560474D02*
X102394342Y-75560474D01*
X102394342Y-75560474D02*
X102489580Y-75608093D01*
X102489580Y-75608093D02*
X102537200Y-75655712D01*
X102537200Y-75655712D02*
X102584819Y-75750950D01*
X102584819Y-75750950D02*
X102584819Y-76036664D01*
X102584819Y-76036664D02*
X102537200Y-76131902D01*
X102537200Y-76131902D02*
X102489580Y-76179521D01*
X101918152Y-75131902D02*
X102918152Y-75131902D01*
X101965771Y-75131902D02*
X101918152Y-75036664D01*
X101918152Y-75036664D02*
X101918152Y-74846188D01*
X101918152Y-74846188D02*
X101965771Y-74750950D01*
X101965771Y-74750950D02*
X102013390Y-74703331D01*
X102013390Y-74703331D02*
X102108628Y-74655712D01*
X102108628Y-74655712D02*
X102394342Y-74655712D01*
X102394342Y-74655712D02*
X102489580Y-74703331D01*
X102489580Y-74703331D02*
X102537200Y-74750950D01*
X102537200Y-74750950D02*
X102584819Y-74846188D01*
X102584819Y-74846188D02*
X102584819Y-75036664D01*
X102584819Y-75036664D02*
X102537200Y-75131902D01*
D11*
X103949766Y-75911664D02*
X103961671Y-75923568D01*
X103961671Y-75923568D02*
X103973575Y-75959283D01*
X103973575Y-75959283D02*
X103973575Y-75983092D01*
X103973575Y-75983092D02*
X103961671Y-76018806D01*
X103961671Y-76018806D02*
X103937861Y-76042616D01*
X103937861Y-76042616D02*
X103914051Y-76054521D01*
X103914051Y-76054521D02*
X103866432Y-76066425D01*
X103866432Y-76066425D02*
X103830718Y-76066425D01*
X103830718Y-76066425D02*
X103783099Y-76054521D01*
X103783099Y-76054521D02*
X103759290Y-76042616D01*
X103759290Y-76042616D02*
X103735480Y-76018806D01*
X103735480Y-76018806D02*
X103723575Y-75983092D01*
X103723575Y-75983092D02*
X103723575Y-75959283D01*
X103723575Y-75959283D02*
X103735480Y-75923568D01*
X103735480Y-75923568D02*
X103747385Y-75911664D01*
X103723575Y-75697378D02*
X103723575Y-75744997D01*
X103723575Y-75744997D02*
X103735480Y-75768806D01*
X103735480Y-75768806D02*
X103747385Y-75780711D01*
X103747385Y-75780711D02*
X103783099Y-75804521D01*
X103783099Y-75804521D02*
X103830718Y-75816425D01*
X103830718Y-75816425D02*
X103925956Y-75816425D01*
X103925956Y-75816425D02*
X103949766Y-75804521D01*
X103949766Y-75804521D02*
X103961671Y-75792616D01*
X103961671Y-75792616D02*
X103973575Y-75768806D01*
X103973575Y-75768806D02*
X103973575Y-75721187D01*
X103973575Y-75721187D02*
X103961671Y-75697378D01*
X103961671Y-75697378D02*
X103949766Y-75685473D01*
X103949766Y-75685473D02*
X103925956Y-75673568D01*
X103925956Y-75673568D02*
X103866432Y-75673568D01*
X103866432Y-75673568D02*
X103842623Y-75685473D01*
X103842623Y-75685473D02*
X103830718Y-75697378D01*
X103830718Y-75697378D02*
X103818813Y-75721187D01*
X103818813Y-75721187D02*
X103818813Y-75768806D01*
X103818813Y-75768806D02*
X103830718Y-75792616D01*
X103830718Y-75792616D02*
X103842623Y-75804521D01*
X103842623Y-75804521D02*
X103866432Y-75816425D01*
D10*
X129753552Y-96729410D02*
X130420219Y-96729410D01*
X129372600Y-96967505D02*
X130086885Y-97205600D01*
X130086885Y-97205600D02*
X130086885Y-96586553D01*
X130324980Y-96205600D02*
X130372600Y-96157981D01*
X130372600Y-96157981D02*
X130420219Y-96205600D01*
X130420219Y-96205600D02*
X130372600Y-96253219D01*
X130372600Y-96253219D02*
X130324980Y-96205600D01*
X130324980Y-96205600D02*
X130420219Y-96205600D01*
X129420219Y-95824648D02*
X129420219Y-95157982D01*
X129420219Y-95157982D02*
X130420219Y-95586553D01*
X130420219Y-94777029D02*
X129420219Y-94777029D01*
X130420219Y-94205601D02*
X129848790Y-94634172D01*
X129420219Y-94205601D02*
X129991647Y-94777029D01*
D11*
X128913600Y-95748933D02*
X128789791Y-95835600D01*
X128913600Y-95897505D02*
X128653600Y-95897505D01*
X128653600Y-95897505D02*
X128653600Y-95798457D01*
X128653600Y-95798457D02*
X128665981Y-95773695D01*
X128665981Y-95773695D02*
X128678362Y-95761314D01*
X128678362Y-95761314D02*
X128703124Y-95748933D01*
X128703124Y-95748933D02*
X128740267Y-95748933D01*
X128740267Y-95748933D02*
X128765029Y-95761314D01*
X128765029Y-95761314D02*
X128777410Y-95773695D01*
X128777410Y-95773695D02*
X128789791Y-95798457D01*
X128789791Y-95798457D02*
X128789791Y-95897505D01*
X128913600Y-95625124D02*
X128913600Y-95575600D01*
X128913600Y-95575600D02*
X128901220Y-95550838D01*
X128901220Y-95550838D02*
X128888839Y-95538457D01*
X128888839Y-95538457D02*
X128851696Y-95513695D01*
X128851696Y-95513695D02*
X128802172Y-95501314D01*
X128802172Y-95501314D02*
X128703124Y-95501314D01*
X128703124Y-95501314D02*
X128678362Y-95513695D01*
X128678362Y-95513695D02*
X128665981Y-95526076D01*
X128665981Y-95526076D02*
X128653600Y-95550838D01*
X128653600Y-95550838D02*
X128653600Y-95600362D01*
X128653600Y-95600362D02*
X128665981Y-95625124D01*
X128665981Y-95625124D02*
X128678362Y-95637505D01*
X128678362Y-95637505D02*
X128703124Y-95649886D01*
X128703124Y-95649886D02*
X128765029Y-95649886D01*
X128765029Y-95649886D02*
X128789791Y-95637505D01*
X128789791Y-95637505D02*
X128802172Y-95625124D01*
X128802172Y-95625124D02*
X128814553Y-95600362D01*
X128814553Y-95600362D02*
X128814553Y-95550838D01*
X128814553Y-95550838D02*
X128802172Y-95526076D01*
X128802172Y-95526076D02*
X128789791Y-95513695D01*
X128789791Y-95513695D02*
X128765029Y-95501314D01*
D10*
X106479106Y-81062972D02*
X106479106Y-80586782D01*
X106764821Y-81158210D02*
X105764821Y-80824877D01*
X105764821Y-80824877D02*
X106764821Y-80491544D01*
X106764821Y-80158210D02*
X105764821Y-80158210D01*
X105764821Y-80158210D02*
X105764821Y-79777258D01*
X105764821Y-79777258D02*
X105812440Y-79682020D01*
X105812440Y-79682020D02*
X105860059Y-79634401D01*
X105860059Y-79634401D02*
X105955297Y-79586782D01*
X105955297Y-79586782D02*
X106098154Y-79586782D01*
X106098154Y-79586782D02*
X106193392Y-79634401D01*
X106193392Y-79634401D02*
X106241011Y-79682020D01*
X106241011Y-79682020D02*
X106288630Y-79777258D01*
X106288630Y-79777258D02*
X106288630Y-80158210D01*
X105764821Y-78729639D02*
X105764821Y-78920115D01*
X105764821Y-78920115D02*
X105812440Y-79015353D01*
X105812440Y-79015353D02*
X105860059Y-79062972D01*
X105860059Y-79062972D02*
X106002916Y-79158210D01*
X106002916Y-79158210D02*
X106193392Y-79205829D01*
X106193392Y-79205829D02*
X106574344Y-79205829D01*
X106574344Y-79205829D02*
X106669582Y-79158210D01*
X106669582Y-79158210D02*
X106717202Y-79110591D01*
X106717202Y-79110591D02*
X106764821Y-79015353D01*
X106764821Y-79015353D02*
X106764821Y-78824877D01*
X106764821Y-78824877D02*
X106717202Y-78729639D01*
X106717202Y-78729639D02*
X106669582Y-78682020D01*
X106669582Y-78682020D02*
X106574344Y-78634401D01*
X106574344Y-78634401D02*
X106336249Y-78634401D01*
X106336249Y-78634401D02*
X106241011Y-78682020D01*
X106241011Y-78682020D02*
X106193392Y-78729639D01*
X106193392Y-78729639D02*
X106145773Y-78824877D01*
X106145773Y-78824877D02*
X106145773Y-79015353D01*
X106145773Y-79015353D02*
X106193392Y-79110591D01*
X106193392Y-79110591D02*
X106241011Y-79158210D01*
X106241011Y-79158210D02*
X106336249Y-79205829D01*
X106764821Y-77682020D02*
X106764821Y-78253448D01*
X106764821Y-77967734D02*
X105764821Y-77967734D01*
X105764821Y-77967734D02*
X105907678Y-78062972D01*
X105907678Y-78062972D02*
X106002916Y-78158210D01*
X106002916Y-78158210D02*
X106050535Y-78253448D01*
X106764821Y-76729639D02*
X106764821Y-77301067D01*
X106764821Y-77015353D02*
X105764821Y-77015353D01*
X105764821Y-77015353D02*
X105907678Y-77110591D01*
X105907678Y-77110591D02*
X106002916Y-77205829D01*
X106002916Y-77205829D02*
X106050535Y-77301067D01*
X105764821Y-76110591D02*
X105764821Y-76015353D01*
X105764821Y-76015353D02*
X105812440Y-75920115D01*
X105812440Y-75920115D02*
X105860059Y-75872496D01*
X105860059Y-75872496D02*
X105955297Y-75824877D01*
X105955297Y-75824877D02*
X106145773Y-75777258D01*
X106145773Y-75777258D02*
X106383868Y-75777258D01*
X106383868Y-75777258D02*
X106574344Y-75824877D01*
X106574344Y-75824877D02*
X106669582Y-75872496D01*
X106669582Y-75872496D02*
X106717202Y-75920115D01*
X106717202Y-75920115D02*
X106764821Y-76015353D01*
X106764821Y-76015353D02*
X106764821Y-76110591D01*
X106764821Y-76110591D02*
X106717202Y-76205829D01*
X106717202Y-76205829D02*
X106669582Y-76253448D01*
X106669582Y-76253448D02*
X106574344Y-76301067D01*
X106574344Y-76301067D02*
X106383868Y-76348686D01*
X106383868Y-76348686D02*
X106145773Y-76348686D01*
X106145773Y-76348686D02*
X105955297Y-76301067D01*
X105955297Y-76301067D02*
X105860059Y-76253448D01*
X105860059Y-76253448D02*
X105812440Y-76205829D01*
X105812440Y-76205829D02*
X105764821Y-76110591D01*
X105860059Y-75396305D02*
X105812440Y-75348686D01*
X105812440Y-75348686D02*
X105764821Y-75253448D01*
X105764821Y-75253448D02*
X105764821Y-75015353D01*
X105764821Y-75015353D02*
X105812440Y-74920115D01*
X105812440Y-74920115D02*
X105860059Y-74872496D01*
X105860059Y-74872496D02*
X105955297Y-74824877D01*
X105955297Y-74824877D02*
X106050535Y-74824877D01*
X106050535Y-74824877D02*
X106193392Y-74872496D01*
X106193392Y-74872496D02*
X106764821Y-75443924D01*
X106764821Y-75443924D02*
X106764821Y-74824877D01*
X106860059Y-73729639D02*
X106812440Y-73824877D01*
X106812440Y-73824877D02*
X106717202Y-73920115D01*
X106717202Y-73920115D02*
X106574344Y-74062972D01*
X106574344Y-74062972D02*
X106526725Y-74158210D01*
X106526725Y-74158210D02*
X106526725Y-74253448D01*
X106764821Y-74205829D02*
X106717202Y-74301067D01*
X106717202Y-74301067D02*
X106621963Y-74396305D01*
X106621963Y-74396305D02*
X106431487Y-74443924D01*
X106431487Y-74443924D02*
X106098154Y-74443924D01*
X106098154Y-74443924D02*
X105907678Y-74396305D01*
X105907678Y-74396305D02*
X105812440Y-74301067D01*
X105812440Y-74301067D02*
X105764821Y-74205829D01*
X105764821Y-74205829D02*
X105764821Y-74015353D01*
X105764821Y-74015353D02*
X105812440Y-73920115D01*
X105812440Y-73920115D02*
X105907678Y-73824877D01*
X105907678Y-73824877D02*
X106098154Y-73777258D01*
X106098154Y-73777258D02*
X106431487Y-73777258D01*
X106431487Y-73777258D02*
X106621963Y-73824877D01*
X106621963Y-73824877D02*
X106717202Y-73920115D01*
X106717202Y-73920115D02*
X106764821Y-74015353D01*
X106764821Y-74015353D02*
X106764821Y-74205829D01*
X105764821Y-73443924D02*
X105764821Y-72777258D01*
X105764821Y-72777258D02*
X106764821Y-73443924D01*
X106764821Y-73443924D02*
X106764821Y-72777258D01*
X105764821Y-71967734D02*
X105764821Y-72158210D01*
X105764821Y-72158210D02*
X105812440Y-72253448D01*
X105812440Y-72253448D02*
X105860059Y-72301067D01*
X105860059Y-72301067D02*
X106002916Y-72396305D01*
X106002916Y-72396305D02*
X106193392Y-72443924D01*
X106193392Y-72443924D02*
X106574344Y-72443924D01*
X106574344Y-72443924D02*
X106669582Y-72396305D01*
X106669582Y-72396305D02*
X106717202Y-72348686D01*
X106717202Y-72348686D02*
X106764821Y-72253448D01*
X106764821Y-72253448D02*
X106764821Y-72062972D01*
X106764821Y-72062972D02*
X106717202Y-71967734D01*
X106717202Y-71967734D02*
X106669582Y-71920115D01*
X106669582Y-71920115D02*
X106574344Y-71872496D01*
X106574344Y-71872496D02*
X106336249Y-71872496D01*
X106336249Y-71872496D02*
X106241011Y-71920115D01*
X106241011Y-71920115D02*
X106193392Y-71967734D01*
X106193392Y-71967734D02*
X106145773Y-72062972D01*
X106145773Y-72062972D02*
X106145773Y-72253448D01*
X106145773Y-72253448D02*
X106193392Y-72348686D01*
X106193392Y-72348686D02*
X106241011Y-72396305D01*
X106241011Y-72396305D02*
X106336249Y-72443924D01*
X106383868Y-71443924D02*
X106383868Y-70682020D01*
X105764821Y-70301067D02*
X105764821Y-69634401D01*
X105764821Y-69634401D02*
X106764821Y-70062972D01*
D11*
X104496707Y-75601068D02*
X104739564Y-75601068D01*
X104739564Y-75601068D02*
X104768136Y-75586782D01*
X104768136Y-75586782D02*
X104782422Y-75572497D01*
X104782422Y-75572497D02*
X104796707Y-75543925D01*
X104796707Y-75543925D02*
X104796707Y-75486782D01*
X104796707Y-75486782D02*
X104782422Y-75458211D01*
X104782422Y-75458211D02*
X104768136Y-75443925D01*
X104768136Y-75443925D02*
X104739564Y-75429639D01*
X104739564Y-75429639D02*
X104496707Y-75429639D01*
X104496707Y-75143925D02*
X104496707Y-75286782D01*
X104496707Y-75286782D02*
X104639564Y-75301068D01*
X104639564Y-75301068D02*
X104625279Y-75286782D01*
X104625279Y-75286782D02*
X104610993Y-75258211D01*
X104610993Y-75258211D02*
X104610993Y-75186782D01*
X104610993Y-75186782D02*
X104625279Y-75158211D01*
X104625279Y-75158211D02*
X104639564Y-75143925D01*
X104639564Y-75143925D02*
X104668136Y-75129639D01*
X104668136Y-75129639D02*
X104739564Y-75129639D01*
X104739564Y-75129639D02*
X104768136Y-75143925D01*
X104768136Y-75143925D02*
X104782422Y-75158211D01*
X104782422Y-75158211D02*
X104796707Y-75186782D01*
X104796707Y-75186782D02*
X104796707Y-75258211D01*
X104796707Y-75258211D02*
X104782422Y-75286782D01*
X104782422Y-75286782D02*
X104768136Y-75301068D01*
D10*
X134381009Y-99380952D02*
X134381009Y-99714285D01*
X134904819Y-99714285D02*
X133904819Y-99714285D01*
X133904819Y-99714285D02*
X133904819Y-99238095D01*
X134904819Y-98857142D02*
X134238152Y-98857142D01*
X133904819Y-98857142D02*
X133952438Y-98904761D01*
X133952438Y-98904761D02*
X134000057Y-98857142D01*
X134000057Y-98857142D02*
X133952438Y-98809523D01*
X133952438Y-98809523D02*
X133904819Y-98857142D01*
X133904819Y-98857142D02*
X134000057Y-98857142D01*
X134904819Y-97952381D02*
X133904819Y-97952381D01*
X134857200Y-97952381D02*
X134904819Y-98047619D01*
X134904819Y-98047619D02*
X134904819Y-98238095D01*
X134904819Y-98238095D02*
X134857200Y-98333333D01*
X134857200Y-98333333D02*
X134809580Y-98380952D01*
X134809580Y-98380952D02*
X134714342Y-98428571D01*
X134714342Y-98428571D02*
X134428628Y-98428571D01*
X134428628Y-98428571D02*
X134333390Y-98380952D01*
X134333390Y-98380952D02*
X134285771Y-98333333D01*
X134285771Y-98333333D02*
X134238152Y-98238095D01*
X134238152Y-98238095D02*
X134238152Y-98047619D01*
X134238152Y-98047619D02*
X134285771Y-97952381D01*
X134238152Y-97047619D02*
X134904819Y-97047619D01*
X134238152Y-97476190D02*
X134761961Y-97476190D01*
X134761961Y-97476190D02*
X134857200Y-97428571D01*
X134857200Y-97428571D02*
X134904819Y-97333333D01*
X134904819Y-97333333D02*
X134904819Y-97190476D01*
X134904819Y-97190476D02*
X134857200Y-97095238D01*
X134857200Y-97095238D02*
X134809580Y-97047619D01*
X134857200Y-96142857D02*
X134904819Y-96238095D01*
X134904819Y-96238095D02*
X134904819Y-96428571D01*
X134904819Y-96428571D02*
X134857200Y-96523809D01*
X134857200Y-96523809D02*
X134809580Y-96571428D01*
X134809580Y-96571428D02*
X134714342Y-96619047D01*
X134714342Y-96619047D02*
X134428628Y-96619047D01*
X134428628Y-96619047D02*
X134333390Y-96571428D01*
X134333390Y-96571428D02*
X134285771Y-96523809D01*
X134285771Y-96523809D02*
X134238152Y-96428571D01*
X134238152Y-96428571D02*
X134238152Y-96238095D01*
X134238152Y-96238095D02*
X134285771Y-96142857D01*
X134904819Y-95714285D02*
X134238152Y-95714285D01*
X133904819Y-95714285D02*
X133952438Y-95761904D01*
X133952438Y-95761904D02*
X134000057Y-95714285D01*
X134000057Y-95714285D02*
X133952438Y-95666666D01*
X133952438Y-95666666D02*
X133904819Y-95714285D01*
X133904819Y-95714285D02*
X134000057Y-95714285D01*
X134904819Y-94809524D02*
X134381009Y-94809524D01*
X134381009Y-94809524D02*
X134285771Y-94857143D01*
X134285771Y-94857143D02*
X134238152Y-94952381D01*
X134238152Y-94952381D02*
X134238152Y-95142857D01*
X134238152Y-95142857D02*
X134285771Y-95238095D01*
X134857200Y-94809524D02*
X134904819Y-94904762D01*
X134904819Y-94904762D02*
X134904819Y-95142857D01*
X134904819Y-95142857D02*
X134857200Y-95238095D01*
X134857200Y-95238095D02*
X134761961Y-95285714D01*
X134761961Y-95285714D02*
X134666723Y-95285714D01*
X134666723Y-95285714D02*
X134571485Y-95238095D01*
X134571485Y-95238095D02*
X134523866Y-95142857D01*
X134523866Y-95142857D02*
X134523866Y-94904762D01*
X134523866Y-94904762D02*
X134476247Y-94809524D01*
X134904819Y-94190476D02*
X134857200Y-94285714D01*
X134857200Y-94285714D02*
X134761961Y-94333333D01*
X134761961Y-94333333D02*
X133904819Y-94333333D01*
D11*
X132982622Y-97267856D02*
X132982622Y-97351190D01*
X133113574Y-97351190D02*
X132863574Y-97351190D01*
X132863574Y-97351190D02*
X132863574Y-97232142D01*
X133113574Y-97136904D02*
X132863574Y-97136904D01*
X133113574Y-97017856D02*
X132863574Y-97017856D01*
X132863574Y-97017856D02*
X132863574Y-96958332D01*
X132863574Y-96958332D02*
X132875479Y-96922618D01*
X132875479Y-96922618D02*
X132899289Y-96898808D01*
X132899289Y-96898808D02*
X132923098Y-96886903D01*
X132923098Y-96886903D02*
X132970717Y-96874999D01*
X132970717Y-96874999D02*
X133006431Y-96874999D01*
X133006431Y-96874999D02*
X133054050Y-96886903D01*
X133054050Y-96886903D02*
X133077860Y-96898808D01*
X133077860Y-96898808D02*
X133101670Y-96922618D01*
X133101670Y-96922618D02*
X133113574Y-96958332D01*
X133113574Y-96958332D02*
X133113574Y-97017856D01*
X132863574Y-96791665D02*
X132863574Y-96636903D01*
X132863574Y-96636903D02*
X132958812Y-96720237D01*
X132958812Y-96720237D02*
X132958812Y-96684522D01*
X132958812Y-96684522D02*
X132970717Y-96660713D01*
X132970717Y-96660713D02*
X132982622Y-96648808D01*
X132982622Y-96648808D02*
X133006431Y-96636903D01*
X133006431Y-96636903D02*
X133065955Y-96636903D01*
X133065955Y-96636903D02*
X133089765Y-96648808D01*
X133089765Y-96648808D02*
X133101670Y-96660713D01*
X133101670Y-96660713D02*
X133113574Y-96684522D01*
X133113574Y-96684522D02*
X133113574Y-96755951D01*
X133113574Y-96755951D02*
X133101670Y-96779760D01*
X133101670Y-96779760D02*
X133089765Y-96791665D01*
D10*
X110158319Y-73277452D02*
X110629724Y-73748857D01*
X109720586Y-73176437D02*
X110057304Y-73849872D01*
X110057304Y-73849872D02*
X110495037Y-73412139D01*
X110932769Y-73311124D02*
X111000113Y-73311124D01*
X111000113Y-73311124D02*
X111000113Y-73378467D01*
X111000113Y-73378467D02*
X110932769Y-73378467D01*
X110932769Y-73378467D02*
X110932769Y-73311124D01*
X110932769Y-73311124D02*
X111000113Y-73378467D01*
X110562380Y-72401987D02*
X111033784Y-71930582D01*
X111033784Y-71930582D02*
X111437845Y-72940735D01*
X112010265Y-72368315D02*
X111303158Y-71661208D01*
X112414326Y-71964254D02*
X111707219Y-71863239D01*
X111707219Y-71257147D02*
X111707219Y-72065269D01*
D11*
X111824768Y-73732392D02*
X111675939Y-73706128D01*
X111719713Y-73837448D02*
X111535865Y-73653600D01*
X111535865Y-73653600D02*
X111605902Y-73583563D01*
X111605902Y-73583563D02*
X111632166Y-73574808D01*
X111632166Y-73574808D02*
X111649675Y-73574808D01*
X111649675Y-73574808D02*
X111675939Y-73583563D01*
X111675939Y-73583563D02*
X111702203Y-73609827D01*
X111702203Y-73609827D02*
X111710958Y-73636091D01*
X111710958Y-73636091D02*
X111710958Y-73653600D01*
X111710958Y-73653600D02*
X111702203Y-73679864D01*
X111702203Y-73679864D02*
X111632166Y-73749901D01*
X111702203Y-73487262D02*
X111824768Y-73364696D01*
X111824768Y-73364696D02*
X111929824Y-73627336D01*
X111999861Y-73347187D02*
X111973597Y-73355942D01*
X111973597Y-73355942D02*
X111956088Y-73355942D01*
X111956088Y-73355942D02*
X111929824Y-73347187D01*
X111929824Y-73347187D02*
X111921070Y-73338433D01*
X111921070Y-73338433D02*
X111912315Y-73312169D01*
X111912315Y-73312169D02*
X111912315Y-73294659D01*
X111912315Y-73294659D02*
X111921070Y-73268395D01*
X111921070Y-73268395D02*
X111956088Y-73233377D01*
X111956088Y-73233377D02*
X111982352Y-73224622D01*
X111982352Y-73224622D02*
X111999861Y-73224622D01*
X111999861Y-73224622D02*
X112026125Y-73233377D01*
X112026125Y-73233377D02*
X112034880Y-73242131D01*
X112034880Y-73242131D02*
X112043635Y-73268395D01*
X112043635Y-73268395D02*
X112043635Y-73285905D01*
X112043635Y-73285905D02*
X112034880Y-73312169D01*
X112034880Y-73312169D02*
X111999861Y-73347187D01*
X111999861Y-73347187D02*
X111991107Y-73373451D01*
X111991107Y-73373451D02*
X111991107Y-73390960D01*
X111991107Y-73390960D02*
X111999861Y-73417224D01*
X111999861Y-73417224D02*
X112034880Y-73452243D01*
X112034880Y-73452243D02*
X112061144Y-73460998D01*
X112061144Y-73460998D02*
X112078653Y-73460998D01*
X112078653Y-73460998D02*
X112104917Y-73452243D01*
X112104917Y-73452243D02*
X112139936Y-73417224D01*
X112139936Y-73417224D02*
X112148691Y-73390960D01*
X112148691Y-73390960D02*
X112148691Y-73373451D01*
X112148691Y-73373451D02*
X112139936Y-73347187D01*
X112139936Y-73347187D02*
X112104917Y-73312169D01*
X112104917Y-73312169D02*
X112078653Y-73303414D01*
X112078653Y-73303414D02*
X112061144Y-73303414D01*
X112061144Y-73303414D02*
X112034880Y-73312169D01*
D10*
X113587359Y-77476714D02*
X113654702Y-77409370D01*
X113654702Y-77409370D02*
X113755718Y-77375699D01*
X113755718Y-77375699D02*
X113823061Y-77375699D01*
X113823061Y-77375699D02*
X113924076Y-77409370D01*
X113924076Y-77409370D02*
X114092435Y-77510386D01*
X114092435Y-77510386D02*
X114260794Y-77678744D01*
X114260794Y-77678744D02*
X114361809Y-77847103D01*
X114361809Y-77847103D02*
X114395481Y-77948118D01*
X114395481Y-77948118D02*
X114395481Y-78015462D01*
X114395481Y-78015462D02*
X114361809Y-78116477D01*
X114361809Y-78116477D02*
X114294466Y-78183821D01*
X114294466Y-78183821D02*
X114193450Y-78217492D01*
X114193450Y-78217492D02*
X114126107Y-78217492D01*
X114126107Y-78217492D02*
X114025092Y-78183821D01*
X114025092Y-78183821D02*
X113856733Y-78082805D01*
X113856733Y-78082805D02*
X113688374Y-77914447D01*
X113688374Y-77914447D02*
X113587359Y-77746088D01*
X113587359Y-77746088D02*
X113553687Y-77645073D01*
X113553687Y-77645073D02*
X113553687Y-77577729D01*
X113553687Y-77577729D02*
X113587359Y-77476714D01*
X114765870Y-77577729D02*
X114833214Y-77577729D01*
X114833214Y-77577729D02*
X114833214Y-77645073D01*
X114833214Y-77645073D02*
X114765870Y-77645073D01*
X114765870Y-77645073D02*
X114765870Y-77577729D01*
X114765870Y-77577729D02*
X114833214Y-77645073D01*
X115540320Y-76937966D02*
X115136259Y-77342027D01*
X115338290Y-77139997D02*
X114631183Y-76432890D01*
X114631183Y-76432890D02*
X114664855Y-76601249D01*
X114664855Y-76601249D02*
X114664855Y-76735936D01*
X114664855Y-76735936D02*
X114631183Y-76836951D01*
X115675007Y-75860470D02*
X116146412Y-76331875D01*
X115371961Y-76163516D02*
X115742351Y-76533905D01*
X115742351Y-76533905D02*
X115843366Y-76567577D01*
X115843366Y-76567577D02*
X115944381Y-76533905D01*
X115944381Y-76533905D02*
X116045396Y-76432890D01*
X116045396Y-76432890D02*
X116079068Y-76331875D01*
X116079068Y-76331875D02*
X116079068Y-76264531D01*
D11*
X116004616Y-78403996D02*
X116004616Y-78420832D01*
X116004616Y-78420832D02*
X115987780Y-78454504D01*
X115987780Y-78454504D02*
X115970944Y-78471340D01*
X115970944Y-78471340D02*
X115937273Y-78488175D01*
X115937273Y-78488175D02*
X115903601Y-78488175D01*
X115903601Y-78488175D02*
X115878347Y-78479758D01*
X115878347Y-78479758D02*
X115836257Y-78454504D01*
X115836257Y-78454504D02*
X115811004Y-78429250D01*
X115811004Y-78429250D02*
X115785750Y-78387160D01*
X115785750Y-78387160D02*
X115777332Y-78361906D01*
X115777332Y-78361906D02*
X115777332Y-78328235D01*
X115777332Y-78328235D02*
X115794168Y-78294563D01*
X115794168Y-78294563D02*
X115811004Y-78277727D01*
X115811004Y-78277727D02*
X115844675Y-78260891D01*
X115844675Y-78260891D02*
X115861511Y-78260891D01*
X115928855Y-78193548D02*
X115928855Y-78176712D01*
X115928855Y-78176712D02*
X115937273Y-78151458D01*
X115937273Y-78151458D02*
X115979362Y-78109368D01*
X115979362Y-78109368D02*
X116004616Y-78100950D01*
X116004616Y-78100950D02*
X116021452Y-78100950D01*
X116021452Y-78100950D02*
X116046706Y-78109368D01*
X116046706Y-78109368D02*
X116063542Y-78126204D01*
X116063542Y-78126204D02*
X116080378Y-78159876D01*
X116080378Y-78159876D02*
X116080378Y-78361906D01*
X116080378Y-78361906D02*
X116189811Y-78252473D01*
X116358169Y-78084115D02*
X116257154Y-78185130D01*
X116307662Y-78134622D02*
X116130885Y-77957846D01*
X116130885Y-77957846D02*
X116139303Y-77999935D01*
X116139303Y-77999935D02*
X116139303Y-78033607D01*
X116139303Y-78033607D02*
X116130885Y-78058861D01*
D10*
X119854275Y-78013593D02*
X119517558Y-77676876D01*
X119517558Y-77676876D02*
X120224664Y-76969769D01*
X120089978Y-78249296D02*
X120797084Y-77542189D01*
X121032786Y-78451326D02*
X120797084Y-78215624D01*
X120426695Y-78586013D02*
X121133801Y-77878906D01*
X121133801Y-77878906D02*
X121470519Y-78215624D01*
X121504191Y-79528822D02*
X121436847Y-79528822D01*
X121436847Y-79528822D02*
X121302160Y-79461479D01*
X121302160Y-79461479D02*
X121234817Y-79394135D01*
X121234817Y-79394135D02*
X121167473Y-79259448D01*
X121167473Y-79259448D02*
X121167473Y-79124761D01*
X121167473Y-79124761D02*
X121201145Y-79023746D01*
X121201145Y-79023746D02*
X121302160Y-78855387D01*
X121302160Y-78855387D02*
X121403176Y-78754372D01*
X121403176Y-78754372D02*
X121571534Y-78653357D01*
X121571534Y-78653357D02*
X121672550Y-78619685D01*
X121672550Y-78619685D02*
X121807237Y-78619685D01*
X121807237Y-78619685D02*
X121941924Y-78687028D01*
X121941924Y-78687028D02*
X122009267Y-78754372D01*
X122009267Y-78754372D02*
X122076611Y-78889059D01*
X122076611Y-78889059D02*
X122076611Y-78956402D01*
X122076611Y-80235929D02*
X121739893Y-79899211D01*
X121739893Y-79899211D02*
X122447000Y-79192105D01*
X122581687Y-80202257D02*
X123120435Y-80741005D01*
X123558168Y-81717486D02*
X123154107Y-81313425D01*
X123356137Y-81515455D02*
X124063244Y-80808349D01*
X124063244Y-80808349D02*
X123894885Y-80842020D01*
X123894885Y-80842020D02*
X123760198Y-80842020D01*
X123760198Y-80842020D02*
X123659183Y-80808349D01*
X124500977Y-81246081D02*
X124972381Y-81717486D01*
X124972381Y-81717486D02*
X123962229Y-82121547D01*
X124804023Y-82424593D02*
X125342771Y-82963341D01*
X126049877Y-82794982D02*
X126521282Y-83266386D01*
X126521282Y-83266386D02*
X125511129Y-83670447D01*
X126083549Y-84242867D02*
X126790656Y-83535760D01*
X126790656Y-83535760D02*
X126521282Y-84276539D01*
X126521282Y-84276539D02*
X127262060Y-84007165D01*
X127262060Y-84007165D02*
X126554953Y-84714272D01*
X127935495Y-84747943D02*
X127901823Y-84646928D01*
X127901823Y-84646928D02*
X127800808Y-84545913D01*
X127800808Y-84545913D02*
X127666121Y-84478569D01*
X127666121Y-84478569D02*
X127531434Y-84478569D01*
X127531434Y-84478569D02*
X127430419Y-84512241D01*
X127430419Y-84512241D02*
X127262060Y-84613256D01*
X127262060Y-84613256D02*
X127161045Y-84714272D01*
X127161045Y-84714272D02*
X127060030Y-84882630D01*
X127060030Y-84882630D02*
X127026358Y-84983646D01*
X127026358Y-84983646D02*
X127026358Y-85118333D01*
X127026358Y-85118333D02*
X127093701Y-85253020D01*
X127093701Y-85253020D02*
X127161045Y-85320363D01*
X127161045Y-85320363D02*
X127295732Y-85387707D01*
X127295732Y-85387707D02*
X127363075Y-85387707D01*
X127363075Y-85387707D02*
X127598778Y-85152004D01*
X127598778Y-85152004D02*
X127464091Y-85017317D01*
X127969167Y-86128485D02*
X127565106Y-85724424D01*
X127767136Y-85926455D02*
X128474243Y-85219348D01*
X128474243Y-85219348D02*
X128305884Y-85253020D01*
X128305884Y-85253020D02*
X128171197Y-85253020D01*
X128171197Y-85253020D02*
X128070182Y-85219348D01*
X128878304Y-85758096D02*
X128945648Y-85758096D01*
X128945648Y-85758096D02*
X129046663Y-85791768D01*
X129046663Y-85791768D02*
X129215022Y-85960126D01*
X129215022Y-85960126D02*
X129248694Y-86061142D01*
X129248694Y-86061142D02*
X129248694Y-86128485D01*
X129248694Y-86128485D02*
X129215022Y-86229500D01*
X129215022Y-86229500D02*
X129147678Y-86296844D01*
X129147678Y-86296844D02*
X129012991Y-86364187D01*
X129012991Y-86364187D02*
X128204869Y-86364187D01*
X128204869Y-86364187D02*
X128642602Y-86801920D01*
X129316037Y-87475355D02*
X128911976Y-87071294D01*
X129114007Y-87273325D02*
X129821113Y-86566218D01*
X129821113Y-86566218D02*
X129652755Y-86599890D01*
X129652755Y-86599890D02*
X129518068Y-86599890D01*
X129518068Y-86599890D02*
X129417052Y-86566218D01*
X130090487Y-88115119D02*
X130023144Y-88115119D01*
X130023144Y-88115119D02*
X129888457Y-88047775D01*
X129888457Y-88047775D02*
X129821113Y-87980432D01*
X129821113Y-87980432D02*
X129753770Y-87845745D01*
X129753770Y-87845745D02*
X129753770Y-87711058D01*
X129753770Y-87711058D02*
X129787442Y-87610042D01*
X129787442Y-87610042D02*
X129888457Y-87441684D01*
X129888457Y-87441684D02*
X129989472Y-87340668D01*
X129989472Y-87340668D02*
X130157831Y-87239653D01*
X130157831Y-87239653D02*
X130258846Y-87205981D01*
X130258846Y-87205981D02*
X130393533Y-87205981D01*
X130393533Y-87205981D02*
X130528220Y-87273325D01*
X130528220Y-87273325D02*
X130595564Y-87340668D01*
X130595564Y-87340668D02*
X130662907Y-87475355D01*
X130662907Y-87475355D02*
X130662907Y-87542699D01*
X113434605Y-76329316D02*
X113501948Y-76261972D01*
X113501948Y-76261972D02*
X113602964Y-76228301D01*
X113602964Y-76228301D02*
X113670307Y-76228301D01*
X113670307Y-76228301D02*
X113771322Y-76261972D01*
X113771322Y-76261972D02*
X113939681Y-76362988D01*
X113939681Y-76362988D02*
X114108040Y-76531346D01*
X114108040Y-76531346D02*
X114209055Y-76699705D01*
X114209055Y-76699705D02*
X114242727Y-76800720D01*
X114242727Y-76800720D02*
X114242727Y-76868064D01*
X114242727Y-76868064D02*
X114209055Y-76969079D01*
X114209055Y-76969079D02*
X114141712Y-77036423D01*
X114141712Y-77036423D02*
X114040696Y-77070094D01*
X114040696Y-77070094D02*
X113973353Y-77070094D01*
X113973353Y-77070094D02*
X113872338Y-77036423D01*
X113872338Y-77036423D02*
X113703979Y-76935407D01*
X113703979Y-76935407D02*
X113535620Y-76767049D01*
X113535620Y-76767049D02*
X113434605Y-76598690D01*
X113434605Y-76598690D02*
X113400933Y-76497675D01*
X113400933Y-76497675D02*
X113400933Y-76430331D01*
X113400933Y-76430331D02*
X113434605Y-76329316D01*
X114613116Y-76430331D02*
X114680460Y-76430331D01*
X114680460Y-76430331D02*
X114680460Y-76497675D01*
X114680460Y-76497675D02*
X114613116Y-76497675D01*
X114613116Y-76497675D02*
X114613116Y-76430331D01*
X114613116Y-76430331D02*
X114680460Y-76497675D01*
X115387566Y-75790568D02*
X114983505Y-76194629D01*
X115185536Y-75992599D02*
X114478429Y-75285492D01*
X114478429Y-75285492D02*
X114512101Y-75453851D01*
X114512101Y-75453851D02*
X114512101Y-75588538D01*
X114512101Y-75588538D02*
X114478429Y-75689553D01*
X115522253Y-74713072D02*
X115993658Y-75184477D01*
X115219207Y-75016118D02*
X115589597Y-75386507D01*
X115589597Y-75386507D02*
X115690612Y-75420179D01*
X115690612Y-75420179D02*
X115791627Y-75386507D01*
X115791627Y-75386507D02*
X115892642Y-75285492D01*
X115892642Y-75285492D02*
X115926314Y-75184477D01*
X115926314Y-75184477D02*
X115926314Y-75117133D01*
D11*
X113405272Y-74810008D02*
X113405272Y-74826844D01*
X113405272Y-74826844D02*
X113388436Y-74860516D01*
X113388436Y-74860516D02*
X113371600Y-74877352D01*
X113371600Y-74877352D02*
X113337929Y-74894187D01*
X113337929Y-74894187D02*
X113304257Y-74894187D01*
X113304257Y-74894187D02*
X113279003Y-74885770D01*
X113279003Y-74885770D02*
X113236913Y-74860516D01*
X113236913Y-74860516D02*
X113211660Y-74835262D01*
X113211660Y-74835262D02*
X113186406Y-74793172D01*
X113186406Y-74793172D02*
X113177988Y-74767918D01*
X113177988Y-74767918D02*
X113177988Y-74734247D01*
X113177988Y-74734247D02*
X113194824Y-74700575D01*
X113194824Y-74700575D02*
X113211660Y-74683739D01*
X113211660Y-74683739D02*
X113245331Y-74666903D01*
X113245331Y-74666903D02*
X113262167Y-74666903D01*
X113329511Y-74599560D02*
X113329511Y-74582724D01*
X113329511Y-74582724D02*
X113337929Y-74557470D01*
X113337929Y-74557470D02*
X113380018Y-74515380D01*
X113380018Y-74515380D02*
X113405272Y-74506962D01*
X113405272Y-74506962D02*
X113422108Y-74506962D01*
X113422108Y-74506962D02*
X113447362Y-74515380D01*
X113447362Y-74515380D02*
X113464198Y-74532216D01*
X113464198Y-74532216D02*
X113481034Y-74565888D01*
X113481034Y-74565888D02*
X113481034Y-74767918D01*
X113481034Y-74767918D02*
X113590467Y-74658485D01*
X113472615Y-74422783D02*
X113582049Y-74313350D01*
X113582049Y-74313350D02*
X113590467Y-74439619D01*
X113590467Y-74439619D02*
X113615720Y-74414365D01*
X113615720Y-74414365D02*
X113640974Y-74405947D01*
X113640974Y-74405947D02*
X113657810Y-74405947D01*
X113657810Y-74405947D02*
X113683064Y-74414365D01*
X113683064Y-74414365D02*
X113725154Y-74456455D01*
X113725154Y-74456455D02*
X113733572Y-74481709D01*
X113733572Y-74481709D02*
X113733572Y-74498545D01*
X113733572Y-74498545D02*
X113725154Y-74523798D01*
X113725154Y-74523798D02*
X113674646Y-74574306D01*
X113674646Y-74574306D02*
X113649392Y-74582724D01*
X113649392Y-74582724D02*
X113632556Y-74582724D01*
D10*
X104381009Y-99380952D02*
X104381009Y-99714285D01*
X104904819Y-99714285D02*
X103904819Y-99714285D01*
X103904819Y-99714285D02*
X103904819Y-99238095D01*
X104904819Y-98857142D02*
X104238152Y-98857142D01*
X103904819Y-98857142D02*
X103952438Y-98904761D01*
X103952438Y-98904761D02*
X104000057Y-98857142D01*
X104000057Y-98857142D02*
X103952438Y-98809523D01*
X103952438Y-98809523D02*
X103904819Y-98857142D01*
X103904819Y-98857142D02*
X104000057Y-98857142D01*
X104904819Y-97952381D02*
X103904819Y-97952381D01*
X104857200Y-97952381D02*
X104904819Y-98047619D01*
X104904819Y-98047619D02*
X104904819Y-98238095D01*
X104904819Y-98238095D02*
X104857200Y-98333333D01*
X104857200Y-98333333D02*
X104809580Y-98380952D01*
X104809580Y-98380952D02*
X104714342Y-98428571D01*
X104714342Y-98428571D02*
X104428628Y-98428571D01*
X104428628Y-98428571D02*
X104333390Y-98380952D01*
X104333390Y-98380952D02*
X104285771Y-98333333D01*
X104285771Y-98333333D02*
X104238152Y-98238095D01*
X104238152Y-98238095D02*
X104238152Y-98047619D01*
X104238152Y-98047619D02*
X104285771Y-97952381D01*
X104238152Y-97047619D02*
X104904819Y-97047619D01*
X104238152Y-97476190D02*
X104761961Y-97476190D01*
X104761961Y-97476190D02*
X104857200Y-97428571D01*
X104857200Y-97428571D02*
X104904819Y-97333333D01*
X104904819Y-97333333D02*
X104904819Y-97190476D01*
X104904819Y-97190476D02*
X104857200Y-97095238D01*
X104857200Y-97095238D02*
X104809580Y-97047619D01*
X104857200Y-96142857D02*
X104904819Y-96238095D01*
X104904819Y-96238095D02*
X104904819Y-96428571D01*
X104904819Y-96428571D02*
X104857200Y-96523809D01*
X104857200Y-96523809D02*
X104809580Y-96571428D01*
X104809580Y-96571428D02*
X104714342Y-96619047D01*
X104714342Y-96619047D02*
X104428628Y-96619047D01*
X104428628Y-96619047D02*
X104333390Y-96571428D01*
X104333390Y-96571428D02*
X104285771Y-96523809D01*
X104285771Y-96523809D02*
X104238152Y-96428571D01*
X104238152Y-96428571D02*
X104238152Y-96238095D01*
X104238152Y-96238095D02*
X104285771Y-96142857D01*
X104904819Y-95714285D02*
X104238152Y-95714285D01*
X103904819Y-95714285D02*
X103952438Y-95761904D01*
X103952438Y-95761904D02*
X104000057Y-95714285D01*
X104000057Y-95714285D02*
X103952438Y-95666666D01*
X103952438Y-95666666D02*
X103904819Y-95714285D01*
X103904819Y-95714285D02*
X104000057Y-95714285D01*
X104904819Y-94809524D02*
X104381009Y-94809524D01*
X104381009Y-94809524D02*
X104285771Y-94857143D01*
X104285771Y-94857143D02*
X104238152Y-94952381D01*
X104238152Y-94952381D02*
X104238152Y-95142857D01*
X104238152Y-95142857D02*
X104285771Y-95238095D01*
X104857200Y-94809524D02*
X104904819Y-94904762D01*
X104904819Y-94904762D02*
X104904819Y-95142857D01*
X104904819Y-95142857D02*
X104857200Y-95238095D01*
X104857200Y-95238095D02*
X104761961Y-95285714D01*
X104761961Y-95285714D02*
X104666723Y-95285714D01*
X104666723Y-95285714D02*
X104571485Y-95238095D01*
X104571485Y-95238095D02*
X104523866Y-95142857D01*
X104523866Y-95142857D02*
X104523866Y-94904762D01*
X104523866Y-94904762D02*
X104476247Y-94809524D01*
X104904819Y-94190476D02*
X104857200Y-94285714D01*
X104857200Y-94285714D02*
X104761961Y-94333333D01*
X104761961Y-94333333D02*
X103904819Y-94333333D01*
D11*
X102982622Y-97267856D02*
X102982622Y-97351190D01*
X103113574Y-97351190D02*
X102863574Y-97351190D01*
X102863574Y-97351190D02*
X102863574Y-97232142D01*
X103113574Y-97136904D02*
X102863574Y-97136904D01*
X103113574Y-97017856D02*
X102863574Y-97017856D01*
X102863574Y-97017856D02*
X102863574Y-96958332D01*
X102863574Y-96958332D02*
X102875479Y-96922618D01*
X102875479Y-96922618D02*
X102899289Y-96898808D01*
X102899289Y-96898808D02*
X102923098Y-96886903D01*
X102923098Y-96886903D02*
X102970717Y-96874999D01*
X102970717Y-96874999D02*
X103006431Y-96874999D01*
X103006431Y-96874999D02*
X103054050Y-96886903D01*
X103054050Y-96886903D02*
X103077860Y-96898808D01*
X103077860Y-96898808D02*
X103101670Y-96922618D01*
X103101670Y-96922618D02*
X103113574Y-96958332D01*
X103113574Y-96958332D02*
X103113574Y-97017856D01*
X103113574Y-96636903D02*
X103113574Y-96779760D01*
X103113574Y-96708332D02*
X102863574Y-96708332D01*
X102863574Y-96708332D02*
X102899289Y-96732141D01*
X102899289Y-96732141D02*
X102923098Y-96755951D01*
X102923098Y-96755951D02*
X102935003Y-96779760D01*
D10*
X115715714Y-73054819D02*
X115810952Y-73054819D01*
X115810952Y-73054819D02*
X115906190Y-73102438D01*
X115906190Y-73102438D02*
X115953809Y-73150057D01*
X115953809Y-73150057D02*
X116001428Y-73245295D01*
X116001428Y-73245295D02*
X116049047Y-73435771D01*
X116049047Y-73435771D02*
X116049047Y-73673866D01*
X116049047Y-73673866D02*
X116001428Y-73864342D01*
X116001428Y-73864342D02*
X115953809Y-73959580D01*
X115953809Y-73959580D02*
X115906190Y-74007200D01*
X115906190Y-74007200D02*
X115810952Y-74054819D01*
X115810952Y-74054819D02*
X115715714Y-74054819D01*
X115715714Y-74054819D02*
X115620476Y-74007200D01*
X115620476Y-74007200D02*
X115572857Y-73959580D01*
X115572857Y-73959580D02*
X115525238Y-73864342D01*
X115525238Y-73864342D02*
X115477619Y-73673866D01*
X115477619Y-73673866D02*
X115477619Y-73435771D01*
X115477619Y-73435771D02*
X115525238Y-73245295D01*
X115525238Y-73245295D02*
X115572857Y-73150057D01*
X115572857Y-73150057D02*
X115620476Y-73102438D01*
X115620476Y-73102438D02*
X115715714Y-73054819D01*
X116477619Y-73959580D02*
X116525238Y-74007200D01*
X116525238Y-74007200D02*
X116477619Y-74054819D01*
X116477619Y-74054819D02*
X116430000Y-74007200D01*
X116430000Y-74007200D02*
X116477619Y-73959580D01*
X116477619Y-73959580D02*
X116477619Y-74054819D01*
X117477618Y-74054819D02*
X116906190Y-74054819D01*
X117191904Y-74054819D02*
X117191904Y-73054819D01*
X117191904Y-73054819D02*
X117096666Y-73197676D01*
X117096666Y-73197676D02*
X117001428Y-73292914D01*
X117001428Y-73292914D02*
X116906190Y-73340533D01*
X118334761Y-73388152D02*
X118334761Y-74054819D01*
X117906190Y-73388152D02*
X117906190Y-73911961D01*
X117906190Y-73911961D02*
X117953809Y-74007200D01*
X117953809Y-74007200D02*
X118049047Y-74054819D01*
X118049047Y-74054819D02*
X118191904Y-74054819D01*
X118191904Y-74054819D02*
X118287142Y-74007200D01*
X118287142Y-74007200D02*
X118334761Y-73959580D01*
D11*
X116769285Y-75419766D02*
X116757381Y-75431671D01*
X116757381Y-75431671D02*
X116721666Y-75443575D01*
X116721666Y-75443575D02*
X116697857Y-75443575D01*
X116697857Y-75443575D02*
X116662143Y-75431671D01*
X116662143Y-75431671D02*
X116638333Y-75407861D01*
X116638333Y-75407861D02*
X116626428Y-75384051D01*
X116626428Y-75384051D02*
X116614524Y-75336432D01*
X116614524Y-75336432D02*
X116614524Y-75300718D01*
X116614524Y-75300718D02*
X116626428Y-75253099D01*
X116626428Y-75253099D02*
X116638333Y-75229290D01*
X116638333Y-75229290D02*
X116662143Y-75205480D01*
X116662143Y-75205480D02*
X116697857Y-75193575D01*
X116697857Y-75193575D02*
X116721666Y-75193575D01*
X116721666Y-75193575D02*
X116757381Y-75205480D01*
X116757381Y-75205480D02*
X116769285Y-75217385D01*
X116864524Y-75217385D02*
X116876428Y-75205480D01*
X116876428Y-75205480D02*
X116900238Y-75193575D01*
X116900238Y-75193575D02*
X116959762Y-75193575D01*
X116959762Y-75193575D02*
X116983571Y-75205480D01*
X116983571Y-75205480D02*
X116995476Y-75217385D01*
X116995476Y-75217385D02*
X117007381Y-75241194D01*
X117007381Y-75241194D02*
X117007381Y-75265004D01*
X117007381Y-75265004D02*
X116995476Y-75300718D01*
X116995476Y-75300718D02*
X116852619Y-75443575D01*
X116852619Y-75443575D02*
X117007381Y-75443575D01*
X117102619Y-75217385D02*
X117114523Y-75205480D01*
X117114523Y-75205480D02*
X117138333Y-75193575D01*
X117138333Y-75193575D02*
X117197857Y-75193575D01*
X117197857Y-75193575D02*
X117221666Y-75205480D01*
X117221666Y-75205480D02*
X117233571Y-75217385D01*
X117233571Y-75217385D02*
X117245476Y-75241194D01*
X117245476Y-75241194D02*
X117245476Y-75265004D01*
X117245476Y-75265004D02*
X117233571Y-75300718D01*
X117233571Y-75300718D02*
X117090714Y-75443575D01*
X117090714Y-75443575D02*
X117245476Y-75443575D01*
D12*
%TO.C,R62*%
X113308474Y-73079688D02*
X114050936Y-72337226D01*
X113690312Y-73461526D02*
X113308474Y-73079688D01*
X114050936Y-72337226D02*
X114432774Y-72719064D01*
X114432774Y-72719064D02*
X113690312Y-73461526D01*
%TO.C,C48*%
X101680000Y-72170000D02*
X102180000Y-72170000D01*
X101680000Y-73170000D02*
X101680000Y-72170000D01*
X102180000Y-72170000D02*
X102180000Y-73170000D01*
X102180000Y-73170000D02*
X101680000Y-73170000D01*
%TO.C,R33*%
X125925400Y-95180601D02*
X126465400Y-95180601D01*
X125925400Y-96230601D02*
X125925400Y-95180601D01*
X126465400Y-95180601D02*
X126465400Y-96230601D01*
X126465400Y-96230601D02*
X125925400Y-96230601D01*
%TO.C,C51*%
X101680002Y-74059998D02*
X102180002Y-74059998D01*
X101680002Y-75059998D02*
X101680002Y-74059998D01*
X102180002Y-74059998D02*
X102180002Y-75059998D01*
X102180002Y-75059998D02*
X101680002Y-75059998D01*
%TO.C,C20*%
X111999081Y-74407366D02*
X112706188Y-73700259D01*
X112352634Y-74760919D02*
X111999081Y-74407366D01*
X112706188Y-73700259D02*
X113059741Y-74053812D01*
X113059741Y-74053812D02*
X112352634Y-74760919D01*
%TO.C,FID2*%
X133500000Y-73000000D02*
G75*
G02*
X132500000Y-73000000I-500000J0D01*
G01*
X132500000Y-73000000D02*
G75*
G02*
X133500000Y-73000000I500000J0D01*
G01*
%TO.C,R51*%
X127225400Y-95160603D02*
X127765400Y-95160603D01*
X127225400Y-96210603D02*
X127225400Y-95160603D01*
X127765400Y-95160603D02*
X127765400Y-96210603D01*
X127765400Y-96210603D02*
X127225400Y-96210603D01*
%TO.C,C18*%
X128831600Y-92865200D02*
X129431600Y-92865200D01*
X128831600Y-93165200D02*
X128831600Y-92865200D01*
X129431600Y-92865200D02*
X129431600Y-93165200D01*
X129431600Y-93165200D02*
X128831600Y-93165200D01*
%TO.C,C6*%
X103030000Y-75569998D02*
X103330000Y-75569998D01*
X103030000Y-76169998D02*
X103030000Y-75569998D01*
X103330000Y-75569998D02*
X103330000Y-76169998D01*
X103330000Y-76169998D02*
X103030000Y-76169998D01*
%TO.C,R9*%
X128525400Y-95180601D02*
X129065400Y-95180601D01*
X128525400Y-96230601D02*
X128525400Y-95180601D01*
X129065400Y-95180601D02*
X129065400Y-96230601D01*
X129065400Y-96230601D02*
X128525400Y-96230601D01*
%TO.C,U5*%
X103860003Y-74772497D02*
X105460001Y-74772497D01*
X103860003Y-75672497D02*
X103860003Y-74772497D01*
X104160003Y-75972497D02*
X103860003Y-75672497D01*
X105460001Y-74772497D02*
X105460001Y-75972497D01*
X105460001Y-75972497D02*
X104160003Y-75972497D01*
%TO.C,FID3*%
X133500000Y-97000000D02*
G75*
G02*
X132500000Y-97000000I-500000J0D01*
G01*
X132500000Y-97000000D02*
G75*
G02*
X133500000Y-97000000I500000J0D01*
G01*
%TO.C,R78*%
X111297226Y-73710936D02*
X112039688Y-72968474D01*
X111679064Y-74092774D02*
X111297226Y-73710936D01*
X112039688Y-72968474D02*
X112421526Y-73350312D01*
X112421526Y-73350312D02*
X111679064Y-74092774D01*
%TO.C,C21*%
X115255754Y-77852114D02*
X115680018Y-77427850D01*
X115467886Y-78064246D02*
X115255754Y-77852114D01*
X115680018Y-77427850D02*
X115892150Y-77639982D01*
X115892150Y-77639982D02*
X115467886Y-78064246D01*
D13*
%TO.C,U3*%
X116448418Y-85278234D02*
X120691059Y-89520875D01*
X120691059Y-81035593D02*
X116448418Y-85278234D01*
X120691059Y-81035593D02*
X124933700Y-85278234D01*
X124933700Y-85278234D02*
X120691059Y-89520875D01*
D14*
X121498166Y-89520875D02*
G75*
G02*
X121298166Y-89520875I-100000J0D01*
G01*
X121298166Y-89520875D02*
G75*
G02*
X121498166Y-89520875I100000J0D01*
G01*
D12*
%TO.C,C23*%
X113618076Y-75219792D02*
X114042340Y-74795528D01*
X113830208Y-75431924D02*
X113618076Y-75219792D01*
X114042340Y-74795528D02*
X114254472Y-75007660D01*
X114254472Y-75007660D02*
X113830208Y-75431924D01*
%TO.C,FID1*%
X103500000Y-97000000D02*
G75*
G02*
X102500000Y-97000000I-500000J0D01*
G01*
X102500000Y-97000000D02*
G75*
G02*
X103500000Y-97000000I500000J0D01*
G01*
%TO.C,C22*%
X116630000Y-74500000D02*
X117230000Y-74500000D01*
X116630000Y-74800000D02*
X116630000Y-74500000D01*
X117230000Y-74500000D02*
X117230000Y-74800000D01*
X117230000Y-74800000D02*
X116630000Y-74800000D01*
%TD*%
M02*
