%TF.GenerationSoftware,KiCad,Pcbnew,9.0.2*%
%TF.CreationDate,2025-11-14T17:05:06-08:00*%
%TF.ProjectId,pico2-nx-module,7069636f-322d-46e7-982d-6d6f64756c65,rev?*%
%TF.SameCoordinates,Original*%
%TF.FileFunction,Soldermask,Bot*%
%TF.FilePolarity,Negative*%
%FSLAX46Y46*%
G04 Gerber Fmt 4.6, Leading zero omitted, Abs format (unit mm)*
G04 Created by KiCad (PCBNEW 9.0.2) date 2025-11-14 17:05:06*
%MOMM*%
%LPD*%
G01*
G04 APERTURE LIST*
G04 Aperture macros list*
%AMRoundRect*
0 Rectangle with rounded corners*
0 $1 Rounding radius*
0 $2 $3 $4 $5 $6 $7 $8 $9 X,Y pos of 4 corners*
0 Add a 4 corners polygon primitive as box body*
4,1,4,$2,$3,$4,$5,$6,$7,$8,$9,$2,$3,0*
0 Add four circle primitives for the rounded corners*
1,1,$1+$1,$2,$3*
1,1,$1+$1,$4,$5*
1,1,$1+$1,$6,$7*
1,1,$1+$1,$8,$9*
0 Add four rect primitives between the rounded corners*
20,1,$1+$1,$2,$3,$4,$5,0*
20,1,$1+$1,$4,$5,$6,$7,0*
20,1,$1+$1,$6,$7,$8,$9,0*
20,1,$1+$1,$8,$9,$2,$3,0*%
G04 Aperture macros list end*
%ADD10RoundRect,0.100000X-0.021213X-0.162635X0.162635X0.021213X0.021213X0.162635X-0.162635X-0.021213X0*%
%ADD11RoundRect,0.140000X-0.219203X-0.021213X-0.021213X-0.219203X0.219203X0.021213X0.021213X0.219203X0*%
%ADD12RoundRect,0.100000X0.162635X-0.021213X-0.021213X0.162635X-0.162635X0.021213X0.021213X-0.162635X0*%
%ADD13RoundRect,0.100000X-0.162635X0.021213X0.021213X-0.162635X0.162635X-0.021213X-0.021213X0.162635X0*%
%ADD14RoundRect,0.140000X0.219203X0.021213X0.021213X0.219203X-0.219203X-0.021213X-0.021213X-0.219203X0*%
%ADD15RoundRect,0.140000X0.021213X-0.219203X0.219203X-0.021213X-0.021213X0.219203X-0.219203X0.021213X0*%
%ADD16RoundRect,0.140000X-0.021213X0.219203X-0.219203X0.021213X0.021213X-0.219203X0.219203X-0.021213X0*%
%ADD17RoundRect,0.135000X0.185000X-0.135000X0.185000X0.135000X-0.185000X0.135000X-0.185000X-0.135000X0*%
%ADD18RoundRect,0.100000X0.021213X0.162635X-0.162635X-0.021213X-0.021213X-0.162635X0.162635X0.021213X0*%
%ADD19RoundRect,0.125000X0.125000X-0.250000X0.125000X0.250000X-0.125000X0.250000X-0.125000X-0.250000X0*%
%ADD20R,4.300000X3.400000*%
%ADD21R,0.660000X0.230000*%
%ADD22R,0.660000X0.350000*%
%ADD23C,1.000000*%
%ADD24RoundRect,0.135000X0.135000X0.185000X-0.135000X0.185000X-0.135000X-0.185000X0.135000X-0.185000X0*%
%ADD25RoundRect,0.135000X-0.185000X0.135000X-0.185000X-0.135000X0.185000X-0.135000X0.185000X0.135000X0*%
%ADD26RoundRect,0.135000X-0.135000X-0.185000X0.135000X-0.185000X0.135000X0.185000X-0.135000X0.185000X0*%
%ADD27C,0.320000*%
%ADD28RoundRect,0.140000X0.170000X-0.140000X0.170000X0.140000X-0.170000X0.140000X-0.170000X-0.140000X0*%
G04 APERTURE END LIST*
D10*
%TO.C,C47*%
X118097452Y-83652548D03*
X118550000Y-83200000D03*
%TD*%
D11*
%TO.C,FB7*%
X116752356Y-88042356D03*
X117431178Y-88721178D03*
%TD*%
D12*
%TO.C,C33*%
X117642548Y-85642548D03*
X117190000Y-85190000D03*
%TD*%
%TO.C,C36*%
X120542548Y-87972548D03*
X120090000Y-87520000D03*
%TD*%
D11*
%TO.C,FB9*%
X119060000Y-80150000D03*
X119738822Y-80828822D03*
%TD*%
D12*
%TO.C,C45*%
X122162548Y-83912548D03*
X121710000Y-83460000D03*
%TD*%
D13*
%TO.C,C38*%
X118890000Y-87720000D03*
X119342548Y-88172548D03*
%TD*%
D14*
%TO.C,C27*%
X116790000Y-86720000D03*
X116111178Y-86041178D03*
%TD*%
D15*
%TO.C,C41*%
X122140000Y-82350000D03*
X122818822Y-81671178D03*
%TD*%
D16*
%TO.C,FB4*%
X116473614Y-82848658D03*
X115794792Y-83527480D03*
%TD*%
D13*
%TO.C,C12*%
X120596893Y-86679231D03*
X121049441Y-87131779D03*
%TD*%
D10*
%TO.C,C76*%
X122697452Y-86492548D03*
X123150000Y-86040000D03*
%TD*%
D11*
%TO.C,FB5*%
X118060000Y-89360000D03*
X118738822Y-90038822D03*
%TD*%
D17*
%TO.C,R8*%
X103580001Y-75279997D03*
X103580001Y-74259999D03*
%TD*%
D18*
%TO.C,C15*%
X120770000Y-83140000D03*
X120317452Y-83592548D03*
%TD*%
%TO.C,C83*%
X122992548Y-87237452D03*
X122540000Y-87690000D03*
%TD*%
D10*
%TO.C,C13*%
X121740000Y-87520000D03*
X122192548Y-87067452D03*
%TD*%
D15*
%TO.C,C7*%
X121450000Y-81660000D03*
X122128822Y-80981178D03*
%TD*%
D10*
%TO.C,C46*%
X119907452Y-82362548D03*
X120360000Y-81910000D03*
%TD*%
D16*
%TO.C,C43*%
X124173832Y-88524948D03*
X123495010Y-89203770D03*
%TD*%
D14*
%TO.C,C39*%
X117777181Y-82866494D03*
X117098359Y-82187672D03*
%TD*%
D11*
%TO.C,C29*%
X122831178Y-83001178D03*
X123510000Y-83680000D03*
%TD*%
D14*
%TO.C,FB6*%
X116132096Y-87420561D03*
X115453274Y-86741739D03*
%TD*%
%TO.C,C42*%
X120378822Y-80148822D03*
X119700000Y-79470000D03*
%TD*%
D13*
%TO.C,C37*%
X119069955Y-82697873D03*
X119522503Y-83150421D03*
%TD*%
D19*
%TO.C,U4*%
X128805400Y-98408985D03*
X127535400Y-98408985D03*
X126265400Y-98408985D03*
X124995400Y-98408985D03*
X124995400Y-93008985D03*
X126265400Y-93008985D03*
X127535400Y-93008985D03*
X128805400Y-93008985D03*
D20*
X126900400Y-95708985D03*
%TD*%
D21*
%TO.C,J2*%
X134410000Y-79400000D03*
X131700000Y-79400000D03*
X134410000Y-79800000D03*
X131700000Y-79800000D03*
X134410000Y-80200000D03*
X131700000Y-80200000D03*
X134410000Y-80600000D03*
X131700000Y-80600000D03*
X134410000Y-81000000D03*
X131700000Y-81000000D03*
X134410000Y-81400000D03*
X131700000Y-81400000D03*
X134410000Y-81800000D03*
X131700000Y-81800000D03*
X134410000Y-82200000D03*
X131700000Y-82200000D03*
X134410000Y-82600000D03*
X131700000Y-82600000D03*
X134410000Y-83000000D03*
X131700000Y-83000000D03*
X134410000Y-83400000D03*
X131700000Y-83400000D03*
X134410000Y-83800000D03*
X131700000Y-83800000D03*
X134410000Y-84200000D03*
X131700000Y-84200000D03*
X134410000Y-84600000D03*
X131700000Y-84600000D03*
X134410000Y-85000000D03*
X131700000Y-85000000D03*
X134410000Y-85400000D03*
X131700000Y-85400000D03*
X134410000Y-85800000D03*
X131700000Y-85800000D03*
X134410000Y-86200000D03*
X131700000Y-86200000D03*
X134410000Y-86600000D03*
X131700000Y-86600000D03*
X134410000Y-87000000D03*
X131700000Y-87000000D03*
X134410000Y-87400000D03*
X131700000Y-87400000D03*
X134410000Y-87800000D03*
X131700000Y-87800000D03*
X134410000Y-88200000D03*
X131700000Y-88200000D03*
X134410000Y-88600000D03*
X131700000Y-88600000D03*
X134410000Y-89000000D03*
X131700000Y-89000000D03*
X134410000Y-89400000D03*
X131700000Y-89400000D03*
X134410000Y-89800000D03*
X131700000Y-89800000D03*
X134410000Y-90200000D03*
X131700000Y-90200000D03*
X134410000Y-90600000D03*
X131700000Y-90600000D03*
X134410000Y-91000000D03*
X131700000Y-91000000D03*
D22*
X134410000Y-78925000D03*
X131700000Y-78925000D03*
X134410000Y-91475000D03*
X131700000Y-91475000D03*
%TD*%
D15*
%TO.C,FB8*%
X122844312Y-88537778D03*
X123523134Y-87858956D03*
%TD*%
D23*
%TO.C,FID6*%
X133000000Y-73000000D03*
%TD*%
D12*
%TO.C,C81*%
X120100000Y-84550000D03*
X119647452Y-84097452D03*
%TD*%
D24*
%TO.C,R12*%
X118500000Y-92550000D03*
X117480002Y-92550000D03*
%TD*%
D25*
%TO.C,R3*%
X124450000Y-90980002D03*
X124450000Y-92000000D03*
%TD*%
D23*
%TO.C,FID5*%
X103000000Y-97000000D03*
%TD*%
D15*
%TO.C,C8*%
X119410000Y-90830000D03*
X120088822Y-90151178D03*
%TD*%
D11*
%TO.C,FB3*%
X114126820Y-85428319D03*
X114805642Y-86107141D03*
%TD*%
D26*
%TO.C,R26*%
X103170006Y-76199998D03*
X104190004Y-76199998D03*
%TD*%
D15*
%TO.C,C30*%
X118380877Y-82203923D03*
X119059699Y-81525101D03*
%TD*%
D23*
%TO.C,FID7*%
X133000000Y-97000000D03*
%TD*%
D12*
%TO.C,C35*%
X119622548Y-86452548D03*
X119170000Y-86000000D03*
%TD*%
D21*
%TO.C,J3*%
X105210000Y-79400000D03*
X102500000Y-79400000D03*
X105210000Y-79800000D03*
X102500000Y-79800000D03*
X105210000Y-80200000D03*
X102500000Y-80200000D03*
X105210000Y-80600000D03*
X102500000Y-80600000D03*
X105210000Y-81000000D03*
X102500000Y-81000000D03*
X105210000Y-81400000D03*
X102500000Y-81400000D03*
X105210000Y-81800000D03*
X102500000Y-81800000D03*
X105210000Y-82200000D03*
X102500000Y-82200000D03*
X105210000Y-82600000D03*
X102500000Y-82600000D03*
X105210000Y-83000000D03*
X102500000Y-83000000D03*
X105210000Y-83400000D03*
X102500000Y-83400000D03*
X105210000Y-83800000D03*
X102500000Y-83800000D03*
X105210000Y-84200000D03*
X102500000Y-84200000D03*
X105210000Y-84600000D03*
X102500000Y-84600000D03*
X105210000Y-85000000D03*
X102500000Y-85000000D03*
X105210000Y-85400000D03*
X102500000Y-85400000D03*
X105210000Y-85800000D03*
X102500000Y-85800000D03*
X105210000Y-86200000D03*
X102500000Y-86200000D03*
X105210000Y-86600000D03*
X102500000Y-86600000D03*
X105210000Y-87000000D03*
X102500000Y-87000000D03*
X105210000Y-87400000D03*
X102500000Y-87400000D03*
X105210000Y-87800000D03*
X102500000Y-87800000D03*
X105210000Y-88200000D03*
X102500000Y-88200000D03*
X105210000Y-88600000D03*
X102500000Y-88600000D03*
X105210000Y-89000000D03*
X102500000Y-89000000D03*
X105210000Y-89400000D03*
X102500000Y-89400000D03*
X105210000Y-89800000D03*
X102500000Y-89800000D03*
X105210000Y-90200000D03*
X102500000Y-90200000D03*
X105210000Y-90600000D03*
X102500000Y-90600000D03*
X105210000Y-91000000D03*
X102500000Y-91000000D03*
D22*
X105210000Y-78925000D03*
X102500000Y-78925000D03*
X105210000Y-91475000D03*
X102500000Y-91475000D03*
%TD*%
D16*
%TO.C,FB2*%
X118408330Y-80813630D03*
X117729508Y-81492452D03*
%TD*%
%TO.C,C40*%
X124832654Y-89176126D03*
X124153832Y-89854948D03*
%TD*%
D27*
%TO.C,U13*%
X114422893Y-73248680D03*
X113715786Y-73955786D03*
X113008680Y-74662893D03*
X112301573Y-75370000D03*
X115837107Y-73248680D03*
X115130000Y-73955786D03*
X114422893Y-74662893D03*
X113715786Y-75370000D03*
X113008680Y-76077107D03*
X116544214Y-73955786D03*
X115837107Y-74662893D03*
X115130000Y-75370000D03*
X114422893Y-76077107D03*
X113715786Y-76784214D03*
X117251320Y-74662893D03*
X116544214Y-75370000D03*
X115837107Y-76077107D03*
X115130000Y-76784214D03*
X114422893Y-77491320D03*
X117958427Y-75370000D03*
X117251320Y-76077107D03*
X116544214Y-76784214D03*
X115837107Y-77491320D03*
X115130000Y-78198427D03*
%TD*%
D13*
%TO.C,C44*%
X121287452Y-86007452D03*
X121740000Y-86460000D03*
%TD*%
D16*
%TO.C,C24*%
X115558850Y-82401279D03*
X114880028Y-83080101D03*
%TD*%
%TO.C,C26*%
X117135333Y-83485913D03*
X116456511Y-84164735D03*
%TD*%
D11*
%TO.C,C28*%
X117410000Y-87380000D03*
X118088822Y-88058822D03*
%TD*%
D15*
%TO.C,C11*%
X120771178Y-80978822D03*
X121450000Y-80300000D03*
%TD*%
D17*
%TO.C,R18*%
X104770003Y-75279998D03*
X104770003Y-74260000D03*
%TD*%
D18*
%TO.C,C34*%
X118900000Y-84850000D03*
X118447452Y-85302548D03*
%TD*%
D15*
%TO.C,C32*%
X116181178Y-81788822D03*
X116860000Y-81110000D03*
%TD*%
D16*
%TO.C,C10*%
X124378822Y-86021178D03*
X123700000Y-86700000D03*
%TD*%
%TO.C,C9*%
X121370000Y-88870000D03*
X120691178Y-89548822D03*
%TD*%
D28*
%TO.C,C3*%
X106050000Y-75259998D03*
X106050000Y-74299998D03*
%TD*%
D10*
%TO.C,C84*%
X120931753Y-84901142D03*
X121384301Y-84448594D03*
%TD*%
D11*
%TO.C,C25*%
X114806548Y-84741178D03*
X115485370Y-85420000D03*
%TD*%
%TO.C,C31*%
X118730671Y-88690694D03*
X119409493Y-89369516D03*
%TD*%
D18*
%TO.C,C14*%
X123263571Y-84871018D03*
X122811023Y-85323566D03*
%TD*%
M02*
