%TF.GenerationSoftware,KiCad,Pcbnew,9.0.2*%
%TF.CreationDate,2025-11-14T17:05:06-08:00*%
%TF.ProjectId,pico2-nx-module,7069636f-322d-46e7-982d-6d6f64756c65,rev?*%
%TF.SameCoordinates,Original*%
%TF.FileFunction,Paste,Top*%
%TF.FilePolarity,Positive*%
%FSLAX46Y46*%
G04 Gerber Fmt 4.6, Leading zero omitted, Abs format (unit mm)*
G04 Created by KiCad (PCBNEW 9.0.2) date 2025-11-14 17:05:06*
%MOMM*%
%LPD*%
G01*
G04 APERTURE LIST*
G04 Aperture macros list*
%AMRoundRect*
0 Rectangle with rounded corners*
0 $1 Rounding radius*
0 $2 $3 $4 $5 $6 $7 $8 $9 X,Y pos of 4 corners*
0 Add a 4 corners polygon primitive as box body*
4,1,4,$2,$3,$4,$5,$6,$7,$8,$9,$2,$3,0*
0 Add four circle primitives for the rounded corners*
1,1,$1+$1,$2,$3*
1,1,$1+$1,$4,$5*
1,1,$1+$1,$6,$7*
1,1,$1+$1,$8,$9*
0 Add four rect primitives between the rounded corners*
20,1,$1+$1,$2,$3,$4,$5,0*
20,1,$1+$1,$4,$5,$6,$7,0*
20,1,$1+$1,$6,$7,$8,$9,0*
20,1,$1+$1,$8,$9,$2,$3,0*%
G04 Aperture macros list end*
%ADD10RoundRect,0.135000X0.035355X-0.226274X0.226274X-0.035355X-0.035355X0.226274X-0.226274X0.035355X0*%
%ADD11RoundRect,0.140000X0.170000X-0.140000X0.170000X0.140000X-0.170000X0.140000X-0.170000X-0.140000X0*%
%ADD12RoundRect,0.135000X0.185000X-0.135000X0.185000X0.135000X-0.185000X0.135000X-0.185000X-0.135000X0*%
%ADD13RoundRect,0.140000X-0.170000X0.140000X-0.170000X-0.140000X0.170000X-0.140000X0.170000X0.140000X0*%
%ADD14RoundRect,0.140000X0.021213X-0.219203X0.219203X-0.021213X-0.021213X0.219203X-0.219203X0.021213X0*%
%ADD15RoundRect,0.135000X-0.185000X0.135000X-0.185000X-0.135000X0.185000X-0.135000X0.185000X0.135000X0*%
%ADD16RoundRect,0.079500X-0.079500X-0.100500X0.079500X-0.100500X0.079500X0.100500X-0.079500X0.100500X0*%
%ADD17RoundRect,0.079500X-0.100500X0.079500X-0.100500X-0.079500X0.100500X-0.079500X0.100500X0.079500X0*%
%ADD18RoundRect,0.087500X0.087500X-0.250000X0.087500X0.250000X-0.087500X0.250000X-0.087500X-0.250000X0*%
%ADD19RoundRect,0.135000X-0.035355X0.226274X-0.226274X0.035355X0.035355X-0.226274X0.226274X-0.035355X0*%
%ADD20RoundRect,0.079500X-0.014849X0.127279X-0.127279X0.014849X0.014849X-0.127279X0.127279X-0.014849X0*%
%ADD21C,0.266700*%
%ADD22RoundRect,0.079500X0.014849X-0.127279X0.127279X-0.014849X-0.014849X0.127279X-0.127279X0.014849X0*%
%ADD23R,0.800000X1.800000*%
%ADD24RoundRect,0.079500X0.079500X0.100500X-0.079500X0.100500X-0.079500X-0.100500X0.079500X-0.100500X0*%
G04 APERTURE END LIST*
D10*
%TO.C,R62*%
X113510000Y-73260000D03*
X114231248Y-72538752D03*
%TD*%
D11*
%TO.C,C48*%
X101930000Y-73150000D03*
X101930000Y-72190000D03*
%TD*%
D12*
%TO.C,R33*%
X126195400Y-96215600D03*
X126195400Y-95195602D03*
%TD*%
D13*
%TO.C,C51*%
X101930002Y-74079998D03*
X101930002Y-75039998D03*
%TD*%
D14*
%TO.C,C20*%
X112190000Y-74570000D03*
X112868822Y-73891178D03*
%TD*%
D15*
%TO.C,R51*%
X127495400Y-95175604D03*
X127495400Y-96195602D03*
%TD*%
D16*
%TO.C,C18*%
X128786600Y-93015200D03*
X129476600Y-93015200D03*
%TD*%
D17*
%TO.C,C6*%
X103180000Y-75524998D03*
X103180000Y-76214998D03*
%TD*%
D12*
%TO.C,R9*%
X128795400Y-96215600D03*
X128795400Y-95195602D03*
%TD*%
D18*
%TO.C,U5*%
X104160002Y-76084997D03*
X104660002Y-76084998D03*
X105160002Y-76084997D03*
X105160002Y-74659997D03*
X104660002Y-74659996D03*
X104160002Y-74659997D03*
%TD*%
D19*
%TO.C,R78*%
X112220000Y-73170000D03*
X111498752Y-73891248D03*
%TD*%
D20*
%TO.C,C21*%
X115817904Y-77502096D03*
X115330000Y-77990000D03*
%TD*%
D21*
%TO.C,U3*%
X120691059Y-88813768D03*
X120337506Y-88460215D03*
X119983952Y-88106661D03*
X119630399Y-87753108D03*
X119276845Y-87399554D03*
X118923292Y-87046001D03*
X118569739Y-86692448D03*
X118216185Y-86338894D03*
X117862632Y-85985341D03*
X117509078Y-85631787D03*
X117155525Y-85278234D03*
X121044612Y-88460215D03*
X120691059Y-88106661D03*
X120337506Y-87753108D03*
X119983952Y-87399554D03*
X119630399Y-87046001D03*
X119276845Y-86692448D03*
X118923292Y-86338894D03*
X118569739Y-85985341D03*
X118216185Y-85631787D03*
X117862632Y-85278234D03*
X117509078Y-84924681D03*
X121398166Y-88106661D03*
X121044612Y-87753108D03*
X120691059Y-87399554D03*
X120337506Y-87046001D03*
X119983952Y-86692448D03*
X119630399Y-86338894D03*
X119276845Y-85985341D03*
X118923292Y-85631787D03*
X118569739Y-85278234D03*
X118216185Y-84924681D03*
X117862632Y-84571127D03*
X121751719Y-87753108D03*
X121398166Y-87399554D03*
X121044612Y-87046001D03*
X120691059Y-86692448D03*
X120337506Y-86338894D03*
X119983952Y-85985341D03*
X119630399Y-85631787D03*
X119276845Y-85278234D03*
X118923292Y-84924681D03*
X118569739Y-84571127D03*
X118216185Y-84217574D03*
X122105273Y-87399554D03*
X121751719Y-87046001D03*
X121398166Y-86692448D03*
X121044612Y-86338894D03*
X120691059Y-85985341D03*
X120337506Y-85631787D03*
X119983952Y-85278234D03*
X119630399Y-84924681D03*
X119276845Y-84571127D03*
X118923292Y-84217574D03*
X118569739Y-83864020D03*
X122458826Y-87046001D03*
X122105273Y-86692448D03*
X121751719Y-86338894D03*
X121398166Y-85985341D03*
X121044612Y-85631787D03*
X120691059Y-85278234D03*
X120337506Y-84924681D03*
X119983952Y-84571127D03*
X119630399Y-84217574D03*
X119276845Y-83864020D03*
X118923292Y-83510467D03*
X122812379Y-86692448D03*
X122458826Y-86338894D03*
X122105273Y-85985341D03*
X121751719Y-85631787D03*
X121398166Y-85278234D03*
X121044612Y-84924681D03*
X120691059Y-84571127D03*
X120337506Y-84217574D03*
X119983952Y-83864020D03*
X119630399Y-83510467D03*
X119276845Y-83156914D03*
X123165933Y-86338894D03*
X122812379Y-85985341D03*
X122458826Y-85631787D03*
X122105273Y-85278234D03*
X121751719Y-84924681D03*
X121398166Y-84571127D03*
X121044612Y-84217574D03*
X120691059Y-83864020D03*
X120337506Y-83510467D03*
X119983952Y-83156914D03*
X119630399Y-82803360D03*
X123519486Y-85985341D03*
X123165933Y-85631787D03*
X122812379Y-85278234D03*
X122458826Y-84924681D03*
X122105273Y-84571127D03*
X121751719Y-84217574D03*
X121398166Y-83864020D03*
X121044612Y-83510467D03*
X120691059Y-83156914D03*
X120337506Y-82803360D03*
X119983952Y-82449807D03*
X123873040Y-85631787D03*
X123519486Y-85278234D03*
X123165933Y-84924681D03*
X122812379Y-84571127D03*
X122458826Y-84217574D03*
X122105273Y-83864020D03*
X121751719Y-83510467D03*
X121398166Y-83156914D03*
X121044612Y-82803360D03*
X120691059Y-82449807D03*
X120337506Y-82096253D03*
X124226593Y-85278234D03*
X123873040Y-84924681D03*
X123519486Y-84571127D03*
X123165933Y-84217574D03*
X122812379Y-83864020D03*
X122458826Y-83510467D03*
X122105273Y-83156914D03*
X121751719Y-82803360D03*
X121398166Y-82449807D03*
X121044612Y-82096253D03*
X120691059Y-81742700D03*
%TD*%
D22*
%TO.C,C23*%
X113692322Y-75357678D03*
X114180226Y-74869774D03*
%TD*%
D23*
%TO.C,L3*%
X105070002Y-72859998D03*
X103470004Y-72859998D03*
%TD*%
D24*
%TO.C,C22*%
X117275000Y-74650000D03*
X116585000Y-74650000D03*
%TD*%
M02*
