%TF.GenerationSoftware,KiCad,Pcbnew,9.0.2*%
%TF.CreationDate,2025-11-14T17:05:06-08:00*%
%TF.ProjectId,pico2-nx-module,7069636f-322d-46e7-982d-6d6f64756c65,rev?*%
%TF.SameCoordinates,Original*%
%TF.FileFunction,Copper,L6,Bot*%
%TF.FilePolarity,Positive*%
%FSLAX46Y46*%
G04 Gerber Fmt 4.6, Leading zero omitted, Abs format (unit mm)*
G04 Created by KiCad (PCBNEW 9.0.2) date 2025-11-14 17:05:06*
%MOMM*%
%LPD*%
G01*
G04 APERTURE LIST*
G04 Aperture macros list*
%AMRoundRect*
0 Rectangle with rounded corners*
0 $1 Rounding radius*
0 $2 $3 $4 $5 $6 $7 $8 $9 X,Y pos of 4 corners*
0 Add a 4 corners polygon primitive as box body*
4,1,4,$2,$3,$4,$5,$6,$7,$8,$9,$2,$3,0*
0 Add four circle primitives for the rounded corners*
1,1,$1+$1,$2,$3*
1,1,$1+$1,$4,$5*
1,1,$1+$1,$6,$7*
1,1,$1+$1,$8,$9*
0 Add four rect primitives between the rounded corners*
20,1,$1+$1,$2,$3,$4,$5,0*
20,1,$1+$1,$4,$5,$6,$7,0*
20,1,$1+$1,$6,$7,$8,$9,0*
20,1,$1+$1,$8,$9,$2,$3,0*%
G04 Aperture macros list end*
%TA.AperFunction,SMDPad,CuDef*%
%ADD10RoundRect,0.100000X-0.021213X-0.162635X0.162635X0.021213X0.021213X0.162635X-0.162635X-0.021213X0*%
%TD*%
%TA.AperFunction,SMDPad,CuDef*%
%ADD11RoundRect,0.140000X-0.219203X-0.021213X-0.021213X-0.219203X0.219203X0.021213X0.021213X0.219203X0*%
%TD*%
%TA.AperFunction,SMDPad,CuDef*%
%ADD12RoundRect,0.100000X0.162635X-0.021213X-0.021213X0.162635X-0.162635X0.021213X0.021213X-0.162635X0*%
%TD*%
%TA.AperFunction,SMDPad,CuDef*%
%ADD13RoundRect,0.100000X-0.162635X0.021213X0.021213X-0.162635X0.162635X-0.021213X-0.021213X0.162635X0*%
%TD*%
%TA.AperFunction,SMDPad,CuDef*%
%ADD14RoundRect,0.140000X0.219203X0.021213X0.021213X0.219203X-0.219203X-0.021213X-0.021213X-0.219203X0*%
%TD*%
%TA.AperFunction,SMDPad,CuDef*%
%ADD15RoundRect,0.140000X0.021213X-0.219203X0.219203X-0.021213X-0.021213X0.219203X-0.219203X0.021213X0*%
%TD*%
%TA.AperFunction,SMDPad,CuDef*%
%ADD16RoundRect,0.140000X-0.021213X0.219203X-0.219203X0.021213X0.021213X-0.219203X0.219203X-0.021213X0*%
%TD*%
%TA.AperFunction,SMDPad,CuDef*%
%ADD17RoundRect,0.135000X0.185000X-0.135000X0.185000X0.135000X-0.185000X0.135000X-0.185000X-0.135000X0*%
%TD*%
%TA.AperFunction,SMDPad,CuDef*%
%ADD18RoundRect,0.100000X0.021213X0.162635X-0.162635X-0.021213X-0.021213X-0.162635X0.162635X0.021213X0*%
%TD*%
%TA.AperFunction,SMDPad,CuDef*%
%ADD19RoundRect,0.125000X0.125000X-0.250000X0.125000X0.250000X-0.125000X0.250000X-0.125000X-0.250000X0*%
%TD*%
%TA.AperFunction,HeatsinkPad*%
%ADD20R,4.300000X3.400000*%
%TD*%
%TA.AperFunction,SMDPad,CuDef*%
%ADD21R,0.660000X0.230000*%
%TD*%
%TA.AperFunction,SMDPad,CuDef*%
%ADD22R,0.660000X0.350000*%
%TD*%
%TA.AperFunction,SMDPad,CuDef*%
%ADD23C,0.500000*%
%TD*%
%TA.AperFunction,SMDPad,CuDef*%
%ADD24RoundRect,0.135000X0.135000X0.185000X-0.135000X0.185000X-0.135000X-0.185000X0.135000X-0.185000X0*%
%TD*%
%TA.AperFunction,SMDPad,CuDef*%
%ADD25RoundRect,0.135000X-0.185000X0.135000X-0.185000X-0.135000X0.185000X-0.135000X0.185000X0.135000X0*%
%TD*%
%TA.AperFunction,SMDPad,CuDef*%
%ADD26RoundRect,0.135000X-0.135000X-0.185000X0.135000X-0.185000X0.135000X0.185000X-0.135000X0.185000X0*%
%TD*%
%TA.AperFunction,BGAPad,CuDef*%
%ADD27C,0.320000*%
%TD*%
%TA.AperFunction,SMDPad,CuDef*%
%ADD28RoundRect,0.140000X0.170000X-0.140000X0.170000X0.140000X-0.170000X0.140000X-0.170000X-0.140000X0*%
%TD*%
%TA.AperFunction,ViaPad*%
%ADD29C,0.254000*%
%TD*%
%TA.AperFunction,ViaPad*%
%ADD30C,0.508000*%
%TD*%
%TA.AperFunction,Conductor*%
%ADD31C,0.156464*%
%TD*%
%TA.AperFunction,Conductor*%
%ADD32C,0.254000*%
%TD*%
%TA.AperFunction,Conductor*%
%ADD33C,0.203200*%
%TD*%
%TA.AperFunction,Conductor*%
%ADD34C,0.381000*%
%TD*%
%TA.AperFunction,Conductor*%
%ADD35C,0.127000*%
%TD*%
%TA.AperFunction,Conductor*%
%ADD36C,0.076200*%
%TD*%
%TA.AperFunction,Conductor*%
%ADD37C,0.304800*%
%TD*%
%TA.AperFunction,Conductor*%
%ADD38C,0.508000*%
%TD*%
%TA.AperFunction,Conductor*%
%ADD39C,0.103378*%
%TD*%
G04 APERTURE END LIST*
D10*
%TO.P,C47,1*%
%TO.N,P1VD_FPGA*%
X118097452Y-83652548D03*
%TO.P,C47,2*%
%TO.N,GND*%
X118550000Y-83200000D03*
%TD*%
D11*
%TO.P,FB7,1,1*%
%TO.N,P1VD_FPGA*%
X116752356Y-88042356D03*
%TO.P,FB7,2,2*%
%TO.N,Net-(U3G-VCCDPHY1)*%
X117431178Y-88721178D03*
%TD*%
D12*
%TO.P,C33,1*%
%TO.N,Net-(U3F-VCCPLLDPHY0)*%
X117642548Y-85642548D03*
%TO.P,C33,2*%
%TO.N,GND*%
X117190000Y-85190000D03*
%TD*%
%TO.P,C36,1*%
%TO.N,Net-(U3G-VCCDPHY1)*%
X120542548Y-87972548D03*
%TO.P,C36,2*%
%TO.N,GND*%
X120090000Y-87520000D03*
%TD*%
D11*
%TO.P,FB9,1,1*%
%TO.N,P1V8D_FPGA*%
X119060000Y-80150000D03*
%TO.P,FB9,2,2*%
%TO.N,Net-(U3H-VCCAUXH5)*%
X119738822Y-80828822D03*
%TD*%
D12*
%TO.P,C45,1*%
%TO.N,P1V8D_FPGA*%
X122162548Y-83912548D03*
%TO.P,C45,2*%
%TO.N,GND*%
X121710000Y-83460000D03*
%TD*%
D13*
%TO.P,C38,1*%
%TO.N,GND*%
X118890000Y-87720000D03*
%TO.P,C38,2*%
%TO.N,Net-(U3G-VCCADPHY1)*%
X119342548Y-88172548D03*
%TD*%
D14*
%TO.P,C27,1*%
%TO.N,Net-(U3G-VCCPLLDPHY1)*%
X116790000Y-86720000D03*
%TO.P,C27,2*%
%TO.N,GND*%
X116111178Y-86041178D03*
%TD*%
D15*
%TO.P,C41,1*%
%TO.N,P1V8D_FPGA*%
X122140000Y-82350000D03*
%TO.P,C41,2*%
%TO.N,GND*%
X122818822Y-81671178D03*
%TD*%
D16*
%TO.P,FB4,1,1*%
%TO.N,P1VD_FPGA*%
X116473614Y-82848658D03*
%TO.P,FB4,2,2*%
%TO.N,Net-(U3F-VCCDPHY0)*%
X115794792Y-83527480D03*
%TD*%
D13*
%TO.P,C12,1*%
%TO.N,P3V3D_FPGA*%
X120596893Y-86679231D03*
%TO.P,C12,2*%
%TO.N,GND*%
X121049441Y-87131779D03*
%TD*%
D10*
%TO.P,C76,1*%
%TO.N,/FPGA/PVCCAUX*%
X122697452Y-86492548D03*
%TO.P,C76,2*%
%TO.N,GND*%
X123150000Y-86040000D03*
%TD*%
D11*
%TO.P,FB5,1,1*%
%TO.N,P1V8D_FPGA*%
X118060000Y-89360000D03*
%TO.P,FB5,2,2*%
%TO.N,Net-(U3G-VCCADPHY1)*%
X118738822Y-90038822D03*
%TD*%
D17*
%TO.P,R8,1*%
%TO.N,Net-(U5-PG)*%
X103580001Y-75279997D03*
%TO.P,R8,2*%
%TO.N,P1VD_FPGA*%
X103580001Y-74259999D03*
%TD*%
D18*
%TO.P,C15,1*%
%TO.N,PVIO5_FPGA*%
X120770000Y-83140000D03*
%TO.P,C15,2*%
%TO.N,GND*%
X120317452Y-83592548D03*
%TD*%
%TO.P,C83,1*%
%TO.N,/FPGA/PVCCAUX*%
X122992548Y-87237452D03*
%TO.P,C83,2*%
%TO.N,GND*%
X122540000Y-87690000D03*
%TD*%
D10*
%TO.P,C13,1*%
%TO.N,PVIO1_FPGA*%
X121740000Y-87520000D03*
%TO.P,C13,2*%
%TO.N,GND*%
X122192548Y-87067452D03*
%TD*%
D15*
%TO.P,C7,1*%
%TO.N,PVIO5_FPGA*%
X121450000Y-81660000D03*
%TO.P,C7,2*%
%TO.N,GND*%
X122128822Y-80981178D03*
%TD*%
D10*
%TO.P,C46,1*%
%TO.N,Net-(U3H-VCCAUXH5)*%
X119907452Y-82362548D03*
%TO.P,C46,2*%
%TO.N,GND*%
X120360000Y-81910000D03*
%TD*%
D16*
%TO.P,C43,1*%
%TO.N,/FPGA/PVCCAUX*%
X124173832Y-88524948D03*
%TO.P,C43,2*%
%TO.N,GND*%
X123495010Y-89203770D03*
%TD*%
D14*
%TO.P,C39,1*%
%TO.N,P1VD_FPGA*%
X117777181Y-82866494D03*
%TO.P,C39,2*%
%TO.N,GND*%
X117098359Y-82187672D03*
%TD*%
D11*
%TO.P,C29,1*%
%TO.N,P1V8D_FPGA*%
X122831178Y-83001178D03*
%TO.P,C29,2*%
%TO.N,GND*%
X123510000Y-83680000D03*
%TD*%
D14*
%TO.P,FB6,1,1*%
%TO.N,P1VD_FPGA*%
X116132096Y-87420561D03*
%TO.P,FB6,2,2*%
%TO.N,Net-(U3G-VCCPLLDPHY1)*%
X115453274Y-86741739D03*
%TD*%
%TO.P,C42,1*%
%TO.N,Net-(U3H-VCCAUXH5)*%
X120378822Y-80148822D03*
%TO.P,C42,2*%
%TO.N,GND*%
X119700000Y-79470000D03*
%TD*%
D13*
%TO.P,C37,1*%
%TO.N,GND*%
X119069955Y-82697873D03*
%TO.P,C37,2*%
%TO.N,Net-(U3F-VCCADPHY0)*%
X119522503Y-83150421D03*
%TD*%
D19*
%TO.P,U4,1,~{CS}*%
%TO.N,/FPGA/FLASH_CSn*%
X128805400Y-98408985D03*
%TO.P,U4,2,DO(IO1)*%
%TO.N,/FPGA/MISO*%
X127535400Y-98408985D03*
%TO.P,U4,3,IO2*%
%TO.N,/FPGA/SD2*%
X126265400Y-98408985D03*
%TO.P,U4,4,GND*%
%TO.N,GND*%
X124995400Y-98408985D03*
%TO.P,U4,5,DI(IO0)*%
%TO.N,/FPGA/MOSI*%
X124995400Y-93008985D03*
%TO.P,U4,6,CLK*%
%TO.N,/FPGA/SCLK*%
X126265400Y-93008985D03*
%TO.P,U4,7,IO3*%
%TO.N,/FPGA/SD3*%
X127535400Y-93008985D03*
%TO.P,U4,8,VCC*%
%TO.N,P3V3D_FPGA*%
X128805400Y-93008985D03*
D20*
%TO.P,U4,9*%
%TO.N,N/C*%
X126900400Y-95708985D03*
%TD*%
D21*
%TO.P,J2,1,Pin_1*%
%TO.N,/FPGA/PB58N*%
X134410000Y-79400000D03*
%TO.P,J2,2,Pin_2*%
%TO.N,/FPGA/PB16P*%
X131700000Y-79400000D03*
%TO.P,J2,3,Pin_3*%
%TO.N,/FPGA/PB58P*%
X134410000Y-79800000D03*
%TO.P,J2,4,Pin_4*%
%TO.N,/FPGA/PB16N*%
X131700000Y-79800000D03*
%TO.P,J2,5,Pin_5*%
%TO.N,GND*%
X134410000Y-80200000D03*
%TO.P,J2,6,Pin_6*%
X131700000Y-80200000D03*
%TO.P,J2,7,Pin_7*%
%TO.N,/FPGA/PB60N*%
X134410000Y-80600000D03*
%TO.P,J2,8,Pin_8*%
%TO.N,/FPGA/PB18P*%
X131700000Y-80600000D03*
%TO.P,J2,9,Pin_9*%
%TO.N,/FPGA/PB60P*%
X134410000Y-81000000D03*
%TO.P,J2,10,Pin_10*%
%TO.N,/FPGA/PB18N*%
X131700000Y-81000000D03*
%TO.P,J2,11,Pin_11*%
%TO.N,GND*%
X134410000Y-81400000D03*
%TO.P,J2,12,Pin_12*%
X131700000Y-81400000D03*
%TO.P,J2,13,Pin_13*%
%TO.N,/FPGA/PB56P*%
X134410000Y-81800000D03*
%TO.P,J2,14,Pin_14*%
%TO.N,/FPGA/PB20P*%
X131700000Y-81800000D03*
%TO.P,J2,15,Pin_15*%
%TO.N,/FPGA/PB56N*%
X134410000Y-82200000D03*
%TO.P,J2,16,Pin_16*%
%TO.N,/FPGA/PB20N*%
X131700000Y-82200000D03*
%TO.P,J2,17,Pin_17*%
%TO.N,GND*%
X134410000Y-82600000D03*
%TO.P,J2,18,Pin_18*%
X131700000Y-82600000D03*
%TO.P,J2,19,Pin_19*%
%TO.N,/FPGA/PB62P*%
X134410000Y-83000000D03*
%TO.P,J2,20,Pin_20*%
%TO.N,/FPGA/PB26P*%
X131700000Y-83000000D03*
%TO.P,J2,21,Pin_21*%
%TO.N,/FPGA/PB62N*%
X134410000Y-83400000D03*
%TO.P,J2,22,Pin_22*%
%TO.N,/FPGA/PB26N*%
X131700000Y-83400000D03*
%TO.P,J2,23,Pin_23*%
%TO.N,GND*%
X134410000Y-83800000D03*
%TO.P,J2,24,Pin_24*%
X131700000Y-83800000D03*
%TO.P,J2,25,Pin_25*%
%TO.N,/FPGA/PB64N*%
X134410000Y-84200000D03*
%TO.P,J2,26,Pin_26*%
%TO.N,/FPGA/PB30N*%
X131700000Y-84200000D03*
%TO.P,J2,27,Pin_27*%
%TO.N,/FPGA/PB64P*%
X134410000Y-84600000D03*
%TO.P,J2,28,Pin_28*%
%TO.N,/FPGA/PB30P*%
X131700000Y-84600000D03*
%TO.P,J2,29,Pin_29*%
%TO.N,GND*%
X134410000Y-85000000D03*
%TO.P,J2,30,Pin_30*%
X131700000Y-85000000D03*
%TO.P,J2,31,Pin_31*%
%TO.N,/FPGA/PB66N*%
X134410000Y-85400000D03*
%TO.P,J2,32,Pin_32*%
%TO.N,/FPGA/PB28N*%
X131700000Y-85400000D03*
%TO.P,J2,33,Pin_33*%
%TO.N,/FPGA/PB66P*%
X134410000Y-85800000D03*
%TO.P,J2,34,Pin_34*%
%TO.N,/FPGA/PB28P*%
X131700000Y-85800000D03*
%TO.P,J2,35,Pin_35*%
%TO.N,GND*%
X134410000Y-86200000D03*
%TO.P,J2,36,Pin_36*%
X131700000Y-86200000D03*
%TO.P,J2,37,Pin_37*%
%TO.N,/FPGA/PB68N*%
X134410000Y-86600000D03*
%TO.P,J2,38,Pin_38*%
%TO.N,/FPGA/PB22N*%
X131700000Y-86600000D03*
%TO.P,J2,39,Pin_39*%
%TO.N,/FPGA/PB68P*%
X134410000Y-87000000D03*
%TO.P,J2,40,Pin_40*%
%TO.N,/FPGA/PB22P*%
X131700000Y-87000000D03*
%TO.P,J2,41,Pin_41*%
%TO.N,GND*%
X134410000Y-87400000D03*
%TO.P,J2,42,Pin_42*%
X131700000Y-87400000D03*
%TO.P,J2,43,Pin_43*%
%TO.N,/FPGA/PB70P*%
X134410000Y-87800000D03*
%TO.P,J2,44,Pin_44*%
%TO.N,/FPGA/PB24P*%
X131700000Y-87800000D03*
%TO.P,J2,45,Pin_45*%
%TO.N,/FPGA/PB70N*%
X134410000Y-88200000D03*
%TO.P,J2,46,Pin_46*%
%TO.N,/FPGA/PB24N*%
X131700000Y-88200000D03*
%TO.P,J2,47,Pin_47*%
%TO.N,GND*%
X134410000Y-88600000D03*
%TO.P,J2,48,Pin_48*%
X131700000Y-88600000D03*
%TO.P,J2,49,Pin_49*%
%TO.N,/FPGA/PR13N*%
X134410000Y-89000000D03*
%TO.P,J2,50,Pin_50*%
%TO.N,/FPGA/PB52B*%
X131700000Y-89000000D03*
%TO.P,J2,51,Pin_51*%
%TO.N,/FPGA/PR13P*%
X134410000Y-89400000D03*
%TO.P,J2,52,Pin_52*%
%TO.N,/FPGA/PB52A*%
X131700000Y-89400000D03*
%TO.P,J2,53,Pin_53*%
%TO.N,GND*%
X134410000Y-89800000D03*
%TO.P,J2,54,Pin_54*%
%TO.N,/FPGA/PB50B*%
X131700000Y-89800000D03*
%TO.P,J2,55,Pin_55*%
%TO.N,/FPGA/PR11N*%
X134410000Y-90200000D03*
%TO.P,J2,56,Pin_56*%
%TO.N,/FPGA/PB50A*%
X131700000Y-90200000D03*
%TO.P,J2,57,Pin_57*%
%TO.N,/FPGA/PR11P*%
X134410000Y-90600000D03*
%TO.P,J2,58,Pin_58*%
%TO.N,unconnected-(J2-Pin_58-Pad58)*%
X131700000Y-90600000D03*
%TO.P,J2,59,Pin_59*%
%TO.N,GND*%
X134410000Y-91000000D03*
%TO.P,J2,60,Pin_60*%
X131700000Y-91000000D03*
D22*
%TO.P,J2,61*%
%TO.N,N/C*%
X134410000Y-78925000D03*
%TO.P,J2,62*%
X131700000Y-78925000D03*
%TO.P,J2,63*%
X134410000Y-91475000D03*
%TO.P,J2,64*%
X131700000Y-91475000D03*
%TD*%
D15*
%TO.P,FB8,1,1*%
%TO.N,P1V8D_FPGA*%
X122844312Y-88537778D03*
%TO.P,FB8,2,2*%
%TO.N,/FPGA/PVCCAUX*%
X123523134Y-87858956D03*
%TD*%
D23*
%TO.P,FID6,*%
%TO.N,*%
X133000000Y-73000000D03*
%TD*%
D12*
%TO.P,C81,1*%
%TO.N,P1VD_FPGA*%
X120100000Y-84550000D03*
%TO.P,C81,2*%
%TO.N,GND*%
X119647452Y-84097452D03*
%TD*%
D24*
%TO.P,R12,1*%
%TO.N,Net-(U3B-PR9B)*%
X118500000Y-92550000D03*
%TO.P,R12,2*%
%TO.N,/FPGA/PR9B*%
X117480002Y-92550000D03*
%TD*%
D25*
%TO.P,R3,1*%
%TO.N,Net-(U3A-PT59A{slash}MCLK{slash}PCLKT0_0)*%
X124450000Y-90980002D03*
%TO.P,R3,2*%
%TO.N,/FPGA/SCLK*%
X124450000Y-92000000D03*
%TD*%
D23*
%TO.P,FID5,*%
%TO.N,*%
X103000000Y-97000000D03*
%TD*%
D15*
%TO.P,C8,1*%
%TO.N,P3V3D_FPGA*%
X119410000Y-90830000D03*
%TO.P,C8,2*%
%TO.N,GND*%
X120088822Y-90151178D03*
%TD*%
D11*
%TO.P,FB3,1,1*%
%TO.N,P1VD_FPGA*%
X114126820Y-85428319D03*
%TO.P,FB3,2,2*%
%TO.N,Net-(U3F-VCCPLLDPHY0)*%
X114805642Y-86107141D03*
%TD*%
D26*
%TO.P,R26,1*%
%TO.N,GND*%
X103170006Y-76199998D03*
%TO.P,R26,2*%
%TO.N,Net-(U5-FB)*%
X104190004Y-76199998D03*
%TD*%
D15*
%TO.P,C30,1*%
%TO.N,GND*%
X118380877Y-82203923D03*
%TO.P,C30,2*%
%TO.N,Net-(U3F-VCCADPHY0)*%
X119059699Y-81525101D03*
%TD*%
D23*
%TO.P,FID7,*%
%TO.N,*%
X133000000Y-97000000D03*
%TD*%
D12*
%TO.P,C35,1*%
%TO.N,Net-(U3G-VCCPLLDPHY1)*%
X119622548Y-86452548D03*
%TO.P,C35,2*%
%TO.N,GND*%
X119170000Y-86000000D03*
%TD*%
D21*
%TO.P,J3,1,Pin_1*%
%TO.N,/FPGA/SHUTDOWNn*%
X105210000Y-79400000D03*
%TO.P,J3,2,Pin_2*%
%TO.N,GND*%
X102500000Y-79400000D03*
%TO.P,J3,3,Pin_3*%
%TO.N,P5VD_AON*%
X105210000Y-79800000D03*
%TO.P,J3,4,Pin_4*%
%TO.N,/FPGA/DPHY0.D0-*%
X102500000Y-79800000D03*
%TO.P,J3,5,Pin_5*%
%TO.N,PVIO5_FPGA*%
X105210000Y-80200000D03*
%TO.P,J3,6,Pin_6*%
%TO.N,/FPGA/DPHY0.D0+*%
X102500000Y-80200000D03*
%TO.P,J3,7,Pin_7*%
%TO.N,P1V8D_FPGA*%
X105210000Y-80600000D03*
%TO.P,J3,8,Pin_8*%
%TO.N,GND*%
X102500000Y-80600000D03*
%TO.P,J3,9,Pin_9*%
%TO.N,PVIO3_FPGA*%
X105210000Y-81000000D03*
%TO.P,J3,10,Pin_10*%
%TO.N,/FPGA/DPHY0.D1-*%
X102500000Y-81000000D03*
%TO.P,J3,11,Pin_11*%
%TO.N,PVIO1_FPGA*%
X105210000Y-81400000D03*
%TO.P,J3,12,Pin_12*%
%TO.N,/FPGA/DPHY0.D1+*%
X102500000Y-81400000D03*
%TO.P,J3,13,Pin_13*%
%TO.N,P3V3D_FPGA*%
X105210000Y-81800000D03*
%TO.P,J3,14,Pin_14*%
%TO.N,GND*%
X102500000Y-81800000D03*
%TO.P,J3,15,Pin_15*%
%TO.N,/FPGA/FPGA_EN*%
X105210000Y-82200000D03*
%TO.P,J3,16,Pin_16*%
%TO.N,/FPGA/DPHY0.CLK-*%
X102500000Y-82200000D03*
%TO.P,J3,17,Pin_17*%
%TO.N,/FPGA/PT57A*%
X105210000Y-82600000D03*
%TO.P,J3,18,Pin_18*%
%TO.N,/FPGA/DPHY0.CLK+*%
X102500000Y-82600000D03*
%TO.P,J3,19,Pin_19*%
%TO.N,/FPGA/PR9B*%
X105210000Y-83000000D03*
%TO.P,J3,20,Pin_20*%
%TO.N,GND*%
X102500000Y-83000000D03*
%TO.P,J3,21,Pin_21*%
%TO.N,/FPGA/PT65B*%
X105210000Y-83400000D03*
%TO.P,J3,22,Pin_22*%
%TO.N,/FPGA/DPHY0.D2-*%
X102500000Y-83400000D03*
%TO.P,J3,23,Pin_23*%
%TO.N,/FPGA/PROGRAMn*%
X105210000Y-83800000D03*
%TO.P,J3,24,Pin_24*%
%TO.N,/FPGA/DPHY0.D2+*%
X102500000Y-83800000D03*
%TO.P,J3,25,Pin_25*%
%TO.N,/FPGA/DONE*%
X105210000Y-84200000D03*
%TO.P,J3,26,Pin_26*%
%TO.N,GND*%
X102500000Y-84200000D03*
%TO.P,J3,27,Pin_27*%
%TO.N,/FPGA/MOSI*%
X105210000Y-84600000D03*
%TO.P,J3,28,Pin_28*%
%TO.N,/FPGA/DPHY0.D3-*%
X102500000Y-84600000D03*
%TO.P,J3,29,Pin_29*%
%TO.N,/FPGA/SCLK*%
X105210000Y-85000000D03*
%TO.P,J3,30,Pin_30*%
%TO.N,/FPGA/DPHY0.D3+*%
X102500000Y-85000000D03*
%TO.P,J3,31,Pin_31*%
%TO.N,/FPGA/TDI*%
X105210000Y-85400000D03*
%TO.P,J3,32,Pin_32*%
%TO.N,GND*%
X102500000Y-85400000D03*
%TO.P,J3,33,Pin_33*%
%TO.N,/FPGA/TDO*%
X105210000Y-85800000D03*
%TO.P,J3,34,Pin_34*%
%TO.N,/FPGA/DPHY1.D3+*%
X102500000Y-85800000D03*
%TO.P,J3,35,Pin_35*%
%TO.N,/FPGA/SD3*%
X105210000Y-86200000D03*
%TO.P,J3,36,Pin_36*%
%TO.N,/FPGA/DPHY1.D3-*%
X102500000Y-86200000D03*
%TO.P,J3,37,Pin_37*%
%TO.N,/FPGA/TMS*%
X105210000Y-86600000D03*
%TO.P,J3,38,Pin_38*%
%TO.N,GND*%
X102500000Y-86600000D03*
%TO.P,J3,39,Pin_39*%
%TO.N,/FPGA/JTAG_EN*%
X105210000Y-87000000D03*
%TO.P,J3,40,Pin_40*%
%TO.N,/FPGA/DPHY1.D2+*%
X102500000Y-87000000D03*
%TO.P,J3,41,Pin_41*%
%TO.N,/FPGA/TCK*%
X105210000Y-87400000D03*
%TO.P,J3,42,Pin_42*%
%TO.N,/FPGA/DPHY1.D2-*%
X102500000Y-87400000D03*
%TO.P,J3,43,Pin_43*%
%TO.N,/FPGA/FLASH_CSn*%
X105210000Y-87800000D03*
%TO.P,J3,44,Pin_44*%
%TO.N,GND*%
X102500000Y-87800000D03*
%TO.P,J3,45,Pin_45*%
%TO.N,/FPGA/MISO*%
X105210000Y-88200000D03*
%TO.P,J3,46,Pin_46*%
%TO.N,/FPGA/DPHY1.CLK+*%
X102500000Y-88200000D03*
%TO.P,J3,47,Pin_47*%
%TO.N,/FPGA/SD2*%
X105210000Y-88600000D03*
%TO.P,J3,48,Pin_48*%
%TO.N,/FPGA/DPHY1.CLK-*%
X102500000Y-88600000D03*
%TO.P,J3,49,Pin_49*%
%TO.N,GND*%
X105210000Y-89000000D03*
%TO.P,J3,50,Pin_50*%
X102500000Y-89000000D03*
%TO.P,J3,51,Pin_51*%
%TO.N,/FPGA/PT67P*%
X105210000Y-89400000D03*
%TO.P,J3,52,Pin_52*%
%TO.N,/FPGA/DPHY1.D1+*%
X102500000Y-89400000D03*
%TO.P,J3,53,Pin_53*%
%TO.N,/FPGA/PT67N*%
X105210000Y-89800000D03*
%TO.P,J3,54,Pin_54*%
%TO.N,/FPGA/DPHY1.D1-*%
X102500000Y-89800000D03*
%TO.P,J3,55,Pin_55*%
%TO.N,GND*%
X105210000Y-90200000D03*
%TO.P,J3,56,Pin_56*%
X102500000Y-90200000D03*
%TO.P,J3,57,Pin_57*%
%TO.N,/FPGA/PR7P*%
X105210000Y-90600000D03*
%TO.P,J3,58,Pin_58*%
%TO.N,/FPGA/DPHY1.D0+*%
X102500000Y-90600000D03*
%TO.P,J3,59,Pin_59*%
%TO.N,/FPGA/PR7N*%
X105210000Y-91000000D03*
%TO.P,J3,60,Pin_60*%
%TO.N,/FPGA/DPHY1.D0-*%
X102500000Y-91000000D03*
D22*
%TO.P,J3,61*%
%TO.N,N/C*%
X105210000Y-78925000D03*
%TO.P,J3,62*%
X102500000Y-78925000D03*
%TO.P,J3,63*%
X105210000Y-91475000D03*
%TO.P,J3,64*%
X102500000Y-91475000D03*
%TD*%
D16*
%TO.P,FB2,1,1*%
%TO.N,P1V8D_FPGA*%
X118408330Y-80813630D03*
%TO.P,FB2,2,2*%
%TO.N,Net-(U3F-VCCADPHY0)*%
X117729508Y-81492452D03*
%TD*%
%TO.P,C40,1*%
%TO.N,/FPGA/PVCCAUX*%
X124832654Y-89176126D03*
%TO.P,C40,2*%
%TO.N,GND*%
X124153832Y-89854948D03*
%TD*%
D27*
%TO.P,U13,A2,RFU_1*%
%TO.N,unconnected-(U13-RFU_1-PadA2)*%
X114422893Y-73248680D03*
%TO.P,U13,A3,CS#*%
%TO.N,/FPGA/SRAM_CEN*%
X113715786Y-73955786D03*
%TO.P,U13,A4,RESET#*%
%TO.N,/FPGA/SRAM_RSTn*%
X113008680Y-74662893D03*
%TO.P,U13,A5,RFU_2*%
%TO.N,unconnected-(U13-RFU_2-PadA5)*%
X112301573Y-75370000D03*
%TO.P,U13,B1,CK#*%
%TO.N,/FPGA/SRAM_CLK_N*%
X115837107Y-73248680D03*
%TO.P,U13,B2,CK*%
%TO.N,/FPGA/SRAM_CLK_P*%
X115130000Y-73955786D03*
%TO.P,U13,B3,VSS*%
%TO.N,GND*%
X114422893Y-74662893D03*
%TO.P,U13,B4,VCC*%
%TO.N,P1V8D_FPGA*%
X113715786Y-75370000D03*
%TO.P,U13,B5,RFU_3*%
%TO.N,unconnected-(U13-RFU_3-PadB5)*%
X113008680Y-76077107D03*
%TO.P,U13,C1,VSSQ_1*%
%TO.N,GND*%
X116544214Y-73955786D03*
%TO.P,U13,C2,RFU_4*%
%TO.N,unconnected-(U13-RFU_4-PadC2)*%
X115837107Y-74662893D03*
%TO.P,U13,C3,RWDS*%
%TO.N,/FPGA/SRAM_RW*%
X115130000Y-75370000D03*
%TO.P,U13,C4,DQ2*%
%TO.N,/FPGA/SRAM_DQ2*%
X114422893Y-76077107D03*
%TO.P,U13,C5,RFU_5*%
%TO.N,unconnected-(U13-RFU_5-PadC5)*%
X113715786Y-76784214D03*
%TO.P,U13,D1,VCCQ_1*%
%TO.N,P1V8D_FPGA*%
X117251320Y-74662893D03*
%TO.P,U13,D2,DQ1*%
%TO.N,/FPGA/SRAM_DQ1*%
X116544214Y-75370000D03*
%TO.P,U13,D3,DQ0*%
%TO.N,/FPGA/SRAM_DQ0*%
X115837107Y-76077107D03*
%TO.P,U13,D4,DQ3*%
%TO.N,/FPGA/SRAM_DQ3*%
X115130000Y-76784214D03*
%TO.P,U13,D5,DQ4*%
%TO.N,/FPGA/SRAM_DQ4*%
X114422893Y-77491320D03*
%TO.P,U13,E1,DQ7*%
%TO.N,/FPGA/SRAM_DQ7*%
X117958427Y-75370000D03*
%TO.P,U13,E2,DQ6*%
%TO.N,/FPGA/SRAM_DQ6*%
X117251320Y-76077107D03*
%TO.P,U13,E3,DQ5*%
%TO.N,/FPGA/SRAM_DQ5*%
X116544214Y-76784214D03*
%TO.P,U13,E4,VCCQ_2*%
%TO.N,P1V8D_FPGA*%
X115837107Y-77491320D03*
%TO.P,U13,E5,VSSQ_2*%
%TO.N,GND*%
X115130000Y-78198427D03*
%TD*%
D13*
%TO.P,C44,1*%
%TO.N,P1VD_FPGA*%
X121287452Y-86007452D03*
%TO.P,C44,2*%
%TO.N,GND*%
X121740000Y-86460000D03*
%TD*%
D16*
%TO.P,C24,1*%
%TO.N,P1VD_FPGA*%
X115558850Y-82401279D03*
%TO.P,C24,2*%
%TO.N,GND*%
X114880028Y-83080101D03*
%TD*%
%TO.P,C26,1*%
%TO.N,Net-(U3F-VCCDPHY0)*%
X117135333Y-83485913D03*
%TO.P,C26,2*%
%TO.N,GND*%
X116456511Y-84164735D03*
%TD*%
D11*
%TO.P,C28,1*%
%TO.N,Net-(U3G-VCCDPHY1)*%
X117410000Y-87380000D03*
%TO.P,C28,2*%
%TO.N,GND*%
X118088822Y-88058822D03*
%TD*%
D15*
%TO.P,C11,1*%
%TO.N,PVIO5_FPGA*%
X120771178Y-80978822D03*
%TO.P,C11,2*%
%TO.N,GND*%
X121450000Y-80300000D03*
%TD*%
D17*
%TO.P,R18,1*%
%TO.N,Net-(U5-FB)*%
X104770003Y-75279998D03*
%TO.P,R18,2*%
%TO.N,P1VD_FPGA*%
X104770003Y-74260000D03*
%TD*%
D18*
%TO.P,C34,1*%
%TO.N,Net-(U3F-VCCDPHY0)*%
X118900000Y-84850000D03*
%TO.P,C34,2*%
%TO.N,GND*%
X118447452Y-85302548D03*
%TD*%
D15*
%TO.P,C32,1*%
%TO.N,P1VD_FPGA*%
X116181178Y-81788822D03*
%TO.P,C32,2*%
%TO.N,GND*%
X116860000Y-81110000D03*
%TD*%
D16*
%TO.P,C10,1*%
%TO.N,PVIO3_FPGA*%
X124378822Y-86021178D03*
%TO.P,C10,2*%
%TO.N,GND*%
X123700000Y-86700000D03*
%TD*%
%TO.P,C9,1*%
%TO.N,PVIO1_FPGA*%
X121370000Y-88870000D03*
%TO.P,C9,2*%
%TO.N,GND*%
X120691178Y-89548822D03*
%TD*%
D28*
%TO.P,C3,1*%
%TO.N,P5VD_AON*%
X106050000Y-75259998D03*
%TO.P,C3,2*%
%TO.N,GND*%
X106050000Y-74299998D03*
%TD*%
D10*
%TO.P,C84,1*%
%TO.N,/FPGA/PVCCAUX*%
X120931753Y-84901142D03*
%TO.P,C84,2*%
%TO.N,GND*%
X121384301Y-84448594D03*
%TD*%
D11*
%TO.P,C25,1*%
%TO.N,Net-(U3F-VCCPLLDPHY0)*%
X114806548Y-84741178D03*
%TO.P,C25,2*%
%TO.N,GND*%
X115485370Y-85420000D03*
%TD*%
%TO.P,C31,1*%
%TO.N,GND*%
X118730671Y-88690694D03*
%TO.P,C31,2*%
%TO.N,Net-(U3G-VCCADPHY1)*%
X119409493Y-89369516D03*
%TD*%
D18*
%TO.P,C14,1*%
%TO.N,PVIO3_FPGA*%
X123263571Y-84871018D03*
%TO.P,C14,2*%
%TO.N,GND*%
X122811023Y-85323566D03*
%TD*%
D29*
%TO.N,GND*%
X101788460Y-90194400D03*
D30*
X106060000Y-73510000D03*
D29*
X103188460Y-87794400D03*
X133410000Y-82600000D03*
D30*
X121250000Y-73810000D03*
D29*
X103200000Y-85000000D03*
X122812379Y-85278234D03*
X101788460Y-84194400D03*
X103188460Y-84194400D03*
X103835812Y-81362184D03*
X116610000Y-74650000D03*
X123900000Y-74900000D03*
X123900000Y-83300000D03*
X100670000Y-77860000D03*
X105700000Y-89000000D03*
X107400000Y-92506850D03*
X133410000Y-83800000D03*
D30*
X124188800Y-98196800D03*
D29*
X118923292Y-83510467D03*
X123900000Y-82100000D03*
X100658378Y-79920000D03*
X121398166Y-84571127D03*
X106040000Y-78810000D03*
X133420000Y-91000000D03*
X101750000Y-78890000D03*
X119983952Y-86692447D03*
D30*
X102620000Y-75040000D03*
D29*
X100680000Y-81130000D03*
X120337505Y-83510467D03*
X121751719Y-86338894D03*
X133420000Y-86200000D03*
D30*
X105270000Y-77360000D03*
D29*
X104416814Y-90162715D03*
D30*
X130259400Y-93497800D03*
D29*
X133410000Y-85000000D03*
X120621178Y-89516439D03*
X103084000Y-82237666D03*
X123900000Y-77300000D03*
X123900000Y-73700000D03*
X101788460Y-91394400D03*
D30*
X125340768Y-91300000D03*
D29*
X112868822Y-73891178D03*
X115140000Y-78710000D03*
X115130000Y-78198427D03*
X107400000Y-91320000D03*
X119630399Y-84217574D03*
X100660000Y-79110000D03*
X123900000Y-80900000D03*
X114422893Y-74662893D03*
X121044612Y-87046001D03*
X106040023Y-77649129D03*
X113540000Y-83510000D03*
X133410000Y-80200000D03*
X119983952Y-87399554D03*
X104430000Y-91390000D03*
X133410000Y-81400000D03*
X101770000Y-80892931D03*
X133410000Y-79000000D03*
X119276845Y-85985341D03*
X101190000Y-80580000D03*
X129451600Y-93015200D03*
X123900000Y-79700000D03*
X101788460Y-87794400D03*
X133420000Y-88600000D03*
X133420000Y-89800000D03*
X101788460Y-85394400D03*
X123900000Y-76100000D03*
X124500000Y-87390000D03*
X118569739Y-85278234D03*
X133420000Y-87400000D03*
X123900000Y-78500000D03*
X101190000Y-78470000D03*
X101788460Y-88994400D03*
X107410000Y-93700000D03*
D30*
X103940000Y-95370000D03*
D29*
X101810000Y-81856828D03*
X103188460Y-88994400D03*
X101788460Y-86594400D03*
D30*
%TO.N,P5VD_AON*%
X106060001Y-76079997D03*
D29*
%TO.N,Net-(U5-FB)*%
X104160002Y-76085000D03*
%TO.N,P3V3D_FPGA*%
X118079973Y-90700000D03*
X120691059Y-86692447D03*
X117557707Y-90177734D03*
X128805400Y-93008985D03*
D30*
X107110691Y-81800691D03*
D29*
%TO.N,P1V8D_FPGA*%
X115530000Y-77240000D03*
D30*
X121640768Y-92349286D03*
D29*
X121751719Y-84217574D03*
D30*
X117270461Y-80500000D03*
D29*
X114850000Y-72560000D03*
X117251320Y-74662893D03*
X113715786Y-75370000D03*
D30*
X107970000Y-73570000D03*
D29*
X115837107Y-77491320D03*
X112177504Y-74570000D03*
%TO.N,P1VD_FPGA*%
X119276845Y-84571127D03*
X119983952Y-84571127D03*
X121398166Y-85985341D03*
D30*
X102640001Y-73149997D03*
D29*
%TO.N,Net-(U3F-VCCPLLDPHY0)*%
X118923292Y-85631787D03*
%TO.N,Net-(U3F-VCCDPHY0)*%
X118923292Y-84924680D03*
%TO.N,Net-(U3G-VCCPLLDPHY1)*%
X119630399Y-86338894D03*
%TO.N,Net-(U3G-VCCDPHY1)*%
X120337505Y-87046001D03*
%TO.N,Net-(U3F-VCCADPHY0)*%
X119272545Y-83859720D03*
%TO.N,Net-(U3G-VCCADPHY1)*%
X119080000Y-89390000D03*
%TO.N,/FPGA/PVCCAUX*%
X122105272Y-85985341D03*
X122458826Y-85631787D03*
X121044612Y-84924680D03*
%TO.N,Net-(U3H-VCCAUXH5)*%
X119983952Y-83864020D03*
%TO.N,PVIO5_FPGA*%
X120691059Y-83156913D03*
D30*
X106890000Y-73580000D03*
D29*
%TO.N,PVIO1_FPGA*%
X121398166Y-87400000D03*
%TO.N,PVIO3_FPGA*%
X123165933Y-84924681D03*
D30*
X109050000Y-73650000D03*
X128506800Y-91567400D03*
D29*
%TO.N,/FPGA/DPHY0.CLK-*%
X101385310Y-80911174D03*
%TO.N,/FPGA/DPHY1.CLK-*%
X103218512Y-88596850D03*
%TO.N,/FPGA/DONE*%
X105700000Y-84200000D03*
%TO.N,/FPGA/DPHY0.D0+*%
X100973893Y-78889288D03*
%TO.N,/FPGA/FPGA_EN*%
X105470000Y-75340000D03*
X107940000Y-81820000D03*
%TO.N,/FPGA/DPHY0.D2-*%
X106030000Y-78030000D03*
%TO.N,/FPGA/DPHY1.D3+*%
X104425902Y-90548529D03*
%TO.N,/FPGA/DPHY1.D2+*%
X101769040Y-87003150D03*
%TO.N,/FPGA/DPHY1.D2-*%
X101769040Y-87396850D03*
%TO.N,Net-(U5-PG)*%
X104150001Y-75260000D03*
%TO.N,Net-(U3B-PR9B)*%
X122048617Y-88111383D03*
%TO.N,/FPGA/DPHY0.D1+*%
X103320806Y-81939194D03*
%TO.N,/FPGA/PB52A*%
X127300000Y-87600000D03*
%TO.N,/FPGA/DPHY0.D2+*%
X106030000Y-78423700D03*
%TO.N,/FPGA/DPHY0.D3-*%
X101778711Y-84603150D03*
%TO.N,/FPGA/DPHY1.D1+*%
X101785012Y-89403150D03*
%TO.N,/FPGA/DPHY0.CLK+*%
X100991610Y-80911174D03*
%TO.N,/FPGA/DPHY1.D1-*%
X101785012Y-89796850D03*
%TO.N,/FPGA/DPHY1.D0-*%
X101758408Y-90996850D03*
%TO.N,/FPGA/DPHY0.D1-*%
X103599194Y-81660806D03*
%TO.N,/FPGA/JTAG_EN*%
X106200000Y-87400000D03*
%TO.N,/FPGA/TDO*%
X105700000Y-85800000D03*
%TO.N,/FPGA/TCK*%
X121710000Y-89450000D03*
X105700000Y-87400000D03*
%TO.N,/FPGA/TDI*%
X106600000Y-85800000D03*
%TO.N,/FPGA/TMS*%
X106700000Y-87400000D03*
%TO.N,/FPGA/PB52B*%
X128000000Y-87600000D03*
%TO.N,/FPGA/DPHY0.D0-*%
X101367593Y-78889288D03*
%TO.N,Net-(U3A-PT59A{slash}MCLK{slash}PCLKT0_0)*%
X124444060Y-91018071D03*
%TO.N,/FPGA/FLASH_CSn*%
X128795400Y-97845602D03*
X113748000Y-95352000D03*
%TO.N,/FPGA/SRAM_CEN*%
X117000000Y-79290000D03*
X113715786Y-73955786D03*
%TO.N,/FPGA/SRAM_RSTn*%
X113008680Y-74662893D03*
%TO.N,/FPGA/DPHY1.D0+*%
X101758408Y-90603150D03*
%TO.N,/FPGA/DPHY0.D3+*%
X101778711Y-84996850D03*
%TO.N,/FPGA/MOSI*%
X124995400Y-93595602D03*
X115100000Y-93727779D03*
%TO.N,/FPGA/SD3*%
X127545400Y-93595602D03*
X114206800Y-94793200D03*
%TO.N,/FPGA/DPHY1.CLK+*%
X103218512Y-88203150D03*
%TO.N,/FPGA/DPHY1.D3-*%
X104425902Y-90942229D03*
%TO.N,/FPGA/SCLK*%
X114665600Y-94234400D03*
X126245400Y-93645602D03*
%TO.N,/FPGA/SD2*%
X112758800Y-96469600D03*
X122700000Y-91694400D03*
X126245400Y-97845602D03*
%TO.N,/FPGA/SRAM_DQ7*%
X117958427Y-75370000D03*
%TO.N,/FPGA/SRAM_DQ5*%
X117605000Y-77245000D03*
%TO.N,/FPGA/SRAM_RW*%
X115130000Y-75370000D03*
%TO.N,/FPGA/MISO*%
X113266800Y-95910800D03*
X127545400Y-97845602D03*
%TO.N,/FPGA/SRAM_DQ3*%
X115130000Y-76784214D03*
%TO.N,/FPGA/SRAM_CLK_P*%
X115130000Y-73955786D03*
%TO.N,/FPGA/SRAM_DQ2*%
X116700000Y-78190000D03*
%TO.N,/FPGA/SRAM_DQ4*%
X114422893Y-77491320D03*
%TO.N,/FPGA/PT65B*%
X120850000Y-92250000D03*
%TO.N,/FPGA/SRAM_DQ6*%
X118910000Y-76610000D03*
%TO.N,/FPGA/SRAM_DQ0*%
X115837107Y-76077107D03*
%TO.N,/FPGA/SRAM_CLK_N*%
X115837107Y-73248680D03*
%TO.N,/FPGA/SRAM_DQ1*%
X116544214Y-75370000D03*
%TO.N,/FPGA/PROGRAMn*%
X106600000Y-84200000D03*
%TO.N,/FPGA/PT57A*%
X105700000Y-82600000D03*
%TO.N,/FPGA/PB50A*%
X125900000Y-87601000D03*
%TO.N,/FPGA/PB50B*%
X126600000Y-87600000D03*
%TO.N,/FPGA/PR11N*%
X133421741Y-90203150D03*
%TO.N,/FPGA/PB68P*%
X133410000Y-86996850D03*
%TO.N,/FPGA/PB64P*%
X133410000Y-84596850D03*
%TO.N,/FPGA/PB62P*%
X133410000Y-83003150D03*
%TO.N,/FPGA/PB58N*%
X133410000Y-79403150D03*
%TO.N,/FPGA/PB64N*%
X133410000Y-84203150D03*
%TO.N,/FPGA/PB58P*%
X133410000Y-79796850D03*
%TO.N,/FPGA/PB60N*%
X133410000Y-80603150D03*
%TO.N,/FPGA/PB62N*%
X133410000Y-83396850D03*
%TO.N,/FPGA/PR13N*%
X133410000Y-89003150D03*
%TO.N,/FPGA/PR13P*%
X133410000Y-89396850D03*
%TO.N,/FPGA/PB66N*%
X133410000Y-85403150D03*
%TO.N,/FPGA/PB68N*%
X133410000Y-86603150D03*
%TO.N,/FPGA/PB56P*%
X133410000Y-81803150D03*
%TO.N,/FPGA/PB60P*%
X133410000Y-80996850D03*
%TO.N,/FPGA/PB70P*%
X133410000Y-87803150D03*
%TO.N,/FPGA/PR11P*%
X133421741Y-90596850D03*
%TO.N,/FPGA/PB56N*%
X133410000Y-82196850D03*
%TO.N,/FPGA/PB66P*%
X133410000Y-85796850D03*
%TO.N,/FPGA/PB70N*%
X133410000Y-88196850D03*
%TO.N,/FPGA/PB18P*%
X123900000Y-75303150D03*
%TO.N,/FPGA/PB22N*%
X123900000Y-81303150D03*
%TO.N,/FPGA/PB26P*%
X123900000Y-77703150D03*
%TO.N,/FPGA/PB28P*%
X123900000Y-80518997D03*
%TO.N,/FPGA/PB24N*%
X123890910Y-82891468D03*
%TO.N,/FPGA/PB30P*%
X123900000Y-79296850D03*
%TO.N,/FPGA/PB16P*%
X123900000Y-74103150D03*
%TO.N,/FPGA/PB28N*%
X123900000Y-80125297D03*
%TO.N,/FPGA/PB22P*%
X123900000Y-81696850D03*
%TO.N,/FPGA/PB20P*%
X123900000Y-76503150D03*
%TO.N,/FPGA/PB20N*%
X123900000Y-76896850D03*
%TO.N,/FPGA/PB18N*%
X123900000Y-75696850D03*
%TO.N,/FPGA/PB16N*%
X123900000Y-74496850D03*
%TO.N,/FPGA/PB30N*%
X123900000Y-78903150D03*
%TO.N,/FPGA/PB26N*%
X123900000Y-78096850D03*
%TO.N,/FPGA/PB24P*%
X123890910Y-82497768D03*
%TO.N,/FPGA/PR7N*%
X107410000Y-93300550D03*
%TO.N,/FPGA/PT67P*%
X107400000Y-91710000D03*
%TO.N,/FPGA/PT67N*%
X107400000Y-92103700D03*
%TO.N,/FPGA/PR7P*%
X107410000Y-92906850D03*
%TD*%
D31*
%TO.N,GND*%
X101794060Y-84200000D02*
X101788460Y-84194400D01*
X102488460Y-87800000D02*
X101794060Y-87800000D01*
D32*
X119028579Y-86141421D02*
X117041421Y-86141421D01*
D31*
X100640661Y-77889339D02*
X100670000Y-77860000D01*
D32*
X116111178Y-86041178D02*
X116941178Y-86041178D01*
D31*
X100658378Y-79111622D02*
X100660000Y-79110000D01*
D32*
X124153832Y-89854948D02*
X124146188Y-89854948D01*
X117190000Y-85190000D02*
X117190000Y-84898224D01*
D31*
X104416814Y-90162715D02*
X104416814Y-89933186D01*
X133010000Y-80200000D02*
X132700000Y-80200000D01*
D32*
X118890000Y-87720000D02*
X118427644Y-87720000D01*
X117190000Y-84898224D02*
X116456511Y-84164735D01*
D31*
X102986464Y-85400000D02*
X103200000Y-85186464D01*
D32*
X119170000Y-86000000D02*
X119028579Y-86141421D01*
D31*
X101750000Y-78890000D02*
X101750000Y-79136464D01*
X132700000Y-80200000D02*
X131700000Y-80200000D01*
D33*
X118923292Y-83510467D02*
X118860467Y-83510467D01*
X118860467Y-83510467D02*
X118550000Y-83200000D01*
X118334904Y-85190000D02*
X118447452Y-85302548D01*
D31*
X103224268Y-87794400D02*
X103188460Y-87794400D01*
X103188460Y-88994400D02*
X103235468Y-88994400D01*
D32*
X116941178Y-86041178D02*
X117041421Y-86141421D01*
D31*
X102488460Y-87800000D02*
X103182860Y-87800000D01*
X133420000Y-91000000D02*
X133410000Y-91000000D01*
X134410000Y-80200000D02*
X133410000Y-80200000D01*
D32*
X120090000Y-87520000D02*
X119090000Y-87520000D01*
D31*
X102500000Y-80600000D02*
X102477942Y-80577942D01*
X132700000Y-89800000D02*
X132700000Y-80200000D01*
X134410000Y-91000000D02*
X133420000Y-91000000D01*
D32*
X123510000Y-83680000D02*
X123510000Y-82810000D01*
D31*
X102488460Y-81800000D02*
X101866828Y-81800000D01*
D32*
X123900000Y-82100000D02*
X123330000Y-82100000D01*
D31*
X101325600Y-85394400D02*
X101290000Y-85430000D01*
X133410000Y-85000000D02*
X131700000Y-85000000D01*
X134410000Y-86200000D02*
X133420000Y-86200000D01*
X133410000Y-79000000D02*
X133100000Y-79000000D01*
X133410000Y-81400000D02*
X131700000Y-81400000D01*
D32*
X122540000Y-87690000D02*
X122540000Y-87414904D01*
D31*
X101794060Y-85400000D02*
X101788460Y-85394400D01*
X101190000Y-78470000D02*
X101160000Y-78500000D01*
X134410000Y-87400000D02*
X133420000Y-87400000D01*
X133420000Y-88600000D02*
X131700000Y-88600000D01*
X101192058Y-80577942D02*
X101190000Y-80580000D01*
D34*
X106050000Y-73520000D02*
X106060000Y-73510000D01*
D31*
X102013536Y-79400000D02*
X102500000Y-79400000D01*
X104723536Y-89000000D02*
X105210000Y-89000000D01*
D33*
X116106548Y-86041178D02*
X115485370Y-85420000D01*
D31*
X133410000Y-83800000D02*
X131700000Y-83800000D01*
X101294400Y-88994400D02*
X101290000Y-88990000D01*
D33*
X120301206Y-83474168D02*
X120301206Y-82504500D01*
D32*
X118088822Y-88058822D02*
X118098799Y-88058822D01*
X118380877Y-82203923D02*
X117114610Y-82203923D01*
D31*
X102013536Y-83000000D02*
X101788460Y-83225076D01*
D32*
X123520000Y-83680000D02*
X123900000Y-83300000D01*
X123510000Y-82810000D02*
X123270000Y-82570000D01*
D33*
X120301206Y-82504500D02*
X120360000Y-82445706D01*
D31*
X132700000Y-79400000D02*
X132700000Y-80200000D01*
D33*
X116456511Y-84164735D02*
X116456511Y-84448859D01*
D31*
X103200000Y-85186464D02*
X103200000Y-85000000D01*
D35*
X104454099Y-90200000D02*
X104416814Y-90162715D01*
D32*
X123150000Y-85662543D02*
X122811023Y-85323566D01*
D35*
X133362722Y-79000000D02*
X133410000Y-79000000D01*
D31*
X102488460Y-84200000D02*
X101794060Y-84200000D01*
X132700000Y-91000000D02*
X131700000Y-91000000D01*
X133410000Y-86200000D02*
X131700000Y-86200000D01*
D32*
X115264735Y-84164735D02*
X114880028Y-83780028D01*
D31*
X100640661Y-79090661D02*
X100660000Y-79110000D01*
D32*
X123900000Y-80900000D02*
X123590000Y-80900000D01*
D33*
X117190000Y-85190000D02*
X118334904Y-85190000D01*
D32*
X118427644Y-87720000D02*
X118088822Y-88058822D01*
X120620000Y-79470000D02*
X121450000Y-80300000D01*
X116860000Y-81110000D02*
X116860000Y-81949313D01*
D31*
X102488460Y-85400000D02*
X101794060Y-85400000D01*
D33*
X116111178Y-86041178D02*
X116106548Y-86041178D01*
D32*
X117114610Y-82203923D02*
X117098359Y-82187672D01*
D31*
X102916460Y-83000000D02*
X102488460Y-83000000D01*
X101794060Y-90200000D02*
X101788460Y-90194400D01*
D32*
X125340768Y-90684157D02*
X125340768Y-91300000D01*
X120088822Y-90048795D02*
X120621178Y-89516439D01*
X123510000Y-83680000D02*
X123520000Y-83680000D01*
D33*
X120337505Y-83510467D02*
X120301206Y-83474168D01*
D32*
X116544214Y-74584214D02*
X116610000Y-74650000D01*
D33*
X119983952Y-87399554D02*
X119963506Y-87399554D01*
D32*
X115264735Y-84164735D02*
X116456511Y-84164735D01*
D31*
X134410000Y-88600000D02*
X133420000Y-88600000D01*
X134410000Y-81400000D02*
X133410000Y-81400000D01*
X101190000Y-80580000D02*
X101187942Y-80577942D01*
D36*
X102488460Y-79400000D02*
X102273460Y-79400000D01*
D31*
X101190000Y-78470000D02*
X101220000Y-78500000D01*
D32*
X124153832Y-89854948D02*
X124511559Y-89854948D01*
X119983952Y-87399554D02*
X119980446Y-87399554D01*
D31*
X103084000Y-82832460D02*
X103084000Y-82237666D01*
D32*
X116860000Y-81949313D02*
X117098359Y-82187672D01*
X119700000Y-79470000D02*
X120620000Y-79470000D01*
X118369989Y-88330011D02*
X118730671Y-88690694D01*
X120088822Y-90151178D02*
X120088822Y-90048795D01*
D31*
X100650661Y-78500000D02*
X100640661Y-78490000D01*
X102500000Y-85400000D02*
X102986464Y-85400000D01*
D32*
X124995400Y-98408985D02*
X124400985Y-98408985D01*
D31*
X123290000Y-81200000D02*
X123220000Y-81270000D01*
X133410000Y-80200000D02*
X133010000Y-80200000D01*
D32*
X123150000Y-86040000D02*
X123150000Y-85662543D01*
D31*
X103182860Y-84200000D02*
X103188460Y-84194400D01*
X101794060Y-86600000D02*
X101788460Y-86594400D01*
X105210000Y-89000000D02*
X105700000Y-89000000D01*
D32*
X118098799Y-88058822D02*
X118369989Y-88330011D01*
X122192548Y-87067452D02*
X122192548Y-86912548D01*
X113969899Y-83080101D02*
X113540000Y-83510000D01*
D31*
X104416814Y-89933186D02*
X104520000Y-89830000D01*
X103073628Y-80600000D02*
X102500000Y-80600000D01*
D35*
X105198460Y-90200000D02*
X104454099Y-90200000D01*
D31*
X102488460Y-86600000D02*
X101794060Y-86600000D01*
D32*
X123220000Y-81270000D02*
X122818822Y-81671178D01*
D31*
X107400000Y-90340000D02*
X107400000Y-91320000D01*
D32*
X121384301Y-83775699D02*
X121690000Y-83470000D01*
D31*
X134410000Y-82600000D02*
X133410000Y-82600000D01*
D32*
X123270000Y-82570000D02*
X123270000Y-82160000D01*
D31*
X106060000Y-89000000D02*
X107400000Y-90340000D01*
D32*
X121450000Y-80300000D02*
X121450000Y-80302356D01*
X114880028Y-83080101D02*
X113969899Y-83080101D01*
D31*
X101294400Y-87794400D02*
X101290000Y-87790000D01*
X123896924Y-82103076D02*
X123900000Y-82100000D01*
X132700000Y-91000000D02*
X132700000Y-89800000D01*
X101304400Y-86594400D02*
X101290000Y-86580000D01*
X133420000Y-86200000D02*
X133410000Y-86200000D01*
X102500000Y-80600000D02*
X102062931Y-80600000D01*
X100680000Y-81130000D02*
X100658378Y-81108378D01*
X133410000Y-82600000D02*
X131700000Y-82600000D01*
D33*
X119052127Y-82697873D02*
X118550000Y-83200000D01*
D32*
X122192548Y-86912548D02*
X121740000Y-86460000D01*
D31*
X103182860Y-87800000D02*
X103188460Y-87794400D01*
X134410000Y-85000000D02*
X133410000Y-85000000D01*
D33*
X119069955Y-82697873D02*
X119052127Y-82697873D01*
D34*
X106050000Y-74299998D02*
X106050000Y-73520000D01*
D31*
X133100000Y-79000000D02*
X132700000Y-79400000D01*
X102488460Y-89000000D02*
X103182860Y-89000000D01*
X101788460Y-83225076D02*
X101788460Y-84194400D01*
X133420000Y-87400000D02*
X133410000Y-87400000D01*
D32*
X124146188Y-89854948D02*
X123495010Y-89203770D01*
X116540000Y-73960000D02*
X116544214Y-73955786D01*
X122540000Y-87414904D02*
X122192548Y-87067452D01*
D31*
X102488460Y-89000000D02*
X101794060Y-89000000D01*
X102062931Y-80600000D02*
X101770000Y-80892931D01*
X101794060Y-87800000D02*
X101788460Y-87794400D01*
X134410000Y-89800000D02*
X133420000Y-89800000D01*
D32*
X116544214Y-73955786D02*
X116544214Y-74584214D01*
D31*
X104520000Y-89830000D02*
X104520000Y-89203536D01*
D32*
X123247644Y-82100000D02*
X122818822Y-81671178D01*
X123330000Y-82100000D02*
X123247644Y-82100000D01*
D31*
X102488460Y-84200000D02*
X103182860Y-84200000D01*
X103835812Y-81362184D02*
X103073628Y-80600000D01*
X102488460Y-90200000D02*
X101794060Y-90200000D01*
X102500000Y-83000000D02*
X102013536Y-83000000D01*
D32*
X123590000Y-80900000D02*
X123220000Y-81270000D01*
D31*
X101866828Y-81800000D02*
X101810000Y-81856828D01*
D32*
X123270000Y-82160000D02*
X123330000Y-82100000D01*
X117218873Y-85161127D02*
X117190000Y-85190000D01*
D33*
X120360000Y-82445706D02*
X120360000Y-81910000D01*
D31*
X133420000Y-89800000D02*
X132700000Y-89800000D01*
X134410000Y-83800000D02*
X133410000Y-83800000D01*
X105700000Y-89000000D02*
X106060000Y-89000000D01*
X133410000Y-87400000D02*
X131700000Y-87400000D01*
D32*
X121450000Y-80302356D02*
X122818822Y-81671178D01*
X124511559Y-89854948D02*
X125340768Y-90684157D01*
D31*
X101794060Y-89000000D02*
X101788460Y-88994400D01*
D32*
X118923292Y-82746338D02*
X118380877Y-82203923D01*
D31*
X102916460Y-83000000D02*
X103084000Y-82832460D01*
X133410000Y-91000000D02*
X132700000Y-91000000D01*
X104520000Y-89203536D02*
X104723536Y-89000000D01*
X101750000Y-79136464D02*
X102013536Y-79400000D01*
X101294400Y-84194400D02*
X101290000Y-84190000D01*
X103182860Y-89000000D02*
X103188460Y-88994400D01*
D32*
X122794777Y-85260632D02*
X122812379Y-85278234D01*
X119090000Y-87520000D02*
X118890000Y-87720000D01*
X124400985Y-98408985D02*
X124188800Y-98196800D01*
X114880028Y-83780028D02*
X114880028Y-83080101D01*
X121384301Y-84448594D02*
X121384301Y-83775699D01*
X124500000Y-87390000D02*
X123150000Y-86040000D01*
%TO.N,P5VD_AON*%
X106608850Y-77508850D02*
X106060001Y-76960001D01*
D37*
X106050000Y-76070000D02*
X106060001Y-76079997D01*
X106050001Y-75260000D02*
X106050000Y-76070000D01*
D32*
X105210000Y-79800000D02*
X105794000Y-79800000D01*
X106060001Y-76960001D02*
X106060001Y-76079997D01*
X105794000Y-79800000D02*
X106608850Y-78985150D01*
X106608850Y-78985150D02*
X106608850Y-77508850D01*
D31*
%TO.N,Net-(U5-FB)*%
X104770003Y-75474997D02*
X104160002Y-76085000D01*
D35*
X104770003Y-75279998D02*
X104770003Y-75474997D01*
D32*
%TO.N,P3V3D_FPGA*%
X118209973Y-90830000D02*
X118079973Y-90700000D01*
X105210000Y-81800000D02*
X107110000Y-81800000D01*
X119410000Y-90830000D02*
X118209973Y-90830000D01*
D31*
X128799185Y-93015200D02*
X128805400Y-93008985D01*
D32*
X128865400Y-93068985D02*
X128805400Y-93008985D01*
X107110000Y-81800000D02*
X107110691Y-81800691D01*
%TO.N,P1V8D_FPGA*%
X119060000Y-80161960D02*
X118408330Y-80813630D01*
X122162548Y-83669808D02*
X122831178Y-83001178D01*
D38*
X110100000Y-83760000D02*
X115919203Y-89579203D01*
X109313440Y-73014000D02*
X110100000Y-73800560D01*
D32*
X119060000Y-80150000D02*
X119060000Y-80161960D01*
X118408330Y-80813630D02*
X118363630Y-80813630D01*
X105210000Y-80600000D02*
X106074460Y-80600000D01*
D38*
X115919203Y-89579203D02*
X116379203Y-89579203D01*
X110100000Y-73800560D02*
X110100000Y-83760000D01*
D32*
X122162548Y-83912548D02*
X122162548Y-83669808D01*
X121640768Y-91959232D02*
X122844312Y-90755688D01*
D38*
X107970000Y-73570000D02*
X108526000Y-73014000D01*
D32*
X107970000Y-78704460D02*
X107970000Y-77870000D01*
D38*
X107970000Y-73570000D02*
X107970000Y-77870000D01*
D32*
X121759526Y-84135570D02*
X121759526Y-84209767D01*
D34*
X116379203Y-89579203D02*
X117840797Y-89579203D01*
X118050000Y-80500000D02*
X118363630Y-80813630D01*
X117840797Y-89579203D02*
X118060000Y-89360000D01*
D32*
X122082548Y-83812548D02*
X121759526Y-84135570D01*
X106074460Y-80600000D02*
X107970000Y-78704460D01*
D34*
X117270461Y-80500000D02*
X118050000Y-80500000D01*
D32*
X122180000Y-82350000D02*
X122831178Y-83001178D01*
X122140000Y-82350000D02*
X122180000Y-82350000D01*
D38*
X108526000Y-73014000D02*
X109313440Y-73014000D01*
D32*
X121640768Y-92349286D02*
X121640768Y-91959232D01*
X122844312Y-90755688D02*
X122844312Y-88537778D01*
D36*
%TO.N,P1VD_FPGA*%
X121398166Y-85985341D02*
X121398166Y-85620898D01*
X121287452Y-86007452D02*
X121287452Y-85531963D01*
X121287452Y-86007452D02*
X121287452Y-86438718D01*
D32*
X119276845Y-84571127D02*
X118358266Y-83652548D01*
X120100000Y-84550000D02*
X120006305Y-84643695D01*
D36*
X121398166Y-85620898D02*
X121640466Y-85378598D01*
X121287452Y-86438718D02*
X121144976Y-86581194D01*
X120968382Y-85920000D02*
X121370000Y-85920000D01*
X120644191Y-85595809D02*
X120968382Y-85920000D01*
D33*
X117759345Y-82848658D02*
X117777181Y-82866494D01*
D35*
X121398166Y-85985341D02*
X121334706Y-86048801D01*
X120100000Y-84550000D02*
X120069805Y-84580195D01*
D32*
X103580001Y-74259999D02*
X102640001Y-73319999D01*
D36*
X120933359Y-85378598D02*
X120776148Y-85535809D01*
D32*
X116473614Y-82848658D02*
X116006229Y-82848658D01*
D35*
X121334706Y-86048801D02*
X121334706Y-86424747D01*
D36*
X121144976Y-86581194D02*
X120944248Y-86581194D01*
D32*
X118097452Y-83652548D02*
X117777181Y-83332277D01*
D34*
X113558207Y-85996932D02*
X113558207Y-86021793D01*
D32*
X121027078Y-86007452D02*
X121022259Y-86002633D01*
D34*
X115558850Y-82401279D02*
X115297571Y-82140000D01*
X114126820Y-85428319D02*
X113558207Y-85996932D01*
X115912893Y-87639764D02*
X116132096Y-87420561D01*
D36*
X120776148Y-85535809D02*
X120584191Y-85535809D01*
D32*
X103580001Y-74259999D02*
X104770001Y-74259999D01*
X121287452Y-86007452D02*
X121027078Y-86007452D01*
D36*
X121505934Y-85035934D02*
X121276023Y-85035934D01*
D34*
X115176178Y-87639764D02*
X115912893Y-87639764D01*
D32*
X116006229Y-82848658D02*
X115558850Y-82401279D01*
D38*
X105330000Y-71180000D02*
X104770003Y-71739997D01*
D32*
X116120000Y-87400000D02*
X116120000Y-87410000D01*
D38*
X105330000Y-71180000D02*
X110080000Y-71180000D01*
D32*
X118358266Y-83652548D02*
X118097452Y-83652548D01*
X120006305Y-84643695D02*
X120006305Y-84947034D01*
X117777181Y-83332277D02*
X117777181Y-82866494D01*
D36*
X121287452Y-86007452D02*
X121011612Y-86007452D01*
D38*
X110836820Y-71936820D02*
X110836820Y-82140000D01*
D32*
X121375812Y-85919092D02*
X121375812Y-85630000D01*
D36*
X120791423Y-86227641D02*
X120590695Y-86227641D01*
D33*
X116752356Y-88042356D02*
X116752356Y-88040821D01*
D38*
X110836820Y-82140000D02*
X110836820Y-83300406D01*
D36*
X121011612Y-86007452D02*
X120791423Y-86227641D01*
D35*
X102640001Y-73319999D02*
X102640001Y-73149997D01*
D36*
X120584191Y-85535809D02*
X120644191Y-85595809D01*
X120590695Y-86227641D02*
X120448759Y-86085705D01*
X121276023Y-85035934D02*
X120933359Y-85378598D01*
D38*
X110836820Y-83300406D02*
X115176178Y-87639764D01*
D32*
X121398166Y-86187782D02*
X121375812Y-86210136D01*
D33*
X116752356Y-88040821D02*
X116132096Y-87420561D01*
D34*
X115297571Y-82140000D02*
X110836820Y-82140000D01*
D32*
X115568721Y-82401279D02*
X116181178Y-81788822D01*
X121398166Y-85985341D02*
X121398166Y-86187782D01*
D36*
X120448759Y-86085705D02*
X120448759Y-85863197D01*
X119980000Y-84931618D02*
X120584191Y-85535809D01*
D32*
X121287452Y-86007452D02*
X121375812Y-85919092D01*
D36*
X120944248Y-86581194D02*
X120571527Y-86208473D01*
D32*
X119276845Y-84571127D02*
X119983952Y-84571127D01*
D36*
X121640466Y-85378598D02*
X121640466Y-85170466D01*
D32*
X121022259Y-86002633D02*
X121022259Y-85962987D01*
D36*
X120644191Y-85667765D02*
X120644191Y-85595809D01*
D38*
X104770003Y-71739997D02*
X104770003Y-74260000D01*
D36*
X121287452Y-85531963D02*
X121134087Y-85378598D01*
X120448759Y-85863197D02*
X120644191Y-85667765D01*
D32*
X115558850Y-82401279D02*
X115568721Y-82401279D01*
D35*
X104770001Y-74259999D02*
X104770003Y-74260001D01*
D38*
X110080000Y-71180000D02*
X110836820Y-71936820D01*
D36*
X121640466Y-85170466D02*
X121505934Y-85035934D01*
D33*
X116473614Y-82848658D02*
X117759345Y-82848658D01*
D36*
X121134087Y-85378598D02*
X120933359Y-85378598D01*
D33*
%TO.N,Net-(U3F-VCCPLLDPHY0)*%
X118783737Y-85771342D02*
X118923292Y-85631787D01*
D32*
X114805642Y-84742084D02*
X114806548Y-84741178D01*
D33*
X117106842Y-85642548D02*
X117642548Y-85642548D01*
X114806548Y-84741178D02*
X116205472Y-84741178D01*
X117771342Y-85771342D02*
X118783737Y-85771342D01*
X116205472Y-84741178D02*
X117106842Y-85642548D01*
D32*
X114805642Y-86107141D02*
X114805642Y-84742084D01*
D33*
X117642548Y-85642548D02*
X117771342Y-85771342D01*
D32*
%TO.N,Net-(U3F-VCCDPHY0)*%
X118077599Y-84785906D02*
X117135333Y-83843640D01*
X117080709Y-83488528D02*
X115773566Y-83488528D01*
X117135333Y-83843640D02*
X117135333Y-83485913D01*
X118835906Y-84785906D02*
X118077599Y-84785906D01*
X115773566Y-83488528D02*
X115751011Y-83465973D01*
X118900000Y-84850000D02*
X118835906Y-84785906D01*
%TO.N,Net-(U3G-VCCPLLDPHY1)*%
X116768261Y-86741739D02*
X116790000Y-86720000D01*
X115453274Y-86741739D02*
X116768261Y-86741739D01*
X116834420Y-86764420D02*
X116790000Y-86720000D01*
X119480605Y-86594491D02*
X116915509Y-86594491D01*
X116788822Y-86721178D02*
X116790000Y-86720000D01*
X119622548Y-86452548D02*
X119480605Y-86594491D01*
X116915509Y-86594491D02*
X116790000Y-86720000D01*
%TO.N,Net-(U3G-VCCDPHY1)*%
X120337505Y-87046001D02*
X117743999Y-87046001D01*
D33*
X117410000Y-88700000D02*
X117431178Y-88721178D01*
D32*
X120542548Y-87972548D02*
X120580647Y-87934449D01*
X120580647Y-87934449D02*
X120580647Y-87289143D01*
X117743999Y-87046001D02*
X117410000Y-87380000D01*
X117431178Y-87401178D02*
X117410000Y-87380000D01*
X117410000Y-87380000D02*
X117410000Y-88700000D01*
X120580647Y-87289143D02*
X120337505Y-87046001D01*
D33*
%TO.N,Net-(U3F-VCCADPHY0)*%
X119522503Y-83150421D02*
X119522503Y-82555713D01*
X119272545Y-83859720D02*
X119272545Y-83400379D01*
D32*
X119027050Y-81492452D02*
X119059699Y-81525101D01*
D33*
X119272545Y-83400379D02*
X119522503Y-83150421D01*
X119522503Y-82555713D02*
X119059699Y-82092909D01*
D32*
X117729508Y-81492452D02*
X119027050Y-81492452D01*
D33*
X119059699Y-82092909D02*
X119059699Y-81525101D01*
X119059699Y-81525101D02*
X119105085Y-81570487D01*
D32*
X119130000Y-81604721D02*
X119083660Y-81558381D01*
%TO.N,Net-(U3G-VCCADPHY1)*%
X119300000Y-88150000D02*
X119300000Y-88069927D01*
X118738822Y-90038822D02*
X118761178Y-90038822D01*
X119409493Y-89369516D02*
X119100484Y-89369516D01*
X119409493Y-89369516D02*
X119409493Y-88239493D01*
X118740187Y-90038822D02*
X119409493Y-89369516D01*
X118738822Y-90038822D02*
X118740187Y-90038822D01*
X119342548Y-88172548D02*
X119342548Y-88182548D01*
X119100484Y-89369516D02*
X119080000Y-89390000D01*
X119409493Y-88239493D02*
X119342548Y-88172548D01*
%TO.N,/FPGA/PVCCAUX*%
X124173832Y-88509654D02*
X123523134Y-87858956D01*
X122697452Y-86207452D02*
X122290306Y-85800306D01*
X122290306Y-85800306D02*
X122458826Y-85631787D01*
X123523134Y-87768038D02*
X122992548Y-87237452D01*
X124825010Y-89176126D02*
X124173832Y-88524948D01*
X124832654Y-89176126D02*
X124825010Y-89176126D01*
X124173832Y-88524948D02*
X124173832Y-88509654D01*
X122697452Y-86492548D02*
X122697452Y-86207452D01*
X122105272Y-85985341D02*
X122290306Y-85800306D01*
X122992548Y-87237452D02*
X122992548Y-86787644D01*
X122992548Y-86787644D02*
X122697452Y-86492548D01*
X123523134Y-87858956D02*
X123523134Y-87768038D01*
%TO.N,Net-(U3H-VCCAUXH5)*%
X119738822Y-80828822D02*
X119738822Y-80788822D01*
D33*
X119965897Y-82420993D02*
X119907452Y-82362548D01*
D32*
X119738822Y-82193918D02*
X119738822Y-80828822D01*
X119907452Y-82362548D02*
X119738822Y-82193918D01*
D33*
X119983952Y-83864020D02*
X119886606Y-83766674D01*
X119965897Y-83285159D02*
X119965897Y-82420993D01*
X119886606Y-83364450D02*
X119965897Y-83285159D01*
D32*
X119738822Y-80788822D02*
X120378822Y-80148822D01*
D33*
X119886606Y-83766674D02*
X119886606Y-83364450D01*
D32*
%TO.N,PVIO5_FPGA*%
X107280000Y-73970000D02*
X106890000Y-73580000D01*
X107280000Y-78854230D02*
X107280000Y-73970000D01*
X121450000Y-81660000D02*
X121450000Y-81657644D01*
X105210000Y-80200000D02*
X105934230Y-80200000D01*
X105934230Y-80200000D02*
X107280000Y-78854230D01*
X121450000Y-81660000D02*
X120691059Y-82418941D01*
X121450000Y-81657644D02*
X120771178Y-80978822D01*
X120691059Y-82418941D02*
X120691059Y-83156913D01*
%TO.N,PVIO1_FPGA*%
X106600000Y-81400000D02*
X106840000Y-81160000D01*
X121398166Y-87400000D02*
X121620000Y-87400000D01*
X117900000Y-91600000D02*
X119700000Y-91600000D01*
X121550000Y-88690000D02*
X121550000Y-87551834D01*
X121370000Y-89930000D02*
X121370000Y-88870000D01*
X121370000Y-88870000D02*
X121550000Y-88690000D01*
X106840000Y-81160000D02*
X108560000Y-81160000D01*
X121370000Y-88870000D02*
X121300000Y-88940000D01*
X121550000Y-87551834D02*
X121398166Y-87400000D01*
D38*
X109300000Y-81900000D02*
X109300000Y-84110000D01*
X109300000Y-84110000D02*
X116790000Y-91600000D01*
X108560000Y-81160000D02*
X109300000Y-81900000D01*
X116790000Y-91600000D02*
X117900000Y-91600000D01*
D32*
X121620000Y-87400000D02*
X121740000Y-87520000D01*
X105210000Y-81400000D02*
X106600000Y-81400000D01*
X119700000Y-91600000D02*
X121370000Y-89930000D01*
%TO.N,PVIO3_FPGA*%
X123165933Y-84924681D02*
X125400000Y-87158748D01*
X106250611Y-81000000D02*
X109050000Y-78200611D01*
D38*
X125400000Y-88460600D02*
X128506800Y-91567400D01*
X125400000Y-88300000D02*
X125400000Y-88460600D01*
X109050000Y-78200611D02*
X109050000Y-73650000D01*
D32*
X125400000Y-87158748D02*
X125400000Y-88300000D01*
X105210000Y-81000000D02*
X106250611Y-81000000D01*
D39*
%TO.N,/FPGA/DPHY0.CLK-*%
X102285000Y-82200000D02*
X102206539Y-82278461D01*
X102206539Y-82278461D02*
X101644403Y-82278461D01*
X102500000Y-82200000D02*
X102285000Y-82200000D01*
X101310000Y-80994399D02*
X101310000Y-80986484D01*
X101644403Y-82278461D02*
X101309999Y-81944057D01*
X101309999Y-80994400D02*
X101310000Y-80994399D01*
X101309999Y-81944057D02*
X101309999Y-80994400D01*
X101310000Y-80986484D02*
X101385310Y-80911174D01*
%TO.N,/FPGA/DPHY1.CLK-*%
X103143202Y-88521540D02*
X103218512Y-88596850D01*
X102488460Y-88600000D02*
X102566920Y-88521540D01*
X102566920Y-88521540D02*
X103143202Y-88521540D01*
D31*
%TO.N,/FPGA/DONE*%
X105210000Y-84200000D02*
X105700000Y-84200000D01*
D39*
%TO.N,/FPGA/DPHY0.D0+*%
X102285000Y-80200000D02*
X102206539Y-80121539D01*
X102206539Y-80121539D02*
X101643717Y-80121539D01*
X101049203Y-78964598D02*
X100973893Y-78889288D01*
X101049203Y-79527025D02*
X101049203Y-78964598D01*
X102500000Y-80200000D02*
X102285000Y-80200000D01*
X101643717Y-80121539D02*
X101049203Y-79527025D01*
D31*
%TO.N,/FPGA/FPGA_EN*%
X106200000Y-82200000D02*
X106400000Y-82400000D01*
D32*
X107950000Y-81830000D02*
X107940000Y-81820000D01*
X107950000Y-81850000D02*
X107950000Y-81830000D01*
D31*
X105210000Y-82200000D02*
X105220123Y-82210123D01*
X106400000Y-82400000D02*
X107400000Y-82400000D01*
X107400000Y-82400000D02*
X107950000Y-81850000D01*
X105210000Y-82200000D02*
X106200000Y-82200000D01*
D39*
%TO.N,/FPGA/DPHY0.D2-*%
X104732808Y-78105310D02*
X104248461Y-78589657D01*
X106030000Y-78030000D02*
X105954690Y-78105310D01*
X102995001Y-83400000D02*
X102500000Y-83400000D01*
X105954690Y-78105310D02*
X104732808Y-78105310D01*
X103510000Y-83478461D02*
X103073462Y-83478461D01*
X103073462Y-83478461D02*
X102995001Y-83400000D01*
X104248461Y-78589657D02*
X104248461Y-82959657D01*
X104248461Y-82959657D02*
X103719657Y-83488461D01*
X103520000Y-83488461D02*
X103510000Y-83478461D01*
X103719657Y-83488461D02*
X103520000Y-83488461D01*
%TO.N,/FPGA/DPHY1.D3+*%
X102703460Y-85800000D02*
X102488460Y-85800000D01*
X103550343Y-85878461D02*
X102781921Y-85878461D01*
X103971539Y-86983237D02*
X103971539Y-86299657D01*
X104425902Y-90548529D02*
X104350592Y-90623839D01*
X104471539Y-88291191D02*
X104471539Y-88171191D01*
X103971539Y-87691191D02*
X103971539Y-87571191D01*
X103971539Y-86299657D02*
X103550343Y-85878461D01*
X103971539Y-90355878D02*
X103971539Y-88771191D01*
X104350592Y-90623839D02*
X104239500Y-90623839D01*
X103971539Y-87571191D02*
X103971539Y-86983237D01*
X104231539Y-87931191D02*
X104211539Y-87931191D01*
X102781921Y-85878461D02*
X102703460Y-85800000D01*
X104239500Y-90623839D02*
X103971539Y-90355878D01*
X104211539Y-88531191D02*
X104231539Y-88531191D01*
X103971539Y-88771191D02*
G75*
G02*
X104211539Y-88531239I239961J-9D01*
G01*
X104231539Y-88531191D02*
G75*
G03*
X104471491Y-88291191I-39J239991D01*
G01*
X104471539Y-88171191D02*
G75*
G03*
X104231539Y-87931161I-240039J-9D01*
G01*
X104211539Y-87931191D02*
G75*
G02*
X103971509Y-87691191I-39J239991D01*
G01*
%TO.N,/FPGA/DPHY1.D2+*%
X102410000Y-87078460D02*
X101844350Y-87078460D01*
X101844350Y-87078460D02*
X101769040Y-87003150D01*
X102488460Y-87000000D02*
X102410000Y-87078460D01*
%TO.N,/FPGA/DPHY1.D2-*%
X101844350Y-87321540D02*
X101769040Y-87396850D01*
X102488460Y-87400000D02*
X102410000Y-87321540D01*
X102410000Y-87321540D02*
X101844350Y-87321540D01*
D35*
%TO.N,Net-(U5-PG)*%
X103580001Y-75279996D02*
X104130002Y-75279997D01*
X104130002Y-75279997D02*
X104150001Y-75260000D01*
D31*
%TO.N,Net-(U3B-PR9B)*%
X122207600Y-88270366D02*
X122048617Y-88111383D01*
X118500000Y-92550000D02*
X120078738Y-92550000D01*
X120078738Y-92550000D02*
X122207600Y-90421138D01*
X122207600Y-90421138D02*
X122207600Y-88270366D01*
D39*
%TO.N,/FPGA/DPHY0.D1+*%
X102809656Y-81321539D02*
X102793461Y-81321539D01*
X103320806Y-81939194D02*
X103320806Y-81832689D01*
X103320806Y-81832689D02*
X102809656Y-81321539D01*
X102715000Y-81400000D02*
X102793461Y-81321539D01*
X102500000Y-81400000D02*
X102715000Y-81400000D01*
D31*
%TO.N,/FPGA/PB52A*%
X130700000Y-89400000D02*
X130600000Y-89500000D01*
X127300000Y-87700000D02*
X127300000Y-87600000D01*
X130600000Y-89500000D02*
X129100000Y-89500000D01*
X129100000Y-89500000D02*
X127300000Y-87700000D01*
X131700000Y-89400000D02*
X130700000Y-89400000D01*
D39*
%TO.N,/FPGA/DPHY0.D2+*%
X104833492Y-78348390D02*
X104491539Y-78690343D01*
X103416979Y-83721539D02*
X103073462Y-83721539D01*
X102995001Y-83800000D02*
X102500000Y-83800000D01*
X104491539Y-78690343D02*
X104491539Y-83060343D01*
X105954690Y-78348390D02*
X104833492Y-78348390D01*
X104491539Y-83060343D02*
X103820343Y-83731539D01*
X103426979Y-83731539D02*
X103416979Y-83721539D01*
X106030000Y-78423700D02*
X105954690Y-78348390D01*
X103820343Y-83731539D02*
X103426979Y-83731539D01*
X103073462Y-83721539D02*
X102995001Y-83800000D01*
%TO.N,/FPGA/DPHY0.D3-*%
X102410000Y-84678460D02*
X101854021Y-84678460D01*
X102488460Y-84600000D02*
X102410000Y-84678460D01*
X101854021Y-84678460D02*
X101778711Y-84603150D01*
%TO.N,/FPGA/DPHY1.D1+*%
X101860322Y-89478460D02*
X101785012Y-89403150D01*
X102410000Y-89478460D02*
X101860322Y-89478460D01*
X102488460Y-89400000D02*
X102410000Y-89478460D01*
%TO.N,/FPGA/DPHY0.CLK+*%
X102206539Y-82521539D02*
X101543717Y-82521539D01*
X101066921Y-82044743D02*
X101066921Y-80994400D01*
X101066921Y-80994400D02*
X101066920Y-80994399D01*
X101066920Y-80986484D02*
X100991610Y-80911174D01*
X102285000Y-82600000D02*
X102206539Y-82521539D01*
X101066920Y-80994399D02*
X101066920Y-80986484D01*
X101543717Y-82521539D02*
X101066921Y-82044743D01*
X102500000Y-82600000D02*
X102285000Y-82600000D01*
%TO.N,/FPGA/DPHY1.D1-*%
X102410000Y-89721540D02*
X101860322Y-89721540D01*
X102488460Y-89800000D02*
X102410000Y-89721540D01*
X101860322Y-89721540D02*
X101785012Y-89796850D01*
%TO.N,/FPGA/DPHY1.D0-*%
X101833718Y-90921540D02*
X101758408Y-90996850D01*
X102410000Y-90921540D02*
X101833718Y-90921540D01*
X102488460Y-91000000D02*
X102410000Y-90921540D01*
%TO.N,/FPGA/DPHY0.D1-*%
X102715000Y-81000000D02*
X102793461Y-81078461D01*
X102500000Y-81000000D02*
X102715000Y-81000000D01*
X103492689Y-81660806D02*
X102910344Y-81078461D01*
X102910344Y-81078461D02*
X102793461Y-81078461D01*
X103599194Y-81660806D02*
X103492689Y-81660806D01*
D31*
%TO.N,/FPGA/JTAG_EN*%
X105800000Y-87000000D02*
X106200000Y-87400000D01*
X105210000Y-87000000D02*
X105244464Y-87034464D01*
X105210000Y-87000000D02*
X105800000Y-87000000D01*
%TO.N,/FPGA/TDO*%
X105210000Y-85800000D02*
X105700000Y-85800000D01*
%TO.N,/FPGA/TCK*%
X105210000Y-87400000D02*
X105700000Y-87400000D01*
%TO.N,/FPGA/TDI*%
X105950000Y-85400000D02*
X106350000Y-85800000D01*
X105210000Y-85400000D02*
X105950000Y-85400000D01*
X106350000Y-85800000D02*
X106600000Y-85800000D01*
%TO.N,/FPGA/TMS*%
X105210000Y-86600000D02*
X106100000Y-86600000D01*
X106700000Y-87200000D02*
X106700000Y-87400000D01*
X106100000Y-86600000D02*
X106700000Y-87200000D01*
%TO.N,/FPGA/PB52B*%
X131700000Y-89000000D02*
X129400000Y-89000000D01*
X129400000Y-89000000D02*
X128000000Y-87600000D01*
D39*
%TO.N,/FPGA/DPHY0.D0-*%
X102285000Y-79800000D02*
X102206539Y-79878461D01*
X101292283Y-79426341D02*
X101292283Y-78964598D01*
X101292283Y-78964598D02*
X101367593Y-78889288D01*
X102500000Y-79800000D02*
X102285000Y-79800000D01*
X102206539Y-79878461D02*
X101744403Y-79878461D01*
X101744403Y-79878461D02*
X101292283Y-79426341D01*
D31*
%TO.N,/FPGA/FLASH_CSn*%
X107958496Y-87800000D02*
X109771536Y-89613040D01*
X128805400Y-97855602D02*
X128795400Y-97845602D01*
X109771536Y-89613040D02*
X109771536Y-91375536D01*
X105210000Y-87800000D02*
X107958496Y-87800000D01*
X128805400Y-98408985D02*
X128805400Y-97855602D01*
X109771536Y-91375536D02*
X113748000Y-95352000D01*
%TO.N,/FPGA/SRAM_CEN*%
X114051561Y-75559368D02*
X114100000Y-75510929D01*
X114051561Y-76341561D02*
X114051561Y-75559368D01*
X117000000Y-79290000D02*
X114051561Y-76341561D01*
X113715786Y-73955786D02*
X113715786Y-74844857D01*
X114100000Y-75229071D02*
X113715786Y-74844857D01*
X114100000Y-75510929D02*
X114100000Y-75229071D01*
D39*
%TO.N,/FPGA/DPHY1.D0+*%
X102488460Y-90600000D02*
X102410000Y-90678460D01*
X102410000Y-90678460D02*
X101833718Y-90678460D01*
X101833718Y-90678460D02*
X101758408Y-90603150D01*
%TO.N,/FPGA/DPHY0.D3+*%
X102488460Y-85000000D02*
X102410000Y-84921540D01*
X101854021Y-84921540D02*
X101778711Y-84996850D01*
X102410000Y-84921540D02*
X101854021Y-84921540D01*
D31*
%TO.N,/FPGA/MOSI*%
X105210000Y-84600000D02*
X107053527Y-84600000D01*
X111392320Y-90020099D02*
X115100000Y-93727779D01*
X111392320Y-88938794D02*
X111392320Y-90020099D01*
X107053527Y-84600000D02*
X111392320Y-88938794D01*
X124995400Y-93008985D02*
X124995400Y-93595602D01*
%TO.N,/FPGA/SD3*%
X127535400Y-93585602D02*
X127545400Y-93595602D01*
X110310000Y-89390000D02*
X110310000Y-90896400D01*
X105210000Y-86200000D02*
X107120000Y-86200000D01*
X107120000Y-86200000D02*
X110310000Y-89390000D01*
X110310000Y-90896400D02*
X114206800Y-94793200D01*
X127535400Y-93008985D02*
X127535400Y-93585602D01*
D39*
%TO.N,/FPGA/DPHY1.CLK+*%
X102566920Y-88278460D02*
X103143202Y-88278460D01*
X103143202Y-88278460D02*
X103218512Y-88203150D01*
X102488460Y-88200000D02*
X102566920Y-88278460D01*
%TO.N,/FPGA/DPHY1.D3-*%
X104350592Y-90866919D02*
X104138816Y-90866919D01*
X104138816Y-90866919D02*
X103728461Y-90456564D01*
X103449657Y-86121539D02*
X102781921Y-86121539D01*
X102781921Y-86121539D02*
X102703460Y-86200000D01*
X104425902Y-90942229D02*
X104350592Y-90866919D01*
X103728461Y-86400343D02*
X103449657Y-86121539D01*
X103728461Y-90456564D02*
X103728461Y-86400343D01*
X102703460Y-86200000D02*
X102488460Y-86200000D01*
D31*
%TO.N,/FPGA/SCLK*%
X110853856Y-89161833D02*
X110853856Y-90422656D01*
X126245400Y-93028985D02*
X126265400Y-93008985D01*
X106050000Y-85000000D02*
X106200000Y-85150000D01*
X124450000Y-92000000D02*
X125256415Y-92000000D01*
X106842023Y-85150000D02*
X110853856Y-89161833D01*
X125256415Y-92000000D02*
X126265400Y-93008985D01*
X106200000Y-85150000D02*
X106842023Y-85150000D01*
X110853856Y-90422656D02*
X114665600Y-94234400D01*
X105210000Y-85000000D02*
X106050000Y-85000000D01*
X126245400Y-93645602D02*
X126245400Y-93028985D01*
%TO.N,/FPGA/SD2*%
X107170000Y-88600000D02*
X108690000Y-90120000D01*
X126265400Y-98408985D02*
X126265400Y-97865602D01*
X105210000Y-88600000D02*
X107170000Y-88600000D01*
X108690000Y-90120000D02*
X108690000Y-92400800D01*
X126265400Y-97865602D02*
X126245400Y-97845602D01*
X108690000Y-92400800D02*
X112758800Y-96469600D01*
%TO.N,/FPGA/PR9B*%
X105210000Y-83000000D02*
X106976532Y-83000000D01*
X117480002Y-92550000D02*
X116526532Y-92550000D01*
X116526532Y-92550000D02*
X106976532Y-83000000D01*
%TO.N,/FPGA/SRAM_DQ5*%
X118430000Y-77690000D02*
X118430000Y-77140000D01*
X117605000Y-77245000D02*
X117600000Y-77240000D01*
X118430000Y-77140000D02*
X118074214Y-76784214D01*
X117320000Y-77240000D02*
X117170000Y-77390000D01*
X117170000Y-77590000D02*
X117560000Y-77980000D01*
X118140000Y-77980000D02*
X118430000Y-77690000D01*
X117560000Y-77980000D02*
X118140000Y-77980000D01*
X118074214Y-76784214D02*
X116544214Y-76784214D01*
X117600000Y-77240000D02*
X117320000Y-77240000D01*
X117170000Y-77390000D02*
X117170000Y-77590000D01*
%TO.N,/FPGA/MISO*%
X107580000Y-88200000D02*
X109233072Y-89853072D01*
X127535400Y-98408985D02*
X127535400Y-97855602D01*
X127535400Y-97855602D02*
X127545400Y-97845602D01*
X109233072Y-89853072D02*
X109233072Y-91877072D01*
X105210000Y-88200000D02*
X107580000Y-88200000D01*
X109233072Y-91877072D02*
X113266800Y-95910800D01*
%TO.N,/FPGA/SRAM_DQ2*%
X116700000Y-77530000D02*
X116700000Y-78190000D01*
X116180000Y-77010000D02*
X116700000Y-77530000D01*
X116180000Y-75920000D02*
X116180000Y-77010000D01*
X114422893Y-76077107D02*
X114738325Y-75761675D01*
X116021675Y-75761675D02*
X116180000Y-75920000D01*
X114738325Y-75761675D02*
X116021675Y-75761675D01*
%TO.N,/FPGA/PT65B*%
X106200000Y-83550000D02*
X106050000Y-83400000D01*
X106765030Y-83550000D02*
X106200000Y-83550000D01*
X112100000Y-88884970D02*
X106765030Y-83550000D01*
X115880000Y-93300000D02*
X112100000Y-89520000D01*
X120850000Y-92747200D02*
X120297200Y-93300000D01*
X112100000Y-89520000D02*
X112100000Y-88884970D01*
X106050000Y-83400000D02*
X105210000Y-83400000D01*
X120297200Y-93300000D02*
X115880000Y-93300000D01*
X120850000Y-92250000D02*
X120850000Y-92747200D01*
%TO.N,/FPGA/SRAM_DQ6*%
X118580000Y-74470000D02*
X118110000Y-74470000D01*
X118910000Y-76610000D02*
X118910000Y-74800000D01*
X118110000Y-74470000D02*
X117070000Y-75510000D01*
X117070000Y-75895787D02*
X117251320Y-76077107D01*
X117070000Y-75510000D02*
X117070000Y-75895787D01*
X118910000Y-74800000D02*
X118580000Y-74470000D01*
%TO.N,/FPGA/PROGRAMn*%
X106350000Y-84200000D02*
X105950000Y-83800000D01*
X105950000Y-83800000D02*
X105210000Y-83800000D01*
X106600000Y-84200000D02*
X106350000Y-84200000D01*
X105210000Y-83800000D02*
X105244464Y-83834464D01*
%TO.N,/FPGA/PT57A*%
X105210000Y-82600000D02*
X105700000Y-82600000D01*
%TO.N,/FPGA/PB50A*%
X128799000Y-90500000D02*
X125900000Y-87601000D01*
X130900000Y-90500000D02*
X128799000Y-90500000D01*
X131200000Y-90200000D02*
X130900000Y-90500000D01*
X131700000Y-90200000D02*
X131200000Y-90200000D01*
%TO.N,/FPGA/PB50B*%
X130800000Y-90000000D02*
X129000000Y-90000000D01*
X131000000Y-89800000D02*
X130800000Y-90000000D01*
X129000000Y-90000000D02*
X126600000Y-87600000D01*
X131700000Y-89800000D02*
X131000000Y-89800000D01*
D39*
%TO.N,/FPGA/PR11N*%
X133497051Y-90278460D02*
X133421741Y-90203150D01*
X134331540Y-90278460D02*
X133497051Y-90278460D01*
X134410000Y-90200000D02*
X134331540Y-90278460D01*
%TO.N,/FPGA/PB68P*%
X133485310Y-86921540D02*
X133410000Y-86996850D01*
X134410000Y-87000000D02*
X134331540Y-86921540D01*
X134331540Y-86921540D02*
X133485310Y-86921540D01*
%TO.N,/FPGA/PB64P*%
X134410000Y-84600000D02*
X134331540Y-84521540D01*
X133485310Y-84521540D02*
X133410000Y-84596850D01*
X134331540Y-84521540D02*
X133485310Y-84521540D01*
%TO.N,/FPGA/PB62P*%
X134331540Y-83078460D02*
X133485310Y-83078460D01*
X133485310Y-83078460D02*
X133410000Y-83003150D01*
X134410000Y-83000000D02*
X134331540Y-83078460D01*
%TO.N,/FPGA/PB58N*%
X134410000Y-79400000D02*
X134331540Y-79478460D01*
X134331540Y-79478460D02*
X133485310Y-79478460D01*
X133485310Y-79478460D02*
X133410000Y-79403150D01*
%TO.N,/FPGA/PB64N*%
X134410000Y-84200000D02*
X134331540Y-84278460D01*
X134331540Y-84278460D02*
X133485310Y-84278460D01*
X133485310Y-84278460D02*
X133410000Y-84203150D01*
%TO.N,/FPGA/PB58P*%
X134331540Y-79721540D02*
X133485310Y-79721540D01*
X134410000Y-79800000D02*
X134331540Y-79721540D01*
X133485310Y-79721540D02*
X133410000Y-79796850D01*
%TO.N,/FPGA/PB60N*%
X134410000Y-80600000D02*
X134331540Y-80678460D01*
X133485310Y-80678460D02*
X133410000Y-80603150D01*
X134331540Y-80678460D02*
X133485310Y-80678460D01*
%TO.N,/FPGA/PB62N*%
X134331540Y-83321540D02*
X133485310Y-83321540D01*
X134410000Y-83400000D02*
X134331540Y-83321540D01*
X133485310Y-83321540D02*
X133410000Y-83396850D01*
%TO.N,/FPGA/PR13N*%
X133485310Y-89078460D02*
X133410000Y-89003150D01*
X134331540Y-89078460D02*
X133485310Y-89078460D01*
X134410000Y-89000000D02*
X134331540Y-89078460D01*
%TO.N,/FPGA/PR13P*%
X134410000Y-89400000D02*
X134331540Y-89321540D01*
X134331540Y-89321540D02*
X133485310Y-89321540D01*
X133485310Y-89321540D02*
X133410000Y-89396850D01*
%TO.N,/FPGA/PB66N*%
X134331540Y-85478460D02*
X133485310Y-85478460D01*
X133485310Y-85478460D02*
X133410000Y-85403150D01*
X134410000Y-85400000D02*
X134331540Y-85478460D01*
%TO.N,/FPGA/PB68N*%
X134331540Y-86678460D02*
X133485310Y-86678460D01*
X134410000Y-86600000D02*
X134331540Y-86678460D01*
X133485310Y-86678460D02*
X133410000Y-86603150D01*
%TO.N,/FPGA/PB56P*%
X134331540Y-81878460D02*
X133485310Y-81878460D01*
X134410000Y-81800000D02*
X134331540Y-81878460D01*
X133485310Y-81878460D02*
X133410000Y-81803150D01*
%TO.N,/FPGA/PB60P*%
X133485310Y-80921540D02*
X133410000Y-80996850D01*
X134410000Y-81000000D02*
X134331540Y-80921540D01*
X134331540Y-80921540D02*
X133485310Y-80921540D01*
%TO.N,/FPGA/PB70P*%
X133485310Y-87878460D02*
X133410000Y-87803150D01*
X134331540Y-87878460D02*
X133485310Y-87878460D01*
X134410000Y-87800000D02*
X134331540Y-87878460D01*
%TO.N,/FPGA/PR11P*%
X133497051Y-90521540D02*
X133421741Y-90596850D01*
X134410000Y-90600000D02*
X134331540Y-90521540D01*
X134331540Y-90521540D02*
X133497051Y-90521540D01*
%TO.N,/FPGA/PB56N*%
X134331540Y-82121540D02*
X133485310Y-82121540D01*
X133485310Y-82121540D02*
X133410000Y-82196850D01*
X134410000Y-82200000D02*
X134331540Y-82121540D01*
%TO.N,/FPGA/PB66P*%
X133485310Y-85721540D02*
X133410000Y-85796850D01*
X134331540Y-85721540D02*
X133485310Y-85721540D01*
X134410000Y-85800000D02*
X134331540Y-85721540D01*
%TO.N,/FPGA/PB70N*%
X134331540Y-88121540D02*
X133485310Y-88121540D01*
X133485310Y-88121540D02*
X133410000Y-88196850D01*
X134410000Y-88200000D02*
X134331540Y-88121540D01*
%TO.N,/FPGA/PB18P*%
X131126538Y-80678461D02*
X130378461Y-80678461D01*
X131700000Y-80600000D02*
X131204999Y-80600000D01*
X125078460Y-75378460D02*
X123975310Y-75378460D01*
X123975310Y-75378460D02*
X123900000Y-75303150D01*
X130378461Y-80678461D02*
X125078460Y-75378460D01*
X131204999Y-80600000D02*
X131126538Y-80678461D01*
%TO.N,/FPGA/PB22N*%
X129275311Y-86678461D02*
X131126538Y-86678461D01*
X123900000Y-81303150D02*
X129275311Y-86678461D01*
X131204999Y-86600000D02*
X131700000Y-86600000D01*
X131126538Y-86678461D02*
X131204999Y-86600000D01*
%TO.N,/FPGA/PB26P*%
X131126538Y-83078461D02*
X131204999Y-83000000D01*
X130050343Y-83078461D02*
X131126538Y-83078461D01*
X131204999Y-83000000D02*
X131700000Y-83000000D01*
X124750342Y-77778460D02*
X130050343Y-83078461D01*
X123900000Y-77703150D02*
X123975310Y-77778460D01*
X123975310Y-77778460D02*
X124750342Y-77778460D01*
%TO.N,/FPGA/PB28P*%
X123900000Y-80518997D02*
X123975310Y-80443687D01*
X125277730Y-81719318D02*
X125252700Y-81744348D01*
X125659567Y-81931452D02*
X125701994Y-81973877D01*
X126014059Y-82285941D02*
X129449657Y-85721539D01*
X131204999Y-85800000D02*
X131700000Y-85800000D01*
X124853464Y-81125347D02*
X124853465Y-81125347D01*
X125464832Y-81956481D02*
X125489861Y-81931452D01*
X125252700Y-81914054D02*
X125295126Y-81956481D01*
X125235302Y-81507187D02*
X125277729Y-81549612D01*
X124853465Y-81295053D02*
X124828414Y-81320104D01*
X131126538Y-85721539D02*
X131204999Y-85800000D01*
X124429200Y-81004404D02*
X124489671Y-81064876D01*
X123975310Y-80443687D02*
X124171805Y-80443687D01*
X125040546Y-81532237D02*
X125065596Y-81507187D01*
X124171805Y-80443687D02*
X124429200Y-80701082D01*
X129449657Y-85721539D02*
X131126538Y-85721539D01*
X124792992Y-81064876D02*
X124853464Y-81125347D01*
X125277729Y-81549612D02*
X125277730Y-81549612D01*
X124828414Y-81489810D02*
X124870840Y-81532237D01*
X125701994Y-81973877D02*
X126014059Y-82285941D01*
X125065596Y-81507187D02*
G75*
G02*
X125235302Y-81507187I84853J-84854D01*
G01*
X125252700Y-81744348D02*
G75*
G03*
X125252701Y-81914053I84900J-84852D01*
G01*
X124853465Y-81125347D02*
G75*
G02*
X124853465Y-81295053I-84865J-84853D01*
G01*
X124641332Y-81064876D02*
G75*
G02*
X124792992Y-81064876I75830J-75829D01*
G01*
X124429200Y-80701082D02*
G75*
G02*
X124429188Y-80852730I-75800J-75818D01*
G01*
X124489671Y-81064876D02*
G75*
G03*
X124641332Y-81064877I75831J75831D01*
G01*
X124870840Y-81532237D02*
G75*
G03*
X125040546Y-81532237I84853J84854D01*
G01*
X125489861Y-81931452D02*
G75*
G02*
X125659567Y-81931452I84853J-84854D01*
G01*
X125277730Y-81549612D02*
G75*
G02*
X125277765Y-81719353I-84830J-84888D01*
G01*
X124429200Y-80852743D02*
G75*
G03*
X124429173Y-81004431I75800J-75857D01*
G01*
X125295126Y-81956481D02*
G75*
G03*
X125464832Y-81956481I84853J84854D01*
G01*
X124828414Y-81320104D02*
G75*
G03*
X124828371Y-81489853I84886J-84896D01*
G01*
%TO.N,/FPGA/PB24N*%
X129349657Y-88121539D02*
X131126538Y-88121539D01*
X131126538Y-88121539D02*
X131204999Y-88200000D01*
X123890910Y-82891468D02*
X123966220Y-82816158D01*
X124044276Y-82816158D02*
X129349657Y-88121539D01*
X131204999Y-88200000D02*
X131700000Y-88200000D01*
X123966220Y-82816158D02*
X124044276Y-82816158D01*
%TO.N,/FPGA/PB30P*%
X125283258Y-80305141D02*
X125283259Y-80305141D01*
X126131788Y-81153671D02*
X129437172Y-84459054D01*
X124858994Y-80135094D02*
X124944017Y-80220118D01*
X125622548Y-80644432D02*
X125707523Y-80729406D01*
X129499657Y-84521539D02*
X131126538Y-84521539D01*
X124774044Y-79795928D02*
X124858993Y-79880876D01*
X129437172Y-84459054D02*
X129499657Y-84521539D01*
X123975310Y-79221540D02*
X124199658Y-79221540D01*
X125283259Y-80559457D02*
X125368233Y-80644432D01*
X125707524Y-80983722D02*
X125792498Y-81068697D01*
X125198234Y-80220118D02*
X125283258Y-80305141D01*
X131126538Y-84521539D02*
X131204999Y-84600000D01*
X124858993Y-79880876D02*
X124858994Y-79880876D01*
X123900000Y-79296850D02*
X123975310Y-79221540D01*
X124434729Y-79710979D02*
X124519677Y-79795928D01*
X124199658Y-79221540D02*
X124434729Y-79456611D01*
X126046813Y-81068697D02*
X126131788Y-81153671D01*
X131204999Y-84600000D02*
X131700000Y-84600000D01*
X125707523Y-80729406D02*
X125707524Y-80729406D01*
X124858994Y-79880876D02*
G75*
G02*
X124858964Y-80007955I-63594J-63524D01*
G01*
X125919656Y-81068697D02*
G75*
G02*
X126046813Y-81068696I63579J-63579D01*
G01*
X124646861Y-79795928D02*
G75*
G02*
X124774044Y-79795927I63592J-63593D01*
G01*
X125707524Y-80729406D02*
G75*
G02*
X125707539Y-80856579I-63624J-63594D01*
G01*
X125071126Y-80220118D02*
G75*
G02*
X125198234Y-80220118I63554J-63554D01*
G01*
X124434729Y-79583795D02*
G75*
G03*
X124434716Y-79710992I63571J-63605D01*
G01*
X124944017Y-80220118D02*
G75*
G03*
X125071126Y-80220118I63554J63555D01*
G01*
X124434729Y-79456611D02*
G75*
G02*
X124434726Y-79583792I-63629J-63589D01*
G01*
X125495391Y-80644432D02*
G75*
G02*
X125622548Y-80644432I63578J-63579D01*
G01*
X125792498Y-81068697D02*
G75*
G03*
X125919656Y-81068697I63579J63580D01*
G01*
X125283259Y-80432299D02*
G75*
G03*
X125283237Y-80559479I63541J-63601D01*
G01*
X124519677Y-79795928D02*
G75*
G03*
X124646861Y-79795928I63592J63591D01*
G01*
X125707524Y-80856564D02*
G75*
G03*
X125707567Y-80983679I63576J-63536D01*
G01*
X125283259Y-80305141D02*
G75*
G02*
X125283239Y-80432279I-63559J-63559D01*
G01*
X125368233Y-80644432D02*
G75*
G03*
X125495391Y-80644432I63579J63580D01*
G01*
X124858994Y-80007985D02*
G75*
G03*
X124859033Y-80135054I63506J-63515D01*
G01*
%TO.N,/FPGA/PB16P*%
X131126538Y-79478461D02*
X130728461Y-79478461D01*
X123975310Y-74178460D02*
X123900000Y-74103150D01*
X130728461Y-79478461D02*
X125428460Y-74178460D01*
X125428460Y-74178460D02*
X123975310Y-74178460D01*
X131700000Y-79400000D02*
X131204999Y-79400000D01*
X131204999Y-79400000D02*
X131126538Y-79478461D01*
%TO.N,/FPGA/PB28N*%
X129550343Y-85478461D02*
X131126538Y-85478461D01*
X131126538Y-85478461D02*
X131204999Y-85400000D01*
X123900000Y-80125297D02*
X123975310Y-80200607D01*
X131204999Y-85400000D02*
X131700000Y-85400000D01*
X123975310Y-80200607D02*
X124272489Y-80200607D01*
X124272489Y-80200607D02*
X129550343Y-85478461D01*
%TO.N,/FPGA/PB22P*%
X129812512Y-87099089D02*
X129934962Y-87099089D01*
X123900000Y-81696850D02*
X123949935Y-81696850D01*
X131204999Y-87000000D02*
X131700000Y-87000000D01*
X131077566Y-86921539D02*
X131126538Y-86921539D01*
X129174624Y-86921539D02*
X129634962Y-86921539D01*
X130234962Y-86921539D02*
X131077566Y-86921539D01*
X131126538Y-86921539D02*
X131204999Y-87000000D01*
X123949935Y-81696850D02*
X129174624Y-86921539D01*
X130112512Y-86921539D02*
X130234962Y-86921539D01*
X129634962Y-86921539D02*
G75*
G02*
X129723761Y-87010314I38J-88761D01*
G01*
X129723737Y-87010314D02*
G75*
G03*
X129812512Y-87099063I88763J14D01*
G01*
X130023737Y-87010314D02*
G75*
G02*
X130112512Y-86921537I88763J14D01*
G01*
X129934962Y-87099089D02*
G75*
G03*
X130023789Y-87010314I38J88789D01*
G01*
%TO.N,/FPGA/PB20P*%
X124850342Y-76578460D02*
X130150343Y-81878461D01*
X131126538Y-81878461D02*
X131204999Y-81800000D01*
X131204999Y-81800000D02*
X131700000Y-81800000D01*
X123975310Y-76578460D02*
X124850342Y-76578460D01*
X130150343Y-81878461D02*
X131126538Y-81878461D01*
X123900000Y-76503150D02*
X123975310Y-76578460D01*
%TO.N,/FPGA/PB20N*%
X125703655Y-77775539D02*
X125825675Y-77897558D01*
X123900000Y-76896850D02*
X123975310Y-76821540D01*
X125401411Y-77653519D02*
X125523430Y-77775539D01*
X125320054Y-77391938D02*
X125401410Y-77473293D01*
X126227117Y-78298999D02*
X130049657Y-82121539D01*
X124977146Y-77310582D02*
X125058501Y-77391938D01*
X130049657Y-82121539D02*
X131126538Y-82121539D01*
X131126538Y-82121539D02*
X131204999Y-82200000D01*
X125401410Y-77473293D02*
X125401411Y-77473293D01*
X124749658Y-76821540D02*
X124977146Y-77049028D01*
X131204999Y-82200000D02*
X131700000Y-82200000D01*
X125825675Y-77897558D02*
X126227117Y-78298999D01*
X123975310Y-76821540D02*
X124749658Y-76821540D01*
X125613543Y-77775539D02*
G75*
G02*
X125703655Y-77775539I45056J-45055D01*
G01*
X125058501Y-77391938D02*
G75*
G03*
X125189279Y-77391939I65389J65388D01*
G01*
X125401411Y-77563406D02*
G75*
G03*
X125401373Y-77653556I45089J-45094D01*
G01*
X125401411Y-77473293D02*
G75*
G02*
X125401362Y-77563356I-45011J-45007D01*
G01*
X125189278Y-77391938D02*
G75*
G02*
X125320054Y-77391938I65388J-65387D01*
G01*
X125523430Y-77775539D02*
G75*
G03*
X125613543Y-77775540I45057J45057D01*
G01*
X124977146Y-77049028D02*
G75*
G02*
X124977130Y-77179788I-65346J-65372D01*
G01*
X124977146Y-77179805D02*
G75*
G03*
X124977139Y-77310589I65354J-65395D01*
G01*
%TO.N,/FPGA/PB18N*%
X124974978Y-75621540D02*
X123975310Y-75621540D01*
X130274977Y-80921539D02*
X124974978Y-75621540D01*
X131700000Y-81000000D02*
X131204999Y-81000000D01*
X123975310Y-75621540D02*
X123900000Y-75696850D01*
X131126538Y-80921539D02*
X130274977Y-80921539D01*
X131204999Y-81000000D02*
X131126538Y-80921539D01*
%TO.N,/FPGA/PB16N*%
X131204999Y-79800000D02*
X131126538Y-79721539D01*
X131700000Y-79800000D02*
X131204999Y-79800000D01*
X131126538Y-79721539D02*
X130627777Y-79721539D01*
X123975310Y-74421540D02*
X123900000Y-74496850D01*
X130627777Y-79721539D02*
X125327778Y-74421540D01*
X125327778Y-74421540D02*
X123975310Y-74421540D01*
%TO.N,/FPGA/PB30N*%
X131204999Y-84200000D02*
X131700000Y-84200000D01*
X123975310Y-78978460D02*
X124300342Y-78978460D01*
X129600343Y-84278461D02*
X131126538Y-84278461D01*
X123900000Y-78903150D02*
X123975310Y-78978460D01*
X131126538Y-84278461D02*
X131204999Y-84200000D01*
X124300342Y-78978460D02*
X129600343Y-84278461D01*
%TO.N,/FPGA/PB26N*%
X124839033Y-78709463D02*
X125014023Y-78884454D01*
X123900000Y-78096850D02*
X123975310Y-78021540D01*
X124649658Y-78021540D02*
X124839033Y-78210915D01*
X129949657Y-83321539D02*
X131126538Y-83321539D01*
X126793907Y-80165789D02*
X129949657Y-83321539D01*
X123975310Y-78021540D02*
X124649658Y-78021540D01*
X126536090Y-79907973D02*
X126793907Y-80165789D01*
X131204999Y-83400000D02*
X131700000Y-83400000D01*
X126361072Y-79732956D02*
X126536090Y-79907973D01*
X125687561Y-79059444D02*
X125687562Y-79059444D01*
X125687562Y-79557938D02*
X125862579Y-79732956D01*
X131126538Y-83321539D02*
X131204999Y-83400000D01*
X125512570Y-78884454D02*
X125687561Y-79059444D01*
X125687562Y-79308691D02*
G75*
G03*
X125687576Y-79557924I124638J-124609D01*
G01*
X126111826Y-79732956D02*
G75*
G02*
X126361072Y-79732956I124623J-124621D01*
G01*
X124839033Y-78460189D02*
G75*
G03*
X124839059Y-78709437I124667J-124611D01*
G01*
X125014023Y-78884454D02*
G75*
G03*
X125263297Y-78884454I124637J124638D01*
G01*
X125263297Y-78884454D02*
G75*
G02*
X125512570Y-78884453I124637J-124637D01*
G01*
X124839033Y-78210915D02*
G75*
G02*
X124839081Y-78460237I-124633J-124685D01*
G01*
X125862579Y-79732956D02*
G75*
G03*
X126111825Y-79732956I124623J124623D01*
G01*
X125687562Y-79059444D02*
G75*
G02*
X125687595Y-79308723I-124662J-124656D01*
G01*
%TO.N,/FPGA/PB24P*%
X131700000Y-87800000D02*
X131204999Y-87800000D01*
X123966220Y-82573078D02*
X123890910Y-82497768D01*
X131126538Y-87878461D02*
X130975735Y-87878461D01*
X129450343Y-87878461D02*
X124144960Y-82573078D01*
X129533131Y-87878461D02*
X129450343Y-87878461D01*
X131204999Y-87800000D02*
X131126538Y-87878461D01*
X129775735Y-87878461D02*
X129533131Y-87878461D01*
X130027177Y-87878461D02*
X129775735Y-87878461D01*
X130627177Y-87529903D02*
X130375735Y-87529903D01*
X124144960Y-82573078D02*
X123966220Y-82573078D01*
X130801456Y-87704182D02*
G75*
G03*
X130627177Y-87529944I-174256J-18D01*
G01*
X130201456Y-87704182D02*
G75*
G02*
X130027177Y-87878456I-174256J-18D01*
G01*
X130975735Y-87878461D02*
G75*
G02*
X130801439Y-87704182I-35J174261D01*
G01*
X130375735Y-87529903D02*
G75*
G03*
X130201403Y-87704182I-35J-174297D01*
G01*
%TO.N,/FPGA/PR7N*%
X105978461Y-91150343D02*
X105978461Y-92300343D01*
X105210000Y-91000000D02*
X105425000Y-91000000D01*
X107334690Y-93218390D02*
X107410000Y-93293700D01*
X105749657Y-90921539D02*
X105978461Y-91150343D01*
X105425000Y-91000000D02*
X105503461Y-90921539D01*
X105978461Y-92300343D02*
X106896508Y-93218390D01*
X106896508Y-93218390D02*
X107334690Y-93218390D01*
X105503461Y-90921539D02*
X105749657Y-90921539D01*
%TO.N,/FPGA/PT67P*%
X106921539Y-90549657D02*
X106921539Y-91449657D01*
X106921539Y-91449657D02*
X107250342Y-91778460D01*
X107324690Y-91778460D02*
X107400000Y-91703150D01*
X105425000Y-89400000D02*
X105503461Y-89478461D01*
X105503461Y-89478461D02*
X105850343Y-89478461D01*
X107250342Y-91778460D02*
X107324690Y-91778460D01*
X105210000Y-89400000D02*
X105425000Y-89400000D01*
X105850343Y-89478461D02*
X106921539Y-90549657D01*
%TO.N,/FPGA/PT67N*%
X107149658Y-92021540D02*
X107324690Y-92021540D01*
X107324690Y-92021540D02*
X107400000Y-92096850D01*
X105503461Y-89721539D02*
X105749657Y-89721539D01*
X105749657Y-89721539D02*
X106678461Y-90650343D01*
X106678461Y-90650343D02*
X106678461Y-91550343D01*
X105210000Y-89800000D02*
X105425000Y-89800000D01*
X106678461Y-91550343D02*
X107149658Y-92021540D01*
X105425000Y-89800000D02*
X105503461Y-89721539D01*
%TO.N,/FPGA/PR7P*%
X106997192Y-92975310D02*
X107334690Y-92975310D01*
X107334690Y-92975310D02*
X107410000Y-92900000D01*
X106221539Y-92199657D02*
X106997192Y-92975310D01*
X106221539Y-91049657D02*
X106221539Y-92199657D01*
X105425000Y-90600000D02*
X105503461Y-90678461D01*
X105850343Y-90678461D02*
X106221539Y-91049657D01*
X105503461Y-90678461D02*
X105850343Y-90678461D01*
X105210000Y-90600000D02*
X105425000Y-90600000D01*
%TD*%
%TA.AperFunction,Conductor*%
%TO.N,GND*%
G36*
X100713703Y-82304593D02*
G01*
X100720181Y-82310625D01*
X100720284Y-82310728D01*
X101277732Y-82868176D01*
X101367000Y-82919715D01*
X101376512Y-82925207D01*
X101486687Y-82954728D01*
X101559132Y-82954728D01*
X101571974Y-82957479D01*
X101591610Y-82968120D01*
X101613039Y-82974413D01*
X101621731Y-82984444D01*
X101633403Y-82990770D01*
X101644169Y-83010339D01*
X101658794Y-83027217D01*
X101662285Y-83043268D01*
X101667082Y-83051986D01*
X101666388Y-83062128D01*
X101670000Y-83078728D01*
X101670000Y-83162844D01*
X101676401Y-83222372D01*
X101676402Y-83222376D01*
X101726648Y-83357090D01*
X101763766Y-83406672D01*
X101770478Y-83424666D01*
X101781636Y-83440300D01*
X101786035Y-83466375D01*
X101788184Y-83472136D01*
X101788353Y-83474949D01*
X101788500Y-83477965D01*
X101788500Y-83551206D01*
X101793861Y-83588007D01*
X101794152Y-83593965D01*
X101793004Y-83598719D01*
X101793004Y-83617873D01*
X101788500Y-83648794D01*
X101788500Y-83719014D01*
X101768815Y-83786053D01*
X101763767Y-83793325D01*
X101726647Y-83842910D01*
X101726645Y-83842913D01*
X101676403Y-83977620D01*
X101676401Y-83977626D01*
X101671484Y-84023360D01*
X101644745Y-84087911D01*
X101589873Y-84126007D01*
X101589950Y-84126191D01*
X101589104Y-84126541D01*
X101587352Y-84127758D01*
X101583050Y-84129049D01*
X101582437Y-84129303D01*
X101466488Y-84196246D01*
X101466482Y-84196251D01*
X101371812Y-84290921D01*
X101371810Y-84290924D01*
X101304864Y-84406875D01*
X101270211Y-84536205D01*
X101270211Y-84670096D01*
X101296419Y-84767908D01*
X101296419Y-84832092D01*
X101270211Y-84929903D01*
X101270211Y-84929905D01*
X101270211Y-85063795D01*
X101304864Y-85193124D01*
X101371810Y-85309076D01*
X101466485Y-85403751D01*
X101581394Y-85470095D01*
X101582437Y-85470697D01*
X101589941Y-85473805D01*
X101589212Y-85475563D01*
X101639937Y-85506472D01*
X101670475Y-85569315D01*
X101671484Y-85576638D01*
X101676401Y-85622373D01*
X101676402Y-85622376D01*
X101726648Y-85757090D01*
X101763766Y-85806672D01*
X101770478Y-85824666D01*
X101781636Y-85840300D01*
X101786035Y-85866375D01*
X101788184Y-85872136D01*
X101788353Y-85874949D01*
X101788500Y-85877965D01*
X101788500Y-85951206D01*
X101793861Y-85988007D01*
X101794152Y-85993965D01*
X101793004Y-85998719D01*
X101793004Y-86017873D01*
X101788500Y-86048794D01*
X101788500Y-86119014D01*
X101768815Y-86186053D01*
X101763767Y-86193325D01*
X101726647Y-86242910D01*
X101726645Y-86242913D01*
X101676403Y-86377620D01*
X101676401Y-86377626D01*
X101671771Y-86420692D01*
X101645032Y-86485243D01*
X101587639Y-86525090D01*
X101580582Y-86527208D01*
X101572767Y-86529302D01*
X101572766Y-86529302D01*
X101456814Y-86596249D01*
X101456811Y-86596251D01*
X101362141Y-86690921D01*
X101362139Y-86690924D01*
X101295193Y-86806875D01*
X101260540Y-86936205D01*
X101260540Y-87070096D01*
X101286748Y-87167908D01*
X101286748Y-87232092D01*
X101260540Y-87329903D01*
X101260540Y-87329905D01*
X101260540Y-87463795D01*
X101295193Y-87593124D01*
X101362139Y-87709076D01*
X101456814Y-87803751D01*
X101572766Y-87870697D01*
X101580576Y-87872789D01*
X101640236Y-87909154D01*
X101670765Y-87972000D01*
X101671771Y-87979307D01*
X101676401Y-88022373D01*
X101676402Y-88022376D01*
X101726648Y-88157090D01*
X101763766Y-88206672D01*
X101770478Y-88224666D01*
X101781636Y-88240300D01*
X101786035Y-88266375D01*
X101788184Y-88272136D01*
X101788353Y-88274949D01*
X101788500Y-88277965D01*
X101788500Y-88351206D01*
X101793861Y-88388007D01*
X101794152Y-88393965D01*
X101793004Y-88398719D01*
X101793004Y-88417873D01*
X101788500Y-88448794D01*
X101788500Y-88519014D01*
X101768815Y-88586053D01*
X101763767Y-88593325D01*
X101726647Y-88642910D01*
X101726645Y-88642913D01*
X101676403Y-88777620D01*
X101676401Y-88777626D01*
X101671284Y-88825219D01*
X101644545Y-88889770D01*
X101595450Y-88926522D01*
X101588742Y-88929300D01*
X101472786Y-88996249D01*
X101472783Y-88996251D01*
X101378113Y-89090921D01*
X101378111Y-89090924D01*
X101311165Y-89206875D01*
X101276512Y-89336205D01*
X101276512Y-89470096D01*
X101302720Y-89567908D01*
X101302720Y-89632092D01*
X101276512Y-89729903D01*
X101276512Y-89729905D01*
X101276512Y-89863795D01*
X101299933Y-89951206D01*
X101311165Y-89993124D01*
X101378112Y-90109078D01*
X101379315Y-90110645D01*
X101379918Y-90112204D01*
X101382175Y-90116114D01*
X101381565Y-90116466D01*
X101404508Y-90175814D01*
X101390469Y-90244259D01*
X101368621Y-90273809D01*
X101351510Y-90290920D01*
X101351507Y-90290924D01*
X101284561Y-90406875D01*
X101249908Y-90536205D01*
X101249908Y-90670096D01*
X101276116Y-90767908D01*
X101276116Y-90832092D01*
X101249908Y-90929903D01*
X101249908Y-90929905D01*
X101249908Y-91063795D01*
X101284561Y-91193124D01*
X101351507Y-91309076D01*
X101446182Y-91403751D01*
X101562134Y-91470697D01*
X101691463Y-91505350D01*
X101691465Y-91505350D01*
X101696593Y-91506724D01*
X101756254Y-91543089D01*
X101786783Y-91605935D01*
X101788500Y-91626499D01*
X101788500Y-91686206D01*
X101799304Y-91760361D01*
X101799304Y-91760362D01*
X101799305Y-91760364D01*
X101855221Y-91874743D01*
X101855223Y-91874746D01*
X101945253Y-91964776D01*
X101945256Y-91964778D01*
X102050702Y-92016327D01*
X102059639Y-92020696D01*
X102133794Y-92031500D01*
X102133800Y-92031500D01*
X102866200Y-92031500D01*
X102866206Y-92031500D01*
X102940361Y-92020696D01*
X102997553Y-91992736D01*
X103054743Y-91964778D01*
X103054746Y-91964776D01*
X103144776Y-91874746D01*
X103144778Y-91874743D01*
X103192590Y-91776942D01*
X103200696Y-91760361D01*
X103211500Y-91686206D01*
X103211500Y-91263794D01*
X103205902Y-91225372D01*
X103205902Y-91189627D01*
X103211500Y-91151206D01*
X103211500Y-90851586D01*
X103231185Y-90784547D01*
X103283989Y-90738792D01*
X103353147Y-90728848D01*
X103416703Y-90757873D01*
X103423167Y-90763892D01*
X103792179Y-91132903D01*
X103872832Y-91213556D01*
X103971611Y-91270587D01*
X104026289Y-91285237D01*
X104081877Y-91317331D01*
X104113676Y-91349130D01*
X104229628Y-91416076D01*
X104358957Y-91450729D01*
X104358959Y-91450729D01*
X104374500Y-91450729D01*
X104441539Y-91470414D01*
X104487294Y-91523218D01*
X104498500Y-91574729D01*
X104498500Y-91686206D01*
X104509304Y-91760361D01*
X104509304Y-91760362D01*
X104509305Y-91760364D01*
X104565221Y-91874743D01*
X104565223Y-91874746D01*
X104655253Y-91964776D01*
X104655256Y-91964778D01*
X104760702Y-92016327D01*
X104769639Y-92020696D01*
X104843794Y-92031500D01*
X105421272Y-92031500D01*
X105488311Y-92051185D01*
X105534066Y-92103989D01*
X105545272Y-92155500D01*
X105545272Y-92357373D01*
X105554154Y-92390522D01*
X105563839Y-92426666D01*
X105563839Y-92426667D01*
X105574791Y-92467544D01*
X105574792Y-92467546D01*
X105574793Y-92467548D01*
X105631824Y-92566328D01*
X106630524Y-93565028D01*
X106729304Y-93622059D01*
X106729305Y-93622059D01*
X106729305Y-93622060D01*
X106796729Y-93640124D01*
X106839478Y-93651579D01*
X106990540Y-93651579D01*
X107057579Y-93671264D01*
X107078221Y-93687898D01*
X107097774Y-93707451D01*
X107213726Y-93774397D01*
X107343055Y-93809050D01*
X107343057Y-93809050D01*
X107476943Y-93809050D01*
X107476945Y-93809050D01*
X107606274Y-93774397D01*
X107722226Y-93707451D01*
X107816901Y-93612776D01*
X107883847Y-93496824D01*
X107918500Y-93367495D01*
X107918500Y-93233605D01*
X107892291Y-93135789D01*
X107892291Y-93071610D01*
X107918500Y-92973795D01*
X107918500Y-92839905D01*
X107883847Y-92710576D01*
X107816901Y-92594624D01*
X107810233Y-92587956D01*
X107776748Y-92526633D01*
X107781732Y-92456941D01*
X107803289Y-92423397D01*
X107801954Y-92422372D01*
X107806893Y-92415933D01*
X107806901Y-92415926D01*
X107873847Y-92299974D01*
X107908500Y-92170645D01*
X107908500Y-92036755D01*
X107882291Y-91938939D01*
X107882291Y-91874760D01*
X107908500Y-91776945D01*
X107908500Y-91643055D01*
X107873847Y-91513726D01*
X107806901Y-91397774D01*
X107712226Y-91303099D01*
X107596274Y-91236153D01*
X107521397Y-91216090D01*
X107466938Y-91201498D01*
X107462537Y-91200919D01*
X107459099Y-91199398D01*
X107459095Y-91199397D01*
X107459095Y-91199396D01*
X107398642Y-91172650D01*
X107360173Y-91114323D01*
X107354728Y-91077981D01*
X107354728Y-90492629D01*
X107354728Y-90492627D01*
X107325207Y-90382452D01*
X107316404Y-90367205D01*
X107268176Y-90283672D01*
X106764016Y-89779512D01*
X106255918Y-89271413D01*
X106222433Y-89210090D01*
X106227417Y-89140398D01*
X106269289Y-89084465D01*
X106334753Y-89060048D01*
X106343599Y-89059732D01*
X106928211Y-89059732D01*
X106995250Y-89079417D01*
X107015892Y-89096051D01*
X108193949Y-90274108D01*
X108227434Y-90335431D01*
X108230268Y-90361789D01*
X108230268Y-92340275D01*
X108230268Y-92461325D01*
X108261598Y-92578250D01*
X108322123Y-92683082D01*
X108322125Y-92683084D01*
X112254151Y-96615110D01*
X112279651Y-96659267D01*
X112281841Y-96658361D01*
X112284952Y-96665871D01*
X112284953Y-96665874D01*
X112315436Y-96718671D01*
X112351896Y-96781822D01*
X112351898Y-96781824D01*
X112351899Y-96781826D01*
X112446574Y-96876501D01*
X112562526Y-96943447D01*
X112691855Y-96978100D01*
X112691857Y-96978100D01*
X112825743Y-96978100D01*
X112825745Y-96978100D01*
X112955074Y-96943447D01*
X113071026Y-96876501D01*
X113165701Y-96781826D01*
X113232647Y-96665874D01*
X113267300Y-96536545D01*
X113267300Y-96532252D01*
X113268324Y-96528763D01*
X113268361Y-96528485D01*
X113268404Y-96528490D01*
X113286985Y-96465213D01*
X113339789Y-96419458D01*
X113359200Y-96412479D01*
X113463074Y-96384647D01*
X113579026Y-96317701D01*
X113673701Y-96223026D01*
X113740647Y-96107074D01*
X113775300Y-95977745D01*
X113775300Y-95966271D01*
X113794985Y-95899232D01*
X113847789Y-95853477D01*
X113867199Y-95846498D01*
X113944274Y-95825847D01*
X114060226Y-95758901D01*
X114154901Y-95664226D01*
X114221847Y-95548274D01*
X114256500Y-95418945D01*
X114256500Y-95401469D01*
X114276185Y-95334430D01*
X114328989Y-95288675D01*
X114348403Y-95281695D01*
X114403074Y-95267047D01*
X114519026Y-95200101D01*
X114613701Y-95105426D01*
X114680647Y-94989474D01*
X114715300Y-94860145D01*
X114715300Y-94842669D01*
X114734985Y-94775630D01*
X114787789Y-94729875D01*
X114807203Y-94722895D01*
X114861874Y-94708247D01*
X114977826Y-94641301D01*
X115072501Y-94546626D01*
X115139447Y-94430674D01*
X115174100Y-94301345D01*
X115174100Y-94301342D01*
X115174906Y-94298334D01*
X115211270Y-94238673D01*
X115262589Y-94210651D01*
X115296274Y-94201626D01*
X115412226Y-94134680D01*
X115506901Y-94040005D01*
X115573847Y-93924053D01*
X115599287Y-93829105D01*
X115635650Y-93769447D01*
X115698497Y-93738917D01*
X115751151Y-93741424D01*
X115819475Y-93759732D01*
X115819478Y-93759732D01*
X120357722Y-93759732D01*
X120357725Y-93759732D01*
X120474650Y-93728402D01*
X120579482Y-93667877D01*
X121217877Y-93029482D01*
X121241548Y-92988483D01*
X121292114Y-92940267D01*
X121360721Y-92927043D01*
X121396387Y-92935921D01*
X121455394Y-92960362D01*
X121455399Y-92960364D01*
X121578172Y-92984785D01*
X121578176Y-92984786D01*
X121578177Y-92984786D01*
X121703360Y-92984786D01*
X121703361Y-92984785D01*
X121826137Y-92960364D01*
X121941790Y-92912459D01*
X122045876Y-92842911D01*
X122134393Y-92754394D01*
X122203941Y-92650308D01*
X122251846Y-92534655D01*
X122276268Y-92411877D01*
X122276268Y-92286695D01*
X122273531Y-92272934D01*
X122279758Y-92203342D01*
X122322621Y-92148165D01*
X122388511Y-92124920D01*
X122456508Y-92140988D01*
X122457149Y-92141356D01*
X122503720Y-92168244D01*
X122503721Y-92168244D01*
X122503726Y-92168247D01*
X122633055Y-92202900D01*
X122633057Y-92202900D01*
X122766943Y-92202900D01*
X122766945Y-92202900D01*
X122896274Y-92168247D01*
X123012226Y-92101301D01*
X123106901Y-92006626D01*
X123173847Y-91890674D01*
X123208500Y-91761345D01*
X123208500Y-91627455D01*
X123173847Y-91498126D01*
X123106901Y-91382174D01*
X123106896Y-91382169D01*
X123101954Y-91375728D01*
X123103825Y-91374291D01*
X123076123Y-91323558D01*
X123081107Y-91253866D01*
X123109605Y-91209521D01*
X123251213Y-91067915D01*
X123318159Y-90951962D01*
X123322277Y-90936593D01*
X123352812Y-90822633D01*
X123352812Y-90353775D01*
X123372497Y-90286736D01*
X123389131Y-90266094D01*
X123889373Y-89765851D01*
X123950696Y-89732366D01*
X124020387Y-89737350D01*
X124064735Y-89765851D01*
X124242927Y-89944043D01*
X124276412Y-90005366D01*
X124271428Y-90075058D01*
X124242927Y-90119405D01*
X123779921Y-90582411D01*
X123781923Y-90633413D01*
X123773374Y-90683763D01*
X123758468Y-90721562D01*
X123758467Y-90721566D01*
X123748500Y-90804565D01*
X123748500Y-91155438D01*
X123758467Y-91238438D01*
X123758467Y-91238439D01*
X123810555Y-91370525D01*
X123844339Y-91415076D01*
X123869162Y-91480388D01*
X123854734Y-91548752D01*
X123844339Y-91564926D01*
X123810555Y-91609476D01*
X123758467Y-91741562D01*
X123758467Y-91741563D01*
X123748500Y-91824563D01*
X123748500Y-92175436D01*
X123758467Y-92258436D01*
X123758467Y-92258437D01*
X123810555Y-92390523D01*
X123896345Y-92503654D01*
X124009476Y-92589444D01*
X124009477Y-92589444D01*
X124009478Y-92589445D01*
X124141561Y-92641532D01*
X124224564Y-92651500D01*
X124239900Y-92651500D01*
X124306939Y-92671185D01*
X124352694Y-92723989D01*
X124363900Y-92775500D01*
X124363900Y-93307443D01*
X124370385Y-93367753D01*
X124370388Y-93367764D01*
X124421284Y-93504220D01*
X124421285Y-93504221D01*
X124462167Y-93558833D01*
X124469338Y-93578060D01*
X124480893Y-93595017D01*
X124484717Y-93619292D01*
X124486584Y-93624296D01*
X124486855Y-93629804D01*
X124486900Y-93631474D01*
X124486900Y-93662547D01*
X124487830Y-93666019D01*
X124488126Y-93676990D01*
X124480773Y-93704779D01*
X124476344Y-93733180D01*
X124471396Y-93740215D01*
X124470254Y-93744535D01*
X124464943Y-93749392D01*
X124451854Y-93768008D01*
X124435624Y-93784238D01*
X124435623Y-93784240D01*
X124379704Y-93898621D01*
X124379704Y-93898624D01*
X124368900Y-93972779D01*
X124368900Y-97445191D01*
X124374048Y-97480524D01*
X124379704Y-97519347D01*
X124421742Y-97605337D01*
X124433500Y-97674210D01*
X124406157Y-97738507D01*
X124398025Y-97747475D01*
X124372632Y-97772868D01*
X124372624Y-97772879D01*
X124292244Y-97908796D01*
X124292243Y-97908799D01*
X124248189Y-98060431D01*
X124248188Y-98060437D01*
X124245400Y-98095866D01*
X124245400Y-98158985D01*
X124871400Y-98158985D01*
X124938439Y-98178670D01*
X124984194Y-98231474D01*
X124995400Y-98282985D01*
X124995400Y-98534985D01*
X124975715Y-98602024D01*
X124922911Y-98647779D01*
X124871400Y-98658985D01*
X124245400Y-98658985D01*
X124245400Y-98722103D01*
X124248188Y-98757532D01*
X124248189Y-98757538D01*
X124292243Y-98909170D01*
X124292244Y-98909173D01*
X124372626Y-99045093D01*
X124372632Y-99045101D01*
X124484283Y-99156752D01*
X124484291Y-99156758D01*
X124620211Y-99237140D01*
X124620214Y-99237141D01*
X124659048Y-99248424D01*
X124717933Y-99286030D01*
X124747140Y-99349502D01*
X124737394Y-99418689D01*
X124691790Y-99471623D01*
X124624807Y-99491499D01*
X124624453Y-99491500D01*
X122549172Y-99491500D01*
X122482133Y-99471815D01*
X122436378Y-99419011D01*
X122426434Y-99349853D01*
X122426838Y-99347241D01*
X122436930Y-99286297D01*
X122471576Y-99077088D01*
X122501238Y-98656050D01*
X122491343Y-98234083D01*
X122441979Y-97814897D01*
X122353578Y-97402176D01*
X122343052Y-97368717D01*
X122251930Y-97079057D01*
X122226917Y-96999546D01*
X122063110Y-96610547D01*
X121863597Y-96238595D01*
X121853261Y-96223028D01*
X121630136Y-95886970D01*
X121630135Y-95886969D01*
X121630130Y-95886961D01*
X121364761Y-95558733D01*
X121145656Y-95334430D01*
X121069827Y-95256802D01*
X121069826Y-95256801D01*
X121069823Y-95256798D01*
X120891321Y-95105425D01*
X120747903Y-94983804D01*
X120401849Y-94742166D01*
X120401841Y-94742161D01*
X120034682Y-94533990D01*
X120034664Y-94533981D01*
X119649623Y-94361105D01*
X119649606Y-94361098D01*
X119250084Y-94225043D01*
X119250076Y-94225040D01*
X118839520Y-94126983D01*
X118421630Y-94067809D01*
X118421624Y-94067808D01*
X118421619Y-94067808D01*
X118000000Y-94048025D01*
X117578381Y-94067808D01*
X117578376Y-94067808D01*
X117578369Y-94067809D01*
X117160479Y-94126983D01*
X116749923Y-94225040D01*
X116749915Y-94225043D01*
X116350393Y-94361098D01*
X116350376Y-94361105D01*
X115965335Y-94533981D01*
X115965317Y-94533990D01*
X115598158Y-94742161D01*
X115598150Y-94742166D01*
X115252096Y-94983804D01*
X114930172Y-95256802D01*
X114635243Y-95558728D01*
X114635236Y-95558735D01*
X114369880Y-95886948D01*
X114369863Y-95886970D01*
X114136403Y-96238593D01*
X113976584Y-96536545D01*
X113936890Y-96610547D01*
X113782114Y-96978100D01*
X113773080Y-96999554D01*
X113646422Y-97402172D01*
X113558020Y-97814899D01*
X113508656Y-98234083D01*
X113508656Y-98234085D01*
X113498762Y-98656050D01*
X113498762Y-98656061D01*
X113528423Y-99077082D01*
X113573162Y-99347241D01*
X113564695Y-99416596D01*
X113520075Y-99470363D01*
X113453471Y-99491472D01*
X113450828Y-99491500D01*
X101261989Y-99491500D01*
X101194950Y-99471815D01*
X101174308Y-99455181D01*
X100544819Y-98825691D01*
X100511334Y-98764368D01*
X100508500Y-98738010D01*
X100508500Y-96920943D01*
X102399500Y-96920943D01*
X102399500Y-97079056D01*
X102440423Y-97231783D01*
X102440426Y-97231790D01*
X102519475Y-97368709D01*
X102519479Y-97368714D01*
X102519480Y-97368716D01*
X102631284Y-97480520D01*
X102631286Y-97480521D01*
X102631290Y-97480524D01*
X102768209Y-97559573D01*
X102768216Y-97559577D01*
X102920943Y-97600500D01*
X102920945Y-97600500D01*
X103079055Y-97600500D01*
X103079057Y-97600500D01*
X103231784Y-97559577D01*
X103368716Y-97480520D01*
X103480520Y-97368716D01*
X103559577Y-97231784D01*
X103600500Y-97079057D01*
X103600500Y-96920943D01*
X103559577Y-96768216D01*
X103559573Y-96768209D01*
X103480524Y-96631290D01*
X103480518Y-96631282D01*
X103368717Y-96519481D01*
X103368709Y-96519475D01*
X103231790Y-96440426D01*
X103231786Y-96440424D01*
X103231784Y-96440423D01*
X103079057Y-96399500D01*
X102920943Y-96399500D01*
X102768216Y-96440423D01*
X102768209Y-96440426D01*
X102631290Y-96519475D01*
X102631282Y-96519481D01*
X102519481Y-96631282D01*
X102519475Y-96631290D01*
X102440426Y-96768209D01*
X102440423Y-96768216D01*
X102399500Y-96920943D01*
X100508500Y-96920943D01*
X100508500Y-82398306D01*
X100528185Y-82331267D01*
X100580989Y-82285512D01*
X100650147Y-82275568D01*
X100713703Y-82304593D01*
G37*
%TD.AperFunction*%
%TA.AperFunction,Conductor*%
G36*
X134805049Y-70528185D02*
G01*
X134825691Y-70544819D01*
X135455181Y-71174308D01*
X135488666Y-71235631D01*
X135491500Y-71261989D01*
X135491500Y-98738010D01*
X135471815Y-98805049D01*
X135455181Y-98825691D01*
X134825691Y-99455181D01*
X134764368Y-99488666D01*
X134738010Y-99491500D01*
X125366347Y-99491500D01*
X125299308Y-99471815D01*
X125253553Y-99419011D01*
X125243609Y-99349853D01*
X125272634Y-99286297D01*
X125331412Y-99248523D01*
X125331752Y-99248424D01*
X125370585Y-99237141D01*
X125370588Y-99237140D01*
X125506508Y-99156758D01*
X125506516Y-99156752D01*
X125623689Y-99039580D01*
X125625859Y-99041750D01*
X125670888Y-99009200D01*
X125740653Y-99005378D01*
X125786590Y-99026822D01*
X125895160Y-99108098D01*
X125895163Y-99108100D01*
X126031620Y-99158996D01*
X126031623Y-99158996D01*
X126031629Y-99158999D01*
X126044067Y-99160336D01*
X126091941Y-99165484D01*
X126091958Y-99165485D01*
X126438842Y-99165485D01*
X126438858Y-99165484D01*
X126480512Y-99161004D01*
X126499171Y-99158999D01*
X126635636Y-99108100D01*
X126752232Y-99020817D01*
X126801133Y-98955492D01*
X126857067Y-98913621D01*
X126926758Y-98908637D01*
X126988081Y-98942122D01*
X126999667Y-98955493D01*
X127048566Y-99020815D01*
X127048567Y-99020815D01*
X127048568Y-99020817D01*
X127165164Y-99108100D01*
X127165163Y-99108100D01*
X127301620Y-99158996D01*
X127301623Y-99158996D01*
X127301629Y-99158999D01*
X127314067Y-99160336D01*
X127361941Y-99165484D01*
X127361958Y-99165485D01*
X127708842Y-99165485D01*
X127708858Y-99165484D01*
X127750512Y-99161004D01*
X127769171Y-99158999D01*
X127905636Y-99108100D01*
X128022232Y-99020817D01*
X128071133Y-98955492D01*
X128127067Y-98913621D01*
X128196758Y-98908637D01*
X128258081Y-98942122D01*
X128269667Y-98955493D01*
X128318566Y-99020815D01*
X128318567Y-99020815D01*
X128318568Y-99020817D01*
X128435164Y-99108100D01*
X128435163Y-99108100D01*
X128571620Y-99158996D01*
X128571623Y-99158996D01*
X128571629Y-99158999D01*
X128584067Y-99160336D01*
X128631941Y-99165484D01*
X128631958Y-99165485D01*
X128978842Y-99165485D01*
X128978858Y-99165484D01*
X129020512Y-99161004D01*
X129039171Y-99158999D01*
X129175636Y-99108100D01*
X129292232Y-99020817D01*
X129379515Y-98904221D01*
X129430414Y-98767756D01*
X129433612Y-98738010D01*
X129436899Y-98707443D01*
X129436900Y-98707426D01*
X129436900Y-98110543D01*
X129436899Y-98110526D01*
X129430414Y-98050216D01*
X129430414Y-98050214D01*
X129379515Y-97913749D01*
X129328632Y-97845777D01*
X129305369Y-97790497D01*
X129303900Y-97781037D01*
X129303900Y-97778657D01*
X129303020Y-97775375D01*
X129301995Y-97768771D01*
X129305734Y-97740500D01*
X129306411Y-97711995D01*
X129310363Y-97705509D01*
X129311158Y-97699505D01*
X129321378Y-97687438D01*
X129336844Y-97662061D01*
X129365176Y-97633731D01*
X129421096Y-97519346D01*
X129431900Y-97445191D01*
X129431900Y-96920943D01*
X132399500Y-96920943D01*
X132399500Y-97079056D01*
X132440423Y-97231783D01*
X132440426Y-97231790D01*
X132519475Y-97368709D01*
X132519479Y-97368714D01*
X132519480Y-97368716D01*
X132631284Y-97480520D01*
X132631286Y-97480521D01*
X132631290Y-97480524D01*
X132768209Y-97559573D01*
X132768216Y-97559577D01*
X132920943Y-97600500D01*
X132920945Y-97600500D01*
X133079055Y-97600500D01*
X133079057Y-97600500D01*
X133231784Y-97559577D01*
X133368716Y-97480520D01*
X133480520Y-97368716D01*
X133559577Y-97231784D01*
X133600500Y-97079057D01*
X133600500Y-96920943D01*
X133559577Y-96768216D01*
X133559573Y-96768209D01*
X133480524Y-96631290D01*
X133480518Y-96631282D01*
X133368717Y-96519481D01*
X133368709Y-96519475D01*
X133231790Y-96440426D01*
X133231786Y-96440424D01*
X133231784Y-96440423D01*
X133079057Y-96399500D01*
X132920943Y-96399500D01*
X132768216Y-96440423D01*
X132768209Y-96440426D01*
X132631290Y-96519475D01*
X132631282Y-96519481D01*
X132519481Y-96631282D01*
X132519475Y-96631290D01*
X132440426Y-96768209D01*
X132440423Y-96768216D01*
X132399500Y-96920943D01*
X129431900Y-96920943D01*
X129431900Y-93972779D01*
X129421096Y-93898624D01*
X129418761Y-93893848D01*
X129365178Y-93784241D01*
X129365176Y-93784238D01*
X129329474Y-93748536D01*
X129295989Y-93687213D01*
X129300973Y-93617521D01*
X129317886Y-93586546D01*
X129379515Y-93504221D01*
X129430414Y-93367756D01*
X129432419Y-93349097D01*
X129436899Y-93307443D01*
X129436900Y-93307426D01*
X129436900Y-92710543D01*
X129436899Y-92710526D01*
X129430414Y-92650216D01*
X129430414Y-92650214D01*
X129379515Y-92513749D01*
X129292232Y-92397153D01*
X129175636Y-92309870D01*
X129175634Y-92309869D01*
X129175636Y-92309869D01*
X129039179Y-92258973D01*
X129039169Y-92258970D01*
X129003221Y-92255105D01*
X128938671Y-92228366D01*
X128898824Y-92170972D01*
X128896332Y-92101147D01*
X128928796Y-92044136D01*
X129000425Y-91972508D01*
X129069973Y-91868422D01*
X129117878Y-91752769D01*
X129142300Y-91629991D01*
X129142300Y-91504809D01*
X129117878Y-91382031D01*
X129093658Y-91323558D01*
X129069976Y-91266384D01*
X129069969Y-91266371D01*
X128997041Y-91157227D01*
X128998033Y-91156564D01*
X128973198Y-91098080D01*
X128984993Y-91029213D01*
X129032148Y-90977656D01*
X129096365Y-90959732D01*
X130746000Y-90959732D01*
X130813039Y-90979417D01*
X130858794Y-91032221D01*
X130870000Y-91083732D01*
X130870000Y-91162844D01*
X130876401Y-91222372D01*
X130876402Y-91222376D01*
X130926648Y-91357090D01*
X130963766Y-91406672D01*
X130988184Y-91472136D01*
X130988500Y-91480984D01*
X130988500Y-91686206D01*
X130999304Y-91760361D01*
X130999304Y-91760362D01*
X130999305Y-91760364D01*
X131055221Y-91874743D01*
X131055223Y-91874746D01*
X131145253Y-91964776D01*
X131145256Y-91964778D01*
X131250702Y-92016327D01*
X131259639Y-92020696D01*
X131333794Y-92031500D01*
X131333800Y-92031500D01*
X132066200Y-92031500D01*
X132066206Y-92031500D01*
X132140361Y-92020696D01*
X132197553Y-91992736D01*
X132254743Y-91964778D01*
X132254746Y-91964776D01*
X132344776Y-91874746D01*
X132344778Y-91874743D01*
X132392590Y-91776942D01*
X132400696Y-91760361D01*
X132411500Y-91686206D01*
X132411500Y-91480984D01*
X132431185Y-91413945D01*
X132436234Y-91406672D01*
X132473351Y-91357090D01*
X132523597Y-91222376D01*
X132523598Y-91222372D01*
X132529999Y-91162844D01*
X132530000Y-91162827D01*
X132530000Y-90837172D01*
X132529999Y-90837155D01*
X132523598Y-90777627D01*
X132523596Y-90777620D01*
X132473354Y-90642913D01*
X132473352Y-90642910D01*
X132436233Y-90593325D01*
X132429521Y-90575330D01*
X132418365Y-90559700D01*
X132413964Y-90533622D01*
X132411816Y-90527861D01*
X132411647Y-90525051D01*
X132411500Y-90522035D01*
X132411500Y-90448794D01*
X132406135Y-90411980D01*
X132405846Y-90406037D01*
X132406995Y-90401277D01*
X132406995Y-90382122D01*
X132411500Y-90351206D01*
X132411500Y-90048794D01*
X132406995Y-90017877D01*
X132406995Y-89982122D01*
X132411500Y-89951206D01*
X132411500Y-89648794D01*
X132406995Y-89617877D01*
X132406995Y-89582122D01*
X132411500Y-89551206D01*
X132411500Y-89248794D01*
X132406994Y-89217875D01*
X132405846Y-89193963D01*
X132406135Y-89188019D01*
X132411500Y-89151206D01*
X132411500Y-89077962D01*
X132411647Y-89074947D01*
X132422160Y-89044678D01*
X132431185Y-89013945D01*
X132434488Y-89009186D01*
X132434572Y-89008946D01*
X132434755Y-89008802D01*
X132436234Y-89006672D01*
X132473351Y-88957090D01*
X132523597Y-88822376D01*
X132523598Y-88822372D01*
X132529999Y-88762844D01*
X132530000Y-88762827D01*
X132530000Y-88437172D01*
X132529999Y-88437155D01*
X132523598Y-88377627D01*
X132523596Y-88377620D01*
X132473354Y-88242913D01*
X132473352Y-88242910D01*
X132436233Y-88193325D01*
X132429521Y-88175330D01*
X132418365Y-88159700D01*
X132413964Y-88133622D01*
X132411816Y-88127861D01*
X132411647Y-88125051D01*
X132411500Y-88122035D01*
X132411500Y-88048794D01*
X132406135Y-88011980D01*
X132405846Y-88006037D01*
X132406995Y-88001277D01*
X132406995Y-87982122D01*
X132411500Y-87951206D01*
X132411500Y-87880984D01*
X132431185Y-87813945D01*
X132436234Y-87806672D01*
X132473351Y-87757090D01*
X132523597Y-87622376D01*
X132523598Y-87622372D01*
X132529999Y-87562844D01*
X132530000Y-87562827D01*
X132530000Y-87237172D01*
X132529999Y-87237155D01*
X132523598Y-87177627D01*
X132523596Y-87177620D01*
X132473354Y-87042913D01*
X132473352Y-87042910D01*
X132436233Y-86993325D01*
X132429521Y-86975330D01*
X132418365Y-86959700D01*
X132413964Y-86933622D01*
X132411816Y-86927861D01*
X132411647Y-86925051D01*
X132411500Y-86922035D01*
X132411500Y-86848794D01*
X132406135Y-86811980D01*
X132405846Y-86806037D01*
X132406995Y-86801277D01*
X132406995Y-86782122D01*
X132411500Y-86751206D01*
X132411500Y-86680984D01*
X132431185Y-86613945D01*
X132436234Y-86606672D01*
X132473351Y-86557090D01*
X132523597Y-86422376D01*
X132523598Y-86422372D01*
X132529999Y-86362844D01*
X132530000Y-86362827D01*
X132530000Y-86037172D01*
X132529999Y-86037155D01*
X132523598Y-85977627D01*
X132523596Y-85977620D01*
X132473354Y-85842913D01*
X132473352Y-85842910D01*
X132436233Y-85793325D01*
X132429521Y-85775330D01*
X132418365Y-85759700D01*
X132413964Y-85733622D01*
X132411816Y-85727861D01*
X132411647Y-85725051D01*
X132411500Y-85722035D01*
X132411500Y-85648794D01*
X132406135Y-85611980D01*
X132405846Y-85606037D01*
X132406995Y-85601277D01*
X132406995Y-85582122D01*
X132411500Y-85551206D01*
X132411500Y-85480984D01*
X132431185Y-85413945D01*
X132436234Y-85406672D01*
X132473351Y-85357090D01*
X132523597Y-85222376D01*
X132523598Y-85222372D01*
X132529999Y-85162844D01*
X132530000Y-85162827D01*
X132530000Y-84837172D01*
X132529999Y-84837155D01*
X132523598Y-84777627D01*
X132523596Y-84777620D01*
X132473354Y-84642913D01*
X132473352Y-84642910D01*
X132436233Y-84593325D01*
X132429521Y-84575330D01*
X132418365Y-84559700D01*
X132413964Y-84533622D01*
X132411816Y-84527861D01*
X132411647Y-84525051D01*
X132411500Y-84522035D01*
X132411500Y-84448794D01*
X132406135Y-84411980D01*
X132405846Y-84406037D01*
X132406995Y-84401277D01*
X132406995Y-84382122D01*
X132411500Y-84351206D01*
X132411500Y-84280984D01*
X132431185Y-84213945D01*
X132436234Y-84206672D01*
X132473351Y-84157090D01*
X132523597Y-84022376D01*
X132523598Y-84022372D01*
X132529999Y-83962844D01*
X132530000Y-83962827D01*
X132530000Y-83637172D01*
X132529999Y-83637155D01*
X132523598Y-83577627D01*
X132523596Y-83577620D01*
X132473354Y-83442913D01*
X132473352Y-83442910D01*
X132436233Y-83393325D01*
X132429521Y-83375330D01*
X132418365Y-83359700D01*
X132413964Y-83333622D01*
X132411816Y-83327861D01*
X132411647Y-83325051D01*
X132411500Y-83322035D01*
X132411500Y-83248794D01*
X132406135Y-83211980D01*
X132405846Y-83206037D01*
X132406995Y-83201277D01*
X132406995Y-83182122D01*
X132411500Y-83151206D01*
X132411500Y-83080984D01*
X132431185Y-83013945D01*
X132436234Y-83006672D01*
X132473351Y-82957090D01*
X132523597Y-82822376D01*
X132523598Y-82822372D01*
X132529999Y-82762844D01*
X132530000Y-82762827D01*
X132530000Y-82437172D01*
X132529999Y-82437155D01*
X132523598Y-82377627D01*
X132523596Y-82377620D01*
X132473354Y-82242913D01*
X132473352Y-82242910D01*
X132436233Y-82193325D01*
X132429521Y-82175330D01*
X132418365Y-82159700D01*
X132413964Y-82133622D01*
X132411816Y-82127861D01*
X132411647Y-82125051D01*
X132411500Y-82122035D01*
X132411500Y-82048794D01*
X132406135Y-82011980D01*
X132405846Y-82006037D01*
X132406995Y-82001277D01*
X132406995Y-81982122D01*
X132411500Y-81951206D01*
X132411500Y-81880984D01*
X132431185Y-81813945D01*
X132436234Y-81806672D01*
X132473351Y-81757090D01*
X132523597Y-81622376D01*
X132523598Y-81622372D01*
X132529999Y-81562844D01*
X132530000Y-81562827D01*
X132530000Y-81237172D01*
X132529999Y-81237155D01*
X132523598Y-81177627D01*
X132523596Y-81177620D01*
X132473354Y-81042913D01*
X132473352Y-81042910D01*
X132436233Y-80993325D01*
X132429521Y-80975330D01*
X132418365Y-80959700D01*
X132413964Y-80933622D01*
X132411816Y-80927861D01*
X132411647Y-80925051D01*
X132411500Y-80922035D01*
X132411500Y-80848794D01*
X132406135Y-80811980D01*
X132405846Y-80806037D01*
X132406995Y-80801277D01*
X132406995Y-80782122D01*
X132411500Y-80751206D01*
X132411500Y-80680984D01*
X132431185Y-80613945D01*
X132436234Y-80606672D01*
X132473351Y-80557090D01*
X132523597Y-80422376D01*
X132523598Y-80422372D01*
X132529999Y-80362844D01*
X132530000Y-80362827D01*
X132530000Y-80037172D01*
X132529999Y-80037155D01*
X132523598Y-79977627D01*
X132523596Y-79977620D01*
X132473354Y-79842913D01*
X132473352Y-79842910D01*
X132436233Y-79793325D01*
X132429521Y-79775330D01*
X132418365Y-79759700D01*
X132413964Y-79733622D01*
X132411816Y-79727861D01*
X132411647Y-79725051D01*
X132411500Y-79722035D01*
X132411500Y-79648794D01*
X132406135Y-79611980D01*
X132405846Y-79606037D01*
X132406995Y-79601277D01*
X132406995Y-79582122D01*
X132411500Y-79551206D01*
X132411500Y-79336205D01*
X132901500Y-79336205D01*
X132901500Y-79470096D01*
X132927708Y-79567908D01*
X132927708Y-79632092D01*
X132901500Y-79729903D01*
X132901500Y-79729905D01*
X132901500Y-79863795D01*
X132936153Y-79993124D01*
X133003099Y-80109076D01*
X133003101Y-80109078D01*
X133006342Y-80112319D01*
X133039827Y-80173642D01*
X133034843Y-80243334D01*
X133006342Y-80287681D01*
X133003101Y-80290921D01*
X133003099Y-80290924D01*
X132936153Y-80406875D01*
X132901500Y-80536205D01*
X132901500Y-80670096D01*
X132927708Y-80767908D01*
X132927708Y-80832092D01*
X132901500Y-80929903D01*
X132901500Y-80929905D01*
X132901500Y-81063795D01*
X132936153Y-81193124D01*
X133003099Y-81309076D01*
X133003101Y-81309078D01*
X133006342Y-81312319D01*
X133039827Y-81373642D01*
X133034843Y-81443334D01*
X133006342Y-81487681D01*
X133003101Y-81490921D01*
X133003099Y-81490924D01*
X132936153Y-81606875D01*
X132901500Y-81736205D01*
X132901500Y-81870096D01*
X132927708Y-81967908D01*
X132927708Y-82032092D01*
X132901500Y-82129903D01*
X132901500Y-82129905D01*
X132901500Y-82263795D01*
X132936153Y-82393124D01*
X133003099Y-82509076D01*
X133003101Y-82509078D01*
X133006342Y-82512319D01*
X133039827Y-82573642D01*
X133034843Y-82643334D01*
X133006342Y-82687681D01*
X133003101Y-82690921D01*
X133003099Y-82690924D01*
X132936153Y-82806875D01*
X132901500Y-82936205D01*
X132901500Y-83070096D01*
X132927708Y-83167908D01*
X132927708Y-83232092D01*
X132901500Y-83329903D01*
X132901500Y-83329905D01*
X132901500Y-83463795D01*
X132936153Y-83593124D01*
X133003099Y-83709076D01*
X133003101Y-83709078D01*
X133006342Y-83712319D01*
X133039827Y-83773642D01*
X133034843Y-83843334D01*
X133006342Y-83887681D01*
X133003101Y-83890921D01*
X133003099Y-83890924D01*
X132936153Y-84006875D01*
X132901500Y-84136205D01*
X132901500Y-84270096D01*
X132927708Y-84367908D01*
X132927708Y-84432092D01*
X132901500Y-84529903D01*
X132901500Y-84529905D01*
X132901500Y-84663795D01*
X132936153Y-84793124D01*
X133003099Y-84909076D01*
X133003101Y-84909078D01*
X133006342Y-84912319D01*
X133039827Y-84973642D01*
X133034843Y-85043334D01*
X133006342Y-85087681D01*
X133003101Y-85090921D01*
X133003099Y-85090924D01*
X132936153Y-85206875D01*
X132901500Y-85336205D01*
X132901500Y-85470096D01*
X132927708Y-85567908D01*
X132927708Y-85632092D01*
X132901500Y-85729903D01*
X132901500Y-85729905D01*
X132901500Y-85863795D01*
X132936153Y-85993124D01*
X133003099Y-86109076D01*
X133003101Y-86109078D01*
X133006342Y-86112319D01*
X133039827Y-86173642D01*
X133034843Y-86243334D01*
X133006342Y-86287681D01*
X133003101Y-86290921D01*
X133003099Y-86290924D01*
X132936153Y-86406875D01*
X132901500Y-86536205D01*
X132901500Y-86670096D01*
X132927708Y-86767908D01*
X132927708Y-86832092D01*
X132901500Y-86929903D01*
X132901500Y-86929905D01*
X132901500Y-87063795D01*
X132936153Y-87193124D01*
X133003099Y-87309076D01*
X133003101Y-87309078D01*
X133006342Y-87312319D01*
X133039827Y-87373642D01*
X133034843Y-87443334D01*
X133006342Y-87487681D01*
X133003101Y-87490921D01*
X133003099Y-87490924D01*
X132936153Y-87606875D01*
X132901500Y-87736205D01*
X132901500Y-87870096D01*
X132927708Y-87967908D01*
X132927708Y-88032092D01*
X132901500Y-88129903D01*
X132901500Y-88129905D01*
X132901500Y-88263795D01*
X132936153Y-88393124D01*
X133003099Y-88509076D01*
X133003101Y-88509078D01*
X133006342Y-88512319D01*
X133039827Y-88573642D01*
X133034843Y-88643334D01*
X133006342Y-88687681D01*
X133003101Y-88690921D01*
X133003099Y-88690924D01*
X132936153Y-88806875D01*
X132901500Y-88936205D01*
X132901500Y-89070096D01*
X132927708Y-89167908D01*
X132927708Y-89232092D01*
X132901500Y-89329903D01*
X132901500Y-89329905D01*
X132901500Y-89463795D01*
X132936153Y-89593124D01*
X133003099Y-89709076D01*
X133003101Y-89709078D01*
X133012212Y-89718189D01*
X133045697Y-89779512D01*
X133040713Y-89849204D01*
X133018621Y-89883583D01*
X133019787Y-89884478D01*
X133014840Y-89890924D01*
X132947894Y-90006875D01*
X132913241Y-90136205D01*
X132913241Y-90270096D01*
X132939449Y-90367908D01*
X132939449Y-90432092D01*
X132913241Y-90529903D01*
X132913241Y-90529905D01*
X132913241Y-90663795D01*
X132947894Y-90793124D01*
X133014840Y-90909076D01*
X133109515Y-91003751D01*
X133225467Y-91070697D01*
X133354796Y-91105350D01*
X133354798Y-91105350D01*
X133462437Y-91105350D01*
X133529476Y-91125035D01*
X133575231Y-91177839D01*
X133585726Y-91216090D01*
X133586401Y-91222374D01*
X133586402Y-91222376D01*
X133636648Y-91357090D01*
X133673766Y-91406672D01*
X133698184Y-91472136D01*
X133698500Y-91480984D01*
X133698500Y-91686206D01*
X133709304Y-91760361D01*
X133709304Y-91760362D01*
X133709305Y-91760364D01*
X133765221Y-91874743D01*
X133765223Y-91874746D01*
X133855253Y-91964776D01*
X133855256Y-91964778D01*
X133960702Y-92016327D01*
X133969639Y-92020696D01*
X134043794Y-92031500D01*
X134043800Y-92031500D01*
X134776200Y-92031500D01*
X134776206Y-92031500D01*
X134850361Y-92020696D01*
X134907553Y-91992736D01*
X134964743Y-91964778D01*
X134964746Y-91964776D01*
X135054776Y-91874746D01*
X135054778Y-91874743D01*
X135102590Y-91776942D01*
X135110696Y-91760361D01*
X135121500Y-91686206D01*
X135121500Y-91480984D01*
X135141185Y-91413945D01*
X135146234Y-91406672D01*
X135183351Y-91357090D01*
X135233597Y-91222376D01*
X135233598Y-91222372D01*
X135239999Y-91162844D01*
X135240000Y-91162827D01*
X135240000Y-90837172D01*
X135239999Y-90837155D01*
X135233598Y-90777627D01*
X135233596Y-90777620D01*
X135183354Y-90642913D01*
X135183352Y-90642910D01*
X135146233Y-90593325D01*
X135139521Y-90575330D01*
X135128365Y-90559700D01*
X135123964Y-90533622D01*
X135121816Y-90527861D01*
X135121647Y-90525051D01*
X135121500Y-90522035D01*
X135121500Y-90448794D01*
X135116135Y-90411980D01*
X135115846Y-90406037D01*
X135116995Y-90401277D01*
X135116995Y-90382122D01*
X135121500Y-90351206D01*
X135121500Y-90280984D01*
X135141185Y-90213945D01*
X135146234Y-90206672D01*
X135183351Y-90157090D01*
X135233597Y-90022376D01*
X135233598Y-90022372D01*
X135239999Y-89962844D01*
X135240000Y-89962827D01*
X135240000Y-89637172D01*
X135239999Y-89637155D01*
X135233598Y-89577627D01*
X135233596Y-89577620D01*
X135183354Y-89442913D01*
X135183352Y-89442910D01*
X135146233Y-89393325D01*
X135139521Y-89375330D01*
X135128365Y-89359700D01*
X135123964Y-89333622D01*
X135121816Y-89327861D01*
X135121647Y-89325051D01*
X135121500Y-89322035D01*
X135121500Y-89248794D01*
X135116135Y-89211980D01*
X135115846Y-89206037D01*
X135116995Y-89201277D01*
X135116995Y-89182122D01*
X135121500Y-89151206D01*
X135121500Y-89080984D01*
X135141185Y-89013945D01*
X135146234Y-89006672D01*
X135183351Y-88957090D01*
X135233597Y-88822376D01*
X135233598Y-88822372D01*
X135239999Y-88762844D01*
X135240000Y-88762827D01*
X135240000Y-88437172D01*
X135239999Y-88437155D01*
X135233598Y-88377627D01*
X135233596Y-88377620D01*
X135183354Y-88242913D01*
X135183352Y-88242910D01*
X135146233Y-88193325D01*
X135139521Y-88175330D01*
X135128365Y-88159700D01*
X135123964Y-88133622D01*
X135121816Y-88127861D01*
X135121647Y-88125051D01*
X135121500Y-88122035D01*
X135121500Y-88048794D01*
X135116135Y-88011980D01*
X135115846Y-88006037D01*
X135116995Y-88001277D01*
X135116995Y-87982122D01*
X135121500Y-87951206D01*
X135121500Y-87880984D01*
X135141185Y-87813945D01*
X135146234Y-87806672D01*
X135183351Y-87757090D01*
X135233597Y-87622376D01*
X135233598Y-87622372D01*
X135239999Y-87562844D01*
X135240000Y-87562827D01*
X135240000Y-87237172D01*
X135239999Y-87237155D01*
X135233598Y-87177627D01*
X135233596Y-87177620D01*
X135183354Y-87042913D01*
X135183352Y-87042910D01*
X135146233Y-86993325D01*
X135139521Y-86975330D01*
X135128365Y-86959700D01*
X135123964Y-86933622D01*
X135121816Y-86927861D01*
X135121647Y-86925051D01*
X135121500Y-86922035D01*
X135121500Y-86848794D01*
X135116135Y-86811980D01*
X135115846Y-86806037D01*
X135116995Y-86801277D01*
X135116995Y-86782122D01*
X135121500Y-86751206D01*
X135121500Y-86680984D01*
X135141185Y-86613945D01*
X135146234Y-86606672D01*
X135183351Y-86557090D01*
X135233597Y-86422376D01*
X135233598Y-86422372D01*
X135239999Y-86362844D01*
X135240000Y-86362827D01*
X135240000Y-86037172D01*
X135239999Y-86037155D01*
X135233598Y-85977627D01*
X135233596Y-85977620D01*
X135183354Y-85842913D01*
X135183352Y-85842910D01*
X135146233Y-85793325D01*
X135139521Y-85775330D01*
X135128365Y-85759700D01*
X135123964Y-85733622D01*
X135121816Y-85727861D01*
X135121647Y-85725051D01*
X135121500Y-85722035D01*
X135121500Y-85648794D01*
X135116135Y-85611980D01*
X135115846Y-85606037D01*
X135116995Y-85601277D01*
X135116995Y-85582122D01*
X135121500Y-85551206D01*
X135121500Y-85480984D01*
X135141185Y-85413945D01*
X135146234Y-85406672D01*
X135183351Y-85357090D01*
X135233597Y-85222376D01*
X135233598Y-85222372D01*
X135239999Y-85162844D01*
X135240000Y-85162827D01*
X135240000Y-84837172D01*
X135239999Y-84837155D01*
X135233598Y-84777627D01*
X135233596Y-84777620D01*
X135183354Y-84642913D01*
X135183352Y-84642910D01*
X135146233Y-84593325D01*
X135139521Y-84575330D01*
X135128365Y-84559700D01*
X135123964Y-84533622D01*
X135121816Y-84527861D01*
X135121647Y-84525051D01*
X135121500Y-84522035D01*
X135121500Y-84448794D01*
X135116135Y-84411980D01*
X135115846Y-84406037D01*
X135116995Y-84401277D01*
X135116995Y-84382122D01*
X135121500Y-84351206D01*
X135121500Y-84280984D01*
X135141185Y-84213945D01*
X135146234Y-84206672D01*
X135183351Y-84157090D01*
X135233597Y-84022376D01*
X135233598Y-84022372D01*
X135239999Y-83962844D01*
X135240000Y-83962827D01*
X135240000Y-83637172D01*
X135239999Y-83637155D01*
X135233598Y-83577627D01*
X135233596Y-83577620D01*
X135183354Y-83442913D01*
X135183352Y-83442910D01*
X135146233Y-83393325D01*
X135139521Y-83375330D01*
X135128365Y-83359700D01*
X135123964Y-83333622D01*
X135121816Y-83327861D01*
X135121647Y-83325051D01*
X135121500Y-83322035D01*
X135121500Y-83248794D01*
X135116135Y-83211980D01*
X135115846Y-83206037D01*
X135116995Y-83201277D01*
X135116995Y-83182122D01*
X135121500Y-83151206D01*
X135121500Y-83080984D01*
X135141185Y-83013945D01*
X135146234Y-83006672D01*
X135183351Y-82957090D01*
X135233597Y-82822376D01*
X135233598Y-82822372D01*
X135239999Y-82762844D01*
X135240000Y-82762827D01*
X135240000Y-82437172D01*
X135239999Y-82437155D01*
X135233598Y-82377627D01*
X135233596Y-82377620D01*
X135183354Y-82242913D01*
X135183352Y-82242910D01*
X135146233Y-82193325D01*
X135139521Y-82175330D01*
X135128365Y-82159700D01*
X135123964Y-82133622D01*
X135121816Y-82127861D01*
X135121647Y-82125051D01*
X135121500Y-82122035D01*
X135121500Y-82048794D01*
X135116135Y-82011980D01*
X135115846Y-82006037D01*
X135116995Y-82001277D01*
X135116995Y-81982122D01*
X135121500Y-81951206D01*
X135121500Y-81880984D01*
X135141185Y-81813945D01*
X135146234Y-81806672D01*
X135183351Y-81757090D01*
X135233597Y-81622376D01*
X135233598Y-81622372D01*
X135239999Y-81562844D01*
X135240000Y-81562827D01*
X135240000Y-81237172D01*
X135239999Y-81237155D01*
X135233598Y-81177627D01*
X135233596Y-81177620D01*
X135183354Y-81042913D01*
X135183352Y-81042910D01*
X135146233Y-80993325D01*
X135139521Y-80975330D01*
X135128365Y-80959700D01*
X135123964Y-80933622D01*
X135121816Y-80927861D01*
X135121647Y-80925051D01*
X135121500Y-80922035D01*
X135121500Y-80848794D01*
X135116135Y-80811980D01*
X135115846Y-80806037D01*
X135116995Y-80801277D01*
X135116995Y-80782122D01*
X135121500Y-80751206D01*
X135121500Y-80680984D01*
X135141185Y-80613945D01*
X135146234Y-80606672D01*
X135183351Y-80557090D01*
X135233597Y-80422376D01*
X135233598Y-80422372D01*
X135239999Y-80362844D01*
X135240000Y-80362827D01*
X135240000Y-80037172D01*
X135239999Y-80037155D01*
X135233598Y-79977627D01*
X135233596Y-79977620D01*
X135183354Y-79842913D01*
X135183352Y-79842910D01*
X135146233Y-79793325D01*
X135139521Y-79775330D01*
X135128365Y-79759700D01*
X135123964Y-79733622D01*
X135121816Y-79727861D01*
X135121647Y-79725051D01*
X135121500Y-79722035D01*
X135121500Y-79648794D01*
X135116135Y-79611980D01*
X135115846Y-79606037D01*
X135116995Y-79601277D01*
X135116995Y-79582122D01*
X135121500Y-79551206D01*
X135121500Y-79248794D01*
X135115902Y-79210372D01*
X135115902Y-79174627D01*
X135121500Y-79136206D01*
X135121500Y-78713794D01*
X135110696Y-78639639D01*
X135096596Y-78610797D01*
X135054778Y-78525256D01*
X135054776Y-78525253D01*
X134964746Y-78435223D01*
X134964743Y-78435221D01*
X134850364Y-78379305D01*
X134850362Y-78379304D01*
X134850361Y-78379304D01*
X134776206Y-78368500D01*
X134043794Y-78368500D01*
X133969639Y-78379304D01*
X133969637Y-78379304D01*
X133969635Y-78379305D01*
X133855256Y-78435221D01*
X133855253Y-78435223D01*
X133765223Y-78525253D01*
X133765221Y-78525256D01*
X133709305Y-78639635D01*
X133709304Y-78639637D01*
X133709304Y-78639639D01*
X133698500Y-78713794D01*
X133698500Y-78713799D01*
X133698500Y-78792415D01*
X133678815Y-78859454D01*
X133626011Y-78905209D01*
X133556853Y-78915153D01*
X133542408Y-78912190D01*
X133476946Y-78894650D01*
X133476945Y-78894650D01*
X133343055Y-78894650D01*
X133213725Y-78929303D01*
X133097774Y-78996249D01*
X133097771Y-78996251D01*
X133003101Y-79090921D01*
X133003099Y-79090924D01*
X132936153Y-79206875D01*
X132901500Y-79336205D01*
X132411500Y-79336205D01*
X132411500Y-79248794D01*
X132405061Y-79204601D01*
X132404766Y-79198797D01*
X132405902Y-79194048D01*
X132405902Y-79174627D01*
X132411500Y-79136206D01*
X132411500Y-78713794D01*
X132400696Y-78639639D01*
X132386596Y-78610797D01*
X132344778Y-78525256D01*
X132344776Y-78525253D01*
X132254746Y-78435223D01*
X132254743Y-78435221D01*
X132140364Y-78379305D01*
X132140362Y-78379304D01*
X132140361Y-78379304D01*
X132066206Y-78368500D01*
X131333794Y-78368500D01*
X131259639Y-78379304D01*
X131259637Y-78379304D01*
X131259635Y-78379305D01*
X131145256Y-78435221D01*
X131145253Y-78435223D01*
X131055223Y-78525253D01*
X131055221Y-78525256D01*
X130999305Y-78639635D01*
X130999304Y-78639637D01*
X130999304Y-78639639D01*
X130988500Y-78713794D01*
X130988500Y-78713799D01*
X130988500Y-78826516D01*
X130968815Y-78893555D01*
X130916011Y-78939310D01*
X130846853Y-78949254D01*
X130783297Y-78920229D01*
X130776819Y-78914197D01*
X125694447Y-73831825D01*
X125694445Y-73831823D01*
X125645055Y-73803307D01*
X125595666Y-73774792D01*
X125524251Y-73755657D01*
X125485490Y-73745271D01*
X125485489Y-73745271D01*
X124312610Y-73745271D01*
X124245571Y-73725586D01*
X124224929Y-73708952D01*
X124212228Y-73696251D01*
X124212226Y-73696249D01*
X124096274Y-73629303D01*
X123966945Y-73594650D01*
X123833055Y-73594650D01*
X123703725Y-73629303D01*
X123587774Y-73696249D01*
X123587771Y-73696251D01*
X123493101Y-73790921D01*
X123493099Y-73790924D01*
X123426153Y-73906875D01*
X123391500Y-74036205D01*
X123391500Y-74170096D01*
X123417708Y-74267908D01*
X123417708Y-74332092D01*
X123391500Y-74429903D01*
X123391500Y-74429905D01*
X123391500Y-74563795D01*
X123426153Y-74693124D01*
X123493099Y-74809076D01*
X123493101Y-74809078D01*
X123496342Y-74812319D01*
X123529827Y-74873642D01*
X123524843Y-74943334D01*
X123496342Y-74987681D01*
X123493101Y-74990921D01*
X123493099Y-74990924D01*
X123426153Y-75106875D01*
X123391500Y-75236205D01*
X123391500Y-75370096D01*
X123417708Y-75467908D01*
X123417708Y-75532092D01*
X123391500Y-75629903D01*
X123391500Y-75629905D01*
X123391500Y-75763795D01*
X123426153Y-75893124D01*
X123493099Y-76009076D01*
X123493101Y-76009078D01*
X123496342Y-76012319D01*
X123529827Y-76073642D01*
X123524843Y-76143334D01*
X123496342Y-76187681D01*
X123493101Y-76190921D01*
X123493099Y-76190924D01*
X123426153Y-76306875D01*
X123391500Y-76436205D01*
X123391500Y-76570096D01*
X123417708Y-76667908D01*
X123417708Y-76732092D01*
X123391500Y-76829903D01*
X123391500Y-76829905D01*
X123391500Y-76963795D01*
X123426153Y-77093124D01*
X123493099Y-77209076D01*
X123493101Y-77209078D01*
X123496342Y-77212319D01*
X123529827Y-77273642D01*
X123524843Y-77343334D01*
X123496342Y-77387681D01*
X123493101Y-77390921D01*
X123493099Y-77390924D01*
X123426153Y-77506875D01*
X123391500Y-77636205D01*
X123391500Y-77770096D01*
X123417708Y-77867908D01*
X123417708Y-77932092D01*
X123391500Y-78029903D01*
X123391500Y-78029905D01*
X123391500Y-78163795D01*
X123426153Y-78293124D01*
X123493099Y-78409076D01*
X123493101Y-78409078D01*
X123496342Y-78412319D01*
X123529827Y-78473642D01*
X123524843Y-78543334D01*
X123496342Y-78587681D01*
X123493101Y-78590921D01*
X123493099Y-78590924D01*
X123426153Y-78706875D01*
X123391500Y-78836205D01*
X123391500Y-78970096D01*
X123417708Y-79067908D01*
X123417708Y-79132092D01*
X123391500Y-79229903D01*
X123391500Y-79229905D01*
X123391500Y-79363795D01*
X123426153Y-79493124D01*
X123493099Y-79609076D01*
X123493101Y-79609078D01*
X123507415Y-79623392D01*
X123540900Y-79684715D01*
X123535916Y-79754407D01*
X123507417Y-79798752D01*
X123493102Y-79813066D01*
X123493099Y-79813071D01*
X123426153Y-79929022D01*
X123391500Y-80058352D01*
X123391500Y-80192243D01*
X123417708Y-80290055D01*
X123417708Y-80354239D01*
X123391500Y-80452050D01*
X123391500Y-80452052D01*
X123391500Y-80585942D01*
X123413051Y-80666374D01*
X123426153Y-80715271D01*
X123493099Y-80831223D01*
X123496446Y-80835584D01*
X123521642Y-80900753D01*
X123507605Y-80969198D01*
X123496449Y-80986557D01*
X123493103Y-80990917D01*
X123426153Y-81106875D01*
X123391500Y-81236205D01*
X123391500Y-81370094D01*
X123392561Y-81378156D01*
X123389985Y-81378494D01*
X123388623Y-81435445D01*
X123358196Y-81485356D01*
X123083279Y-81760273D01*
X123021956Y-81793758D01*
X122952264Y-81788774D01*
X122907917Y-81760273D01*
X122818822Y-81671178D01*
X122729726Y-81760274D01*
X122668403Y-81793758D01*
X122598711Y-81788774D01*
X122554364Y-81760273D01*
X122285015Y-81490924D01*
X121952045Y-81157955D01*
X121811587Y-81017497D01*
X121775267Y-80981177D01*
X122482375Y-80981177D01*
X122482375Y-80981178D01*
X122818821Y-81317624D01*
X123192731Y-80943713D01*
X123192731Y-80943711D01*
X123176783Y-80930089D01*
X123035081Y-80852187D01*
X123027834Y-80849319D01*
X123028469Y-80847714D01*
X122976630Y-80816855D01*
X122951959Y-80771668D01*
X122950684Y-80772174D01*
X122947809Y-80764914D01*
X122869914Y-80623222D01*
X122856285Y-80607265D01*
X122482375Y-80981177D01*
X121775267Y-80981177D01*
X121359726Y-80565635D01*
X121326241Y-80504312D01*
X121331225Y-80434620D01*
X121359726Y-80390272D01*
X121449999Y-80299999D01*
X121803553Y-80299999D01*
X121803553Y-80300000D01*
X122129999Y-80626446D01*
X122502731Y-80253713D01*
X122502731Y-80253711D01*
X122486783Y-80240089D01*
X122486779Y-80240087D01*
X122345079Y-80162187D01*
X122341536Y-80160784D01*
X122339173Y-80158940D01*
X122338245Y-80158430D01*
X122338327Y-80158280D01*
X122286454Y-80117799D01*
X122273679Y-80090275D01*
X122271862Y-80090995D01*
X122268989Y-80083738D01*
X122191090Y-79942043D01*
X122177463Y-79926087D01*
X121803553Y-80299999D01*
X121449999Y-80299999D01*
X121360903Y-80210903D01*
X121327418Y-80149580D01*
X121332402Y-80079888D01*
X121360903Y-80035541D01*
X121823909Y-79572535D01*
X121823909Y-79572533D01*
X121807961Y-79558911D01*
X121807957Y-79558909D01*
X121666262Y-79481011D01*
X121666252Y-79481008D01*
X121509641Y-79440797D01*
X121347930Y-79440797D01*
X121191310Y-79481011D01*
X121049620Y-79558905D01*
X121049613Y-79558910D01*
X121021945Y-79582541D01*
X120993887Y-79610599D01*
X120932563Y-79644083D01*
X120862871Y-79639097D01*
X120818526Y-79610598D01*
X120739923Y-79531996D01*
X120739921Y-79531994D01*
X120673546Y-79479849D01*
X120673544Y-79479848D01*
X120673542Y-79479847D01*
X120632293Y-79461930D01*
X120578646Y-79417167D01*
X120562900Y-79375041D01*
X120561144Y-79375493D01*
X120518989Y-79211312D01*
X120445647Y-79077905D01*
X119964458Y-79559095D01*
X119903135Y-79592580D01*
X119833443Y-79587596D01*
X119789096Y-79559095D01*
X119700001Y-79470000D01*
X119616644Y-79553356D01*
X119613014Y-79555337D01*
X119610803Y-79558831D01*
X119582610Y-79571939D01*
X119555321Y-79586840D01*
X119551196Y-79586545D01*
X119547446Y-79588289D01*
X119516639Y-79584073D01*
X119485629Y-79581856D01*
X119481147Y-79579217D01*
X119478222Y-79578817D01*
X119465072Y-79569753D01*
X119448401Y-79559938D01*
X119444714Y-79556787D01*
X119421099Y-79533172D01*
X119371370Y-79494104D01*
X119369418Y-79492436D01*
X119369004Y-79491801D01*
X119362299Y-79485853D01*
X118972534Y-79096088D01*
X118958912Y-79112037D01*
X118881011Y-79253737D01*
X118881008Y-79253747D01*
X118838857Y-79417918D01*
X118837380Y-79417539D01*
X118812977Y-79473484D01*
X118794494Y-79491403D01*
X118741328Y-79533168D01*
X118741327Y-79533169D01*
X118443173Y-79831325D01*
X118443168Y-79831330D01*
X118391028Y-79897700D01*
X118386955Y-79904530D01*
X118384063Y-79902805D01*
X118348765Y-79944621D01*
X118281985Y-79965169D01*
X118248292Y-79960954D01*
X118177714Y-79942043D01*
X118125305Y-79928000D01*
X118125304Y-79928000D01*
X117574838Y-79928000D01*
X117572862Y-79927691D01*
X117571844Y-79927964D01*
X117564054Y-79926316D01*
X117537040Y-79922099D01*
X117532142Y-79920531D01*
X117455830Y-79888922D01*
X117396514Y-79877123D01*
X117389811Y-79874978D01*
X117366473Y-79859170D01*
X117341507Y-79846111D01*
X117337937Y-79839842D01*
X117331962Y-79835795D01*
X117320875Y-79809879D01*
X117306933Y-79785395D01*
X117307319Y-79778191D01*
X117304481Y-79771557D01*
X117309163Y-79743767D01*
X117310672Y-79715626D01*
X117315086Y-79708620D01*
X117316091Y-79702659D01*
X117325044Y-79692816D01*
X117339924Y-79669202D01*
X117406901Y-79602226D01*
X117473847Y-79486274D01*
X117508500Y-79356945D01*
X117508500Y-79223055D01*
X117473847Y-79093726D01*
X117406901Y-78977774D01*
X117312226Y-78883099D01*
X117196274Y-78816153D01*
X117185331Y-78813220D01*
X117171195Y-78805060D01*
X117160847Y-78794208D01*
X117145510Y-78785351D01*
X117102693Y-78742534D01*
X119326087Y-78742534D01*
X119700000Y-79116446D01*
X119700001Y-79116446D01*
X120092094Y-78724351D01*
X120092093Y-78724350D01*
X119958689Y-78651011D01*
X119802069Y-78610797D01*
X119640358Y-78610797D01*
X119483747Y-78651008D01*
X119483737Y-78651011D01*
X119342044Y-78728908D01*
X119342035Y-78728914D01*
X119326087Y-78742534D01*
X117102693Y-78742534D01*
X117072324Y-78712165D01*
X117038839Y-78650842D01*
X117043823Y-78581150D01*
X117072324Y-78536803D01*
X117083874Y-78525253D01*
X117106901Y-78502226D01*
X117154441Y-78419884D01*
X117205009Y-78371670D01*
X117273616Y-78358448D01*
X117323827Y-78374498D01*
X117382550Y-78408402D01*
X117499475Y-78439732D01*
X117499477Y-78439732D01*
X118200522Y-78439732D01*
X118200525Y-78439732D01*
X118317450Y-78408402D01*
X118422282Y-78347877D01*
X118797877Y-77972282D01*
X118858402Y-77867450D01*
X118889732Y-77750525D01*
X118889732Y-77629475D01*
X118889732Y-77237016D01*
X118909417Y-77169977D01*
X118962221Y-77124222D01*
X118981629Y-77117244D01*
X119106274Y-77083847D01*
X119222226Y-77016901D01*
X119316901Y-76922226D01*
X119383847Y-76806274D01*
X119418500Y-76676945D01*
X119418500Y-76543055D01*
X119383847Y-76413726D01*
X119383843Y-76413719D01*
X119380736Y-76406216D01*
X119382927Y-76405308D01*
X119369732Y-76356052D01*
X119369732Y-74739477D01*
X119369732Y-74739475D01*
X119338402Y-74622550D01*
X119277877Y-74517718D01*
X119192282Y-74432123D01*
X118862282Y-74102123D01*
X118757450Y-74041598D01*
X118640525Y-74010268D01*
X118170525Y-74010268D01*
X118049475Y-74010268D01*
X117932550Y-74041598D01*
X117932548Y-74041598D01*
X117932548Y-74041599D01*
X117827718Y-74102123D01*
X117827714Y-74102126D01*
X117724911Y-74204928D01*
X117663588Y-74238412D01*
X117593896Y-74233427D01*
X117575235Y-74224635D01*
X117460331Y-74158295D01*
X117322610Y-74121393D01*
X117248571Y-74121393D01*
X117229476Y-74115786D01*
X116668214Y-74115786D01*
X116659528Y-74113235D01*
X116650567Y-74114524D01*
X116626526Y-74103545D01*
X116601175Y-74096101D01*
X116595247Y-74089260D01*
X116587011Y-74085499D01*
X116572721Y-74063264D01*
X116555420Y-74043297D01*
X116553132Y-74032782D01*
X116549237Y-74026721D01*
X116544214Y-73991786D01*
X116544214Y-73955786D01*
X116508214Y-73955786D01*
X116441175Y-73936101D01*
X116395420Y-73883297D01*
X116384214Y-73831786D01*
X116384214Y-73795786D01*
X116704214Y-73795786D01*
X117185318Y-73795786D01*
X117185318Y-73795785D01*
X117178852Y-73763277D01*
X117178849Y-73763268D01*
X117129101Y-73643165D01*
X117129094Y-73643152D01*
X117056869Y-73535061D01*
X117056866Y-73535057D01*
X116964942Y-73443133D01*
X116964938Y-73443130D01*
X116856847Y-73370905D01*
X116856834Y-73370898D01*
X116736731Y-73321150D01*
X116736722Y-73321147D01*
X116704214Y-73314681D01*
X116704214Y-73795786D01*
X116384214Y-73795786D01*
X116384214Y-73287046D01*
X116378607Y-73251434D01*
X116378607Y-73177392D01*
X116378607Y-73177390D01*
X116341705Y-73039669D01*
X116273159Y-72920943D01*
X132399500Y-72920943D01*
X132399500Y-73079057D01*
X132435280Y-73212588D01*
X132440423Y-73231783D01*
X132440426Y-73231790D01*
X132519475Y-73368709D01*
X132519479Y-73368714D01*
X132519480Y-73368716D01*
X132631284Y-73480520D01*
X132631286Y-73480521D01*
X132631290Y-73480524D01*
X132760468Y-73555104D01*
X132768216Y-73559577D01*
X132920943Y-73600500D01*
X132920945Y-73600500D01*
X133079055Y-73600500D01*
X133079057Y-73600500D01*
X133231784Y-73559577D01*
X133368716Y-73480520D01*
X133480520Y-73368716D01*
X133559577Y-73231784D01*
X133600500Y-73079057D01*
X133600500Y-72920943D01*
X133559577Y-72768216D01*
X133502365Y-72669121D01*
X133480524Y-72631290D01*
X133480518Y-72631282D01*
X133368717Y-72519481D01*
X133368709Y-72519475D01*
X133231790Y-72440426D01*
X133231786Y-72440424D01*
X133231784Y-72440423D01*
X133079057Y-72399500D01*
X132920943Y-72399500D01*
X132768216Y-72440423D01*
X132768209Y-72440426D01*
X132631290Y-72519475D01*
X132631282Y-72519481D01*
X132519481Y-72631282D01*
X132519475Y-72631290D01*
X132440426Y-72768209D01*
X132440423Y-72768216D01*
X132399500Y-72920943D01*
X116273159Y-72920943D01*
X116270415Y-72916191D01*
X116169596Y-72815372D01*
X116046118Y-72744082D01*
X115908397Y-72707180D01*
X115765817Y-72707180D01*
X115628096Y-72744082D01*
X115628093Y-72744083D01*
X115531284Y-72799976D01*
X115463383Y-72816449D01*
X115397357Y-72793596D01*
X115354166Y-72738675D01*
X115347525Y-72669121D01*
X115349505Y-72660513D01*
X115358500Y-72626945D01*
X115358500Y-72493055D01*
X115323847Y-72363726D01*
X115256901Y-72247774D01*
X115162226Y-72153099D01*
X115046274Y-72086153D01*
X114916945Y-72051500D01*
X114783055Y-72051500D01*
X114653725Y-72086153D01*
X114537774Y-72153099D01*
X114537771Y-72153101D01*
X114443101Y-72247771D01*
X114443099Y-72247774D01*
X114376153Y-72363725D01*
X114341500Y-72493055D01*
X114341500Y-72614738D01*
X114321815Y-72681777D01*
X114269011Y-72727532D01*
X114249595Y-72734512D01*
X114213886Y-72744080D01*
X114213879Y-72744083D01*
X114090402Y-72815373D01*
X113989586Y-72916189D01*
X113918296Y-73039666D01*
X113918295Y-73039669D01*
X113881393Y-73177390D01*
X113881393Y-73290286D01*
X113861708Y-73357325D01*
X113808904Y-73403080D01*
X113757393Y-73414286D01*
X113644496Y-73414286D01*
X113506775Y-73451188D01*
X113506772Y-73451189D01*
X113383295Y-73522479D01*
X113282479Y-73623295D01*
X113211189Y-73746772D01*
X113211188Y-73746775D01*
X113174286Y-73884496D01*
X113174286Y-73997393D01*
X113154601Y-74064432D01*
X113101797Y-74110187D01*
X113050286Y-74121393D01*
X112937390Y-74121393D01*
X112799669Y-74158295D01*
X112799668Y-74158295D01*
X112682529Y-74225925D01*
X112614629Y-74242397D01*
X112548602Y-74219544D01*
X112532849Y-74206218D01*
X112489732Y-74163101D01*
X112489730Y-74163099D01*
X112373778Y-74096153D01*
X112244449Y-74061500D01*
X112110559Y-74061500D01*
X111981229Y-74096153D01*
X111865278Y-74163099D01*
X111865275Y-74163101D01*
X111770605Y-74257771D01*
X111770598Y-74257780D01*
X111703706Y-74373639D01*
X111653139Y-74421854D01*
X111584532Y-74435076D01*
X111519667Y-74409108D01*
X111479139Y-74352193D01*
X111472320Y-74311638D01*
X111472320Y-71874228D01*
X111472319Y-71874224D01*
X111447899Y-71751458D01*
X111447898Y-71751451D01*
X111417226Y-71677401D01*
X111399996Y-71635804D01*
X111399989Y-71635791D01*
X111330446Y-71531713D01*
X111330445Y-71531712D01*
X111241928Y-71443195D01*
X110973041Y-71174308D01*
X110518915Y-70720181D01*
X110485430Y-70658858D01*
X110490414Y-70589166D01*
X110532286Y-70533233D01*
X110597750Y-70508816D01*
X110606596Y-70508500D01*
X134738010Y-70508500D01*
X134805049Y-70528185D01*
G37*
%TD.AperFunction*%
%TA.AperFunction,Conductor*%
G36*
X125557020Y-89532200D02*
G01*
X125601368Y-89560701D01*
X128101688Y-92061022D01*
X128101692Y-92061025D01*
X128205771Y-92130569D01*
X128205784Y-92130576D01*
X128306465Y-92172279D01*
X128360869Y-92216120D01*
X128382934Y-92282414D01*
X128365655Y-92350113D01*
X128352354Y-92368470D01*
X128343766Y-92378289D01*
X128318568Y-92397153D01*
X128266844Y-92466247D01*
X128263741Y-92469796D01*
X128238083Y-92486119D01*
X128213733Y-92504348D01*
X128208887Y-92504694D01*
X128204791Y-92507301D01*
X128174382Y-92507162D01*
X128144041Y-92509332D01*
X128139777Y-92507004D01*
X128134922Y-92506982D01*
X128109414Y-92490424D01*
X128082718Y-92475847D01*
X128077268Y-92469557D01*
X128076317Y-92468940D01*
X128075864Y-92467938D01*
X128071133Y-92462477D01*
X128066989Y-92456941D01*
X128022232Y-92397153D01*
X127905636Y-92309870D01*
X127905634Y-92309869D01*
X127905636Y-92309869D01*
X127769179Y-92258973D01*
X127769168Y-92258970D01*
X127708858Y-92252485D01*
X127708842Y-92252485D01*
X127361958Y-92252485D01*
X127361941Y-92252485D01*
X127301631Y-92258970D01*
X127301620Y-92258973D01*
X127165164Y-92309869D01*
X127048568Y-92397153D01*
X126999667Y-92462477D01*
X126943733Y-92504348D01*
X126874041Y-92509332D01*
X126812718Y-92475847D01*
X126801133Y-92462477D01*
X126796989Y-92456941D01*
X126752232Y-92397153D01*
X126635636Y-92309870D01*
X126635634Y-92309869D01*
X126635636Y-92309869D01*
X126499179Y-92258973D01*
X126499168Y-92258970D01*
X126438858Y-92252485D01*
X126438842Y-92252485D01*
X126210421Y-92252485D01*
X126143382Y-92232800D01*
X126122740Y-92216166D01*
X125538699Y-91632125D01*
X125538697Y-91632123D01*
X125433865Y-91571598D01*
X125316940Y-91540268D01*
X125316938Y-91540268D01*
X125204700Y-91540268D01*
X125137661Y-91520583D01*
X125091906Y-91467779D01*
X125081962Y-91398621D01*
X125089345Y-91370778D01*
X125107966Y-91323558D01*
X125141532Y-91238441D01*
X125151500Y-91155438D01*
X125151500Y-90804566D01*
X125150882Y-90799424D01*
X125146617Y-90763905D01*
X125141532Y-90721563D01*
X125089445Y-90589480D01*
X125089444Y-90589479D01*
X125089444Y-90589478D01*
X125003655Y-90476349D01*
X124926484Y-90417828D01*
X124884961Y-90361635D01*
X124880410Y-90291914D01*
X124892748Y-90259286D01*
X124972821Y-90113635D01*
X125014976Y-89949455D01*
X125017366Y-89950068D01*
X125040426Y-89897178D01*
X125086124Y-89863017D01*
X125127378Y-89845099D01*
X125193753Y-89792956D01*
X125426007Y-89560699D01*
X125487328Y-89527216D01*
X125557020Y-89532200D01*
G37*
%TD.AperFunction*%
%TA.AperFunction,Conductor*%
G36*
X123920111Y-86582403D02*
G01*
X123964458Y-86610904D01*
X124445648Y-87092094D01*
X124464775Y-87089371D01*
X124475423Y-87078784D01*
X124543738Y-87064123D01*
X124609133Y-87088724D01*
X124622226Y-87100101D01*
X124855181Y-87333056D01*
X124888666Y-87394379D01*
X124891500Y-87420737D01*
X124891500Y-87879538D01*
X124886927Y-87895869D01*
X124887322Y-87911454D01*
X124874834Y-87939068D01*
X124873477Y-87943919D01*
X124872083Y-87946213D01*
X124836827Y-87998978D01*
X124829965Y-88015543D01*
X124825023Y-88023679D01*
X124805955Y-88041063D01*
X124789765Y-88061155D01*
X124780561Y-88064218D01*
X124773393Y-88070754D01*
X124747953Y-88075070D01*
X124723471Y-88083219D01*
X124714072Y-88080820D01*
X124704508Y-88082443D01*
X124680770Y-88072319D01*
X124655772Y-88065939D01*
X124643555Y-88056448D01*
X124640238Y-88055034D01*
X124638568Y-88052574D01*
X124631365Y-88046979D01*
X124492514Y-87908128D01*
X124492501Y-87908116D01*
X124426131Y-87855976D01*
X124426129Y-87855975D01*
X124397238Y-87843426D01*
X124316010Y-87808144D01*
X124262366Y-87763382D01*
X124251679Y-87743812D01*
X124249220Y-87738152D01*
X124249220Y-87738147D01*
X124192107Y-87606659D01*
X124139964Y-87540283D01*
X124139962Y-87540281D01*
X124139956Y-87540274D01*
X124130079Y-87530397D01*
X124096594Y-87469074D01*
X124095878Y-87449432D01*
X123700001Y-87053553D01*
X123689911Y-87053553D01*
X123622872Y-87033868D01*
X123586290Y-86997661D01*
X123581066Y-86989713D01*
X123564411Y-86953244D01*
X123528217Y-86908330D01*
X123526340Y-86906453D01*
X123521427Y-86898978D01*
X123512922Y-86871077D01*
X123501758Y-86844124D01*
X123501129Y-86832388D01*
X123501055Y-86832145D01*
X123501106Y-86831962D01*
X123501048Y-86830870D01*
X123501048Y-86800410D01*
X123520733Y-86733371D01*
X123573537Y-86687616D01*
X123642695Y-86677672D01*
X123691587Y-86700000D01*
X123700000Y-86700000D01*
X123789096Y-86610904D01*
X123850419Y-86577419D01*
X123920111Y-86582403D01*
G37*
%TD.AperFunction*%
%TA.AperFunction,Conductor*%
G36*
X123730111Y-83562403D02*
G01*
X123774458Y-83590904D01*
X124237463Y-84053909D01*
X124237464Y-84053909D01*
X124251087Y-84037962D01*
X124314261Y-83923051D01*
X124363808Y-83873787D01*
X124432123Y-83859131D01*
X124497517Y-83883735D01*
X124510604Y-83895108D01*
X127504234Y-86888737D01*
X127537719Y-86950060D01*
X127532735Y-87019752D01*
X127490863Y-87075685D01*
X127425399Y-87100102D01*
X127384462Y-87096193D01*
X127366949Y-87091500D01*
X127366945Y-87091500D01*
X127233055Y-87091500D01*
X127103726Y-87126153D01*
X127103725Y-87126153D01*
X127103723Y-87126154D01*
X127103722Y-87126154D01*
X127012000Y-87179111D01*
X126944100Y-87195584D01*
X126888000Y-87179111D01*
X126796277Y-87126154D01*
X126796274Y-87126153D01*
X126666945Y-87091500D01*
X126533055Y-87091500D01*
X126403726Y-87126153D01*
X126403725Y-87126153D01*
X126403723Y-87126154D01*
X126403722Y-87126154D01*
X126311133Y-87179611D01*
X126243233Y-87196084D01*
X126187132Y-87179611D01*
X126186555Y-87179278D01*
X126158791Y-87163248D01*
X126096275Y-87127153D01*
X126044658Y-87113322D01*
X125973331Y-87094211D01*
X125913672Y-87057847D01*
X125885652Y-87006532D01*
X125873847Y-86962474D01*
X125872245Y-86959700D01*
X125852240Y-86925051D01*
X125806901Y-86846522D01*
X125712226Y-86751847D01*
X125153277Y-86192898D01*
X125119792Y-86131575D01*
X125118113Y-86088334D01*
X125124428Y-86042391D01*
X125123708Y-86037155D01*
X125118597Y-85999965D01*
X125104908Y-85900369D01*
X125070462Y-85821066D01*
X125047797Y-85768884D01*
X125047796Y-85768883D01*
X125047795Y-85768882D01*
X125047795Y-85768881D01*
X124995652Y-85702505D01*
X124697495Y-85404350D01*
X124697491Y-85404346D01*
X124631121Y-85352206D01*
X124631113Y-85352201D01*
X124499631Y-85295092D01*
X124357610Y-85275572D01*
X124357607Y-85275572D01*
X124311666Y-85281886D01*
X124242571Y-85271513D01*
X124207102Y-85246722D01*
X123943665Y-84983285D01*
X123910180Y-84921962D01*
X123908609Y-84877956D01*
X123912657Y-84849805D01*
X123892952Y-84712755D01*
X123883781Y-84692674D01*
X123835434Y-84586809D01*
X123835327Y-84586636D01*
X123835284Y-84586482D01*
X123832212Y-84579754D01*
X123833302Y-84579256D01*
X123816840Y-84519257D01*
X123837715Y-84452579D01*
X123863850Y-84426036D01*
X123863141Y-84425206D01*
X123883911Y-84407465D01*
X123420904Y-83944458D01*
X123387419Y-83883135D01*
X123392403Y-83813443D01*
X123420904Y-83769096D01*
X123599096Y-83590904D01*
X123660419Y-83557419D01*
X123730111Y-83562403D01*
G37*
%TD.AperFunction*%
%TA.AperFunction,Conductor*%
G36*
X116333278Y-85568036D02*
G01*
X116377625Y-85596537D01*
X116555817Y-85774729D01*
X116589302Y-85836052D01*
X116584318Y-85905744D01*
X116555817Y-85950091D01*
X116375635Y-86130273D01*
X116314312Y-86163758D01*
X116244620Y-86158774D01*
X116200273Y-86130273D01*
X116022081Y-85952081D01*
X115988596Y-85890758D01*
X115993580Y-85821066D01*
X116022081Y-85776719D01*
X116202263Y-85596537D01*
X116263586Y-85563052D01*
X116333278Y-85568036D01*
G37*
%TD.AperFunction*%
%TA.AperFunction,Conductor*%
G36*
X104418491Y-83848525D02*
G01*
X104474425Y-83890396D01*
X104497863Y-83946833D01*
X104503004Y-83982126D01*
X104503004Y-84017873D01*
X104498500Y-84048794D01*
X104498500Y-84351205D01*
X104503004Y-84382127D01*
X104503004Y-84417873D01*
X104498500Y-84448794D01*
X104498500Y-84751205D01*
X104503004Y-84782127D01*
X104503004Y-84817873D01*
X104498500Y-84848794D01*
X104498500Y-85151205D01*
X104503004Y-85182127D01*
X104503004Y-85217873D01*
X104498500Y-85248794D01*
X104498500Y-85551205D01*
X104503004Y-85582127D01*
X104503004Y-85617873D01*
X104498500Y-85648794D01*
X104498500Y-85914634D01*
X104478815Y-85981673D01*
X104426011Y-86027428D01*
X104356853Y-86037372D01*
X104293297Y-86008347D01*
X104286819Y-86002315D01*
X103816330Y-85531826D01*
X103816328Y-85531824D01*
X103717548Y-85474793D01*
X103702261Y-85470697D01*
X103607373Y-85445272D01*
X103607372Y-85445272D01*
X103454000Y-85445272D01*
X103386961Y-85425587D01*
X103341206Y-85372783D01*
X103330000Y-85321272D01*
X103330000Y-85237172D01*
X103329999Y-85237155D01*
X103323598Y-85177627D01*
X103323596Y-85177620D01*
X103273354Y-85042913D01*
X103273352Y-85042910D01*
X103236233Y-84993325D01*
X103229521Y-84975330D01*
X103218365Y-84959700D01*
X103213964Y-84933622D01*
X103211816Y-84927861D01*
X103211647Y-84925051D01*
X103211500Y-84922035D01*
X103211500Y-84848794D01*
X103206135Y-84811980D01*
X103205846Y-84806037D01*
X103206995Y-84801277D01*
X103206995Y-84782122D01*
X103211500Y-84751206D01*
X103211500Y-84680984D01*
X103231185Y-84613945D01*
X103236234Y-84606672D01*
X103273351Y-84557090D01*
X103323597Y-84422376D01*
X103323598Y-84422372D01*
X103329999Y-84362844D01*
X103330000Y-84362827D01*
X103330000Y-84288728D01*
X103349685Y-84221689D01*
X103402489Y-84175934D01*
X103454000Y-84164728D01*
X103877371Y-84164728D01*
X103877373Y-84164728D01*
X103987548Y-84135207D01*
X104004868Y-84125207D01*
X104086328Y-84078176D01*
X104287479Y-83877024D01*
X104348800Y-83843541D01*
X104418491Y-83848525D01*
G37*
%TD.AperFunction*%
%TA.AperFunction,Conductor*%
G36*
X113952657Y-82718867D02*
G01*
X113976887Y-82721507D01*
X113985583Y-82728535D01*
X113996310Y-82731685D01*
X114012268Y-82750102D01*
X114031228Y-82765425D01*
X114034744Y-82776040D01*
X114042065Y-82784489D01*
X114045533Y-82808613D01*
X114053198Y-82831751D01*
X114051328Y-82848911D01*
X114052009Y-82853647D01*
X114049375Y-82866837D01*
X114020825Y-82978029D01*
X114020825Y-83139742D01*
X114061036Y-83296353D01*
X114061039Y-83296363D01*
X114138934Y-83438054D01*
X114138941Y-83438064D01*
X114152561Y-83454011D01*
X114615569Y-82991004D01*
X114676892Y-82957519D01*
X114746583Y-82962503D01*
X114790931Y-82991004D01*
X114969123Y-83169196D01*
X115002608Y-83230519D01*
X114997624Y-83300211D01*
X114969123Y-83344558D01*
X114506117Y-83807564D01*
X114506117Y-83807566D01*
X114522065Y-83821188D01*
X114522070Y-83821191D01*
X114569914Y-83847494D01*
X114619178Y-83897040D01*
X114633835Y-83965355D01*
X114609232Y-84030749D01*
X114559581Y-84069889D01*
X114554254Y-84072202D01*
X114554253Y-84072203D01*
X114487874Y-84124348D01*
X114189721Y-84422503D01*
X114189716Y-84422508D01*
X114137576Y-84488878D01*
X114137571Y-84488886D01*
X114077083Y-84628148D01*
X114075809Y-84627594D01*
X114043521Y-84679224D01*
X114010573Y-84700251D01*
X113874525Y-84759344D01*
X113808145Y-84811490D01*
X113808138Y-84811496D01*
X113615072Y-85004563D01*
X113553749Y-85038048D01*
X113484057Y-85033064D01*
X113439710Y-85004563D01*
X111508639Y-83073492D01*
X111475154Y-83012169D01*
X111472320Y-82985811D01*
X111472320Y-82836000D01*
X111492005Y-82768961D01*
X111544809Y-82723206D01*
X111596320Y-82712000D01*
X113929271Y-82712000D01*
X113952657Y-82718867D01*
G37*
%TD.AperFunction*%
%TA.AperFunction,Conductor*%
G36*
X111677523Y-74734648D02*
G01*
X111703705Y-74766358D01*
X111770603Y-74882226D01*
X111823054Y-74934677D01*
X111823972Y-74935636D01*
X111839450Y-74965517D01*
X111855561Y-74995022D01*
X111855460Y-74996426D01*
X111856108Y-74997676D01*
X111852976Y-75031154D01*
X111850577Y-75064714D01*
X111849655Y-75066669D01*
X111849602Y-75067242D01*
X111849059Y-75067934D01*
X111841782Y-75083379D01*
X111796978Y-75160982D01*
X111796975Y-75160989D01*
X111760073Y-75298710D01*
X111760073Y-75441290D01*
X111782405Y-75524632D01*
X111796975Y-75579010D01*
X111796976Y-75579013D01*
X111816078Y-75612098D01*
X111868265Y-75702489D01*
X111969084Y-75803308D01*
X112092562Y-75874598D01*
X112230283Y-75911500D01*
X112230285Y-75911500D01*
X112343180Y-75911500D01*
X112410219Y-75931185D01*
X112455974Y-75983989D01*
X112467180Y-76035500D01*
X112467180Y-76148397D01*
X112504082Y-76286118D01*
X112575372Y-76409596D01*
X112676191Y-76510415D01*
X112799669Y-76581705D01*
X112937390Y-76618607D01*
X112937392Y-76618607D01*
X113050286Y-76618607D01*
X113117325Y-76638292D01*
X113163080Y-76691096D01*
X113174286Y-76742607D01*
X113174286Y-76855504D01*
X113211188Y-76993225D01*
X113282478Y-77116703D01*
X113383297Y-77217522D01*
X113506775Y-77288812D01*
X113644496Y-77325714D01*
X113644498Y-77325714D01*
X113757393Y-77325714D01*
X113824432Y-77345399D01*
X113870187Y-77398203D01*
X113881393Y-77449714D01*
X113881393Y-77562610D01*
X113918295Y-77700331D01*
X113989585Y-77823809D01*
X114090404Y-77924628D01*
X114213882Y-77995918D01*
X114351603Y-78032820D01*
X114351605Y-78032820D01*
X114425643Y-78032820D01*
X114444738Y-78038427D01*
X115006000Y-78038427D01*
X115014685Y-78040977D01*
X115023647Y-78039689D01*
X115047687Y-78050667D01*
X115073039Y-78058112D01*
X115078966Y-78064952D01*
X115087203Y-78068714D01*
X115101492Y-78090948D01*
X115118794Y-78110916D01*
X115121081Y-78121430D01*
X115124977Y-78127492D01*
X115130000Y-78162427D01*
X115130000Y-78198427D01*
X115166000Y-78198427D01*
X115233039Y-78218112D01*
X115278794Y-78270916D01*
X115290000Y-78322427D01*
X115290000Y-78839528D01*
X115322513Y-78833062D01*
X115322520Y-78833060D01*
X115442620Y-78783314D01*
X115442633Y-78783307D01*
X115550723Y-78711083D01*
X115573141Y-78688665D01*
X115634464Y-78655179D01*
X115704155Y-78660162D01*
X115748505Y-78688664D01*
X116495351Y-79435510D01*
X116520851Y-79479667D01*
X116523041Y-79478761D01*
X116526152Y-79486271D01*
X116526153Y-79486274D01*
X116529711Y-79492436D01*
X116593096Y-79602222D01*
X116593098Y-79602224D01*
X116593099Y-79602226D01*
X116687774Y-79696901D01*
X116803726Y-79763847D01*
X116842439Y-79774220D01*
X116902099Y-79810582D01*
X116932630Y-79873428D01*
X116924336Y-79942804D01*
X116879852Y-79996683D01*
X116879242Y-79997094D01*
X116865350Y-80006376D01*
X116776838Y-80094888D01*
X116776835Y-80094892D01*
X116707291Y-80198971D01*
X116707284Y-80198985D01*
X116700950Y-80214276D01*
X116657108Y-80268678D01*
X116617232Y-80286922D01*
X116601315Y-80291009D01*
X116601313Y-80291009D01*
X116467905Y-80364350D01*
X116467905Y-80364351D01*
X116600619Y-80497065D01*
X116634104Y-80558388D01*
X116634555Y-80560554D01*
X116659381Y-80685363D01*
X116659384Y-80685373D01*
X116707284Y-80801015D01*
X116707291Y-80801028D01*
X116776835Y-80905107D01*
X116776838Y-80905111D01*
X116833182Y-80961455D01*
X116837520Y-80969399D01*
X116844769Y-80974826D01*
X116854004Y-80999588D01*
X116866667Y-81022778D01*
X116866021Y-81031808D01*
X116869185Y-81040291D01*
X116863568Y-81066111D01*
X116861683Y-81092470D01*
X116855864Y-81101523D01*
X116854333Y-81108564D01*
X116833182Y-81136818D01*
X116770903Y-81199096D01*
X116709579Y-81232580D01*
X116639888Y-81227595D01*
X116595541Y-81199095D01*
X116114351Y-80717905D01*
X116114350Y-80717905D01*
X116041010Y-80851311D01*
X115998856Y-81015493D01*
X115996470Y-81014880D01*
X115973380Y-81067799D01*
X115927706Y-81101930D01*
X115886457Y-81119846D01*
X115886455Y-81119848D01*
X115820080Y-81171991D01*
X115820070Y-81172000D01*
X115564356Y-81427715D01*
X115512206Y-81494097D01*
X115512203Y-81494101D01*
X115511506Y-81495707D01*
X115510593Y-81496800D01*
X115508132Y-81500927D01*
X115507476Y-81500535D01*
X115466738Y-81549351D01*
X115400075Y-81570276D01*
X115381076Y-81567964D01*
X115380932Y-81569061D01*
X115372877Y-81568000D01*
X115372876Y-81568000D01*
X115372874Y-81568000D01*
X111596320Y-81568000D01*
X111529281Y-81548315D01*
X111483526Y-81495511D01*
X111472320Y-81444000D01*
X111472320Y-78358427D01*
X114488896Y-78358427D01*
X114495361Y-78390935D01*
X114495364Y-78390944D01*
X114545112Y-78511047D01*
X114545119Y-78511060D01*
X114617344Y-78619151D01*
X114617347Y-78619155D01*
X114709271Y-78711079D01*
X114709275Y-78711082D01*
X114817366Y-78783307D01*
X114817379Y-78783314D01*
X114937479Y-78833060D01*
X114937486Y-78833062D01*
X114970000Y-78839529D01*
X114970000Y-78358427D01*
X114488896Y-78358427D01*
X111472320Y-78358427D01*
X111472320Y-74828361D01*
X111492005Y-74761322D01*
X111544809Y-74715567D01*
X111613967Y-74705623D01*
X111677523Y-74734648D01*
G37*
%TD.AperFunction*%
%TA.AperFunction,Conductor*%
G36*
X104870443Y-70528185D02*
G01*
X104916198Y-70580989D01*
X104926142Y-70650147D01*
X104897117Y-70713703D01*
X104891085Y-70720181D01*
X104436959Y-71174308D01*
X104364895Y-71246372D01*
X104320635Y-71290631D01*
X104276376Y-71334890D01*
X104206833Y-71438968D01*
X104206826Y-71438981D01*
X104158926Y-71554623D01*
X104158923Y-71554635D01*
X104134503Y-71677401D01*
X104134503Y-73533308D01*
X104114818Y-73600347D01*
X104062014Y-73646102D01*
X103992856Y-73656046D01*
X103965014Y-73648663D01*
X103888441Y-73618467D01*
X103888437Y-73618466D01*
X103805437Y-73608499D01*
X103698990Y-73608499D01*
X103631951Y-73588814D01*
X103611309Y-73572180D01*
X103311820Y-73272690D01*
X103278335Y-73211367D01*
X103275501Y-73185009D01*
X103275501Y-73087405D01*
X103275500Y-73087401D01*
X103270832Y-73063932D01*
X103251079Y-72964628D01*
X103212805Y-72872226D01*
X103203177Y-72848981D01*
X103203170Y-72848968D01*
X103133626Y-72744889D01*
X103133623Y-72744885D01*
X103045112Y-72656374D01*
X103045108Y-72656371D01*
X102941029Y-72586827D01*
X102941016Y-72586820D01*
X102825374Y-72538920D01*
X102825362Y-72538917D01*
X102702596Y-72514497D01*
X102702592Y-72514497D01*
X102577410Y-72514497D01*
X102577405Y-72514497D01*
X102454639Y-72538917D01*
X102454627Y-72538920D01*
X102338985Y-72586820D01*
X102338972Y-72586827D01*
X102234893Y-72656371D01*
X102234889Y-72656374D01*
X102146378Y-72744885D01*
X102146375Y-72744889D01*
X102076831Y-72848968D01*
X102076824Y-72848981D01*
X102028924Y-72964623D01*
X102028921Y-72964635D01*
X102004501Y-73087401D01*
X102004501Y-73212592D01*
X102028921Y-73335358D01*
X102028924Y-73335370D01*
X102076824Y-73451012D01*
X102076831Y-73451025D01*
X102146375Y-73555104D01*
X102146378Y-73555108D01*
X102234891Y-73643621D01*
X102241151Y-73647803D01*
X102253679Y-73656174D01*
X102272468Y-73671594D01*
X102842182Y-74241307D01*
X102875667Y-74302630D01*
X102878501Y-74328988D01*
X102878501Y-74435435D01*
X102888468Y-74518435D01*
X102888468Y-74518436D01*
X102940556Y-74650522D01*
X102974340Y-74695073D01*
X102999163Y-74760385D01*
X102984735Y-74828749D01*
X102974340Y-74844923D01*
X102940556Y-74889473D01*
X102888468Y-75021559D01*
X102888468Y-75021560D01*
X102878501Y-75104560D01*
X102878501Y-75306108D01*
X102858816Y-75373147D01*
X102806012Y-75418902D01*
X102789102Y-75425183D01*
X102780815Y-75427590D01*
X102780814Y-75427591D01*
X102642720Y-75509259D01*
X102642711Y-75509266D01*
X102529274Y-75622703D01*
X102529267Y-75622712D01*
X102447599Y-75760806D01*
X102447598Y-75760809D01*
X102402839Y-75914869D01*
X102402838Y-75914875D01*
X102400075Y-75949998D01*
X103046006Y-75949998D01*
X103113045Y-75969683D01*
X103158800Y-76022487D01*
X103170006Y-76073998D01*
X103170006Y-76199998D01*
X103296006Y-76199998D01*
X103363045Y-76219683D01*
X103408800Y-76272487D01*
X103420006Y-76323998D01*
X103420006Y-77012841D01*
X103559200Y-76972402D01*
X103697289Y-76890737D01*
X103697296Y-76890732D01*
X103705466Y-76882562D01*
X103766787Y-76849075D01*
X103836479Y-76854057D01*
X103838639Y-76854885D01*
X103900292Y-76879197D01*
X103931565Y-76891530D01*
X104014568Y-76901498D01*
X104365440Y-76901498D01*
X104448443Y-76891530D01*
X104580526Y-76839443D01*
X104693658Y-76753652D01*
X104779449Y-76640520D01*
X104831536Y-76508437D01*
X104841504Y-76425434D01*
X104841504Y-76105018D01*
X104850147Y-76075581D01*
X104856671Y-76045592D01*
X104860426Y-76040575D01*
X104861189Y-76037979D01*
X104877822Y-76017338D01*
X104896496Y-75998664D01*
X104929004Y-75966155D01*
X104990325Y-75932671D01*
X105001894Y-75930722D01*
X105078442Y-75921530D01*
X105210525Y-75869443D01*
X105232821Y-75852534D01*
X105236037Y-75851312D01*
X105238229Y-75848657D01*
X105268461Y-75838988D01*
X105298132Y-75827710D01*
X105302472Y-75828110D01*
X105304778Y-75827373D01*
X105339821Y-75831556D01*
X105343115Y-75832439D01*
X105402779Y-75868794D01*
X105433318Y-75931636D01*
X105432656Y-75976408D01*
X105424501Y-76017407D01*
X105424501Y-76142592D01*
X105448921Y-76265358D01*
X105448924Y-76265370D01*
X105496825Y-76381014D01*
X105496826Y-76381015D01*
X105496828Y-76381019D01*
X105530603Y-76431566D01*
X105551481Y-76498243D01*
X105551501Y-76500457D01*
X105551501Y-77026945D01*
X105586154Y-77156276D01*
X105616638Y-77209075D01*
X105653100Y-77272228D01*
X105653102Y-77272230D01*
X105784947Y-77404075D01*
X105794306Y-77421216D01*
X105807724Y-77435409D01*
X105810706Y-77451250D01*
X105818432Y-77465398D01*
X105817038Y-77484878D01*
X105820653Y-77504072D01*
X105814597Y-77519010D01*
X105813448Y-77535090D01*
X105801743Y-77550725D01*
X105794407Y-77568825D01*
X105776860Y-77583963D01*
X105771576Y-77591023D01*
X105768759Y-77593071D01*
X105764149Y-77596323D01*
X105717774Y-77623099D01*
X105697559Y-77643313D01*
X105688883Y-77649436D01*
X105665463Y-77657429D01*
X105643748Y-77669287D01*
X105624731Y-77671331D01*
X105622759Y-77672005D01*
X105621458Y-77671683D01*
X105617390Y-77672121D01*
X104675778Y-77672121D01*
X104570496Y-77700331D01*
X104570492Y-77700332D01*
X104565603Y-77701641D01*
X104466826Y-77758671D01*
X104466820Y-77758675D01*
X103901826Y-78323669D01*
X103901822Y-78323675D01*
X103848842Y-78415439D01*
X103848841Y-78415440D01*
X103844794Y-78422449D01*
X103844793Y-78422451D01*
X103844793Y-78422452D01*
X103835522Y-78457051D01*
X103815272Y-78532627D01*
X103815272Y-81030666D01*
X103795587Y-81097705D01*
X103742783Y-81143460D01*
X103684492Y-81154481D01*
X103671627Y-81153776D01*
X103666139Y-81152306D01*
X103644772Y-81152306D01*
X103641393Y-81152121D01*
X103611518Y-81141543D01*
X103581134Y-81132621D01*
X103577068Y-81129344D01*
X103575530Y-81128800D01*
X103574095Y-81126949D01*
X103560492Y-81115987D01*
X103360042Y-80915537D01*
X103326557Y-80854214D01*
X103324434Y-80814599D01*
X103329999Y-80762841D01*
X103330000Y-80762827D01*
X103330000Y-80437172D01*
X103329999Y-80437155D01*
X103323598Y-80377627D01*
X103323596Y-80377620D01*
X103273354Y-80242913D01*
X103273352Y-80242910D01*
X103236233Y-80193325D01*
X103229521Y-80175330D01*
X103218365Y-80159700D01*
X103213964Y-80133622D01*
X103211816Y-80127861D01*
X103211647Y-80125051D01*
X103211500Y-80122035D01*
X103211500Y-80048794D01*
X103206135Y-80011980D01*
X103205846Y-80006037D01*
X103206995Y-80001277D01*
X103206995Y-79982122D01*
X103211500Y-79951206D01*
X103211500Y-79880984D01*
X103231185Y-79813945D01*
X103236234Y-79806672D01*
X103273351Y-79757090D01*
X103323597Y-79622376D01*
X103323598Y-79622372D01*
X103329999Y-79562844D01*
X103330000Y-79562827D01*
X103330000Y-79237172D01*
X103329999Y-79237155D01*
X103323598Y-79177627D01*
X103323596Y-79177620D01*
X103273354Y-79042913D01*
X103273352Y-79042910D01*
X103236233Y-78993325D01*
X103211816Y-78927861D01*
X103211500Y-78919014D01*
X103211500Y-78713799D01*
X103211500Y-78713794D01*
X103200696Y-78639639D01*
X103186596Y-78610797D01*
X103144778Y-78525256D01*
X103144776Y-78525253D01*
X103054746Y-78435223D01*
X103054743Y-78435221D01*
X102940364Y-78379305D01*
X102940362Y-78379304D01*
X102940361Y-78379304D01*
X102866206Y-78368500D01*
X102133794Y-78368500D01*
X102059639Y-78379304D01*
X102059637Y-78379304D01*
X102059635Y-78379305D01*
X101945256Y-78435221D01*
X101876635Y-78503842D01*
X101815311Y-78537326D01*
X101745620Y-78532341D01*
X101701273Y-78503841D01*
X101679821Y-78482389D01*
X101679819Y-78482387D01*
X101563867Y-78415441D01*
X101434538Y-78380788D01*
X101300648Y-78380788D01*
X101300646Y-78380788D01*
X101202835Y-78406996D01*
X101138651Y-78406996D01*
X101040839Y-78380788D01*
X101040838Y-78380788D01*
X100906948Y-78380788D01*
X100777617Y-78415441D01*
X100694501Y-78463430D01*
X100626601Y-78479903D01*
X100560574Y-78457051D01*
X100517383Y-78402130D01*
X100508500Y-78356043D01*
X100508500Y-76449998D01*
X102400075Y-76449998D01*
X102402838Y-76485120D01*
X102402839Y-76485126D01*
X102447598Y-76639186D01*
X102447599Y-76639189D01*
X102529267Y-76777283D01*
X102529274Y-76777292D01*
X102642711Y-76890729D01*
X102642720Y-76890736D01*
X102780811Y-76972402D01*
X102920006Y-77012842D01*
X102920006Y-76449998D01*
X102400075Y-76449998D01*
X100508500Y-76449998D01*
X100508500Y-71261989D01*
X100528185Y-71194950D01*
X100544819Y-71174308D01*
X101174308Y-70544819D01*
X101235631Y-70511334D01*
X101261989Y-70508500D01*
X104803404Y-70508500D01*
X104870443Y-70528185D01*
G37*
%TD.AperFunction*%
%TA.AperFunction,Conductor*%
G36*
X100713703Y-79804592D02*
G01*
X100720166Y-79810610D01*
X100999832Y-80090275D01*
X101100550Y-80190993D01*
X101134035Y-80252316D01*
X101129051Y-80322008D01*
X101087179Y-80377941D01*
X101021715Y-80402358D01*
X101012869Y-80402674D01*
X100924665Y-80402674D01*
X100795334Y-80437327D01*
X100694501Y-80495545D01*
X100626601Y-80512018D01*
X100560574Y-80489166D01*
X100517383Y-80434245D01*
X100508500Y-80388158D01*
X100508500Y-79898305D01*
X100528185Y-79831266D01*
X100580989Y-79785511D01*
X100650147Y-79775567D01*
X100713703Y-79804592D01*
G37*
%TD.AperFunction*%
%TA.AperFunction,Conductor*%
G36*
X109832444Y-71835185D02*
G01*
X109853086Y-71851819D01*
X110165001Y-72163734D01*
X110198486Y-72225057D01*
X110201320Y-72251415D01*
X110201320Y-72703784D01*
X110181635Y-72770823D01*
X110128831Y-72816578D01*
X110059673Y-72826522D01*
X109996117Y-72797497D01*
X109989639Y-72791465D01*
X109718551Y-72520377D01*
X109718547Y-72520374D01*
X109614468Y-72450830D01*
X109614455Y-72450823D01*
X109498813Y-72402923D01*
X109498801Y-72402920D01*
X109376035Y-72378500D01*
X109376031Y-72378500D01*
X108588591Y-72378500D01*
X108463409Y-72378500D01*
X108463404Y-72378500D01*
X108340638Y-72402920D01*
X108340626Y-72402923D01*
X108224984Y-72450823D01*
X108224971Y-72450830D01*
X108120892Y-72520374D01*
X108120888Y-72520377D01*
X107564892Y-73076375D01*
X107564891Y-73076376D01*
X107512680Y-73128586D01*
X107451357Y-73162070D01*
X107381665Y-73157085D01*
X107337319Y-73128585D01*
X107295111Y-73086377D01*
X107295107Y-73086374D01*
X107191028Y-73016830D01*
X107191015Y-73016823D01*
X107075373Y-72968923D01*
X107075361Y-72968920D01*
X106952595Y-72944500D01*
X106952591Y-72944500D01*
X106827409Y-72944500D01*
X106827404Y-72944500D01*
X106704638Y-72968920D01*
X106704626Y-72968923D01*
X106588984Y-73016823D01*
X106588971Y-73016830D01*
X106484892Y-73086374D01*
X106484888Y-73086377D01*
X106396377Y-73174888D01*
X106396374Y-73174892D01*
X106326830Y-73278971D01*
X106326823Y-73278984D01*
X106278923Y-73394626D01*
X106278920Y-73394638D01*
X106254500Y-73517404D01*
X106254500Y-73642595D01*
X106278920Y-73765361D01*
X106278922Y-73765369D01*
X106289507Y-73790924D01*
X106290561Y-73793467D01*
X106300000Y-73840920D01*
X106300000Y-74175998D01*
X106280315Y-74243037D01*
X106227511Y-74288792D01*
X106176000Y-74299998D01*
X105924000Y-74299998D01*
X105856961Y-74280313D01*
X105811206Y-74227509D01*
X105800000Y-74175998D01*
X105800000Y-73521208D01*
X105799999Y-73521207D01*
X105779087Y-73522852D01*
X105779081Y-73522853D01*
X105623809Y-73567964D01*
X105623806Y-73567965D01*
X105592623Y-73586407D01*
X105524899Y-73603588D01*
X105458636Y-73581428D01*
X105414874Y-73526962D01*
X105405503Y-73479674D01*
X105405503Y-72054592D01*
X105414147Y-72025151D01*
X105420671Y-71995165D01*
X105424425Y-71990149D01*
X105425188Y-71987553D01*
X105441822Y-71966911D01*
X105556914Y-71851819D01*
X105618237Y-71818334D01*
X105644595Y-71815500D01*
X109765405Y-71815500D01*
X109832444Y-71835185D01*
G37*
%TD.AperFunction*%
%TD*%
%TA.AperFunction,Conductor*%
%TO.N,P1VD_FPGA*%
G36*
X118601644Y-83530020D02*
G01*
X118623860Y-83530015D01*
X118635905Y-83538060D01*
X118759468Y-83661623D01*
X118759470Y-83661624D01*
X118798737Y-83677888D01*
X118805155Y-83681318D01*
X118807903Y-83683154D01*
X118807905Y-83683156D01*
X118882773Y-83714167D01*
X118882774Y-83714167D01*
X118930003Y-83714167D01*
X118956168Y-83724965D01*
X119057910Y-83826180D01*
X119068845Y-83852386D01*
X119068845Y-83900240D01*
X119099854Y-83975104D01*
X119099855Y-83975105D01*
X119099856Y-83975107D01*
X119157158Y-84032409D01*
X119232026Y-84063420D01*
X119271658Y-84063420D01*
X119297892Y-84074286D01*
X119308045Y-84093282D01*
X119318369Y-84145186D01*
X119346717Y-84187610D01*
X119347564Y-84188877D01*
X119400319Y-84241631D01*
X119428494Y-84269806D01*
X119436536Y-84281843D01*
X119457708Y-84332958D01*
X119457709Y-84332959D01*
X119457710Y-84332961D01*
X119515012Y-84390263D01*
X119515013Y-84390263D01*
X119515014Y-84390264D01*
X119534748Y-84398438D01*
X119589880Y-84421274D01*
X119589881Y-84421274D01*
X119591677Y-84422018D01*
X119598087Y-84425443D01*
X119599720Y-84426535D01*
X119665801Y-84439679D01*
X119684728Y-84449764D01*
X119769317Y-84533915D01*
X119780252Y-84560121D01*
X119780252Y-84611647D01*
X119811261Y-84686511D01*
X119811262Y-84686512D01*
X119811263Y-84686514D01*
X119868565Y-84743816D01*
X119943433Y-84774827D01*
X119943434Y-84774827D01*
X119996167Y-84774827D01*
X120022333Y-84785625D01*
X120044351Y-84807529D01*
X120122872Y-84885645D01*
X120133806Y-84911850D01*
X120133806Y-84965201D01*
X120164815Y-85040065D01*
X120164816Y-85040066D01*
X120164817Y-85040068D01*
X120222119Y-85097370D01*
X120222120Y-85097370D01*
X120222121Y-85097371D01*
X120241855Y-85105545D01*
X120296987Y-85128381D01*
X120296988Y-85128381D01*
X120351557Y-85128381D01*
X120377720Y-85139178D01*
X120476426Y-85237373D01*
X120487359Y-85263577D01*
X120487359Y-85318754D01*
X120518368Y-85393618D01*
X120518369Y-85393619D01*
X120518370Y-85393621D01*
X120575672Y-85450923D01*
X120575673Y-85450923D01*
X120575674Y-85450924D01*
X120595406Y-85459097D01*
X120650540Y-85481934D01*
X120650541Y-85481934D01*
X120731577Y-85481934D01*
X120731578Y-85481934D01*
X120806446Y-85450923D01*
X120863748Y-85393621D01*
X120894759Y-85318753D01*
X120894759Y-85277525D01*
X120905625Y-85251291D01*
X120924620Y-85241138D01*
X120941839Y-85237713D01*
X121194466Y-85237713D01*
X121194466Y-85318754D01*
X121225475Y-85393618D01*
X121225476Y-85393619D01*
X121225477Y-85393621D01*
X121282779Y-85450923D01*
X121282780Y-85450923D01*
X121282781Y-85450924D01*
X121302513Y-85459097D01*
X121357647Y-85481934D01*
X121357648Y-85481934D01*
X121438684Y-85481934D01*
X121438685Y-85481934D01*
X121513553Y-85450923D01*
X121570855Y-85393621D01*
X121601866Y-85318753D01*
X121601866Y-85237715D01*
X121573584Y-85169436D01*
X121570856Y-85162849D01*
X121570855Y-85162848D01*
X121570855Y-85162847D01*
X121513553Y-85105545D01*
X121513551Y-85105544D01*
X121513550Y-85105543D01*
X121438686Y-85074534D01*
X121438685Y-85074534D01*
X121357647Y-85074534D01*
X121357645Y-85074534D01*
X121282781Y-85105543D01*
X121225475Y-85162849D01*
X121194466Y-85237713D01*
X120941839Y-85237713D01*
X120979485Y-85230225D01*
X120979486Y-85230224D01*
X120979487Y-85230224D01*
X121019910Y-85203214D01*
X121021072Y-85202437D01*
X121023178Y-85201030D01*
X121098171Y-85126034D01*
X121110208Y-85117992D01*
X121159999Y-85097369D01*
X121217301Y-85040067D01*
X121244283Y-84974923D01*
X121247704Y-84968525D01*
X121260836Y-84948874D01*
X121274550Y-84879929D01*
X121267663Y-84845307D01*
X121268434Y-84841433D01*
X121266951Y-84837769D01*
X121271118Y-84827933D01*
X121273202Y-84817460D01*
X121278022Y-84811634D01*
X121278094Y-84811562D01*
X121304414Y-84800911D01*
X121325262Y-84807529D01*
X121374124Y-84841433D01*
X121537260Y-84954629D01*
X121550385Y-84970912D01*
X121579028Y-85040064D01*
X121579029Y-85040065D01*
X121579030Y-85040067D01*
X121636332Y-85097369D01*
X121636333Y-85097369D01*
X121636334Y-85097370D01*
X121641030Y-85099315D01*
X121711200Y-85128380D01*
X121711201Y-85128380D01*
X121748872Y-85128380D01*
X121775106Y-85139246D01*
X121785972Y-85165480D01*
X121785759Y-85169436D01*
X121761510Y-85394954D01*
X121747903Y-85419875D01*
X121724624Y-85428087D01*
X121711198Y-85428087D01*
X121636334Y-85459096D01*
X121579028Y-85516402D01*
X121548019Y-85591266D01*
X121548019Y-85672307D01*
X121579028Y-85747171D01*
X121579029Y-85747172D01*
X121579030Y-85747174D01*
X121636332Y-85804476D01*
X121636333Y-85804476D01*
X121636334Y-85804477D01*
X121688356Y-85826025D01*
X121708435Y-85846103D01*
X121711046Y-85864267D01*
X121696981Y-85995072D01*
X121683373Y-86019994D01*
X121656128Y-86027993D01*
X121631206Y-86014385D01*
X121623707Y-85998343D01*
X121616063Y-85959913D01*
X121586953Y-85916347D01*
X121586950Y-85916344D01*
X121554596Y-85883991D01*
X121385527Y-86053059D01*
X121359293Y-86063925D01*
X121333059Y-86053059D01*
X121241843Y-85961843D01*
X121230977Y-85935609D01*
X121241843Y-85909375D01*
X121410912Y-85740306D01*
X121378561Y-85707957D01*
X121378560Y-85707956D01*
X121334989Y-85678841D01*
X121334985Y-85678839D01*
X121278174Y-85667539D01*
X121254565Y-85651764D01*
X121248312Y-85631152D01*
X121248312Y-85591269D01*
X121248311Y-85591266D01*
X121217302Y-85516402D01*
X121217301Y-85516401D01*
X121217301Y-85516400D01*
X121159999Y-85459098D01*
X121159997Y-85459097D01*
X121159996Y-85459096D01*
X121085132Y-85428087D01*
X121085131Y-85428087D01*
X121004093Y-85428087D01*
X121004091Y-85428087D01*
X120929227Y-85459096D01*
X120871921Y-85516402D01*
X120840912Y-85591266D01*
X120840912Y-85672307D01*
X120871921Y-85747171D01*
X120871922Y-85747172D01*
X120871923Y-85747174D01*
X120929225Y-85804476D01*
X120929226Y-85804476D01*
X120929227Y-85804477D01*
X120969799Y-85821282D01*
X120971685Y-85823168D01*
X120974329Y-85823531D01*
X120981493Y-85832976D01*
X120989878Y-85841360D01*
X120989878Y-85844028D01*
X120991490Y-85846154D01*
X120989878Y-85855752D01*
X120989878Y-85869755D01*
X120987629Y-85874285D01*
X120953877Y-85932007D01*
X120947149Y-85937110D01*
X120942458Y-85944130D01*
X120936275Y-85945358D01*
X120931254Y-85949168D01*
X120922889Y-85948019D01*
X120914608Y-85949666D01*
X120909368Y-85946164D01*
X120903123Y-85945307D01*
X120898019Y-85938579D01*
X120891000Y-85933888D01*
X120887576Y-85927481D01*
X120863748Y-85869954D01*
X120806446Y-85812652D01*
X120806444Y-85812651D01*
X120806443Y-85812650D01*
X120731579Y-85781641D01*
X120731578Y-85781641D01*
X120650540Y-85781641D01*
X120650538Y-85781641D01*
X120575674Y-85812650D01*
X120518368Y-85869956D01*
X120487359Y-85944820D01*
X120487359Y-86025861D01*
X120518368Y-86100725D01*
X120518369Y-86100726D01*
X120518370Y-86100728D01*
X120575672Y-86158030D01*
X120575673Y-86158030D01*
X120575674Y-86158031D01*
X120595406Y-86166204D01*
X120650540Y-86189041D01*
X120650541Y-86189041D01*
X120731577Y-86189041D01*
X120731578Y-86189041D01*
X120806446Y-86158030D01*
X120863748Y-86100728D01*
X120887333Y-86043786D01*
X120907411Y-86023708D01*
X120935806Y-86023708D01*
X120953778Y-86039502D01*
X120986830Y-86097030D01*
X120988504Y-86109963D01*
X120991048Y-86122749D01*
X120990304Y-86123862D01*
X120990476Y-86125190D01*
X120982515Y-86135519D01*
X120975273Y-86146359D01*
X120973383Y-86147369D01*
X120973143Y-86147681D01*
X120972690Y-86147739D01*
X120968859Y-86149788D01*
X120929226Y-86166204D01*
X120871921Y-86223509D01*
X120840912Y-86298373D01*
X120840912Y-86379414D01*
X120871921Y-86454278D01*
X120871922Y-86454279D01*
X120871923Y-86454281D01*
X120929225Y-86511583D01*
X121004093Y-86542594D01*
X121004094Y-86542594D01*
X121085130Y-86542594D01*
X121085131Y-86542594D01*
X121159999Y-86511583D01*
X121217301Y-86454281D01*
X121248312Y-86379413D01*
X121248312Y-86379408D01*
X121249025Y-86375828D01*
X121251087Y-86376238D01*
X121259178Y-86356705D01*
X121285412Y-86345839D01*
X121292651Y-86346552D01*
X121308665Y-86349737D01*
X121364835Y-86338565D01*
X121392685Y-86344104D01*
X121408460Y-86367714D01*
X121408460Y-86382189D01*
X121397203Y-86438785D01*
X121397203Y-86438788D01*
X121402986Y-86467866D01*
X121397446Y-86495715D01*
X121397400Y-86495784D01*
X121235941Y-86736256D01*
X121212296Y-86751978D01*
X121192980Y-86750625D01*
X120951716Y-86666921D01*
X120930493Y-86648057D01*
X120927490Y-86639111D01*
X120925976Y-86631499D01*
X120896781Y-86587806D01*
X120688318Y-86379345D01*
X120644625Y-86350148D01*
X120644621Y-86350147D01*
X120572096Y-86335721D01*
X120572437Y-86334003D01*
X120552071Y-86325568D01*
X120542264Y-86301891D01*
X120541918Y-86301960D01*
X120541571Y-86300219D01*
X120541205Y-86299334D01*
X120541205Y-86298376D01*
X120541204Y-86298373D01*
X120510195Y-86223509D01*
X120510194Y-86223508D01*
X120510194Y-86223507D01*
X120452892Y-86166205D01*
X120452890Y-86166204D01*
X120452889Y-86166203D01*
X120378025Y-86135194D01*
X120378024Y-86135194D01*
X120296986Y-86135194D01*
X120296985Y-86135194D01*
X120278749Y-86142747D01*
X120272059Y-86142746D01*
X120265980Y-86145543D01*
X120258416Y-86142745D01*
X120250354Y-86142745D01*
X120239348Y-86135693D01*
X120188055Y-86088199D01*
X120176189Y-86062404D01*
X120178985Y-86046783D01*
X120187652Y-86025860D01*
X120187652Y-85944822D01*
X120156641Y-85869954D01*
X120099339Y-85812652D01*
X120099337Y-85812651D01*
X120099336Y-85812650D01*
X120024472Y-85781641D01*
X120024471Y-85781641D01*
X119943433Y-85781641D01*
X119932273Y-85786263D01*
X119905655Y-85797288D01*
X119898964Y-85797287D01*
X119892885Y-85800084D01*
X119885321Y-85797286D01*
X119877260Y-85797286D01*
X119866253Y-85790234D01*
X119826662Y-85753576D01*
X119814795Y-85727779D01*
X119817591Y-85712160D01*
X119834099Y-85672306D01*
X119834099Y-85591268D01*
X119834098Y-85591266D01*
X120133805Y-85591266D01*
X120133805Y-85672307D01*
X120164814Y-85747171D01*
X120164815Y-85747172D01*
X120164816Y-85747174D01*
X120222118Y-85804476D01*
X120296986Y-85835487D01*
X120296987Y-85835487D01*
X120378023Y-85835487D01*
X120378024Y-85835487D01*
X120452892Y-85804476D01*
X120510194Y-85747174D01*
X120541205Y-85672306D01*
X120541205Y-85591268D01*
X120510194Y-85516400D01*
X120452892Y-85459098D01*
X120452890Y-85459097D01*
X120452889Y-85459096D01*
X120378025Y-85428087D01*
X120378024Y-85428087D01*
X120296986Y-85428087D01*
X120296984Y-85428087D01*
X120222120Y-85459096D01*
X120164814Y-85516402D01*
X120133805Y-85591266D01*
X119834098Y-85591266D01*
X119803088Y-85516400D01*
X119745786Y-85459098D01*
X119745784Y-85459097D01*
X119745783Y-85459096D01*
X119670919Y-85428087D01*
X119670918Y-85428087D01*
X119589880Y-85428087D01*
X119589878Y-85428087D01*
X119532560Y-85451829D01*
X119525869Y-85451829D01*
X119519789Y-85454626D01*
X119512227Y-85451829D01*
X119504165Y-85451829D01*
X119493160Y-85444778D01*
X119465266Y-85418950D01*
X119453400Y-85393155D01*
X119456195Y-85377537D01*
X119480545Y-85318753D01*
X119480545Y-85237715D01*
X119480544Y-85237713D01*
X119780252Y-85237713D01*
X119780252Y-85318754D01*
X119811261Y-85393618D01*
X119811262Y-85393619D01*
X119811263Y-85393621D01*
X119868565Y-85450923D01*
X119868566Y-85450923D01*
X119868567Y-85450924D01*
X119888299Y-85459097D01*
X119943433Y-85481934D01*
X119943434Y-85481934D01*
X120024470Y-85481934D01*
X120024471Y-85481934D01*
X120099339Y-85450923D01*
X120156641Y-85393621D01*
X120187652Y-85318753D01*
X120187652Y-85237715D01*
X120159370Y-85169436D01*
X120156642Y-85162849D01*
X120156641Y-85162848D01*
X120156641Y-85162847D01*
X120099339Y-85105545D01*
X120099337Y-85105544D01*
X120099336Y-85105543D01*
X120024472Y-85074534D01*
X120024471Y-85074534D01*
X119943433Y-85074534D01*
X119943431Y-85074534D01*
X119868567Y-85105543D01*
X119811261Y-85162849D01*
X119780252Y-85237713D01*
X119480544Y-85237713D01*
X119452263Y-85169436D01*
X119449535Y-85162849D01*
X119449534Y-85162848D01*
X119449534Y-85162847D01*
X119392232Y-85105545D01*
X119392230Y-85105544D01*
X119392229Y-85105543D01*
X119317365Y-85074534D01*
X119317364Y-85074534D01*
X119236326Y-85074534D01*
X119236324Y-85074534D01*
X119159465Y-85106369D01*
X119152774Y-85106369D01*
X119146694Y-85109166D01*
X119139132Y-85106369D01*
X119131070Y-85106369D01*
X119120062Y-85099315D01*
X119107817Y-85087977D01*
X119095950Y-85062181D01*
X119105801Y-85035549D01*
X119106742Y-85034569D01*
X119199886Y-84941425D01*
X119229083Y-84897732D01*
X119231783Y-84884160D01*
X119426699Y-84884160D01*
X119426699Y-84965201D01*
X119457708Y-85040065D01*
X119457709Y-85040066D01*
X119457710Y-85040068D01*
X119515012Y-85097370D01*
X119515013Y-85097370D01*
X119515014Y-85097371D01*
X119534748Y-85105545D01*
X119589880Y-85128381D01*
X119589881Y-85128381D01*
X119670917Y-85128381D01*
X119670918Y-85128381D01*
X119745786Y-85097370D01*
X119803088Y-85040068D01*
X119834099Y-84965200D01*
X119834099Y-84884162D01*
X119811162Y-84828786D01*
X119803089Y-84809296D01*
X119803088Y-84809295D01*
X119803088Y-84809294D01*
X119745786Y-84751992D01*
X119745784Y-84751991D01*
X119745783Y-84751990D01*
X119670919Y-84720981D01*
X119670918Y-84720981D01*
X119589880Y-84720981D01*
X119589878Y-84720981D01*
X119515014Y-84751990D01*
X119457708Y-84809296D01*
X119426699Y-84884160D01*
X119231783Y-84884160D01*
X119242797Y-84828787D01*
X119229083Y-84759842D01*
X119199888Y-84716148D01*
X119033852Y-84550114D01*
X119033848Y-84550111D01*
X119033846Y-84550109D01*
X118990161Y-84520919D01*
X118990160Y-84520918D01*
X118990158Y-84520917D01*
X118990154Y-84520916D01*
X118921213Y-84507203D01*
X118852265Y-84520917D01*
X118808578Y-84550109D01*
X118808573Y-84550113D01*
X118787346Y-84571340D01*
X118761113Y-84582206D01*
X118576121Y-84582206D01*
X118550915Y-84572329D01*
X118549847Y-84571340D01*
X118035972Y-84095530D01*
X118026891Y-84082474D01*
X118009500Y-84040368D01*
X118009528Y-84011974D01*
X118029627Y-83991916D01*
X118051028Y-83989819D01*
X118076239Y-83994834D01*
X118076241Y-83994834D01*
X118144990Y-83981159D01*
X118188559Y-83952047D01*
X118188561Y-83952045D01*
X118220911Y-83919691D01*
X118051844Y-83750624D01*
X118040978Y-83724390D01*
X118051844Y-83698156D01*
X118143060Y-83606939D01*
X118169294Y-83596073D01*
X118195528Y-83606939D01*
X118364596Y-83776007D01*
X118396949Y-83743653D01*
X118426062Y-83700085D01*
X118426064Y-83700080D01*
X118439738Y-83631336D01*
X118439738Y-83631334D01*
X118428565Y-83575164D01*
X118434104Y-83547314D01*
X118457714Y-83531539D01*
X118472189Y-83531539D01*
X118528787Y-83542797D01*
X118597732Y-83529083D01*
X118597732Y-83529082D01*
X118601316Y-83528370D01*
X118601644Y-83530020D01*
G37*
%TD.AperFunction*%
%TD*%
M02*
